<svg version="1.1" id="Layer_1" xmlns="http://www.w3.org/2000/svg" xmlns:xlink="http://www.w3.org/1999/xlink" x="0px" y="0px"
	 viewBox="0 0 226.8 226.8" style="enable-background:new 0 0 226.8 226.8;" xml:space="preserve">
<g>
	<path class="st0" d="M136.1,110.9l-32-18.5c-2.8-1.6-6.2,0.4-6.2,3.6V133c0,3.2,3.5,5.2,6.2,3.6l32-18.5
		C138.9,116.5,138.9,112.5,136.1,110.9z"/>
	<path class="st0" d="M113.4,59.6c-29.6,0-53.8,24.1-53.8,53.8c0,29.6,24.1,53.8,53.8,53.8c29.6,0,53.8-24.1,53.8-53.8
		C167.2,83.7,143,59.6,113.4,59.6z M113.4,160.9c-26.2,0-47.6-21.3-47.6-47.6c0-26.2,21.3-47.6,47.6-47.6
		c26.2,0,47.6,21.3,47.6,47.6C160.9,139.6,139.6,160.9,113.4,160.9z"/>
	<path class="st0" d="M113.4,0C50.8,0,0,50.8,0,113.4C0,176,50.8,226.8,113.4,226.8S226.8,176,226.8,113.4C226.8,50.8,176,0,113.4,0
		z M113.4,185.3c-39.7,0-71.9-32.2-71.9-71.9s32.2-71.9,71.9-71.9c39.7,0,71.9,32.2,71.9,71.9S153.1,185.3,113.4,185.3z"/>
</g>
</svg>
