<svg version="1.1" id="Layer_1" xmlns="http://www.w3.org/2000/svg" xmlns:xlink="http://www.w3.org/1999/xlink" x="0px" y="0px"
	 viewBox="0 0 226.8 226.8" style="enable-background:new 0 0 226.8 226.8;" xml:space="preserve">
<g>
	<path class="st0" d="M113.4,38.4c-41.4,0-75,33.6-75,75c0,41.4,33.6,75,75,75c41.4,0,75-33.6,75-75C188.4,72,154.7,38.4,113.4,38.4
		z M149.3,120.8l-50.4,29.1c-4.4,2.5-9.8-0.6-9.8-5.7V86c0-5,5.4-8.2,9.8-5.7l50.4,29.1C153.6,112,153.6,118.3,149.3,120.8z"/>
	<path class="st0" d="M113.4,0C50.8,0,0,50.8,0,113.4s50.8,113.4,113.4,113.4c62.6,0,113.4-50.8,113.4-113.4S176,0,113.4,0z
		 M113.4,198.2c-46.8,0-84.8-38-84.8-84.8c0-46.8,38-84.8,84.8-84.8c46.8,0,84.8,38,84.8,84.8C198.2,160.1,160.1,198.2,113.4,198.2z
		"/>
</g>
</svg>
