<svg version="1.1" id="Layer_1" xmlns="http://www.w3.org/2000/svg" xmlns:xlink="http://www.w3.org/1999/xlink" x="0px" y="0px"
	 width="226.777px" height="226.777px" viewBox="0 0 226.777 226.777" enable-background="new 0 0 226.777 226.777"
	 xml:space="preserve">
<g>
	<path fill="#231F20" d="M146.835,87.515c-10.021-1.901-21.25,2.188-27.354,8.87c-2.477-5.644-10.193-9.617-20.559-8.811
		S80.437,90.28,80.437,90.28l-2.131,12.267c0,0,7.774-4.205,15.318-4.264c7.543-0.057,14.916,0.405,13.706,8.178
		c0,0-9.558-0.346-18.024,0.806c0,0-16.643,1.383-19.408,14.109c-2.763,12.726,4.377,18.656,14.34,18.601
		c9.962-0.059,17.422-2.708,23.223-9.214c5.801,8.926,15.303,8.581,22.443,8.695c7.14,0.115,16.758-2.476,16.758-2.476l2.418-12.44
		c0,0-9.732,4.492-17.563,4.377c-7.832-0.113-12.266-1.15-11.46-8.292c0,0,11.518,0.115,17.795-0.748
		c0,0,15.663-1.901,18.887-12.036C159.965,97.708,156.855,89.416,146.835,87.515z M100.591,126.444
		c-2.935,2.937-9.242,4.319-12.999,1.339c-3.758-2.98-1.469-8.941,3.023-10.496c4.491-1.554,14.686-0.991,14.686-0.991
		S103.529,123.508,100.591,126.444z M134.15,110.55c-7.083,0.778-12.395,0.301-12.395,0.301s0.475-7.169,5.355-10.624
		c4.881-3.456,11.921-3.281,13.648,0.258C142.487,104.029,141.233,109.772,134.15,110.55z"/>
	<path fill="#231F20" d="M113.389,0C50.766,0,0,50.766,0,113.388c0,62.623,50.766,113.389,113.389,113.389
		c62.622,0,113.388-50.766,113.388-113.389C226.777,50.766,176.011,0,113.389,0z M183.457,60.423
		c3.722,4.881,5.082,11.176,4.368,18.337c-18.479-9.684-47.696-14.009-79.745-10.259c-1.234,0.145-2.46,0.304-3.68,0.469
		C138.051,48.789,171.318,44.505,183.457,60.423z M142.411,30.653c6.476,2.259,11.467,7.616,14.881,15.217
		c-17.754,1.505-39.831,9.988-61.48,24.456c-3.418,0.617-6.764,1.319-10.036,2.094C102.493,42.368,125.156,24.634,142.411,30.653z
		 M43.321,167.275c-3.721-4.883-5.083-11.176-4.368-18.339c18.479,9.685,47.695,14.011,79.745,10.259
		c1.232-0.144,2.458-0.303,3.678-0.471C88.726,178.908,55.459,183.193,43.321,167.275z M84.368,197.044
		c-6.477-2.26-11.468-7.617-14.882-15.217c17.754-1.506,39.83-9.988,61.479-24.455c3.418-0.617,6.765-1.318,10.034-2.093
		C124.284,185.329,101.621,203.063,84.368,197.044z M118.299,155.799c-48.332,5.658-89.713-8.537-92.425-31.706
		c-2.712-23.167,34.272-46.538,82.604-52.195c48.334-5.657,89.714,8.54,92.424,31.708
		C203.615,126.774,166.632,150.142,118.299,155.799z"/>
</g>
</svg>
