<svg version="1.1" id="Layer_1" xmlns="http://www.w3.org/2000/svg" xmlns:xlink="http://www.w3.org/1999/xlink" x="0px" y="0px"
	 width="226.777px" height="226.777px" viewBox="0 0 226.777 226.777" enable-background="new 0 0 226.777 226.777"
	 xml:space="preserve">
<g>
	<path fill="#1D1D1B" d="M170.15,25.549c-4.412-9.821-10.858-16.744-19.228-19.664c-22.296-7.776-51.582,15.138-73.182,53.971
		c4.228-1.002,8.551-1.909,12.967-2.707C118.681,38.455,147.209,27.493,170.15,25.549z"/>
	<path fill="#1D1D1B" d="M56.692,201.228c4.411,9.82,10.86,16.742,19.229,19.663c22.295,7.777,51.58-15.14,73.18-53.968
		c-4.227,1.002-8.551,1.905-12.969,2.704C108.158,188.322,79.632,199.282,56.692,201.228z"/>
	<path fill="#1D1D1B" d="M106.562,54.793c41.412-4.847,79.165,0.742,103.043,13.256c0.924-9.254-0.836-17.388-5.645-23.696
		c-15.684-20.568-58.672-15.034-102.154,11.045C103.384,55.185,104.967,54.979,106.562,54.793z"/>
	<path fill="#1D1D1B" d="M120.279,171.981c-41.411,4.85-79.164-0.739-103.042-13.253c-0.923,9.256,0.835,17.389,5.645,23.694
		c15.684,20.57,58.671,15.034,102.151-11.046C123.457,171.594,121.875,171.798,120.279,171.981z"/>
	<path fill="#1D1D1B" d="M83.993,117.832c-5.805,2.009-8.762,9.71-3.906,13.561c4.855,3.854,13.003,2.065,16.797-1.729
		c3.795-3.794,6.083-13.112,6.083-13.112S89.798,115.822,83.993,117.832z"/>
	<path fill="#1D1D1B" d="M131.151,95.787c-6.306,4.465-6.918,13.729-6.918,13.729s6.861,0.616,16.015-0.391
		c9.153-1.004,10.772-8.426,8.54-13.004C146.554,91.548,137.46,91.323,131.151,95.787z"/>
	<path fill="#1D1D1B" d="M226.504,100.153C223,70.215,169.532,51.871,107.076,59.18C44.621,66.491-3.168,96.689,0.337,126.626
		c3.505,29.937,56.976,48.28,119.429,40.969C182.22,160.285,230.01,130.089,226.504,100.153z M169.435,105.629
		c-4.165,13.096-24.404,15.552-24.404,15.552c-8.112,1.117-22.995,0.966-22.995,0.966c-1.04,9.228,4.688,10.567,14.811,10.718
		c10.119,0.146,22.694-5.658,22.694-5.658l-3.125,16.074c0,0-12.427,3.348-21.656,3.199c-9.226-0.146-21.503,0.3-28.999-11.234
		c-7.495,8.407-17.134,11.829-30.007,11.905c-12.874,0.074-22.101-7.591-18.529-24.035c3.571-16.446,25.077-18.232,25.077-18.232
		c10.938-1.488,23.29-1.041,23.29-1.041c1.564-10.046-7.961-10.642-17.709-10.567c-9.748,0.075-19.792,5.508-19.792,5.508
		l2.752-15.85c0,0,10.491-2.456,23.887-3.498c13.394-1.042,23.364,4.093,26.565,11.385c7.888-8.633,22.396-13.917,35.345-11.46
		C169.586,81.817,173.605,92.533,169.435,105.629z"/>
</g>
</svg>
