<svg version="1.1" id="Layer_1" xmlns="http://www.w3.org/2000/svg" xmlns:xlink="http://www.w3.org/1999/xlink" x="0px" y="0px"
	 width="226.777px" height="226.777px" viewBox="0 0 226.777 226.777" enable-background="new 0 0 226.777 226.777"
	 xml:space="preserve">
<g>
	<circle fill="#231F20" cx="89.056" cy="113.228" r="18.796"/>
	<path fill="#231F20" d="M146.994,94.432c-0.069,0-0.136,0.009-0.204,0.011l0.011-0.011c-14.662,0-26.547-11.885-26.547-26.547l0,0
		c0-10.381-8.416-18.797-18.797-18.797s-18.795,8.416-18.795,18.797s8.415,18.795,18.795,18.795c0.068,0,0.136-0.01,0.205-0.011
		l-0.011,0.011c14.661,0,26.548,11.886,26.548,26.547s-11.887,26.546-26.548,26.546c-10.38,0-18.795,8.416-18.795,18.796
		c0,10.381,8.416,18.796,18.795,18.796c10.381,0,18.796-8.415,18.796-18.796c0-14.662,11.886-26.547,26.547-26.547
		c10.38,0,18.796-8.416,18.796-18.795C165.79,102.847,157.374,94.432,146.994,94.432z"/>
	<path fill="#231F20" d="M113.389,0C50.766,0,0,50.766,0,113.388c0,62.623,50.766,113.389,113.389,113.389
		c62.622,0,113.388-50.766,113.388-113.389C226.777,50.766,176.011,0,113.389,0z M113.388,199.423
		c-47.515,0-86.035-38.518-86.035-86.034c0-47.518,38.52-86.035,86.035-86.035c47.517,0,86.034,38.518,86.034,86.035
		C199.423,160.905,160.905,199.423,113.388,199.423z"/>
</g>
</svg>
