<svg version="1.1" id="Layer_1" xmlns="http://www.w3.org/2000/svg" xmlns:xlink="http://www.w3.org/1999/xlink" x="0px" y="0px"
	 width="226.777px" height="226.777px" viewBox="0 0 226.777 226.777" enable-background="new 0 0 226.777 226.777"
	 xml:space="preserve">
<path fill="#231F20" d="M113.388,0C50.765,0,0,50.764,0,113.389c0,62.624,50.766,113.388,113.389,113.388
	c62.622,0,113.388-50.765,113.388-113.388C226.776,50.764,176.01,0,113.388,0z M56.549,113.177c0-13.681,11.09-24.771,24.772-24.771
	c13.68,0,24.771,11.09,24.771,24.771c0,13.682-11.091,24.771-24.771,24.771C67.639,137.948,56.549,126.858,56.549,113.177z
	 M157.678,137.948c-19.322,0-34.986,15.664-34.986,34.987c0,13.682-11.091,24.771-24.772,24.771
	c-13.681,0-24.771-11.09-24.771-24.771c0-13.681,11.09-24.771,24.771-24.771c19.322,0,34.988-15.664,34.988-34.987
	S117.242,78.19,97.92,78.19l0.014-0.013c-0.091,0.001-0.18,0.013-0.27,0.013c-13.682,0-24.772-11.091-24.772-24.772
	c0-13.68,11.09-24.772,24.772-24.772c13.68,0,24.771,11.092,24.771,24.772h0.002c0,19.324,15.663,34.988,34.986,34.988l-0.014,0.014
	c0.09-0.002,0.179-0.014,0.269-0.014c13.682,0,24.772,11.09,24.772,24.771C182.451,126.858,171.36,137.948,157.678,137.948z"/>
</svg>
