<svg version="1.1" id="Layer_1" xmlns="http://www.w3.org/2000/svg" xmlns:xlink="http://www.w3.org/1999/xlink" x="0px" y="0px"
	 width="226.777px" height="226.777px" viewBox="0 0 226.777 226.777" enable-background="new 0 0 226.777 226.777"
	 xml:space="preserve">
<path fill="#231F20" d="M113.389,0C50.766,0,0,50.766,0,113.388c0,62.623,50.766,113.389,113.389,113.389
	c62.622,0,113.388-50.766,113.388-113.389C226.777,50.766,176.011,0,113.389,0z M113.388,197.385
	c-23.071,0-43.966-9.303-59.146-24.359l9.05-16.431h100.349l8.979,16.347C157.432,188.048,136.502,197.385,113.388,197.385z
	 M146.469,125.196l8.099,14.808H72.339l8.072-14.808H146.469z M89.457,108.604l23.931-43.893l24.007,43.893H89.457z
	 M183.952,158.967L113.388,29.39L42.744,158.844c-8.448-13.104-13.354-28.707-13.354-45.456c0-46.391,37.607-83.999,83.998-83.999
	c46.391,0,83.997,37.607,83.997,83.999C197.385,130.191,192.45,145.839,183.952,158.967z"/>
</svg>
