<svg version="1.1" id="Layer_1" xmlns="http://www.w3.org/2000/svg" xmlns:xlink="http://www.w3.org/1999/xlink" x="0px" y="0px"
	 width="226.777px" height="226.777px" viewBox="0 0 226.777 226.777" enable-background="new 0 0 226.777 226.777"
	 xml:space="preserve">
<g>
	<path fill="#231F20" d="M181.224,171.715H45.763l-12.218,22.179c20.493,20.325,48.7,32.884,79.843,32.884
		c31.201,0,59.456-12.604,79.958-32.996L181.224,171.715z"/>
	<path fill="#231F20" d="M113.388,0C50.765,0,0,50.767,0,113.389c0,22.61,6.621,43.674,18.026,61.362L113.388,0z"/>
	<path fill="#231F20" d="M226.777,113.389C226.777,50.767,176.011,0,113.388,0l95.254,174.916
		C220.113,157.194,226.777,136.071,226.777,113.389z"/>
	<polygon fill="#231F20" points="81.083,106.932 145.795,106.932 113.388,47.68 	"/>
	<polygon fill="#231F20" points="57.974,149.318 168.975,149.318 158.045,129.329 68.871,129.329 	"/>
</g>
</svg>
