<svg version="1.1" id="Layer_1" xmlns="http://www.w3.org/2000/svg" xmlns:xlink="http://www.w3.org/1999/xlink" x="0px" y="0px"
	 width="226.777px" height="226.777px" viewBox="0 0 226.777 226.777" enable-background="new 0 0 226.777 226.777"
	 xml:space="preserve">
<g id="BANX_1_">
	<path fill="#231F20" d="M52.791,116.949h-9.334v10.274h9.334c3.696,0,6.265-1.314,6.265-5.013
		C59.055,118.263,56.299,116.949,52.791,116.949z"/>
	<polygon fill="#231F20" points="93.906,104.231 88.831,119.892 98.98,119.892 94.032,104.231 	"/>
	<path fill="#231F20" d="M57.24,105.171c0-3.259-2.319-4.324-4.762-4.324h-9.021v8.583h9.021
		C54.483,109.43,57.24,108.365,57.24,105.171z"/>
	<path fill="#231F20" d="M113.429,0.085C50.831,0.085,0.084,50.832,0.084,113.431s50.747,113.346,113.345,113.346
		c62.602,0,113.348-50.746,113.348-113.346S176.031,0.085,113.429,0.085z M53.01,69.767c0-0.37,0.299-0.669,0.669-0.669h9.724
		c0.369,0,0.669,0.299,0.669,0.669v16.099c0,0.369-0.3,0.669-0.669,0.669h-9.724c-0.37,0-0.669-0.3-0.669-0.669V69.767z
		 M31.802,69.767c0-0.37,0.299-0.669,0.67-0.669h9.723c0.371,0,0.67,0.299,0.67,0.669v16.099c0,0.369-0.299,0.669-0.67,0.669h-9.723
		c-0.371,0-0.67-0.3-0.67-0.669V69.767z M42.866,159.311c0,0.369-0.299,0.67-0.67,0.67h-9.723c-0.371,0-0.67-0.301-0.67-0.67
		v-16.099c0-0.369,0.299-0.67,0.67-0.67h9.723c0.371,0,0.67,0.301,0.67,0.67V159.311z M64.072,159.311c0,0.369-0.3,0.67-0.669,0.67
		h-9.724c-0.37,0-0.669-0.301-0.669-0.67v-16.099c0-0.369,0.299-0.67,0.669-0.67h9.724c0.369,0,0.669,0.301,0.669,0.67V159.311z
		 M53.292,136.558H31.802V91.825h20.925c7.707-0.125,16.164,1.879,16.164,11.215c0,4.009-2.38,7.267-5.888,9.021
		c4.762,1.379,7.705,5.515,7.705,10.589C70.708,133.301,62.878,136.558,53.292,136.558z M104.494,136.558l-2.757-8.02h-15.6
		l-2.819,8.02H71.352l16.727-44.733h11.841l16.729,44.733H104.494z M158.49,136.558h-11.964l-15.538-27.88h-0.124v27.88h-10.966
		V91.825h11.968l15.537,27.566h0.125V91.825h10.962V136.558z M192.777,136.558l-8.392-14.911l-9.148,14.911H161.83l15.915-23.495
		l-14.601-21.238h13.722l7.52,13.908l7.954-13.908h13.282l-14.471,21.238l15.788,23.495H192.777z"/>
</g>
</svg>
