<svg version="1.1" id="Layer_1" xmlns="http://www.w3.org/2000/svg" xmlns:xlink="http://www.w3.org/1999/xlink" x="0px" y="0px"
	 width="226.777px" height="226.777px" viewBox="0 0 226.777 226.777" enable-background="new 0 0 226.777 226.777"
	 xml:space="preserve">
<g id="BANX_alt">
	<g>
		<polygon fill="#231F20" points="185.621,144.285 197.449,125.009 208.302,144.285 226.611,144.285 206.197,113.907 224.91,86.448 
			207.734,86.448 197.449,104.43 187.728,86.448 169.988,86.448 188.863,113.907 168.287,144.285 		"/>
		<path fill="#231F20" d="M88.24,86.448H72.929l-21.626,57.837h15.471l3.646-10.368h20.17l3.564,10.368h15.717L88.24,86.448z
			 M73.902,122.737l6.562-20.25h0.164l6.396,20.25H73.902z"/>
		<path fill="#231F20" d="M40.507,112.612c4.535-2.269,7.613-6.479,7.613-11.664c0-12.07-10.934-14.662-20.898-14.5H0.166v57.837
			H27.95c12.396,0,22.519-4.213,22.519-17.983C50.469,119.741,46.663,114.395,40.507,112.612z M15.233,98.113h11.665
			c3.161,0,6.158,1.376,6.158,5.59c0,4.129-3.565,5.508-6.158,5.508H15.233V98.113z M27.302,132.216H15.233v-13.283h12.069
			c4.538,0,8.102,1.698,8.102,6.802C35.404,130.515,32.082,132.216,27.302,132.216z"/>
		<polygon fill="#231F20" points="149.635,122.09 129.545,86.448 114.072,86.448 114.072,144.285 128.25,144.285 128.25,108.238 
			128.41,108.238 148.5,144.285 163.97,144.285 163.97,86.448 149.795,86.448 149.795,122.09 		"/>
		<path fill="#231F20" d="M28.451,152.024c-0.478,0-0.866,0.387-0.866,0.865v20.816c0,0.477,0.389,0.865,0.866,0.865h12.572
			c0.477,0,0.866-0.389,0.866-0.865v-20.816c0-0.479-0.389-0.865-0.866-0.865H28.451z"/>
		<path fill="#231F20" d="M41.024,79.607c0.477,0,0.866-0.389,0.866-0.864V57.927c0-0.48-0.389-0.866-0.866-0.866H28.451
			c-0.478,0-0.866,0.386-0.866,0.866v20.815c0,0.476,0.389,0.864,0.866,0.864H41.024z"/>
		<path fill="#231F20" d="M13.605,79.607c0.478,0,0.866-0.389,0.866-0.864V57.927c0-0.48-0.388-0.866-0.866-0.866H1.032
			c-0.479,0-0.866,0.386-0.866,0.866v20.815c0,0.476,0.387,0.864,0.866,0.864H13.605z"/>
		<path fill="#231F20" d="M1.032,152.024c-0.479,0-0.866,0.387-0.866,0.865v20.816c0,0.477,0.387,0.865,0.866,0.865h12.572
			c0.478,0,0.866-0.389,0.866-0.865v-20.816c0-0.479-0.388-0.865-0.866-0.865H1.032z"/>
	</g>
</g>
</svg>
