<svg version="1.1" id="Layer_1" xmlns="http://www.w3.org/2000/svg" xmlns:xlink="http://www.w3.org/1999/xlink" x="0px" y="0px"
	 width="226.777px" height="226.777px" viewBox="0 0 226.777 226.777" enable-background="new 0 0 226.777 226.777"
	 xml:space="preserve">
<g>
	<path fill="#231F20" d="M145.608,114.043l2.947-3.83c0.894-1.209,5.782-9.929,5.782-19.19c0-3.604-2.142-10.015-6.84-15.576
		c-2.843-3.364-8.91-9.008-17.618-9.008H95.948v11.268h31.882c6.513,0,12.43,4.473,14.394,10.876
		c2.059,6.723-0.598,12.512-3.773,15.686c-1.308,1.309-6.478,5.835-10.62,9.434c4.384,4.162,10.312,9.8,11.773,11.26
		c4.824,4.824,3.899,13.431,1.145,17.235c-2.23,3.079-6.194,7.172-14.852,7.172H82.93V95.634h12.292v41.442h30.674
		c3.129,0,3.963-0.827,4.715-1.84c0.143-0.49,0.167-1.365,0.054-1.824c-2.289-2.254-11.491-10.982-16.214-15.453l-4.943-4.677
		l5.154-4.443c5.131-4.423,13.771-11.935,15.098-13.263c0.054-0.055,1.331-1.363,0.71-3.392c-0.441-1.436-1.662-2.185-2.64-2.185
		H72.387v70.554h52.882c12.717,0,21.755-4.952,26.866-14.716c7.095-13.552-3.371-27.897-3.482-28.036L145.608,114.043z"/>
	<path fill="#231F20" d="M113.494,0C50.813,0,0,50.813,0,113.494s50.813,113.494,113.495,113.494
		c62.68,0,113.494-50.813,113.494-113.494S176.175,0,113.494,0z M163.027,151.536c-4.428,8.457-11.011,14.511-19.571,17.995
		c-5.4,2.198-11.52,3.313-18.187,3.313H60.094V77.706h23.56V54.145h46.226c10.135,0,19.726,4.748,27.009,13.367
		c6.008,7.114,9.742,16.124,9.742,23.51c0,9.432-3.397,17.909-5.954,22.772c1.403,2.41,3.137,5.904,4.436,10.216
		C168.059,133.779,167.339,143.298,163.027,151.536z"/>
</g>
</svg>
