<svg version="1.1" id="Layer_1" xmlns="http://www.w3.org/2000/svg" xmlns:xlink="http://www.w3.org/1999/xlink" x="0px" y="0px"
	 width="226.777px" height="226.777px" viewBox="0 0 226.777 226.777" enable-background="new 0 0 226.777 226.777"
	 xml:space="preserve">
<path fill="#231F20" d="M113.37,0C50.757,0,0,50.759,0,113.371c0,58.015,43.579,105.846,99.789,112.559c0-8.566,0-29.972,0-33.202
	c0-4.053,0.177-5.285,1.496-7.663c1.324-2.379,3.701-3.875,6.52-5.727c2.817-1.851,31.096-20.436,34.706-22.99
	c3.612-2.554,5.727-4.934,5.727-7.929s-1.937-5.726-5.727-7.841c-3.786-2.114-32.768-18.762-35.676-20.524
	c-2.906-1.76-3.964-3.874-4.051-5.109c-0.087-1.232-0.528-3.612,5.109-7.398c5.639-3.788,29.952-20.084,33.21-22.375
	c3.257-2.29,5.02-5.021,5.02-7.224c0-2.201-1.586-6.165-4.933-8.016c-3.347-1.85-31.183-17.968-34.971-20.084
	c-3.788-2.114-11.893-4.756-17.265-0.703c-5.375,4.05-5.991,10.92-5.991,13.828c0,2.906,0.01,137.771,0.01,137.771L53.542,180.13
	c0,0,0-112.576,0-127.111c0-14.535,3.61-19.556,7.311-22.2c3.7-2.642,14.271-7.044,30.479,1.94
	c16.207,8.986,75.58,45.277,81.57,49.328c5.988,4.053,7.223,5.375,7.136,8.017c-0.09,2.643-1.674,5.639-6.254,8.811
	c-4.581,3.169-42.548,28.187-42.548,28.187s41.489,23.08,45.895,25.723c4.403,2.643,5.639,4.669,5.46,7.576
	c-0.175,2.907-2.643,5.285-5.548,7.665c-2.905,2.376-45.983,30.742-45.983,30.742v26.558c54.21-8.494,95.681-55.398,95.681-111.993
	C226.74,50.759,175.982,0,113.37,0z"/>
</svg>
