<svg version="1.1" id="Layer_1" xmlns="http://www.w3.org/2000/svg" xmlns:xlink="http://www.w3.org/1999/xlink" x="0px" y="0px"
	 width="226.777px" height="226.777px" viewBox="0 0 226.777 226.777" enable-background="new 0 0 226.777 226.777"
	 xml:space="preserve">
<g id="BC_alt">
	<path fill="#231F20" d="M9.013,3.635c0,0,27.076,6.973,27.076,47.18c0,40.208,0,73.85,0,121.333
		c0,47.482-27.076,50.21-27.076,50.21v4.041l44.25-2.122V2.119L9.013,0V3.635z"/>
	<path fill="#231F20" d="M178.083,54.099c0.605,32.261-12.429,44.855-12.429,44.855s31.978-10.305,31.369-46.978
		c-0.605-36.672-43.795-46.068-43.795-46.068S177.475,21.837,178.083,54.099z"/>
	<path fill="#231F20" d="M175.131,110.926c0,0,19.136,17.035,20.059,53.297c0.927,36.264-20.059,54.146-20.059,54.146
		s40.382-11.366,39.927-54.555C214.603,120.625,175.131,110.926,175.131,110.926z"/>
	<path fill="#231F20" d="M162.322,118.805c-7.274-6.061-27.885-13.032-27.885-13.032s13.64-6.819,19.853-16.669
		c6.213-9.851,11.063-27.884,6.518-46.826c-4.546-18.943-21.216-37.886-40.613-40.613c-19.398-2.729-27.631,0.454-51.172,0.758
		v221.652c0,0,35.714,2.626,54.96,2.475c19.245-0.151,48.795-13.336,54.25-49.251C183.688,141.385,169.594,124.867,162.322,118.805z
		 M89.128,20.911c3.485-3.333,21.519-9.244,38.643,2.577s21.568,46.422,7.425,64.809s-49.401,13.538-49.401,13.538
		S85.642,24.245,89.128,20.911z M159.643,178.311c-8.182,31.622-33.034,32.534-46.068,32.027
		c-13.032-0.507-25.562-0.305-26.975-36.977c-1.412-36.673-0.808-56.273-0.808-56.273s38.794-1.516,52.03,4.244
		C151.057,127.091,167.828,146.689,159.643,178.311z"/>
</g>
</svg>
