<svg version="1.1" id="Layer_1" xmlns="http://www.w3.org/2000/svg" xmlns:xlink="http://www.w3.org/1999/xlink" x="0px" y="0px"
	 width="226.777px" height="226.777px" viewBox="0 0 226.777 226.777" enable-background="new 0 0 226.777 226.777"
	 xml:space="preserve">
<g id="BC_1_">
	<path fill="#231F20" d="M127.593,100.42c7.294-9.483,5.002-27.329-3.829-33.426c-8.832-6.097-18.133-3.047-19.931-1.329
		c-1.798,1.72-1.719,41.736-1.719,41.736S120.298,109.903,127.593,100.42z"/>
	<path fill="#231F20" d="M128.946,117.459c-6.826-2.97-26.833-2.188-26.833-2.188s-0.311,10.108,0.416,29.023
		c0.731,18.913,7.192,18.809,13.913,19.071c6.724,0.261,19.541-0.209,23.761-16.519
		C144.423,130.537,135.774,120.428,128.946,117.459z"/>
	<path fill="#231F20" d="M113.45,0.122C50.861,0.122,0.122,50.861,0.122,113.45S50.861,226.777,113.45,226.777
		s113.327-50.738,113.327-113.327S176.039,0.122,113.45,0.122z M159.482,81.688c0.312,18.914-16.18,24.229-16.18,24.229
		s6.722-6.496,6.409-23.134c-0.313-16.64-12.817-24.855-12.817-24.855S159.17,62.774,159.482,81.688z M85.336,170.553l-22.823,1.095
		v-2.084c0,0,13.965-1.408,13.965-25.896c0-24.492,0-41.842,0-62.58c0-20.737-13.965-24.334-13.965-24.334V54.88l22.823,1.093
		V170.553z M121.809,171.725c-9.926,0.079-28.347-1.276-28.347-1.276V56.131c12.142-0.157,16.388-1.798,26.392-0.392
		c10.005,1.405,18.603,11.177,20.947,20.947c2.345,9.769-0.155,19.071-3.362,24.15c-3.203,5.081-10.238,8.599-10.238,8.599
		s10.63,3.595,14.383,6.72c3.751,3.127,11.02,11.646,8.206,30.17C146.976,164.848,131.735,171.648,121.809,171.725z
		 M148.189,167.506c0,0,10.823-9.224,10.347-27.925c-0.478-18.703-10.347-27.49-10.347-27.49s20.358,5.003,20.592,27.278
		C169.016,161.644,148.189,167.506,148.189,167.506z"/>
</g>
</svg>
