<svg xmlns="http://www.w3.org/2000/svg" viewBox="0 0 226.8 190.3"><path d="M97.5 49.2c-3.1 3.4-9.8 15.1-24.1 15.5C62 65.1 17.2 55 3.1 96.1c-11.4 33.1 11.6 53.8 26.5 61 9 4.3 22.4 8.3 40-1 14.5-7.7 13.7-15.6 42.4-16.2 17.9-.3 29.2 6.8 36.5 13.1 2.6 2.3 5.5 4.8 7.6 11.7 2.1 6.9 12.8 26 35.5 25.5 16.9-.3 26.6-10.2 30.3-18.3 4-8.5 9-24.5-.3-37.6-11.7-16.4-31.7-22.4-52-9.6-16.3 10.2-44.1 8.3-55.1-.3s-28.6-18.9-19.6-55.8c2.4-7.2 12.4-20 20.3-21s21.7 1.4 29.3-13.1.5-22.9-4.5-27.9c-4.8-4.7-17.6-10-26.5-3.4-11.6 8.1-12.5 20.5-10.9 27.8 1.4 6-2.5 15.3-5.1 18.2z"/></svg>