<svg xmlns="http://www.w3.org/2000/svg" width="226.777" height="226.777" viewBox="0 0 226.777 226.777"><path d="M136.914 118.233c-2.802-.837-8.843-1.563-15.748-.811-6.909.753-15.588 2.748-15.588 2.748l5.213 29.564s9.18-1.417 15.222-2.948c6.036-1.53 12.078-4.188 14.927-6.485 2.847-2.296 6.172-5.671 4.98-12.433-1.193-6.765-6.202-8.802-9.006-9.635zm-22.291-13.804c4.992-1.08 10.133-3.181 13.62-5.989 3.49-2.806 5.09-6.54 4.077-11.543-1.017-5.001-5.113-8.662-11.088-9.403-5.976-.74-9.796-.2-14.126.498-4.326.698-8.639 1.857-8.639 1.857l4.69 26.601c.002 0 6.477-.942 11.466-2.021z"/><path d="M93.723 1.718C32.039 12.595-9.15 71.417 1.727 133.102c10.877 61.685 69.7 102.873 131.384 91.996S235.98 155.4 225.105 93.715C214.228 32.029 155.407-9.158 93.723 1.718zm72.7 146.377c-7.29 7.263-15.995 9.862-19.834 11.068-1.894.597-5.168 1.452-8.694 2.289l3.949 22.392-13.786 2.43-3.884-22.03-10.498 1.852 3.884 22.03-13.784 2.43-3.884-22.03-27.117 4.782-.086-17.056 8.244-1.454c2.77-.489 3.883-.95 4.849-2.248.966-1.3.929-3.02.69-4.374L76.415 91.139c-.63-3.572-1.091-4.488-3.057-6.033-1.967-1.55-5.873-1.11-8.049-.726l-7.968 1.405-2.523-14.312 27.116-4.781-3.895-22.094 13.783-2.43 3.896 22.093 10.498-1.85-3.896-22.094 13.785-2.43 3.943 22.357c10.389-1.175 18.384-.566 25.93 3.19 9.758 4.855 11.258 16.013 11.531 18.689.274 2.675.012 7.969-1.73 11.66-1.737 3.695-6.826 7.98-6.826 7.98s6.947.235 12.276 2.949c5.323 2.715 9.907 8.347 11.322 17.529 1.424 9.18 1.158 18.592-6.128 25.854z"/></svg>