<svg version="1.1" id="Layer_1" xmlns="http://www.w3.org/2000/svg" xmlns:xlink="http://www.w3.org/1999/xlink" x="0px" y="0px"
	 width="595.279px" height="595.28px" viewBox="0 123.305 595.279 595.28" enable-background="new 0 123.305 595.279 595.28"
	 xml:space="preserve">
<g>
	<path fill="#231F20" d="M316.458,441.51c-6.739-5.107-15.683-7.665-26.794-7.665h-55.853v64.129h54.872
		c5.018,0,9.81-0.5,14.379-1.467c4.585-0.994,8.613-2.631,12.097-4.915c3.461-2.29,6.251-5.392,8.318-9.323
		c2.065-3.938,3.128-8.938,3.128-15.053C326.606,455.215,323.223,446.658,316.458,441.51z"/>
	<path fill="#231F20" d="M298.158,124.06c-164.097,0-297.121,132.914-297.121,296.891c0,163.958,133.024,296.881,297.121,296.881
		c164.094,0,297.121-132.923,297.121-296.881C595.28,256.973,462.252,124.06,298.158,124.06z M371.026,500.741
		c-4.565,8.658-10.711,15.682-18.464,21.125c-7.711,5.461-16.54,9.467-26.459,12.086c-9.896,2.614-20.092,3.933-30.535,3.933
		H182.496V304.268h109.79c11.097,0,21.243,0.969,30.391,2.935c9.147,1.972,16.986,5.182,23.526,9.659
		c6.535,4.464,11.595,10.418,15.191,17.842c3.597,7.401,5.39,16.552,5.39,27.467c0,11.779-2.659,21.586-7.992,29.448
		c-5.363,7.861-13.253,14.288-23.7,19.293c14.379,4.173,25.121,11.409,32.169,21.772c7.095,10.369,10.635,22.865,10.635,37.485
		C377.896,481.949,375.614,492.138,371.026,500.741z M446.49,537.885h-51.318v-50.372h51.318V537.885z"/>
	<path fill="#231F20" d="M308.295,392.275c5.879-4.347,8.827-11.452,8.827-21.279c0-5.426-0.994-9.904-2.948-13.396
		c-1.955-3.469-4.578-6.225-7.827-8.194c-3.281-1.929-7.044-3.318-11.277-4.08c-4.261-0.75-8.657-1.145-13.25-1.145h-48.008v54.636
		h51.943C294.914,398.819,302.414,396.645,308.295,392.275z"/>
</g>
</svg>
