<svg version="1.1" id="Layer_1" xmlns="http://www.w3.org/2000/svg" xmlns:xlink="http://www.w3.org/1999/xlink" x="0px" y="0px"
	 width="595.279px" height="595.28px" viewBox="0 123.305 595.279 595.28" enable-background="new 0 123.305 595.279 595.28"
	 xml:space="preserve">
<g id="Page-1">
	<g id="bftxcp">
		<g>
			<path fill="#231F20" d="M314.623,376.888c7.656-5.659,11.495-14.91,11.495-27.71c0-7.063-1.293-12.902-3.839-17.448
				c-2.544-4.52-5.964-8.106-10.197-10.669c-4.27-2.512-9.171-4.318-14.68-5.317c-5.557-0.971-11.276-1.49-17.26-1.49h-62.521
				v71.154h67.643C297.198,385.407,306.961,382.579,314.623,376.888z"/>
			<path fill="#231F20" d="M325.253,441.011c-8.778-6.65-20.422-9.992-34.897-9.992h-72.735v83.517h71.462
				c6.531,0,12.78-0.644,18.727-1.903c5.968-1.296,11.214-3.426,15.751-6.408c4.506-2.979,8.141-7.015,10.835-12.139
				c2.683-5.13,4.073-11.642,4.073-19.602C338.469,458.857,334.063,447.71,325.253,441.011z"/>
			<path fill="#231F20" d="M0.304,123.305v595.28h595.28v-595.28H0.304z M396.32,518.141c-5.944,11.273-13.948,20.428-24.048,27.514
				c-10.043,7.109-21.544,12.327-34.461,15.739c-12.886,3.407-26.161,5.121-39.764,5.121H150.793V262.281h142.981l0,0
				c14.452,0,27.663,1.256,39.579,3.819c11.915,2.563,22.12,6.745,30.639,12.572c8.508,5.822,15.104,13.572,19.781,23.236
				c4.683,9.65,7.018,21.561,7.018,35.774c0,15.34-3.463,28.121-10.407,38.354c-6.983,10.234-17.257,18.607-30.863,25.127
				c18.725,5.434,32.712,14.856,41.895,28.354c9.237,13.498,13.846,29.775,13.846,48.811
				C405.26,493.669,402.292,506.936,396.32,518.141z M494.591,566.515h-66.833v-65.605h66.833V566.515z"/>
		</g>
	</g>
</g>
</svg>
