<svg version="1.1" id="Layer_1" xmlns="http://www.w3.org/2000/svg" xmlns:xlink="http://www.w3.org/1999/xlink" x="0px" y="0px"
	 viewBox="0 0 226.8 226.8" style="enable-background:new 0 0 226.8 226.8;" xml:space="preserve">
<g>
	<path d="M113.621,97.878c-1.654,0-3.319,0-4.559,0v14.227c0.808,0,2.2,0,4.058,0c3.056,0,7.664-1.102,7.664-7.063
		C120.785,99.081,116.878,97.878,113.621,97.878z"/>
	<path d="M81.122,117.215c-4.348,0-5.598,0-5.598,0v12.975c0,0,2.859,0,5.539,0s6.76-1.41,6.76-6.329
		C87.823,118.941,85.47,117.215,81.122,117.215z"/>
	<path d="M85.869,103.664c0-4.283-1.979-5.786-5.636-5.786c-3.657,0-4.709,0-4.709,0v11.296c0,0,2.405,0,4.659,0
		S85.869,107.948,85.869,103.664z"/>
	<path d="M113.4,0C50.8,0,0,50.8,0,113.4s50.8,113.4,113.4,113.4S226.8,176,226.8,113.4S176,0,113.4,0z M198.272,131.379
		c0,0-7.003,7.434-15.162,21.565c-8.159,14.132-11.095,23.913-11.095,23.913l10.095,5.828
		c-11.456,11.283-25.675,19.766-41.553,24.339v-12.005c0,0-9.939-2.348-26.257-2.348s-26.257,2.348-26.257,2.348v12.501
		c-16.293-4.356-30.91-12.805-42.684-24.183l11.226-6.481c0,0-2.936-9.781-11.095-23.913c-8.159-14.131-15.162-21.565-15.162-21.565
		l-11.591,6.692c-2.129-8.03-3.269-16.461-3.269-25.161c0-8.508,1.087-16.761,3.126-24.632l11.735,6.775
		c0,0,7.003-7.434,15.162-21.565c8.159-14.131,11.095-23.913,11.095-23.913l-11.619-6.708C56.807,31.296,71.568,22.705,88.043,18.3
		v13.113c0,0,9.939,2.348,26.257,2.348s26.257-2.348,26.257-2.348V18.796c16.059,4.626,30.424,13.248,41.947,24.724l-10.488,6.055
		c0,0,2.936,9.782,11.095,23.913c8.159,14.131,15.162,21.565,15.162,21.565l10.161-5.866c1.89,7.596,2.9,15.541,2.9,23.723
		c0,8.374-1.053,16.501-3.031,24.259L198.272,131.379z"/>
	<path d="M113.4,36.981c-41.935,0-75.93,33.995-75.93,75.93c0,41.935,33.995,75.93,75.93,75.93c41.935,0,75.93-33.995,75.93-75.93
		C189.33,70.976,155.335,36.981,113.4,36.981z M96.439,126.908c-1.277,9.242-9.543,12.173-14.953,12.173c-5.41,0-14.803,0-14.803,0
		v-49.97c0,0,5.185,0,14.981,0s13.122,6.011,12.972,13.676c-0.188,6.049-4.734,9.318-6.613,9.543
		C92.832,113.683,97.716,117.666,96.439,126.908z M121.499,139.081l-7.735-18.119c-0.214,0.005-3.621,0.01-4.701,0.01v18.109h-9.017
		v-49.97c0,0,12.024,0,15.58,0c6.913,0,13.926,3.907,13.926,15.58c0,7.332-2.709,11.875-7.094,14.241l8.998,20.149H121.499z
		 M158.106,139.081l-9.929-20.575l-4.392,7.355v13.22h-8.877v-49.97h8.877v20.152l11.976-20.152h9.966l-11.934,19.987l14.111,29.983
		H158.106z"/>
</g>
</svg>
