<svg version="1.1" id="Layer_1" xmlns="http://www.w3.org/2000/svg" xmlns:xlink="http://www.w3.org/1999/xlink" x="0px" y="0px"
	 viewBox="0 0 226.8 226.8" style="enable-background:new 0 0 226.8 226.8;" xml:space="preserve">
<g>
	<path d="M224.041,85.93l-11.765,6.793c0,0-8.109-8.608-17.556-24.971c-9.447-16.363-12.848-27.69-12.848-27.69l12.145-7.012
		C180.674,19.762,164.04,9.777,145.445,4.421v14.609c0,0-11.509,2.719-30.404,2.719c-18.895,0-30.404-2.719-30.404-2.719V3.847
		c-19.077,5.1-36.17,15.049-49.882,28.447l13.455,7.768c0,0-3.4,11.327-12.848,27.69S17.806,92.723,17.806,92.723L4.218,84.878
		c-2.361,9.113-3.619,18.671-3.619,28.522c0,10.073,1.32,19.837,3.785,29.135l13.422-7.749c0,0,8.109,8.608,17.556,24.971
		c9.447,16.363,12.848,27.69,12.848,27.69l-12.999,7.505c13.634,13.174,30.56,22.958,49.426,28.002v-14.476
		c0,0,11.509-2.719,30.404-2.719c18.895,0,30.404,2.719,30.404,2.719v13.901c18.386-5.296,34.85-15.119,48.116-28.184l-11.689-6.749
		c0,0,3.4-11.326,12.848-27.69c9.447-16.363,17.556-24.971,17.556-24.971l11.614,6.705c2.289-8.983,3.509-18.394,3.509-28.091
		C227.399,103.926,226.23,94.727,224.041,85.93z M113.999,201.322c-48.558,0-87.922-39.364-87.922-87.922
		c0-48.558,39.364-87.922,87.922-87.922c48.558,0,87.922,39.364,87.922,87.922C201.921,161.958,162.557,201.322,113.999,201.322z"/>
	<path d="M84.613,112.729c2.175-0.261,7.439-4.046,7.657-11.05c0.174-8.875-3.677-15.836-15.02-15.836s-17.347,0-17.347,0v57.862
		c0,0,10.876,0,17.141,0c6.265,0,15.836-3.393,17.315-14.096C95.838,118.907,90.182,114.295,84.613,112.729z M70.141,95.994
		c0,0,1.218,0,5.453,0c4.234,0,6.526,1.74,6.526,6.7c0,4.96-3.974,6.381-6.584,6.381c-2.61,0-5.395,0-5.395,0V95.994z
		 M76.554,133.409c-3.103,0-6.414,0-6.414,0v-15.024c0,0,1.448,0,6.482,0c5.034,0,7.758,1.999,7.758,7.695
		C84.381,131.776,79.657,133.409,76.554,133.409z"/>
	<path d="M132.701,103.883c0-13.516-8.121-18.04-16.126-18.04c-4.117,0-18.04,0-18.04,0v57.862h10.441v-20.97
		c1.251,0,5.197-0.006,5.444-0.011l8.956,20.981h11.529l-10.419-23.331C129.565,117.633,132.701,112.372,132.701,103.883z
		 M113.675,112.468c-2.152,0-3.763,0-4.699,0V95.994c1.436,0,3.363,0,5.279,0c3.77,0,8.295,1.392,8.295,8.295
		C122.55,111.192,117.213,112.468,113.675,112.468z"/>
	<polygon points="174.59,85.843 163.05,85.843 149.183,109.178 149.183,85.843 138.903,85.843 138.903,143.705 149.183,143.705 
		149.183,128.397 154.268,119.88 165.765,143.705 177.111,143.705 160.772,108.987 	"/>
</g>
</svg>
