<svg version="1.1" id="Layer_1" xmlns="http://www.w3.org/2000/svg" xmlns:xlink="http://www.w3.org/1999/xlink" x="0px" y="0px"
	 viewBox="0 0 226.8 226.8" style="enable-background:new 0 0 226.8 226.8;" xml:space="preserve">
<g>
	<path d="M80.35,117.349c-4.533,0-5.837,0-5.837,0v13.527c0,0,2.98,0,5.775,0c2.794,0,7.048-1.47,7.048-6.599
		C87.336,119.149,84.883,117.349,80.35,117.349z"/>
	<path d="M114.234,97.189c-1.724,0-3.46,0-4.753,0v14.833c0.843,0,2.293,0,4.231,0c3.186,0,7.991-1.149,7.991-7.364
		C121.702,98.442,117.628,97.189,114.234,97.189z"/>
	<path d="M85.299,103.221c0-4.466-2.063-6.032-5.876-6.032c-3.813,0-4.91,0-4.91,0v11.778c0,0,2.507,0,4.857,0
		S85.299,107.687,85.299,103.221z"/>
	<path d="M113.502,36.901c-41.979,0-76.009,34.03-76.009,76.009c0,41.979,34.03,76.009,76.009,76.009
		c41.979,0,76.009-34.03,76.009-76.009C189.511,70.932,155.481,36.901,113.502,36.901z M96.319,127.456
		c-1.332,9.636-9.95,12.692-15.59,12.692c-5.641,0-15.434,0-15.434,0V88.049c0,0,5.406,0,15.62,0s13.681,6.267,13.524,14.259
		c-0.196,6.307-4.936,9.715-6.894,9.95C92.558,113.667,97.651,117.819,96.319,127.456z M122.447,140.147l-8.064-18.891
		c-0.223,0.005-3.775,0.01-4.902,0.01v18.881h-9.401V88.049c0,0,12.537,0,16.243,0c7.208,0,14.52,4.074,14.52,16.243
		c0,7.644-2.824,12.381-7.396,14.848l9.381,21.007H122.447z M168.552,140.147H158.21l-7.364-18.881l-6.737,18.881h-9.95
		l11.36-26.794l-10.733-25.305h10.42l6.581,18.411l5.954-18.411h10.106l-10.655,26.049L168.552,140.147z"/>
	<path d="M113.4,0C50.8,0,0,50.8,0,113.4s50.8,113.4,113.4,113.4S226.8,176,226.8,113.4S176,0,113.4,0z M198.463,131.398
		c0,0-7.01,7.441-15.177,21.588c-8.167,14.146-11.107,23.938-11.107,23.938l10.105,5.834
		c-11.468,11.294-25.702,19.787-41.596,24.365v-12.017c0,0-9.95-2.35-26.284-2.35c-16.335,0-26.284,2.35-26.284,2.35v12.514
		c-16.31-4.36-30.942-12.819-42.729-24.208l11.237-6.488c0,0-2.939-9.792-11.107-23.938c-8.167-14.146-15.177-21.588-15.177-21.588
		l-11.604,6.699c-2.131-8.038-3.272-16.479-3.272-25.187c0-8.517,1.088-16.779,3.129-24.657l11.747,6.782
		c0,0,7.01-7.441,15.177-21.588c8.167-14.146,11.107-23.938,11.107-23.938l-11.632-6.716C56.85,31.211,71.627,22.61,88.119,18.201
		v13.127c0,0,9.95,2.35,26.284,2.35c16.335,0,26.284-2.35,26.284-2.35v-12.63c16.076,4.63,30.455,13.262,41.99,24.75l-10.499,6.062
		c0,0,2.939,9.792,11.107,23.938c8.167,14.146,15.177,21.588,15.177,21.588l10.171-5.872c1.892,7.604,2.903,15.558,2.903,23.748
		c0,8.382-1.054,16.518-3.034,24.284L198.463,131.398z"/>
</g>
</svg>
