<svg version="1.1" id="Layer_1" xmlns="http://www.w3.org/2000/svg" xmlns:xlink="http://www.w3.org/1999/xlink" x="0px" y="0px"
	 viewBox="0 0 226.8 226.8" style="enable-background:new 0 0 226.8 226.8;" xml:space="preserve">
<g>
	<path d="M83.374,112.644c2.266-0.272,7.748-4.214,7.975-11.509c0.181-9.244-3.829-16.493-15.644-16.493s-18.068,0-18.068,0v60.264
		c0,0,11.328,0,17.853,0c6.525,0,16.493-3.534,18.034-14.681C95.064,119.078,89.174,114.275,83.374,112.644z M68.3,95.214
		c0,0,1.269,0,5.679,0c4.41,0,6.797,1.812,6.797,6.978s-4.138,6.646-6.857,6.646s-5.619,0-5.619,0V95.214z M74.98,134.182
		c-3.232,0-6.68,0-6.68,0v-15.648c0,0,1.508,0,6.752,0c5.243,0,8.08,2.082,8.08,8.015S78.212,134.182,74.98,134.182z"/>
	<path d="M133.458,103.431c0-14.077-8.458-18.789-16.795-18.789c-4.288,0-18.789,0-18.789,0v60.264h10.875v-21.84
		c1.303,0,5.412-0.006,5.67-0.012l9.328,21.852h12.008l-10.851-24.3C130.191,117.752,133.458,112.273,133.458,103.431z
		 M113.642,112.372c-2.241,0-3.919,0-4.894,0V95.214c1.495,0,3.503,0,5.498,0c3.927,0,8.639,1.45,8.639,8.639
		C122.885,111.043,117.327,112.372,113.642,112.372z"/>
	<polygon points="164.572,84.642 157.684,105.938 150.072,84.642 138.019,84.642 150.434,113.913 137.294,144.906 148.803,144.906 
		156.597,123.066 165.115,144.906 177.078,144.906 163.937,114.774 176.262,84.642 	"/>
	<path d="M223.442,85.93l-11.765,6.793c0,0-8.109-8.608-17.556-24.971c-9.447-16.363-12.848-27.69-12.848-27.69l12.145-7.012
		c-13.343-13.288-29.976-23.273-48.572-28.629v14.609c0,0-11.509,2.719-30.404,2.719s-30.404-2.719-30.404-2.719V3.847
		c-19.077,5.1-36.17,15.049-49.882,28.447l13.455,7.768c0,0-3.4,11.327-12.848,27.69S17.207,92.723,17.207,92.723L3.619,84.878
		C1.258,93.991,0,103.549,0,113.4c0,10.073,1.32,19.837,3.785,29.135l13.422-7.749c0,0,8.109,8.608,17.556,24.971
		s12.848,27.69,12.848,27.69l-12.999,7.505c13.634,13.174,30.56,22.958,49.426,28.002v-14.476c0,0,11.509-2.719,30.404-2.719
		s30.404,2.719,30.404,2.719v13.901c18.386-5.296,34.85-15.119,48.116-28.184l-11.689-6.749c0,0,3.4-11.326,12.848-27.69
		c9.447-16.363,17.556-24.971,17.556-24.971l11.614,6.705c2.289-8.983,3.509-18.394,3.509-28.091
		C226.8,103.926,225.631,94.727,223.442,85.93z M113.4,201.322c-48.558,0-87.922-39.364-87.922-87.922S64.842,25.478,113.4,25.478
		c48.558,0,87.922,39.364,87.922,87.922S161.958,201.322,113.4,201.322z"/>
</g>
</svg>
