<svg version="1.1" id="Layer_1" xmlns="http://www.w3.org/2000/svg" xmlns:xlink="http://www.w3.org/1999/xlink" x="0px" y="0px"
	 width="226.777px" height="226.777px" viewBox="0 0 226.777 226.777" enable-background="new 0 0 226.777 226.777"
	 xml:space="preserve">
<g>
	<path fill="#1D1D1B" d="M39.39,136.08V90.359V0H10.499C4.7,0,0,4.698,0,10.496v28.417h28.458v51.446H0v126.009
		c0,5.794,4.701,10.496,10.499,10.496h91.417C65.363,212.908,39.39,177.535,39.39,136.08z"/>
	<path fill="#1D1D1B" d="M209.008,200.802l-36.516-36.519c6.11-7.77,9.784-17.548,9.784-28.203
		c0-25.251-20.471-45.721-45.721-45.721h-34.789V38.913h34.789c41,0,76.043,25.409,90.31,61.326V10.496
		c0-5.797-4.7-10.496-10.498-10.496H90.835v136.08c0,25.249,20.467,45.72,45.72,45.72c10.654,0,20.431-3.674,28.203-9.784
		l36.518,36.519c-8.747,7.814-18.918,14.067-30.069,18.33h45.16c5.798,0,10.498-4.702,10.498-10.496V171.94
		C222.617,182.621,216.54,192.375,209.008,200.802z"/>
</g>
</svg>
