<svg xmlns="http://www.w3.org/2000/svg" width="226.777" height="226.777" viewBox="0 0 226.777 226.777"><path d="M182.017 124.947c-6.235-6.682-16.094-10.654-16.094-10.654s9.552-3.496 13.979-7.891c4.43-4.397 7.574-11.864 8.582-15.849 1.007-3.986 4.683-20.799-6.794-32.872-8.877-9.341-20.045-14.397-35.58-18.14l6.026-34.176-21.071-3.715-5.955 33.77-16.05-2.829 5.955-33.771-21.069-3.715-5.954 33.77-41.453-7.308-3.858 21.881 12.184 2.149c3.322.585 9.164 1.996 11.18 5.249 2.016 3.247 2.198 4.803 1.235 10.265l-15.373 87.19c-.364 2.067-1.21 4.557-3.278 5.919-2.066 1.363-3.907 1.441-8.142.695l-12.602-2.222-8.795 24.543 41.453 7.31-5.938 33.675 21.07 3.715 5.938-33.675 16.05 2.83-5.939 33.675 21.071 3.716 6.036-34.231c5.503.642 10.655 1.125 13.685 1.26 6.146.273 20.01 1.092 34.277-5.53 14.263-6.624 19.564-20.004 22.326-33.932 2.764-13.929-.875-24.42-7.102-31.102zm-77.158-68.528s6.799.59 13.379 1.85c6.582 1.262 12.353 2.484 20.552 6.67 8.194 4.188 12.164 11.59 11.011 19.305-1.158 7.715-5.412 12.242-11.89 14.451-6.48 2.207-14.96 2.54-22.695 1.478-7.731-1.058-17.527-3.09-17.527-3.09l7.17-40.664zm29.402 109.042c-5.294 1.809-15.36 2.47-24.833 1.508-9.477-.959-23.406-3.72-23.406-3.72l7.97-45.195s13.512 1.673 23.829 4.201c10.314 2.533 18.608 6.734 22.197 9.4 3.59 2.663 9.722 8.21 7.898 18.55-1.822 10.337-8.365 13.448-13.655 15.256z"/></svg>