<svg xmlns="http://www.w3.org/2000/svg" width="226.777" height="226.777" viewBox="0 0 226.777 226.777"><path d="M133.838 125.986c-2.347-1.744-7.775-4.492-14.521-6.148-6.75-1.655-15.587-2.748-15.587-2.748l-5.213 29.564s9.111 1.808 15.312 2.436c6.195.627 12.781.195 16.245-.99 3.46-1.182 7.74-3.217 8.931-9.979 1.193-6.765-2.817-10.392-5.167-12.135zm-16.225-20.595c5.06.692 10.61.477 14.847-.969 4.24-1.443 7.02-4.405 7.78-9.452.753-5.048-1.844-9.888-7.204-12.629-5.363-2.739-9.138-3.537-13.445-4.363-4.304-.824-8.753-1.21-8.753-1.21l-4.69 26.601s6.407 1.33 11.465 2.022z"/><path d="M133.102 1.727C71.418-9.15 12.595 32.037 1.718 93.723-9.158 155.407 32.03 214.23 93.714 225.107s120.506-30.312 131.382-91.997c10.877-61.685-30.31-120.506-91.994-131.383zm18.253 162.414c-9.334 4.332-18.404 3.797-22.424 3.617-1.984-.087-5.353-.404-8.952-.823l-3.949 22.392-13.785-2.43 3.885-22.03-10.498-1.852-3.885 22.03-13.784-2.43 3.884-22.03-27.116-4.781 5.752-16.057 8.244 1.453c2.771.489 3.974.436 5.326-.454 1.352-.892 1.905-2.52 2.144-3.874l10.057-57.037c.63-3.572.51-4.59-.809-6.715-1.318-2.128-5.14-3.05-7.315-3.434l-7.968-1.405 2.524-14.313 27.117 4.782 3.895-22.093 13.784 2.43-3.896 22.093 10.498 1.851 3.896-22.093 13.785 2.43-3.942 22.359c10.164 2.449 17.468 5.756 23.275 11.867 7.509 7.899 5.103 18.897 4.444 21.504-.658 2.608-2.714 7.493-5.614 10.366-2.896 2.878-9.144 5.163-9.144 5.163s6.448 2.598 10.528 6.97c4.073 4.372 6.454 11.233 4.643 20.345-1.802 9.113-5.27 17.867-14.6 22.199z"/></svg>