<svg version="1.1" id="Layer_1" xmlns="http://www.w3.org/2000/svg" xmlns:xlink="http://www.w3.org/1999/xlink" x="0px" y="0px"
	 width="226.777px" height="226.777px" viewBox="0 0 226.777 226.777" enable-background="new 0 0 226.777 226.777"
	 xml:space="preserve">
<path id="BTCD" fill="#231F20" d="M21.139,32.3c0,0,28.266-32.13,85.039-32.13c56.772,0,114.753,53.873,114.753,116.445
	c0,62.57-49.766,110.162-103.64,110.162c-53.875,0-110.285-38.896-110.285-101.224c0-62.33,54.841-88.181,86.368-87.454
	c32.605,0.75,64.865,27.177,68.61,57.013c3.272,26.077-11.434,45.984-18.037,52.104c-6.604,6.118-25.124,14.495-41.552,10.146
	c-16.429-4.349-24.158-17.235-25.608-24.001c-1.45-6.764-2.401-22.482,10.759-30.042c13.158-7.563,22.097,1.86,23.946,6.529
	c1.851,4.67-0.808,11.597-5.959,12.805c-5.153,1.209-9.743-0.649-12.483-2.983c0,0-0.401,11.257,10.59,13.19
	c10.993,1.933,17.818-4.349,21.019-9.301c3.201-4.953,9.18-21.139-5.073-36.178C105.332,72.343,80.51,73.43,66.437,83.82
	c-14.071,10.387-28.306,29.575-22.347,57.598c5.962,28.025,31.486,54.12,69.457,54.44c37.971,0.321,80.489-29.952,84.033-80.045
	c3.542-50.09-30.764-85.521-55.404-95.829c-24.643-10.31-45.895-14.527-72.477-9.347C43.117,15.817,29.113,27.064,21.139,32.3z"/>
</svg>
