<svg version="1.1" id="Layer_1" xmlns="http://www.w3.org/2000/svg" xmlns:xlink="http://www.w3.org/1999/xlink" x="0px" y="0px"
	 width="226.777px" height="226.777px" viewBox="0 0 226.777 226.777" enable-background="new 0 0 226.777 226.777"
	 xml:space="preserve">
<path id="BTCD_alt" fill="#231F20" d="M113.395,0.011c-62.62,0-113.383,50.763-113.383,113.383
	c0,62.619,50.764,113.383,113.383,113.383c62.618,0,113.382-50.764,113.382-113.383C226.777,50.775,176.013,0.011,113.395,0.011z
	 M117.971,190.89c-36.836,0-75.408-26.596-75.408-69.213c0-42.621,37.497-60.296,59.055-59.799
	c22.295,0.512,44.352,18.583,46.914,38.984c2.238,17.83-7.818,31.442-12.334,35.627c-4.514,4.182-17.178,9.91-28.41,6.937
	c-11.235-2.973-16.52-11.784-17.512-16.411c-0.991-4.624-1.642-15.372,7.357-20.542c8.996-5.17,15.108,1.272,16.374,4.464
	c1.265,3.194-0.552,7.931-4.076,8.757c-3.522,0.826-6.662-0.445-8.535-2.041c0,0-0.274,7.696,7.242,9.019
	c7.516,1.321,12.182-2.973,14.371-6.359c2.19-3.387,6.277-14.455-3.47-24.737c-9.745-10.283-26.717-9.541-36.341-2.436
	c-9.621,7.104-19.354,20.223-15.28,39.383c4.077,19.164,21.53,37.005,47.492,37.225c25.962,0.22,55.036-20.479,57.461-54.731
	c2.42-34.25-21.036-58.477-37.885-65.525c-16.85-7.049-31.38-9.934-49.557-6.391c-18.176,3.542-27.752,11.231-33.205,14.813
	c0,0,19.329-21.969,58.147-21.969c38.819,0,78.464,36.835,78.464,79.62C188.837,158.347,154.81,190.89,117.971,190.89z"/>
</svg>
