<svg width="227" height="227" viewBox="0 0 227 227" xmlns="http://www.w3.org/2000/svg"><title>btg</title><path d="M113.5 227C50.813 227 0 176.187 0 113.5S50.813 0 113.5 0 227 50.813 227 113.5 176.187 227 113.5 227zm0-35.469c43.095 0 78.031-34.936 78.031-78.031 0-43.095-34.936-78.031-78.031-78.031-43.095 0-78.031 34.936-78.031 78.031 0 43.095 34.936 78.031 78.031 78.031zm-7.009-143.72a272.52 272.52 0 0 1 9.307-.46c.036 6.363.022 12.733 0 19.096l-9.292-.014c0-6.207 0-12.414-.015-18.621zm22.36 18.92h.007a1833 1833 0 0 1 .028-17.55c17.238 4.32 32.589 15.585 41.62 30.915 10.221 17.003 11.938 38.717 4.695 57.175-7.632 20.005-25.573 35.469-46.357 40.54.014-5.816.028-11.619-.014-17.428 9.874-.937 20.692-1.802 28.68-8.371 8.065-7.065 9.93-19.09 7.59-29.12-1.802-7.654-9.016-12.506-16.302-14.202 12.173-6.455 13.45-25.182 3.512-34.1-6.512-5.511-15.287-6.76-23.46-7.86zm-62.042-.248c7.93-6.966 16.911-12.833 26.999-16.103.05 5.476.035 10.953.035 16.429-9.016.014-18.032.106-27.027-.326h-.007zM56.296 80.599c2.625-4.916 6.753-8.81 9.35-13.733.468.603.638 1.333.503 2.185.064 3.738.12 7.47.66 11.165 4.59.029 9.25-.326 13.797.575 2.753.525 4.413 3.383 4.25 6.03.148 16.414-.043 32.836.092 49.251-.142 2.873.574 6.342-1.923 8.442-4.277 1.44-8.895.667-13.322.759-1.716 4.731-2.901 9.662-3 14.684 9.023.497 18.089.163 27.133.255 0 5.463.014 10.939-.021 16.401-17.713-5.696-32.844-18.919-40.47-35.916-8.832-18.961-7.64-42.073 2.951-60.105v.007zm50.578.717c7.86.227 16.5-.965 23.58 3.234 6.065 3.448 6.441 13.188.568 17.025-7.08 4.696-16.054 3.796-24.14 3.945V81.316h-.008zm0 37.228h.008c9.661.262 20.238-1.39 28.942 3.809 6.406 3.568 7.15 13.762.936 17.89-8.69 6.023-19.898 4.342-29.878 5.15v-26.856l-.008.007zm-.361 42.03h9.683c0 6.356.014 12.712-.015 19.068-3.237-.085-6.472-.23-9.704-.433a5515.7 5515.7 0 0 0 .036-18.635z"/></svg>