<svg xmlns="http://www.w3.org/2000/svg" viewBox="0 0 226.8 226.8"><path d="M113.4 1.1C50.6 1.1-.2 51.4-.2 113.4s50.9 112.2 113.6 112.2S227 175.4 227 113.4 176.1 1.1 113.4 1.1zm0 219c-59 0-106.7-47.8-106.7-106.7 0-59 47.8-106.7 106.7-106.7 59 0 106.7 47.8 106.7 106.7 0 58.9-47.8 106.7-106.7 106.7z"/><path d="M113.4 12.9c-56.2 0-101.7 45-101.7 100.4 0 55.5 45.5 100.4 101.7 100.4s101.7-45 101.7-100.4c0-55.4-45.6-100.4-101.7-100.4zm0 174.7c-41 0-74.2-33.2-74.2-74.2s33.2-74.2 74.2-74.2 74.2 33.2 74.2 74.2-33.2 74.2-74.2 74.2z"/><path d="M113.4 48.1c-36.1 0-65.3 29.3-65.3 65.3s29.3 65.3 65.3 65.3c36.1 0 65.3-29.3 65.3-65.3s-29.2-65.3-65.3-65.3zm-9.7 8.1c2.8-.5 5.6-.7 8.5-.8V72h-8.5V56.2zm0 28.5s3.6-.3 7.1-.3c3.5.1 6.6.2 11.2 1.6 4.6 1.4 7.3 4.9 7.4 9 .1 4.1-1.7 6.8-4.8 8.5-3.1 1.7-7.5 2.7-11.6 2.8-4.1.2-9.3 0-9.3 0V84.7zm-48.4 28.7c0-15.1 5.7-28.8 15.1-39.1v9.4H77c1.8 0 4.9.2 6.2 1.7 1.3 1.5 1.6 2.3 1.6 5.2V137c0 1.1-.2 2.5-1.2 3.4-.9.9-1.9 1.1-4.1 1.1h-6.7l-2 11.5c-9.6-10.5-15.5-24.4-15.5-39.6zm37.2 54.2c-7.5-2.9-14.2-7.2-19.8-12.7h19.8v12.7zm0-95.6H72.7c5.6-5.5 12.4-9.9 19.8-12.8V72zm19.8 99.4c-2.9-.1-5.8-.3-8.5-.8v-15.8h8.5v16.6zm-8.6-29.9v-24s7.1-.4 12.7 0 10.2 1.8 12.3 2.8c2.1 1 5.8 3.4 5.8 8.9s-3.1 7.7-5.7 9.1c-2.6 1.4-7.7 2.7-12.7 3-4.9.4-12.4.2-12.4.2zm19.8 29v-16c2.9-.2 5.6-.4 7.2-.6 3.2-.4 10.4-1.3 17.2-6 6.8-4.7 8.3-12.1 8.4-19.5.2-7.4-2.7-12.5-6.5-15.4-3.8-2.9-9.3-4-9.3-4s4.6-2.7 6.5-5.3c1.9-2.7 2.8-6.8 3-9 .2-2.1.5-11.2-6.5-16.3-5.4-4-11.7-5.6-20-6.1v-16c27.2 4.8 47.9 28.5 47.9 57.2 0 28.5-20.7 52.3-47.9 57z"/></svg>