<svg width="227" height="227" viewBox="0 0 227 227" xmlns="http://www.w3.org/2000/svg"><title>btg</title><path d="M113.469 226.471c62.408 0 113.002-50.594 113.002-113.002C226.471 51.06 175.877.467 113.47.467 51.06.467.467 51.06.467 113.469c0 62.408 50.594 113.002 113.002 113.002zm-10.15-208.13c4.48-.308 8.989-.513 13.478-.667.052 9.215.031 18.44 0 27.655l-13.457-.021c0-8.989 0-17.978-.02-26.966zM135.7 45.74h.01c-.02-8.475-.02-16.95.042-25.415 24.963 6.256 47.194 22.57 60.271 44.77 14.803 24.624 17.29 56.07 6.8 82.8-11.053 28.97-37.033 51.364-67.133 58.71.02-8.425.041-16.828-.02-25.241 14.3-1.356 29.966-2.61 41.533-12.122 11.68-10.232 14.382-27.645 10.992-42.17-2.61-11.085-13.057-18.112-23.607-20.567 17.628-9.349 19.477-36.469 5.085-49.382-9.43-7.982-22.138-9.79-33.972-11.383zm-89.847-.36c11.486-10.087 24.491-18.583 39.1-23.319.071 7.931.05 15.862.05 23.792-13.056.021-26.113.155-39.14-.472h-.01zM30.628 65.824c3.801-7.12 9.78-12.759 13.54-19.888.678.873.924 1.931.73 3.164.092 5.414.174 10.817.954 16.17 6.647.04 13.396-.473 19.981.831 3.986.76 6.39 4.9 6.154 8.732.216 23.772-.062 47.554.133 71.325-.205 4.16.832 9.184-2.784 12.225-6.194 2.086-12.882.966-19.292 1.1-2.486 6.851-4.202 13.991-4.346 21.264 13.068.72 26.196.237 39.294.37 0 7.91.02 15.841-.03 23.751-25.652-8.249-47.564-27.398-58.608-52.012-12.79-27.46-11.063-60.928 4.274-87.042v.01zm73.246 1.038c11.382.328 23.895-1.397 34.147 4.684 8.784 4.993 9.328 19.097.822 24.655-10.252 6.8-23.248 5.496-34.959 5.712V66.86h-.01zm0 53.912h.01c13.992.38 29.309-2.014 41.914 5.517 9.276 5.167 10.355 19.929 1.356 25.908-12.585 8.722-28.816 6.287-43.27 7.458v-38.893l-.01.01zm-.524 60.867h14.023c0 9.205.02 18.41-.02 27.614a383.938 383.938 0 0 1-14.054-.627c.03-9 .051-17.998.051-26.987z"/></svg>