<?xml version="1.0" encoding="utf-8"?>
<!-- Generator: Adobe Illustrator 18.1.0, SVG Export Plug-In . SVG Version: 6.00 Build 0)  -->
<!DOCTYPE svg PUBLIC "-//W3C//DTD SVG 1.1//EN" "http://www.w3.org/Graphics/SVG/1.1/DTD/svg11.dtd">
<svg version="1.1" id="Layer_1" xmlns="http://www.w3.org/2000/svg" xmlns:xlink="http://www.w3.org/1999/xlink" x="0px" y="0px"
	 viewBox="0 0.2 226.8 226.8" enable-background="new 0 0.2 226.8 226.8" xml:space="preserve">
<path d="M113.4,0.3C50.8,0.3,0,51,0,113.6S50.8,227,113.4,227s113.4-50.8,113.4-113.4S176,0.3,113.4,0.3z M155.2,130.5h-24.3
	c-0.3-1.9-1-3.7-2.1-5.2l17.2-17.2C151.1,114.2,154.6,121.9,155.2,130.5z M119.8,95.2c8.6,0.4,16.3,3.9,22.4,9.2L125,121.6
	c-1.5-1-3.3-1.8-5.2-2.1V95.2z M79.5,48.3l35.2,31.5c0,0,0,32.9,0,39.8c-1.6,0.3-3.3,1-4.7,1.9c-3.4-3.4-23.9-24-30.4-30.6
	C79.5,89.7,79.5,48.3,79.5,48.3z M79.5,98.8l26.4,26.4c-1,1.6-1.8,3.4-2.1,5.3H79.5C79.5,121.6,79.5,112.3,79.5,98.8z M79.5,135.7
	h24.3c0.3,1.8,1,3.6,2.1,5l-17.2,17.4C83.5,152.1,80.1,144.3,79.5,135.7z M114.8,170.9c-8.6-0.4-16.3-3.9-22.4-9.2l17.2-17.2
	c1.5,1,3.3,1.8,5.2,2.1V170.9z M119.8,170.9v-24.3c1.9-0.3,3.7-1,5.3-2.1l17.1,17.1C136.2,166.9,128.4,170.3,119.8,170.9z
	 M146.3,157.7L129,140.5c0.9-1.5,1.5-3.1,1.8-4.9h24.5C154.7,144,151.4,151.6,146.3,157.7z"/>
</svg>
