<svg version="1.1" id="Layer_1" xmlns="http://www.w3.org/2000/svg" xmlns:xlink="http://www.w3.org/1999/xlink" x="0px" y="0px"
	 width="226.777px" height="226.777px" viewBox="0 0 226.777 226.777" enable-background="new 0 0 226.777 226.777"
	 xml:space="preserve">
<g id="BTS_alt">
	<g>
		<path fill="#231F20" d="M92.506,142.156L43.653,93.302c0,24.949,0,42.24,0,58.718h45.025
			C89.14,148.539,90.533,145.174,92.506,142.156z"/>
		<path fill="#231F20" d="M88.678,161.651H43.653c1.043,15.898,7.427,30.172,17.058,41.429l31.794-32.146
			C90.533,168.268,89.14,165.017,88.678,161.651z"/>
		<path fill="#231F20" d="M159.695,103.745c-11.259-9.864-25.529-16.247-41.428-17.059v45.025c3.596,0.581,6.846,1.973,9.633,3.83
			L159.695,103.745z"/>
		<path fill="#231F20" d="M135.328,170.471l31.795,31.795c9.633-11.256,15.665-25.296,16.71-40.848h-45.257
			C137.994,164.668,136.951,167.685,135.328,170.471z"/>
		<path fill="#231F20" d="M138.576,152.02h45.023c-1.043-15.897-7.428-30.172-17.055-41.427l-31.799,31.912
			C136.72,145.174,137.994,148.539,138.576,152.02z"/>
		<path fill="#231F20" d="M67.559,209.694c11.254,9.863,25.53,16.246,41.427,17.058v-45.025c-3.599-0.58-6.849-1.973-9.631-3.828
			L67.559,209.694z"/>
		<path fill="#231F20" d="M118.267,181.727v45.025c15.898-1.044,30.17-7.427,41.428-17.291l-31.563-31.563
			C125.113,179.755,121.863,181.147,118.267,181.727z"/>
		<path fill="#231F20" d="M43.653,78.798c12.068,12.067,49.897,50.246,56.279,56.515c2.785-1.628,5.804-3.02,8.821-3.601
			c0-12.646,0-73.572,0-73.572L43.769,0.003C43.653,0.003,43.653,76.592,43.653,78.798z"/>
	</g>
</g>
</svg>
