<?xml version="1.0" encoding="utf-8"?>
<!-- Generator: Adobe Illustrator 18.1.0, SVG Export Plug-In . SVG Version: 6.00 Build 0)  -->
<!DOCTYPE svg PUBLIC "-//W3C//DTD SVG 1.1//EN" "http://www.w3.org/Graphics/SVG/1.1/DTD/svg11.dtd">
<svg version="1.1" id="Ebene_1" xmlns="http://www.w3.org/2000/svg" xmlns:xlink="http://www.w3.org/1999/xlink" x="0px" y="0px"
	 viewBox="0 0 227 227" enable-background="new 0 0 227 227" xml:space="preserve">
<g>
	<g>
		<path d="M103.6,136.1L61.5,94c0,21.5,0,36.4,0,50.6h38.8C100.7,141.6,101.9,138.7,103.6,136.1z"/>
		<path d="M100.3,152.9H61.5c0.9,13.7,6.4,26,14.7,35.7l27.4-27.7C101.9,158.6,100.7,155.8,100.3,152.9z"/>
		<path d="M161.5,103c-9.7-8.5-22-14-35.7-14.7v38.8c3.1,0.5,5.9,1.7,8.3,3.3L161.5,103z"/>
		<path d="M140.5,160.5l27.4,27.4c8.3-9.7,13.5-21.8,14.4-35.2h-39C142.8,155.5,141.9,158.1,140.5,160.5z"/>
		<path d="M143.3,144.6h38.8c-0.9-13.7-6.4-26-14.7-35.7L140,136.4C141.7,138.7,142.8,141.6,143.3,144.6z"/>
		<path d="M82.1,194.3c9.7,8.5,22,14,35.7,14.7v-38.8c-3.1-0.5-5.9-1.7-8.3-3.3L82.1,194.3z"/>
		<path d="M125.8,170.2V209c13.7-0.9,26-6.4,35.7-14.9l-27.2-27.2C131.7,168.5,128.9,169.7,125.8,170.2z"/>
		<path d="M61.5,81.5c10.4,10.4,43,43.3,48.5,48.7c2.4-1.4,5-2.6,7.6-3.1c0-10.9,0-63.4,0-63.4l-56-50.1
			C61.5,13.6,61.5,79.6,61.5,81.5z"/>
	</g>
</g>
</svg>
