<svg version="1.1" id="Layer_1" xmlns="http://www.w3.org/2000/svg" xmlns:xlink="http://www.w3.org/1999/xlink" x="0px" y="0px"
	 width="226.777px" height="226.777px" viewBox="0 0 226.777 226.777" enable-background="new 0 0 226.777 226.777"
	 xml:space="preserve">
<g>
	<path fill="#1D1D1B" d="M133.922,19.865c0,10.147-0.307,46.07-4.24,82.281c-3.711,34.133-9.599,71.589-10.945,80.004
		c1.701,0.163,3.308,0.428,4.836,0.767c3.234-6.615,19.191-39.787,26.499-64.716c8.37-28.537,13.197-66.593,13.333-81.986
		c0.011-1.008,0.019-1.923,0.024-2.77c-2.776-4.295-8.832-12.289-16.669-14.427c-6.839-1.864-10.823-1.046-12.838-0.183V19.865z"/>
	<path fill="#1D1D1B" d="M166.79,36.244c-0.138,15.586-5.017,54.081-13.47,82.91c-7.178,24.486-22.568,56.75-26.414,64.653
		c1.724,0.552,3.327,1.199,4.812,1.918c4.136-5.404,23.111-30.628,34.982-53.44c14-26.908,27.015-62.603,28.778-69.532l0.722-2.835
		c-1.555-4.809-5.271-13.763-12.483-18.47c-7.445-4.862-13.968-5.398-16.926-5.337C166.791,36.156,166.79,36.197,166.79,36.244z"/>
	<path fill="#1D1D1B" d="M169.703,133.848c-11.705,22.492-30.203,47.251-34.979,53.52c2.127,1.296,3.967,2.712,5.529,4.138
		c5.081-4.992,26.272-26.068,40.376-43.835c16.28-20.506,32.458-49.297,35.104-55.537l1.378-3.253
		c-0.377-4.129-1.53-10.695-5.038-15.553c-4.107-5.685-10.408-8.54-13.344-9.623C196.511,72.275,183.035,108.227,169.703,133.848z"
		/>
	<path fill="#1D1D1B" d="M56.783,38.907c1.271,10.091,7.299,42.077,17.819,76.526c9.435,30.894,23.465,61.73,26.617,68.519
		c1.564-0.51,3.229-0.941,5.009-1.271c-1.242-7.356-7.671-46.052-11.653-82.44c-4.35-39.772-6.12-73.471-6.356-80.318
		c-0.007-0.236-0.011-0.444-0.019-0.674c-2.965-0.87-9.58-1.948-18.073,1.99c-7.815,3.624-11.897,10.43-13.744,14.52
		C56.504,36.696,56.635,37.74,56.783,38.907z"/>
	<path fill="#1D1D1B" d="M91.602,19.807c0.235,6.82,2,40.397,6.339,80.067c3.987,36.459,10.44,75.246,11.638,82.328
		c1.553-0.162,3.172-0.256,4.876-0.256c0.3,0,0.586,0.016,0.883,0.02c1.225-7.643,7.22-45.636,10.975-80.187
		c3.919-36.041,4.225-71.811,4.225-81.915v-1.625c-3.186-2.836-10.571-8.39-19.608-8.39c-9.036,0-16.267,5.553-19.371,8.388
		C91.572,18.75,91.584,19.259,91.602,19.807z"/>
	<path fill="#1D1D1B" d="M114.456,185.33c-18.456,0-26.878,11.003-29.369,15.087c15.609,11.447,25.527,16.511,29.51,16.511
		c3.993,0,15.294-6.13,29.185-16.018C141.227,196.613,132.783,185.33,114.456,185.33z"/>
	<path fill="#1D1D1B" d="M218.762,93.653c-2.917,6.707-19.169,35.572-35.483,56.125c-14.191,17.881-35.463,39.04-40.631,44.122
		c1.763,1.93,3.029,3.724,3.856,5.045c9.965-7.271,21.051-16.308,31.641-26.31c26.66-25.179,47.893-50.076,48.597-62.63
		C227.277,100.462,221.549,95.491,218.762,93.653z"/>
	<path fill="#1D1D1B" d="M9.338,91.225c6.086,15.424,17.689,33.698,34.489,54.313C63.748,169.99,83.256,187.3,88.151,191.52
		c1.065-0.974,2.266-1.948,3.613-2.889c-4.735-5.61-21.649-26.542-37.214-56.835C37.114,97.859,30.489,74.379,27.66,64.353
		l-0.423-1.494c-0.007-0.021-0.012-0.042-0.018-0.063c-3.902,1.044-13.745,4.308-17.609,11.447c-1.976,3.65-2.582,7.45-2.616,10.683
		C7.6,86.668,8.369,88.773,9.338,91.225z"/>
	<path fill="#1D1D1B" d="M85.758,193.926c-5.274-4.56-24.729-21.912-44.557-46.248C24.785,127.531,13.26,109.542,6.885,94.16
		c-2.391,2.104-7.362,7.71-6.796,17.641c0.74,13.014,19.432,33.611,53.568,63.233c10.981,9.529,20.551,17.254,28.701,23.358
		C83.104,197.213,84.218,195.636,85.758,193.926z"/>
	<path fill="#1D1D1B" d="M30.494,61.93l0.424,1.504c2.802,9.928,9.36,33.179,26.643,66.815
		c15.801,30.754,32.96,51.701,37.095,56.563c1.055-0.594,2.187-1.147,3.386-1.664c-3.401-7.34-17.296-38.003-26.678-68.727
		C60.78,81.763,54.706,49.516,53.424,39.331c-0.017-0.136-0.032-0.254-0.048-0.387c-2.988-0.162-9.413,0.144-15.623,4.724
		c-5.273,3.89-7.425,10.2-8.298,14.407C29.72,59.135,30.056,60.397,30.494,61.93z"/>
</g>
</svg>
