<svg version="1.1" id="Layer_1" xmlns="http://www.w3.org/2000/svg" xmlns:xlink="http://www.w3.org/1999/xlink" x="0px" y="0px"
	 width="226.777px" height="226.777px" viewBox="0 0 226.777 226.777" enable-background="new 0 0 226.777 226.777"
	 xml:space="preserve">
<path fill="#1D1D1B" d="M113.389,0C50.767,0,0.001,50.766,0.001,113.389s50.766,113.388,113.389,113.388
	c62.623,0,113.388-50.766,113.388-113.388S176.012,0,113.389,0z M181.424,86.053c2.42,3.35,3.214,7.877,3.475,10.725l-0.951,2.243
	c-1.825,4.304-12.979,24.156-24.205,38.297c-9.725,12.251-24.339,26.782-27.841,30.226c-1.079-0.982-2.348-1.961-3.813-2.854
	c3.292-4.322,16.049-21.396,24.119-36.903c9.192-17.667,18.487-42.46,20.016-48.37C174.246,80.163,178.592,82.133,181.424,86.053z
	 M150.199,60.389c2.04-0.042,6.537,0.328,11.672,3.679c4.974,3.247,7.536,9.422,8.607,12.738l-0.498,1.954
	c-1.215,4.779-10.189,29.393-19.844,47.948c-8.186,15.731-21.271,33.123-24.121,36.849c-1.024-0.497-2.131-0.941-3.319-1.321
	c2.651-5.449,13.265-27.697,18.215-44.583c5.829-19.879,9.193-46.423,9.288-57.17C150.199,60.448,150.199,60.42,150.199,60.389z
	 M127.535,48.476c1.389-0.595,4.136-1.159,8.852,0.127c5.403,1.475,9.58,6.985,11.494,9.949c-0.006,0.583-0.01,1.214-0.017,1.909
	c-0.094,10.615-3.422,36.856-9.193,56.536c-5.04,17.19-16.043,40.062-18.272,44.625c-1.055-0.232-2.163-0.417-3.335-0.529
	c0.928-5.803,4.987-31.632,7.546-55.168c2.715-24.97,2.926-49.74,2.926-56.737V48.476z M111.679,42.28
	c6.232,0,11.326,3.83,13.52,5.786v1.121c0,6.967-0.209,31.633-2.91,56.484c-2.591,23.825-6.725,50.023-7.569,55.295
	c-0.204-0.002-0.401-0.016-0.608-0.016c-1.175,0-2.292,0.065-3.362,0.179c-0.826-4.886-5.275-31.63-8.026-56.771
	c-2.992-27.354-4.208-50.508-4.371-55.21c-0.013-0.377-0.021-0.729-0.031-1.083C100.463,46.109,105.449,42.28,111.679,42.28z
	 M83.544,50.134c5.856-2.716,10.417-1.97,12.462-1.372c0.005,0.159,0.007,0.302,0.013,0.466c0.163,4.72,1.384,27.958,4.383,55.383
	c2.745,25.092,7.177,51.776,8.036,56.847c-1.228,0.229-2.376,0.525-3.455,0.877c-2.172-4.681-11.848-25.944-18.354-47.248
	c-7.254-23.755-11.41-45.81-12.287-52.77c-0.103-0.804-0.192-1.523-0.276-2.171C75.34,57.326,78.155,52.632,83.544,50.134z
	 M61.22,65.601c4.282-3.16,8.712-3.37,10.772-3.258c0.012,0.09,0.021,0.172,0.034,0.267c0.884,7.023,5.073,29.259,12.372,53.159
	c6.469,21.185,16.05,42.328,18.395,47.392c-0.826,0.355-1.607,0.737-2.334,1.147c-2.852-3.353-14.684-17.8-25.58-39.005
	c-11.918-23.193-16.44-39.226-18.372-46.072l-0.292-1.037c-0.302-1.057-0.534-1.928-0.716-2.658
	C56.1,72.633,57.584,68.282,61.22,65.601z M41.815,86.683c2.664-4.923,9.451-7.172,12.142-7.893
	c0.004,0.015,0.008,0.028,0.012,0.043l0.292,1.03c1.95,6.913,6.517,23.105,18.541,46.507c10.733,20.888,22.396,35.321,25.662,39.191
	c-0.93,0.646-1.758,1.319-2.492,1.989c-3.375-2.91-16.827-14.846-30.563-31.705c-11.584-14.217-19.585-26.815-23.782-37.453
	c-0.668-1.69-1.198-3.143-1.615-4.342C40.034,91.821,40.452,89.2,41.815,86.683z M72.187,156.184
	c-23.539-20.425-36.428-34.629-36.938-43.603c-0.39-6.847,3.039-10.712,4.687-12.164c4.395,10.606,12.342,23.009,23.662,36.904
	c13.673,16.779,27.088,28.745,30.725,31.89c-1.062,1.181-1.83,2.266-2.344,3.08C86.359,168.082,79.759,162.756,72.187,156.184z
	 M114.208,185.074c-2.746,0-9.584-3.492-20.349-11.385c1.718-2.817,7.526-10.404,20.252-10.404c12.638,0,18.461,7.78,20.222,10.742
	C124.755,180.846,116.962,185.074,114.208,185.074z M191.539,111.344c-0.486,8.654-15.126,25.823-33.51,43.185
	c-7.303,6.896-14.947,13.129-21.818,18.145c-0.57-0.912-1.443-2.15-2.659-3.481c3.564-3.505,18.231-18.095,28.018-30.423
	c11.25-14.174,22.456-34.077,24.468-38.702C187.958,101.336,191.908,104.764,191.539,111.344z"/>
</svg>
