<svg version="1.1" id="Layer_1" xmlns="http://www.w3.org/2000/svg" xmlns:xlink="http://www.w3.org/1999/xlink" x="0px" y="0px"
	 width="226.777px" height="226.777px" viewBox="0 0 226.777 226.777" enable-background="new 0 0 226.777 226.777"
	 xml:space="preserve">
<g>
	<path fill="#1D1D1B" d="M113.353,41.198c-39.73,0-72.054,32.323-72.054,72.055c0,39.729,32.324,72.052,72.054,72.052
		c39.73,0,72.054-32.323,72.054-72.052C185.407,73.521,153.084,41.198,113.353,41.198z M138.686,142.019
		c-3.858-2.011-8.09-3.573-12.594-4.604c8.664-4.588,14.585-13.695,14.585-24.162c0-15.068-12.257-27.326-27.324-27.326
		c-15.066,0-27.325,12.258-27.325,27.326c0,10.467,5.92,19.574,14.585,24.162c-4.504,1.03-8.735,2.594-12.594,4.604
		c-7.978-7.033-13.025-17.319-13.025-28.767c0-21.153,17.208-38.36,38.359-38.36c21.15,0,38.358,17.207,38.358,38.36
		C151.712,124.7,146.664,134.986,138.686,142.019z M156.504,158.805c-2.019-3.629-4.684-6.962-7.888-9.892
		c9.206-9.103,14.92-21.725,14.92-35.661c0-27.671-22.513-50.183-50.183-50.183s-50.182,22.512-50.182,50.183
		c0,13.937,5.713,26.559,14.917,35.661c-3.203,2.93-5.868,6.263-7.887,9.892c-12.083-11.451-19.643-27.633-19.643-45.553
		c0-34.625,28.169-62.793,62.793-62.793s62.793,28.167,62.793,62.793C176.146,131.173,168.588,147.354,156.504,158.805z"/>
	<path fill="#1D1D1B" d="M113.354,0C50.75,0,0,50.75,0,113.354c0,62.604,50.75,113.354,113.354,113.354
		c62.604,0,113.354-50.751,113.354-113.354C226.709,50.75,175.958,0,113.354,0z M113.353,198.705
		c-47.119,0-85.453-38.335-85.453-85.452c0-47.12,38.334-85.454,85.453-85.454s85.453,38.334,85.453,85.454
		C198.806,160.37,160.472,198.705,113.353,198.705z"/>
</g>
</svg>
