<svg version="1.1" id="Layer_1" xmlns="http://www.w3.org/2000/svg" xmlns:xlink="http://www.w3.org/1999/xlink" x="0px" y="0px"
	 width="226.777px" height="226.777px" viewBox="0 0 226.777 226.777" enable-background="new 0 0 226.777 226.777"
	 xml:space="preserve">
<g>
	<path fill="#1D1D1B" d="M113.403,0C50.872,0,0,50.872,0,113.403c0,62.53,50.872,113.402,113.403,113.402
		c62.53,0,113.402-50.872,113.402-113.402C226.804,50.872,175.932,0,113.403,0z M113.403,209.023
		c-52.725,0-95.621-42.896-95.621-95.62c0-52.726,42.896-95.622,95.621-95.622c52.726,0,95.621,42.896,95.621,95.622
		C209.023,166.128,166.129,209.023,113.403,209.023z"/>
	<path fill="#1D1D1B" d="M113.403,62.497c-28.069,0-50.905,22.836-50.905,50.906c0,15.191,6.698,28.843,17.287,38.177
		c5.119-2.67,10.736-4.743,16.712-6.111c-11.5-6.09-19.356-18.174-19.356-32.065c0-19.995,16.268-36.262,36.262-36.262
		c19.995,0,36.261,16.267,36.261,36.262c0,13.892-7.854,25.976-19.355,32.065c5.977,1.369,11.594,3.441,16.712,6.111
		c10.588-9.334,17.288-22.985,17.288-38.177C164.308,85.333,141.472,62.497,113.403,62.497z"/>
	<path fill="#1D1D1B" d="M113.403,30.073c-45.949,0-83.331,37.38-83.331,83.33c0,23.784,10.032,45.256,26.067,60.452
		c2.678-4.816,6.215-9.239,10.466-13.126c-12.214-12.08-19.798-28.832-19.798-47.326c0-36.721,29.875-66.596,66.596-66.596
		s66.594,29.875,66.594,66.596c0,18.494-7.584,35.246-19.799,47.326c4.253,3.887,7.79,8.31,10.469,13.126
		c16.034-15.196,26.065-36.668,26.065-60.452C196.732,67.453,159.35,30.073,113.403,30.073z"/>
</g>
</svg>
