<svg version="1.1" id="Layer_1" xmlns="http://www.w3.org/2000/svg" xmlns:xlink="http://www.w3.org/1999/xlink" x="0px" y="0px"
	 viewBox="0 0 226.8 226.8" style="enable-background:new 0 0 226.8 226.8;" xml:space="preserve">
<g>
	<path class="st0" d="M79.5,157.1c0,0,16.8,0,36.3,0c19.5,0,37.6-10.1,37.6-43.7c0-33.5-22.2-44.4-37-44.4c-14.8,0-37,0-37,0v40.6
		h-8.5v7.4h8.5V157.1z M90.9,117h22.5v-7.4H90.9V80c0,0,15.2,0,25.3,0c10.1,0,25.3,8.1,25.3,33.3c0,25.2-12.4,32.8-25.7,32.8
		c-13.3,0-24.9,0-24.9,0V117z"/>
	<path class="st0" d="M113.4,0C50.8,0,0,50.8,0,113.4C0,176,50.8,226.8,113.4,226.8S226.8,176,226.8,113.4C226.8,50.8,176,0,113.4,0
		z M170,170H56.8V56.8H170V170z"/>
</g>
</svg>
