<svg version="1.1" id="Layer_1" xmlns="http://www.w3.org/2000/svg" xmlns:xlink="http://www.w3.org/1999/xlink" x="0px" y="0px"
	 viewBox="0 0 226.8 226.8" style="enable-background:new 0 0 226.8 226.8;" xml:space="preserve">
<g>
	<path class="st0" d="M119,46.5c-20.3,0-50.7,0-50.7,0v59.3h45.1v14.9H68.3v58.1c0,0,23.1,0,49.8,0c26.7,0,51.5-15.2,51.5-65.6
		C169.7,62.8,139.2,46.5,119,46.5z"/>
	<path class="st0" d="M0,0v226.8h226.8V0H0z M118.3,200.9c-39.1,0-72.8,0-72.8,0v-80.2H28.6v-14.9h16.9V24.5c0,0,44.4,0,74,0
		c29.6,0,74,21.7,74,88.9S157.4,200.9,118.3,200.9z"/>
</g>
</svg>
