<svg version="1.1" id="Layer_1" xmlns="http://www.w3.org/2000/svg" xmlns:xlink="http://www.w3.org/1999/xlink" x="0px" y="0px"
	 width="226.777px" height="226.777px" viewBox="0 0 226.777 226.777" enable-background="new 0 0 226.777 226.777"
	 xml:space="preserve">
<path fill="#231F20" d="M113.388,0C50.766,0,0,50.766,0,113.388c0,62.623,50.766,113.389,113.389,113.389
	c62.623,0,113.389-50.766,113.389-113.389C226.777,50.766,176.011,0,113.388,0z M56.562,104.802h45.266l-5.238,17.024H51.326
	L56.562,104.802z M173.83,96.773c-1.801,6.506-7.656,26.023-10.059,32.945c-2.4,6.922-6.829,12.734-12.506,16.057
	c-5.676,3.323-7.797,4.712-15.731,4.712H54.303l5.721-18.542h76.395l11.414-37.109h-75.79l5.722-18.541c0,0,83.698,0,84.577,0
	c3.875,0,8.996,1.792,11.488,6.639C176.321,87.775,175.629,90.267,173.83,96.773z"/>
</svg>
