<svg version="1.1" id="Layer_1" xmlns="http://www.w3.org/2000/svg" xmlns:xlink="http://www.w3.org/1999/xlink" x="0px" y="0px"
	 width="595.279px" height="595.281px" viewBox="0 0 595.279 595.281" enable-background="new 0 0 595.279 595.281"
	 xml:space="preserve">
<g>
	<path fill="#231F20" d="M595.282,254.087c0-102.905-83.421-186.343-186.32-186.343H261.687l100.354,87.109h46.92
		c54.708,0,99.217,44.515,99.217,99.234c0,54.711-44.509,99.238-99.217,99.238H261.687l200.708,174.212H595.27L479.152,426.73
		C547.261,399.009,595.282,332.148,595.282,254.087z"/>
	<path fill="#231F20" d="M186.334,440.428c-54.705,0-99.227-44.521-99.227-99.228c0-54.718,44.528-99.222,99.227-99.222h147.262
		L132.888,67.744H0.012l116.12,100.807C48.023,196.27,0,263.139,0,341.201c0,102.916,83.425,186.337,186.334,186.337h147.267
		l-100.353-87.109H186.334z"/>
</g>
</svg>
