<svg width="227" height="227" viewBox="0 0 227 227" xmlns="http://www.w3.org/2000/svg"><title>dgb</title><path d="M113.5 227C50.813 227 0 176.187 0 113.5S50.813 0 113.5 0 227 50.813 227 113.5 176.187 227 113.5 227zm-25.764-49.656h13.25c1.86 0 2.533-.476 3.207-2.256 1.092-2.894 2.2-5.781 3.242-8.697.29-.837.745-1.206 1.589-1.419 9.505-2.284 18.685-5.519 27.368-10.123 8.044-4.27 15.379-9.548 21.735-16.187 9.222-9.648 15.592-21.083 20.075-33.667 1.894-5.32 2.937-10.825 2.639-16.529-.312-5.895-2.277-11.109-6.235-15.478-2.923-3.228-6.477-5.534-10.386-7.3-5.143-2.32-10.57-3.582-16.13-4.263-.32-.043-.64-.114-1.037-.185l.433-1.227c.98-2.603 1.965-5.2 2.923-7.817.603-1.632 0-2.526-1.689-2.533-4-.014-8.008 0-12.01 0-.943 0-.957.007-1.312.95l-3.518 9.343c-.12.32-.277.632-.412.944h-5.71c.156-.483.277-.887.426-1.277.872-2.355 1.766-4.696 2.638-7.044.142-.369.284-.738.341-1.12.135-.923-.383-1.633-1.277-1.774-.305-.043-.617-.022-.922-.022h-12.655l-4.264 11.28H68.44a5.349 5.349 0 0 0-5.008 2.965l-9.846 17.734c-.142.255-.213.546-.383.965h78.173c4.03.028 7.76 1.05 11.08 3.44 2.505 1.816 4.186 4.242 4.952 7.307.702 2.802.54 5.61.021 8.413a47.606 47.606 0 0 1-4.752 13.726c-10.414 19.7-26.531 30.184-48.493 31.142-.32.014-.639-.028-1.05-.057.184-.532.312-.943.46-1.34l14.6-38.832c1.114-2.965 2.263-5.923 3.341-8.91.823-2.255-.482-4.242-2.83-4.419-.227-.014-.461-.014-.688-.014H84.813c-.34 0-.674.05-.958.07-1.135 2.179-29.864 74.62-29.957 75.563 5.037.575 10.095.667 15.294.802l-2.851 7.697c.234.07.34.135.447.135 4.469 0 8.93.014 13.393 0 1.014 0 1.745-.554 2.22-1.44.22-.412.362-.866.532-1.306l2.17-5.746 6.03-.588-3.397 9.094z" fill="#000" fill-rule="nonzero"/></svg>