<svg version="1.1" id="Layer_1" xmlns="http://www.w3.org/2000/svg" xmlns:xlink="http://www.w3.org/1999/xlink" x="0px" y="0px"
	 width="226.777px" height="226.777px" viewBox="0 0 226.777 226.777" enable-background="new 0 0 226.777 226.777"
	 xml:space="preserve">
<path fill="#231F20" d="M113.327,0C50.739,0,0,50.739,0,113.327c0,62.589,50.739,113.328,113.328,113.328
	c62.589,0,113.328-50.738,113.328-113.328C226.655,50.739,175.917,0,113.327,0z M174.351,106.188
	c-1.103,14.649-18.525,45.776-52.768,52.048l-3.298,30.622l-10.829-1.168l3.029-28.13c-3.081,0.245-6.059,0.413-8.939,0.519
	l-2.809,26.068l-10.83-1.169l2.676-24.805c-22.099-0.436-35.663-4.494-35.663-4.494l34.78-65.733l25.797,4.776l-27.327,54.079
	c28.607,1.895,44.334-12.037,53.122-26.943c8.787-14.909,0.387-30.192-11.463-32.676c-11.849-2.483-71.276-11.847-71.276-11.847
	l14.712-16.626c0,0,16.524,2.917,34.963,6.268l2.832-26.282l10.83,1.167l-2.919,27.082c2.944,0.542,5.866,1.083,8.709,1.613
	l2.927-27.15l10.83,1.167l-3.021,28.042C162.696,77.589,175.48,91.136,174.351,106.188z"/>
</svg>
