<svg width="225" height="225" viewBox="0 0 225 225" xmlns="http://www.w3.org/2000/svg"><title>dgb</title><path d="M61.124 224.845h23.318c3.27 0 4.456-.836 5.642-3.97 1.922-5.092 3.87-10.173 5.704-15.303.512-1.473 1.311-2.122 2.797-2.497 16.727-4.02 32.88-9.711 48.158-17.813 14.156-7.514 27.063-16.802 38.248-28.486 16.227-16.976 27.437-37.098 35.326-59.243 3.333-9.362 5.168-19.049 4.643-29.085-.549-10.373-4.007-19.548-10.972-27.237-5.143-5.68-11.397-9.737-18.275-12.845-9.05-4.082-18.6-6.304-28.386-7.502-.561-.075-1.123-.2-1.822-.325l.761-2.16c1.723-4.58 3.458-9.15 5.143-13.755 1.061-2.871 0-4.444-2.97-4.457-7.041-.025-14.094 0-21.134 0-1.66 0-1.685.013-2.31 1.673l-6.19 16.44c-.213.562-.488 1.11-.725 1.66h-10.048c.274-.849.486-1.56.748-2.247 1.536-4.144 3.109-8.263 4.644-12.395.25-.65.5-1.299.6-1.973.236-1.622-.675-2.87-2.248-3.12-.536-.075-1.086-.038-1.622-.038h-22.27l-7.502 19.848H27.17a9.412 9.412 0 0 0-8.812 5.218L1.032 56.44c-.25.45-.375.96-.675 1.697h137.56c7.091.05 13.657 1.848 19.499 6.055 4.406 3.195 7.365 7.464 8.713 12.857 1.236 4.93.949 9.874.037 14.804a83.772 83.772 0 0 1-8.363 24.155c-18.325 34.664-46.686 53.114-85.332 54.8-.562.024-1.124-.05-1.848-.1.325-.937.55-1.66.812-2.36l25.69-68.33c1.959-5.219 3.981-10.424 5.879-15.68 1.448-3.969-.85-7.464-4.981-7.776-.4-.025-.812-.025-1.211-.025H55.981c-.6 0-1.186.087-1.685.125C52.298 80.494 1.743 207.968 1.58 209.629c8.863 1.01 17.763 1.173 26.913 1.41l-5.018 13.544c.412.125.599.237.786.237 7.864 0 15.716.025 23.568 0 1.785 0 3.07-.973 3.907-2.534.387-.724.636-1.523.936-2.297l3.82-10.11 10.61-1.037-5.98 16.003z" fill="#000" fill-rule="nonzero"/></svg>