<svg version="1.1" id="Layer_1" xmlns="http://www.w3.org/2000/svg" xmlns:xlink="http://www.w3.org/1999/xlink" x="0px" y="0px"
	 width="226.777px" height="226.777px" viewBox="0 0 226.777 226.777" enable-background="new 0 0 226.777 226.777"
	 xml:space="preserve">
<path fill="#231F20" d="M149.813,48.964l4.634-43.015l-16.612-1.79l-4.491,41.648c-4.358-0.814-8.843-1.643-13.359-2.474
	l4.478-41.545L107.848,0l-4.345,40.318c-28.283-5.142-53.631-9.615-53.631-9.615L27.303,56.206c0,0,91.163,14.365,109.338,18.175
	c18.177,3.81,31.064,27.254,17.586,50.124c-13.48,22.867-37.604,44.24-81.49,41.335l41.919-82.959l-39.572-7.327L21.732,176.389
	c0,0,20.807,6.227,54.705,6.894l-4.102,38.052l16.614,1.792l4.307-39.988c4.418-0.162,8.986-0.419,13.713-0.796l-4.648,43.151
	l16.613,1.793l5.061-46.976c52.526-9.621,79.256-57.37,80.946-79.843C206.673,77.38,187.06,56.598,149.813,48.964z"/>
</svg>
