<?xml version="1.0" encoding="UTF-8"?>
<svg width="225px" height="225px" viewBox="0 0 225 225" version="1.1" xmlns="http://www.w3.org/2000/svg" xmlns:xlink="http://www.w3.org/1999/xlink">
    <!-- Generator: Sketch 50.2 (55047) - http://www.bohemiancoding.com/sketch -->
    <title>dgb</title>
    <desc>Created with Sketch.</desc>
    <defs></defs>
    <g id="Page-1" stroke="none" stroke-width="1" fill="none" fill-rule="evenodd">
        <g id="zen" transform="translate(-823.000000, -390.000000)" fill="#000000" fill-rule="nonzero">
            <g id="dgb" transform="translate(823.000000, 389.000000)">
                <path d="M61.1237093,225.845203 L84.4415804,225.845203 C87.7120741,225.845203 88.8979402,225.008856 90.0838062,221.875673 C92.0061575,216.78269 93.9534743,211.702191 95.788446,206.57176 C96.3002408,205.098789 97.09914,204.449684 98.5845933,204.0752 C115.311546,200.055738 131.464289,194.363581 146.743237,186.262243 C160.898733,178.747598 173.805948,169.460394 184.990538,157.776493 C201.218178,140.799884 212.427733,120.67761 220.316863,98.5331223 C223.64977,89.171022 225.484742,79.4843689 224.960464,69.4481974 C224.411221,59.0749903 220.953485,49.900132 213.988083,42.210727 C208.845169,36.5310528 202.591286,32.4741427 195.713263,29.3659254 C186.663233,25.2840497 177.113891,23.0621112 167.327375,21.8637624 C166.765649,21.7888656 166.203923,21.6640375 165.504886,21.5392095 L166.266337,19.3796851 C167.988963,14.7984973 169.724073,10.2297924 171.409251,5.62363905 C172.470289,2.75259496 171.409251,1.17976211 168.438344,1.16727931 C161.398045,1.14231371 154.345263,1.16727931 147.304963,1.16727931 C145.644751,1.16727931 145.619785,1.17976211 144.995645,2.83997456 L138.804176,19.2798227 C138.591969,19.8415487 138.317347,20.3907919 138.080174,20.9400351 L128.031519,20.9400351 C128.306141,20.0912047 128.518349,19.3796851 128.780487,18.6931311 C130.315872,14.5488413 131.888705,10.4295172 133.424089,6.29771027 C133.673745,5.64860465 133.923401,4.99949903 134.023264,4.32542781 C134.260437,2.70266376 133.349192,1.45438372 131.776359,1.20472771 C131.239599,1.12983091 130.690356,1.16727931 130.153595,1.16727931 L107.88428,1.16727931 L100.382117,21.0149319 L27.1704922,21.0149319 C23.4608738,20.8637998 20.0090217,22.9075309 18.3576352,26.2327425 L1.03150824,57.4397435 C0.781852229,57.8891243 0.657024225,58.4009191 0.357437016,59.1374043 L137.917897,59.1374043 C145.008128,59.1873355 151.574081,60.9848588 157.416031,65.1915625 C161.82246,68.3871594 164.780884,72.6562771 166.129026,78.0488469 C167.364823,82.9795531 167.077719,87.922742 166.166475,92.8534482 C164.630649,101.285276 161.809996,109.43149 157.802998,117.007667 C139.478247,151.672404 111.117325,170.121983 72.4705749,171.807161 C71.9088488,171.832126 71.3471228,171.757229 70.6231204,171.707298 C70.9476732,170.771088 71.1723636,170.047086 71.4345024,169.348049 L97.1241056,101.0172 C99.0839053,95.7993891 101.106119,90.5940613 103.003505,85.3388023 C104.451509,81.3692718 102.154674,77.8740877 98.0228672,77.5620177 C97.6234176,77.5370521 97.2114852,77.5370521 96.8120356,77.5370521 L55.9807955,77.5370521 C55.3816211,77.5370521 54.7949295,77.6244317 54.2956175,77.6618801 C52.2983694,81.4940998 1.74302786,208.968457 1.58075145,210.62867 C10.4435397,211.639777 19.3437764,211.802053 28.4936691,212.039226 L23.4755833,225.583065 C23.8875157,225.707893 24.0747578,225.820238 24.2619998,225.820238 C32.126164,225.820238 39.9778454,225.845203 47.8295269,225.820238 C49.6145673,225.820238 50.9002958,224.846579 51.7366434,223.286229 C52.1236102,222.562227 52.3732662,221.763328 52.6728534,220.989394 L56.4925904,210.878326 L67.1029707,209.842253 L61.1237093,225.845203 Z" id="Shape"></path>
            </g>
        </g>
    </g>
</svg>