<?xml version="1.0" encoding="UTF-8"?>
<svg width="227px" height="227px" viewBox="0 0 227 227" version="1.1" xmlns="http://www.w3.org/2000/svg" xmlns:xlink="http://www.w3.org/1999/xlink">
    <!-- Generator: Sketch 50.2 (55047) - http://www.bohemiancoding.com/sketch -->
    <title>dgb</title>
    <desc>Created with Sketch.</desc>
    <defs></defs>
    <g id="Page-1" stroke="none" stroke-width="1" fill="none" fill-rule="evenodd">
        <g id="zen" transform="translate(-289.000000, -389.000000)" fill="#000000" fill-rule="nonzero">
            <g id="dgb" transform="translate(289.000000, 389.000000)">
                <path d="M113.5,227 C50.8125312,227 0,176.187469 0,113.5 C0,50.8125312 50.8125312,0 113.5,0 C176.187469,0 227,50.8125312 227,113.5 C227,176.187469 176.187469,227 113.5,227 Z M87.7355,177.34375 L100.986625,177.34375 C102.845188,177.34375 103.519094,176.868469 104.193,175.087938 C105.285438,172.193687 106.392063,169.306531 107.434844,166.391 C107.725688,165.553938 108.179688,165.185062 109.023844,164.97225 C118.529469,162.688063 127.708781,159.453313 136.391531,154.849469 C144.435844,150.579031 151.770781,145.301281 158.126781,138.661531 C167.348656,129.014031 173.718844,117.578906 178.202094,104.994594 C180.096125,99.6742813 181.138906,94.1695313 180.840969,88.4661563 C180.528844,82.57125 178.563875,77.3573438 174.605562,72.9875938 C171.682938,69.7599375 168.128969,67.4544688 164.220313,65.688125 C159.077344,63.3684688 153.650625,62.1057813 148.089125,61.4247813 C147.769906,61.3822187 147.450688,61.3112813 147.053438,61.2403438 L147.486156,60.013125 C148.465094,57.4097188 149.451125,54.8134063 150.408781,52.1958125 C151.01175,50.56425 150.408781,49.6704375 148.720469,49.6633437 C144.719594,49.6491562 140.711625,49.6633437 136.71075,49.6633437 C135.767281,49.6633437 135.753094,49.6704375 135.398406,50.6139062 L131.879906,59.956375 C131.759313,60.2755937 131.60325,60.5877188 131.468469,60.8998437 L125.758,60.8998437 C125.914062,60.4174687 126.034656,60.013125 126.183625,59.6229687 C127.056156,57.2678437 127.949969,54.9269062 128.8225,52.578875 C128.964375,52.21 129.10625,51.841125 129.163,51.4580625 C129.297781,50.535875 128.779938,49.8265 127.886125,49.684625 C127.581094,49.6420625 127.268969,49.6633437 126.963937,49.6633437 L114.308687,49.6633437 L110.045344,60.9424062 L68.4405,60.9424062 C66.3323908,60.8565206 64.3707657,62.017936 63.4323125,63.9075937 L53.5861875,81.6419687 C53.4443125,81.8973437 53.373375,82.1881875 53.203125,82.6067187 L131.37625,82.6067187 C135.4055,82.6350937 139.136813,83.6565937 142.456687,86.0471875 C144.960781,87.8631875 146.642,90.28925 147.408125,93.35375 C148.110406,96.1557812 147.94725,98.9649062 147.429406,101.766937 C146.556624,106.558593 144.953698,111.187939 142.676594,115.493344 C132.262969,135.192687 116.145969,145.67725 94.1837187,146.634906 C93.8645,146.649094 93.5452812,146.606531 93.1338437,146.578156 C93.3182812,146.046125 93.4459687,145.634687 93.5949375,145.237437 L108.193875,106.40625 C109.307594,103.441063 110.456781,100.482969 111.535031,97.4965 C112.357906,95.2406875 111.052656,93.2544375 108.704625,93.0770938 C108.477625,93.0629062 108.243531,93.0629062 108.016531,93.0629062 L84.812875,93.0629062 C84.472375,93.0629062 84.1389688,93.1125625 83.8552188,93.1338438 C82.7202188,95.311625 53.9905313,167.753 53.8983125,168.696469 C58.934875,169.271062 63.9927188,169.363281 69.1924375,169.498063 L66.34075,177.194781 C66.5748438,177.265719 66.68125,177.329562 66.7876563,177.329562 C71.2567188,177.329562 75.7186875,177.34375 80.1806563,177.329562 C81.1950625,177.329562 81.9257188,176.77625 82.401,175.889531 C82.6209063,175.478094 82.7627813,175.024094 82.9330313,174.584281 L85.1037188,168.838344 L91.1334063,168.249562 L87.7355,177.34375 Z" id="Shape"></path>
            </g>
        </g>
    </g>
</svg>