<svg version="1.1" id="Layer_1" xmlns="http://www.w3.org/2000/svg" xmlns:xlink="http://www.w3.org/1999/xlink" x="0px" y="0px"
	 width="226.777px" height="226.777px" viewBox="0 0 226.777 226.777" enable-background="new 0 0 226.777 226.777"
	 xml:space="preserve">
<g>
	<rect x="65.206" y="83.361" fill="#231F20" width="31.279" height="10.182"/>
	<path fill="#231F20" d="M143.203,129.912H70.3v37.099h72.806c10.1,0,18.96-8.457,18.96-18.665
		C162.065,138.483,153.779,129.912,143.203,129.912z"/>
	<path fill="#231F20" d="M113.33,0C50.739,0,0,50.741,0,113.331c0,62.592,50.739,113.331,113.33,113.331
		c62.59,0,113.33-50.739,113.33-113.331C226.66,50.741,175.92,0,113.33,0z M116.852,50.627h54.555v10.912H128.49v32.004h31.278
		V83.361h-21.822V72.449h33.461v32.006h-54.555V50.627z M54.815,51.219h34.169v13.114H54.815V51.219z M53.57,72.449h42.917V50.627
		h12.365v53.828H53.57V72.449z M144.863,180.83H55.025v-64.736h89.838c17.437,0,31.622,14.618,31.622,32.368
		S162.3,180.83,144.863,180.83z"/>
</g>
</svg>
