<svg version="1.1" id="Layer_1" xmlns="http://www.w3.org/2000/svg" xmlns:xlink="http://www.w3.org/1999/xlink" x="0px" y="0px"
	 width="226.777px" height="226.777px" viewBox="0 0 226.777 226.777" enable-background="new 0 0 226.777 226.777"
	 xml:space="preserve">
<g>
	<rect x="65.241" y="83.402" fill="#231F20" width="31.294" height="10.19"/>
	<path fill="#231F20" d="M113.388,0C50.766,0,0,50.766,0,113.388c0,62.624,50.766,113.389,113.388,113.389
		c62.624,0,113.389-50.765,113.389-113.389C226.777,50.766,176.011,0,113.388,0z M116.914,50.653h54.58V61.57h-42.938v32.021h31.295
		v-10.19h-21.834V72.487h33.477v32.021h-54.58V50.653z M54.844,51.243H89.03v13.122H54.844V51.243z M53.598,72.487h42.938V50.653
		h12.372v53.854h-55.31V72.487z M173.008,180.788h-24.754l-34.785-23.887l-34.784,23.887H53.93l47.162-32.387L53.93,116.016h24.754
		l34.784,23.885l34.785-23.885h24.754l-47.162,32.385L173.008,180.788z"/>
</g>
</svg>
