<svg version="1.1" id="Layer_1" xmlns="http://www.w3.org/2000/svg" xmlns:xlink="http://www.w3.org/1999/xlink" x="0px" y="0px"
	 width="226.777px" height="226.777px" viewBox="0 0 226.777 226.777" enable-background="new 0 0 226.777 226.777"
	 xml:space="preserve">
<g>
	<path fill="#231F20" d="M43.633,85.44L1.734,93.536C0.594,99.981,0,106.615,0,113.386c0,7.086,0.656,14.021,1.899,20.749
		l41.735,7.29L43.633,85.44z"/>
	<polygon fill="#231F20" points="113.385,104.029 139.592,52.062 87.177,52.062 	"/>
	<polygon fill="#231F20" points="52.06,87.178 52.06,139.594 104.029,113.386 	"/>
	<polygon fill="#231F20" points="171.824,79.196 147.574,54.945 122.904,103.867 	"/>
	<polygon fill="#231F20" points="72.835,49.389 33.749,33.76 49.319,72.903 	"/>
	<polygon fill="#231F20" points="193.011,33.749 153.868,49.322 177.383,72.837 	"/>
	<polygon fill="#231F20" points="174.709,139.594 174.709,87.178 122.743,113.386 	"/>
	<polygon fill="#231F20" points="193.022,193.011 177.449,153.868 153.933,177.384 	"/>
	<path fill="#231F20" d="M149.588,41.955l37.348-14.858c-12.777-10.901-28.002-19.015-44.738-23.399L149.588,41.955z"/>
	<path fill="#231F20" d="M226.771,113.386c0-7.087-0.656-14.021-1.899-20.749l-41.734-7.29v55.983l41.899-8.096
		C226.177,126.789,226.771,120.157,226.771,113.386z"/>
	<path fill="#231F20" d="M184.763,77.079l38.081,6.651c-4.436-16.413-12.46-31.347-23.184-43.912L184.763,77.079z"/>
	<polygon fill="#231F20" points="72.901,177.45 49.386,153.936 33.759,193.022 	"/>
	<path fill="#231F20" d="M184.816,149.588l14.858,37.348c10.901-12.775,19.014-28.001,23.399-44.737L184.816,149.588z"/>
	<path fill="#231F20" d="M186.953,199.661l-37.26-14.897l-6.652,38.082C159.452,218.41,174.388,210.386,186.953,199.661z"/>
	<polygon fill="#231F20" points="171.825,147.575 122.904,122.904 147.574,171.824 	"/>
	<path fill="#231F20" d="M85.347,43.635h55.984l-8.096-41.901C126.79,0.595,120.157,0,113.385,0c-7.089,0-14.022,0.656-20.749,1.902
		L85.347,43.635z"/>
	<path fill="#231F20" d="M141.423,183.138H85.44l8.096,41.898c6.445,1.14,13.078,1.734,19.85,1.734
		c7.087,0,14.02-0.656,20.749-1.899L141.423,183.138z"/>
	<polygon fill="#231F20" points="113.385,122.743 87.178,174.709 139.592,174.709 	"/>
	<path fill="#231F20" d="M39.819,27.113l37.258,14.896L83.73,3.927C67.317,8.364,52.383,16.387,39.819,27.113z"/>
	<polygon fill="#231F20" points="54.947,79.198 103.866,103.867 79.197,54.949 	"/>
	<path fill="#231F20" d="M41.955,77.184L27.096,39.836C16.196,52.612,8.082,67.838,3.697,84.573L41.955,77.184z"/>
	<polygon fill="#231F20" points="54.946,147.577 79.195,171.827 103.866,122.904 	"/>
	<path fill="#231F20" d="M77.181,184.816l-37.346,14.858c12.775,10.901,28.002,19.014,44.738,23.399L77.181,184.816z"/>
	<path fill="#231F20" d="M42.008,149.692l-38.081-6.651c4.435,16.411,12.46,31.348,23.184,43.912L42.008,149.692z"/>
</g>
</svg>
