<svg version="1.1" id="Layer_1" xmlns="http://www.w3.org/2000/svg" xmlns:xlink="http://www.w3.org/1999/xlink" x="0px" y="0px"
	 width="226.777px" height="226.777px" viewBox="0 0 226.777 226.777" enable-background="new 0 0 226.777 226.777"
	 xml:space="preserve">
<path fill="#231F20" d="M113.369,0C50.757,0,0,50.757,0,113.369c0,62.612,50.757,113.369,113.369,113.369
	c62.611,0,113.369-50.757,113.369-113.369C226.738,50.757,175.98,0,113.369,0z M180.24,95.253l-23.266-4.063l9.102-22.763
	C172.628,76.103,177.53,85.226,180.24,95.253z M152.467,88.599l-14.365-14.366l23.913-9.513L152.467,88.599z M113.37,107.654
	L97.359,75.907h32.021L113.37,107.654z M134.257,77.668l14.814,14.815l-29.886,15.072L134.257,77.668z M107.555,107.555
	L77.669,92.484L92.484,77.67L107.555,107.555z M107.654,113.37l-31.748,16.011V97.359L107.654,113.37z M107.555,119.185
	l-15.073,29.887l-14.813-14.814L107.555,119.185z M113.37,119.087l16.01,31.746H97.359L113.37,119.087z M119.185,119.185
	l29.886,15.071l-14.814,14.813L119.185,119.185z M119.087,113.37l31.746-16.011v32.021L119.087,113.37z M158.302,60.656
	l-22.816,9.077l-4.515-23.373C141.195,49.039,150.497,53.995,158.302,60.656z M100.694,45.263c4.11-0.761,8.345-1.162,12.676-1.162
	c4.137,0,8.188,0.365,12.127,1.059l4.945,25.598H96.241L100.694,45.263z M95.253,46.501l-4.064,23.264l-22.762-9.1
	C76.103,54.113,85.226,49.21,95.253,46.501z M88.598,74.273L74.232,88.638l-9.512-23.912L88.598,74.273z M60.656,68.437
	l9.077,22.816l-23.372,4.514C49.039,85.544,53.996,76.243,60.656,68.437z M44.101,113.37c0-4.137,0.365-8.189,1.06-12.125
	l25.597-4.946v34.2l-25.496-4.452C44.502,121.935,44.101,117.7,44.101,113.37z M46.5,131.486l23.265,4.064l-9.1,22.763
	C54.113,150.636,49.21,141.512,46.5,131.486z M74.273,138.142l14.365,14.365l-23.913,9.513L74.273,138.142z M68.437,166.085
	l22.815-9.077l4.516,23.372C85.544,177.701,76.242,172.745,68.437,166.085z M126.046,181.478c-4.111,0.759-8.346,1.16-12.676,1.16
	c-4.138,0-8.188-0.364-12.127-1.059l-4.945-25.598h34.2L126.046,181.478z M131.486,180.24l4.064-23.266l22.763,9.102
	C150.636,172.628,141.512,177.53,131.486,180.24z M138.141,152.467l14.364-14.365l9.515,23.913L138.141,152.467z M166.085,158.302
	l-9.077-22.816l23.371-4.515C177.701,141.196,172.744,150.497,166.085,158.302z M181.579,125.496l-25.597,4.946v-34.2l25.496,4.452
	c0.759,4.111,1.16,8.346,1.16,12.676C182.638,117.507,182.274,121.558,181.579,125.496z"/>
</svg>
