<svg width="227" height="227" viewBox="0 0 227 227" xmlns="http://www.w3.org/2000/svg"><title>dnt</title><path d="M113.5 227C50.816 227 0 176.184 0 113.5S50.816 0 113.5 0 227 50.816 227 113.5 176.184 227 113.5 227zm64.378-91.511c-5.868-.328-2.608-9.663-5.216-20.309-3.097-11.792 1.467-19.98 7.498-19.653a17.772 17.772 0 0 1 7.824 3.275 48.372 48.372 0 0 0-5.542-14.576c-5.38-9.008-17.116-22.11-31.786-32.428v98.758c.004 4.672-3.22 8.721-7.756 9.743-4.538 1.022-9.173-1.258-11.153-5.484-16.093 10.02-37.04 6.866-49.5-7.456-12.461-14.321-12.774-35.6-.738-50.284 12.035-14.685 32.88-18.458 49.26-8.918V49.833a9.665 9.665 0 0 1 3.586-7.698c-19.072-8.844-40.426-10.646-58.683 5.568-30.645 27.351-45.968 65.512-30.645 103.508.326.82.652 1.638.978 2.293a8.63 8.63 0 0 1 1.793-2.456c7.987-8.19 16.79 8.516 35.536 18.18 11.9 6.059 18.745 14.084 21.354 21.618 17.441 2.129 35.372-.655 49.717-9.008 18.746-10.81 29.667-30.463 33.58-50.444a16.585 16.585 0 0 1-10.107 4.095zm-73.516.655c9.454 5.404 20.864 3.275 22.984-8.844 1.14-7.043.489-18.016-5.706-21.455-20.539-11.792-37.817 18.507-17.278 30.299zm9.617-78.286c4.401-.164 8.476 5.077 8.64 7.534.162 2.456-3.75 1.474-7.988 2.948-4.727 1.637-8.15.163-8.313-2.293-.163-2.457 3.097-8.026 7.661-8.19z"/></svg>