<svg width="227" height="227" viewBox="0 0 227 227" xmlns="http://www.w3.org/2000/svg"><title>dnt</title><path d="M205.997 145.952c-8.536-.476-3.793-14.055-7.587-29.54-4.505-17.151 2.134-29.063 10.907-28.586a25.85 25.85 0 0 1 11.38 4.764 70.359 70.359 0 0 0-8.061-21.202c-7.824-13.102-24.896-32.16-46.235-47.168v143.65c.007 6.795-4.682 12.685-11.281 14.171-6.6 1.486-13.342-1.83-16.223-7.977-23.407 14.576-53.875 9.987-72-10.844s-18.58-51.783-1.073-73.142c17.505-21.359 47.826-26.848 71.65-12.971V21.362a14.058 14.058 0 0 1 5.217-11.197C114.95-2.699 83.89-5.319 57.334 18.265 12.76 58.048-9.528 113.554 12.76 168.822c.474 1.19.949 2.382 1.423 3.335a12.551 12.551 0 0 1 2.608-3.573c11.618-11.912 24.421 12.387 51.688 26.442 17.309 8.815 27.267 20.487 31.06 31.446 25.37 3.097 51.452-.953 72.316-13.103 27.267-15.722 43.153-44.309 48.843-73.372a24.123 24.123 0 0 1-14.7 5.955zm-106.933.953c13.752 7.862 30.35 4.765 33.432-12.864 1.66-10.243.71-26.204-8.299-31.207-29.875-17.152-55.008 26.92-25.133 44.071zm13.99-113.87c6.401-.239 12.329 7.384 12.566 10.958.237 3.573-5.454 2.144-11.618 4.288-6.876 2.382-11.855.238-12.093-3.335-.237-3.574 4.505-11.673 11.144-11.911z"/></svg>