<svg version="1.1" id="Layer_1" xmlns="http://www.w3.org/2000/svg" xmlns:xlink="http://www.w3.org/1999/xlink" x="0px" y="0px"
	 width="226.777px" height="226.777px" viewBox="0 0 226.777 226.777" enable-background="new 0 0 226.777 226.777"
	 xml:space="preserve">
<g>
	<path fill="#231F20" d="M129.318,84.487c-8.802,0-15.894,0-15.894,0v60.051c0,0,10.882,0,16.228,0
		c5.348,0,12.479-3.788,12.479-11.363c0-7.577,0-33.203,0-38.329C142.132,89.721,138.12,84.487,129.318,84.487z"/>
	<path fill="#231F20" d="M113.3,0C50.726,0,0,50.726,0,113.3c0,62.573,50.726,113.3,113.3,113.3c62.573,0,113.3-50.727,113.3-113.3
		C226.599,50.726,175.873,0,113.3,0z M171.212,136.703c0,26.889-30.898,35.059-40.109,35.059s-46.797,0-46.797,0V80.696
		l-6.202,17.827H55.636l10.844-40.851c0,0,35.207,0,57.045,0c29.304,0,47.686,13.22,47.686,36.544
		C171.212,120.658,171.212,109.814,171.212,136.703z"/>
</g>
</svg>
