<svg version="1.1" id="Layer_1" xmlns="http://www.w3.org/2000/svg" xmlns:xlink="http://www.w3.org/1999/xlink" x="0px" y="0px"
	 width="226.777px" height="226.777px" viewBox="0 0 226.777 226.777" enable-background="new 0 0 226.777 226.777"
	 xml:space="preserve">
<path id="DOGE_alt_1_" d="M99.24-0.054c-15.421,0-65.182,0-65.182,0v100.975H7.287v24.732h26.772v100.975h75.95
	c0,0,106.792,8.947,106.792-111.45C216.801-3.256,114.663-0.054,99.24-0.054z M108.262,184.725c-8.074,0-31.428,0-31.428,0v-59.071
	h47.141v-24.732H76.834V41.849c0,0,18.768,0,29.972,0c11.204,0,67.582,4.509,67.668,74.148
	C174.562,185.635,116.335,184.725,108.262,184.725z"/>
</svg>
