<svg version="1.1" id="Layer_1" xmlns="http://www.w3.org/2000/svg" xmlns:xlink="http://www.w3.org/1999/xlink" x="0px" y="0px"
	 width="226.777px" height="226.777px" viewBox="0 0 226.777 226.777" enable-background="new 0 0 226.777 226.777"
	 xml:space="preserve">
<path fill="#231F20" d="M133.175,1.416c-42.865,0-111.972,0-111.972,0L-0.084,81.604h44.102l12.176-34.99V225.36
	c0,0,73.773,0,91.854,0c18.079,0,78.729-16.036,78.729-68.816c0-52.779,0-31.492,0-83.396
	C226.777,27.366,190.691,1.416,133.175,1.416z M169.696,149.619c0,14.872-13.996,22.307-24.493,22.307c-10.498,0-31.857,0-31.857,0
	V54.048c0,0,13.924,0,31.201,0c17.276,0,25.149,10.278,25.149,20.338S169.696,134.747,169.696,149.619z"/>
</svg>
