<svg version="1.1" id="Layer_1" xmlns="http://www.w3.org/2000/svg" xmlns:xlink="http://www.w3.org/1999/xlink" x="0px" y="0px"
	 width="226.777px" height="226.777px" viewBox="0 0 226.777 226.777" enable-background="new 0 0 226.777 226.777"
	 xml:space="preserve">
<path id="DRK_alt_2_" d="M34.505,49.976c0,0,127.277,0,144.009,0c16.734,0,30.595,2.874,39.216,12.507
	c8.621,9.635,8.958,21.297,8.958,27.383s0,40.904,0,46.481c0,5.58-1.858,21.299-13.014,29.916
	c-11.155,8.621-25.861,8.284-30.425,8.284c-4.564,0-111.728,0-111.728,0L0.025,84.796h44.454l44.96,58.649c0,0,77.247,0,82.147,0
	c4.903,0,8.366-1.771,10.987-3.8c2.619-2.03,6.168-6.338,6.168-11.578s0-28.311,0-32.115c0-3.804-2.113-8.705-4.479-10.649
	c-2.367-1.943-6.255-4.902-12.085-4.902c-5.832,0-75.554,0-75.554,0v50.116L34.505,49.976z"/>
</svg>
