<svg version="1.1" id="Layer_1" xmlns="http://www.w3.org/2000/svg" xmlns:xlink="http://www.w3.org/1999/xlink" x="0px" y="0px"
	 width="226.777px" height="226.777px" viewBox="0 0 226.777 226.777" enable-background="new 0 0 226.777 226.777"
	 xml:space="preserve">
<path id="DRK_2_" d="M113.658,0.538c-62.474,0-113.119,50.646-113.119,113.12s50.645,113.12,113.119,113.12
	c62.475,0,113.12-50.646,113.12-113.12S176.133,0.538,113.658,0.538z M191.028,130.554c0,3.912-1.305,14.94-9.132,20.987
	c-7.824,6.047-18.141,5.81-21.343,5.81s-78.375,0-78.375,0L32.02,94.388h31.184l31.542,41.146c0,0,54.189,0,57.626,0
	c3.439,0,5.87-1.242,7.707-2.667c1.838-1.423,4.329-4.447,4.329-8.123c0-3.675,0-19.859,0-22.528c0-2.67-1.484-6.106-3.144-7.471
	c-1.659-1.363-4.388-3.438-8.479-3.438c-4.089,0-53,0-53,0v35.156l-43.578-56.5c0,0,89.287,0,101.025,0s21.462,2.015,27.51,8.775
	c6.046,6.758,6.285,14.94,6.285,19.209C191.028,102.214,191.028,126.64,191.028,130.554z"/>
</svg>
