<svg width="227" height="227" viewBox="0 0 227 227" xmlns="http://www.w3.org/2000/svg"><title>ebst</title><path d="M70.425 117.57H50.532l-22.157 17.72H74.64c8.593 20.528 28.96 34.96 52.72 34.96 31.523 0 57.078-25.408 57.078-56.75s-25.555-56.75-57.079-56.75c-23.943 0-44.442 14.657-52.917 35.439H28.375l22.157 17.72h19.861a57.287 57.287 0 0 0 .032 7.662zM113.5 227C50.816 227 0 176.184 0 113.5S50.816 0 113.5 0 227 50.816 227 113.5 176.184 227 113.5 227zm46.372-112.446v2.172c0 .724-.045 1.448-.137 2.172h-49.921c.182 2.353.797 4.502 1.846 6.448a16.44 16.44 0 0 0 4.172 5.023c1.732 1.403 3.692 2.511 5.88 3.326a19.447 19.447 0 0 0 6.84 1.222c4.103 0 7.567-.747 10.394-2.24a19.422 19.422 0 0 0 6.975-6.177l10.942 8.688c-6.474 8.688-15.865 13.032-28.175 13.032-5.106 0-9.802-.791-14.087-2.375-4.286-1.584-8.001-3.824-11.147-6.72-3.146-2.896-5.608-6.448-7.386-10.656-1.778-4.209-2.667-8.983-2.667-14.322 0-5.25.889-10.023 2.667-14.322 1.778-4.299 4.217-7.964 7.317-10.996 3.1-3.032 6.77-5.385 11.01-7.06 4.24-1.673 8.822-2.51 13.746-2.51 4.56 0 8.776.746 12.651 2.24 3.876 1.493 7.227 3.71 10.053 6.651 2.827 2.942 5.038 6.607 6.634 10.996 1.595 4.39 2.393 9.525 2.393 15.408zm-16.413-7.33c0-2.082-.296-4.073-.889-5.974a13.642 13.642 0 0 0-2.803-5.023c-1.277-1.448-2.895-2.601-4.856-3.461-1.96-.86-4.262-1.29-6.907-1.29-4.924 0-9.095 1.47-12.514 4.412-3.42 2.941-5.312 6.72-5.676 11.335h33.645z"/></svg>