<svg width="228" height="227" viewBox="0 0 228 227" xmlns="http://www.w3.org/2000/svg"><title>ebst</title><path d="M61.539 118.216H32.603L.375 143.99h67.294c12.499 29.859 42.125 50.85 76.683 50.85 45.852 0 83.023-36.956 83.023-82.545 0-45.588-37.17-82.545-83.023-82.545-34.826 0-64.644 21.32-76.97 51.547H.374l32.228 25.774h28.89a83.326 83.326 0 0 0 .046 11.145zm130.105-4.388v3.16a25.26 25.26 0 0 1-.2 3.16h-72.613c.265 3.422 1.16 6.548 2.686 9.378a23.914 23.914 0 0 0 6.068 7.306c2.52 2.04 5.371 3.653 8.554 4.838a28.286 28.286 0 0 0 9.947 1.777c5.968 0 11.008-1.086 15.12-3.258a28.25 28.25 0 0 0 10.146-8.984l15.915 12.637c-9.417 12.637-23.077 18.956-40.982 18.956-7.427 0-14.257-1.152-20.49-3.456-6.234-2.303-11.639-5.561-16.215-9.774-4.575-4.212-8.156-9.379-10.742-15.5-2.587-6.121-3.88-13.065-3.88-20.832 0-7.635 1.293-14.579 3.88-20.832 2.586-6.252 6.134-11.584 10.643-15.994 4.51-4.41 9.848-7.832 16.015-10.267 6.167-2.436 12.831-3.653 19.993-3.653 6.632 0 12.766 1.086 18.402 3.258 5.637 2.172 10.511 5.397 14.622 9.675 4.112 4.278 7.328 9.61 9.65 15.994 2.32 6.385 3.48 13.855 3.48 22.411zm-23.873-10.662c0-3.028-.431-5.924-1.293-8.688-.863-2.765-2.222-5.2-4.079-7.306-1.857-2.106-4.21-3.785-7.062-5.035-2.852-1.251-6.2-1.876-10.047-1.876-7.162 0-13.23 2.139-18.203 6.417-4.973 4.278-7.725 9.774-8.256 16.488h48.94z"/></svg>