<svg width="227" height="227" viewBox="0 0 227 227" xmlns="http://www.w3.org/2000/svg"><title>edg</title><path d="M113.5 227C50.813 227 0 176.187 0 113.5S50.813 0 113.5 0 227 50.813 227 113.5 176.187 227 113.5 227zm63.773-138.314c0-2.823-.667-5.64-1.823-8.193-1.83-4.05-4.647-7.839-8.484-10.116-14.4-8.456-28.815-16.84-43.208-25.29-1.646-.964-3.505-1.503-5.328-2.014a25.282 25.282 0 0 0-12.3.695c-2.363.81-4.427 2.285-6.598 3.49-13.237 7.733-26.46 15.465-39.69 23.169a17.522 17.522 0 0 0-4.532 4c-3.121 3.76-5.32 8.456-5.59 13.422v50.976c0 3.412 1.135 6.69 2.696 9.668 1.915 3.434 4.511 6.626 7.987 8.563 14.23 8.3 28.468 16.62 42.705 24.913 2.092 1.206 4.42 1.908 6.81 2.227 4.582.568 9.463.192 13.591-2.014 13.521-7.889 27.006-15.784 40.534-23.65 1.986-1.186 4.079-2.228 5.753-3.832a24.615 24.615 0 0 0 7.108-12.492c.475-2.057.369-4.206.369-6.306V88.686zm-64.199-17.564c.457.154.824.498 1.008.943 2.568 4.782 6.171 8.91 9.938 12.776 2.44 2.39 4.242 5.505 4.852 8.91.802 3.788-1.426 7.98-5.008 9.35-2.625 1.021-5.675.83-8.193-.405-.476-.163-1.277-.723-1.56-.057.474 3.278 2.148 6.144 3.66 8.988.368.617-.341 1.05-.689 1.447-1.56 1.448-2.887 3.171-4.582 4.484-.504-.164-.851-.646-1.22-.994-1.455-1.532-2.994-3.007-4.448-4.568-.028-.106-.057-.376-.078-.482 1.617-2.902 3.66-5.746 4.185-9.102a2.788 2.788 0 0 0-1.54.213c-2.674 1.05-5.73 1.291-8.427.213a7.98 7.98 0 0 1-5.015-6.42c-.27-2.12.369-4.235 1.32-6.1 1.184-2.625 3.178-4.746 5.249-6.711a75.733 75.733 0 0 0 10.548-12.485zm-25.771 46.18a14.918 14.918 0 0 1 13.47-.922c.341.142.426.213.689.383 1.376.54 2.568 1.419 3.682 2.412 2.518 2.178 4.554 4.86 7.129 6.98 2.497-2.362 4.795-4.944 7.32-7.242 3.547-3.278 8.747-4.243 13.351-3.306 7.214 1.419 12.57 8.881 12.06 16.273-.235 4.668-2.561 9.286-6.385 11.946-2.596 1.802-5.675 3.086-8.86 3.008-4.185.163-8.293-1.717-11.258-4.647-5.597-5.604-10.995-11.407-16.62-16.997-1.646-1.773-3.874-3.064-6.314-3.22a10.329 10.329 0 0 0-5.03 1.135c-2.411 1.284-4.029 3.859-4.426 6.576-.497 2.873.532 5.98 2.674 7.945 3.313 3.2 9.123 3.17 12.35-.107.823-.695 1.59-2.092 2.866-1.532.795.483 1.348 1.291 2.043 1.916.532.61 1.348 1.12 1.426 2.035 0 .923-.815 1.448-1.376 2.043-1.49 1.561-3.206 2.873-5.22 3.682-3.902 1.532-8.4 1.56-12.273-.106-6.13-2.767-10.073-9.832-9.094-16.6.695-4.81 3.532-9.342 7.803-11.655h-.007zm35.731 7.463c-1.958 2.043-3.973 4-5.937 6.044.028.135.056.425.078.589 2.362 2.199 4.426 4.696 6.888 6.788 3.312 2.824 8.59 2.448 11.662-.539 3-2.922 3.688-8.023 1.348-11.563a8.598 8.598 0 0 0-7.023-4.008c-2.582-.212-5.179.859-7.016 2.696v-.007z"/></svg>