<svg width="227" height="227" viewBox="0 0 227 227" xmlns="http://www.w3.org/2000/svg"><title>Shape</title><path d="M216.174 73.739c0-4.52-1.067-9.028-2.918-13.116-2.93-6.483-7.437-12.547-13.58-16.192-23.051-13.535-46.124-26.957-69.164-40.48-2.634-1.545-5.61-2.408-8.527-3.225a40.47 40.47 0 0 0-19.69 1.113c-3.781 1.294-7.085 3.656-10.56 5.586C70.546 19.802 49.38 32.18 28.204 44.511a28.047 28.047 0 0 0-7.256 6.404C15.952 56.933 12.43 64.45 12 72.399v81.597c0 5.461 1.817 10.708 4.315 15.477 3.066 5.495 7.222 10.605 12.786 13.705 22.778 13.285 45.567 26.605 68.357 39.879 3.35 1.93 7.074 3.054 10.9 3.565 7.336.909 15.148.307 21.757-3.224 21.642-12.627 43.228-25.265 64.882-37.858 3.18-1.896 6.53-3.566 9.21-6.132a39.402 39.402 0 0 0 11.377-19.996c.76-3.293.59-6.733.59-10.095V73.74zM113.412 45.624c.73.246 1.318.797 1.612 1.51 4.11 7.653 9.879 14.262 15.908 20.45 3.907 3.827 6.79 8.812 7.767 14.262 1.283 6.064-2.282 12.774-8.016 14.966-4.202 1.635-9.084 1.328-13.115-.647-.761-.262-2.044-1.159-2.499-.091.761 5.246 3.441 9.833 5.86 14.387.59.988-.545 1.68-1.102 2.316-2.498 2.316-4.621 5.076-7.335 7.176-.806-.26-1.363-1.033-1.953-1.59-2.328-2.452-4.792-4.814-7.12-7.312-.045-.17-.09-.602-.125-.772 2.59-4.644 5.86-9.198 6.7-14.569a4.463 4.463 0 0 0-2.464.341c-4.281 1.68-9.175 2.067-13.49.34a12.774 12.774 0 0 1-8.028-10.276c-.432-3.395.59-6.778 2.112-9.765 1.896-4.201 5.087-7.596 8.403-10.742a121.226 121.226 0 0 0 16.885-19.984zm-41.253 73.92a23.88 23.88 0 0 1 21.563-1.476c.545.228.681.341 1.101.614 2.203.863 4.111 2.27 5.894 3.86 4.03 3.486 7.29 7.779 11.411 11.174 3.997-3.782 7.676-7.915 11.719-11.594 5.677-5.246 14-6.79 21.37-5.291 11.548 2.27 20.121 14.216 19.303 26.048-.374 7.472-4.099 14.864-10.219 19.122-4.156 2.884-9.084 4.94-14.182 4.815-6.7.26-13.274-2.748-18.02-7.438-8.96-8.97-17.601-18.259-26.606-27.207-2.634-2.838-6.2-4.905-10.106-5.155a16.533 16.533 0 0 0-8.05 1.817c-3.861 2.055-6.45 6.177-7.086 10.526-.795 4.599.852 9.572 4.281 12.718 5.303 5.12 14.603 5.075 19.77-.17 1.316-1.113 2.543-3.35 4.587-2.453 1.271.772 2.157 2.066 3.27 3.066.851.976 2.157 1.794 2.282 3.258 0 1.477-1.306 2.317-2.203 3.27-2.384 2.499-5.132 4.6-8.357 5.894-6.245 2.453-13.444 2.498-19.644-.17-9.81-4.429-16.124-15.738-14.557-26.571 1.112-7.699 5.654-14.955 12.49-18.656h-.011zm57.195 11.946c-3.134 3.27-6.359 6.404-9.504 9.675.045.215.09.68.125.942 3.781 3.52 7.085 7.517 11.026 10.867 5.302 4.52 13.75 3.917 18.667-.863 4.803-4.678 5.905-12.843 2.158-18.509a13.762 13.762 0 0 0-11.242-6.415c-4.133-.341-8.289 1.374-11.23 4.314v-.01z"/></svg>