<svg version="1.1" id="Layer_1" xmlns="http://www.w3.org/2000/svg" xmlns:xlink="http://www.w3.org/1999/xlink" x="0px" y="0px"
	 width="226.777px" height="226.777px" viewBox="0 0 226.777 226.777" enable-background="new 0 0 226.777 226.777"
	 xml:space="preserve">
<g>
	<path fill="#231F20" d="M82.959,61.139L52.558,113.41l30.401,52.273h60.406l30.803-52.418l-31.318-52.126H82.959z M141.733,141.33
		H84.666v-12.407h44.658V96.675h-10.248v22.941h-34.41v-12.411h21.999v-10.53H84.666V84.264h57.067V141.33z"/>
	<path fill="#231F20" d="M113.411,0C50.776,0,0,50.776,0,113.41c0,62.635,50.776,113.411,113.411,113.411
		c62.635,0,113.41-50.775,113.41-113.411C226.821,50.776,176.046,0,113.411,0z M151.757,180.348H74.525L35.592,113.41l38.934-66.938
		h76.621l40.084,66.709L151.757,180.348z"/>
</g>
</svg>
