<svg width="227" height="227" viewBox="0 0 227 227" xmlns="http://www.w3.org/2000/svg"><title>eng</title><path d="M113.5 227C50.813 227 0 176.187 0 113.5S50.813 0 113.5 0 227 50.813 227 113.5 176.187 227 113.5 227zm64.9-153.97a12.627 12.627 0 0 1-.453-.27l-.014-.007-.015-.007L159 61.736l-12.024-7-12.314-7.165c-6.598-3.83-13.408-7.803-20.125-11.698l-.681-.404-.731.283c-.65.245-1.278.542-1.88.887l-.07.043L83.01 53.388l-12.329 7.306c-7.441 4.412-15.138 8.974-22.657 13.464-1.845.887-1.795 2.852-1.774 3.802l.007.227v.426c-.028 17.252-.05 35.093-.092 52.657l-.057 19.522c-.099 1.447.568 2.717 1.689 3.263 13.421 7.718 27.041 15.578 40.207 23.175l23.707 13.677a3.696 3.696 0 0 0 1.937.624 2.483 2.483 0 0 0 1.518-.51l34.37-20.062 12.91-7.533c5.349-3.129 10.889-6.37 16.315-9.527a3.384 3.384 0 0 0 2-3.348l.107-73.896c.185-2.199-1.667-3.192-2.475-3.618l.007-.007zm-62.204 111.16l.042-31.518 11.662-6.775c3.228-1.887 6.527-3.802 9.719-5.654l8.824-5.135.007-.008.185-.12c.51-.278.956-.663 1.305-1.128l.32-.44v-.539c-.057-6.739-.072-14.23-.05-23.587l.007-4.341v-8.257l27.31-15.975-.042 27.417-.064 41.491a34871.783 34871.783 0 0 0-38.214 22.296l-21.011 12.272zM86.43 95.126l27.113-15.918 26.835 15.833-26.793 15.663-9.25-5.313c-5.964-3.43-11.932-6.85-17.905-10.265zm-2.766 4.611l27.275 15.642-.042 31.07-26.73-15.577-.503-31.135zM51.6 81.337l26.672 15.322.582 35.171c-.07 1.384.61 2.646 1.71 3.164 3.795 2.22 7.661 4.47 11.4 6.64l7.292 4.249 11.633 6.774-.02 31.568-59.404-34.263.135-68.625zm121.26-5.292l-27.169 15.876-30.325-17.884a3.178 3.178 0 0 0-3.547-.07L81.082 92.006l-26.815-15.35L72.895 65.61a21147.08 21147.08 0 0 1 40.69-24.097 11954.655 11954.655 0 0 0 37.342 21.75c3.83 2.24 7.732 4.51 11.506 6.703l10.42 6.072.007.007zm-56.622 70.42l.021-31.085 26.879-15.706v31.156a13772.775 13772.775 0 0 0-26.9 15.635zm36.37-5.626a3.029 3.029 0 0 0 2.114-1.83 3.334 3.334 0 0 0-.554-3.575l-.007-.014a3.164 3.164 0 0 0-2.34-1.086 3.185 3.185 0 0 0-3.1 2.668 3.313 3.313 0 0 0 1.035 3.128 2.795 2.795 0 0 0 2.029.83c.279.001.556-.04.823-.12zm14.641 9.988a2.887 2.887 0 0 0 3.122.454 3.228 3.228 0 0 0 1.957-2.582 3.263 3.263 0 0 0-1.432-3.242 3.022 3.022 0 0 0-1.724-.546 2.88 2.88 0 0 0-1.568.468 3.327 3.327 0 0 0-1.575 2.696 3.192 3.192 0 0 0 1.22 2.752zM73.69 134.37a3.249 3.249 0 0 0-3.12 2.617 3.235 3.235 0 0 0 3.036 3.952c.24 0 .496-.036.723-.093 1-.216 1.832-.907 2.228-1.851a3.263 3.263 0 0 0-.546-3.519 3.029 3.029 0 0 0-2.32-1.106zm84.814 11.18a3.135 3.135 0 0 0 3.071.496 3.107 3.107 0 0 0 2-2.355 3.228 3.228 0 0 0-.985-3.185 3.093 3.093 0 0 0-2.128-.858 3.263 3.263 0 0 0-3.107 2.766 3.334 3.334 0 0 0 1.149 3.136zm-91.545-5.13a2.98 2.98 0 0 0-1.986-.78 2.795 2.795 0 0 0-1.093.227 3.178 3.178 0 0 0-2.05 2.774c-.113 1.312.497 2.554 1.54 3.164.471.298 1.016.46 1.574.468a3.235 3.235 0 0 0 1.348-.312h.007a3.093 3.093 0 0 0 1.802-2.37 3.299 3.299 0 0 0-1.142-3.17zm46.18-96.673a3.008 3.008 0 0 0-.525.05 3.235 3.235 0 0 0-2.497 1.837v.014a3.192 3.192 0 0 0 .185 3.136 3.27 3.27 0 0 0 3.376 1.44h.015l.02-.007a3.107 3.107 0 0 0 2.597-2.39 3.127 3.127 0 0 0-.759-2.98 3.235 3.235 0 0 0-2.412-1.1zM57.814 145.351a2.965 2.965 0 0 0-3.064 0 3.299 3.299 0 0 0-1.64 2.908c0 1.235.654 2.363 1.675 2.895.426.248.922.383 1.447.383a3.213 3.213 0 0 0 1.731-.525 3.22 3.22 0 0 0 1.497-2.894 3.164 3.164 0 0 0-1.646-2.767zm57.034-80.053a3.405 3.405 0 0 0-1.837-.546 3.192 3.192 0 0 0-1.604.425 3.121 3.121 0 0 0-1.653 2.59 3.15 3.15 0 0 0 1.263 2.83 3.2 3.2 0 0 0 2.015.681c.485-.005.963-.11 1.404-.312h.007a3.143 3.143 0 0 0 1.93-2.696 3.249 3.249 0 0 0-1.525-2.98v.008zm-4.044-5.377a3.148 3.148 0 0 0 2.2.865 3.45 3.45 0 0 0 1.418-.312 3.185 3.185 0 0 0 1.951-2.908 3.185 3.185 0 0 0-1.674-2.902 3.462 3.462 0 0 0-1.66-.425 3.093 3.093 0 0 0-1.731.51 3.277 3.277 0 0 0-1.546 2.498v.02a3.135 3.135 0 0 0 1.05 2.654h-.008z"/></svg>