<svg width="197" height="228" viewBox="0 0 197 228" xmlns="http://www.w3.org/2000/svg"><title>eng</title><path d="M192.538 55.104a18.367 18.367 0 0 1-.66-.393l-.021-.01-.021-.01-27.519-16.014-17.489-10.184-17.912-10.421C119.32 12.5 109.414 6.722 99.643 1.057l-.99-.588L97.59.88c-.945.357-1.86.788-2.735 1.29l-.103.062-40.963 24.3L35.856 37.16C25.032 43.578 13.837 50.213 2.9 56.744.217 58.034.29 60.892.32 62.274l.01.33v.62C.29 88.318.258 114.268.196 139.816L.114 168.21c-.145 2.105.825 3.952 2.456 4.747a43995.712 43995.712 0 0 1 58.483 33.71l34.483 19.893a5.38 5.38 0 0 0 2.817.908 3.611 3.611 0 0 0 2.208-.743l49.992-29.18 18.779-10.958c7.78-4.55 15.838-9.266 23.732-13.857a4.922 4.922 0 0 0 2.91-4.87l.154-107.485c.269-3.199-2.424-4.643-3.6-5.262l.01-.01zm-90.48 161.685l.061-45.843 16.963-9.854c4.695-2.745 9.493-5.53 14.136-8.224l12.836-7.47.01-.01.269-.176a5.902 5.902 0 0 0 1.898-1.64l.465-.64v-.784c-.083-9.803-.104-20.699-.073-34.308l.01-6.315v-12.01l39.726-23.237-.062 39.88-.093 60.35a50720.74 50720.74 0 0 0-55.584 32.431l-30.563 17.85zM58.761 87.245L98.198 64.09l39.034 23.03-38.972 22.782-13.455-7.728c-8.674-4.988-17.355-9.965-26.043-14.93zm-4.024 6.706l39.674 22.752-.062 45.194-38.88-22.659-.732-45.287zM8.1 67.186l38.796 22.287.847 51.158c-.104 2.012.887 3.849 2.486 4.602 5.52 3.23 11.144 6.5 16.582 9.658l10.607 6.18 16.921 9.854-.03 45.916-86.405-49.837.196-99.818zm176.38-7.697L144.96 82.58l-44.11-26.012a4.623 4.623 0 0 0-5.159-.103l-44.709 26.24L11.98 60.376l27.095-16.065A30759.438 30759.438 0 0 1 98.26 9.26a17388.609 17388.609 0 0 0 54.315 31.635c5.572 3.26 11.247 6.563 16.736 9.751l15.158 8.832.01.01zm-82.36 102.428l.03-45.214 39.096-22.844v45.317a20033.767 20033.767 0 0 0-39.127 22.741zm52.9-8.182a4.406 4.406 0 0 0 3.075-2.662 4.85 4.85 0 0 0-.804-5.2l-.01-.021a4.602 4.602 0 0 0-3.406-1.579 4.633 4.633 0 0 0-4.509 3.88 4.819 4.819 0 0 0 1.507 4.55 4.065 4.065 0 0 0 2.95 1.207 4.05 4.05 0 0 0 1.198-.175zm21.297 14.528a4.2 4.2 0 0 0 4.54.66 4.695 4.695 0 0 0 2.848-3.755 4.746 4.746 0 0 0-2.084-4.716 4.396 4.396 0 0 0-2.507-.794 4.19 4.19 0 0 0-2.28.68 4.84 4.84 0 0 0-2.291 3.922 4.643 4.643 0 0 0 1.774 4.003zM40.231 144.325a4.726 4.726 0 0 0-4.54 3.807 4.705 4.705 0 0 0 4.416 5.747c.35 0 .722-.051 1.053-.134a4.56 4.56 0 0 0 3.24-2.693 4.746 4.746 0 0 0-.795-5.118 4.406 4.406 0 0 0-3.374-1.61zm123.364 16.261a4.56 4.56 0 0 0 4.468.723 4.52 4.52 0 0 0 2.91-3.426 4.695 4.695 0 0 0-1.435-4.633 4.499 4.499 0 0 0-3.095-1.248 4.746 4.746 0 0 0-4.52 4.024 4.85 4.85 0 0 0 1.672 4.56zm-133.156-7.46a4.334 4.334 0 0 0-2.89-1.135 4.065 4.065 0 0 0-1.588.33 4.623 4.623 0 0 0-2.982 4.035c-.165 1.909.722 3.714 2.239 4.602.686.434 1.479.67 2.29.68a4.705 4.705 0 0 0 1.961-.453h.01a4.499 4.499 0 0 0 2.621-3.447 4.798 4.798 0 0 0-1.661-4.612zM97.61 12.51a4.375 4.375 0 0 0-.763.072 4.705 4.705 0 0 0-3.632 2.673v.02a4.643 4.643 0 0 0 .268 4.561 4.757 4.757 0 0 0 4.911 2.095h.021l.031-.01a4.52 4.52 0 0 0 3.777-3.478 4.549 4.549 0 0 0-1.105-4.334 4.705 4.705 0 0 0-3.508-1.599zM17.14 160.297a4.313 4.313 0 0 0-4.458 0 4.798 4.798 0 0 0-2.383 4.23c0 1.796.95 3.437 2.435 4.21a4.156 4.156 0 0 0 2.105.558 4.674 4.674 0 0 0 2.517-.764 4.684 4.684 0 0 0 2.178-4.21 4.602 4.602 0 0 0-2.394-4.024zm82.958-116.44a4.953 4.953 0 0 0-2.672-.795 4.643 4.643 0 0 0-2.332.62 4.54 4.54 0 0 0-2.404 3.765 4.581 4.581 0 0 0 1.836 4.117c.826.65 1.826.99 2.93.99a5.035 5.035 0 0 0 2.044-.453h.01a4.571 4.571 0 0 0 2.806-3.921 4.726 4.726 0 0 0-2.218-4.334v.01zm-5.881-7.821a4.579 4.579 0 0 0 3.198 1.258 5.046 5.046 0 0 0 2.064-.454 4.633 4.633 0 0 0 2.837-4.23 4.633 4.633 0 0 0-2.435-4.22 5.035 5.035 0 0 0-2.414-.62 4.499 4.499 0 0 0-2.518.744 4.767 4.767 0 0 0-2.25 3.632v.03a4.56 4.56 0 0 0 1.528 3.86h-.01z"/></svg>