<svg version="1.1" id="Layer_1" xmlns="http://www.w3.org/2000/svg" xmlns:xlink="http://www.w3.org/1999/xlink" x="0px" y="0px"
	 viewBox="0 0 226.8 226.8" style="enable-background:new 0 0 226.8 226.8;" xml:space="preserve">
<g>
	<path class="st0" d="M129,98.1l18.3-6.1c-7.1-11.2-19.6-18.6-33.9-18.6c-18.4,0-33.9,12.4-38.6,29.4l57.8-18.4L129,98.1z"/>
	<path class="st0" d="M113.4,0C50.8,0,0,50.8,0,113.4C0,176,50.8,226.8,113.4,226.8S226.8,176,226.8,113.4C226.8,50.8,176,0,113.4,0
		z M77.3,130.7c6.5,13.5,20.2,22.8,36.2,22.8c15.3,0,28.7-8.6,35.4-21.3l15.3-5c-6.1,22.3-26.5,38.7-50.7,38.7
		c-21.4,0-39.8-12.8-48-31.1l-7.8,2.7c9.3,21.6,30.8,36.7,55.8,36.7c29.9,0,54.7-21.5,59.8-49.9l12.7-4.1
		c-3.4,37.1-34.6,66.1-72.5,66.1c-34.1,0-62.6-23.4-70.6-54.9l64.4-20.9l-3.3,15.2l69.4-22.9c-5.1-28.5-29.9-50.1-59.9-50.1
		c-32.4,0-58.8,25.3-60.7,57.1l8.5-2.7c3.2-26,25.3-46.1,52.2-46.1c23.6,0,43.6,15.5,50.2,37l-50.3,16.5l4.2-14.1l-76.1,24.4
		c-0.6-3.7-0.9-7.4-0.9-11.2c0-40.2,32.6-72.8,72.8-72.8c39,0,70.8,30.6,72.8,69.1l-96.7,31.5l3-15.8L77.3,130.7z"/>
</g>
</svg>
