<?xml version="1.0" encoding="UTF-8"?>
<svg width="227px" height="227px" viewBox="0 0 227 227" version="1.1" xmlns="http://www.w3.org/2000/svg" xmlns:xlink="http://www.w3.org/1999/xlink">
    <!-- Generator: Sketch 50.2 (55047) - http://www.bohemiancoding.com/sketch -->
    <title>etn</title>
    <desc>Created with Sketch.</desc>
    <defs></defs>
    <g id="Page-1" stroke="none" stroke-width="1" fill="none" fill-rule="evenodd">
        <g id="etn" fill="#000000" fill-rule="nonzero">
            <path d="M113.5,227 C50.8125312,227 0,176.187469 0,113.5 C0,50.8125312 50.8125312,0 113.5,0 C176.187469,0 227,50.8125312 227,113.5 C227,176.187469 176.187469,227 113.5,227 Z M141.016656,95.5457188 L153.969844,105.349281 L162.156031,111.535031 L153.019281,116.202719 L134.646469,125.580656 L140.945719,129.936219 L149.76325,136.02975 L140.243438,140.938625 L81.805125,171.058688 C91.5113727,176.409145 102.416749,179.208713 113.5,179.195219 C149.82,179.195219 179.259062,149.76325 179.259062,113.464531 C179.285293,98.0647961 173.879685,83.1491369 163.993313,71.3418437 L141.009563,95.5457187 L141.016656,95.5457188 Z M85.9833438,134.802531 L73.0301563,125.006063 L64.8439688,118.813219 L73.9807188,114.152625 L92.3535313,104.767594 L86.0542813,100.412031 L77.23675,94.3255937 L86.7565625,89.409625 L148.301938,57.686375 C137.867759,51.1619505 125.806093,47.7101404 113.5,47.72675 C77.18,47.72675 47.7409375,77.1587188 47.7409375,113.464531 C47.7409375,130.340563 54.1040313,145.726906 64.5602188,157.36775 L85.9833437,134.809625 L85.9833438,134.802531 Z M60.55225,161.595625 C48.5375183,148.449701 41.8815563,131.280862 41.8956875,113.471625 C41.8956875,74.0090938 74.0232813,41.9027813 113.5,41.9027813 C128.055717,41.8889462 142.266201,46.3352926 154.218125,54.6431563 L160.623781,51.3445625 C147.080602,41.0304797 130.523446,35.4524403 113.5,35.46875 C70.4764063,35.46875 35.46875,70.455125 35.46875,113.464531 C35.4559739,133.034766 42.8308191,151.88863 56.1186563,166.256219 L60.55225,161.588531 L60.55225,161.595625 Z M168.008375,67.106875 C179.054668,80.022453 185.118363,96.4623632 185.104313,113.457437 C185.104313,152.912875 152.976719,185.019187 113.5,185.019187 C100.133447,185.033444 87.0328709,181.284452 75.6974063,174.201219 L69.1427813,177.584938 C82.1648805,186.629963 97.6448025,191.46976 113.5,191.453219 C156.523594,191.453219 191.53125,156.466844 191.53125,113.464531 C191.53125,93.9567188 184.338188,76.1159375 172.46325,62.4320938 L168.008375,67.1139688 L168.008375,67.106875 Z M76.9104375,119.884375 L95.6024687,134.022219 L53.3804688,178.485844 L137.292438,135.228156 L122.133094,124.757781 L150.089562,110.478062 L131.397531,96.3402187 L173.619531,51.8765938 L89.7075625,95.1342813 L104.866906,105.604656 L76.9104375,119.884375 Z" id="Shape"></path>
        </g>
    </g>
</svg>