<svg width="227" height="227" viewBox="0 0 227 227" xmlns="http://www.w3.org/2000/svg"><title>etn</title><path d="M113.5 227C50.813 227 0 176.187 0 113.5S50.813 0 113.5 0 227 50.813 227 113.5 176.187 227 113.5 227zm27.517-131.454l12.953 9.803 8.186 6.186-9.137 4.668-18.373 9.378 6.3 4.355 8.817 6.094-9.52 4.909-58.438 30.12a65.49 65.49 0 0 0 31.695 8.136c36.32 0 65.76-29.432 65.76-65.73a65.44 65.44 0 0 0-15.267-42.123L141.01 95.546h.007zm-55.034 39.257l-12.953-9.797-8.186-6.193 9.137-4.66 18.373-9.385-6.3-4.356-8.817-6.086 9.52-4.916 61.545-31.724a65.475 65.475 0 0 0-34.802-9.96c-36.32 0-65.76 29.433-65.76 65.739 0 16.876 6.364 32.262 16.82 43.903l21.423-22.558v-.007zm-25.43 26.793a71.25 71.25 0 0 1-18.657-48.124c0-39.463 32.127-71.57 71.604-71.57a71.221 71.221 0 0 1 40.718 12.741l6.406-3.298A77.655 77.655 0 0 0 113.5 35.469c-43.024 0-78.031 34.986-78.031 77.996a77.677 77.677 0 0 0 20.65 52.791l4.433-4.667v.007zm107.455-94.49a71.221 71.221 0 0 1 17.096 46.351c0 39.456-32.127 71.562-71.604 71.562a71.193 71.193 0 0 1-37.803-10.818l-6.554 3.384a77.613 77.613 0 0 0 44.357 13.868c43.024 0 78.031-34.986 78.031-77.988 0-19.508-7.193-37.35-19.068-51.033l-4.455 4.682v-.007zM76.91 119.885l18.692 14.138-42.222 44.464 83.912-43.258-15.159-10.47 27.957-14.28-18.692-14.138 42.222-44.463-83.912 43.257 15.159 10.47-27.957 14.28z"/></svg>