<svg width="227" height="227" viewBox="0 0 227 227" xmlns="http://www.w3.org/2000/svg"><title>etn</title><path d="M153.285 87.54l18.729 14.175 11.836 8.944-13.21 6.749-26.565 13.559 9.108 6.297 12.749 8.81-13.765 7.098-84.493 43.55a94.689 94.689 0 0 0 45.826 11.764c52.514 0 95.078-42.554 95.078-95.037a94.617 94.617 0 0 0-22.072-60.904l-33.231 34.996h.01zm-79.57 56.76l-18.729-14.164-11.836-8.954 13.21-6.738 26.565-13.57-9.108-6.297-12.749-8.8 13.765-7.108L163.819 32.8A94.668 94.668 0 0 0 113.5 18.4c-52.514 0-95.078 42.555-95.078 95.048 0 24.4 9.2 46.647 24.318 63.478l30.975-32.616v-.01zm-36.77 38.74A103.017 103.017 0 0 1 9.97 113.459C9.97 56.402 56.422 9.98 113.5 9.98a102.976 102.976 0 0 1 58.873 18.421l9.261-4.77A112.279 112.279 0 0 0 113.5.679C51.294.678.678 51.263.678 113.448a112.31 112.31 0 0 0 29.857 76.33l6.41-6.749v.01zM192.311 46.422a102.976 102.976 0 0 1 24.719 67.016c0 57.047-46.452 103.469-103.53 103.469-19.326.02-38.268-5.4-54.657-15.642l-9.477 4.893a112.217 112.217 0 0 0 64.134 20.051c62.206 0 112.822-50.585 112.822-112.76 0-28.206-10.4-54.001-27.57-73.786l-6.44 6.77v-.011zM60.597 122.731l27.026 20.441-61.047 64.288L147.9 144.916l-21.919-15.139 40.421-20.646-27.026-20.442 61.047-64.288L79.1 86.946l21.919 15.138-40.421 20.647z"/></svg>