<svg width="2000.0000000000002" height="2000.0000000000002" xmlns="http://www.w3.org/2000/svg">

 <g>
  <title>background</title>
  <rect fill="none" id="canvas_background" height="402" width="582" y="-1" x="-1"/>
 </g>
 <g>
  <title>Layer 1</title>
  <g id="svg_1" fill="#091b26">
   <path fill="#000000" id="svg_2" d="m1352.61,770.28l166.07,125.72l104.84,79.33l-117.07,59.81l-235.45,120.26l80.77,55.84l113,78.11l-122.07,63l-748.92,386.2a838.93,838.93 0 0 0 406.22,104.24c465.46,0 842.79,-377.33 842.79,-842.79a839.33,839.33 0 0 0 -195.72,-540l-294.46,310.28z"/>
   <path fill="#000000" id="svg_3" d="m647.39,1273.68l-166.07,-125.68l-104.84,-79.33l117.07,-59.81l235.45,-120.29l-80.77,-55.84l-113,-78.11l122.07,-63l788.7,-406.75a838.77,838.77 0 0 0 -446,-127.66c-465.46,0 -842.79,377.33 -842.79,842.79c0,216.39 81.58,413.7 215.63,562.94l274.55,-289.26z"/>
   <path fill="#000000" id="svg_4" d="m321.48,1617.05c-148.48,-163.05 -239.05,-379.68 -239.05,-617.05c0,-505.95 411.62,-917.57 917.57,-917.57a912.36,912.36 0 0 1 521.89,163.32l82,-42.28c-167.89,-127.61 -377.21,-203.47 -603.89,-203.47c-551.4,0 -1000,448.6 -1000,1000c0,260.87 100.45,498.69 264.65,676.92l56.83,-59.87z"/>
   <path fill="#000000" id="svg_5" d="m1698.57,405.79c136.48,160.21 219,367.74 219,594.21c0,505.95 -411.62,917.57 -917.57,917.57a912,912 0 0 1 -484.45,-138.67l-84,43.33a994.32,994.32 0 0 0 568.45,177.77c551.4,0 1000,-448.6 1000,-1000c0,-250 -92.2,-478.82 -244.38,-654.32l-57.05,60.11z"/>
  </g>
  <path id="svg_7" d="m531.06,1082.27l239.58,181.3l-541.12,570.11l1075.35,-554.64l-194.25,-134.29l358.32,-183.06l-239.58,-181.3l541.12,-570.11l-1075.35,554.64l194.25,134.29l-358.32,183.06zl0,0" fill="#000000"/>
 </g>
</svg>