<?xml version="1.0" encoding="UTF-8"?>
<svg width="227px" height="227px" viewBox="0 0 227 227" version="1.1" xmlns="http://www.w3.org/2000/svg" xmlns:xlink="http://www.w3.org/1999/xlink">
    <!-- Generator: Sketch 50.2 (55047) - http://www.bohemiancoding.com/sketch -->
    <title>etn</title>
    <desc>Created with Sketch.</desc>
    <defs></defs>
    <g id="Page-1" stroke="none" stroke-width="1" fill="none" fill-rule="evenodd">
        <g id="etn" fill="#000000" fill-rule="nonzero">
            <path d="M153.285229,87.5406252 L172.013723,101.715203 L183.849803,110.658931 L170.639343,117.407753 L144.074831,130.966936 L153.182663,137.264469 L165.931578,146.074861 L152.167263,153.172407 L67.6736521,196.721797 C81.7075261,204.457809 97.4751715,208.505591 113.5,208.486081 C166.013631,208.486081 208.57839,165.931578 208.57839,113.448717 C208.616315,91.182858 200.800564,69.6169049 186.506254,52.5452136 L153.274973,87.5406252 L153.285229,87.5406252 Z M73.7147709,144.300475 L54.9862769,130.136154 L43.1501969,121.18217 L56.360657,114.443604 L82.9251694,100.874164 L73.8173366,94.5766312 L61.068422,85.7764954 L74.8327369,78.6686935 L163.818725,32.8013193 C148.732365,23.3679156 131.292885,18.377082 113.5,18.4010971 C60.9863694,18.4010971 18.4216103,60.9555997 18.4216103,113.448717 C18.4216103,137.849094 27.6217522,160.095591 42.7399341,176.926619 L73.7147709,144.310732 L73.7147709,144.300475 Z M36.9449729,183.039534 C19.5733545,164.03237 9.94976609,139.208634 9.97019785,113.458974 C9.97019785,56.4016833 56.4221965,9.98045442 113.5,9.98045442 C134.545528,9.96045092 155.091895,16.3892447 172.372703,28.4012514 L181.634384,23.6319471 C162.052846,8.71922854 138.113518,0.654165327 113.5,0.677746815 C51.2939122,0.677746815 0.677746815,51.2631425 0.677746815,113.448717 C0.65927437,141.744534 11.3222671,169.004579 30.5346176,189.7781 L36.9449729,183.029278 L36.9449729,183.039534 Z M192.311472,46.4220422 C208.282864,65.0961581 217.050118,88.8659646 217.029802,113.438461 C217.029802,170.485494 170.577804,216.906723 113.5,216.906723 C94.173837,216.927336 75.2322401,211.506819 58.8427466,201.265456 L49.3656773,206.15784 C68.1938082,219.23568 90.5756061,226.233347 113.5,226.209431 C175.706088,226.209431 226.322253,175.624035 226.322253,113.448717 C226.322253,85.2431539 215.922093,59.4478842 198.752597,39.6629636 L192.311472,46.4322988 L192.311472,46.4220422 Z M60.5966198,122.730912 L87.6226777,143.172253 L26.5755822,207.460424 L147.900531,144.915869 L125.982244,129.777174 L166.40338,109.130702 L139.377322,88.6893609 L200.424418,24.4011897 L79.0994693,86.9457442 L101.017756,102.084439 L60.5966198,122.730912 Z" id="Shape"></path>
        </g>
    </g>
</svg>