<svg width="227" height="227" viewBox="0 0 227 227" xmlns="http://www.w3.org/2000/svg"><circle cx="113.5" cy="113.5" r="113.5"/><path d="M184.438 104.399c-.029.276-.071.546-.071.823-.036 8.654-.071 17.315-.086 25.977l-.028 17.784c0 .567-.05 1.135-.085 1.844-.312-.142-.54-.234-.752-.354l-33.014-18.409c-.59-.326-.639-.617-.355-1.198 5.625-11.55 5.647-23.126.106-34.703-.262-.553-.212-.83.355-1.142l33.029-18.536c.276-.156.595-.234.9-.348V104.4zm-68.81-68.93c.553.333 1.1.688 1.667 1.007l64.192 36.072c.24.135.468.284.801.482-.298.192-.496.334-.716.454l-32.76 18.295c-.858.475-.85.468-1.418-.34-7.264-10.18-17.224-15.997-29.879-17.472a9.222 9.222 0 0 0-1.135-.071c-.667 0-.922-.256-.922-.958-.007-7.186-.05-14.38-.071-21.565l-.021-14.89c0-.34.078-.674.12-1.014h.142zM111.23 191.53c-.241-.177-.461-.376-.71-.518l-64.673-36.355c-.305-.17-.596-.355-1.014-.596.283-.191.468-.34.68-.461 10.854-6.065 21.707-12.123 32.56-18.203.653-.368.958-.227 1.363.334 6.781 9.406 16.046 14.968 27.673 16.862 1.184.191 2.397.283 3.596.34.681.029.95.213.95.922-.006 6.363.022 12.727.043 19.083l.036 18.06c0 .178-.05.355-.078.532h-.426zm-68.668-46.464c.036-.213.107-.433.114-.652l.028-8.96.05-20.054.092-31.63.036-6.818c0-.199.028-.397.05-.716.311.148.538.24.751.361 10.797 6.03 21.587 12.06 32.397 18.075.632.348.717.617.405 1.277-5.675 11.64-5.647 23.296 0 34.951.46.936.475.93-.447 1.447-10.84 6.1-21.679 12.187-32.525 18.266-.277.157-.638.17-.95.249v-5.795zm95.575-6.597c1.156-4.065 1.532-8.158 1.276-12.315-.297-5.093-1.56-9.931-4.213-14.372-3.05-5.121-7.463-8.831-12.84-11.527-1.419-.716-1.575-.355-.73-2.128 1.908-3.994 5.249-6.477 9.363-8.066a29.155 29.155 0 0 1 8.924-1.745c.43.018.836.201 1.135.51a35.426 35.426 0 0 1 9.492 19.43c2.716 18.494-9.336 35.853-28.05 40.45-20.763 5.107-41.824-7.676-46.137-27.978-4.03-19.005 8.144-37.385 26.304-42.237 13.641-3.639 25.743-.737 36.334 8.3l1.199 1.022-.15.227c-1.042-.128-2.078-.284-3.12-.384-6.477-.61-12.847-.184-19.026 1.937a31.674 31.674 0 0 0-17.791 14.79c-.567 1.008-.61 1.015-1.703.639a9.293 9.293 0 0 1-3.681-2.39 19.487 19.487 0 0 1-4.462-7.371c-.83-2.412-1.44-4.895-2.15-7.342-.056-.192-.099-.39-.27-.596-.098.568-.212 1.12-.297 1.688a34.856 34.856 0 0 0-.213 1.703c-.674 6.342-.312 12.584 1.88 18.635 2.724 7.548 7.853 12.982 15.344 16.287.979.433.979.44.454 1.334-2.774 4.71-7.122 7.08-12.492 7.888-2.497.376-4.994.227-7.541.043.234.092.461.198.695.284 12.272 4.22 25.75 2.326 35.902-8.414a49.16 49.16 0 0 0 6.654-8.987c.482-.837.517-.845 1.298-.277 3.327 2.426 5.306 5.746 6.668 9.47 1.27 3.426 1.773 6.987 1.894 10.612.007.291.028.582.05.873v.007zM182.6 154.16l-67.128 37.235c-.035-.39-.085-.63-.085-.865 0-12.272 0-24.544-.014-36.817 0-.546.163-.744.752-.794 13.052-1.078 23.402-6.796 31-17.188.66-.915.652-.922 1.63-.376l32.937 18.266c.256.142.511.305.908.54zM111.65 35.724c.02.397.042.639.042.88 0 12.109 0 24.218.014 36.32 0 .567-.085.851-.78.9-13.322.965-23.856 6.733-31.574 17.33-.61.838-.596.845-1.49.348l-32.07-17.805c-.377-.213-.724-.468-1.086-.71.369-.255.71-.546 1.106-.766l64.625-35.866c.361-.198.73-.375 1.205-.63h.008z"/></svg>