<svg version="1.1" id="Layer_1" xmlns="http://www.w3.org/2000/svg" xmlns:xlink="http://www.w3.org/1999/xlink" x="0px" y="0px"
	 width="226.777px" height="226.777px" viewBox="0 0 226.777 226.777" enable-background="new 0 0 226.777 226.777"
	 xml:space="preserve">
<g id="FC2">
	<path fill="#231F20" d="M159.162,67.919h-47.428l2.949-19.923h55.754l6.642-47.981H57.127l-27.593,192.75H93.25l11.099-74.958
		h47.865L159.162,67.919z M55.995,181.128H41.168L66.188,7.531h14.826L55.995,181.128z"/>
	<path fill="#231F20" d="M190.669,184.443c-0.848-2.596-1.728-5.28-1.728-10.271v-16.348c0-1.296,0-3.706-18.879-22.113
		c-1.172-1.146-3.054-1.121-4.202,0.051c-1.146,1.174-1.123,3.058,0.053,4.204c7.32,7.14,15.711,15.962,17.084,18.347v15.859
		c0,5.937,1.075,9.223,2.024,12.118c0.736,2.255,1.319,4.032,1.319,6.902c0,2.915-2.423,3.687-3.7,3.687
		c-0.885,0-1.675-0.289-2.224-0.813c-0.66-0.623-0.994-1.593-0.994-2.874v-29.265c0-4.899-3.729-9.967-9.968-9.967v-5.874
		c0-1.598-1.297-2.894-2.896-2.894h-39.297c-1.598,0-2.895,1.296-2.895,2.894v71.11h-2.479c-1.117,0-2.022,0.907-2.022,2.024v3.533
		c0,1.117,0.905,2.022,2.022,2.022h50.046c1.118,0,2.022-0.905,2.022-2.022v-3.533c0-1.117-0.904-2.024-2.022-2.024h-2.479v-59.292
		c3.303,0,4.023,2.903,4.023,4.022v29.265c0,3.708,1.546,5.956,2.846,7.187c1.66,1.574,3.902,2.442,6.316,2.442
		c4.676,0,9.645-3.377,9.645-9.629C192.285,189.375,191.465,186.868,190.669,184.443z M162.664,174.526
		c0,1.116-0.906,2.021-2.022,2.021h-27.46c-1.118,0-2.022-0.905-2.022-2.021v-20.774c0-1.115,0.904-2.021,2.022-2.021h27.46
		c1.116,0,2.022,0.906,2.022,2.021V174.526z"/>
</g>
</svg>
