<svg version="1.1" id="Layer_1" xmlns="http://www.w3.org/2000/svg" xmlns:xlink="http://www.w3.org/1999/xlink" x="0px" y="0px"
	 width="226.777px" height="226.777px" viewBox="0 0 226.777 226.777" enable-background="new 0 0 226.777 226.777"
	 xml:space="preserve">
<g id="FC2_alt">
	<polygon fill="#231F20" points="70.407,162.212 79.669,162.212 95.299,53.765 86.036,53.765 	"/>
	<path fill="#231F20" d="M145.043,143.848h-17.154c-0.699,0-1.264,0.567-1.264,1.264v12.978c0,0.696,0.564,1.263,1.264,1.263h17.154
		c0.697,0,1.263-0.566,1.263-1.263v-12.978C146.305,144.416,145.74,143.848,145.043,143.848z"/>
	<path fill="#231F20" d="M113.533,0.289C50.99,0.289,0.289,50.99,0.289,113.533S50.99,226.777,113.533,226.777
		s113.244-50.701,113.244-113.244S176.076,0.289,113.533,0.289z M109.877,122.655l-6.935,46.826H63.138L80.375,49.07h74.935
		l-4.148,29.975h-34.829l-1.844,12.446h29.63l-4.341,31.164H109.877z M158.786,175.764c-1.508,0-2.909-0.54-3.945-1.525
		c-0.813-0.769-1.779-2.173-1.779-4.487v-18.284c0-0.7-0.449-2.514-2.513-2.514v37.042h1.549c0.697,0,1.265,0.565,1.265,1.264v2.208
		c0,0.698-0.567,1.263-1.265,1.263h-31.264c-0.699,0-1.266-0.564-1.266-1.263v-2.208c0-0.698,0.566-1.264,1.266-1.264h1.548v-44.425
		c0-0.997,0.81-1.807,1.809-1.807h24.549c1,0,1.81,0.81,1.81,1.807v3.67c3.897,0,6.227,3.166,6.227,6.227v18.284
		c0,0.8,0.209,1.404,0.621,1.793c0.344,0.327,0.837,0.508,1.39,0.508c0.797,0,2.312-0.481,2.312-2.301
		c0-1.796-0.364-2.904-0.825-4.314c-0.592-1.808-1.265-3.86-1.265-7.57v-9.905c-0.857-1.493-6.098-7.003-10.672-11.463
		c-0.733-0.716-0.749-1.893-0.032-2.627c0.717-0.73,1.893-0.747,2.625-0.031c11.793,11.501,11.793,13.005,11.793,13.815v10.211
		c0,3.119,0.551,4.795,1.079,6.417c0.498,1.514,1.011,3.081,1.011,5.468C164.811,173.656,161.706,175.764,158.786,175.764z"/>
</g>
</svg>
