<svg version="1.1" id="Layer_1" xmlns="http://www.w3.org/2000/svg" xmlns:xlink="http://www.w3.org/1999/xlink" x="0px" y="0px"
	 width="226.777px" height="226.777px" viewBox="0 0 226.777 226.777" enable-background="new 0 0 226.777 226.777"
	 xml:space="preserve">
<path fill="#231F20" d="M113.388,0C50.766,0,0,50.766,0,113.389s50.766,113.388,113.389,113.388
	c62.623,0,113.389-50.766,113.389-113.388S176.011,0,113.388,0z M40.579,89.697c2.313,7.646,8.269,16.236,23.363,16.236
	c32.566,0,50.376-26.46,50.376-26.46l-2.009-0.867l15.139-20.709l1.425,25.851l-2.646-0.612c0,0-20.864,34.806-62.996,34.806
	c-14.863,0-21.385-7.361-23.994-15.759C39.343,97.926,39.803,93.755,40.579,89.697z M39.636,112.201
	c4.196,5.123,10.401,10.645,18.38,12.109c9.031,1.654,28.314,1.16,49.076-12.476c20.76-13.637,28.496-30.634,28.496-30.634
	l-2.011-0.864l15.14-20.711l1.425,25.85l-2.646-0.61c0,0-6.107,14.755-24.629,30.937c-18.523,16.184-46.205,24.324-66.253,19.541
	c-6.313-1.506-10.96-5.322-14.365-9.846C41,121.209,40.116,116.765,39.636,112.201z M49.993,143.248
	c-2.186-3.654-4.075-7.504-5.633-11.52c4.755,5.164,11.815,10.32,21.515,11.35c16.374,1.742,29.819-1.934,50.376-14.248
	c20.558-12.313,27.683-24.83,27.683-24.83l-2.315-1.046l15.139-21.141l1.322,26.255l-2.035-0.711c0,0-11.906,18.113-28.496,28.598
	c-16.589,10.482-35.924,20.455-58.518,17.811C61.189,152.847,54.885,148.515,49.993,143.248z M56.766,152.82
	c6.482,3.652,14.84,6.695,24.706,6.695c17.021,0,33.813-7.252,48.545-17.021c14.73-9.77,26.943-25.492,26.943-25.492l-2.671-0.994
	L169.632,95.4l1.297,26.256l-2.977-1.297c0,0-11.83,16.791-28.929,28.775c-17.097,11.982-32.821,18.93-54.498,18.93
	c-6.235,0-12.436-2.281-18.109-5.527C62.918,159.592,59.686,156.342,56.766,152.82z M169.554,154.402l-1.146-0.689
	c0,0-14.038,15.053-32.209,22.213c-6.553,2.582-12.987,3.922-18.937,4.496c-0.577,0.01-1.157,0.02-1.736,0.02
	c-5.675,0-11.202-0.625-16.523-1.799c8.809,0.281,21.383-0.768,34.295-6.686c23.814-10.914,30.607-20.686,30.607-20.686l-1.22-0.84
	l7.402-6.486L169.554,154.402z M186.678,114.887c0,0-11.603,25.036-33.788,41.015c-22.187,15.979-39.081,21.17-52.107,21.17
	c-4.391,0-8.879-0.744-13.234-1.922c-4.819-1.9-9.395-4.279-13.677-7.074c5.952,1.906,13.076,3.398,20.805,3.398
	c20.659,0,43.042-13.254,56.688-25.037c17.911-15.469,25.543-34.499,25.543-34.499l-3.46-1.426l15.063-20.762l1.323,25.851
	L186.678,114.887z"/>
</svg>
