<svg version="1.1" id="Layer_1" xmlns="http://www.w3.org/2000/svg" xmlns:xlink="http://www.w3.org/1999/xlink" x="0px" y="0px"
	 width="226.777px" height="226.777px" viewBox="0 0 226.777 226.777" enable-background="new 0 0 226.777 226.777"
	 xml:space="preserve">
<g>
	<path fill="#231F20" d="M36.219,118.146c63.602,0,95.097-52.542,95.097-52.542l3.994,0.923l-2.15-39.022l-22.853,31.263
		l3.034,1.308c0,0-26.885,39.943-76.046,39.943c-22.786,0-31.776-12.968-35.268-24.509C0.855,81.634,0.16,87.93,0,94.358
		C3.938,107.033,13.783,118.146,36.219,118.146z"/>
	<path fill="#231F20" d="M26.233,144.417c30.266,7.219,72.052-5.068,100.014-29.497c27.96-24.429,37.178-46.705,37.178-46.705
		l3.995,0.922l-2.151-39.021l-22.854,31.264l3.035,1.305c0,0-11.677,25.656-43.017,46.244c-31.34,20.586-60.45,21.329-74.083,18.831
		c-12.045-2.211-21.411-10.544-27.746-18.28c0.725,6.892,2.059,13.6,3.944,20.075C9.689,136.382,16.704,142.143,26.233,144.417z"/>
	<path fill="#231F20" d="M133.312,145.337c25.042-15.822,43.016-43.168,43.016-43.168l3.073,1.076l-1.996-39.636l-22.854,31.915
		l3.496,1.577c0,0-10.754,18.895-41.787,37.483c-31.033,18.59-51.33,24.137-76.047,21.51c-14.643-1.555-25.3-9.34-32.479-17.135
		c2.353,6.063,5.205,11.875,8.503,17.391c7.385,7.949,16.901,14.49,28.738,15.875C79.082,176.218,108.271,161.163,133.312,145.337z"
		/>
	<path fill="#231F20" d="M150.634,165.233c25.811-18.092,43.671-43.438,43.671-43.438l4.493,1.959l-1.958-39.638l-23.16,31.11
		l4.032,1.498c0,0-18.436,23.735-40.673,38.483c-22.238,14.75-47.587,25.695-73.282,25.695c-14.891,0-27.51-4.594-37.295-10.105
		c4.409,5.314,9.288,10.221,14.568,14.668c8.564,4.9,17.926,8.342,27.336,8.342C101.089,193.807,124.825,183.325,150.634,165.233z"
		/>
	<path fill="#231F20" d="M225.337,75.59l-22.737,31.34l5.224,2.151c0,0-11.521,28.732-38.561,52.082
		c-20.597,17.787-54.385,37.795-85.572,37.795c-11.669,0-22.422-2.254-31.407-5.131c6.464,4.217,13.371,7.811,20.646,10.68
		c6.574,1.775,13.349,2.898,19.977,2.898c19.666,0,45.167-7.836,78.659-31.953c33.491-24.123,51.006-61.916,51.006-61.916
		l4.763,1.077L225.337,75.59z"/>
	<path fill="#231F20" d="M188.197,168.458c0,0-10.254,14.75-46.205,31.227c-19.491,8.936-38.472,10.516-51.769,10.092
		c8.032,1.775,16.376,2.717,24.941,2.717c0.876,0,1.749-0.014,2.621-0.031c8.981-0.863,18.695-2.889,28.586-6.785
		c27.431-10.809,48.623-33.531,48.623-33.531l1.729,1.039l0.806-15.785l-11.175,9.793L188.197,168.458z"/>
</g>
</svg>
