<svg version="1.1" id="Layer_1" xmlns="http://www.w3.org/2000/svg" xmlns:xlink="http://www.w3.org/1999/xlink" x="0px" y="0px"
	 viewBox="0 0 226.8 226.8" style="enable-background:new 0 0 226.8 226.8;" xml:space="preserve">
<path d="M113.4,0C50.8,0,0,50.8,0,113.4s50.8,113.4,113.4,113.4S226.8,176,226.8,113.4S176,0,113.4,0z M88.116,64.519
	c1.307-8.311,13.149-18.763,22.287-25.852c0.715-0.556,1.614-0.857,2.514-0.942c0.01-0.01,0.01-0.021,0.01-0.021
	c0.163-0.01,0.311-0.021,0.474-0.01c0.16-0.01,0.33,0,0.492,0.01c0,0,0,0.011,0,0.021c0.91,0.085,1.809,0.386,2.513,0.942
	c9.149,7.089,20.97,17.541,22.277,25.852c1.328,8.309-1.498,13.663-1.498,13.663c-11.375,21.236-14.031,44.689-13.988,51.253
	c-4.882,2.4-14.735,2.4-19.575,0c0-6.564-2.634-30.018-13.985-51.253C89.639,78.181,86.81,72.828,88.116,64.519z M134.744,130.681
	c0.492,3.123,0-0.921,1.253,5.332c-13.719,6.876-31.453,6.876-45.183,0c1.136-5.48,0.92-2.931,1.264-5.332
	C104.629,137.125,122.236,137.061,134.744,130.681z M48.856,138.243c-1.242,0.467-1.692-0.496-1.692-0.496
	s-4.273-8.908-5.215-24.203c-0.567-10.411,0.846-16.214,0.846-16.214s2.613-11.694,11.651-14.413c2.015-0.729,12.551-2.453,17.929,0
	c6.596,3.009,10.954,5.566,18.74,16.534c7.775,10.963,9.403,29.657,9.403,29.657s-7.679-1.664-9.255-4.404
	c-1.583-2.755-2.762-6.897-11.726-14.19c-4.443-3.62-8.769-1.317-8.769-1.317s-1.756,1.133-1.905,2.761
	c-0.152,1.621-0.174,5.268-2.549,9.113C58.731,132.791,50.807,137.493,48.856,138.243z M83.255,163.147
	c-2.528,1.869-6.521,1.671-9.318,1.161c-2.761-0.517-4.305-2.337-4.925-3.774c-0.612-1.692-0.612-3.576-0.149-5.976
	c0.45-2.351,0.832-4.213,2.953-9.552c0.206-0.488,0.793-0.467,1.094,0c2.591,3.711,4.433,4.886,4.433,4.886s1.692,1.586,4.025,0
	c2.316-1.565,8.023-10.218,8.023-10.218l7.014,3.087c0,0-3.275,8.653-6.766,13.489C86.123,161.072,85.762,161.285,83.255,163.147z
	 M130.396,170.879c-3.696,7.138-13.772,16.605-15.036,17.547c-0.503,0.361-1.027,0.574-1.554,0.666c0,0,0,0,0,0.021
	c-0.053,0-0.096,0-0.138,0c-0.085,0-0.17,0-0.266,0c-0.078,0-0.163,0-0.258,0c-0.032,0-0.096,0-0.128,0c0-0.021,0-0.021,0-0.021
	c-0.528-0.092-1.062-0.305-1.565-0.666c-1.275-0.942-11.329-10.409-15.047-17.547c-2.783-5.395-4.712-7.732,0-15.89
	c4.712-8.157,7.219-10.388,7.219-10.388c9.789,1.154,9.789,1.154,19.575,0c0,0,2.485,2.23,7.198,10.388
	C135.109,163.147,133.19,165.484,130.396,170.879z M157.81,160.534c-0.62,1.438-2.163,3.257-4.946,3.774
	c-2.786,0.51-6.79,0.708-9.297-1.161c-2.518-1.862-2.868-2.075-6.38-6.897c-3.516-4.836-6.791-13.489-6.791-13.489l7.024-3.087
	c0,0,5.697,8.653,8.034,10.218c2.312,1.586,4.025,0,4.025,0s1.841-1.175,4.411-4.886c0.322-0.467,0.899-0.488,1.105,0
	c2.131,5.339,2.507,7.201,2.967,9.552C158.423,156.958,158.423,158.842,157.81,160.534z M184.873,113.545
	c-0.952,15.294-5.236,24.203-5.236,24.203s-0.429,0.963-1.671,0.496c-1.951-0.751-9.896-5.452-17.458-17.171
	c-2.376-3.845-2.397-7.492-2.545-9.113c-0.152-1.629-1.919-2.761-1.919-2.761s-4.327-2.303-8.77,1.317
	c-8.975,7.294-10.388,11.436-11.705,14.19c-1.328,2.74-9.266,4.404-9.266,4.404s1.608-18.694,9.404-29.657
	c7.775-10.968,12.144-13.525,18.739-16.534c5.378-2.453,15.914-0.729,17.918,0c9.028,2.719,11.662,14.413,11.662,14.413
	S185.419,103.134,184.873,113.545z"/>
</svg>
