<svg version="1.1" id="Layer_1" xmlns="http://www.w3.org/2000/svg" xmlns:xlink="http://www.w3.org/1999/xlink" x="0px" y="0px"
	 viewBox="0 0 226.8 226.8" style="enable-background:new 0 0 226.8 226.8;" xml:space="preserve">
<g>
	<path d="M113.402,0C50.768,0,0.006,50.771,0.006,113.396c0,62.646,50.762,113.404,113.396,113.404
		c62.63,0,113.393-50.758,113.393-113.404C226.794,50.771,176.032,0,113.402,0z M113.402,211.091
		c-53.868,0-97.695-43.827-97.695-97.695c0-53.87,43.827-97.695,97.695-97.695c53.872,0,97.703,43.824,97.703,97.695
		C211.104,167.264,167.274,211.091,113.402,211.091z"/>
	<path d="M88.969,137.86c14.851,7.437,34.034,7.437,48.874,0c-1.356-6.763-0.824-2.389-1.356-5.767
		c-13.53,6.901-32.575,6.97-46.151,0C89.964,134.689,90.198,131.932,88.969,137.86z"/>
	<path d="M102.825,130.744c5.235,2.596,15.893,2.596,21.174,0c-0.046-7.1,2.826-32.47,15.131-55.44c0,0,3.056-5.791,1.62-14.779
		c-1.413-8.99-14.2-20.295-24.097-27.964c-0.762-0.601-1.734-0.927-2.719-1.019c0-0.011,0-0.023,0-0.023
		c-0.176-0.011-0.36-0.023-0.533-0.011c-0.176-0.011-0.337,0-0.513,0.011c0,0,0,0.012-0.011,0.023
		c-0.973,0.092-1.946,0.418-2.719,1.019c-9.884,7.669-22.695,18.974-24.108,27.964c-1.413,8.988,1.647,14.779,1.647,14.779
		C99.975,98.275,102.825,123.644,102.825,130.744z"/>
	<path d="M87.429,141.82c0,0-6.173,9.36-8.678,11.053c-2.524,1.716-4.354,0-4.354,0s-1.992-1.271-4.795-5.285
		c-0.326-0.505-0.961-0.528-1.184,0c-2.294,5.775-2.707,7.789-3.194,10.333c-0.502,2.596-0.502,4.634,0.161,6.464
		c0.67,1.555,2.34,3.524,5.327,4.082c3.025,0.552,7.345,0.766,10.08-1.256c2.711-2.014,3.102-2.244,6.905-7.46
		c3.776-5.231,7.318-14.591,7.318-14.591L87.429,141.82z"/>
	<path d="M67.285,108.854c0,0,4.68-2.491,9.486,1.424c9.697,7.889,10.972,12.37,12.684,15.349
		c1.704,2.964,10.011,4.764,10.011,4.764s-1.762-20.221-10.171-32.079c-8.422-11.864-13.136-14.629-20.271-17.885
		c-5.817-2.654-17.214-0.789-19.393,0c-9.777,2.941-12.603,15.591-12.603,15.591s-1.528,6.277-0.915,17.538
		c1.018,16.544,5.641,26.18,5.641,26.18s0.487,1.042,1.831,0.536c2.11-0.812,10.681-5.898,18.884-18.574
		c2.569-4.159,2.593-8.104,2.757-9.858C65.386,110.08,67.285,108.854,67.285,108.854z"/>
	<path d="M123.999,147.151c-10.585,1.248-10.585,1.248-21.174,0c0,0-2.711,2.413-7.809,11.236c-5.097,8.824-3.01,11.351,0,17.188
		c4.021,7.721,14.897,17.961,16.276,18.98c0.544,0.391,1.122,0.62,1.693,0.72c0,0,0,0,0,0.023c0.035,0,0.103,0,0.138,0
		c0.103,0,0.195,0,0.279,0c0.104,0,0.195,0,0.287,0c0.046,0,0.092,0,0.149,0c0-0.023,0-0.023,0-0.023
		c0.571-0.1,1.137-0.329,1.681-0.72c1.367-1.019,12.266-11.259,16.264-18.98c3.022-5.836,5.097-8.364,0-17.188
		C126.687,149.563,123.999,147.151,123.999,147.151z"/>
	<path d="M158.393,147.587c-0.222-0.528-0.846-0.505-1.195,0c-2.78,4.014-4.772,5.285-4.772,5.285s-1.853,1.716-4.354,0
		c-2.528-1.693-8.69-11.053-8.69-11.053l-7.598,3.34c0,0,3.543,9.36,7.346,14.591c3.799,5.216,4.178,5.446,6.901,7.46
		c2.711,2.022,7.043,1.808,10.056,1.256c3.01-0.559,4.68-2.527,5.35-4.082c0.662-1.831,0.662-3.868,0.165-6.464
		C161.104,155.377,160.698,153.363,158.393,147.587z"/>
	<path d="M189.796,96.019c0,0-2.849-12.649-12.615-15.591c-2.168-0.789-13.565-2.654-19.382,0c-7.135,3.255-11.86,6.02-20.27,17.885
		c-8.433,11.858-10.172,32.079-10.172,32.079s8.586-1.8,10.022-4.764c1.425-2.98,2.953-7.46,12.661-15.349
		c4.806-3.916,9.486-1.424,9.486-1.424s1.911,1.225,2.076,2.987c0.161,1.754,0.184,5.698,2.753,9.858
		c8.18,12.676,16.774,17.762,18.884,18.574c1.344,0.505,1.808-0.536,1.808-0.536s4.634-9.636,5.664-26.18
		C191.301,102.296,189.796,96.019,189.796,96.019z"/>
</g>
</svg>
