<?xml version="1.0" encoding="UTF-8"?>
<!-- Generator: Adobe Illustrator 19.0.1, SVG Export Plug-In . SVG Version: 6.00 Build 0)  -->
<svg version="1.1" xmlns="http://www.w3.org/2000/svg" xmlns:xlink="http://www.w3.org/1999/xlink" x="0px" y="0px" viewBox="0 0 500 500" style="enable-background:new 0 0 500 500;" xml:space="preserve">
<style type="text/css">
	.st0{stroke:#000000;stroke-miterlimit:10;}
	.st1{fill:#FFFFFF;}
	.st2{fill:#FDFDFE;stroke:#000000;stroke-miterlimit:10;}
</style>
<g id="Layer_1">
	<circle class="st0" cx="250" cy="250" r="228.9"/>
</g>
<g id="Layer_2">
	<g>
		<path class="st1" d="M161.7,343.9h-22.5l8.6-41.5h22.5l36.9-176.5h153.5l-8.6,41.5H249.7L237.3,227h99.8l-8.6,41.5h-99.8    l-7.1,33.9h54.9l-8.6,41.5h-54.9l-6.4,30.3h-51L161.7,343.9z"/>
	</g>
</g>
<g id="Layer_3">
	<polygon class="st2" points="250,428 255.6,444.6 273,444.7 259,455.1 264.2,471.8 250,461.7 235.8,471.8 241,455.1 227,444.7    244.4,444.6  "/>
	<polygon class="st2" points="318.1,414.5 329.6,427.6 345.8,421.1 336.8,436.1 348,449.5 331,445.6 321.7,460.3 320.2,443    303.3,438.7 319.3,431.9  "/>
	<polygon class="st2" points="375.9,375.9 391.5,383.6 404,371.4 401.4,388.7 416.9,396.8 399.7,399.7 396.8,416.9 388.7,401.4    371.4,404 383.6,391.5  "/>
	<polygon class="st2" points="414.5,318.1 431.9,319.3 438.7,303.3 443,320.2 460.3,321.7 445.6,331 449.5,348 436.1,336.8    421.1,345.8 427.6,329.6  "/>
	<polygon class="st2" points="428,250 444.6,244.4 444.7,227 455.1,241 471.8,235.8 461.7,250 471.8,264.2 455.1,259 444.7,273    444.6,255.6  "/>
	<polygon class="st2" points="414.5,181.9 427.6,170.4 421.1,154.2 436.1,163.2 449.5,152 445.6,169 460.3,178.3 443,179.8    438.7,196.7 431.9,180.7  "/>
	<polygon class="st2" points="375.9,124.1 383.6,108.5 371.4,96 388.7,98.6 396.8,83.1 399.7,100.3 416.9,103.2 401.4,111.3    404,128.6 391.5,116.4  "/>
	<polygon class="st2" points="318.1,85.5 319.3,68.1 303.3,61.3 320.2,57 321.7,39.7 331,54.4 348,50.5 336.8,63.9 345.8,78.9    329.6,72.4  "/>
	<polygon class="st2" points="250,72 244.4,55.4 227,55.3 241,44.9 235.8,28.2 250,38.3 264.2,28.2 259,44.9 273,55.3 255.6,55.4     "/>
	<polygon class="st2" points="181.9,85.5 170.4,72.4 154.2,78.9 163.2,63.9 152,50.5 169,54.4 178.3,39.7 179.8,57 196.7,61.3    180.7,68.1  "/>
	<polygon class="st2" points="124.1,124.1 108.5,116.4 96,128.6 98.6,111.3 83.1,103.2 100.3,100.3 103.2,83.1 111.3,98.6 128.6,96    116.4,108.5  "/>
	<polygon class="st2" points="85.5,181.9 68.1,180.7 61.3,196.7 57,179.8 39.7,178.3 54.4,169 50.5,152 63.9,163.2 78.9,154.2    72.4,170.4  "/>
	<polygon class="st2" points="72,250 55.4,255.6 55.3,273 44.9,259 28.2,264.2 38.3,250 28.2,235.8 44.9,241 55.3,227 55.4,244.4     "/>
	<polygon class="st2" points="85.5,318.1 72.4,329.6 78.9,345.8 63.9,336.8 50.5,348 54.4,331 39.7,321.7 57,320.2 61.3,303.3    68.1,319.3  "/>
	<polygon class="st2" points="124.1,375.9 116.4,391.5 128.6,404 111.3,401.4 103.2,416.9 100.3,399.7 83.1,396.8 98.6,388.7    96,371.4 108.5,383.6  "/>
	<polygon class="st2" points="181.9,414.5 180.7,431.9 196.7,438.7 179.8,443 178.3,460.3 169,445.6 152,449.5 163.2,436.1    154.2,421.1 170.4,427.6  "/>
</g>
</svg>