<svg version="1.1" id="Layer_1" xmlns="http://www.w3.org/2000/svg" xmlns:xlink="http://www.w3.org/1999/xlink" x="0px" y="0px"
	 width="226.777px" height="226.777px" viewBox="0 0 226.777 226.777" enable-background="new 0 0 226.777 226.777"
	 xml:space="preserve">
<path id="FTC" fill="#231F20" d="M209.689,0.015c-2.121-0.625-32.981,18.277-47.352,29.174
	c-14.368,10.898-41.179,32.162-42.191,34.381c-1.013,2.217-1.109,6.22-2.313,16.297c-1.206,10.078-5.4,14.466-5.4,14.466
	s-2.026-1.542-3.136-4.822c-1.11-3.279-1.832-12.442-2.507-12.633c-0.674-0.194-18.742,16.637-18.742,16.637
	s-1.285,8.419-4.049,25.137c-2.766,16.717-7.009,23.708-7.925,23.805s-2.894-6.461-3.568-13.117
	c-0.674-6.653-0.192-22.422-0.916-22.903c-0.724-0.483-10.221,9.515-10.221,9.515s1.284,11.894,2.248,27.453
	c0.965,15.558-0.513,26.247-2.104,27.26c-1.592,1.013-4.001-2.797-7.523-11.14c-3.519-8.342-3.76-14.947-5.399-15.526
	c-1.641-0.579-5.063,7.57-6.075,15.673c-1.013,8.099-0.242,20.396-0.242,20.396s-4.726-8.775-7.716-13.357
	c-2.99-4.58-9.933-13.743-10.799-13.068c-0.871,0.675,2.939,8.101,5.253,14.708c2.315,6.607,5.401,16.395,5.401,16.395
	s-8.053-7.86-11.717-10.464c-3.666-2.604-14.32-8.631-15.189-6.75c-0.867,1.879,6.461,7.427,9.645,10.607
	c3.183,3.182,9.982,10.463,9.982,10.463s-3.425,3.569-4.292,8.439c-0.869,4.87,1.253,9.45,1.253,9.45s5.642-11.669,8.873-11.86
	c3.231-0.193,4.436,6.413,3.472,10.751c-0.965,4.341-15.189,19.257-14.467,21.267c0.724,2.009,18.854-17.055,20.558-20.687
	c3.6,4.372,22.759,11.829,23.853,11.442c1.092-0.384-7.395-6.234-10.738-9.386c-3.342-3.149-7.199-12.472-5.849-13.692
	c1.35-1.223,3.085,6.234,12.793,10.928c9.709,4.694,24.561,5.722,24.817,5.078c0.257-0.644-11.38-4.112-18.259-8.485
	c-6.879-4.372-10.352-13.437-10.352-13.437s9.966,1.991,34.913,3.343c24.946,1.351,40.632-7.136,40.632-7.136
	s-21.861-0.258-36.067-0.9c-14.211-0.643-34.59-2.442-34.59-2.442s5.384-8.006,19.722-10.897c14.335-2.895,37.307-1.319,39.362-1.64
	c2.059-0.322,35.04-46.869,35.04-46.869s-20.381,0.834-18.967-2.638c3.144-7.717,20.767-5.979,23.402-6.235
	c2.635-0.259,10.865-12.345,20.511-23.661c9.643-11.316,36.004-40.569,37.353-59.471C221.456,10.961,211.812,0.643,209.689,0.015z
	 M137.746,102.965c-16.202,19.159-53.362,56.192-53.362,56.192s24.816-33.817,43.334-55.549
	c18.516-21.732,55.804-62.622,55.804-62.622S153.948,83.806,137.746,102.965z"/>
</svg>
