<svg version="1.1" id="Layer_1" xmlns="http://www.w3.org/2000/svg" xmlns:xlink="http://www.w3.org/1999/xlink" x="0px" y="0px"
	 width="226.777px" height="226.777px" viewBox="0 0 226.777 226.777" enable-background="new 0 0 226.777 226.777"
	 xml:space="preserve">
<g id="FTC_alt">
	<path fill="#231F20" d="M113.617,0.453C51.118,0.453,0.454,51.118,0.454,113.614c0,62.499,50.664,113.163,113.163,113.163
		c62.496,0,113.16-50.664,113.16-113.163C226.777,51.118,176.113,0.453,113.617,0.453z M183.877,57.669
		c-0.89,12.451-18.255,31.721-24.604,39.175c-6.354,7.454-11.775,15.415-13.512,15.586c-1.736,0.168-13.344-0.977-15.415,4.107
		c-0.932,2.287,12.494,1.737,12.494,1.737s-21.727,30.66-23.082,30.874c-1.356,0.211-16.486-0.827-25.929,1.079
		c-9.445,1.905-12.992,7.179-12.992,7.179s13.425,1.185,22.785,1.609c9.358,0.422,23.757,0.593,23.757,0.593
		s-10.332,5.591-26.765,4.7c-16.433-0.89-22.997-2.201-22.997-2.201s2.287,5.97,6.819,8.851c4.532,2.88,12.197,5.165,12.028,5.59
		c-0.17,0.423-9.952-0.254-16.348-3.346c-6.396-3.091-7.539-8.003-8.428-7.198c-0.889,0.804,1.651,6.945,3.853,9.019
		c2.203,2.076,7.794,5.931,7.075,6.184c-0.721,0.255-13.341-4.657-15.713-7.538c-1.123,2.394-13.066,14.951-13.542,13.627
		s8.894-11.149,9.529-14.008c0.636-2.857-0.158-7.21-2.287-7.082c-2.126,0.125-5.844,7.813-5.844,7.813s-1.398-3.018-0.825-6.226
		c0.571-3.208,2.828-5.56,2.828-5.56s-4.48-4.796-6.575-6.891c-2.098-2.097-6.924-5.751-6.354-6.988
		c0.573-1.239,7.591,2.731,10.005,4.446c2.415,1.715,7.719,6.894,7.719,6.894s-2.033-6.448-3.557-10.801
		c-1.525-4.351-4.034-9.243-3.462-9.688c0.572-0.445,5.145,5.591,7.114,8.608s5.083,8.798,5.083,8.798s-0.509-8.1,0.158-13.436
		c0.667-5.337,2.922-10.705,4.002-10.323c1.08,0.381,1.239,4.732,3.556,10.228c2.32,5.495,3.908,8.005,4.956,7.337
		c1.049-0.667,2.022-7.708,1.387-17.956c-0.635-10.248-1.481-18.083-1.481-18.083s6.257-6.587,6.733-6.269
		c0.476,0.317,0.159,10.705,0.603,15.086c0.445,4.385,1.748,8.705,2.351,8.641c0.603-0.063,3.398-4.668,5.22-15.68
		c1.82-11.012,2.667-16.559,2.667-16.559s11.901-11.087,12.346-10.959c0.444,0.125,0.921,6.162,1.652,8.322
		c0.73,2.16,2.065,3.176,2.065,3.176s2.762-2.891,3.557-9.529c0.794-6.638,0.856-9.275,1.523-10.736s18.328-15.468,27.794-22.647
		c9.465-7.179,29.792-19.629,31.191-19.217C178.413,38.421,184.766,45.218,183.877,57.669z"/>
	<path fill="#231F20" d="M94.474,142.837c0,0,24.479-24.394,35.151-37.015c10.673-12.62,30.154-40.826,30.154-40.826
		s-24.563,26.935-36.76,41.25C110.822,120.559,94.474,142.837,94.474,142.837z"/>
</g>
</svg>
