<svg version="1.1" id="Layer_1" xmlns="http://www.w3.org/2000/svg" xmlns:xlink="http://www.w3.org/1999/xlink" x="0px" y="0px"
	 width="595.279px" height="595.28px" viewBox="0 123.305 595.279 595.28" enable-background="new 0 123.305 595.279 595.28"
	 xml:space="preserve">
<path fill="#231F20" d="M298.554,125.132c-163.876,0-296.725,132.848-296.725,296.728c0,163.88,132.848,296.726,296.725,296.726
	c104.494,0,296.726,0,296.726,0s0-237.345,0-296.726C595.28,257.98,462.431,125.132,298.554,125.132z M519.874,643.021h-54.71
	v-78.737c-40.464,47.277-100.507,77.331-167.471,77.331c-121.561,0-220.457-98.898-220.457-220.459s98.896-220.459,220.457-220.459
	c109.17,0,200.011,79.78,217.405,184.089h-55.725c-16.63-73.953-82.784-129.379-161.681-129.379
	c-91.393,0-165.747,74.354-165.747,165.749c0,91.393,74.354,165.749,165.747,165.749c61.165,0,114.659-33.33,143.381-82.752H326.293
	v-54.71h193.581V643.021z"/>
</svg>
