<svg version="1.1" id="Layer_1" xmlns="http://www.w3.org/2000/svg" xmlns:xlink="http://www.w3.org/1999/xlink" x="0px" y="0px"
	 width="595.279px" height="595.28px" viewBox="0 123.305 595.279 595.28" enable-background="new 0 123.305 595.279 595.28"
	 xml:space="preserve">
<g>
	<path fill="#000000" d="M296.979,324.193c45.862,0,84.316,32.218,93.982,75.204h32.392
		c-10.11-60.633-62.916-107.007-126.374-107.007c-70.663,0-128.15,57.484-128.15,128.15c0,70.657,57.487,128.146,128.15,128.146
		c38.923,0,73.824-17.465,97.347-44.951v45.771h31.803V436.981H313.601v31.803h66.723c-16.695,28.728-47.792,48.105-83.344,48.105
		c-53.127,0-96.347-43.226-96.347-96.349C200.632,367.413,243.852,324.193,296.979,324.193z"/>
	<path fill="#000000" d="M297.64,123.421c-164.317,0-297.524,133.207-297.524,297.524c0,164.316,133.207,297.523,297.524,297.523
		s297.523-133.207,297.523-297.523C595.163,256.627,461.957,123.421,297.64,123.421z M469.958,593.432c0,0-111.739,0-172.48,0
		c-95.26,0-172.48-77.226-172.48-172.484c0-95.263,77.221-172.483,172.48-172.483s172.48,77.22,172.48,172.483
		C469.958,455.465,469.958,593.432,469.958,593.432z"/>
</g>
</svg>
