<svg version="1.1" id="Layer_1" xmlns="http://www.w3.org/2000/svg" xmlns:xlink="http://www.w3.org/1999/xlink" x="0px" y="0px"
	 width="226.777px" height="226.777px" viewBox="0 0 226.777 226.777" enable-background="new 0 0 226.777 226.777"
	 xml:space="preserve">
<g>
	<path fill="#231F20" d="M98.626,87.318c-5.299,0-9.609,4.312-9.609,9.608c0,5.3,4.311,9.611,9.609,9.611
		c5.298,0,9.608-4.311,9.608-9.611C108.235,91.629,103.924,87.318,98.626,87.318z"/>
	<path fill="#231F20" d="M128.152,77.185c5.299,0,9.609-4.31,9.609-9.609c0-5.298-4.311-9.61-9.609-9.61s-9.609,4.312-9.609,9.61
		C118.543,72.875,122.853,77.185,128.152,77.185z"/>
	<path fill="#231F20" d="M128.152,139.46c5.299,0,9.609-4.311,9.609-9.61c0-5.299-4.311-9.609-9.609-9.609s-9.609,4.311-9.609,9.609
		C118.543,135.149,122.853,139.46,128.152,139.46z"/>
	<path fill="#231F20" d="M113.389,0C50.767,0,0,50.767,0,113.389c0,62.622,50.767,113.388,113.389,113.388
		c62.623,0,113.388-50.767,113.388-113.388C226.777,50.767,176.011,0,113.389,0z M62.461,63.382h48.208
		c1.897-7.903,9.006-13.802,17.483-13.802c9.922,0,17.994,8.073,17.994,17.996s-8.072,17.995-17.994,17.995
		c-8.477,0-15.585-5.899-17.483-13.802H70.847v53.887h39.822c1.897-7.902,9.006-13.802,17.483-13.802
		c9.922,0,17.994,8.073,17.994,17.995c0,9.923-8.072,17.996-17.994,17.996c-8.477,0-15.585-5.899-17.483-13.803H62.461V63.382z
		 M164.318,163.394h-48.209c-1.898,7.903-9.006,13.803-17.483,13.803c-9.923,0-17.995-8.073-17.995-17.997
		c0-9.922,8.072-17.995,17.995-17.995c8.477,0,15.584,5.898,17.483,13.802h39.822v-53.887h-39.822
		c-1.898,7.904-9.006,13.803-17.483,13.803c-9.923,0-17.995-8.073-17.995-17.997c0-9.922,8.072-17.994,17.995-17.994
		c8.477,0,15.584,5.897,17.483,13.802h48.209V163.394z"/>
	<path fill="#231F20" d="M98.626,149.592c-5.299,0-9.609,4.311-9.609,9.608c0,5.301,4.311,9.611,9.609,9.611
		c5.298,0,9.608-4.311,9.608-9.611C108.235,153.902,103.924,149.592,98.626,149.592z"/>
</g>
</svg>
