<svg version="1.1" id="Layer_1" xmlns="http://www.w3.org/2000/svg" xmlns:xlink="http://www.w3.org/1999/xlink" x="0px" y="0px"
	 width="226.777px" height="226.777px" viewBox="0 0 226.777 226.777" enable-background="new 0 0 226.777 226.777"
	 xml:space="preserve">
<g>
	<path fill="#231F20" d="M139.621,174.621c17.635,0,31.98-14.345,31.98-31.979s-14.346-31.979-31.98-31.979
		c-15.063,0-27.696,10.484-31.066,24.527H37.788V39.431h70.767c3.37,14.043,16.003,24.526,31.066,24.526
		c17.635,0,31.98-14.346,31.98-31.979S157.256,0,139.621,0c-15.063,0-27.696,10.482-31.066,24.526H22.885v125.569h85.669
		C111.925,164.138,124.558,174.621,139.621,174.621z M139.621,125.566c9.418,0,17.078,7.66,17.078,17.076
		c0,9.417-7.66,17.077-17.078,17.077c-9.414,0-17.076-7.66-17.076-17.077C122.545,133.226,130.207,125.566,139.621,125.566z
		 M139.621,14.902c9.418,0,17.078,7.662,17.078,17.077c0,9.417-7.66,17.076-17.078,17.076c-9.414,0-17.076-7.66-17.076-17.076
		C122.545,22.563,130.207,14.902,139.621,14.902z"/>
	<path fill="#231F20" d="M203.89,76.686h-85.67c-3.371-14.047-16.003-24.527-31.067-24.527c-17.633,0-31.979,14.344-31.979,31.977
		c0,17.635,14.346,31.98,31.979,31.98c15.064,0,27.696-10.483,31.067-24.529h70.768v95.762H118.22
		c-3.371-14.046-16.003-24.527-31.067-24.527c-17.633,0-31.979,14.346-31.979,31.979c0,17.635,14.346,31.98,31.979,31.98
		c15.064,0,27.696-10.483,31.067-24.529h85.67V76.686z M87.153,101.214c-9.417,0-17.076-7.659-17.076-17.078
		c0-9.414,7.66-17.076,17.076-17.076c9.416,0,17.077,7.662,17.077,17.076C104.23,93.555,96.569,101.214,87.153,101.214z
		 M87.153,211.879c-9.417,0-17.076-7.66-17.076-17.078c0-9.416,7.66-17.075,17.076-17.075c9.416,0,17.077,7.659,17.077,17.075
		C104.23,204.219,96.569,211.879,87.153,211.879z"/>
</g>
</svg>
