<svg version="1.1" id="Layer_1" xmlns="http://www.w3.org/2000/svg" xmlns:xlink="http://www.w3.org/1999/xlink" x="0px" y="0px"
	 viewBox="0 0 226.8 226.8" style="enable-background:new 0 0 226.8 226.8;" xml:space="preserve">
<path class="st0" d="M220.4,108h-71.7c-3.5,0-6.4,2.9-6.4,6.4v22.4c0,3.5,2.9,6.4,6.4,6.4h40c-10.6,24.8-34.4,41.8-63.9,40.7
	c-24.1-0.9-45.3-14.2-57.3-33.7h14.3c3.5,0,6.4-2.9,6.4-6.4v-5.4c0-3.5-2.9-6.4-6.4-6.4H59.6c-1.4-5.1-2.3-10.4-2.5-15.9
	c-0.2-5.8,0.3-11.3,1.4-16.7h23.4c3.5,0,6.4-2.9,6.4-6.4v-5.4c0-3.5-2.9-6.4-6.4-6.4H64.8c11.7-22.8,35.4-38.4,62.8-38.4
	c22.4,0,42.4,10.5,55.3,26.8c2.2,2.8,6.5,3.1,8.9,0.4l17.3-18.5c1.5-1.6,1.6-4.1,0.2-5.8c-19.8-23.9-49.8-39-83.4-38.5
	C79.6,8,40.1,39,26.5,81.3H6.4c-3.5,0-6.4,2.9-6.4,6.4V93c0,3.5,2.9,6.4,6.4,6.4h16.1c-0.5,3.8-0.8,7.6-0.9,11.4
	c-0.2,7.2,0.4,14.3,1.6,21.2H6.4c-3.5,0-6.4,2.9-6.4,6.4v5.4c0,3.5,2.9,6.4,6.4,6.4h21.7c15,40.5,53.9,69.3,99.5,69.3
	c78.6,0,99.2-67.4,99.2-82.7v-22.4C226.8,110.9,223.9,108,220.4,108z"/>
</svg>
