<?xml version="1.0" encoding="utf-8"?>
<!-- Generator: Adobe Illustrator 20.1.0, SVG Export Plug-In . SVG Version: 6.00 Build 0)  -->
<svg version="1.1" id="Vrstva_1" xmlns="http://www.w3.org/2000/svg" xmlns:xlink="http://www.w3.org/1999/xlink" x="0px" y="0px"
	 viewBox="0 0 226.8 226.8" style="enable-background:new 0 0 226.8 226.8;" xml:space="preserve">
<g>
	<path d="M150.536,91.192l-3.278,3.278c2.608,4.098,3.427,9.239,1.639,14.156c-2.98,8.345-12.219,12.741-20.639,9.76
		c-1.192-0.447-2.31-0.969-3.278-1.639l-10.506,10.506l-9.164-9.239c-4.247,2.831-9.686,3.651-14.827,1.863
		c-8.643-3.129-13.113-12.592-9.984-21.16c0.447-1.341,1.118-2.533,1.863-3.651l-3.949-3.949l-0.745,1.267
		c-4.098,6.706-6.333,14.454-6.333,22.427c-0.075,23.768,19.297,43.214,43.065,43.214h0.075c23.768,0,43.065-19.297,43.14-43.065
		c0-7.898-2.161-15.647-6.259-22.427L150.536,91.192z"/>
	<path d="M87.205,99.909c-1.118,1.49-1.788,3.353-1.788,5.365c0,4.843,3.949,8.792,8.792,8.792c2.012,0,3.874-0.671,5.365-1.863
		L87.205,99.909z"/>
	<g>
		<path d="M130.345,111.458c1.416,0.969,3.055,1.49,4.917,1.49c4.843,0,8.792-3.949,8.792-8.792c0-1.788-0.522-3.502-1.49-4.917
			L130.345,111.458z"/>
	</g>
	<g>
		<path d="M114.624,120.697L79.009,84.933l1.416-1.49c8.792-9.313,20.788-14.529,33.677-14.529h0.075
			c13.039,0,25.556,5.588,34.273,15.274l1.341,1.49L114.624,120.697z M84.821,84.933l29.803,29.877l29.43-29.281
			c-7.898-7.898-18.627-12.443-29.803-12.443h-0.075C103.075,73.086,92.718,77.259,84.821,84.933z"/>
	</g>
	<g>
		<g>
			<path d="M75.358,143.719l-4.172-0.298c-17.733-1.118-42.171-5.514-57.967-19.744c-9.76-8.717-11.623-16.988-11.698-17.36
				L1,103.783h64.523l-0.373,2.384c-0.298,2.161-0.447,4.396-0.447,6.557c0,9.835,2.831,19.372,8.27,27.493L75.358,143.719z"/>
		</g>
		<g>
			<path d="M153.442,143.719l2.31-3.502c5.439-8.121,8.27-17.584,8.27-27.344c0-2.235-0.149-4.545-0.447-6.706l-0.298-2.384H227.8
				l-0.522,2.533c-0.075,0.373-1.937,8.643-11.623,17.36c-15.796,14.231-40.308,18.627-58.041,19.744L153.442,143.719z"/>
		</g>
	</g>
</g>
</svg>
