<svg version="1.1" id="Layer_1" xmlns="http://www.w3.org/2000/svg" xmlns:xlink="http://www.w3.org/1999/xlink" x="0px" y="0px"
	 viewBox="0 0 226.8 226.8" style="enable-background:new 0 0 226.8 226.8;" xml:space="preserve">
<g>
	<path d="M113.766,44.195c-14.18,0-25.716,11.829-25.716,26.369s11.536,26.369,25.716,26.369c14.18,0,25.716-11.829,25.716-26.369
		S127.945,44.195,113.766,44.195z"/>
	<path d="M113.4,0C50.8,0,0,50.8,0,113.4s50.8,113.4,113.4,113.4S226.8,176,226.8,113.4S176,0,113.4,0z M147.346,70.564
		c0,17.52-12.979,31.999-29.648,33.991v23.474c16.669,1.992,29.648,16.471,29.648,33.991c0,18.877-15.064,34.234-33.581,34.234
		c-18.516,0-33.581-15.357-33.581-34.234c0-17.52,12.979-31.999,29.648-33.991v-23.474c-16.669-1.992-29.648-16.471-29.648-33.991
		c0-18.877,15.064-34.234,33.581-34.234c7.72,0,14.835,2.677,20.514,7.158l18.845-18.845l5.561,5.562l-18.833,18.833
		C144.534,54.924,147.346,62.414,147.346,70.564z"/>
	<path d="M88.05,162.02c0,14.54,11.536,26.369,25.716,26.369c14.18,0,25.716-11.829,25.716-26.369s-11.536-26.369-25.716-26.369
		C99.586,135.652,88.05,147.481,88.05,162.02z"/>
</g>
</svg>
