<svg version="1.1" id="Layer_1" xmlns="http://www.w3.org/2000/svg" xmlns:xlink="http://www.w3.org/1999/xlink" x="0px" y="0px"
	 viewBox="0 0 226.8 226.8" style="enable-background:new 0 0 226.8 226.8;" xml:space="preserve">
<path d="M160.287,60.688c0-10.771-3.717-20.67-9.904-28.448l24.89-24.89L167.923,0l-24.905,24.905
	c-7.505-5.923-16.908-9.46-27.111-9.46c-24.471,0-44.38,20.296-44.38,45.243c0,23.154,17.153,42.289,39.183,44.923v31.024
	c-22.03,2.633-39.183,21.769-39.183,44.923c0,24.947,19.909,45.243,44.38,45.243s44.38-20.296,44.38-45.243
	c0-23.154-17.153-42.289-39.183-44.923v-31.024C143.134,102.978,160.287,83.842,160.287,60.688z M81.921,60.688
	c0-19.216,15.246-34.849,33.986-34.849s33.986,15.633,33.986,34.849s-15.246,34.849-33.986,34.849S81.921,79.904,81.921,60.688z
	 M149.893,181.557c0,19.216-15.246,34.849-33.986,34.849s-33.986-15.633-33.986-34.849s15.246-34.849,33.986-34.849
	S149.893,162.341,149.893,181.557z"/>
</svg>
