<svg version="1.1" id="Layer_1" xmlns="http://www.w3.org/2000/svg" xmlns:xlink="http://www.w3.org/1999/xlink" x="0px" y="0px"
	 width="226.777px" height="226.777px" viewBox="0 0 226.777 226.777" enable-background="new 0 0 226.777 226.777"
	 xml:space="preserve">
<g id="GRC_alt">
	<path fill="#231F20" d="M215.33,97.578h-97.026v6.954h97.819C215.925,102.203,215.68,99.877,215.33,97.578z"/>
	<path fill="#231F20" d="M223.802,87.603v0.101H118.303v5.552h100.68l0.313,1.795c1.029,6.025,1.558,12.202,1.558,18.363
		c0,50.049-35.403,94.266-84.177,105.139l-2.193,0.485l-8.921-48.513l1.958-0.494c15.059-3.818,27.95-13.52,35.857-26.849h-45.074
		v6.864h14.744c-5.828,3.123-12.487,4.896-19.559,4.896c-22.891,0-41.453-18.559-41.453-41.454
		c0-22.895,18.562-41.454,41.453-41.454c8.777,0,16.918,2.727,23.618,7.375h84.451c-14.466-45.926-57.379-79.21-108.069-79.21
		C50.926,0.202,0.202,50.914,0.202,113.49c0,62.567,50.724,113.287,113.287,113.287c62.563,0,113.288-50.72,113.288-113.287
		C226.777,104.583,225.748,95.911,223.802,87.603z M99.573,6.545c4.469-0.563,9.031-0.849,13.559-0.849
		c43.954,0,83.104,26.285,99.742,66.964l1.215,2.98h-56.415l-0.643-0.735c-11.097-12.638-27.099-19.883-43.899-19.883
		c-1.355,0-2.701,0.045-4.035,0.139l-1.891,0.131L97.257,6.836L99.573,6.545z M122.465,220.736c-3.063,0.261-6.199,0.396-9.329,0.4
		c-47.576,0-90.103-31.862-103.418-77.49l-0.6-2.049l54.214-16.47c-0.891-3.769-1.41-7.679-1.41-11.713
		c0-21.47,13.3-39.867,32.078-47.461L82.774,14.545c-43.123,13.22-73.04,53.547-73.04,98.869c0,4.156,0.252,8.337,0.741,12.464
		l39.943-11.983c0-0.16,0-0.321,0-0.481c0-20.66,10.25-39.908,27.057-51.555c-0.211-0.591-0.376-1.207-0.376-1.874
		c0-3.037,2.461-5.502,5.502-5.502c3.043,0,5.503,2.465,5.503,5.502c0,3.038-2.46,5.504-5.503,5.504
		c-0.764,0-1.494-0.161-2.156-0.44C64.488,75.851,54.74,93.97,54.74,113.414c0,0.667,0.009,1.333,0.034,1.996l0.06,1.671
		L6.89,131.466l-0.354-2.481c-0.742-5.127-1.123-10.368-1.123-15.57c0-48.015,32.237-90.651,78.392-103.676l2.203-0.62
		l12.089,55.349c4.755-1.464,9.802-2.261,15.035-2.261c5.847,0,11.527,1.008,16.953,2.915c1-1.194,2.448-1.996,4.131-1.996
		c3.022,0,5.47,2.447,5.47,5.468c0,3.022-2.447,5.47-5.47,5.47c-2.227,0-4.122-1.341-4.979-3.25
		c-5.135-1.941-10.527-2.988-16.105-2.988c-25.141,0-45.589,20.448-45.589,45.589c0,25.14,20.448,45.593,45.589,45.593
		c6.367,0,12.642-1.411,18.422-3.958c0.667-2.267,2.675-3.955,5.161-3.955c3.021,0,5.469,2.447,5.469,5.469
		s-2.447,5.469-5.469,5.469c-1.435,0-2.722-0.582-3.692-1.486c-5.367,2.259-11.099,3.558-16.937,3.899l8.682,56.092L122.465,220.736
		z"/>
	<path fill="#231F20" d="M64.479,129.296l-6.887,2.094c5.815,17.984,20.021,32.074,37.994,37.724
		c0.945-1.663,2.666-2.836,4.717-2.836c3.037,0,5.501,2.465,5.501,5.502c0,3.038-2.464,5.503-5.501,5.503
		c-2.439,0-4.439-1.612-5.161-3.807c-19.727-5.895-35.363-21.204-41.68-40.833l-38.977,11.84
		c13.439,42.698,53.699,72.333,98.646,72.333c2.228-0.004,4.455-0.076,6.653-0.215l-8.055-52.045
		C89.653,163.953,71.036,149.348,64.479,129.296z"/>
	<path fill="#231F20" d="M126.927,127.036c-1.491,0-2.702,1.209-2.702,2.703s1.211,2.706,2.702,2.706
		c1.487,0,2.699-1.212,2.699-2.706S128.414,127.036,126.927,127.036z"/>
	<path fill="#231F20" d="M113.132,50.703c17.719,0,34.6,7.502,46.491,20.616h47.976c-16.625-37.351-53.355-61.302-94.467-61.302
		c-3.566,0-7.157,0.186-10.697,0.548l8.253,40.183C111.498,50.719,112.313,50.703,113.132,50.703z"/>
	<path fill="#231F20" d="M168.965,142.011c-7.935,15.446-21.861,26.902-38.433,31.679l7.385,40.133
		c39.622-9.759,69.606-42.55,76.882-81.922h-81.675c-0.903,2.572-3.326,4.435-6.197,4.435c-3.634,0-6.592-2.959-6.592-6.597
		s2.958-6.594,6.592-6.594c2.871,0,5.294,1.86,6.197,4.435h82.328c0.358-2.563,0.636-5.136,0.802-7.744h-71.1
		c-0.899,2.575-3.326,4.436-6.199,4.436c-3.633,0-6.591-2.958-6.591-6.596c0-3.637,2.958-6.596,6.591-6.596
		c2.873,0,5.3,1.862,6.199,4.437h71.289c0.014-0.706,0.089-1.394,0.089-2.102c0-1.52-0.105-3.039-0.173-4.562h-98.056v30.01h52.272
		L168.965,142.011z"/>
	<circle fill="#231F20" cx="138.955" cy="117.676" r="2.705"/>
	<path fill="#231F20" d="M117.123,104.531c-0.903-2.574-3.326-4.435-6.199-4.435c-3.632,0-6.591,2.958-6.591,6.597
		c0,3.635,2.958,6.594,6.591,6.594c2.873,0,5.295-1.86,6.199-4.435h1.181v-4.321H117.123z M110.924,109.396
		c-1.49,0-2.701-1.21-2.701-2.703c0-1.496,1.21-2.706,2.701-2.706c1.49,0,2.702,1.21,2.702,2.706
		C113.626,108.186,112.414,109.396,110.924,109.396z"/>
	<path fill="#231F20" d="M117.663,138.862c-0.903-2.574-3.324-4.434-6.198-4.434c-3.633,0-6.592,2.958-6.592,6.595
		s2.958,6.595,6.592,6.595c2.874,0,5.295-1.861,6.198-4.435h0.641v-4.321H117.663z M111.465,143.728
		c-1.49,0-2.701-1.212-2.701-2.705s1.211-2.705,2.701-2.705c1.489,0,2.699,1.212,2.699,2.705S112.954,143.728,111.465,143.728z"/>
	<path fill="#231F20" d="M104.304,93.256c-0.899-2.573-3.325-4.434-6.195-4.434c-3.638,0-6.59,2.958-6.59,6.595
		c0,3.638,2.953,6.595,6.59,6.595c2.871,0,5.296-1.859,6.195-4.434h14v-4.322H104.304z M98.109,98.122
		c-1.493,0-2.699-1.21-2.699-2.705c0-1.494,1.206-2.705,2.699-2.705c1.486,0,2.701,1.211,2.701,2.705
		C100.809,96.911,99.594,98.122,98.109,98.122z"/>
</g>
</svg>
