<svg version="1.1" id="Layer_1" xmlns="http://www.w3.org/2000/svg" xmlns:xlink="http://www.w3.org/1999/xlink" x="0px" y="0px"
	 width="226.777px" height="226.777px" viewBox="0 0 226.777 226.777" enable-background="new 0 0 226.777 226.777"
	 xml:space="preserve">
<g id="GRC">
	<circle fill="#231F20" cx="111.893" cy="132.846" r="1.914"/>
	<circle fill="#231F20" cx="111.512" cy="108.548" r="1.914"/>
	<path fill="#231F20" d="M123.259,153.379l-1.387,0.352l6.314,34.337l1.553-0.343c34.521-7.7,59.58-38.994,59.58-74.419
		c0-4.362-0.376-8.732-1.103-12.999l-0.221-1.269h-71.261v3.061h68.675c0.247,1.627,0.421,3.271,0.56,4.919h-69.234v3.06h69.402
		c0.048,1.078,0.123,2.152,0.123,3.228c0,0.501-0.055,0.987-0.063,1.489H135.74c-0.638-1.823-2.354-3.14-4.388-3.14
		c-2.571,0-4.667,2.093-4.667,4.668c0,2.574,2.096,4.667,4.667,4.667c2.033,0,3.75-1.318,4.388-3.141h50.323
		c-0.117,1.848-0.313,3.668-0.567,5.482h-58.272c-0.638-1.821-2.354-3.138-4.386-3.138c-2.572,0-4.665,2.091-4.665,4.668
		c0,2.571,2.093,4.667,4.665,4.667c2.032,0,3.748-1.316,4.386-3.139h57.811c-5.15,27.867-26.374,51.074-54.417,57.982l-5.227-28.404
		c11.729-3.382,21.586-11.491,27.201-22.423l1.142-2.228h-36.998v3.056h31.902C143.041,143.811,133.917,150.677,123.259,153.379z
		 M131.352,118.238c-1.056,0-1.912-0.859-1.912-1.915c0-1.059,0.856-1.916,1.912-1.916c1.054,0,1.91,0.857,1.91,1.916
		C133.262,117.379,132.406,118.238,131.352,118.238z M122.838,126.774c-1.055,0-1.912-0.856-1.912-1.912
		c0-1.06,0.857-1.915,1.912-1.915c1.053,0,1.911,0.855,1.911,1.915C124.749,125.918,123.89,126.774,122.838,126.774z"/>
	<path fill="#231F20" d="M102.442,98.652c-1.058,0-1.911,0.859-1.911,1.915c0,1.059,0.854,1.914,1.911,1.914
		c1.051,0,1.91-0.855,1.91-1.914C104.352,99.511,103.493,98.652,102.442,98.652z"/>
	<path fill="#231F20" d="M127.153,146.666c0.687,0.64,1.598,1.05,2.612,1.05c2.139,0,3.872-1.73,3.872-3.869
		c0-2.137-1.733-3.872-3.872-3.872c-1.759,0-3.18,1.195-3.651,2.8c-4.092,1.803-8.534,2.801-13.04,2.801
		c-17.795,0-32.269-14.476-32.269-32.27c0-17.793,14.474-32.268,32.269-32.268c3.949,0,7.767,0.742,11.399,2.115
		c0.606,1.351,1.947,2.301,3.524,2.301c2.139,0,3.871-1.733,3.871-3.874c0-2.136-1.732-3.87-3.871-3.87
		c-1.19,0-2.217,0.568-2.925,1.414c-3.839-1.35-7.861-2.065-11.999-2.065c-3.704,0-7.275,0.564-10.642,1.603l-8.556-39.177
		l-1.56,0.438c-32.667,9.219-55.485,39.397-55.485,73.381c0,3.682,0.27,7.392,0.794,11.021l0.251,1.756l33.935-10.181l-0.043-1.184
		c-0.016-0.468-0.022-0.94-0.022-1.412c0-13.761,6.898-26.587,18.193-34.231c0.468,0.196,0.985,0.311,1.526,0.311
		c2.153,0,3.894-1.746,3.894-3.894c0-2.151-1.741-3.897-3.894-3.897c-2.153,0-3.895,1.746-3.895,3.897
		c0,0.469,0.117,0.906,0.267,1.324c-11.896,8.245-19.151,21.868-19.151,36.491c0,0.114,0,0.228,0,0.341l-28.271,8.481
		c-0.345-2.919-0.524-5.879-0.524-8.822c0-32.079,21.174-60.621,51.696-69.978l7.945,36.386
		C86.242,85.09,76.829,98.11,76.829,113.305c0,2.855,0.368,5.623,0.997,8.291l-38.37,11.658l0.424,1.449
		c9.424,32.294,39.523,54.847,73.198,54.847c2.214-0.002,4.434-0.098,6.603-0.284l1.628-0.141l-6.145-39.701
		C119.297,149.181,123.355,148.262,127.153,146.666z M117.783,186.341c-1.557,0.098-3.133,0.147-4.709,0.151
		c-31.813,0-60.308-20.976-69.821-51.198l27.588-8.376c4.472,13.89,15.539,24.726,29.5,28.896c0.511,1.556,1.927,2.696,3.652,2.696
		c2.151,0,3.893-1.744,3.893-3.896s-1.742-3.894-3.893-3.894c-1.452,0-2.67,0.829-3.337,2.009
		c-12.722-4-22.777-13.973-26.892-26.701l4.874-1.481c4.642,14.192,17.818,24.528,33.443,24.955L117.783,186.341z"/>
	<path fill="#231F20" d="M113.327,0.031C50.738,0.031,0,50.77,0,113.359c0,62.588,50.738,113.327,113.327,113.327
		s113.327-50.738,113.327-113.327C226.654,50.77,175.916,0.031,113.327,0.031z M113.327,193.542
		c-44.282,0-80.183-35.898-80.183-80.182c0-44.292,35.901-80.184,80.183-80.184c35.879,0,66.253,23.558,76.49,56.063h-59.774
		c-4.741-3.289-10.502-5.219-16.716-5.219c-16.202,0-29.339,13.135-29.339,29.34c0,16.204,13.137,29.341,29.339,29.341
		c5.006,0,9.719-1.256,13.844-3.468h-10.436v-4.859h-0.453c-0.64,1.824-2.354,3.142-4.389,3.142c-2.571,0-4.666-2.094-4.666-4.668
		s2.094-4.668,4.666-4.668c2.035,0,3.749,1.316,4.389,3.139h0.453v-21.24h-0.837c-0.638,1.822-2.354,3.139-4.386,3.139
		c-2.572,0-4.666-2.094-4.666-4.668c0-2.575,2.093-4.669,4.666-4.669c2.031,0,3.748,1.319,4.386,3.139h0.837v-4.919h-9.91
		c-0.637,1.822-2.354,3.138-4.383,3.138c-2.577,0-4.666-2.094-4.666-4.669c0-2.573,2.089-4.667,4.666-4.667
		c2.03,0,3.747,1.319,4.383,3.138h9.91v-3.93h74.671v-0.071c1.375,5.88,2.105,12.02,2.105,18.322
		C193.511,157.643,157.609,193.542,113.327,193.542z"/>
	<path fill="#231F20" d="M110.219,72.077c0.943-0.068,1.896-0.1,2.855-0.1c11.893,0,23.217,5.129,31.071,14.072l0.454,0.522h39.933
		l-0.861-2.11c-11.776-28.793-39.486-47.396-70.597-47.396c-3.205,0-6.433,0.201-9.596,0.599l-1.64,0.208l7.042,34.296
		L110.219,72.077z M113.074,40.124c29.098,0,55.096,16.951,66.863,43.389H145.98c-8.417-9.283-20.364-14.593-32.906-14.593
		c-0.58,0-1.155,0.011-1.729,0.032l-5.841-28.44C108.009,40.253,110.551,40.124,113.074,40.124z"/>
</g>
</svg>
