<svg version="1.1" id="Layer_1" xmlns="http://www.w3.org/2000/svg" xmlns:xlink="http://www.w3.org/1999/xlink" x="0px" y="0px"
	 viewBox="0 0 226.8 226.8" style="enable-background:new 0 0 226.8 226.8;" xml:space="preserve">
<g>
	<path class="st0" d="M114.7,149.8c6.7,0,12.3-2.5,16.6-7.6c4.3-5.1,6.5-13,6.5-23.8c0-14.1-3.1-25.1-9.2-33.1
		c-4.5-5.9-10.3-8.8-17.4-8.8c-6.6,0-12.1,2.6-16.5,7.8c-4.4,5.2-6.7,13.3-6.7,24.1c0,14,3,24.9,9,32.6
		C101.7,146.9,107.6,149.8,114.7,149.8z"/>
	<path class="st0" d="M160.2,202.1c-4.6-2-13.7-3.1-27.4-3.5c-20-0.5-35.3-1.6-46-3.1c-4.2,4.5-7.3,8.7-9.4,12.6
		c-2.1,3.9-3.2,7.5-3.2,10.8c0,0.2,0,0.4,0,0.6l0.1,0.3c12.2,4.5,25.4,7,39.2,7c19.3,0,37.5-4.8,53.5-13.4l0-0.2
		c0-0.4,0.1-0.9,0.1-1.3C166.9,207.3,164.7,204,160.2,202.1z"/>
	<path class="st0" d="M113.4,0C50.8,0,0,50.8,0,113.4c0,44,25,82.1,61.7,100.9l0.4-0.6l0,0c1.1-1.5,2.3-3.1,3.7-4.9
		c0.6-0.8,5.1-5.6,13.6-14.4c-4.6-2.7-7.9-5.2-9.8-7.4c-1.9-2.2-2.9-4.6-2.9-7.4c0-3.1,1.3-6.7,3.8-10.9c2.5-4.2,8.4-10.1,17.5-17.7
		c-7.4-3.6-13.2-8.7-17.2-15.2c-4-6.5-6-13.7-6-21.6c0-12.1,4.5-22.4,13.6-31.1c9.1-8.7,20.7-13,34.9-13c11.3,0,21.2,2.7,29.6,8.1
		c7.5-7.4,13.1-13.6,16.8-18.7c4.9-6.9,7.3-13.2,7.3-18.9c0-4.4-1.3-7.9-4-10.8c-2.7-2.8-5.9-4.2-9.6-4.2c-3.4,0-6.4,1-9.1,3
		c-2.7,2-4.7,4.9-6,8.7h-1.9c0.8-6.3,3-11.1,6.5-14.4c3.5-3.3,7.9-5,13.1-5c5.6,0,10.2,1.8,14,5.4c3.7,3.6,5.6,7.8,5.6,12.7
		c0,3.5-0.8,7-2.4,10.5c-2.5,5.5-6.6,11.3-12.2,17.4c-8.4,9.2-13.7,14.7-15.8,16.6h18c3.7,0,6.2-0.1,7.7-0.4c1.5-0.3,2.8-0.8,4-1.6
		c1.2-0.8,2.2-2,3.1-3.5h1.9l-6.7,17.3h-18.7c4.3,6.2,6.4,13.8,6.4,23c0,11.4-4.3,21.1-13,29.1c-8.7,8.1-20.4,12.1-35,12.1
		c-6,0-12.2-0.9-18.5-2.7c-3.9,3.4-6.5,6.3-7.9,8.8c-1.4,2.5-2.1,4.7-2.1,6.5c0,1.5,0.7,3,2.2,4.4c1.5,1.4,4.3,2.4,8.6,3.1
		c2.5,0.4,8.7,0.7,18.6,0.9c18.3,0.4,30.1,1.1,35.5,1.9c8.2,1.2,14.8,4.2,19.8,9.2c4.9,5,7.4,11.1,7.4,18.4c0,0.2,0,0.3,0,0.5l0,0
		v0.3c30.2-20.4,50.1-54.9,50.1-94.1C226.8,50.8,176,0,113.4,0z"/>
</g>
</svg>
