<svg width="227" height="227" viewBox="0 0 227 227" xmlns="http://www.w3.org/2000/svg"><title>gto</title><path d="M110.283 72.505c-5.567-9.571-10.659-16.085-15.442-19.608-5.903-4.345-11.95-4.385-16.69.268-4.506 4.424-4.926 10.007-1.468 15.28.898 1.37 2.056 2.725 3.459 4.06h-20.85c-5.602 0-9.636 4.73-9.636 9.46 0 5.499 4.818 9.458 9.636 9.458h49.782V78.811h8.03v12.612h50.604c5.602 0 9.636-4.73 9.636-9.459 0-5.5-4.818-9.459-9.636-9.459H147.08c1.368-1.403 2.467-2.839 3.282-4.302 2.923-5.245 2.091-10.694-2.334-15.038-4.739-4.653-10.787-4.613-16.69-.268-4.783 3.523-9.875 10.037-15.442 19.608h-5.612zm-9.332 0h-7.237c-5.078-2.882-8.6-5.766-10.28-8.327-1.469-2.24-1.358-3.719.395-5.44 1.709-1.677 3.298-1.667 6.194.465 3.137 2.31 6.819 6.756 10.928 13.302zm24.276 0c4.11-6.546 7.791-10.992 10.928-13.302 2.896-2.132 4.485-2.142 6.195-.464 1.918 1.883 2.168 3.525.967 5.681-1.392 2.498-4.595 5.301-9.43 8.085h-8.66zM113.5 227C50.816 227 0 176.184 0 113.5S50.816 0 113.5 0 227 50.816 227 113.5 176.184 227 113.5 227zm-4.426-127.694H56.883v51.237c-.053 5.242 2.045 10.285 5.82 13.992 3.777 3.706 8.914 5.766 14.254 5.714h32.117V99.306zm8.03 0v70.943h32.118c5.34.052 10.476-2.008 14.253-5.714 3.776-3.707 5.874-8.75 5.82-13.992V99.306h-52.191z"/></svg>