<svg width="227" height="227" viewBox="0 0 227 227" xmlns="http://www.w3.org/2000/svg"><title>Shape</title><path d="M108.438 47.277C98.54 30.26 89.488 18.68 80.984 12.418c-10.493-7.726-21.245-7.795-29.67.476-8.011 7.864-8.757 17.79-2.61 27.164 1.596 2.436 3.655 4.844 6.149 7.219H17.786c-9.96 0-17.13 8.408-17.13 16.816 0 9.777 8.565 16.816 17.13 16.816h88.503V58.488h14.274v22.421h89.964c9.959 0 17.13-8.408 17.13-16.816 0-9.777-8.566-16.816-17.13-16.816h-36.674c2.432-2.495 4.384-5.047 5.834-7.649 5.196-9.325 3.717-19.012-4.149-26.734-8.425-8.271-19.177-8.202-29.67-.476-8.505 6.262-17.557 17.842-27.454 34.859h-9.976zm-16.59 0H78.98c-9.028-5.124-15.29-10.25-18.275-14.804-2.612-3.984-2.414-6.611.701-9.67 3.04-2.983 5.864-2.965 11.013.826 5.577 4.107 12.122 12.01 19.428 23.648zm43.156 0c7.306-11.638 13.85-19.541 19.428-23.648 5.15-3.79 7.974-3.81 11.012-.826 3.41 3.348 3.856 6.266 1.72 10.1-2.475 4.441-8.168 9.424-16.765 14.374h-15.395zM106.29 94.922H13.503v91.088c-.094 9.32 3.636 18.284 10.349 24.874s15.845 10.252 25.338 10.16h57.099V94.921zm14.274 0v126.121h57.099c9.493.093 18.625-3.569 25.338-10.159 6.713-6.59 10.443-15.555 10.348-24.874V94.922h-92.785z"/></svg>