<svg width="227" height="227" viewBox="0 0 227 227" xmlns="http://www.w3.org/2000/svg"><title>gup</title><path d="M113.5 227C50.813 227 0 176.187 0 113.5S50.813 0 113.5 0 227 50.813 227 113.5 176.187 227 113.5 227zm-.07-137.058l19.862-20.005A230.291 230.291 0 0 0 113.5 42.563 231.072 231.072 0 0 0 93.68 70.05l19.75 19.89zm40.561 19.933c-5.384-11.889-10.747-22.941-16.954-33.681L113.43 99.972l-23.48-23.65c-5.874 10.2-11.052 20.813-16.174 32.326-5.576 15.62-14.74 32.468-6.88 47.464 13.527 25.85 45.307 35.852 70.98 22.24a53.224 53.224 0 0 0 22.075-22.24c7.796-14.996-.383-30.616-5.959-46.23v-.007z"/></svg>