<svg width="227" height="227" viewBox="0 0 227 227" xmlns="http://www.w3.org/2000/svg"><title>Shape</title><path d="M115.18 76.37l31.78-32.008a368.468 368.468 0 0 0-31.666-43.8 369.716 369.716 0 0 0-31.712 43.982l31.599 31.825zm64.9 31.893c-8.614-19.023-17.195-36.706-27.126-53.89L115.18 92.418l-37.569-37.84c-9.398 16.32-17.683 33.3-25.878 51.721-8.921 24.993-23.585 51.95-11.01 75.944 21.645 41.36 72.493 57.363 113.569 35.582a85.16 85.16 0 0 0 35.321-35.582c12.474-23.994-.613-48.987-9.534-73.969v-.011z"/></svg>