<svg version="1.1" id="Layer_1" xmlns="http://www.w3.org/2000/svg" xmlns:xlink="http://www.w3.org/1999/xlink" x="0px" y="0px"
	 viewBox="0 0 226.8 226.8" style="enable-background:new 0 0 226.8 226.8;" xml:space="preserve">
<path d="M113.4,0C50.8,0,0,50.8,0,113.4s50.8,113.4,113.4,113.4S226.8,176,226.8,113.4S176,0,113.4,0z M100.559,40.621h25.683
	l1.271,51.711H99.287L100.559,40.621z M72.152,156.099c-15.524-0.194-27.435-13.921-25.372-29.359l5.614-42.004
	c1.797-13.443,13.001-23.548,26.441-24.106L72.152,156.099z M96.979,186.179l1.753-71.289h29.335l1.753,71.289H96.979z
	 M154.648,156.099l-6.683-95.468c13.439,0.558,24.644,10.662,26.441,24.106l5.614,42.004
	C182.083,142.178,170.172,155.905,154.648,156.099z"/>
</svg>
