<svg xmlns="http://www.w3.org/2000/svg" viewBox="0 0 213.3 165.3"><path d="M155.1 153.7v-10.4c0-.6-.1-1.2.1-1.8h-26.1l.3 12.2c0 2.9-2.4 5.3-5.3 5.3h-2.3v6.2h40.9V159h-2.3c-2.9 0-5.3-2.3-5.3-5.3z"/><path d="M176.9 97.2v6.4l-7.1 12.2h-14.6V49.6h14.4l6.1 11.1v6.4h37.5V62h-3.6s-1.4-1.2-2.4-2.8-17.9-31.4-18.2-31.6h-33.8c0-.7-.1-1.4-.1-1.7V11.6c0-2.9 2.4-5.3 5.3-5.3h2.3V0h-40.9v6.2h2.3c2.9 0 5.3 2.4 5.3 5.3v14.3c0 .3 0 1-.1 1.7H90.7c0-.7-.1-1.4-.1-1.7V11.6c0-2.9 2.4-5.3 5.3-5.3h2.3V0H57.4v6.2h2.3c2.9 0 5.3 2.4 5.3 5.3v14.3c0 .3 0 1-.1 1.7H32.4L0 82.8l31.8 54.8h33.1c.1.7.2 1.5.2 1.9v14.3c0 2.9-2.4 5.3-5.3 5.3h-2.3v6.2h40.9V159H96c-2.9 0-5.3-2.4-5.3-5.3v-14.3c0-.4.1-1.3.2-1.9h98.8l15.5-30s1.2-4.2 8.2-4.2v-6h-36.5zm-47.5 18.6H90.5v-23h38.8v23zm.1-44.7h-39v-18H64.7v62.3H50.4L31.9 83.2 51 49.9h78.3c.4-.3.2 21.2.2 21.2z"/></svg>