<svg xmlns="http://www.w3.org/2000/svg" viewBox="0 0 201.5 206"><path d="M59 130.3c-5-7.7-8-17-8-26.9C51 76.1 73.1 54 100.4 54c8.8 0 17 2.3 24.2 6.3L148.8 38c-13.5-10-30.2-16-48.3-16-44.9 0-81.2 36.4-81.2 81.2 0 18.3 6 35.1 16.2 48.7L59 130.3zm82.4-54.4c5.3 7.9 8.4 17.3 8.4 27.5 0 27.3-22.1 49.3-49.3 49.3-9.1 0-17.5-2.4-24.8-6.7l-24.1 22.2c13.6 10.3 30.5 16.4 48.9 16.4 44.9 0 81.2-36.4 81.2-81.2 0-18.5-6.2-35.6-16.7-49.3l-23.6 21.8z"/><circle cx="180.2" cy="21.2" r="21.2"/><circle cx="21.2" cy="184.8" r="21.2"/></svg>