<svg version="1.1" id="Layer_1" xmlns="http://www.w3.org/2000/svg" xmlns:xlink="http://www.w3.org/1999/xlink" x="0px" y="0px"
	 width="226.777px" height="226.777px" viewBox="0 0 226.777 226.777" enable-background="new 0 0 226.777 226.777"
	 xml:space="preserve">
<path fill="#231F20" d="M174.257,166.804c-26.777,0-46.1-15.938-61.738-32.363c-16.191,16.875-34.902,32.363-60.293,32.363
	C18.304,166.804,0,139.008,0,112.853c0-26.279,17.94-52.881,52.226-52.881c25.959,0,44.537,15.818,60.473,32.806
	c16.381-17.069,35.426-32.806,61.559-32.806c34.485,0,53.093,27.792,53.093,53.94C227.349,140.197,209.112,166.804,174.257,166.804z
	 M131.698,113.675c14.46,15.362,26.598,24.954,42.559,24.954c18.392,0,24.917-13.314,24.917-24.717
	c0-9.569-5.247-25.764-24.917-25.764C158.272,88.148,144.995,99.614,131.698,113.675z M52.225,88.148
	c-22.89,0-24.05,20.579-24.05,24.705c0,9.575,5.065,25.776,24.05,25.776c15.271,0,28.248-11.273,41.307-25.1
	C80.336,99.212,67.919,88.148,52.225,88.148z"/>
</svg>
