<svg version="1.1" id="Layer_1" xmlns="http://www.w3.org/2000/svg" xmlns:xlink="http://www.w3.org/1999/xlink" x="0px" y="0px"
	 width="226.777px" height="226.777px" viewBox="0 0 226.777 226.777" enable-background="new 0 0 226.777 226.777"
	 xml:space="preserve">
<g>
	<path fill="#231F20" d="M153.61,96.912c-10.5,0-19.221,7.532-27.956,16.77c9.498,10.091,17.473,16.393,27.956,16.393
		c12.084,0,16.37-8.746,16.37-16.238C169.98,107.551,166.534,96.912,153.61,96.912z"/>
	<path fill="#231F20" d="M73.446,96.912c-15.038,0-15.799,13.52-15.799,16.229c0,6.29,3.328,16.934,15.799,16.934
		c10.032,0,18.557-7.406,27.134-16.49C91.912,104.179,83.756,96.912,73.446,96.912z"/>
	<path fill="#231F20" d="M113.494,0C50.813,0,0,50.813,0,113.494s50.813,113.494,113.494,113.494s113.494-50.813,113.494-113.494
		S176.175,0,113.494,0z M153.61,148.584c-17.59,0-30.284-10.471-40.556-21.26c-10.637,11.086-22.928,21.26-39.608,21.26
		c-22.283,0-34.31-18.26-34.31-35.443c0-17.263,11.786-34.738,34.31-34.738c17.052,0,29.258,10.391,39.725,21.55
		c10.761-11.212,23.273-21.55,40.439-21.55c22.656,0,34.88,18.257,34.88,35.435C188.49,131.104,176.51,148.584,153.61,148.584z"/>
</g>
</svg>
