<svg width="227" height="227" viewBox="0 0 227 227" xmlns="http://www.w3.org/2000/svg"><title>Shape</title><path d="M104.616 0c-11.395 32.801-24.97 64.865-36.853 97.496 8.251 14.733 16.083 29.68 24.436 44.334l62.936-109.766C138.053 21.735 121.845 10.079 104.616 0zM50 227c18.103-.386 36.184-.159 54.287-.159 27.092-48.135 54.605-96.055 81.913-144.1a18391.433 18391.433 0 0 1-28.33-49.599C122.64 98.121 85.628 162.202 50 227zm57.68-.261c24.063-14.176 48.113-28.375 72.016-42.846-9.046-11.714-18.296-23.302-27.41-34.958-15.288 25.696-29.51 51.983-44.605 77.804z"/></svg>