<svg width="227" height="227" viewBox="0 0 227 227" xmlns="http://www.w3.org/2000/svg"><title>ignis</title><path d="M113.5 227C50.813 227 0 176.187 0 113.5S50.813 0 113.5 0 227 50.813 227 113.5 176.187 227 113.5 227zm-8.427-184.438c-7.122 20.501-15.607 40.541-23.034 60.936 5.157 9.207 10.052 18.55 15.273 27.708l39.335-68.604c-10.676-6.455-20.806-13.74-31.574-20.04zM70.938 184.438c11.314-.24 22.614-.099 33.929-.099 16.933-30.084 34.128-60.034 51.195-90.062a11494.78 11494.78 0 0 1-17.706-31c-22.018 40.612-45.151 80.663-67.418 121.161zm36.05-.163c15.039-8.86 30.07-17.734 45.01-26.779-5.654-7.32-11.435-14.563-17.132-21.848-9.555 16.06-18.443 32.49-27.878 48.627z"/></svg>