<svg version="1.1" id="Layer_1" xmlns="http://www.w3.org/2000/svg" xmlns:xlink="http://www.w3.org/1999/xlink" x="0px" y="0px"
	 width="226.777px" height="226.777px" viewBox="0 0 226.777 226.777" enable-background="new 0 0 226.777 226.777"
	 xml:space="preserve">
<g>
	<path fill="#231F20" d="M88.843,78.343v145.741c7.9,1.744,16.108,2.671,24.534,2.671c8.424,0,16.632-0.927,24.533-2.671V78.343
		c0,0-9.48-5.764-24.533-5.764C98.322,72.579,88.843,78.343,88.843,78.343z"/>
	<path fill="#231F20" d="M0,113.379c0,49.594,31.847,91.746,76.205,107.134v-43.618c-21.789-12.779-36.43-36.431-36.43-63.516
		c0-27.087,14.641-50.739,36.43-63.519V6.241C31.846,21.631,0,63.782,0,113.379z"/>
	<path fill="#231F20" d="M150.549,6.241V49.86c21.789,12.78,36.431,36.432,36.431,63.519c0,27.085-14.642,50.736-36.431,63.516
		v43.618c44.357-15.388,76.204-57.54,76.204-107.134C226.753,63.782,194.906,21.631,150.549,6.241z"/>
	<path fill="#231F20" d="M88.843,2.671v41.31c7.675-2.715,15.928-4.206,24.534-4.206s16.857,1.491,24.533,4.206V2.671
		C130.009,0.928,121.801,0,113.377,0C104.951,0,96.743,0.928,88.843,2.671z"/>
</g>
</svg>
