<svg version="1.1" id="Layer_1" xmlns="http://www.w3.org/2000/svg" xmlns:xlink="http://www.w3.org/1999/xlink" x="0px" y="0px"
	 width="226.777px" height="226.777px" viewBox="0 0 226.777 226.777" enable-background="new 0 0 226.777 226.777"
	 xml:space="preserve">
<path fill="#231F20" d="M113.494,0C50.813,0,0,50.813,0,113.494c0,62.68,50.813,113.494,113.494,113.494
	s113.494-50.813,113.494-113.494C226.988,50.813,176.175,0,113.494,0z M89.335,72.212c-14.162,8.305-23.677,23.679-23.677,41.282
	c0,17.606,9.515,32.976,23.677,41.283v28.351c-28.83-10.003-49.528-37.4-49.528-69.633c0-32.235,20.698-59.63,49.528-69.631V72.212z
	 M129.44,185.448c-5.136,1.134-10.471,1.735-15.945,1.735c-5.477,0-10.81-0.602-15.946-1.735V90.724c0,0,6.162-3.745,15.946-3.745
	c9.782,0,15.945,3.745,15.945,3.745V185.448z M129.44,68.39c-4.987-1.764-10.351-2.732-15.945-2.732
	c-5.594,0-10.958,0.969-15.946,2.732V41.542c5.136-1.133,10.469-1.735,15.946-1.735c5.475,0,10.81,0.603,15.945,1.735V68.39z
	 M137.655,183.128v-28.351c14.161-8.307,23.677-23.677,23.677-41.283c0-17.603-9.516-32.978-23.677-41.282V43.863
	c28.83,10.001,49.527,37.396,49.527,69.631C187.182,145.727,166.485,173.125,137.655,183.128z"/>
</svg>
