<svg width="227" height="227" viewBox="0 0 227 227" xmlns="http://www.w3.org/2000/svg"><title>ion</title><path d="M49.84 134.843c9.591 26.912 35.198 46.165 65.28 46.165 5.268 0 10.398-.59 15.33-1.71 2.801 7.163 9.745 12.233 17.868 12.233 10.599 0 19.191-8.633 19.191-19.283 0-4.24-1.362-8.16-3.67-11.344 12.718-12.626 20.599-30.16 20.599-49.544 0-18.324-7.043-34.994-18.556-47.429a19.27 19.27 0 0 0 2.31-9.18c0-10.649-8.592-19.282-19.19-19.282-6.663 0-12.532 3.41-15.973 8.589a69.105 69.105 0 0 0-17.91-2.347c-33.176 0-60.91 23.419-67.717 54.701-10.524.09-19.027 8.688-19.027 19.283 0 10.65 8.592 19.282 19.191 19.282a19.3 19.3 0 0 0 2.275-.134zm3.47-.744c7.794-2.453 13.448-9.765 13.448-18.404 0-9.495-6.83-17.386-15.821-18.987 6.634-29.465 32.851-51.466 64.183-51.466 5.587 0 11.012.7 16.192 2.017a19.302 19.302 0 0 0-1.502 7.493c0 10.65 8.592 19.282 19.191 19.282 5.995 0 11.347-2.761 14.867-7.087 10.598 11.736 17.055 27.317 17.055 44.413 0 18.327-7.42 34.912-19.409 46.888a19.077 19.077 0 0 0-13.196-5.282c-10.6 0-19.192 8.633-19.192 19.282 0 1.249.119 2.47.344 3.652a65.735 65.735 0 0 1-14.35 1.577c-28.39 0-52.582-18.065-61.81-43.378zM113.5 227C50.816 227 0 176.184 0 113.5S50.816 0 113.5 0 227 50.816 227 113.5 176.184 227 113.5 227zm1.62-96.334c10.612 0 19.214-8.644 19.214-19.306 0-10.663-8.602-19.307-19.214-19.307-10.613 0-19.215 8.644-19.215 19.307 0 10.662 8.602 19.306 19.215 19.306z"/></svg>