<svg width="228" height="228" viewBox="0 0 228 228" xmlns="http://www.w3.org/2000/svg"><title>ion</title><path d="M31.598 145.014c13.95 39.143 51.195 67.148 94.95 67.148 7.663 0 15.126-.859 22.3-2.486 4.074 10.418 14.175 17.793 25.99 17.793 15.416 0 27.914-12.558 27.914-28.048a28.01 28.01 0 0 0-5.34-16.5c18.5-18.366 29.963-43.87 29.963-72.066 0-26.651-10.243-50.9-26.99-68.986a28.028 28.028 0 0 0 3.36-13.353c0-15.49-12.497-28.047-27.914-28.047-9.69 0-18.227 4.96-23.232 12.493a100.517 100.517 0 0 0-26.05-3.413c-48.257 0-88.596 34.063-98.499 79.565-15.306.13-27.675 12.637-27.675 28.047 0 15.49 12.498 28.048 27.915 28.048 1.119 0 2.223-.067 3.308-.195zm5.047-1.083c11.335-3.568 19.56-14.204 19.56-26.77 0-13.81-9.934-25.289-23.013-27.617 9.65-42.858 47.784-74.86 93.357-74.86a95.476 95.476 0 0 1 23.553 2.934 28.075 28.075 0 0 0-2.186 10.898c0 15.49 12.498 28.048 27.915 28.048 8.72 0 16.505-4.017 21.624-10.31 15.416 17.072 24.809 39.735 24.809 64.601 0 26.658-10.795 50.782-28.232 68.201-5.003-4.762-11.76-7.683-19.195-7.683-15.417 0-27.914 12.558-27.914 28.048 0 1.816.171 3.592.5 5.312a95.615 95.615 0 0 1-20.874 2.293c-41.295 0-76.483-26.276-89.904-63.095zm89.904-4.994c15.436 0 27.949-12.572 27.949-28.082 0-15.509-12.513-28.082-27.95-28.082-15.435 0-27.948 12.573-27.948 28.082 0 15.51 12.513 28.082 27.949 28.082z"/></svg>