<svg width="227" height="227" viewBox="0 0 227 227" xmlns="http://www.w3.org/2000/svg"><title>iop</title><path d="M71.809 58.756L46.092 82.119v22.932l-2.517 4.531a8.088 8.088 0 0 0 0 7.836l2.517 4.53v51.067h28.367l.173.311c1.38 2.483 3.958 4.018 6.752 4.018h63.526c2.767 0 5.325-1.505 6.715-3.951l4.195-7.385 24.382-21.127v-21.79l3.186-5.606a8.087 8.087 0 0 0 0-7.97l-3.186-5.606V53.263h-28.784c-1.428-2.242-3.873-3.607-6.508-3.607H81.384c-2.794 0-5.373 1.535-6.752 4.018l-2.823 5.082zM113.5 227C50.816 227 0 176.184 0 113.5S50.816 0 113.5 0 227 50.816 227 113.5 176.184 227 113.5 227zM81.384 57.592h63.526l31.763 55.908-31.763 55.908H81.384L50.327 113.5l31.057-55.908zm2.877 5.05L56.008 113.5l28.253 50.859h57.805L170.96 113.5l-28.894-50.859H84.26zm13.357 21.641h33.175l15.529 28.856-15.529 28.856H97.618L82.09 113.14l15.528-28.856z"/></svg>