<svg width="227" height="227" viewBox="0 0 227 227" xmlns="http://www.w3.org/2000/svg"><title>Shape</title><path d="M47.357 27.215L6.209 64.597v36.691l-4.027 7.25a12.94 12.94 0 0 0 0 12.537l4.027 7.25v81.706h45.388l.277.497c2.207 3.973 6.333 6.428 10.803 6.428h101.642c4.427 0 8.52-2.408 10.743-6.32l6.713-11.816 39.011-33.804v-34.864l5.097-8.97a12.939 12.939 0 0 0 0-12.751l-5.097-8.97V18.426h-46.055c-2.284-3.587-6.196-5.77-10.412-5.77H62.677c-4.47 0-8.596 2.454-10.803 6.427l-4.517 8.131zm15.32-1.862h101.642l50.82 89.453-50.82 89.454H62.677l-49.692-89.454 49.692-89.453zm4.602 8.08l-45.203 81.373L67.28 196.18h92.488l46.231-81.374-46.23-81.373H67.278zM88.652 68.06h53.08l24.845 46.17-24.845 46.169h-53.08l-24.846-46.17 24.846-46.17z"/></svg>