<svg version="1.1" id="Layer_1" xmlns="http://www.w3.org/2000/svg" xmlns:xlink="http://www.w3.org/1999/xlink" x="0px" y="0px"
	 viewBox="0 0 226.8 226.8" style="enable-background:new 0 0 226.8 226.8;" xml:space="preserve">
<g>
	<path d="M113.4,0C50.8,0,0,50.8,0,113.4s50.8,113.4,113.4,113.4S226.8,176,226.8,113.4S176,0,113.4,0z M168.391,164.274
		l-3.878,3.878c-17.035,7.13-34.055,14.299-51.113,21.374c-17.058-7.074-34.078-14.243-51.113-21.374l-3.878-3.878l-21.142-50.879
		l21.142-50.879l3.878-3.878c11.93-4.994,23.858-9.997,35.792-14.982l9.842-4.12l2.725-1.13l2.754-1.141l2.753,1.141l2.725,1.13
		l9.842,4.12c11.934,4.985,23.862,9.988,35.792,14.982l3.878,3.878l21.142,50.879L168.391,164.274z"/>
	<path d="M113.4,68.322L81.528,81.524l-13.202,31.871l13.202,31.872l31.872,13.202l31.871-13.202l13.202-31.872l-13.202-31.871
		L113.4,68.322z M135.936,135.932l-22.537,9.336l-22.536-9.336l-9.335-22.536l9.335-22.536l22.536-9.336l22.537,9.336l9.335,22.536
		L135.936,135.932z"/>
</g>
</svg>
