<svg version="1.1" id="Layer_1" xmlns="http://www.w3.org/2000/svg" xmlns:xlink="http://www.w3.org/1999/xlink" x="0px" y="0px"
	 viewBox="0 0 226.8 226.8" style="enable-background:new 0 0 226.8 226.8;" xml:space="preserve">
<style type="text/css">
	.st0{fill-rule:evenodd;clip-rule:evenodd;}
</style>
<g>
	<path class="st0" d="M195.309,37.615l-5.776-5.777c-17.77-7.438-35.536-14.89-53.312-22.316l-14.66-6.136l-4.06-1.682l-4.101-1.7
		l-4.102,1.7l-4.059,1.682L90.58,9.523c-17.776,7.426-35.543,14.878-53.312,22.316l-5.777,5.777L0,113.399l31.491,75.784
		l5.777,5.777c25.373,10.621,50.725,21.299,76.133,31.836c25.408-10.537,50.759-21.215,76.132-31.836l5.776-5.777l31.491-75.784
		L195.309,37.615z M160.873,160.872L113.4,180.537l-47.473-19.664l-19.664-47.473l19.664-47.472L113.4,46.262l47.472,19.665
		l19.665,47.472L160.873,160.872z"/>
	<polygon class="st0" points="113.4,65.927 79.832,79.832 65.927,113.4 79.832,146.967 113.4,160.873 146.968,146.967 
		160.873,113.4 146.968,79.832 	"/>
</g>
</svg>
