<svg version="1.1" id="Layer_1" xmlns="http://www.w3.org/2000/svg" xmlns:xlink="http://www.w3.org/1999/xlink" x="0px" y="0px"
	 width="226.777px" height="226.777px" viewBox="0 0 226.777 226.777" enable-background="new 0 0 226.777 226.777"
	 xml:space="preserve">
<g id="KORE">
	<path fill="#231F20" d="M101.254,94.26l35.873-37.937c-7.273-3.017-15.244-4.688-23.607-4.688c-8.643,0-16.866,1.785-24.332,4.995
		h17.151L101.254,94.26z"/>
	<path fill="#231F20" d="M84.833,66.974l1.2-8.871c-20.26,10.106-34.182,31.021-34.182,55.199c0,18.243,7.926,34.631,20.517,45.921
		l1.203-8.901c-9.017-9.72-14.549-22.714-14.549-37.02C59.022,93.732,69.341,76.582,84.833,66.974z"/>
	<path fill="#231F20" d="M126.003,93.863l-11.8,12.666l14.984,23.771c4.588-4.222,7.467-10.269,7.467-16.998
		C136.654,105.128,132.403,97.97,126.003,93.863z"/>
	<path fill="#231F20" d="M146.858,113.302c0,10.369-4.745,19.612-12.168,25.726l4.873,7.73c9.962-7.762,16.39-19.848,16.39-33.456
		c0-13.741-6.551-25.932-16.678-33.686l-6.236,6.691C141.403,92.363,146.858,102.187,146.858,113.302z"/>
	<path fill="#231F20" d="M152.443,65.48l-4.903,5.264c12.479,9.986,20.478,25.333,20.478,42.558
		c0,17.909-8.648,33.788-21.983,43.719l3.836,6.088c15.345-11.22,25.316-29.345,25.316-49.807
		C175.186,94.006,166.321,76.787,152.443,65.48z"/>
	<path fill="#231F20" d="M71.087,113.302c0,7.099,1.75,13.78,4.831,19.658l6.562-48.549
		C75.421,91.986,71.087,102.132,71.087,113.302z"/>
	<path fill="#231F20" d="M113.409,0.042C50.798,0.042,0.042,50.798,0.042,113.41c0,62.611,50.756,113.367,113.367,113.367
		c62.612,0,113.368-50.756,113.368-113.367C226.777,50.798,176.021,0.042,113.409,0.042z M113.52,187.563
		c-41.012,0-74.258-33.249-74.258-74.262c0-41.01,33.246-74.257,74.258-74.257c41.01,0,74.258,33.247,74.258,74.257
		C187.778,154.314,154.53,187.563,113.52,187.563z"/>
	<path fill="#231F20" d="M98.704,117.105l-0.526-0.064l-6.441,47.655H79.44c9.763,6.488,21.479,10.276,34.08,10.276
		c12.603,0,24.314-3.788,34.08-10.276h-18.892L98.704,117.105z"/>
</g>
</svg>
