<svg version="1.1" id="Layer_1" xmlns="http://www.w3.org/2000/svg" xmlns:xlink="http://www.w3.org/1999/xlink" x="0px" y="0px"
	 viewBox="0 0 226.8 226.8" style="enable-background:new 0 0 226.8 226.8;" xml:space="preserve">
<path class="st0" d="M113.4,0C50.8,0,0,50.8,0,113.4C0,176,50.8,226.8,113.4,226.8c62.6,0,113.4-50.8,113.4-113.4
	C226.8,50.8,176,0,113.4,0z M186.7,133.1L180,132l1-6.1l-69.6,42.9L37.3,132v-26.4l77.5-47.7l70.6,34v9.3l-74,45.4l-51.3-25v-7.5
	l50.9,24.8l67.6-41.5v-1.2l-63.4-30.5l-71.1,43.8v18.4l67,33.3l65.3-40.3l-4.7-0.9l1.3-6.7l16.6,3.1L186.7,133.1z"/>
</svg>
