<svg version="1.1" id="Layer_1" xmlns="http://www.w3.org/2000/svg" xmlns:xlink="http://www.w3.org/1999/xlink" x="0px" y="0px"
	 width="226.777px" height="226.777px" viewBox="0 0 226.777 226.777" enable-background="new 0 0 226.777 226.777"
	 xml:space="preserve">
<path fill="#231F20" d="M211.784,97.719c3.955-6.885,0.731-9.521,0.731-9.521s3.078-15.819-3.221-15.819
	c0-3.516-9.374-15.964-10.254-9.667c0,0-17.722-14.061-36.616-3.662c-18.896,10.4-17.577,29.586-17.577,29.586
	s-13.914,0.293-19.041-0.585c-5.126-0.879-15.233-6.006-15.233-6.006s9.375-7.323,6.737-17.869c6.592,0.732-5.565-14.5-7.03-16.844
	c0,0,4.249-42.038-6.737-45.846C92.558-2.319,79.962,22.726,78.936,22.726c-1.025,0-5.909-2.539-12.841-2.929
	c-6.932-0.391-13.768,1.854-13.768,1.854S38.169-2.863,28.502,1.094c-9.667,3.958-6.834,41.063-6.542,46.24
	c0,0-9.081,10.106-8.935,13.475c0.147,3.369,2.051,4.101,2.051,4.101s-0.879,6.298,0.292,9.228
	c1.172,2.929,15.818,16.405,16.844,19.041c1.026,2.637-0.732,30.466,1.758,45.406c2.49,14.939,9.227,26.364,11.864,45.259
	s-1.465,37.936,0,39.254c1.465,1.317,16.404,1.317,18.456,0c2.05-1.318,3.808-18.456,3.955-28.415c0.146-9.96,0-24.314,0-24.314
	s10.691,0.879,12.01,3.516c1.318,2.636,1.172,16.99,0.732,26.511c-0.439,9.521-3.515,22.849-2.491,24.461
	c1.025,1.611,14.794,3.369,18.163,0c3.369-3.368,8.789-55.513,9.667-56.537c0.878-1.025,22.264-15.233,22.264-15.233
	s0.293,8.055,2.636,11.425c2.344,3.369,17.138,16.259,17.431,19.772c0.292,3.516-14.647,27.977-13.036,29.002
	c1.611,1.024,19.188,2.636,22.558,0.586c3.368-2.051,9.08-15.819,10.398-21.385c1.317-5.565,2.783-18.016,2.783-18.016
	s16.698,8.349,17.575,10.546c0.88,2.196,0.147,15.965-1.757,21.53c-1.903,5.566-7.763,15.819-6.445,16.697
	c1.318,0.88,21.385,1.758,22.996,0.44c1.611-1.318,7.91-37.058,6.299-48.628c-1.611-11.572-7.616-10.106-8.203-15.086
	c-0.584-4.981,1.319-30.174,0.147-37.644s-4.542-9.667-4.542-11.132C197.429,109.73,207.831,104.603,211.784,97.719z M45.592,61.591
	c-4.313,0-7.812-5.466-7.812-12.207c0-6.741,3.498-12.206,7.812-12.206s7.811,5.465,7.811,12.206
	C53.402,56.125,49.905,61.591,45.592,61.591z M59.602,98.964c-5.273,0-8.495-6.445-7.543-11.937c5.419,0.22,7.202-2.783,7.202-2.783
	c2.171,3.589,8.105,2.563,8.544,2.637C67.806,91.934,64.876,98.964,59.602,98.964z M59.261,80.387c-4.719,0-8.544-2.383-8.544-5.322
	c0-2.939,3.825-5.322,8.544-5.322c4.718,0,8.544,2.383,8.544,5.322C67.806,78.005,63.98,80.387,59.261,80.387z M79.377,61.591
	c-4.313,0-7.812-5.466-7.812-12.207c0-6.741,3.498-12.206,7.812-12.206s7.812,5.465,7.812,12.206
	C87.189,56.125,83.69,61.591,79.377,61.591z"/>
</svg>
