<svg version="1.1" id="Layer_1" xmlns="http://www.w3.org/2000/svg" xmlns:xlink="http://www.w3.org/1999/xlink" x="0px" y="0px"
	 width="226.777px" height="226.777px" viewBox="0 0 226.777 226.777" enable-background="new 0 0 226.777 226.777"
	 xml:space="preserve">
<g>
	<polygon fill="#231F20" points="143.148,153.784 132.885,161.996 122.127,164.777 114.216,168.936 116.469,178.043 115.211,180.85 
		115.211,184.999 120.522,182.193 142.381,171.859 156.199,164.274 157.111,154.018 152.927,147.092 	"/>
	<polygon fill="#231F20" points="100.877,165.196 81.522,154.181 72.68,146.975 69.603,152.791 70.224,164.879 78.271,168.338 
		79.97,169.66 100.038,179.469 101.933,179.757 111.816,185.194 112.728,185.233 112.728,180.318 113.853,177.808 111.73,169.226 	
		"/>
	<path fill="#231F20" d="M113.388,0C50.766,0,0,50.766,0,113.388c0,62.623,50.766,113.389,113.389,113.389
		c62.623,0,113.389-50.766,113.389-113.389C226.777,50.766,176.011,0,113.388,0z M119.414,136.148l7.278-13.169l20.191,1.418
		l-1.906,20.868l-6.329,1.189l-0.366,1.928l-6.423,0.184l-2.844,3.853l-7.523,1.102l-2.568,2.845l-3.395-1.651l-2.477,4.127
		l-0.731-3.539L119.414,136.148z M110.503,153.061h-0.662l-4.129,1.928l-1.926-4.771l-5.139-2.019l-1.651,0.644l-0.733,1.926
		l-2.385-0.735l-4.037,2.112l-1.926-3.212l-7.982-4.006L79.44,133.07l18.831-8.277l8.125-16.039l10.558,26.89L110.503,153.061z
		 M126.694,120.489l-1.328-2.051l5.534-13.386v-6.906l11.092-15.138l11.654-4.084l-2.521,24.78v14.588l-1.101,1.926L148.188,122
		L126.694,120.489z M141.4,63.246l3.763,7.155l7.508,6.232l-11.197,3.925l-6.275-5.259l1.093-8.387l-9.614-9.237l-5.355-13.62
		L141.4,63.246z M116.872,39.705l7.692,19.386l9.103,8.745l-1.108,8.494l6.97,5.84l-11.113,15.165v7.225l-5.842,14.135l1.969,3.042
		l-6.069,10.982l-10.713-27.281l-1.394-16.548l14.156-10.164l1.242-7.446l-5.361-13.865l-0.075-18.005L116.872,39.705z
		 M110.3,37.557l1.927-0.917l1.608,0.077l0.086,21.167l5.282,13.659l-0.963,5.765l-13.382,9.608L69.776,75.397L110.3,37.557z
		 M103.901,89.214l1.37,16.26l-8.814,17.404l-18.436,8.102l-1.575-5.076l0.643-6.146l-8.08-41.999L103.901,89.214z M160.914,167.354
		l-16.342,8.963l-21.877,10.343l-6.971,3.685l-5.29-0.24l-10.118-5.569l-1.772-0.267l-21.217-10.372l-1.603-1.246l-10.302-4.431
		l-0.848-16.539l4.983-9.426l6.684-2.47L76.457,145l-1.561,0.576l8.035,6.55l19.086,10.861l10.671,3.947l8.538-4.488l10.523-2.722
		l9.958-7.963l8.957-6.133l-2.137-1.013l0.482-5.271l7.063,3.352l6.129,10.142L160.914,167.354z"/>
</g>
</svg>
