<svg version="1.1" id="Layer_1" xmlns="http://www.w3.org/2000/svg" xmlns:xlink="http://www.w3.org/1999/xlink" x="0px" y="0px"
	 width="226.777px" height="226.777px" viewBox="0 0 226.777 226.777" enable-background="new 0 0 226.777 226.777"
	 xml:space="preserve">
<g>
	<polygon fill="#231F20" points="149.643,44.609 148.028,56.992 157.296,64.758 173.831,58.961 162.743,49.759 157.188,39.193 
		127.54,10.857 135.448,30.968 	"/>
	<polygon fill="#231F20" points="128.194,51.057 126.36,62.052 105.456,77.06 107.515,101.495 123.333,141.779 132.294,125.562 
		129.387,121.07 138.014,100.198 138.014,89.53 154.423,67.135 144.132,58.513 145.768,45.97 132.329,33.057 120.968,4.431 
		120.167,3.995 120.276,30.583 	"/>
	<polygon fill="#231F20" points="169.923,123.32 171.548,120.474 171.548,98.935 175.272,62.343 158.061,68.374 141.682,90.729 
		141.682,100.924 133.512,120.693 135.471,123.722 167.21,125.951 	"/>
	<polygon fill="#231F20" points="118.985,174.258 123.999,176.695 127.792,172.496 138.901,170.869 143.1,165.179 152.583,164.91 
		153.126,162.064 162.471,160.304 165.284,129.492 135.469,127.398 124.721,146.844 114.251,175.125 115.329,180.353 	"/>
	<polygon fill="#231F20" points="93.502,130.078 65.696,142.297 66.424,159.806 78.21,165.722 81.054,170.463 87.015,167.347 
		90.537,168.431 91.621,165.588 94.06,164.638 101.646,167.619 104.49,174.664 110.587,171.818 111.565,171.818 121.087,146.097 
		105.498,106.392 	"/>
	<polygon fill="#231F20" points="61.276,131.719 63.601,139.213 90.824,127.248 103.839,101.55 101.818,77.539 50.293,60.625 
		62.225,122.642 	"/>
	<polygon fill="#231F20" points="122.991,59.956 124.411,51.444 116.612,31.276 116.483,0.02 114.11,-0.094 111.264,1.261 
		51.425,57.136 103.23,74.144 	"/>
	<path fill="#231F20" d="M178.858,156.513l-10.434-4.947l-0.709,7.781l3.154,1.496l-13.227,9.057l-14.705,11.756l-15.541,4.02
		l-12.605,6.627l-15.755-5.826l-28.186-16.041l-11.865-9.67l2.304-0.852l-0.32-7.701l-9.868,3.646l-7.359,13.92l1.252,24.422
		l15.212,6.541l2.367,1.84l31.329,15.316l2.619,0.395l14.94,8.223l7.813,0.355l10.293-5.441l32.303-15.271l24.129-13.236
		l1.906-21.432L178.858,156.513z M114.848,212.066v7.26l-1.346-0.061l-14.592-8.031l-2.8-0.422L66.48,196.328l-2.511-1.953
		l-11.882-5.109l-0.915-17.846l4.542-8.59l13.056,10.643l28.582,16.264l16.023,5.951l3.137,12.67L114.848,212.066z M179.042,188.375
		l-20.404,11.199l-32.277,15.26l-7.844,4.143v-6.125l1.859-4.146l-3.328-13.445l11.68-6.141l15.889-4.109l15.154-12.123
		l14.439-9.885l6.18,10.229L179.042,188.375z"/>
</g>
</svg>
