<svg xmlns="http://www.w3.org/2000/svg" viewBox="0 0 256 256" width="256" height="256"><circle cx="128" cy="128" r="128" style="opacity:0.9;stroke-width:20"/><path d="m128 58c-0.2 0-0.4 0.1-0.5 0.3l-11.9 20.3c-0.1 0.2-0.1 0.4 0 0.5l12.3 21.1 32.6 56c0.1 0.2 0.1 0.4-0.1 0.6l-17.2 19.3-18.4 20.7c-0.3 0.3-0.1 0.8 0.4 0.8h27.5c0.1 0 0.3-0.1 0.4-0.2l33.9-38.1c0.1-0.2 0.2-0.4 0.1-0.6L128.3 58.3C128.3 58.1 128.1 58 128 58Zm-16.5 28.4c-0.2 0-0.4 0.1-0.5 0.2l-42.1 72.5c-0.1 0.2-0.1 0.4 0 0.6l33.9 38.1c0.1 0.1 0.2 0.2 0.4 0.2h11.5c0.1-0.1 0.3-0.2 0.4-0.3l18.3-20.5c0.3-0.3 0.1-0.8-0.4-0.8H112.7c-0.1 0-0.3-0.1-0.4-0.2L95.3 157c-0.1-0.2-0.2-0.4-0.1-0.6l28.5-48.9c0.1-0.2 0.1-0.4 0-0.5L111.9 86.6c-0.1-0.2-0.3-0.2-0.5-0.2z" style="fill:#fff;stroke-width:0.8"/></svg>