<svg width="192" height="227" viewBox="0 0 192 227" xmlns="http://www.w3.org/2000/svg"><path d="M92.66 226.498c-.166.167-.501.335-.668.502H73.449c-.334 0-.501-.167-.669-.335l-54.659-61.744a1.075 1.075 0 0 1 0-.991L86.197 46.427c.335-.49 1.16-.49 1.494 0l19.044 32.951c.167.168.167.502 0 .837l-46.045 79.39c-.168.322 0 .657.167.992l27.49 30.955c.185.177.418.294.67.335h32.46c.837 0 1.16.836.658 1.326L92.66 226.498zM112.853.502c.346-.67 1.17-.67 1.338 0l94.898 163.081c.167.347 0 .681-.167 1.004l-54.648 61.744a1.254 1.254 0 0 1-.669.334H109.22c-.836 0-1.16-.836-.657-1.326l29.641-33.62 27.826-31.29c.334-.334.334-.669.167-.991L113.52 68.566 93.652 34.277c-.167-.155-.167-.49 0-.836L112.852.5z"/></svg>