<svg xmlns="http://www.w3.org/2000/svg" viewBox="0 0 256 256" width="256" height="256"><path d="M128 0A128 128 0 0 0 0 128 128 128 0 0 0 128 256 128 128 0 0 0 256 128 128 128 0 0 0 128 0zM128 58C128.1 58 128.3 58.1 128.3 58.3L187.1 158.7C187.2 158.9 187.1 159.1 187 159.3L153.1 197.4C153 197.5 152.8 197.6 152.7 197.6L125.2 197.6C124.7 197.6 124.5 197.1 124.8 196.8L143.2 176.1 160.4 156.8C160.6 156.6 160.6 156.4 160.5 156.2L127.9 100.2 115.6 79.1C115.5 79 115.5 78.8 115.6 78.6L127.5 58.3C127.6 58.1 127.8 58 128 58zM111.4 86.4L111.5 86.4C111.5 86.4 111.5 86.4 111.5 86.4 111.6 86.4 111.8 86.4 111.9 86.6L123.7 107C123.8 107.1 123.8 107.3 123.7 107.5L95.2 156.4C95.1 156.6 95.2 156.8 95.3 157L112.3 176.2C112.4 176.3 112.6 176.4 112.7 176.4L133 176.4C133.5 176.4 133.7 176.9 133.4 177.2L115.1 197.7C115 197.8 114.8 197.9 114.7 198L103.2 198C103 198 102.9 197.9 102.8 197.8L68.9 159.7C68.8 159.5 68.8 159.3 68.9 159.1L111 86.6C111.1 86.5 111.3 86.4 111.5 86.4 111.4 86.4 111.4 86.4 111.4 86.4z" fill="#000000"/></svg>