<svg xmlns="http://www.w3.org/2000/svg" viewBox="0 0 256 256" width="256" height="256"><circle cx="128" cy="128" r="128" opacity=".9"/><path d="M128 58c-.2 0-.4.1-.5.3l-11.9 20.3c-.1.2-.1.4 0 .5l12.3 21.1 32.6 56c.1.2.1.4-.1.6l-17.2 19.3-18.4 20.7c-.3.3-.1.8.4.8h27.5c.1 0 .3-.1.4-.2l33.9-38.1c.1-.2.2-.4.1-.6L128.3 58.3c0-.2-.2-.3-.3-.3zm-16.5 28.4c-.2 0-.4.1-.5.2l-42.1 72.5c-.1.2-.1.4 0 .6l33.9 38.1c.1.1.2.2.4.2h11.5c.1-.1.3-.2.4-.3l18.3-20.5c.3-.3.1-.8-.4-.8h-20.3c-.1 0-.3-.1-.4-.2l-17-19.2c-.1-.2-.2-.4-.1-.6l28.5-48.9c.1-.2.1-.4 0-.5l-11.8-20.4c-.1-.2-.3-.2-.5-.2z" fill="#fff"/></svg>