<svg xmlns="http://www.w3.org/2000/svg" viewBox="0 0 256 256" width="256" height="256"> <path d="m127.9 24c-0.2 0-0.6 0.1-0.7 0.5L109.5 54.7c-0.1 0.3-0.1 0.6 0 0.8l18.3 31.4 48.5 83.3c0.1 0.3 0.1 0.6-0.1 0.9l-25.6 28.6-27.3 30.8c-0.5 0.5-0.1 1.2 0.6 1.2h40.9c0.1 0 0.5-0.1 0.6-0.3l50.3-56.6c0.1-0.3 0.3-0.6 0.1-0.9L128.5 24.5C128.4 24.1 128.2 24 127.9 24Zm-24.5 42.1c-0.2 0-0.6 0.1-0.7 0.3L40.1 174.2c-0.1 0.3-0.1 0.6 0 0.9l50.3 56.6c0.1 0.1 0.3 0.3 0.6 0.3h17c0.1-0.1 0.5-0.3 0.6-0.5l27.2-30.4c0.5-0.5 0.1-1.2-0.6-1.2h-29.9c-0.1 0-0.5-0.1-0.6-0.3L79.4 171.1c-0.1-0.3-0.3-0.6-0.1-0.9L121.7 97.5c0.1-0.3 0.1-0.6 0-0.8L104.1 66.5c-0.1-0.2-0.5-0.3-0.7-0.3z"/> </svg>