<svg width="227" height="227" viewBox="0 0 227 227" xmlns="http://www.w3.org/2000/svg"><circle cx="113.5" cy="113.5" r="113.5"/><path d="M101.079 177.046c-.1.1-.298.198-.397.298h-11.01c-.199 0-.298-.1-.397-.199l-32.454-36.66a.638.638 0 0 1 0-.59L97.24 70.13c.199-.291.688-.291.887 0l11.307 19.564c.1.1.1.298 0 .497l-27.339 47.138c-.1.191 0 .39.1.589l16.322 18.38c.11.105.248.174.397.198h19.274c.497 0 .688.497.39.788l-17.5 19.763zM113.067 42.86c.206-.397.695-.397.795 0l56.345 96.83c.1.206 0 .404-.099.596l-32.447 36.66a.745.745 0 0 1-.397.2h-26.353c-.497 0-.688-.497-.39-.788l17.6-19.962 16.52-18.579c.2-.198.2-.397.1-.588l-31.276-53.955-11.797-20.36c-.1-.092-.1-.29 0-.496l11.4-19.558z"/></svg>