<svg xmlns="http://www.w3.org/2000/svg" viewBox="0 0 256 256" width="256" height="256"><path d="M127.9 24c-.2 0-.6.1-.7.5l-17.7 30.2c-.1.3-.1.6 0 .8l18.3 31.4 48.5 83.3c.1.3.1.6-.1.9l-25.6 28.6-27.3 30.8c-.5.5-.1 1.2.6 1.2h40.9c.1 0 .5-.1.6-.3l50.3-56.6c.1-.3.3-.6.1-.9L128.5 24.5c-.1-.4-.3-.5-.6-.5zm-24.5 42.1c-.2 0-.6.1-.7.3L40.1 174.2c-.1.3-.1.6 0 .9l50.3 56.6c.1.1.3.3.6.3h17c.1-.1.5-.3.6-.5l27.2-30.4c.5-.5.1-1.2-.6-1.2h-29.9c-.1 0-.5-.1-.6-.3l-25.3-28.5c-.1-.3-.3-.6-.1-.9l42.4-72.7c.1-.3.1-.6 0-.8l-17.6-30.2c-.1-.2-.5-.3-.7-.3z"/></svg>