<svg width="227" height="227" viewBox="0 0 227 227" xmlns="http://www.w3.org/2000/svg"><title>lun</title><path d="M113.5 227C50.816 227 0 176.184 0 113.5S50.816 0 113.5 0 227 50.816 227 113.5 176.184 227 113.5 227zm-1.324-184.094v.01L53.892 75.769a2.538 2.538 0 0 0 .004 4.452l50.763 28.507a11.736 11.736 0 0 1 6.806-3.806v-15.59c-5.457-.951-9.603-5.59-9.603-11.181 0-6.28 5.222-11.37 11.668-11.37 6.446 0 11.67 5.09 11.67 11.37 0 5.623-4.192 10.28-9.694 11.197v15.557a11.747 11.747 0 0 1 6.904 3.827l50.756-28.615a2.557 2.557 0 0 0 1.316-2.227c0-.92-.505-1.768-1.32-2.225l-58.346-32.759a2.705 2.705 0 0 0-2.639 0zm61.15 41.275l.009-.008-49.005 27.624a10.96 10.96 0 0 1 .184 8.124l13.83 7.753c1.848-2.62 4.735-4.36 7.958-4.8 6.381-.881 12.285 3.45 13.184 9.669.9 6.219-3.543 11.968-9.926 12.847-6.383.88-12.285-3.45-13.184-9.67a11.061 11.061 0 0 1 .262-4.458l-14.114-7.91a11.716 11.716 0 0 1-7.003 3.936l.048 54.578c0 1.977 2.198 3.214 3.956 2.221l56.502-31.851a2.557 2.557 0 0 0 1.317-2.225l-.056-63.61a2.568 2.568 0 0 0-1.326-2.228 2.688 2.688 0 0 0-2.636.008zm-123.612 2.22h-.001l-.057 63.606c0 .918.503 1.767 1.317 2.225l56.51 31.854c1.756.99 3.957-.245 3.957-2.222l.047-54.59a11.731 11.731 0 0 1-6.933-3.925l-14.111 7.91c.39 1.454.48 2.97.263 4.458-.9 6.216-6.802 10.548-13.184 9.67-6.382-.878-10.827-6.632-9.926-12.848.9-6.215 6.8-10.546 13.184-9.67 3.222.443 6.107 2.184 7.956 4.802l13.823-7.747a10.977 10.977 0 0 1 .169-8.092L53.67 84.178a2.671 2.671 0 0 0-1.316-.35c-1.375 0-2.64 1.072-2.64 2.573z"/></svg>