<svg width="227" height="227" viewBox="0 0 227 227" xmlns="http://www.w3.org/2000/svg"><title>Shape</title><path d="M110.688 1.113l.001.014-93.257 52.566a4.061 4.061 0 0 0 .007 7.123l81.22 45.611c2.803-3.196 6.65-5.348 10.889-6.09V75.396c-8.73-1.523-15.364-8.944-15.364-17.891 0-10.048 8.355-18.192 18.669-18.192 10.313 0 18.671 8.144 18.671 18.192 0 8.997-6.707 16.448-15.51 17.915v24.892c4.3.717 8.208 2.883 11.047 6.122l81.21-45.783a4.09 4.09 0 0 0 2.105-3.564 4.091 4.091 0 0 0-2.113-3.56L114.911 1.113a4.328 4.328 0 0 0-4.223 0zm97.84 66.04l.014-.013-78.407 44.197a17.539 17.539 0 0 1 .294 13l22.128 12.404c2.957-4.19 7.575-6.977 12.732-7.682 10.21-1.408 19.657 5.521 21.095 15.472 1.439 9.95-5.669 19.15-15.882 20.556-10.212 1.406-19.656-5.522-21.095-15.471a17.698 17.698 0 0 1 .42-7.134l-22.583-12.658c-2.847 3.339-6.82 5.573-11.204 6.3l.077 87.323c0 3.164 3.517 5.144 6.33 3.555l90.402-50.962a4.09 4.09 0 0 0 2.107-3.56l-.09-101.776a4.11 4.11 0 0 0-2.12-3.565 4.301 4.301 0 0 0-4.218.013zm-197.779 3.55h-.002l-.09 101.77a4.09 4.09 0 0 0 2.106 3.56L103.18 227c2.809 1.586 6.33-.392 6.33-3.555l.076-87.344c-4.34-.748-8.27-2.972-11.094-6.28l-22.577 12.655c.624 2.327.767 4.752.421 7.134-1.44 9.945-10.883 16.877-21.095 15.471-10.211-1.405-17.322-10.61-15.882-20.556 1.44-9.945 10.88-16.874 21.095-15.471 5.155.707 9.772 3.493 12.73 7.682L95.3 124.34a17.563 17.563 0 0 1 .27-12.947L17.08 67.148a4.259 4.259 0 0 0-2.107-.56c-2.2 0-4.223 1.715-4.223 4.116z"/></svg>