<svg version="1.1" id="Layer_1" xmlns="http://www.w3.org/2000/svg" xmlns:xlink="http://www.w3.org/1999/xlink" x="0px" y="0px"
	 width="226.777px" height="226.777px" viewBox="0 0 226.777 226.777" enable-background="new 0 0 226.777 226.777"
	 xml:space="preserve">
<g id="MAID_alt">
	<path fill="#231F20" d="M132.587,150.202l-0.022-30.772L80.25,89.2l132.213-74.367v-0.022c0,0-30.458-30.014-75.144-3.336
		C100.722,33.321,39.407,69.91,18.386,82.457L132.587,150.202z"/>
	<path fill="#231F20" d="M96.434,89.284l24.71,14.214l51.526-30.353v153.872c2.313-1.198,39.792-21.126,39.792-53.019
		c0-27.53,0-120.373,0-149.986L96.434,89.284z"/>
	<path fill="#231F20" d="M164.664,87.218l-24.126,14.327l0.063,62.714L10.997,87.384c-0.262,4.507-1.647,37.959,14.935,50.596
		c15.143,11.553,110.677,68.038,138.732,84.572V87.218z"/>
</g>
</svg>
