<svg width="228" height="228" viewBox="0 0 228 228" xmlns="http://www.w3.org/2000/svg"><title>Shape</title><path d="M113.969.469C51.43.469.469 51.43.469 113.969c0 62.538 50.961 113.5 113.5 113.5 62.538 0 113.5-50.962 113.5-113.5 0-62.539-50.962-113.5-113.5-113.5zm91.367 102.036l-9.76 1.703L181.5 84.686h-4.54a38.755 38.755 0 0 0-34.277-56.75c-21.338 0-38.817 17.252-38.817 38.59 0 17.706 12.031 32.688 28.262 37.341l-.568.568-5.561 2.837-9.08-3.291-8.967-5.221-12.598 15.89-10.102-5.562-19.408 4.994-9.761-32.007H32.249l-17.366 30.418-5.334.114c.68-56.977 47.33-103.058 104.42-103.058 57.544 0 104.42 46.875 104.42 104.42v3.291l-13.053-14.755zM113.97 218.39c-44.379 0-82.401-27.808-97.497-66.965 2.951 0 6.13.113 9.307.113 1.703.475 3.457.702 5.221.681 1.476 0 2.951-.113 4.2-.454.722-.02 1.444.02 2.156.114-.227.68-.227.908-.227 1.135 0 4.994 5.335 8.626 12.712 8.626 7.15 0 12.372-3.405 12.599-8.172l3.518.34c30.191 3.292 32.234 8.74 32.234 8.967.114.454-.567 2.837-6.696 6.923-12.826 8.853-17.252 14.188-16.117 19.75 1.362 6.696 10.101 8.398 23.38 10.895 3.746.681 7.946 1.476 12.259 2.497 4.767 1.022 9.874 2.043 14.755 3.065 8.853 1.816 17.933 3.632 25.197 5.788a104.936 104.936 0 0 1-37.001 6.697zm48.578-12.031c-8.513-4.2-21.452-6.697-35.072-9.42a658.636 658.636 0 0 1-14.528-2.952 245.552 245.552 0 0 0-12.598-2.497c-6.13-1.135-13.507-2.61-15.89-3.972.794-1.249 3.291-4.2 12.144-10.215 3.178-2.157 12.826-8.74 10.215-17.139-2.383-7.831-14.755-12.598-39.952-15.322-2.27-.227-4.653-.454-7.15-.681-1.249-3.746-3.065-9.08-5.675-16.798l-4.313-12.599-4.313 12.599c-1.476 4.2-2.61 7.604-3.632 10.555-1.135-3.632-3.178-9.534-6.697-19.749l-3.972-12.825L26.8 117.94c-5.902 17.252-7.605 22.36-8.059 24.29h-5.22a111.116 111.116 0 0 1-3.633-20.544l10.442-.34 17.252-30.192H49.5l10.328 33.937 24.29-6.243 5.56 3.065-11.803 14.868 7.15 5.675 25.197-31.893 2.951 1.702 13.62 4.994 5.902-3.064c-1.135 2.383-1.816 4.994-1.816 7.718s1.703 8.512 14.642 10.669a8.53 8.53 0 0 1 7.15 8.399v14.755a26.064 26.064 0 0 0-6.129-3.178h.114c-4.994-1.59-9.648-3.973-11.123-8.853-1.135 3.972-4.313 6.242-8.4 7.831-10.555 2.838-18.16 10.783-18.16 20.203 0 3.405 2.611 11.464 26.333 11.464 23.835 0 26.332-8.059 26.332-11.464v-17.82c1.589.568 3.405 1.022 5.561 1.363a8.53 8.53 0 0 1 7.15 8.399v10.215c0 2.383 1.703 4.54 4.087 4.767a4.602 4.602 0 0 0 4.994-4.54v-10.442a8.533 8.533 0 0 1 7.15-8.4c12.94-2.156 14.642-7.83 14.642-10.668 0-7.605-4.994-14.188-12.372-17.933h.114c-.114 0-.227-.114-.454-.114-1.249-.68-2.724-1.135-4.086-1.589-2-.941-3.75-2.341-5.108-4.086-.567-8.058-6.583-14.868-15.209-18.16h-.113c-.568-.227-1.135-.34-1.703-.567-4.313-1.59-8.058-3.973-9.307-8.172-1.362 4.653-5.334 7.037-10.442 8.626-.34.113-.794.227-1.135.454l14.188-15.096 8.512 11.464 6.81-5.448h1.703l14.755 20.316 10.442-1.816 15.322 17.366c-4.994 33.142-25.764 61.29-54.593 76.499zm-9.988-35.299c-1.59 1.135-7.491 2.951-17.252 2.951s-15.663-1.816-17.252-2.95c.454-6.357 8.172-11.578 17.252-11.578 9.08 0 16.798 5.221 17.252 11.577zm26.445-38.703c9.08 0 16.798 5.22 17.252 11.577-1.589 1.135-7.604 2.95-17.252 2.95-9.647 0-15.663-1.815-17.252-2.95.454-6.356 8.172-11.577 17.252-11.577zm-4.653-11.123c-1.59 1.135-7.605 2.95-17.252 2.95-9.648 0-15.663-1.815-17.252-2.95.454-6.356 8.172-11.577 17.252-11.577 9.08 0 16.798 5.22 17.252 11.577zm-6.924-38.477l-6.81-9.193-21.11 22.586c-15.65-1.71-27.237-15.35-26.392-31.07.845-15.72 13.826-28.04 29.57-28.063 16.355.011 29.611 13.267 29.623 29.623a29.304 29.304 0 0 1-4.88 16.117zM46.89 152.105l3.065-9.194 3.064 9.194a10.513 10.513 0 0 1-6.129 0zm-18.727-9.648c.68-2.043 1.702-5.334 2.95-8.853 1.25 3.632 2.384 6.924 2.952 8.967-2.043 0-3.973-.114-5.902-.114zm43.584-60.95c14.523-.044 26.286-11.807 26.332-26.33-.012-14.538-11.794-26.32-26.332-26.332-14.538.011-26.32 11.794-26.332 26.332.011 14.538 11.794 26.32 26.332 26.332zm0-43.583c9.42 0 17.252 7.718 17.252 17.252 0 9.528-7.724 17.252-17.252 17.252-9.528 0-17.252-7.724-17.252-17.252 0-9.528 7.724-17.252 17.252-17.252z"/></svg>