<svg width="227" height="227" viewBox="0 0 227 227" xmlns="http://www.w3.org/2000/svg"><title>mana</title><path d="M113.5 227C50.813 227 0 176.187 0 113.5S50.813 0 113.5 0 227 50.813 227 113.5 176.187 227 113.5 227zm0-191.531c-42.995 0-78.031 35.036-78.031 78.031 0 42.995 35.036 78.031 78.031 78.031 42.995 0 78.031-35.036 78.031-78.031 0-42.995-35.036-78.031-78.031-78.031zm62.815 70.15l-6.71 1.17-9.676-13.421h-3.122a26.644 26.644 0 0 0-23.565-39.016c-14.67 0-26.687 11.861-26.687 26.53 0 12.174 8.272 22.474 19.43 25.673l-.39.39-3.824 1.951-6.242-2.263-6.165-3.59-8.661 10.925-6.945-3.823-13.343 3.433-6.71-22.005H57.317l-11.94 20.913-3.667.078c.47-39.172 32.541-70.854 71.79-70.854 39.562 0 71.789 32.227 71.789 71.789v2.263l-8.974-10.144zm-62.815 79.67c-30.51 0-56.65-19.118-67.029-46.039 2.029 0 4.214.078 6.399.078 1.17.327 2.376.483 3.59.469 1.014 0 2.028-.078 2.886-.313a9.53 9.53 0 0 1 1.483.078c-.156.469-.156.625-.156.78 0 3.434 3.667 5.931 8.74 5.931 4.915 0 8.505-2.34 8.66-5.618l2.42.234c20.756 2.263 22.16 6.008 22.16 6.164.079.313-.39 1.951-4.603 4.76-8.818 6.087-11.86 9.754-11.08 13.578.936 4.604 6.944 5.774 16.074 7.49 2.575.469 5.462 1.015 8.427 1.717 3.278.703 6.789 1.405 10.144 2.107 6.087 1.249 12.33 2.497 17.323 3.98a72.143 72.143 0 0 1-25.438 4.604zm33.397-8.272c-5.852-2.887-14.748-4.603-24.111-6.476a452.815 452.815 0 0 1-9.988-2.029c-2.872-.648-5.76-1.22-8.662-1.717-4.213-.78-9.285-1.794-10.924-2.73.546-.86 2.263-2.888 8.35-7.024 2.184-1.482 8.817-6.008 7.022-11.782-1.639-5.384-10.144-8.662-27.467-10.534-1.56-.157-3.2-.313-4.916-.469-.858-2.575-2.107-6.242-3.901-11.548l-2.966-8.662-2.965 8.662c-1.014 2.887-1.795 5.228-2.497 7.257-.78-2.497-2.185-6.555-4.604-13.578l-2.73-8.817-2.966 8.661c-4.058 11.86-5.228 15.372-5.54 16.699h-3.59a76.393 76.393 0 0 1-2.497-14.124l7.18-.234 11.86-20.756h8.193l7.101 23.331 16.699-4.292 3.823 2.107-8.115 10.222 4.916 3.902 17.323-21.927 2.029 1.17 9.364 3.434 4.057-2.107c-.78 1.639-1.248 3.433-1.248 5.306 0 1.873 1.17 5.853 10.066 7.335a5.864 5.864 0 0 1 4.916 5.774v10.144a17.919 17.919 0 0 0-4.214-2.184h.078c-3.433-1.093-6.633-2.731-7.647-6.087-.78 2.731-2.965 4.292-5.774 5.384-7.257 1.951-12.485 7.413-12.485 13.89 0 2.34 1.794 7.881 18.103 7.881 16.386 0 18.103-5.54 18.103-7.881v-12.251c1.093.39 2.341.702 3.824.936a5.864 5.864 0 0 1 4.916 5.775v7.023c0 1.638 1.17 3.12 2.809 3.277a3.164 3.164 0 0 0 3.433-3.121v-7.18a5.867 5.867 0 0 1 4.916-5.774c8.896-1.482 10.066-5.384 10.066-7.335 0-5.228-3.433-9.753-8.505-12.329h.078c-.078 0-.156-.078-.312-.078-.859-.468-1.873-.78-2.81-1.092a9.662 9.662 0 0 1-3.51-2.81c-.391-5.54-4.527-10.221-10.457-12.484h-.078c-.39-.156-.78-.234-1.17-.39-2.966-1.093-5.54-2.731-6.4-5.619-.936 3.2-3.667 4.838-7.178 5.93-.234.079-.546.157-.78.313l9.754-10.378 5.852 7.881 4.682-3.746h1.17l10.144 13.968 7.18-1.248 10.533 11.938c-3.433 22.785-17.713 42.137-37.533 52.593zm-6.866-24.267c-1.093.78-5.15 2.029-11.861 2.029-6.71 0-10.768-1.249-11.86-2.03.311-4.369 5.617-7.958 11.86-7.958 6.242 0 11.549 3.589 11.86 7.959zm18.18-26.609c6.243 0 11.55 3.59 11.862 7.96-1.093.78-5.228 2.028-11.861 2.028-6.633 0-10.768-1.248-11.86-2.029.311-4.37 5.617-7.959 11.86-7.959zm-3.198-7.647c-1.093.78-5.228 2.029-11.861 2.029-6.633 0-10.768-1.249-11.86-2.029.311-4.37 5.617-7.96 11.86-7.96 6.242 0 11.549 3.59 11.86 7.96zm-4.76-26.453l-4.682-6.32-14.514 15.528c-10.76-1.175-18.725-10.553-18.144-21.36.58-10.809 9.506-19.279 20.329-19.294 11.245.008 20.358 9.121 20.366 20.366a20.146 20.146 0 0 1-3.355 11.08zm-82.87 47.678l2.107-6.321 2.107 6.32a7.227 7.227 0 0 1-4.213 0zm-12.875-6.633c.469-1.405 1.17-3.668 2.03-6.087.858 2.497 1.638 4.76 2.028 6.165-1.405 0-2.731-.078-4.058-.078zm29.964-41.903c9.986-.031 18.072-8.118 18.104-18.103-.008-9.995-8.109-18.096-18.104-18.103-9.995.007-18.095 8.108-18.103 18.103.008 9.995 8.108 18.095 18.103 18.103zm0-29.964c6.477 0 11.861 5.306 11.861 11.86 0 6.551-5.31 11.862-11.86 11.862-6.551 0-11.861-5.31-11.861-11.861 0-6.55 5.31-11.86 11.86-11.86z"/></svg>