<svg xmlns="http://www.w3.org/2000/svg" width="227" height="227" viewBox="0 0 227 227"><path d="M49.338 1.549c-8.407 1.947-14.78 4.646-21.505 9.16-4.912 3.274-12.036 10.044-15.664 14.867-5.266 7.036-9.47 16.461-11.284 25.31C.045 55.047 0 56.906 0 98.854v43.63h42.037v-40.222c0-24.869.177-41.108.443-42.568.708-3.894 3.141-8.32 6.15-11.151 8.452-8.098 21.24-7.92 29.515.31 1.46 1.504 3.186 3.805 3.85 5.132 2.522 5.133 2.522 5.09 2.522 48.542v39.957h39.957c43.453 0 43.409 0 48.542 2.523 1.327.663 3.628 2.39 5.133 3.85 6.46 6.46 8.053 15.708 4.159 24.071-1.637 3.496-5.443 7.523-8.806 9.337-5.177 2.743-4.203 2.699-48.586 2.699h-40.4V227h87.836l4.646-1.062c8.54-1.947 14.912-4.646 21.727-9.204 4.911-3.274 12.035-10.045 15.664-14.868 5.266-7.035 9.47-16.46 11.284-25.31 1.15-5.62 1.239-19.205.177-24.824-4.16-21.992-20.532-40.931-41.684-48.144-9.07-3.097-10.31-3.23-34.912-3.451l-22.258-.222V80.711c0-20.62-.31-25.31-2.035-32.39-2.788-11.373-8.187-20.975-16.505-29.338C99.163 9.691 88.543 3.85 76.109 1.327 69.516 0 55.533.088 49.34 1.55zM0 205.981V227h42.037v-42.037H0z"/></svg>