<svg version="1.1" id="Layer_1" xmlns="http://www.w3.org/2000/svg" xmlns:xlink="http://www.w3.org/1999/xlink" x="0px" y="0px"
	 width="226.777px" height="226.777px" viewBox="0 0 226.777 226.777" enable-background="new 0 0 226.777 226.777"
	 xml:space="preserve">
<path fill="#231F20" d="M113.116,0C50.344,0-0.545,50.887-0.545,113.66s50.888,113.661,113.661,113.661
	s113.661-50.888,113.661-113.661S175.889,0,113.116,0z M104.556,153.278c-1.859,1.136-25.599,2.167-27.457,0
	c-1.702-1.986-1.068-7.625-1.427-17.444H56.711l-10.511-10.496h28.682c-0.563-4.526-1.358-8.194-2.265-11.677H52.219l-10.511-10.496
	h27.586c-3.13-7.437-8.721-17.153-10.983-19.666c-2.786-3.095-6.194-5.055-6.09-6.295c0.106-1.238,0.827-3.715,10.53-4.078
	c9.705-0.36,12.698-0.566,16.207,0c4.884,0.789,14.398,13.934,17.96,22.296c3.562,8.362,7.896,23.068,8.516,35.457
	C106.053,143.263,106.413,152.142,104.556,153.278z M141.695,153.278c-1.858,1.136-25.599,2.167-27.457,0
	c-1.857-2.167-0.927-8.673-1.548-20.231c-0.621-11.561-2.477-17.96-4.541-25.186c-2.066-7.227-9.91-21.265-12.697-24.362
	c-2.789-3.095-6.194-5.055-6.089-6.295c0.102-1.238,0.822-3.715,10.529-4.078c9.701-0.36,12.696-0.566,16.205,0
	c4.885,0.789,14.399,13.934,17.961,22.296c3.561,8.362,7.896,23.068,8.516,35.457C143.194,143.263,143.553,152.142,141.695,153.278z
	 M179.716,153.278c-1.858,1.136-25.599,2.167-27.457,0s-0.932-8.673-1.548-20.231c-0.62-11.561-2.477-17.96-4.543-25.186
	c-2.063-7.227-9.907-21.265-12.695-24.362c-2.787-3.095-6.193-5.055-6.092-6.295c0.104-1.238,0.825-3.715,10.53-4.078
	c9.703-0.36,12.696-0.566,16.206,0c4.883,0.789,14.397,13.934,17.96,22.296c3.56,8.362,7.896,23.068,8.516,35.457
	C181.21,143.263,181.573,152.142,179.716,153.278z"/>
</svg>
