<svg version="1.1" id="Layer_1" xmlns="http://www.w3.org/2000/svg" xmlns:xlink="http://www.w3.org/1999/xlink" x="0px" y="0px"
	 width="226.777px" height="226.777px" viewBox="0 0 226.777 226.777" enable-background="new 0 0 226.777 226.777"
	 xml:space="preserve">
<g>
	<path fill="#231F20" d="M225.963,141.436c-1.01-20.176-8.071-44.133-13.872-57.751c-5.802-13.621-21.3-35.031-29.255-36.317
		c-5.716-0.924-10.592-0.589-26.396,0c-15.807,0.589-16.981,4.624-17.149,6.643c-0.171,2.018,5.38,5.211,9.919,10.254
		c4.541,5.042,17.316,27.908,20.681,39.678c3.365,11.771,6.39,22.194,7.399,41.022c1.009,18.83-0.505,29.424,2.521,32.953
		c3.025,3.531,41.697,1.851,44.723,0C227.558,176.071,226.969,161.611,225.963,141.436z"/>
	<path fill="#231F20" d="M150.164,83.685c-5.801-13.621-21.3-35.031-29.255-36.317c-5.716-0.924-10.593-0.589-26.397,0
		c-15.808,0.589-16.98,4.624-17.148,6.643c-0.17,2.018,5.378,5.211,9.918,10.254c4.54,5.042,17.317,27.908,20.681,39.678
		c3.363,11.771,6.389,22.194,7.399,41.022c1.008,18.83-0.505,29.424,2.52,32.953c3.027,3.531,41.697,1.851,44.724,0
		c3.026-1.848,2.438-16.308,1.429-36.482C163.026,121.26,155.963,97.303,150.164,83.685z"/>
	<path fill="#231F20" d="M89.67,83.685c-5.8-13.621-21.297-35.031-29.253-36.317c-5.716-0.924-10.593-0.589-26.398,0
		c-15.804,0.589-16.978,4.624-17.15,6.643c-0.169,2.018,5.382,5.211,9.92,10.254c3.682,4.092,12.789,19.917,17.892,32.029H-0.257
		l17.122,17.095h33.223c1.475,5.673,2.771,11.648,3.688,19.021H7.058l17.121,17.096h30.888c0.583,15.994-0.449,25.18,2.324,28.413
		c3.026,3.531,41.694,1.851,44.721,0c3.026-1.848,2.438-16.308,1.429-36.482C102.531,121.26,95.471,97.303,89.67,83.685z"/>
</g>
</svg>
