<svg width="227" height="227" viewBox="0 0 227 227" xmlns="http://www.w3.org/2000/svg"><title>mln</title><path d="M61.198 142.755l9.647-5.576-1.262-2.192-9.52 5.498V84.792l48.38 28.673v82.003l5.057 3.157 5.065-3.157v-82.003l48.372-28.673v55.7l-9.527-5.505-1.262 2.199 9.647 5.569-37.384 21.934v12.265l48.933-28.801V73.03L113.5 35.47 49.656 73.03v75.123l48.94 28.8v-12.272l-37.398-21.926zm50.897-94.418v11.215h2.533V48.174l47.244 27.722-48.372 28.68-48.38-28.68 46.975-27.56zM113.5 227C50.813 227 0 176.187 0 113.5S50.813 0 113.5 0 227 50.813 227 113.5 176.187 227 113.5 227zm-1.405-160.276v11.754h2.533V66.724h-2.533zm0 18.926v11.754l1.263.575 1.27-.568V85.65h-2.533zm39.442 45.755l-10.18-5.881-1.27 2.199 10.187 5.874 1.263-2.192zm-16.068-9.463l-10.186-5.874-1.128.809-.142 1.383 10.187 5.874 1.27-2.192zm-60.013 9.463l1.27 2.199 10.18-5.888-1.27-2.192-10.18 5.888v-.007zm16.075-9.463l1.262 2.199 10.18-5.888-.135-1.376-1.128-.81-10.18 5.875z"/></svg>