<svg width="227" height="227" viewBox="0 0 227 227" xmlns="http://www.w3.org/2000/svg"><title>mln</title><path d="M41.884 149.148l13.353-7.717-1.748-3.034-13.176 7.61V68.918l66.964 39.687v113.506l7 4.369 7.011-4.37V108.607l66.954-39.687v77.097l-13.186-7.62-1.748 3.044 13.354 7.708-51.745 30.36v16.977l67.73-39.865V52.64L114.277.648l-88.369 51.99V156.62l67.74 39.865v-16.987l-51.764-30.35zm70.45-130.688v15.524h3.505v-15.75l65.393 38.372-66.955 39.697-66.964-39.697 65.02-38.146zm0 25.45v16.27h3.505V43.91h-3.506zm0 26.197v16.27l1.747.795 1.758-.786v-16.28h-3.506zm54.592 63.331l-14.09-8.14-1.758 3.044 14.1 8.13 1.748-3.034zm-22.24-13.098l-14.1-8.13-1.56 1.12-.197 1.914 14.1 8.13 1.757-3.034zM61.62 133.438l1.758 3.044 14.09-8.15-1.758-3.034-14.09 8.15v-.01zm22.25-13.098l1.747 3.044 14.09-8.15-.186-1.905-1.561-1.12-14.09 8.13z"/></svg>