<svg version="1.1" id="Layer_1" xmlns="http://www.w3.org/2000/svg" xmlns:xlink="http://www.w3.org/1999/xlink" x="0px" y="0px"
	 width="226.777px" height="226.777px" viewBox="0 0 226.777 226.777" enable-background="new 0 0 226.777 226.777"
	 xml:space="preserve">
<g>
	<polygon fill="#231F20" points="112.951,149.841 125.151,129.237 101.231,129.237 	"/>
	<path fill="#231F20" d="M198.826,82.449L182.615,9.823l-31.669,49.976c-11.752-2.878-24.376-4.459-37.532-4.459
		c-13.159,0-25.78,1.581-37.532,4.459L44.21,9.823L27.999,82.449C10.58,96.361,0,114.556,0,134.479
		c0,43.707,50.775,79.139,113.414,79.139c62.637,0,113.414-35.432,113.414-79.139C226.828,114.556,216.247,96.361,198.826,82.449z
		 M50.348,115.714h-7.619l18.443-21.25h13.521L50.348,115.714z M112.795,167.606L81.412,112.44l7.749-4.408l6.992,12.287h34.276
		l7.314-12.354l7.672,4.544L112.795,167.606z M176.478,115.714l-24.343-21.25h13.521l18.439,21.25H176.478z"/>
</g>
</svg>
