<svg version="1.1" id="Layer_1" xmlns="http://www.w3.org/2000/svg" xmlns:xlink="http://www.w3.org/1999/xlink" x="0px" y="0px"
	 width="226.777px" height="226.777px" viewBox="0 0 226.777 226.777" enable-background="new 0 0 226.777 226.777"
	 xml:space="preserve">
<g>
	<polygon fill="#231F20" points="140.539,102.841 155.771,116.138 160.539,116.138 149,102.841 	"/>
	<path fill="#231F20" d="M123.471,118.558h-20.408l-4.163-7.316l-4.615,2.624l18.686,32.846l19.423-32.805l-4.568-2.705
		L123.471,118.558z M113.065,136.135l-6.978-12.268h14.24L113.065,136.135z"/>
	<polygon fill="#231F20" points="66.139,116.138 70.907,116.138 86.142,102.841 77.68,102.841 	"/>
	<path fill="#231F20" d="M113.339,0C50.689,0-0.099,50.788-0.099,113.438c0,62.649,50.788,113.438,113.438,113.438
		c62.649,0,113.438-50.789,113.438-113.438C226.777,50.788,175.988,0,113.339,0z M113.341,174.109
		c-37.296,0-67.529-21.096-67.529-47.12c0-11.862,6.3-22.696,16.671-30.98l9.653-43.242l18.858,29.756
		c6.997-1.714,14.512-2.654,22.347-2.654c7.833,0,15.351,0.94,22.348,2.654l18.856-29.756l9.65,43.242
		c10.374,8.284,16.675,19.118,16.675,30.98C180.87,153.013,150.635,174.109,113.341,174.109z"/>
</g>
</svg>
