<svg version="1.1" id="Layer_1" xmlns="http://www.w3.org/2000/svg" xmlns:xlink="http://www.w3.org/1999/xlink" x="0px" y="0px"
	 width="226.777px" height="226.777px" viewBox="0 0 226.777 226.777" enable-background="new 0 0 226.777 226.777"
	 xml:space="preserve">
<path fill="#231F20" d="M113.397,0C50.769,0,0,50.769,0,113.396c0,62.623,50.77,113.396,113.397,113.396
	c62.629,0,113.397-50.772,113.397-113.396C226.794,50.769,176.026,0,113.397,0z M157.128,85.704
	c-9.181-14.467-25.328-24.077-43.731-24.077c-28.591,0-51.771,23.177-51.771,51.769c0,20.077,11.44,37.477,28.152,46.06V90.821
	h13.59v35.11c0.129,1.893,1.279,10.441,11.575,10.441c9.266,0,10.241-8.779,10.322-11.47l-0.002-34.082h13.59v34.228
	c-0.14,10.072-6.621,24.915-23.91,24.915c-4.568,0-8.397-0.932-11.575-2.455v16.676c3.246,0.637,6.597,0.979,10.029,0.979
	c16.981,0,32.054-8.178,41.493-20.809l31.158,23.046c-16.5,22.162-42.896,36.521-72.651,36.521
	c-49.996,0-90.528-40.531-90.528-90.525c0-49.997,40.532-90.525,90.528-90.525c31.974,0,60.055,16.591,76.16,41.618L157.128,85.704z
	"/>
</svg>
