<svg version="1.1" id="Layer_1" xmlns="http://www.w3.org/2000/svg" xmlns:xlink="http://www.w3.org/1999/xlink" x="0px" y="0px"
	 width="226.777px" height="226.777px" viewBox="0 0 226.777 226.777" enable-background="new 0 0 226.777 226.777"
	 xml:space="preserve">
<path id="MSC_alt" fill="#231F20" d="M113.616,0.455C51.119,0.455,0.455,51.119,0.455,113.616
	c0,62.497,50.664,113.161,113.161,113.161c62.497,0,113.161-50.664,113.161-113.161C226.777,51.119,176.113,0.455,113.616,0.455z
	 M78.055,144.105l-36.107,7.871l49.667-95.857L106,88.141c-18.145,3.632-31.815,19.65-31.815,38.862
	C74.185,133.129,75.575,138.927,78.055,144.105z M113.822,154.687c-15.288,0-27.684-12.394-27.684-27.684
	c0-15.291,12.396-27.686,27.684-27.686c15.291,0,27.687,12.395,27.687,27.686C141.509,142.294,129.113,154.687,113.822,154.687z
	 M149.554,144.187c2.502-5.198,3.906-11.027,3.906-17.184c0-19.084-13.487-35.015-31.45-38.788l15.091-32.097l48.182,95.857
	L149.554,144.187z"/>
</svg>
