<svg version="1.1" id="Layer_1" xmlns="http://www.w3.org/2000/svg" xmlns:xlink="http://www.w3.org/1999/xlink" x="0px" y="0px"
	 width="226.777px" height="226.777px" viewBox="0 0 226.777 226.777" enable-background="new 0 0 226.777 226.777"
	 xml:space="preserve">
<path fill="#231F20" d="M113.364,0C50.755,0,0,50.755,0,113.363c0,62.61,50.755,113.365,113.364,113.365
	c62.609,0,113.364-50.755,113.364-113.365C226.728,50.755,175.973,0,113.364,0z M79.862,162.818H65.921v-41.28l13.941-4.292V162.818
	z M103.654,162.818H89.712v-48.629l13.942-4.293V162.818z M127.444,162.818h-13.941V106.88l13.941-4.293V162.818z M160.462,94.151
	l-1.874-6.659l-7.352,2.263v73.063h-13.941v-68.77L45.528,122.31l-1.25-4.022l110.356-48.136l-1.596-6.244l29.411,3.747
	L160.462,94.151z"/>
</svg>
