<svg version="1.1" id="Layer_1" xmlns="http://www.w3.org/2000/svg" xmlns:xlink="http://www.w3.org/1999/xlink" x="0px" y="0px"
	 width="226.777px" height="226.777px" viewBox="0 0 226.777 226.777" enable-background="new 0 0 226.777 226.777"
	 xml:space="preserve">
<g>
	<polygon fill="#231F20" points="184.741,34.274 114.684,122.314 42.816,34.274 0,214.203 42.816,214.203 65.428,120.388 
		114.684,178.602 163.092,120.388 185.703,214.203 227.077,214.203 	"/>
	<path fill="#231F20" d="M104.276,71.558c11.908,0,22.552-17.68,37.526-29.227c14.974-11.546,42.037-27.241,40.412-29.587
		c-1.624-2.346-37.887,20.387-46.186,27.242c-8.298,6.855-21.288,19.846-26.339,19.124c-5.052-0.722-31.752-42.396-40.773-36.804
		c-4.26,2.641-4.33,8.24-1.263,11.968C70.72,38.002,92.37,71.558,104.276,71.558z"/>
</g>
</svg>
