<svg version="1.1" id="Layer_1" xmlns="http://www.w3.org/2000/svg" xmlns:xlink="http://www.w3.org/1999/xlink" x="0px" y="0px"
	 width="226.777px" height="226.777px" viewBox="0 0 226.777 226.777" enable-background="new 0 0 226.777 226.777"
	 xml:space="preserve">
<path fill="#231F20" d="M113.389,0C50.766,0,0,50.766,0,113.389c0,62.623,50.766,113.39,113.39,113.39
	c62.623,0,113.39-50.767,113.39-113.39C226.779,50.766,176.012,0,113.389,0z M90.45,59.588c4.521-2.803,17.904,18.085,20.436,18.446
	c2.532,0.362,9.042-6.148,13.202-9.585c4.159-3.435,22.335-14.829,23.147-13.653c0.815,1.175-12.749,9.043-20.254,14.83
	c-7.505,5.788-12.841,14.648-18.809,14.648c-5.967,0-16.818-16.819-18.355-18.687C88.28,63.719,88.315,60.911,90.45,59.588z
	 M148.983,155.766l-11.331-47.019l-24.263,29.177l-24.687-29.177L77.37,155.766H55.909l21.461-90.18l36.019,44.126l35.113-44.126
	l21.219,90.18H148.983z"/>
</svg>
