<svg width="227" height="227" viewBox="0 0 227 227" xmlns="http://www.w3.org/2000/svg"><title>nano</title><path d="M113.5 227C50.816 227 0 176.184 0 113.5S50.816 0 113.5 0 227 50.816 227 113.5 176.184 227 113.5 227zm63.487-148.969c-6.083 0-11.23 4.914-11.23 11.231 0 8.891-1.404 11.231-11.231 11.231h-.936a10.98 10.98 0 0 0-10.061 10.997v.234c0 8.657-1.638 10.763-11.231 10.763-.468 0-.936 0-1.17.234-5.615.702-10.061 5.381-10.061 10.997 0 6.083 4.914 11.23 11.23 11.23 5.85 0 10.764-4.679 10.998-10.294v-.936c0-7.955 2.574-10.997 10.997-11.231h.234c5.85 0 10.763-4.68 10.997-10.53v-.701c0-8.19 2.573-11.23 11.23-11.23 6.084 0 11.231-4.914 11.231-11.232 0-5.85-4.913-10.763-10.997-10.763zm-65.981 22.462h-.936c-9.827 0-11.23-2.34-11.23-11.23 0-6.084-4.914-11.232-11.232-11.232-6.083 0-11.23 4.914-11.23 11.231 0 8.891-1.404 10.997-11.231 10.997h-.936a10.98 10.98 0 0 0-10.061 10.997c0 6.083 4.913 11.23 11.23 11.23 5.85 0 10.763-4.679 10.997-10.294v-.702c0-8.19 2.574-11.231 11.231-11.231s11.231 3.042 11.231 10.997c0 6.083 4.914 11.23 11.231 11.23s11.231-4.913 11.231-11.23c-.234-5.615-4.68-10.295-10.295-10.763zm-67.853 44.456c6.202 0 11.23-5.029 11.23-11.231 0-6.203-5.028-11.231-11.23-11.231-6.203 0-11.231 5.028-11.231 11.23 0 6.203 5.028 11.232 11.23 11.232z"/></svg>