<svg width="228" height="227" viewBox="0 0 228 227" xmlns="http://www.w3.org/2000/svg"><title>nano</title><path d="M211.926 70.031c-8.848 0-16.335 7.147-16.335 16.336 0 12.933-2.042 16.336-16.336 16.336h-1.362c-8.168.68-14.634 7.487-14.634 15.995v.34c0 12.593-2.382 15.656-16.336 15.656-.68 0-1.36 0-1.701.34-8.168 1.021-14.634 7.828-14.634 15.996 0 8.848 7.146 16.336 16.335 16.336 8.509 0 15.656-6.807 15.996-14.975v-1.361c0-11.571 3.744-15.996 15.995-16.336h.34c8.509 0 15.656-6.807 15.996-15.315v-1.02c0-11.912 3.744-16.337 16.336-16.337 8.849 0 16.336-7.147 16.336-16.336 0-8.508-7.147-15.655-15.996-15.655zm-95.973 32.672h-1.361c-14.294 0-16.336-3.403-16.336-16.336 0-8.848-7.147-16.336-16.336-16.336-8.848 0-16.335 7.147-16.335 16.336 0 12.933-2.042 15.996-16.336 15.996h-1.362c-8.168.68-14.634 7.487-14.634 15.995 0 8.849 7.147 16.336 16.336 16.336 8.508 0 15.655-6.807 15.996-14.975v-1.02c0-11.912 3.743-16.336 16.335-16.336 12.593 0 16.336 4.424 16.336 15.995 0 8.849 7.147 16.336 16.336 16.336 9.189 0 16.336-7.147 16.336-16.336-.34-8.168-6.807-14.974-14.975-15.655zm-98.695 64.663c9.022 0 16.336-7.314 16.336-16.336 0-9.022-7.314-16.336-16.336-16.336-9.022 0-16.336 7.314-16.336 16.336 0 9.022 7.314 16.336 16.336 16.336z"/></svg>