<svg version="1.1" id="Layer_1" xmlns="http://www.w3.org/2000/svg" xmlns:xlink="http://www.w3.org/1999/xlink" x="0px" y="0px"
	 width="226.777px" height="226.777px" viewBox="0 0 226.777 226.777" enable-background="new 0 0 226.777 226.777"
	 xml:space="preserve">
<path id="NBT" fill="#231F20" d="M206.55,48.882l-41.694,134.989l-11.344-36.633l36.344-117.493
	c-1.566-1.431-3.169-2.821-4.811-4.163l-34.663,111.542l-11.348-36.656l27.251-87.35C150.477,4.746,132.458,0,113.327,0
	C50.738,0,0,50.739,0,113.327c0,24.447,7.741,47.085,20.904,65.598L61.171,45.9l11.411,36.852L37.763,197.778
	c1.535,1.374,3.108,2.706,4.718,3.999L75.579,92.435l11.409,36.851l-25.655,84.759c15.572,8.056,33.251,12.61,51.994,12.61
	c62.59,0,113.329-50.738,113.329-113.328C226.656,89.385,219.223,67.178,206.55,48.882z M116.726,185.165
	c-5.41,0-9.448-3.646-10.656-7.595c-1.206-3.948-41.484-134.963-41.484-134.963s10.858,0.002,15.182,0.002
	c4.324,0,8.168,2.56,9.311,6.172C90.222,52.393,131,185.165,131,185.165S122.135,185.165,116.726,185.165z M145.517,185.135
	c-5.137,0-9.722-3.924-11.203-8.922c-1.483-4.999-40.443-133.605-40.443-133.605s9.809,0,14.687,0c4.88,0,8.723,2.821,9.982,6.941
	c1.256,4.121,41.041,135.591,41.041,135.591S150.655,185.135,145.517,185.135z"/>
</svg>
