<svg version="1.1" id="Layer_1" xmlns="http://www.w3.org/2000/svg" xmlns:xlink="http://www.w3.org/1999/xlink" x="0px" y="0px"
	 width="226.777px" height="226.777px" viewBox="0 0 226.777 226.777" enable-background="new 0 0 226.777 226.777"
	 xml:space="preserve">
<path fill="#1D1D1B" d="M113.396,0C50.769,0,0,50.769,0,113.396s50.77,113.396,113.396,113.396s113.396-50.77,113.396-113.396
	S176.023,0,113.396,0z M163.131,181.399l-21.096-12.854H63.676l-0.012-55.103l99.467,60.609V181.399z M163.131,168.504
	l-99.455-60.603l-0.012-7.357l99.467,60.609V168.504z M163.131,155.607L63.676,95.006l-0.012-7.358l99.467,60.611V155.607z
	 M163.131,142.711L63.676,82.11l-0.012-7.356l99.467,60.608V142.711z M163.131,129.814L63.676,69.213l-0.012-7.357l99.467,60.608
	V129.814z M163.131,116.917L63.676,56.316l-0.012-7.356l49.735,30.305v-21.97h49.732V116.917z"/>
</svg>
