<svg version="1.1" id="Layer_1" xmlns="http://www.w3.org/2000/svg" xmlns:xlink="http://www.w3.org/1999/xlink" x="0px" y="0px"
	 width="595.279px" height="595.281px" viewBox="0 0 595.279 595.281" enable-background="new 0 0 595.279 595.281"
	 xml:space="preserve">
<path fill="#000000" d="M297.619,0.001C133.249,0.001,0,133.25,0,297.618C0,461.991,133.249,595.24,297.619,595.24
	c164.37,0,297.62-133.249,297.62-297.622C595.239,133.25,461.989,0.001,297.619,0.001z M328.019,161.703v26.361l-45.637-26.361
	H328.019z M270.021,161.703l57.998,33.504v34.216L210.89,161.703H270.021z M191.563,432.678h-29.631V161.703h29.631V432.678z
	 M227.378,432.678h-29.631V161.703l130.273,74.864v34.222l-100.642-58.146V432.678z M267.219,432.678v-26.361l45.634,26.361H267.219
	z M325.217,432.678l-57.998-33.505v-34.217l117.129,67.722H325.217z M397.489,432.678l-130.27-74.864v-34.228l100.642,58.151
	V161.703h29.628V432.678z M433.303,432.678h-29.628V161.703h29.628V432.678z"/>
</svg>
