<svg version="1.1" id="Layer_1" xmlns="http://www.w3.org/2000/svg" xmlns:xlink="http://www.w3.org/1999/xlink" x="0px" y="0px"
	 width="595.279px" height="595.281px" viewBox="0 0 595.279 595.281" enable-background="new 0 0 595.279 595.281"
	 xml:space="preserve">
<g>
	<rect x="0" y="0.001" fill="#000000" width="64.997" height="595.28"/>
	<polygon fill="#000000" points="364.322,164.469 78.559,0.001 78.559,595.281 143.556,595.281 143.556,111.912 364.322,239.641 	
		"/>
	<polygon fill="#000000" points="364.322,73.604 237.103,0.001 107.389,0.001 364.322,148.775 	"/>
	<polygon fill="#000000" points="364.322,0.001 264.219,0.001 364.322,57.916 	"/>
	<rect x="530.283" y="0.001" fill="#000000" width="64.996" height="595.28"/>
	<polygon fill="#000000" points="451.722,483.371 230.957,355.641 230.957,430.813 516.719,595.281 516.719,0.001 451.722,0.001 	
		"/>
	<polygon fill="#000000" points="230.957,521.677 358.176,595.281 487.889,595.281 230.957,446.506 	"/>
	<polygon fill="#000000" points="230.957,595.281 331.06,595.281 230.957,537.372 	"/>
</g>
</svg>
