<svg version="1.1" id="Layer_1" xmlns="http://www.w3.org/2000/svg" xmlns:xlink="http://www.w3.org/1999/xlink" x="0px" y="0px"
	 width="226.777px" height="226.777px" viewBox="0 0 226.777 226.777" enable-background="new 0 0 226.777 226.777"
	 xml:space="preserve">
<g>
	<path fill="#231F20" d="M160.53,98.028c-3.24,0-5.865,2.625-5.865,5.863c0,2.542,1.621,4.7,3.885,5.513
		c-0.336-0.542-0.54-1.178-0.54-1.863c0-1.965,1.594-3.559,3.557-3.559c1.962,0,3.55,1.589,3.558,3.547
		c0.791-1.001,1.269-2.263,1.269-3.639C166.392,100.652,163.768,98.028,160.53,98.028z"/>
	<path fill="#231F20" d="M113.327,0C50.739,0,0,50.739,0,113.327c0,62.589,50.739,113.328,113.328,113.328
		c62.589,0,113.328-50.738,113.328-113.328C226.655,50.739,175.917,0,113.327,0z M173.702,123.253c0,0-5.378,1.512-11.989,1.064
		c-6.609-0.447-12.156-3.754-12.379-3.642c-0.224,0.113,2.576,10.476,2.464,17.927c-0.112,7.449-4.257,16.244-4.761,16.076
		c-0.505-0.167-0.337-5.657-0.952-8.795c-0.617-3.137-1.905-7.338-7.284-12.827c-5.377-5.489-11.259-7.06-11.259-7.06
		c7.001,3.88,12.773,9.748,14.229,20.279c1.457,10.532-5.35,18.318-5.659,18.851c-0.308,0.531,0.281,1.119,1.234,1.119
		c0.952,0,17.673,0.028,19.55,0.028c1.878,0,3.866,1.989,3.866,3.978c0,1.989,0,4.58,0,4.58s-39.452,0-44.115,0
		c-4.665,0-11.933-1.26-18.361-5.798c-6.429-4.538-8.781-11.89-8.781-11.89s0.209,1.428,0.713,3.36s1.639,3.403,1.177,3.866
		c-0.463,0.462-0.588,0.756-5.504,0.125c-4.916-0.63-12.94-4.832-17.218-10.042c-4.277-5.209-7.962-16.133-4.152-29.129
		c3.809-12.997,12.996-19.831,15.573-24.536c2.578-4.706,2.913-10.532-1.681-15.685c-4.593-5.155-14.005-5.155-18.709-0.672
		c-4.706,4.482-4.314,12.043-4.314,12.043s-3.446-7.058-3.614-14.495c-0.168-7.437,4.243-15.209,6.764-18.318
		c2.521-3.109,11.301-12.016,25.167-11.974c13.864,0.042,22.813,7.689,27.771,15.377c4.958,7.689,5.378,16.89,2.354,26.385
		c-3.026,9.496-9.369,11.723-16.386,18.613c-7.017,6.891-9.622,13.74-9.622,13.74s5.42-7.647,9.622-11.052
		c4.201-3.401,12.645-7.562,21.259-8.149c8.613-0.589,14.369-3.194,14.873-3.612c0.504-0.421,0.408-2.311,0.408-2.311
		s-3.419-3.417-4.65-6.219c-1.233-2.8-2.409-10.083,1.231-16.077c3.641-5.995,10.478-8.235,10.478-8.235s3.304,3.138,4.704,6.554
		c1.401,3.417,1.289,7.395,1.289,7.395s8.515,1.793,13.892,5.265c5.377,3.473,10.869,9.972,13.053,18.207
		C176.166,115.802,173.702,123.253,173.702,123.253z"/>
</g>
</svg>
