<svg version="1.1" id="Layer_1" xmlns="http://www.w3.org/2000/svg" xmlns:xlink="http://www.w3.org/1999/xlink" x="0px" y="0px"
	 width="226.777px" height="226.777px" viewBox="0 0 226.777 226.777" enable-background="new 0 0 226.777 226.777"
	 xml:space="preserve">
<path fill="#231F20" d="M225.152,102.948c-4.025-15.171-14.142-27.145-24.048-33.543c-9.906-6.397-25.595-9.7-25.595-9.7
	s0.209-7.329-2.372-13.624s-8.67-12.075-8.67-12.075s-12.593,4.127-19.301,15.172c-6.706,11.043-4.54,24.46-2.271,29.62
	c2.271,5.16,8.567,11.456,8.567,11.456s0.179,3.482-0.749,4.257c-0.93,0.773-11.533,5.572-27.401,6.656s-31.426,8.747-39.167,15.017
	c-7.74,6.271-17.726,20.357-17.726,20.357s4.8-12.616,17.726-25.312c12.927-12.694,24.615-16.797,30.188-34.291
	c5.573-17.493,4.8-34.445-4.335-48.609C100.867,14.164,84.379,0.077,58.837,0C33.292-0.077,17.115,16.333,12.47,22.06
	C7.825,27.787-0.301,42.107,0.009,55.808s6.657,26.705,6.657,26.705s-0.72-13.931,7.948-22.188
	c8.668-8.257,26.007-8.257,34.47,1.238c8.462,9.496,7.846,20.228,3.097,28.896c-4.749,8.67-21.673,21.261-28.692,45.205
	c-7.018,23.944-0.229,44.068,7.651,53.666c7.881,9.599,22.665,17.339,31.721,18.5c9.057,1.161,9.288,0.62,10.14-0.231
	s-1.238-3.561-2.167-7.122c-0.929-3.561-1.315-6.192-1.315-6.192s4.334,13.546,16.178,21.906
	c11.842,8.359,25.234,10.682,33.826,10.682c8.59,0,81.274,0,81.274,0s0-4.772,0-8.438s-3.665-7.327-7.123-7.327
	c-3.456,0-34.262-0.053-36.018-0.053c-1.755,0-2.839-1.083-2.272-2.063c0.569-0.98,13.11-15.325,10.426-34.727
	c-2.684-19.403-13.314-30.216-26.214-37.362c0,0,10.836,2.893,20.743,13.006c9.908,10.113,12.28,17.854,13.417,23.633
	c1.136,5.779,0.825,15.894,1.755,16.203s8.565-15.895,8.772-29.62c0.206-13.727-4.953-32.818-4.54-33.025
	c0.412-0.207,10.629,5.885,22.807,6.709c12.181,0.824,22.087-1.962,22.087-1.962S229.177,118.12,225.152,102.948z M208.979,102.983
	c-0.011-3.734-3.042-6.761-6.778-6.761c-3.742,0-6.779,3.035-6.779,6.78c0,1.308,0.389,2.518,1.029,3.554
	c-4.314-1.552-7.401-5.663-7.401-10.51c0-6.17,5.003-11.174,11.175-11.174s11.177,5.004,11.177,11.174
	C211.401,98.67,210.491,101.075,208.979,102.983z"/>
</svg>
