<svg width="227" height="227" viewBox="0 0 227 227" xmlns="http://www.w3.org/2000/svg"><title>ngc</title><path d="M113.5 227C50.813 227 0 176.187 0 113.5S50.813 0 113.5 0 227 50.813 227 113.5 176.187 227 113.5 227zm31.922-107.527l-18.5.95 16.5-42.03-50.253 6.924-4.497 46.336h10.995l-1.738 52.785 47.493-64.965zm-39.002 46.095c0 .922-.78 1.674-1.745 1.674-.964 0-1.752-.752-1.752-1.674v-12.414c0-.922.78-1.674 1.752-1.674s1.745.745 1.745 1.667v12.421zm-12.995-37.497l3.859-40.648a1.582 1.582 0 0 1 1.603-1.39h.284c.454 0 .88.177 1.184.497.305.319.454.744.419 1.17l-3.356 37.03h10.003l-.461 22.53a1.915 1.915 0 0 1-1.951 1.83h-.085a1.999 1.999 0 0 1-1.398-.568 1.844 1.844 0 0 1-.56-1.348l.454-19.103h-9.995zm0-46.82l48.996-5.73-23.998-10.031s2.497-18.153-14.003-22.927l-1.497 5.731s10.002 2.39 9.002 17.678l-18.5 15.28z"/></svg>