<svg width="227" height="227" viewBox="0 0 227 227" xmlns="http://www.w3.org/2000/svg"><title>ngc</title><path d="M160.152 122.982l-29.368 1.508 26.193-66.72-79.771 10.991-7.14 73.555h17.455l-2.76 83.791 75.391-103.125zm-61.911 73.172c0 1.463-1.239 2.657-2.77 2.657-1.532 0-2.782-1.194-2.782-2.657v-19.707c0-1.464 1.239-2.657 2.782-2.657 1.542 0 2.77 1.182 2.77 2.646v19.718zm-20.63-59.525l6.126-64.523a2.511 2.511 0 0 1 2.545-2.207h.45a2.58 2.58 0 0 1 1.88.788 2.4 2.4 0 0 1 .665 1.858l-5.326 58.78h15.878l-.732 35.765A3.04 3.04 0 0 1 96 169.995h-.135a3.173 3.173 0 0 1-2.219-.9 2.927 2.927 0 0 1-.89-2.14l.722-30.326H77.61zm0-74.32l77.778-9.099-38.095-15.922S121.258 8.47 95.065.893L92.69 9.992s15.878 3.794 14.29 28.061L77.611 62.31z"/></svg>