<svg xmlns="http://www.w3.org/2000/svg" width="226.777" height="226.777" viewBox="0 0 226.777 226.777"><path d="M113.441 0C50.79 0 0 50.79 0 113.443c0 62.654 50.79 113.442 113.441 113.442 62.654 0 113.444-50.788 113.444-113.442C226.885 50.79 176.096 0 113.44 0zM66.7 51.146c1.612.028 3.192 1.038 3.969 2.608l.387.783.03 2.92.032 2.918h6.795v-2.346c0-1.29.048-2.647.106-3.015.38-2.418 2.72-4.173 5.076-3.807 1.893.294 3.487 1.897 3.787 3.807.058.368.105 1.72.105 3.004v2.336l2.45.042c2.199.04 2.517.068 3.103.274 1.611.565 2.852 1.804 3.44 3.43l.238.658v56.305l-.24.697c-.485 1.404-1.416 2.46-2.75 3.12-.994.493-1.503.565-4.028.565h-2.195l-.04 3.326c-.036 3.169-.05 3.353-.273 3.917a4.851 4.851 0 0 1-1.502 2.054c-.841.681-1.642.963-2.74.963-1.097 0-1.898-.282-2.74-.963a4.851 4.851 0 0 1-1.502-2.054c-.223-.564-.236-.748-.273-3.917l-.04-3.326h-6.789v3.239c0 2.845-.024 3.312-.189 3.841-.711 2.28-3.134 3.67-5.353 3.073h-.002c-1.654-.446-2.982-1.846-3.327-3.506-.09-.438-.079-1.235.047-3.53.09-1.63.163-3.152.162-3.382v-.418l-1.386-.276c-7.57-1.498-12.718-6.424-14.243-13.627-.37-1.752-.493-3.262-.43-5.302.06-1.893.2-2.892.634-4.485.927-3.4 3.085-6.583 5.855-8.636.47-.349.856-.668.856-.71 0-.041-.377-.358-.836-.705-2.078-1.565-3.898-4.007-4.819-6.464-.718-1.916-1.029-3.727-1.025-5.98.005-3.252.611-5.969 1.904-8.55 2.26-4.51 6.519-7.706 11.969-8.984l1.21-.283.003-2.797c.001-1.538.05-3 .107-3.248.407-1.764 1.974-3.228 3.768-3.52.23-.037.459-.052.69-.049zm78.49.377c1.261.05 2.514.637 3.391 1.791.802 1.056.846 1.283.883 4.561l.033 2.912h6.793l.002-2.396c0-1.319.048-2.697.107-3.06.236-1.45 1.187-2.71 2.553-3.386.756-.373.821-.386 1.877-.386s1.121.013 1.877.386c1.366.675 2.316 1.936 2.55 3.385.06.364.11 1.813.11 3.219.001 1.955.03 2.563.13 2.592.07.02.554.136 1.073.257 3.074.717 6.035 2.197 8.21 4.102 3.128 2.74 5.078 6.696 5.55 11.26.169 1.63.067 4.306-.215 5.63-.786 3.7-2.762 6.882-5.601 9.018l-.883.664.793.518c1.101.72 3.023 2.667 3.82 3.867 2.167 3.261 3.139 7.305 2.82 11.74-.492 6.866-3.503 11.863-8.89 14.758-1.612.867-4.539 1.823-6.205 2.027l-.584.073-.04 3.521c-.036 3.376-.047 3.544-.273 4.112a4.856 4.856 0 0 1-1.502 2.054c-.841.681-1.642.963-2.74.963-1.097 0-1.9-.282-2.742-.963a4.851 4.851 0 0 1-1.502-2.054c-.223-.564-.234-.748-.272-3.917l-.039-3.326h-6.791v3.239c0 2.845-.022 3.312-.187 3.841-.714 2.287-3.134 3.67-5.37 3.069h-.001c-.825-.222-1.49-.624-2.112-1.276-1.188-1.246-1.3-1.747-1.3-5.75v-3.123h-2.3c-3.217 0-4.025-.24-5.384-1.6-.413-.413-.841-.964-1.002-1.288-.64-1.294-.596.848-.596-29.416 0-30.65-.052-28.411.682-29.637.485-.81 1.391-1.712 2.094-2.084 1.085-.575 1.467-.633 4.1-.633h2.406v-2.572c0-2.84.065-3.36.55-4.28.87-1.65 2.506-2.475 4.127-2.412zm-61.71 20.29l-9.1.037c-9.871.04-9.479.02-11.142.623-1.647.597-2.984 1.76-3.677 3.195-.596 1.231-.762 2.03-.762 3.682 0 1.591.154 2.392.685 3.539.976 2.107 3.033 3.456 5.907 3.875.335.049 4.542.094 9.35.101l8.74.012V71.812zm60.229.01v15.054h8.584c6.974 0 8.77-.03 9.566-.15 1.998-.305 3.364-.941 4.54-2.116 1.313-1.311 1.955-3.037 1.955-5.261 0-3.504-1.709-5.977-4.844-7.008-1.502-.494-2.05-.52-11.217-.52h-8.584zm-68.865 26.09c-5.133 0-9.015.043-9.567.105-2.618.294-4.711 1.335-5.931 2.95-1.08 1.431-1.595 3.137-1.58 5.245.01 1.596.224 2.538.877 3.867.35.713.605 1.049 1.367 1.807 1.305 1.297 2.786 2.038 4.617 2.308l1.012.149c.141.02 4.215.045 9.05.052l8.791.014V97.912h-8.636zm69.174 0v16.497h8.586c5.428 0 8.926-.04 9.513-.11 3.04-.36 5.482-2.066 6.707-4.685.665-1.42.822-2.134.822-3.763 0-1.634-.162-2.379-.806-3.713-.342-.708-.594-1.046-1.305-1.756-1.37-1.368-3.03-2.109-5.299-2.362-.623-.069-4.174-.109-9.603-.109h-8.615zm17.584 48.775c1.8 0 3.133.392 4.74 1.394 1.483.925 2.46 2.014 3.195 3.564.583 1.23.796 2.214.803 3.704.013 2.964-.878 4.803-4.342 8.964-2.982 3.582-6.716 7.096-10.865 10.223-10.095 7.61-22.022 12.22-34.783 13.443-3.203.308-7.75.439-10.366.3-3.493-.187-6.27-.477-9.095-.954-13.503-2.28-25.747-8.515-35.547-18.103-3.352-3.28-6.703-7.326-7.86-9.49-1.636-3.063-1.2-6.968 1.094-9.784.955-1.171 2.654-2.307 4.285-2.863.85-.29 1.143-.337 2.315-.375 1.659-.054 2.741.17 4.129.855 1.566.774 2.755 1.903 3.62 3.44.521.924 1.995 2.85 3.206 4.19 5.964 6.592 14.153 11.479 23.232 13.863 2.774.728 6.402 1.315 9.59 1.552 1.797.134 6.347.132 8.2-.002 10.11-.733 19.618-4.252 27.372-10.134 3.824-2.9 7.23-6.357 9.27-9.405 1.924-2.875 4.61-4.382 7.807-4.382z"/></svg>