<svg width="227" height="227" viewBox="0 0 227 227" xmlns="http://www.w3.org/2000/svg"><title>nlc2</title><path d="M135.562 84.08l18.892-38.391c5.847-13.539 12.534-22.01 20.052-25.395H113.5c5.57 1.98 8.36 5.077 8.36 9.313 0 1.19-2.073 6.297-6.216 15.333l19.918 39.14zm-29.908 60.8l-19.529-39.129a8436.764 8436.764 0 0 1-15.251 30.503c-16.431 35.827-32.719 55.294-48.883 58.401h149.592l29.252-44.862c-8.36 9.313-24.934 13.97-49.724 13.97H96.37l9.283-18.883zM.678 151.065h47.221l36.77-74.483 37.19 74.483h43.457c-.84-.564-1.251-1.98-1.251-4.236 0-11.467 41.365-110.032 62.257-115.53H177.02l-40.124 81.253L95.53 31.299H47.9c6.123 4.513 9.19 9.313 9.19 14.39 0 21.56-44.298 98.186-56.411 105.376z"/></svg>