<svg width="227" height="227" viewBox="0 0 227 227" xmlns="http://www.w3.org/2000/svg"><title>nlc2</title><path d="M128.759 97.32l13.066-26.553c4.044-9.363 8.669-15.223 13.869-17.564H113.5c3.852 1.37 5.781 3.512 5.781 6.441 0 .823-1.433 4.356-4.298 10.605l13.776 27.07zm-20.686 42.05l-13.506-27.062a5835.107 5835.107 0 0 1-10.549 21.097c-11.364 24.779-22.629 38.242-33.808 40.392h103.462l20.231-31.028c-5.781 6.44-17.245 9.661-34.39 9.661h-37.86l6.42-13.06zM113.5 227C50.813 227 0 176.187 0 113.5S50.813 0 113.5 0 227 50.813 227 113.5 176.187 227 113.5 227zm-78.031-83.352h32.66l25.43-51.514 25.722 51.514h30.057c-.582-.39-.866-1.369-.866-2.93 0-7.93 28.61-76.101 43.06-79.903h-34.1L129.68 117.01l-28.61-56.196H68.129c4.235 3.121 6.356 6.44 6.356 9.952 0 14.911-30.638 67.909-39.015 72.881z"/></svg>