<svg version="1.1" id="Layer_1" xmlns="http://www.w3.org/2000/svg" xmlns:xlink="http://www.w3.org/1999/xlink" x="0px" y="0px"
	 width="226.777px" height="226.777px" viewBox="0 0 226.777 226.777" enable-background="new 0 0 226.777 226.777"
	 xml:space="preserve">
<path fill="#1D1D1B" d="M113.271,0C50.713,0,0,50.713,0,113.271c0,62.558,50.713,113.271,113.271,113.271
	c62.557,0,113.271-50.714,113.271-113.271C226.542,50.713,175.828,0,113.271,0z M113.271,198.755
	c-47.211,0-85.483-38.272-85.483-85.483c0-47.211,38.272-85.482,85.483-85.482c23.713,0,45.168,9.656,60.653,25.249l-13.346,12.965
	c-12.102-12.115-28.829-19.611-47.308-19.611c-36.937,0-66.879,29.944-66.879,66.879c0,36.938,29.943,66.88,66.879,66.88
	c33.838,0,61.804-25.134,66.256-57.751h-66.256v-18.367h84.985c0.325,3.034,0.497,6.116,0.497,9.238
	C198.754,160.482,160.481,198.755,113.271,198.755z"/>
</svg>
