<svg version="1.1" id="Layer_1" xmlns="http://www.w3.org/2000/svg" xmlns:xlink="http://www.w3.org/1999/xlink" x="0px" y="0px"
	 width="226.777px" height="226.777px" viewBox="0 0 226.777 226.777" enable-background="new 0 0 226.777 226.777"
	 xml:space="preserve">
<path fill="#1D1D1B" d="M113.319,101.071v24.349h87.831c-5.901,43.238-42.974,76.556-87.831,76.556
	c-48.964,0-88.657-39.691-88.657-88.657c0-48.963,39.693-88.657,88.657-88.657c24.496,0,46.67,9.936,62.714,25.996l17.69-17.188
	C173.195,12.801,144.753,0,113.319,0C50.735,0,0,50.734,0,113.318c0,62.584,50.735,113.319,113.319,113.319
	c62.583,0,113.318-50.735,113.318-113.319c0-4.14-0.228-8.225-0.659-12.248H113.319z"/>
</svg>
