<svg version="1.1" id="Layer_1" xmlns="http://www.w3.org/2000/svg" xmlns:xlink="http://www.w3.org/1999/xlink" x="0px" y="0px"
	 width="226.777px" height="226.777px" viewBox="0 0 226.777 226.777" enable-background="new 0 0 226.777 226.777"
	 xml:space="preserve">
<path id="NMC_alt_1_" d="M197.326,25.747c-8.835,6.71-11.862,17.344-11.862,17.344l-22.663,83.367L85.736,20.92
	c0,0-17.179-0.981-23.398,1.309c-6.218,2.292-14.562,8.347-18.054,21.654C40.794,57.19,0,206.195,0,206.195
	s19.796,0.682,26.016-2.756c6.217-3.436,12.433-7.198,16.196-20.369c2.576-9.013,22.417-83.119,22.417-83.119l77.23,106.244
	c0,0,18.572,0.539,24.787-2.263c7.446-3.355,13.826-11.537,16.28-20.862c2.455-9.327,43.851-162.358,43.851-162.358
	S206.163,19.039,197.326,25.747z M148.567,177.181L72.21,72.243l5.67-23.125l77.449,106.681L148.567,177.181z"/>
</svg>
