<svg version="1.1" id="Layer_1" xmlns="http://www.w3.org/2000/svg" xmlns:xlink="http://www.w3.org/1999/xlink" x="0px" y="0px"
	 width="226.777px" height="226.777px" viewBox="0 0 226.777 226.777" enable-background="new 0 0 226.777 226.777"
	 xml:space="preserve">
<g id="NMC_2_">
	<polygon points="86.591,87.017 135.793,154.633 140.15,140.856 90.247,72.115 	"/>
	<path d="M113.584,0C50.852,0,0,50.854,0,113.585s50.852,113.583,113.584,113.583c62.729,0,113.583-50.853,113.583-113.583
		S176.313,0,113.584,0z M157.934,158.43c-1.581,6.008-5.691,11.278-10.489,13.441c-4.006,1.803-15.972,1.457-15.972,1.457
		L81.708,104.87c0,0-12.785,47.752-14.444,53.56c-2.425,8.484-6.431,10.908-10.437,13.122c-4.007,2.216-16.763,1.776-16.763,1.776
		S66.35,77.316,68.598,68.741c2.25-8.574,7.627-12.477,11.633-13.951c4.007-1.477,15.077-0.844,15.077-0.844l49.658,68.004
		l14.602-53.718c0,0,1.951-6.854,7.643-11.176c5.694-4.323,18.979-3.244,18.979-3.244S159.516,152.419,157.934,158.43z"/>
</g>
</svg>
