<svg version="1.1" id="Layer_1" xmlns="http://www.w3.org/2000/svg" xmlns:xlink="http://www.w3.org/1999/xlink" x="0px" y="0px"
	 width="226.777px" height="226.777px" viewBox="0 0 226.777 226.777" enable-background="new 0 0 226.777 226.777"
	 xml:space="preserve">
<path fill="#231F20" d="M113.494,0C50.813,0,0,50.813,0,113.494s50.813,113.494,113.494,113.494s113.494-50.813,113.494-113.494
	S176.175,0,113.494,0z M112.969,89.487h-7.146v33.349c0,3.509-2.843,6.352-6.352,6.352c-3.51,0-6.354-2.843-6.354-6.352V76.782
	h19.852c13.961,0,34.62,12.079,34.62,38.004c0,24.679-22.021,37.587-33.826,37.587H99.471c-3.51,0-6.354-2.843-6.354-6.352
	s2.843-6.353,6.354-6.353h14.292c4.299,0,21.121-6.495,21.121-24.883C134.885,95.857,119.836,89.487,112.969,89.487z
	 M118.052,172.542h-17.946c-3.508,0-6.353-2.844-6.353-6.353c0-3.508,2.845-6.352,6.353-6.352h17.946
	c10.053,0,39.225-11.318,39.225-45.975c0-34.656-29.762-45.975-40.019-45.975H84.543v98.301c0,3.509-2.844,6.353-6.352,6.353
	c-3.509,0-6.353-2.844-6.353-6.353V55.184h45.419c17.809,0,52.723,17.72,52.723,58.679
	C169.98,155.33,136.158,172.542,118.052,172.542z"/>
</svg>
