<svg version="1.1" id="Layer_1" xmlns="http://www.w3.org/2000/svg" xmlns:xlink="http://www.w3.org/1999/xlink" x="0px" y="0px"
	 width="226.777px" height="226.777px" viewBox="0 0 226.777 226.777" enable-background="new 0 0 226.777 226.777"
	 xml:space="preserve">
<g>
	<path fill="#231F20" d="M106.329,0H18.546v214.547c0,6.781,5.497,12.277,12.278,12.277s12.278-5.496,12.278-12.277V24.554h63.228
		c19.824,0,77.348,21.877,77.348,88.858c0,66.98-56.382,88.857-75.813,88.857H73.18c-6.781,0-12.278,5.496-12.278,12.277
		s5.497,12.277,12.278,12.277h34.684c34.997,0,100.367-33.267,100.367-113.412C208.231,34.247,140.751,0,106.329,0z"/>
	<path fill="#231F20" d="M99.577,163.288H71.953c-6.782,0-12.277,5.497-12.277,12.278s5.495,12.277,12.277,12.277h27.624
		c22.815,0,65.377-24.95,65.377-72.648c0-50.108-39.928-73.453-66.912-73.453H59.676v89.011c0,6.781,5.495,12.276,12.277,12.276
		c6.781,0,12.277-5.495,12.277-12.276V66.298h13.812c13.271,0,42.356,12.313,42.356,48.897
		C140.398,150.735,107.885,163.288,99.577,163.288z"/>
</g>
</svg>
