<svg version="1.1" id="Layer_1" xmlns="http://www.w3.org/2000/svg" xmlns:xlink="http://www.w3.org/1999/xlink" x="0px" y="0px"
	 width="226.777px" height="226.777px" viewBox="0 0 226.777 226.777" enable-background="new 0 0 226.777 226.777"
	 xml:space="preserve">
<path fill="#231F20" d="M113.66,0C50.887,0,0,50.887,0,113.66S50.887,227.321,113.66,227.321s113.661-50.888,113.661-113.661
	S176.433,0,113.66,0z M54.137,121.441v-10.18c0-6.337,14.667-11.473,32.763-11.473c18.092,0,32.76,5.136,32.76,11.473v10.18
	c-1.752,3.642-14.126,8.273-32.76,8.273C68.263,129.715,55.889,125.083,54.137,121.441z M128.219,137.284
	c-1.754,3.643-14.129,8.273-32.763,8.273c-18.636,0-31.009-4.631-32.763-8.273v-5.916c6.506,1.904,14.927,3.014,24.208,3.014
	c18.673,0,33.872-4.489,36.965-10.917l0.461-0.958v-0.823c2.478,1.614,3.892,3.459,3.892,5.421V137.284z M132.422,139.307
	l0.463-0.959v-1.064v-0.524c0.37,0.688,0.583,1.396,0.583,2.122v10.181c-1.753,3.642-14.126,8.274-32.76,8.274
	c-18.637,0-31.012-4.633-32.764-8.274v-2.968c6.821,2.578,16.558,4.131,27.512,4.131
	C114.13,150.225,129.328,145.736,132.422,139.307z M125.688,164.026c-1.753,3.641-14.127,8.272-32.76,8.272
	c-18.636,0-31.012-4.632-32.765-8.272v-10.181c0-1.739,1.138-3.381,3.113-4.856v0.073v1.063l0.462,0.959
	c3.094,6.429,18.293,10.917,36.969,10.917c9.66,0,18.375-1.21,24.981-3.26V164.026z M163.797,152.419
	c0,6.337-14.668,11.473-32.761,11.473c-0.23,0-0.452-0.01-0.681-0.015v-6.888c2.564-1.163,4.583-2.497,5.943-3.961
	c11.076-0.53,21.597-2.727,27.498-6.505V152.419z M163.797,140.217c-1.521,3.154-11.026,7.051-25.662,8.034v-9.369
	c0-0.15-0.022-0.296-0.033-0.444c10.405-0.672,20.111-2.832,25.695-6.404V140.217z M163.797,125.725
	c-1.57,3.263-11.699,7.314-27.2,8.12c-0.898-1.382-2.154-2.633-3.712-3.748v-2.993c0-1.036-0.193-2.013-0.52-2.946
	c12.467-0.149,24.832-2.393,31.432-6.617V125.725z M163.797,111.233c-1.751,3.641-14.127,8.275-32.761,8.275
	c-0.677,0-1.325-0.02-1.981-0.03c-1.31-1.157-2.896-2.192-4.728-3.106v-5.11c0-0.618-0.078-1.218-0.196-1.797
	c2.28,0.144,4.593,0.218,6.905,0.218c12.908,0,25.926-2.258,32.761-6.632V111.233z M163.797,96.743
	c-1.751,3.64-14.127,8.274-32.761,8.274c-3.406,0-6.601-0.159-9.563-0.435c-4.373-4.683-13.301-7.547-23.2-8.764v-7.262
	c6.836,4.375,19.852,6.635,32.764,6.635c12.908,0,25.926-2.259,32.761-6.635V96.743z M163.797,82.251
	c-1.751,3.642-14.127,8.275-32.761,8.275c-18.636,0-31.009-4.633-32.764-8.275V72.07c0-6.337,14.669-11.473,32.764-11.473
	c18.093,0,32.761,5.136,32.761,11.473V82.251z"/>
</svg>
