<svg version="1.1" id="Layer_1" xmlns="http://www.w3.org/2000/svg" xmlns:xlink="http://www.w3.org/1999/xlink" x="0px" y="0px"
	 width="226.777px" height="226.777px" viewBox="0 0 226.777 226.777" enable-background="new 0 0 226.777 226.777"
	 xml:space="preserve">
<g id="NXT_1_">
	<path d="M103.611,151.382h-20.78L25.09,113.118H9.681c-5.346,0-9.681-4.335-9.681-9.682c0-5.346,4.335-9.68,9.681-9.68h21.241
		l57.741,38.263h14.948c5.346,0,9.681,4.336,9.681,9.682C113.292,147.048,108.957,151.382,103.611,151.382z"/>
	<path d="M188.975,151.382h-30.67l-57.74-38.264h-15.41c-5.347,0-9.682-4.335-9.682-9.682c0-5.346,4.335-9.68,9.682-9.68h21.242
		l57.741,38.263h24.837c5.348,0,9.682,4.336,9.682,9.682C198.656,147.048,194.322,151.382,188.975,151.382z"/>
	<path d="M217.097,132.25c-5.347,0-9.681-4.334-9.681-9.681v-9.451h-47.117c-5.347,0-9.682-4.335-9.682-9.682
		c0-5.346,4.335-9.68,9.682-9.68h66.479v28.813C226.777,127.916,222.443,132.25,217.097,132.25z"/>
	<path d="M28.39,151.382H9.681c-5.346,0-9.681-4.334-9.681-9.681c0-5.346,4.335-9.682,9.681-9.682H28.39
		c5.347,0,9.682,4.336,9.682,9.682C38.072,147.048,33.737,151.382,28.39,151.382z"/>
</g>
</svg>
