<svg version="1.1" id="Layer_1" xmlns="http://www.w3.org/2000/svg" xmlns:xlink="http://www.w3.org/1999/xlink" x="0px" y="0px"
	 width="226.777px" height="226.777px" viewBox="0 0 226.777 226.777" enable-background="new 0 0 226.777 226.777"
	 xml:space="preserve">
<path id="NXT_alt" d="M179.909,156.554L93.515,99.3H70.459c-8.002,0-14.487-6.487-14.487-14.488c0-7.998,6.485-14.482,14.487-14.482
	h31.783l86.396,57.251h37.163c0.067,0,0.135,0.011,0.204,0.011c0.575-4.636,0.877-9.357,0.877-14.151
	c0-4.79-0.302-9.507-0.877-14.141h-43.112c-7.999,0-14.483-6.487-14.483-14.488c0-7.998,6.484-14.482,14.483-14.482h35.5
	C201.423,29.061,160.829,0,113.441,0C62.205,0,18.911,33.97,4.831,80.613l70.878,46.968h22.366c7.998,0,14.482,6.488,14.482,14.488
	c0,7.996-6.485,14.484-14.482,14.484H66.982L0.016,112.175C0.012,112.598,0,113.017,0,113.44
	c0,62.653,50.79,113.442,113.441,113.442c47.388,0,87.982-29.061,104.952-70.329H179.909z"/>
</svg>
