<svg version="1.1" id="Layer_1" xmlns="http://www.w3.org/2000/svg" xmlns:xlink="http://www.w3.org/1999/xlink" x="0px" y="0px"
	 width="226.777px" height="226.777px" viewBox="0 0 226.777 226.777" enable-background="new 0 0 226.777 226.777"
	 xml:space="preserve">
<g>
	<path fill="#1D1D1B" d="M114.842,48.151c-36.162,0-65.476,29.314-65.476,65.478s29.314,65.478,65.476,65.478
		c36.161,0,65.478-29.314,65.478-65.478S151.003,48.151,114.842,48.151z M91.873,132.331c-4.387-0.957-28.951-7.417-32.619-8.375
		c-3.669-0.955-7.577-4.234-5.104-10.491c2.472-6.256,9.649-23.403,12.361-29.543c2.712-6.142,13.357-4.463,17.386-3.429
		c3.767,0.965,22.809,5.583,26.796,6.699c3.988,1.117,9.411,4.465,7.258,10.367c-2.153,5.904-9.49,23.05-12.202,29.11
		C103.038,132.73,96.26,133.289,91.873,132.331z M164.388,129.56c-1.614,4.307-7.655,18.781-7.655,18.781l-15.374-3.828
		c0,0,5.025-11.843,5.504-13.339c0.479-1.495,0.896-3.409-1.375-4.066c-2.273-0.658-15.792-4.187-15.792-4.187l-7.058,17.047
		l-15.672-4.068l18.961-45.1l15.552,3.947l-9.63,22.311l27.873-17.825l18.543,4.695l-21.832,13.129c0,0,5.982,2.333,7.417,4.486
		C165.286,123.698,166.004,125.253,164.388,129.56z"/>
	<path fill="#1D1D1B" d="M113.494,0C50.813,0,0,50.813,0,113.494s50.813,113.494,113.494,113.494s113.493-50.813,113.493-113.494
		S176.175,0,113.494,0z M114.843,196.81c-45.941,0-83.184-37.24-83.184-83.182s37.243-83.184,83.184-83.184
		c45.939,0,83.181,37.243,83.181,83.184S160.782,196.81,114.843,196.81z"/>
	<path fill="#1D1D1B" d="M97.517,96.691c-1.958-0.547-10.747-2.686-12.596-3.158c-1.976-0.508-5.066-0.841-6.396,2.171
		c-1.331,3.013-5.128,11.885-6.341,14.954c-1.213,3.069,0.645,4.223,2.445,4.693c1.8,0.469,11.074,2.688,13.227,3.157
		c2.151,0.469,4.235,0.291,5.565-2.683c1.331-2.973,5.191-11.901,6.248-14.798C100.725,98.133,99.471,97.239,97.517,96.691z"/>
</g>
</svg>
