<svg version="1.1" id="Layer_1" xmlns="http://www.w3.org/2000/svg" xmlns:xlink="http://www.w3.org/1999/xlink" x="0px" y="0px"
	 width="226.777px" height="226.777px" viewBox="0 0 226.777 226.777" enable-background="new 0 0 226.777 226.777"
	 xml:space="preserve">
<g>
	<path fill="#1D1D1B" d="M107.721,77.342c-5.435-1.521-31.388-7.814-36.522-9.131c-5.491-1.409-20-3.697-23.697,4.673
		c-3.696,8.37-13.479,31.741-16.848,40.268c-3.37,8.526,1.957,12.995,6.956,14.3c5,1.305,38.48,10.109,44.459,11.414
		s15.218,0.543,18.914-7.718c3.696-8.262,13.696-31.631,16.631-39.676C120.549,83.428,113.156,78.863,107.721,77.342z
		 M92.695,96.201c-1.44,3.947-6.703,16.117-8.516,20.17c-1.813,4.053-4.653,4.295-7.585,3.655
		c-2.934-0.641-15.575-3.664-18.027-4.304c-2.454-0.642-4.985-2.213-3.333-6.396c1.652-4.182,6.828-16.276,8.642-20.381
		c1.813-4.106,6.025-3.653,8.718-2.961c2.52,0.645,14.5,3.561,17.167,4.307C92.425,91.037,94.134,92.255,92.695,96.201z"/>
	<path fill="#1D1D1B" d="M170.062,118.05l29.756-17.895l-25.272-6.4l-37.99,24.295L149.68,87.64l-21.196-5.38l-25.844,61.47
		l21.36,5.544l9.621-23.235c0,0,18.424,4.811,21.521,5.707c3.099,0.897,2.528,3.506,1.875,5.544c-0.651,2.038-7.5,18.18-7.5,18.18
		l20.952,5.219c0,0,8.234-19.729,10.436-25.599c2.201-5.87,1.223-7.99-0.734-10.926C178.215,121.229,170.062,118.05,170.062,118.05z
		"/>
	<path fill="#1D1D1B" d="M113.375,0C50.76,0,0,50.76,0,113.375S50.76,226.75,113.375,226.75c62.614,0,113.374-50.76,113.374-113.375
		S175.989,0,113.375,0z M113.374,202.619c-49.287,0-89.242-39.955-89.242-89.244c0-49.289,39.955-89.244,89.242-89.244
		c49.288,0,89.244,39.955,89.244,89.244C202.618,162.664,162.662,202.619,113.374,202.619z"/>
</g>
</svg>
