<svg version="1.1" id="Layer_1" xmlns="http://www.w3.org/2000/svg" xmlns:xlink="http://www.w3.org/1999/xlink" x="0px" y="0px"
	 width="226.777px" height="226.777px" viewBox="0 0 226.777 226.777" enable-background="new 0 0 226.777 226.777"
	 xml:space="preserve">
<g>
	<path fill="#1D1D1B" d="M46.087,10.065H9.916v36.248C19.308,31.853,31.649,19.488,46.087,10.065z"/>
	<path fill="#1D1D1B" d="M216.222,45.342V10.065h-35.533C194.804,19.275,206.911,31.3,216.222,45.342z"/>
	<path fill="#1D1D1B" d="M181.21,216.37h35.013v-34.935C207.026,195.305,195.1,207.204,181.21,216.37z"/>
	<path fill="#1D1D1B" d="M9.916,180.465v35.905h35.652C31.353,206.991,19.196,194.751,9.916,180.465z"/>
	<path fill="#1D1D1B" d="M226.777,113.389C226.777,50.866,175.911,0,113.388,0S-0.001,50.866-0.001,113.389
		c0,62.523,50.867,113.388,113.389,113.388S226.777,175.912,226.777,113.389z M113.388,196.071
		c-45.592,0-82.683-37.092-82.683-82.682c0-45.592,37.091-82.684,82.683-82.684c45.591,0,82.683,37.092,82.683,82.684
		C196.071,158.979,158.979,196.071,113.388,196.071z"/>
</g>
</svg>
