<svg version="1.1" id="Layer_1" xmlns="http://www.w3.org/2000/svg" xmlns:xlink="http://www.w3.org/1999/xlink" x="0px" y="0px"
	 width="226.777px" height="226.777px" viewBox="0 0 226.777 226.777" enable-background="new 0 0 226.777 226.777"
	 xml:space="preserve">
<g id="OPAL">
	<polygon fill="#231F20" points="111.046,0 65.654,26.206 111.046,52.415 	"/>
	<polygon fill="#231F20" points="60.796,81.45 60.796,29.035 15.406,55.243 	"/>
	<polygon fill="#231F20" points="60.796,139.768 60.796,87.354 15.406,113.561 	"/>
	<polygon fill="#231F20" points="60.796,198.087 60.796,145.672 15.406,171.879 	"/>
	<polygon fill="#231F20" points="13.894,116.51 13.894,168.926 59.285,142.719 	"/>
	<polygon fill="#231F20" points="13.894,58.193 13.894,110.607 59.285,84.401 	"/>
	<polygon fill="#231F20" points="64.256,29.035 64.256,81.45 109.647,55.243 	"/>
	<polygon fill="#231F20" points="111.046,226.777 111.046,174.362 65.655,200.57 	"/>
	<polygon fill="#231F20" points="64.256,145.326 64.256,197.741 109.647,171.533 	"/>
	<polygon fill="#231F20" points="114.679,0 114.679,52.415 160.072,26.206 	"/>
	<polygon fill="#231F20" points="164.929,29.035 164.929,81.45 210.32,55.243 	"/>
	<polygon fill="#231F20" points="164.929,87.354 164.929,139.768 210.32,113.561 	"/>
	<polygon fill="#231F20" points="164.929,198.087 210.32,171.879 164.929,145.672 	"/>
	<polygon fill="#231F20" points="211.831,168.926 211.831,116.51 166.439,142.719 	"/>
	<polygon fill="#231F20" points="166.439,84.401 211.831,110.607 211.831,58.193 	"/>
	<polygon fill="#231F20" points="161.469,81.45 161.469,29.035 116.078,55.243 	"/>
	<polygon fill="#231F20" points="114.679,226.777 160.069,200.57 114.679,174.362 	"/>
	<polygon fill="#231F20" points="161.469,197.741 161.469,145.326 116.078,171.533 	"/>
</g>
</svg>
