<svg version="1.1" id="Layer_1" xmlns="http://www.w3.org/2000/svg" xmlns:xlink="http://www.w3.org/1999/xlink" x="0px" y="0px"
	 width="226.777px" height="226.777px" viewBox="0 0 226.777 226.777" enable-background="new 0 0 226.777 226.777"
	 xml:space="preserve">
<path id="OPAL_alt" fill="#231F20" d="M113.533,0.289C50.99,0.289,0.289,50.99,0.289,113.533S50.99,226.777,113.533,226.777
	s113.244-50.701,113.244-113.244S176.076,0.289,113.533,0.289z M83.963,62.215l27.613,15.943L83.963,94.101V62.215z M53.323,79.953
	l27.614,15.944L53.323,111.84V79.953z M53.323,115.432l27.614,15.943L53.323,147.32V115.432z M81.857,165.06l-27.614-15.943
	l27.614-15.944V165.06z M81.857,129.581l-27.614-15.944l27.614-15.943V129.581z M81.857,94.101L54.242,78.158l27.614-15.943V94.101z
	 M83.963,132.963l27.613,15.944l-27.613,15.944V132.963z M112.427,182.515l-27.614-15.943l27.614-15.944V182.515z M112.427,76.437
	L84.813,60.493l27.614-15.942V76.437z M145.209,62.215l27.615,15.943l-27.615,15.943V62.215z M145.209,97.694l27.615,15.943
	l-27.615,15.944V97.694z M114.638,44.551l27.614,15.942l-27.614,15.944V44.551z M114.638,182.515v-31.888l27.614,15.944
	L114.638,182.515z M143.103,164.851l-27.613-15.944l27.613-15.944V164.851z M143.103,94.101L115.49,78.158l27.613-15.943V94.101z
	 M145.209,165.06v-31.888l27.615,15.944L145.209,165.06z M173.743,147.32l-27.615-15.944l27.615-15.943V147.32z M173.743,111.84
	l-27.615-15.943l27.615-15.944V111.84z"/>
</svg>
