<svg width="227" height="227" viewBox="0 0 227 227" xmlns="http://www.w3.org/2000/svg"><path d="M113.5 0C50.848 0 0 50.848 0 113.5S50.848 227 113.5 227 227 176.152 227 113.5 176.152 0 113.5 0zm56.75 54.934c11.804 0 21.338 9.534 21.338 21.338v32.007c0 11.804-9.534 21.338-21.338 21.338h-26.332l-1.589 7.945c-.454 2.043-2.27 3.632-4.313 3.632h-5.221c-2.043 0-3.178-1.589-2.724-3.632l1.589-7.945h-12.485l-1.589 7.945c-.454 2.043-2.27 3.632-4.313 3.632h-5.221c-2.043 0-3.178-1.589-2.724-3.632l1.362-8.172H93.297L81.72 184.551H53.345l20.657-97.61h28.375l-4.54 21.338h54.707a10.657 10.657 0 0 0 10.669-10.669V86.941a10.657 10.657 0 0 0-10.669-10.669H35.412l17.706-21.338h69.462l1.589-7.945c.454-2.043 2.27-3.632 4.313-3.632h5.221c2.043 0 3.178 1.589 2.724 3.632l-1.589 7.945h12.485l1.589-7.945c.454-2.043 2.27-3.632 4.313-3.632h5.221c2.043 0 3.178 1.589 2.724 3.632l-1.589 7.945h10.669z"/></svg>