<svg version="1.1" id="Layer_1" xmlns="http://www.w3.org/2000/svg" xmlns:xlink="http://www.w3.org/1999/xlink" x="0px" y="0px"
	 width="226.777px" height="226.777px" viewBox="0 0 226.777 226.777" enable-background="new 0 0 226.777 226.777"
	 xml:space="preserve">
<path fill="#231F20" d="M221.698,121.885l-7.878-8.257c0.262-17.5-4.803-34.801-14.581-50.149
	c3.088-11.172,8.956-33.619,8.04-39.787c-1.231-8.315-9.854-21.868-30.491-20.021c-14.164,1.268-26.727,10.131-33.218,15.567
	C116.66,8.499,91.912,9.051,71.475,14.338C64.566,9.88,52.578,4.079,43.846,10.286c-7.97,5.668-10.601,15.355-11.449,21.993
	c-0.019,0.01-0.04,0.021-0.059,0.038c0,0-32.339,19.709-32.339,68.684c0,27.526,9.439,47.654,23.121,62.796
	c0.405,6.067,1.816,13.588,6.139,16.356c3.809,2.438,10.022,2.464,15.333,1.866c5.137,3.421,10.445,6.476,15.775,9.222
	c9.389,4.837,21.264,9.519,34.431,12.305c5.655,7.816,16.291,19.938,27.783,19.728c12.288-0.224,21.631-12.586,26.087-21.954
	c13.588-4.563,26.982-12.755,39.234-25.98c8.02,4.665,21.835-3.084,31.123-17.58C228.459,143.048,229.656,126.991,221.698,121.885z
	 M124.428,35.706c0,0-17.103-10.815-33.553-12.73c-16.448-1.916-29.053,0.487-33.384,0.512l8.417-3.338
	c0,0,11.356-5.113,37.269-1.538c22.328,3.08,31.57,11.086,31.57,11.086L124.428,35.706z M174.521,109.497
	c-3.682,0.148-6.893-5.471-7.171-12.547c-0.277-7.077,2.483-12.927,6.165-13.073c3.684-0.146,6.895,5.474,7.17,12.551
	C180.966,103.502,178.206,109.353,174.521,109.497z M192.614,99.438c-3.121,0.127-5.842-4.637-6.079-10.639
	c-0.234-5.996,2.106-10.959,5.228-11.081c3.123-0.126,5.844,4.639,6.078,10.639C198.08,94.356,195.737,99.319,192.614,99.438z
	 M207.334,153.242c-0.553,5.277-3.128,9.324-5.756,9.05c-2.62-0.272-4.296-4.766-3.742-10.044c0.554-5.276,3.131-9.326,5.753-9.045
	C206.21,143.473,207.886,147.974,207.334,153.242z M219.997,141.241c-0.503,4.815-2.772,8.517-5.061,8.277
	c-2.286-0.237-3.733-4.332-3.229-9.149c0.507-4.811,2.773-8.517,5.063-8.273C219.058,132.333,220.502,136.429,219.997,141.241z"/>
</svg>
