<svg version="1.1" id="Layer_1" xmlns="http://www.w3.org/2000/svg" xmlns:xlink="http://www.w3.org/1999/xlink" x="0px" y="0px"
	 width="226.777px" height="226.777px" viewBox="0 0 226.777 226.777" enable-background="new 0 0 226.777 226.777"
	 xml:space="preserve">
<g>
	
		<ellipse transform="matrix(-0.0392 -0.9992 0.9992 -0.0392 41.63 255.1684)" fill="#231F20" cx="143.495" cy="107.569" rx="6.356" ry="3.307"/>
	<path fill="#231F20" d="M152.292,98.166c-1.547,0.059-2.708,2.521-2.591,5.493c0.117,2.974,1.466,5.336,3.014,5.273
		c1.548-0.058,2.709-2.519,2.59-5.492C155.19,100.465,153.84,98.101,152.292,98.166z"/>
	<path fill="#231F20" d="M89.901,69.626l-4.173,1.654c2.147-0.012,8.396-1.202,16.549-0.254c8.155,0.95,16.633,6.314,16.633,6.314
		l5.117-2.979c0,0-4.583-3.97-15.651-5.496C95.53,67.093,89.901,69.626,89.901,69.626z"/>
	<path fill="#231F20" d="M113.485,0C50.876,0,0.121,50.755,0.121,113.364c0,62.609,50.755,113.364,113.364,113.364
		c62.609,0,113.364-50.755,113.364-113.364C226.849,50.755,176.094,0,113.485,0z M165.808,137.844
		c-4.606,7.186-11.453,11.027-15.43,8.718c-6.074,6.554-12.715,10.615-19.45,12.878c-2.21,4.644-6.841,10.772-12.935,10.883
		c-5.696,0.104-10.968-5.903-13.771-9.778c-6.529-1.382-12.416-3.704-17.07-6.102c-2.643-1.359-5.274-2.874-7.819-4.571
		c-2.634,0.298-5.713,0.285-7.602-0.926c-2.143-1.372-2.843-5.099-3.043-8.107c-6.784-7.508-11.462-17.483-11.462-31.132
		c0-24.279,16.032-34.048,16.032-34.048c0.009-0.009,0.021-0.015,0.03-0.02c0.419-3.289,1.724-8.093,5.675-10.903
		c4.328-3.077,10.271-0.2,13.696,2.008c10.132-2.619,22.4-2.893,35.742,2.432c3.217-2.697,9.444-7.09,16.466-7.72
		c10.23-0.915,14.506,5.806,15.116,9.928c0.454,3.056-2.456,14.185-3.985,19.724c4.848,7.609,7.358,16.186,7.228,24.862l3.906,4.093
		C171.078,122.593,170.483,130.552,165.808,137.844z"/>
	<path fill="#231F20" d="M164.689,125.123c-1.136-0.12-2.259,1.716-2.51,4.101c-0.25,2.389,0.468,4.419,1.601,4.536
		c1.135,0.117,2.26-1.717,2.508-4.104C166.54,127.271,165.823,125.239,164.689,125.123z"/>
	<path fill="#231F20" d="M158.155,130.63c-1.3-0.142-2.578,1.868-2.853,4.484c-0.275,2.614,0.556,4.843,1.854,4.978
		c1.305,0.138,2.58-1.87,2.854-4.485C160.285,132.995,159.454,130.764,158.155,130.63z"/>
</g>
</svg>
