<svg version="1.1" id="Layer_1" xmlns="http://www.w3.org/2000/svg" xmlns:xlink="http://www.w3.org/1999/xlink" x="0px" y="0px"
	 viewBox="0 0 226.8 226.8" style="enable-background:new 0 0 226.8 226.8;" xml:space="preserve">
<g>
	<path class="st0" d="M119.4,78.6c-17.1,0-31.1,13.9-31.1,31.1c0,17.1,13.9,31.1,31.1,31.1c17.1,0,31.1-13.9,31.1-31.1
		C150.5,92.5,136.6,78.6,119.4,78.6z"/>
	<path class="st0" d="M113.4,0C50.8,0,0,50.8,0,113.4C0,176,50.8,226.8,113.4,226.8S226.8,176,226.8,113.4C226.8,50.8,176,0,113.4,0
		z M119.4,157.4c-11.9,0-22.7-4.4-31.1-11.5v33.5H71.7v-69.8c0-26.3,21.4-47.7,47.7-47.7c26.3,0,47.7,21.4,47.7,47.7
		C167.2,135.9,145.8,157.4,119.4,157.4z"/>
</g>
</svg>
