<svg version="1.1" id="Layer_1" xmlns="http://www.w3.org/2000/svg" xmlns:xlink="http://www.w3.org/1999/xlink" x="0px" y="0px"
	 viewBox="0 0 226.8 226.8" style="enable-background:new 0 0 226.8 226.8;" xml:space="preserve">
<path d="M112.178,0.293L19.655,19.619v128.07c0,18.725,19.225,36.548,40.053,50.267c23.531,15.521,49.065,27.436,51.068,28.237
	l1.402,0.601l1.402-0.601c3.705-1.402,91.121-38.551,91.121-78.504V19.619L112.178,0.293z M72.148,78.75h47.807v9.964H72.148V78.75z
	 M126.316,122.105H94.939v49.715H82.536v-60.846h42.083c16.961,0,27.879-10.282,27.879-27.561c0-17.066-11.024-27.031-27.667-27.031
	l-44.415,0.212V45.253h45.899c22.685,0,39.009,14.734,39.009,38.161C165.325,106.947,149,122.105,126.316,122.105z"/>
</svg>
