<svg version="1.1" id="Layer_1" xmlns="http://www.w3.org/2000/svg" xmlns:xlink="http://www.w3.org/1999/xlink" x="0px" y="0px"
	 viewBox="0 0 226.8 226.8" style="enable-background:new 0 0 226.8 226.8;" xml:space="preserve">
<g>
	<path d="M93.464,80.598l27.878-0.133c10.446,0,17.366,6.254,17.366,16.966c0,10.845-6.853,17.299-17.499,17.299H94.795v38.191
		h7.785v-31.205h19.694c14.238,0,24.485-9.514,24.485-24.285c0-14.704-10.246-23.953-24.485-23.953h-28.81V80.598z"/>
	<rect x="88.275" y="94.504" width="30.007" height="6.254"/>
	<path d="M113.4,0C50.8,0,0,50.8,0,113.4s50.8,113.4,113.4,113.4S226.8,176,226.8,113.4S176,0,113.4,0z M171.473,137.775
		c0,25.077-54.868,48.394-57.193,49.274l-0.88,0.377l-0.88-0.377c-1.257-0.503-17.284-7.982-32.053-17.724
		c-13.073-8.61-25.14-19.798-25.14-31.551V57.39L113.4,45.26l58.073,12.13V137.775z"/>
</g>
</svg>
