<svg viewBox="0 0 506 153.4" xmlns="http://www.w3.org/2000/svg"><path d="m87 123h-7.9v22.77a7.8 7.8 0 0 1 -7.92 7.66h-63.28a7.79 7.79 0 0 1 -7.9-7.69v-137.74h.05c0-.08 0-.15 0-.23a7.79 7.79 0 0 1 7.85-7.7h79.1c34.93 0 63.25 27.51 63.25 61.45s-28.35 61.48-63.25 61.48z"/><path d="m245.1.07c43.66 0 79 34.32 79 76.67s-35.39 76.66-79 76.66-79.1-34.32-79.1-76.66 35.43-76.67 79.1-76.67z"/><path d="m506 148.55a4.81 4.81 0 0 1 -4.89 4.73h-179.32a4.13 4.13 0 0 1 -.63.12 4.85 4.85 0 0 1 -4.91-4.79 4.58 4.58 0 0 1 1-2.73l-.09-.17 89.04-141.93h.19a4.81 4.81 0 0 1 9.39 0h.2l90 142.88-.31.41a4.6 4.6 0 0 1 .33 1.48z"/></svg>
