<svg width="227" height="227" viewBox="0 0 227 227" xmlns="http://www.w3.org/2000/svg"><title>poly</title><path d="M113.5 227C50.816 227 0 176.184 0 113.5S50.816 0 113.5 0 227 50.816 227 113.5 176.184 227 113.5 227zm78.031-147.103l-.315-5.019-1.543 4.21-8.698 7.31-9.96 1.481-2.98-2.762 8.732-11.586 8.943-2.594-9.68.203-14.063 9.8-13.186-.909-18.517-9.094-10.942 2.122-34.124 27.282-16.448 5.086-6.768 6.601-12.1.169-5.996 10.71-8.417 2.324 7.96 1.044 7.4-9.599 11.433 2.29-.21 10.273-5.716 14.786-3.262 13.675-3.507 5.456 8.908-1.886-1.017-5.59 7.575-15.023L79.623 135l5.645-8.993 9.54-6.669 18.937 2.661 19.079-8.05-3.227 12.732-8.487.74-2.42 10.442 7.26-4.648 12.029-5.019 9.399-14.18.596-6.702 5.05 5.019 14.695 8.858 8.346-3.806-.49-18.727-2.42-7.241 10.906-2.661 7.47-8.858z"/></svg>