<svg width="227" height="227" viewBox="0 0 227 227" xmlns="http://www.w3.org/2000/svg"><title>Shape</title><path d="M227.469 63.969l-.46-7.3-2.244 6.124-12.65 10.631-14.488 2.156-4.336-4.017 12.702-16.853 13.008-3.772-14.08.293-20.455 14.257-19.18-1.323-26.934-13.227-15.915 3.086-49.634 39.682-23.925 7.398-9.845 9.602-17.599.245-8.723 15.58L.47 129.91l11.58 1.518 10.763-13.962 16.63 3.331-.307 14.942-8.315 21.507-4.744 19.89-5.1 7.937 12.956-2.744-1.48-8.132 11.02-21.85 21.22-8.23 8.213-13.08 13.875-9.701 27.546 3.87 27.75-11.708-4.693 18.518-12.345 1.078-3.52 15.187 10.56-6.76 17.497-7.3 13.67-20.625.868-9.75 7.345 7.3 21.374 12.885 12.14-5.536-.713-27.24-3.52-10.532 15.864-3.87z"/></svg>