<svg version="1.1" id="Layer_1" xmlns="http://www.w3.org/2000/svg" xmlns:xlink="http://www.w3.org/1999/xlink" x="0px" y="0px"
	 width="226.777px" height="226.777px" viewBox="0 0 226.777 226.777" enable-background="new 0 0 226.777 226.777"
	 xml:space="preserve">
<path id="POT" fill="#231F20" d="M128.394,0.015c-14.352,0-82.264,0-82.264,0L34.999,57.215H11.212L6.07,84.422h23.633L2,226.777
	h40.489l15.858-82.157c12.693,0,39.116,0,60.407,0c29.135,0,96.617-5.73,105.019-74.887C231.619,5.144,183.399,0.015,128.394,0.015z
	 M182.595,66.426c-2.785,24.423-24.423,39.848-47.774,39.848c-18.133,0-53.966,0-69.071,0l4.217-21.852h57.357l5.142-27.208H75.22
	l3.474-17.996c0,0,47.13,0,64.912,0C161.386,39.219,185.381,42.004,182.595,66.426z"/>
</svg>
