<svg version="1.1" id="Layer_1" xmlns="http://www.w3.org/2000/svg" xmlns:xlink="http://www.w3.org/1999/xlink" x="0px" y="0px"
	 width="226.777px" height="226.777px" viewBox="0 0 226.777 226.777" enable-background="new 0 0 226.777 226.777"
	 xml:space="preserve">
<g id="POT_alt">
	<path fill="#231F20" d="M130.231,74.484c-9.317,0-34.019,0-34.019,0l-1.822,9.432h30.003l-2.694,14.258H91.638l-2.211,11.454
		c7.917,0,26.697,0,36.201,0c12.238,0,23.579-8.084,25.038-20.884C152.127,75.944,139.552,74.484,130.231,74.484z"/>
	<path fill="#231F20" d="M113.616,0.455C51.119,0.455,0.455,51.119,0.455,113.616c0,62.497,50.664,113.161,113.161,113.161
		c62.497,0,113.161-50.664,113.161-113.161C226.777,51.119,176.113,0.455,113.616,0.455z M172.25,90.477
		c-4.404,36.246-39.771,39.25-55.043,39.25c-11.158,0-25.007,0-31.659,0l-8.311,43.059H56.015l14.52-74.611H58.148l2.694-14.258
		h12.469l5.832-29.979c0,0,35.595,0,43.117,0C151.089,53.937,176.362,56.625,172.25,90.477z"/>
</g>
</svg>
