<svg width="227" height="227" viewBox="0 0 227 227" xmlns="http://www.w3.org/2000/svg"><title>powr</title><path d="M113.5 227C50.813 227 0 176.187 0 113.5S50.813 0 113.5 0 227 50.813 227 113.5 176.187 227 113.5 227zm85.09-113.826a1.454 1.454 0 0 0-1.206-1.121L181.366 96l6.342-23.722a1.461 1.461 0 0 0-1.029-1.787l-23.806-6.399-5.96-22.296a1.44 1.44 0 0 0-.07-.283l-.17-.618a1.454 1.454 0 0 0-1.781-1.035l-23.282 6.256-17.287-17.33a1.49 1.49 0 0 0-2.057 0L95.184 45.911 72.668 39.86a1.454 1.454 0 0 0-1.787 1.035l-6.2 23.197-23.8 6.399a1.454 1.454 0 0 0-1.035 1.787l6.136 22.956L28.8 112.457a1.46 1.46 0 0 0 0 2.065l17.663 17.713-6.129 22.962a1.461 1.461 0 0 0 1.029 1.788l22.756 6.107 6.278 23.48a1.454 1.454 0 0 0 1.78 1.036l23.283-6.256 16.805 16.847a1.447 1.447 0 0 0 2.057 0l17.004-17.053 24.047 6.462a1.447 1.447 0 0 0 1.78-1.028l6.279-23.48 22.764-6.115a1.461 1.461 0 0 0 1.028-1.788l-6.341-23.729 16.358-16.4.539-.256c.617-.289.952-.965.809-1.631v-.007zm-18.579 15.038l-1.213-4.547 10.761-5.015-9.548 9.562zm3.483 24.31l-14.897-8.725v-.007l9.91-9.938 4.987 18.67zm-15.677-5.816l14.258 8.363-17.77 4.774 3.512-13.137zm-12.755 36.433l-8.867-15.414 13.996-3.76-5.129 19.174zm-17.762-7.98l10.512 7.399-14.109-3.788 3.597-3.611zm-22.552 18.486v-16.954l13.337 3.582-13.337 13.372zm-2.908-16.691v16.691L98.71 180.48l13.13-3.525zm-36.81 6.866l8.385-14.542 9.676 9.697-18.06 4.845zm-7.66-19.855l5.213 1.404-1.206 13.592-4.008-14.996zm-21.92-8.903l14.258-8.463 3.547 13.244-17.805-4.78zm12.818-10.995l-14.202 8.427 4.782-17.876 9.42 9.449zm-24.686-28.872h17.443l-3.688 13.79-13.755-13.79zm14.755-11.172l-13.074 6.086 11.591-11.62 1.483 5.534zM43.57 74.924l14.365 8.328-9.577 9.598-4.788-17.926zm16.585 6.1l-.092.093-15.039-8.725 18.791-5.044-3.66 13.677zm12.57-35.752l8.307 14.429-13.102 3.518 4.795-17.947zM89.34 51.77l-10.123-7.129 13.592 3.653-3.47 3.476zm22.501-18.43v17.047l-13.407-3.604 13.407-13.442zm2.909 17.31V33.34l13.62 13.649-13.62 3.66zm38.277-7.265l-8.838 15.344L133.987 48.5l19.04-5.115zm2.15 18.643l1.028-11.627 3.427 12.818-4.455-1.191zm27.31 10.357L167.37 80.91l-3.625-13.563 18.742 5.037zM168.832 83.43l15.174-8.57-5.016 18.75-10.158-10.18zm24.417 28.594H177.08l3.42-12.775 12.747 12.776zm-16.784 2.916h14.124l-12.556 5.852-1.568-5.852zm-2.199 7.605l.61-2.27.475 1.773-1.085.497zm-.979 3.674l2.83-1.32 1.519 5.69-7.534 7.555 3.185-11.925zm-8.803 21.686l-3.427 12.804-12.768 3.426 16.195-16.23zm-20.338 16.266l-11.066-19.217 36.767-17.132-3.86 14.45-21.841 21.899zm-.624 4.752l6.824 11.847-10.953-7.71 4.129-4.137zm-7.74 1.597l2.774-.752-1.582 1.589-1.192-.837zm-3.667.978l2.767 1.951-4.42 4.441-11.066-2.98 12.719-3.411zm-23.956 3.42l-11.825 3.178-8.654-8.683 20.48 5.505zm-32.326-13.251l2.107 2.113-2.242-.602.135-1.511zm-2.688-2.696l-.298 3.44-6.35-1.702-3.064-11.47 9.712 9.732zm-15.33-19.487l-8.101-8.122 2.965-11.087 5.136 19.21zm-7.271-27.204H37.512l11.584-5.398 1.447 5.398zm3.291-7.612l-1.156 4.342-.9-3.377 2.056-.965zm.986-3.667l-3.809 1.773-1.78-6.668 9.42-9.449-3.83 14.344zm9.45-24.105l2.787-10.42 10.4-2.795L64.27 76.896zM83.31 57.814l-6.526-11.322 10.47 7.37-3.944 3.952zm8.229-.936l-4.349 1.17 2.483-2.483 1.866 1.313zm3.667-.986l-3.447-2.426 4.298-4.3 12.102 3.25-12.953 3.476zm24.19-3.476l11.35-3.05 8.3 8.327-19.65-5.277zm32.468 14.003l-3.086-3.093 3.285.88-.199 2.213zm2.681 2.695l.37-4.142 5.582 1.504 3.143 11.754-9.095-9.116zm14.713 18.87l8.867 8.888-3.249 12.13-5.618-21.018zm-40.96 48.67l11.258-20.061 7.08 11.981a1.454 1.454 0 0 0 2.696-.617l1.156-13.01h22.806l-2.461 9.208-39.215 18.266-3.32-5.767zm-5.56 9.91l3.9-6.952 2.334 4.044-6.235 2.908zm-24.73-2.625l3.689-6.405 22.913-.256-6.619 11.797a1.461 1.461 0 0 0 1.88 2.043l10.563-4.923 11.343 19.7-9.102 2.44-34.667-24.396zm-1.461 2.533l32.46 22.849-15.23 4.093-28.36-7.619 11.13-19.323zm1.766-8.903l-2.695 4.682-6.505-4.576 9.2-.106zM79.94 115.195h7.2l11.493 19.451-14.067.164a1.454 1.454 0 0 0-.823 2.653l10.413 7.32-11.364 19.735-6.625-6.632 3.773-42.69zm-2.908 0l-3.547 39.995-11.563-11.584-7.59-28.41h22.7zm8.385-2.915h-5.214l.68-7.676 4.534 7.676zm10.286-27.112l3.618 6.278-11.123 19.812L81.09 99.22a1.454 1.454 0 0 0-2.703.617l-1.1 12.443H54.821l2.461-9.208 38.42-17.904zm-1.462-2.533l-35.98 16.763 4.505-16.862 19.919-19.97 11.555 20.07zm35.519 1.15l-3.426 5.944-22.856.255 6.64-11.832a1.461 1.461 0 0 0-1.88-2.043L96.886 81.4 85.45 61.538l9.194-2.475 35.114 24.721zm1.461-2.54L98.305 58.084l15.472-4.157 28.73 7.718-11.287 19.6zm-1.504 8.441l2.433-4.22 5.867 4.135-8.3.085zm17.848 25.261l-.73 8.243-4.867-8.243h5.597zm-46.592-26.46l-2.624-4.554 7.023-3.263-4.399 7.817zm25.275 45.876c-.05-.007-.092-.022-.141-.022l-24.105.27-12.088-20.451 11.918-21.239 23.594-.262.035.078 12.379 20.955-11.592 20.67zm27.964-61.46l10.931 10.96 7.534 28.169h-21.934l3.469-39.13zm-6.384 39.129h-7.59l-11.464-19.416 13.797-.149a1.454 1.454 0 0 0 .816-2.653l-9.775-6.881 11.2-19.458 6.719 6.739-3.703 41.818zm4.49-50.77l-5.391-1.455 6.526-11.335-1.135 12.79zM75.435 166.136l5.561 1.49-6.732 11.69 1.17-13.18z"/></svg>