<svg width="227" height="227" viewBox="0 0 227 227" xmlns="http://www.w3.org/2000/svg"><title>powr</title><path d="M226.455 113.067a1.93 1.93 0 0 0-1.6-1.488l-21.264-21.31 8.419-31.49a1.94 1.94 0 0 0-1.366-2.373l-31.603-8.494-7.91-29.598a1.912 1.912 0 0 0-.094-.376l-.226-.82a1.93 1.93 0 0 0-2.364-1.374l-30.906 8.305-22.949-23.005a1.978 1.978 0 0 0-2.73 0L89.185 23.776l-29.89-8.032a1.93 1.93 0 0 0-2.372 1.375l-8.23 30.793L17.1 56.406a1.93 1.93 0 0 0-1.375 2.373l8.145 30.473-22.807 22.864a1.94 1.94 0 0 0 0 2.74L24.51 138.37l-8.136 30.482a1.94 1.94 0 0 0 1.365 2.373l30.21 8.108 8.333 31.17a1.93 1.93 0 0 0 2.364 1.375l30.906-8.306 22.308 22.365a1.921 1.921 0 0 0 2.731 0l22.573-22.638 31.923 8.579a1.921 1.921 0 0 0 2.363-1.366l8.334-31.17 30.219-8.117a1.94 1.94 0 0 0 1.365-2.373l-8.418-31.5 21.715-21.77.716-.34a1.94 1.94 0 0 0 1.073-2.166v-.01zm-24.663 19.964l-1.61-6.037 14.285-6.657-12.675 12.694zm4.624 32.271l-19.775-11.583v-.01l13.155-13.192 6.62 24.785zm-20.811-7.722l18.928 11.103-23.59 6.337 4.662-17.44zm-16.932 48.365l-11.77-20.463 18.579-4.99-6.809 25.453zm-23.58-10.594l13.956 9.822-18.73-5.029 4.775-4.793zm-29.936 24.54v-22.506l17.704 4.756-17.704 17.75zm-3.86-22.157v22.158l-17.431-17.478 17.43-4.68zm-48.865 9.115l11.131-19.304 12.845 12.873-23.976 6.431zm-10.17-26.358l6.922 1.865-1.601 18.043-5.32-19.908zm-29.098-11.818l18.928-11.234L46.8 175.02l-23.636-6.347zm17.016-14.596l-18.852 11.187 6.347-23.73 12.505 12.543zM7.41 115.751h23.156l-4.897 18.306-18.26-18.306zm19.587-14.832L9.642 109l15.387-15.425 1.968 7.345zm-6.328-38.628l19.069 11.056-12.713 12.74-6.356-23.796zm22.016 8.099l-.122.122L22.599 58.93l24.945-6.695-4.859 18.156zm16.687-47.461l11.027 19.154-17.393 4.67 6.366-23.824zm22.054 8.626L67.988 22.09l18.043 4.85-4.605 4.614zm29.87-24.465v22.628L93.5 24.935 111.296 7.09zm3.861 22.977V7.09l18.08 18.118-18.08 4.859zm50.814-9.643l-11.734 20.369-13.541-13.58 25.275-6.79zm2.853 24.747l1.365-15.434 4.549 17.016-5.914-1.582zm36.255 13.749l-20.067 11.319-4.812-18.005 24.879 6.686zM186.95 73.582l20.143-11.376-6.658 24.89-13.485-13.514zm32.413 37.96h-21.46l4.538-16.96 16.922 16.96zm-22.28 3.87h18.749l-16.668 7.769-2.081-7.77zm-2.92 10.094l.81-3.013.632 2.354-1.441.66zm-1.299 4.878l3.758-1.751 2.015 7.552-10.001 10.03 4.228-15.83zm-11.686 28.788l-4.548 16.997-16.95 4.548 21.498-21.545zm-26.998 21.593l-14.69-25.51 48.807-22.742-5.123 19.182-28.994 29.07zm-.829 6.309l9.06 15.726-14.54-10.236 5.48-5.49zm-10.274 2.119l3.682-.999-2.1 2.11-1.582-1.111zm-4.868 1.3l3.672 2.589-5.866 5.895-14.69-3.955 16.884-4.53zm-31.8 4.538L90.71 199.25l-11.488-11.526 27.186 7.307zm-42.913-17.59l2.796 2.806-2.975-.8.179-2.007zm-3.57-3.579l-.395 4.567-8.428-2.26-4.068-15.227 12.892 12.92zm-20.35-25.868l-10.753-10.782 3.936-14.719 6.818 25.5zm-9.652-36.114H12.627l15.377-7.166 1.921 7.166zm4.37-10.104l-1.535 5.763-1.196-4.482 2.73-1.281zm1.309-4.868l-5.057 2.354-2.364-8.852L40.69 77.867l-5.085 19.04zm12.543-31.999l3.7-13.833 13.806-3.71-17.506 17.543zm25.275-25.331l-8.664-15.03 13.9 9.785-5.236 5.245zm10.923-1.243l-5.772 1.553 3.296-3.295 2.476 1.742zm4.869-1.31l-4.577-3.22 5.707-5.706 16.065 4.313-17.195 4.614zm32.111-4.613l15.067-4.05 11.018 11.056-26.085-7.006zM164.426 51l-4.096-4.105 4.36 1.167-.264 2.938zm3.56 3.579l.49-5.5 7.41 1.997 4.172 15.603-12.072-12.1zm19.53 25.049l11.771 11.799-4.312 16.103-7.459-27.902zm-54.372 64.609l14.944-26.631 9.398 15.905a1.93 1.93 0 0 0 3.579-.82l1.534-17.27h30.276l-3.268 12.223-52.056 24.248-4.407-7.655zm-7.383 13.155l5.179-9.229 3.098 5.368-8.277 3.86zm-32.827-3.484l4.896-8.504 30.417-.339-8.786 15.66a1.94 1.94 0 0 0 2.495 2.713l14.022-6.536 15.058 26.15-12.082 3.24-46.02-32.384zm-1.94 3.362l43.091 30.331-20.218 5.434L76.22 182.92l14.775-25.651zm2.345-11.819l-3.579 6.215-8.635-6.073 12.214-.142zm-24.39-29.7h9.558l15.255 25.82-18.673.217a1.93 1.93 0 0 0-1.093 3.522l13.824 9.718-15.086 26.198-8.795-8.805 5.01-56.67zm-3.861 0l-4.708 53.092-15.35-15.378-10.076-37.714h30.134zm11.13-3.87h-6.92l.903-10.19 6.018 10.19zm13.655-35.992l4.803 8.334-14.766 26.301-9.436-15.98a1.93 1.93 0 0 0-3.587.82l-1.46 16.516H35.604l3.267-12.223L89.873 75.89zm-1.94-3.362L40.171 94.78l5.98-22.384 26.442-26.508 15.34 26.64zm47.15 1.526l-4.548 7.891-30.341.34 8.814-15.708a1.94 1.94 0 0 0-2.495-2.712l-15.067 7.025-15.18-26.367 12.204-3.287 46.613 32.818zm1.94-3.371L93.33 39.936l20.538-5.519 38.138 10.246-14.982 26.019zm-1.996 11.206l3.23-5.603 7.788 5.49-11.018.113zm23.693 33.533l-.97 10.942-6.46-10.942h7.43zM96.87 80.296l-3.484-6.045 9.322-4.332-5.838 10.377zm33.552 60.899c-.066-.01-.122-.028-.188-.028l-31.999.358-16.046-27.15 15.82-28.193 31.32-.349.048.104 16.432 27.817-15.387 27.441zm37.121-81.588l14.512 14.55 10 37.394h-29.117l4.605-51.944zm-8.475 51.944h-10.076l-15.218-25.774 18.316-.198a1.93 1.93 0 0 0 1.083-3.522l-12.976-9.134 14.869-25.83 8.918 8.945-4.916 55.513zm5.961-67.397l-7.157-1.93 8.664-15.048-1.507 16.978zM62.969 183.373l7.383 1.978-8.937 15.519 1.554-17.497z"/></svg>