<svg version="1.1" id="Layer_1" xmlns="http://www.w3.org/2000/svg" xmlns:xlink="http://www.w3.org/1999/xlink" x="0px" y="0px"
	 width="226.777px" height="226.777px" viewBox="0 0 226.777 226.777" enable-background="new 0 0 226.777 226.777"
	 xml:space="preserve">
<path id="PPC_alt_1_" d="M163.915,11.464C147.699,1.636,135.747,0,122.645,0C116.732,0,37.72,0,37.72,0v165.176h-6.345v24.813h6.345
	v36.69H67.2v-36.69h3.707v36.69h29.479v-36.69h6.35v-24.813h-6.35v-26.615h0.144c0,0,48.317,2.294,61.748-5.896
	c13.431-8.189,33.412-28.17,33.412-60.6C195.689,39.636,180.129,21.29,163.915,11.464z M70.907,165.176H67.2V24.814h3.707V165.176z
	 M157.039,108.871c0,0,3.887-12.975,2.168-24.645c-1.721-11.668-12.161-25.797-20.022-32.184
	c-7.862-6.389-22.971-13.634-22.971-13.634s13.144,10.073,17.688,14.862c4.544,4.791,10.809,12.775,13.759,23.217
	c2.946,10.44,2.456,28.575-3.563,32.384c-6.021,3.808-21.865-2.78-27.147-7.203S104.911,90,102.947,75.014
	c-1.966-14.986-1.432-50.117-1.432-50.117s28.173,0.161,49.464,13.591c21.292,13.435,23.256,24.079,23.256,41.276
	C174.234,96.959,157.039,108.871,157.039,108.871z"/>
</svg>
