<svg version="1.1" id="Layer_1" xmlns="http://www.w3.org/2000/svg" xmlns:xlink="http://www.w3.org/1999/xlink" x="0px" y="0px"
	 width="226.777px" height="226.777px" viewBox="0 0 226.777 226.777" enable-background="new 0 0 226.777 226.777"
	 xml:space="preserve">
<g id="PPC_1_">
	<path d="M145.427,70.102c-13.096-8.263-30.428-8.363-30.428-8.363s-0.33,21.611,0.879,30.831c1.21,9.219,5.366,13.678,8.616,16.398
		c3.249,2.722,12.999,6.772,16.702,4.431c3.702-2.344,4.003-13.5,2.188-19.923c-1.813-6.423-5.666-11.335-8.464-14.281
		c-2.794-2.947-10.88-9.144-10.88-9.144s9.295,4.458,14.132,8.386c4.835,3.93,11.259,12.621,12.316,19.8
		c1.058,7.18-1.333,15.162-1.333,15.162s10.578-7.326,10.578-17.907C159.734,84.912,158.527,78.364,145.427,70.102z"/>
	<rect x="93.888" y="61.687" width="2.279" height="86.352"/>
	<path d="M113.399,0C50.771,0,0,50.771,0,113.399s50.771,113.399,113.399,113.399s113.399-50.771,113.399-113.399
		S176.027,0,113.399,0z M152.379,128.038c-8.262,5.039-37.986,3.627-37.986,3.627h-0.089v16.374h3.906v15.265h-3.906v22.571H96.167
		v-22.571h-2.279v22.571H75.751v-22.571h-3.904v-15.265h3.904V46.423c0,0,48.608,0,52.245,0c8.062,0,15.415,1.006,25.391,7.053
		c9.975,6.045,19.546,17.331,19.546,37.28C172.933,110.707,160.64,122.999,152.379,128.038z"/>
</g>
</svg>
