<svg version="1.1" id="Layer_1" xmlns="http://www.w3.org/2000/svg" xmlns:xlink="http://www.w3.org/1999/xlink" x="0px" y="0px"
	 viewBox="0 0 226.8 226.8" style="enable-background:new 0 0 226.8 226.8;" xml:space="preserve">
<path class="st0" d="M164.6,223.8c0,0,10.4-34.6,5.8-65.7c-4.6-31.1-32.4-68.8-53.4-85.8C96,55.3,55.7,36,55.7,36s35,26.8,47.1,39.6
	c12.1,12.8,28.8,34,36.7,61.9c7.9,27.8,6.5,76.2-9.5,86.3c-16,10.2-58.3-7.4-72.4-19.2c-14.1-11.8-32.1-31.1-37.3-71
	C15.1,93.6,16.6,0,16.6,0s75.1,0.4,131.8,36.2c56.8,35.8,62,64.2,62,110C210.4,192.1,164.6,223.8,164.6,223.8z"/>
</svg>
