<svg width="227" height="227" viewBox="0 0 227 227" xmlns="http://www.w3.org/2000/svg"><title>ppt</title><path d="M113.5 227C50.813 227 0 176.187 0 113.5S50.813 0 113.5 0 227 50.813 227 113.5 176.187 227 113.5 227zm.348-168.008c9.335 0 16.897-5.2 16.897-11.62 0-6.42-7.562-11.62-16.897-11.62-9.336 0-16.905 5.2-16.905 11.62 0 6.42 7.57 11.62 16.905 11.62zM105.1 188.694c0 1.39 1.227 2.66 2.625 2.66h11.825c1.39 0 2.462-1.27 2.462-2.66V138.47h20.77c1.39 0 2.384-1.192 2.384-2.582V67.022c0-1.398-.987-2.44-2.384-2.44H105.1V188.7v-.007zm-6.356-50.231V64.582H84.487c-1.398 0-2.653 1.042-2.653 2.44v68.866c0 1.39 1.255 2.582 2.645 2.582h14.266v-.007z"/></svg>