<?xml version="1.0" encoding="UTF-8"?>
<svg width="227px" height="227px" viewBox="0 0 227 227" version="1.1" xmlns="http://www.w3.org/2000/svg" xmlns:xlink="http://www.w3.org/1999/xlink">
    <!-- Generator: Sketch 50.2 (55047) - http://www.bohemiancoding.com/sketch -->
    <title>ppt</title>
    <desc>Created with Sketch.</desc>
    <defs></defs>
    <g id="Page-1" stroke="none" stroke-width="1" fill="none" fill-rule="evenodd">
        <g id="ppt" fill="#000000" fill-rule="nonzero">
            <path d="M113.5,227 C50.8125312,227 0,176.187469 0,113.5 C0,50.8125312 50.8125312,0 113.5,0 C176.187469,0 227,50.8125312 227,113.5 C227,176.187469 176.187469,227 113.5,227 Z M113.847594,58.991625 C123.182969,58.991625 130.744906,53.7919062 130.744906,47.3720625 C130.744906,40.9522187 123.182969,35.7525 113.847594,35.7525 C104.512219,35.7525 96.9431875,40.9522187 96.9431875,47.3720625 C96.9431875,53.7919062 104.512219,58.991625 113.847594,58.991625 Z M105.101,188.69375 C105.101,190.084125 106.328219,191.353906 107.725687,191.353906 L119.550969,191.353906 C120.941344,191.353906 122.0125,190.084125 122.0125,188.69375 L122.0125,138.47 L142.783,138.47 C144.173375,138.47 145.1665,137.27825 145.1665,135.887875 L145.1665,67.02175 C145.1665,65.6242813 144.180469,64.5815 142.783,64.5815 L105.101,64.5815 L105.101,188.700844 L105.101,188.69375 Z M98.745,138.462906 L98.745,64.5815 L84.4865625,64.5815 C83.0890938,64.5815 81.8335,65.6242812 81.8335,67.02175 L81.8335,135.887875 C81.8335,137.27825 83.0890938,138.47 84.4794688,138.47 L98.745,138.47 L98.745,138.462906 Z" id="Shape"></path>
        </g>
    </g>
</svg>