<svg width="227" height="227" viewBox="0 0 227 227" xmlns="http://www.w3.org/2000/svg"><title>Shape</title><path d="M112.537 34.655c13.62 0 24.651-7.586 24.651-16.951 0-9.366-11.032-16.951-24.65-16.951-13.62 0-24.662 7.585-24.662 16.95 0 9.366 11.042 16.952 24.661 16.952zm-12.76 189.217c0 2.028 1.79 3.88 3.83 3.88h17.25c2.03 0 3.592-1.852 3.592-3.88v-73.27h30.301c2.028 0 3.477-1.738 3.477-3.766V46.37c0-2.039-1.438-3.56-3.477-3.56H99.777v181.072-.01zm-9.272-73.28V42.81H69.704c-2.039 0-3.87 1.521-3.87 3.56v100.466c0 2.028 1.831 3.767 3.86 3.767h20.81v-.01z"/></svg>