<?xml version="1.0" encoding="UTF-8"?>
<svg width="227px" height="227px" viewBox="0 0 227 227" version="1.1" xmlns="http://www.w3.org/2000/svg" xmlns:xlink="http://www.w3.org/1999/xlink">
    <!-- Generator: Sketch 50.2 (55047) - http://www.bohemiancoding.com/sketch -->
    <title>Shape</title>
    <desc>Created with Sketch.</desc>
    <defs></defs>
    <g id="Page-1" stroke="none" stroke-width="1" fill="none" fill-rule="evenodd">
        <g id="ppt" transform="translate(1.000000, 0.000000)" fill="#000000" fill-rule="nonzero">
            <path d="M111.537443,34.6550302 C125.156409,34.6550302 136.188184,27.0693908 136.188184,17.7037651 C136.188184,8.33813939 125.156409,0.7525 111.537443,0.7525 C97.9184783,0.7525 86.8763539,8.33813939 86.8763539,17.7037651 C86.8763539,27.0693908 97.9184783,34.6550302 111.537443,34.6550302 Z M98.7774252,223.871716 C98.7774252,225.900072 100.56776,227.7525 102.606466,227.7525 L119.857845,227.7525 C121.886201,227.7525 123.448864,225.900072 123.448864,223.871716 L123.448864,150.602511 L153.750026,150.602511 C155.778383,150.602511 157.227209,148.86392 157.227209,146.835564 L157.227209,46.3698239 C157.227209,44.3311186 155.788731,42.8098513 153.750026,42.8098513 L98.7774252,42.8098513 L98.7774252,223.882065 L98.7774252,223.871716 Z M89.5049383,150.592163 L89.5049383,42.8098513 L68.7039354,42.8098513 C66.6652301,42.8098513 64.8335,44.3311186 64.8335,46.3698239 L64.8335,146.835564 C64.8335,148.86392 66.6652301,150.602511 68.6935866,150.602511 L89.5049383,150.602511 L89.5049383,150.592163 Z" id="Shape"></path>
        </g>
    </g>
</svg>