<svg version="1.1" id="Layer_1" xmlns="http://www.w3.org/2000/svg" xmlns:xlink="http://www.w3.org/1999/xlink" x="0px" y="0px"
	 width="226.777px" height="226.777px" viewBox="0 0 226.777 226.777" enable-background="new 0 0 226.777 226.777"
	 xml:space="preserve">
<g id="QRK_alt">
	<path fill="#231F20" d="M113.407-0.014C50.768-0.014,0,50.747,0,113.366c0,62.621,50.769,113.411,113.407,113.411
		c62.609,0,113.385-50.79,113.385-113.411C226.792,50.747,176.016-0.014,113.407-0.014z M113.407,211.054
		c-53.952,0-97.679-43.751-97.679-97.688c0-53.936,43.728-97.656,97.679-97.656c53.926,0,97.664,43.72,97.664,97.656
		C211.071,167.303,167.333,211.054,113.407,211.054z"/>
	<path fill="#231F20" d="M183.604,72.842c-8.124-14.083-26.134-18.907-40.226-10.776c-3.196,1.847-5.889,4.222-8.09,6.929
		c-0.004-0.003-0.011-0.003-0.015-0.007c-4.825,6.903-12.82,11.43-21.875,11.43c-9.064,0-17.054-4.527-21.879-11.43
		c-0.007,0.004-0.02,0.007-0.026,0.011c-2.201-2.704-4.892-5.079-8.09-6.925c-14.083-8.128-32.092-3.307-40.221,10.777
		c-8.132,14.078-3.303,32.087,10.78,40.219c3.026,1.741,6.241,2.845,9.494,3.429c8.594,0.577,16.749,5.294,21.363,13.318
		c4.52,7.863,4.58,17.061,0.989,24.688c0.029,0.021,0.056,0.051,0.088,0.068c-1.235,3.247-1.943,6.758-1.943,10.438
		c0,16.261,13.182,29.447,29.445,29.447c16.257,0,29.438-13.187,29.438-29.447c0-3.493-0.652-6.828-1.773-9.942
		c-3.794-7.729-3.79-17.149,0.853-25.155c4.539-7.834,12.455-12.476,20.839-13.194c0.005-0.038,0.014-0.076,0.017-0.111
		c3.443-0.553,6.851-1.698,10.054-3.546C186.907,104.929,191.732,86.922,183.604,72.842z M113.4,135.274
		c-12.094,0-21.894-9.806-21.894-21.896s9.8-21.89,21.894-21.89c12.085,0,21.893,9.8,21.893,21.89S125.485,135.274,113.4,135.274z"
		/>
</g>
</svg>
