<svg version="1.1" id="Layer_1" xmlns="http://www.w3.org/2000/svg" xmlns:xlink="http://www.w3.org/1999/xlink" x="0px" y="0px"
	 width="226.777px" height="226.777px" viewBox="0 0 226.777 226.777" enable-background="new 0 0 226.777 226.777"
	 xml:space="preserve">
<g id="QRK">
	<path fill="#231F20" d="M113.377,0.023C50.76,0.023,0,50.784,0,113.4S50.76,226.777,113.377,226.777S226.754,176.016,226.754,113.4
		S175.993,0.023,113.377,0.023z M172.609,113.08c-3.191,1.842-6.588,2.984-10.021,3.535c-0.003,0.036-0.011,0.073-0.015,0.11
		c-8.356,0.717-16.246,5.343-20.771,13.151c-4.627,7.979-4.631,17.367-0.85,25.071c1.118,3.103,1.768,6.428,1.768,9.908
		c0,16.206-13.137,29.35-29.339,29.35c-16.209,0-29.347-13.144-29.347-29.35c0-3.667,0.706-7.166,1.936-10.402
		c-0.031-0.018-0.058-0.048-0.087-0.067c3.578-7.602,3.518-16.769-0.986-24.607c-4.598-7.996-12.726-12.697-21.292-13.272
		c-3.242-0.583-6.445-1.682-9.462-3.418c-14.036-8.104-18.849-26.054-10.745-40.085c8.103-14.037,26.052-18.842,40.087-10.741
		c3.188,1.84,5.87,4.208,8.063,6.903c0.006-0.003,0.019-0.007,0.026-0.011c4.809,6.879,12.772,11.392,21.806,11.392
		c9.025,0,16.993-4.513,21.801-11.392c0.004,0.004,0.012,0.004,0.015,0.008c2.194-2.698,4.877-5.066,8.063-6.907
		c14.044-8.104,31.993-3.295,40.091,10.74C191.453,87.029,186.642,104.976,172.609,113.08z"/>
	<path fill="#231F20" d="M113.381,91.58c-12.054,0-21.821,9.767-21.821,21.816c0,12.05,9.767,21.823,21.821,21.823
		c12.045,0,21.82-9.772,21.82-21.823C135.201,101.347,125.427,91.58,113.381,91.58z"/>
</g>
</svg>
