<svg width="227" height="227" viewBox="0 0 227 227" xmlns="http://www.w3.org/2000/svg"><title>qrl</title><path d="M113.5 227C50.816 227 0 176.184 0 113.5S50.816 0 113.5 0 227 50.816 227 113.5 176.184 227 113.5 227zm68.298-76.55c-1.455.009-2.631 1.223-2.64 2.723v8.17h-34.064l-.085-5.183c19.587-14.197 27.997-39.854 20.78-63.402-7.216-23.548-28.393-39.555-52.332-39.555-23.938 0-45.115 16.007-52.331 39.555-7.217 23.548 1.192 49.205 20.78 63.402h.085l-.085 5.096H47.842v-8.17c0-1.505-1.182-2.724-2.64-2.724-1.458 0-2.64 1.219-2.64 2.723v13.53h44.539l.17-11.773c-.008-1.103-.64-2.1-1.618-2.548a1.731 1.731 0 0 0-.681-.702c-13.34-9.471-21.304-25.114-21.29-41.82.005-24.444 16.723-45.489 39.952-50.296 23.23-4.807 46.521 7.96 55.663 30.51 9.141 22.55 1.595 48.622-18.035 62.308a4 4 0 0 0-.596.615 2.668 2.668 0 0 0-.937 2.021l.17 11.773h44.538v-13.53c-.009-1.5-1.185-2.714-2.64-2.724zm-35.171-36.716a49.186 49.186 0 0 0-3.492-4.042c1.235-1.28 2.4-2.63 3.492-4.041 5.876-7.468 7.664-14.057 5.11-18.626-1.96-3.426-6.132-5.272-12.178-5.272a46.325 46.325 0 0 0-11.241 1.67c-3.236-11.685-8.601-19.153-14.733-19.153-6.131 0-11.496 7.468-14.818 19.065a46.325 46.325 0 0 0-11.24-1.67c-6.047 0-10.22 1.846-12.178 5.272-2.555 4.569-.767 11.158 5.11 18.626a49.186 49.186 0 0 0 3.49 4.041c-8.174 8.698-11.751 17.22-8.6 22.668 1.958 3.426 6.131 5.271 12.177 5.271a46.325 46.325 0 0 0 11.241-1.67c3.237 11.598 8.602 19.066 14.733 19.066s11.496-7.468 14.818-19.065a46.325 46.325 0 0 0 11.24 1.67c6.047 0 10.22-1.846 12.178-5.272 2.555-4.393.767-11.07-5.11-18.538zm-6.983-28.73c3.321 0 7.664.615 9.282 3.602 1.789 3.251 0 8.61-4.854 14.848-1.022 1.23-2.129 2.548-3.321 3.778a101.69 101.69 0 0 0-9.623-8.083 103.373 103.373 0 0 0-1.959-12.651 48.227 48.227 0 0 1 10.475-1.494zm-18.735 37.867a75.861 75.861 0 0 1-7.409 3.954c-2.47-1.23-4.94-2.548-7.409-4.042-2.47-1.494-4.854-2.987-7.068-4.569-.17-2.723-.34-5.622-.34-8.61 0-2.987.084-5.886.34-8.61a91.275 91.275 0 0 1 7.068-4.568 75.861 75.861 0 0 1 7.409-3.954 150.97 150.97 0 0 1 7.409 3.954c2.47 1.493 4.854 2.987 7.068 4.568.17 2.724.34 5.623.34 8.61 0 2.988-.084 5.799-.34 8.61a111.653 111.653 0 0 1-7.068 4.657zm6.727-.264a123.948 123.948 0 0 1-1.532 9.313 74.049 74.049 0 0 1-8.602-3.25 75.298 75.298 0 0 0 5.11-2.9c1.703-1.054 3.321-2.108 5.024-3.163zm-17.968 6.063a80.369 80.369 0 0 1-8.601 3.25 70.39 70.39 0 0 1-1.533-9.313 254.653 254.653 0 0 0 5.024 3.163l5.11 2.9zm-13.966-13.003a84.106 84.106 0 0 1-7.068-6.063 74.443 74.443 0 0 1 7.068-6.062c-.085 2.02-.17 3.954-.17 6.062 0 2.109.085 4.13.17 6.063zm3.832-18.89a124.22 124.22 0 0 1 1.533-9.313c2.928.903 5.8 1.989 8.6 3.251a105.538 105.538 0 0 0-5.194 2.9c-1.788 1.054-3.321 2.02-4.94 3.162zm17.883-6.062a80.369 80.369 0 0 1 8.601-3.25 70.39 70.39 0 0 1 1.533 9.312 258.967 258.967 0 0 0-5.024-3.163 75.297 75.297 0 0 0-5.11-2.899zm14.052 12.915a69.272 69.272 0 0 1 6.983 6.062c-2.13 2.021-4.514 4.042-6.983 6.062.085-1.932.17-3.953.17-6.062 0-2.108-.085-4.041-.17-6.062zm-17.884-36.022c4.258 0 8.772 6.15 11.667 16.606a93.25 93.25 0 0 0-11.667 4.56 93.254 93.254 0 0 0-11.667-4.57c2.896-10.446 7.324-16.596 11.667-16.596zm-35.34 20.998c1.702-2.987 5.96-3.602 9.281-3.602a43.96 43.96 0 0 1 10.475 1.494 103.373 103.373 0 0 0-1.959 12.651 93.969 93.969 0 0 0-9.623 8.074c-1.192-1.317-2.299-2.547-3.32-3.865-4.94-6.054-6.728-11.5-4.855-14.752zm9.281 45.686c-3.32 0-7.664-.615-9.282-3.602-2.129-3.865.767-10.894 8.09-18.713a83.395 83.395 0 0 0 9.708 8.082 103.373 103.373 0 0 0 1.96 12.643 40.316 40.316 0 0 1-10.476 1.59zm26.06 17.396c-4.259 0-8.772-6.15-11.668-16.605a93.254 93.254 0 0 0 11.667-4.568 93.254 93.254 0 0 0 11.667 4.568c-2.895 10.455-7.409 16.605-11.667 16.605zm35.34-20.998c-1.703 2.987-5.961 3.602-9.282 3.602a43.96 43.96 0 0 1-10.475-1.493 103.38 103.38 0 0 0 1.959-12.652 93.973 93.973 0 0 0 9.623-8.083c1.192 1.23 2.3 2.548 3.321 3.778 4.854 6.238 6.643 11.685 4.854 14.848zm-35.34-33.913c-6.856.049-12.38 5.813-12.349 12.886.031 7.072 5.606 12.784 12.462 12.768 6.855-.016 12.404-5.754 12.405-12.827-.047-7.098-5.638-12.827-12.519-12.827zm0 22.404c-5.08 0-9.198-4.248-9.198-9.489 0-5.24 4.118-9.488 9.197-9.488 5.08 0 9.197 4.248 9.197 9.488-.037 5.225-4.133 9.45-9.197 9.489z"/></svg>