<svg width="227" height="227" viewBox="0 0 227 227" xmlns="http://www.w3.org/2000/svg"><title>Shape</title><path d="M223.339 175.797c-2.327.016-4.21 1.958-4.224 4.358v13.073h-54.502l-.136-8.294c31.34-22.715 44.794-63.767 33.248-101.444-11.546-37.676-45.43-63.287-83.73-63.287-38.302 0-72.185 25.61-83.731 63.287-11.547 37.677 1.908 78.729 33.248 101.444h.136l-.136 8.154H9.01v-13.074c0-2.406-1.89-4.357-4.224-4.357-2.332 0-4.223 1.95-4.223 4.357v21.649h71.26l.273-18.837c-.013-1.765-1.025-3.36-2.589-4.077a2.77 2.77 0 0 0-1.09-1.124c-21.345-15.154-34.086-40.181-34.063-66.913.008-39.108 26.756-72.781 63.924-80.472 37.167-7.691 74.433 12.735 89.059 48.815 14.626 36.08 2.552 77.796-28.856 99.694-.35.292-.67.622-.953.984a4.27 4.27 0 0 0-1.5 3.233l.273 18.837h71.262v-21.648c-.015-2.4-1.898-4.342-4.224-4.358zm-56.273-58.745a78.698 78.698 0 0 0-5.587-6.466 78.698 78.698 0 0 0 5.587-6.467c9.401-11.948 12.262-22.491 8.175-29.8-3.134-5.483-9.81-8.435-19.485-8.435a74.12 74.12 0 0 0-17.985 2.67c-5.178-18.696-13.762-30.644-23.572-30.644-9.81 0-18.395 11.948-23.709 30.504a74.12 74.12 0 0 0-17.985-2.67c-9.674 0-16.35 2.951-19.485 8.433-4.087 7.31-1.226 17.853 8.176 29.802a78.698 78.698 0 0 0 5.586 6.466c-13.08 13.917-18.803 27.552-13.762 36.268 3.134 5.482 9.81 8.434 19.485 8.434a74.12 74.12 0 0 0 17.985-2.67c5.178 18.555 13.762 30.503 23.573 30.503 9.81 0 18.394-11.948 23.708-30.504a74.12 74.12 0 0 0 17.985 2.671c9.674 0 16.35-2.952 19.485-8.434 4.087-7.029 1.226-17.712-8.175-29.661zm-11.173-45.967c5.314 0 12.263.984 14.851 5.763 2.862 5.202 0 13.776-7.766 23.757-1.635 1.968-3.406 4.077-5.314 6.045a162.704 162.704 0 0 0-15.397-12.933 165.397 165.397 0 0 0-3.134-20.242 77.163 77.163 0 0 1 16.76-2.39zm-29.976 60.587a121.378 121.378 0 0 1-11.855 6.325c-3.95-1.968-7.902-4.076-11.854-6.466-3.951-2.39-7.766-4.78-11.309-7.31-.272-4.358-.545-8.996-.545-13.776 0-4.78.136-9.418.545-13.776a146.04 146.04 0 0 1 11.31-7.31 121.378 121.378 0 0 1 11.853-6.325 242.652 242.652 0 0 1 11.855 6.325c3.951 2.39 7.766 4.78 11.309 7.31.272 4.358.545 8.997.545 13.776 0 4.78-.136 9.278-.545 13.776a178.644 178.644 0 0 1-11.31 7.45zm10.764-.422c-.682 5.342-1.5 10.262-2.453 14.9a118.479 118.479 0 0 1-13.762-5.2 120.477 120.477 0 0 0 8.176-4.64c2.725-1.686 5.314-3.373 8.039-5.06zm-28.75 9.7a128.59 128.59 0 0 1-13.762 5.2 112.623 112.623 0 0 1-2.452-14.9c2.589 1.687 5.314 3.374 8.039 5.06l8.175 4.64zm-22.346-20.805a134.57 134.57 0 0 1-11.309-9.7 119.109 119.109 0 0 1 11.31-9.7c-.137 3.234-.273 6.326-.273 9.7 0 3.374.136 6.607.272 9.7zm6.132-30.223a198.585 198.585 0 0 1 2.452-14.901 118.478 118.478 0 0 1 13.762 5.201c-2.725 1.406-5.45 2.952-8.311 4.639-2.862 1.687-5.314 3.233-7.903 5.06zm28.613-9.7a128.59 128.59 0 0 1 13.762-5.201 112.623 112.623 0 0 1 2.452 14.9c-2.588-1.686-5.313-3.373-8.039-5.06a120.476 120.476 0 0 0-8.175-4.639zm22.482 20.664a110.835 110.835 0 0 1 11.173 9.7c-3.406 3.233-7.221 6.466-11.173 9.7.136-3.093.273-6.327.273-9.7 0-3.374-.137-6.467-.273-9.7zM114.2 43.252c6.812 0 14.034 9.84 18.667 26.568a149.2 149.2 0 0 0-18.667 7.295 149.206 149.206 0 0 0-18.667-7.31c4.633-16.713 11.718-26.553 18.667-26.553zM57.653 76.848c2.725-4.78 9.538-5.763 14.852-5.763 5.658.118 11.282.92 16.76 2.39a165.396 165.396 0 0 0-3.135 20.242 150.35 150.35 0 0 0-15.396 12.919c-1.908-2.109-3.68-4.077-5.314-6.186-7.903-9.685-10.764-18.4-7.767-23.602zm14.852 73.098c-5.314 0-12.263-.984-14.852-5.763-3.406-6.186 1.226-17.431 12.944-29.942a133.431 133.431 0 0 0 15.533 12.932 165.396 165.396 0 0 0 3.134 20.229 64.505 64.505 0 0 1-16.76 2.544zm41.694 27.833c-6.813 0-14.034-9.84-18.667-26.568a149.206 149.206 0 0 0 18.667-7.31 149.206 149.206 0 0 0 18.667 7.31c-4.633 16.728-11.855 26.568-18.667 26.568zm56.545-33.596c-2.725 4.779-9.537 5.763-14.851 5.763a70.337 70.337 0 0 1-16.76-2.39 165.397 165.397 0 0 0 3.134-20.242 150.358 150.358 0 0 0 15.397-12.933c1.908 1.968 3.679 4.077 5.314 6.045 7.766 9.98 10.628 18.696 7.766 23.757zM114.2 89.922c-10.969.077-19.807 9.3-19.757 20.616.05 11.317 8.97 20.456 19.938 20.43 10.969-.025 19.848-9.206 19.848-20.523-.075-11.357-9.02-20.524-20.03-20.523zm0 35.846c-8.127 0-14.716-6.798-14.716-15.182 0-8.385 6.589-15.182 14.716-15.182 8.127 0 14.715 6.797 14.715 15.182-.06 8.359-6.613 15.12-14.715 15.182z"/></svg>