<?xml version="1.0" encoding="utf-8"?>
<!-- Generator: Adobe Illustrator 20.1.0, SVG Export Plug-In . SVG Version: 6.00 Build 0)  -->
<svg version="1.1" id="Vrstva_1" xmlns="http://www.w3.org/2000/svg" xmlns:xlink="http://www.w3.org/1999/xlink" x="0px" y="0px"
	 viewBox="0 0 226.8 226.8" style="enable-background:new 0 0 226.8 226.8;" xml:space="preserve">
<g>
	<circle cx="146.51" cy="145.51" r="8.137"/>
	<circle cx="82.29" cy="145.51" r="8.137"/>
	<path d="M114.4,0C51.8,0,1,50.8,1,113.4s50.8,113.4,113.4,113.4S227.8,176,227.8,113.4S177,0,114.4,0z M82.29,54.3
		c14.906,0,26.99,12.084,26.99,26.99c0,14.906-12.084,26.99-26.99,26.99c-14.906,0-26.99-12.084-26.99-26.99
		C55.3,66.384,67.384,54.3,82.29,54.3z M109.281,145.51c0,14.906-12.084,26.99-26.99,26.99c-14.906,0-26.99-12.084-26.99-26.99
		c0-14.906,12.084-26.99,26.99-26.99c20.561,0,37.229-16.668,37.229-37.229c0-14.906,12.084-26.99,26.99-26.99
		c14.906,0,26.99,12.084,26.99,26.99c0,14.906-12.084,26.99-26.99,26.99C125.949,108.281,109.281,124.949,109.281,145.51z
		 M146.51,172.5c-14.906,0-26.99-12.084-26.99-26.99c0-14.906,12.084-26.99,26.99-26.99c14.906,0,26.99,12.084,26.99,26.99
		C173.5,160.416,161.416,172.5,146.51,172.5z"/>
	<circle cx="146.51" cy="81.29" r="8.137"/>
	<circle cx="82.29" cy="81.29" r="8.137"/>
</g>
</svg>
