<?xml version="1.0" encoding="utf-8"?>
<!-- Generator: Adobe Illustrator 20.1.0, SVG Export Plug-In . SVG Version: 6.00 Build 0)  -->
<svg version="1.1" id="Vrstva_1" xmlns="http://www.w3.org/2000/svg" xmlns:xlink="http://www.w3.org/1999/xlink" x="0px" y="0px"
	 viewBox="0 0 226.8 226.8" style="enable-background:new 0 0 226.8 226.8;" xml:space="preserve">
<g>
	<path d="M176.011,103.577c28.602,0,51.788-23.186,51.788-51.788S204.613,0,176.011,0s-51.788,23.186-51.788,51.788
		c0,39.452-31.982,71.434-71.434,71.434C24.186,123.223,1,146.41,1,175.012S24.186,226.8,52.788,226.8s51.788-23.186,51.788-51.788
		C104.577,135.559,136.559,103.577,176.011,103.577z M176.011,36.176c8.622,0,15.612,6.99,15.612,15.612s-6.99,15.612-15.612,15.612
		s-15.612-6.99-15.612-15.612S167.389,36.176,176.011,36.176z M52.788,190.624c-8.623,0-15.612-6.99-15.612-15.612
		c0-8.622,6.99-15.612,15.612-15.612c8.622,0,15.612,6.99,15.612,15.612C68.401,183.634,61.411,190.624,52.788,190.624z"/>
	<path d="M176.012,123.223c-28.602,0-51.788,23.186-51.788,51.788S147.41,226.8,176.012,226.8s51.788-23.186,51.788-51.788
		S204.614,123.223,176.012,123.223z M176.012,190.624c-8.622,0-15.612-6.99-15.612-15.612s6.99-15.612,15.612-15.612
		s15.612,6.99,15.612,15.612S184.634,190.624,176.012,190.624z"/>
	<path d="M52.788,103.577c28.602,0,51.788-23.186,51.788-51.788S81.39,0,52.788,0S1,23.186,1,51.788S24.186,103.577,52.788,103.577z
		 M52.788,36.176c8.622,0,15.612,6.99,15.612,15.612s-6.99,15.612-15.612,15.612s-15.612-6.99-15.612-15.612
		S44.166,36.176,52.788,36.176z"/>
</g>
</svg>
