<svg version="1.1" id="Layer_1" xmlns="http://www.w3.org/2000/svg" xmlns:xlink="http://www.w3.org/1999/xlink" x="0px" y="0px"
	 width="226.777px" height="226.777px" viewBox="0 0 226.777 226.777" enable-background="new 0 0 226.777 226.777"
	 xml:space="preserve">
<g>
	<polygon fill="#231F20" points="113.121,110.328 133.286,93.018 113.121,84.151 92.957,93.018 	"/>
	<polygon fill="#231F20" points="143.742,84.042 118.768,84.042 135.284,91.304 	"/>
	<polygon fill="#231F20" points="86.375,110.707 89.049,95.536 69.684,110.707 	"/>
	<polygon fill="#231F20" points="139.746,113.079 127.28,152.922 157.604,113.079 	"/>
	<polygon fill="#231F20" points="91.561,94.946 88.783,110.707 109.918,110.707 	"/>
	<polygon fill="#231F20" points="98.964,152.922 86.498,113.079 68.64,113.079 	"/>
	<polygon fill="#231F20" points="159.138,109.712 162.37,89.081 147.215,84.189 137.359,92.65 	"/>
	<polygon fill="#231F20" points="175.052,110.707 164.344,91.809 161.385,110.707 	"/>
	<polygon fill="#231F20" points="111.627,113.079 88.985,113.079 101.95,154.515 	"/>
	<polygon fill="#231F20" points="124.295,154.515 137.258,113.079 114.618,113.079 	"/>
	<polygon fill="#231F20" points="188.321,110.707 168.022,93.486 177.779,110.707 	"/>
	<polygon fill="#231F20" points="156.559,110.707 137.194,95.536 139.87,110.707 	"/>
	<polygon fill="#231F20" points="116.325,110.707 137.459,110.707 134.683,94.948 	"/>
	<polygon fill="#231F20" points="64.859,110.707 61.9,91.809 51.193,110.707 	"/>
	<polygon fill="#231F20" points="125.2,159.572 115.774,189.693 138.472,165.875 156.049,119.043 	"/>
	<polygon fill="#231F20" points="160.821,113.079 144.014,157.863 174.829,113.079 	"/>
	<polygon fill="#231F20" points="113.121,117.109 103.344,158.976 113.121,190.224 122.898,158.974 	"/>
	<path fill="#231F20" d="M148.005,76.131H78.239l-19.027,6.143l-34.303,29.102l88.213,92.568l88.212-92.568l-34.301-29.102
		L148.005,76.131z M192.352,111.022c0.031,0.029,0.06,0.06,0.089,0.092c0.023,0.026,0.047,0.053,0.068,0.082
		c0.024,0.035,0.048,0.071,0.069,0.11c0.017,0.03,0.034,0.06,0.049,0.091c0.018,0.04,0.031,0.081,0.046,0.122
		c0.011,0.033,0.023,0.067,0.031,0.101c0.01,0.041,0.015,0.083,0.02,0.125c0.003,0.029,0.012,0.057,0.014,0.086
		c0,0.01-0.003,0.021-0.002,0.031c0,0.01,0.003,0.019,0.003,0.031c0,0.032-0.007,0.061-0.01,0.094
		c-0.003,0.037-0.005,0.076-0.011,0.112c-0.008,0.045-0.021,0.085-0.032,0.127c-0.012,0.034-0.02,0.068-0.034,0.1
		c-0.015,0.042-0.035,0.081-0.056,0.121c-0.017,0.029-0.03,0.059-0.049,0.09c-0.026,0.038-0.055,0.07-0.083,0.106
		c-0.018,0.022-0.033,0.047-0.053,0.068l-78.431,82.306c-0.072,0.074-0.152,0.131-0.238,0.186c-0.007,0.006-0.012,0.01-0.019,0.014
		c-0.016,0.01-0.032,0.012-0.047,0.02c-0.063,0.037-0.131,0.064-0.199,0.088c-0.026,0.008-0.053,0.018-0.078,0.023
		c-0.09,0.021-0.183,0.037-0.275,0.039c-0.001,0-0.002,0-0.003,0h0l0,0c-0.001,0-0.002,0-0.002,0
		c-0.093-0.002-0.185-0.016-0.275-0.039c-0.026-0.006-0.052-0.016-0.079-0.023c-0.069-0.023-0.136-0.053-0.202-0.088
		c-0.014-0.008-0.03-0.01-0.044-0.02c-0.007-0.002-0.01-0.008-0.019-0.014c-0.085-0.055-0.166-0.111-0.239-0.186l-78.429-82.306
		c-0.02-0.021-0.035-0.046-0.054-0.069c-0.029-0.035-0.059-0.067-0.081-0.105c-0.019-0.031-0.034-0.061-0.05-0.09
		c-0.021-0.041-0.042-0.08-0.059-0.121c-0.012-0.032-0.021-0.066-0.031-0.1c-0.013-0.042-0.025-0.083-0.033-0.126
		c-0.006-0.038-0.008-0.078-0.01-0.115c-0.003-0.031-0.01-0.06-0.01-0.092c0-0.012,0.002-0.021,0.003-0.031
		c0-0.011-0.003-0.021-0.002-0.031c0.002-0.03,0.009-0.057,0.013-0.086c0.006-0.042,0.011-0.084,0.019-0.125
		c0.008-0.034,0.02-0.068,0.033-0.101c0.013-0.041,0.027-0.083,0.045-0.122c0.015-0.032,0.033-0.062,0.05-0.093
		c0.022-0.037,0.043-0.073,0.067-0.108c0.022-0.028,0.045-0.056,0.069-0.083c0.028-0.032,0.057-0.063,0.088-0.091
		c0.012-0.012,0.02-0.024,0.033-0.034l27.854-23.63c0.017-0.015,0.041-0.019,0.058-0.031c0.091-0.07,0.189-0.126,0.294-0.166
		c0.019-0.007,0.032-0.021,0.051-0.028l16.752-5.407c0.006-0.003,0.015-0.002,0.021-0.004c0.101-0.03,0.204-0.045,0.308-0.049
		c0.012-0.001,0.024-0.004,0.035-0.004h33.824h33.825c0.011,0,0.021,0.003,0.03,0.003c0.106,0.004,0.214,0.02,0.315,0.05
		c0.006,0.002,0.013,0.002,0.018,0.004l16.754,5.407c0.021,0.007,0.037,0.025,0.058,0.034c0.098,0.036,0.188,0.088,0.273,0.152
		c0.022,0.016,0.051,0.022,0.072,0.04l27.854,23.63C192.332,110.998,192.342,111.01,192.352,111.022z"/>
	<polygon fill="#231F20" points="107.476,84.042 82.501,84.042 90.961,91.304 	"/>
	<polygon fill="#231F20" points="148.94,154.886 188.783,113.079 177.71,113.079 	"/>
	<polygon fill="#231F20" points="70.196,119.043 87.772,165.875 110.469,189.693 101.045,159.572 	"/>
	<polygon fill="#231F20" points="88.884,92.65 79.029,84.189 63.873,89.081 67.105,109.712 	"/>
	<polygon fill="#231F20" points="58.221,93.486 37.925,110.707 48.465,110.707 	"/>
	<polygon fill="#231F20" points="37.461,113.079 77.303,154.886 48.532,113.079 	"/>
	<polygon fill="#231F20" points="51.414,113.079 82.23,157.863 65.423,113.079 	"/>
	<path fill="#231F20" d="M11.789,150.943l-10.68,2.641c-1.061,0.26-1.708,1.33-1.447,2.393c0.223,0.9,1.03,1.504,1.918,1.504
		c0.158,0,0.316-0.02,0.476-0.061l10.68-2.635c1.059-0.264,1.708-1.336,1.446-2.396C13.919,151.33,12.846,150.683,11.789,150.943z"
		/>
	<path fill="#231F20" d="M14.82,98.763L4.14,95.485c-1.044-0.324-2.15,0.264-2.471,1.31c-0.32,1.044,0.266,2.149,1.311,2.47
		l10.678,3.28c0.194,0.06,0.389,0.087,0.582,0.087c0.847,0,1.629-0.546,1.89-1.396C16.45,100.19,15.865,99.084,14.82,98.763z"/>
	<path fill="#231F20" d="M40.115,57.339c0.388,0.397,0.902,0.598,1.416,0.598c0.498,0,0.996-0.188,1.38-0.562
		c0.782-0.763,0.797-2.014,0.035-2.795l-7.778-7.976c-0.762-0.783-2.015-0.797-2.797-0.036c-0.782,0.762-0.797,2.016-0.035,2.797
		L40.115,57.339z"/>
	<path fill="#231F20" d="M85.219,30.723c0.246,0.871,1.038,1.442,1.902,1.442c0.178,0,0.359-0.026,0.538-0.077
		c1.052-0.298,1.663-1.39,1.366-2.44l-3.07-10.878c-0.297-1.051-1.39-1.659-2.441-1.366c-1.051,0.297-1.663,1.39-1.366,2.441
		L85.219,30.723z"/>
	<path fill="#231F20" d="M225.135,153.584l-10.68-2.641c-1.062-0.26-2.132,0.387-2.394,1.445c-0.262,1.061,0.385,2.133,1.445,2.396
		l10.682,2.635c0.156,0.041,0.317,0.061,0.474,0.061c0.888,0,1.696-0.604,1.919-1.504
		C226.844,154.914,226.196,153.844,225.135,153.584z"/>
	<path fill="#231F20" d="M223.264,99.264c1.044-0.32,1.63-1.425,1.31-2.47c-0.32-1.045-1.426-1.63-2.471-1.31l-10.68,3.278
		c-1.045,0.321-1.631,1.427-1.311,2.472c0.262,0.85,1.045,1.396,1.89,1.396c0.192,0,0.39-0.027,0.581-0.087L223.264,99.264z"/>
	<path fill="#231F20" d="M184.713,57.937c0.514,0,1.027-0.2,1.415-0.598l7.779-7.975c0.763-0.781,0.747-2.035-0.034-2.797
		c-0.783-0.761-2.035-0.747-2.798,0.036l-7.777,7.976c-0.764,0.781-0.748,2.032,0.035,2.795
		C183.716,57.749,184.216,57.937,184.713,57.937z"/>
	<path fill="#231F20" d="M138.585,32.088c0.18,0.05,0.36,0.077,0.537,0.077c0.864,0,1.657-0.571,1.904-1.442l3.07-10.878
		c0.296-1.051-0.315-2.144-1.366-2.441c-1.051-0.293-2.144,0.315-2.44,1.366l-3.071,10.878
		C136.922,30.698,137.534,31.79,138.585,32.088z"/>
</g>
</svg>
