<svg version="1.1" id="Layer_1" xmlns="http://www.w3.org/2000/svg" xmlns:xlink="http://www.w3.org/1999/xlink" x="0px" y="0px"
	 width="226.777px" height="226.777px" viewBox="0 0 226.777 226.777" enable-background="new 0 0 226.777 226.777"
	 xml:space="preserve">
<g>
	<path fill="#231F20" d="M113.283-0.21C50.602-0.21-0.211,50.603-0.211,113.284c0,62.68,50.813,113.493,113.494,113.493
		s113.494-50.813,113.494-113.493C226.777,50.603,175.964-0.21,113.283-0.21z M162.899,65.838l5.5-5.64
		c0.539-0.553,1.424-0.563,1.977-0.025s0.563,1.425,0.025,1.977l-5.5,5.639c-0.274,0.281-0.638,0.423-1.002,0.423
		c-0.351,0-0.703-0.134-0.975-0.398C162.372,67.274,162.361,66.389,162.899,65.838z M130.32,48.211l2.172-7.692
		c0.21-0.743,0.983-1.173,1.727-0.965c0.742,0.209,1.175,0.983,0.965,1.726l-2.171,7.69c-0.175,0.616-0.735,1.02-1.346,1.02
		c-0.126,0-0.253-0.019-0.38-0.054C130.544,49.724,130.111,48.952,130.32,48.211z M92.349,39.553
		c0.743-0.208,1.516,0.223,1.726,0.965l2.171,7.692c0.21,0.742-0.223,1.514-0.966,1.725c-0.127,0.036-0.254,0.054-0.38,0.054
		c-0.61,0-1.171-0.404-1.345-1.02l-2.171-7.69C91.174,40.536,91.606,39.763,92.349,39.553z M56.191,60.173
		c0.553-0.539,1.438-0.528,1.978,0.025l5.5,5.64c0.539,0.552,0.528,1.437-0.024,1.976c-0.272,0.265-0.625,0.398-0.977,0.398
		c-0.364,0-0.727-0.142-1-0.423l-5.5-5.639C55.627,61.597,55.638,60.711,56.191,60.173z M42.309,136.684l-7.552,1.864
		c-0.113,0.028-0.225,0.041-0.336,0.041c-0.627,0-1.198-0.426-1.355-1.063c-0.186-0.751,0.272-1.51,1.022-1.694l7.552-1.863
		c0.748-0.185,1.507,0.273,1.692,1.021C43.516,135.74,43.058,136.498,42.309,136.684z M44.708,98.824
		c-0.185,0.599-0.738,0.985-1.336,0.985c-0.136,0-0.274-0.017-0.411-0.061l-7.55-2.319c-0.739-0.226-1.153-1.008-0.927-1.747
		c0.227-0.738,1.009-1.153,1.747-0.925l7.55,2.318C44.521,97.304,44.935,98.086,44.708,98.824z M113.283,171.441l-62.368-65.449
		l24.253-20.574l13.453-4.344h49.327l13.453,4.344l24.252,20.574L113.283,171.441z M181.859,98.824
		c-0.228-0.739,0.188-1.521,0.927-1.749l7.55-2.318c0.74-0.226,1.521,0.187,1.748,0.925c0.227,0.739-0.188,1.521-0.927,1.747
		l-7.551,2.319c-0.137,0.043-0.275,0.061-0.41,0.061C182.597,99.81,182.044,99.424,181.859,98.824z M193.503,137.527
		c-0.158,0.637-0.729,1.063-1.357,1.063c-0.11,0-0.224-0.013-0.335-0.041l-7.551-1.864c-0.751-0.187-1.207-0.944-1.022-1.694
		c0.185-0.747,0.943-1.205,1.692-1.021l7.551,1.863C193.23,136.017,193.687,136.776,193.503,137.527z"/>
	<path fill="#231F20" d="M149.534,88.985c-0.06-0.046-0.123-0.083-0.192-0.106c-0.015-0.006-0.025-0.02-0.04-0.024l-11.846-3.823
		c-0.003-0.002-0.009-0.002-0.013-0.004c-0.073-0.022-0.146-0.033-0.223-0.035c-0.008,0-0.015-0.002-0.022-0.002h-23.915H89.369
		c-0.008,0-0.016,0.002-0.024,0.002c-0.074,0.004-0.146,0.013-0.218,0.035c-0.005,0.002-0.011,0.002-0.015,0.004l-11.844,3.823
		c-0.013,0.004-0.022,0.013-0.036,0.02c-0.075,0.028-0.145,0.067-0.208,0.117c-0.013,0.009-0.029,0.011-0.042,0.022l-19.693,16.706
		c-0.008,0.008-0.015,0.017-0.022,0.024c-0.022,0.021-0.043,0.043-0.063,0.065c-0.017,0.02-0.033,0.039-0.049,0.059
		c-0.018,0.024-0.032,0.05-0.048,0.076c-0.012,0.021-0.025,0.043-0.035,0.065c-0.013,0.028-0.022,0.059-0.032,0.087
		c-0.009,0.024-0.017,0.048-0.023,0.072c-0.006,0.028-0.01,0.059-0.014,0.089c-0.002,0.02-0.008,0.039-0.01,0.061
		c0,0.006,0.002,0.013,0.002,0.013c-0.001,0.015-0.002,0.021-0.002,0.021c0,0.03,0.005,0.052,0.007,0.074
		c0.002,0.026,0.003,0.055,0.007,0.081c0.006,0.033,0.014,0.061,0.024,0.091c0.006,0.021,0.013,0.045,0.022,0.069
		c0.012,0.03,0.026,0.057,0.041,0.085c0.012,0.021,0.022,0.043,0.036,0.065c0.016,0.026,0.037,0.048,0.057,0.074
		c0.013,0.016,0.023,0.033,0.038,0.048l55.452,58.192c0.051,0.053,0.108,0.094,0.169,0.131c0.004,0.004,0.006,0.011,0.013,0.013
		c0.01,0.007,0.022,0.009,0.031,0.013c0.046,0.024,0.093,0.046,0.143,0.062c0.019,0.004,0.037,0.011,0.056,0.015
		c0.064,0.018,0.129,0.026,0.194,0.028c0,0,0,0,0.001,0h0.001c0,0,0.001,0,0.002,0c0.065-0.002,0.13-0.013,0.193-0.028
		c0.02-0.004,0.037-0.011,0.056-0.015c0.048-0.016,0.096-0.035,0.14-0.062c0.011-0.004,0.023-0.006,0.034-0.013
		c0.005-0.004,0.009-0.009,0.013-0.013c0.061-0.037,0.117-0.078,0.168-0.131l55.453-58.192c0.013-0.015,0.023-0.032,0.036-0.048
		c0.02-0.026,0.041-0.047,0.058-0.074c0.015-0.021,0.023-0.043,0.035-0.065c0.016-0.028,0.03-0.055,0.041-0.085
		c0.01-0.024,0.015-0.048,0.023-0.069c0.009-0.03,0.017-0.059,0.022-0.091c0.004-0.026,0.006-0.054,0.008-0.081
		c0.002-0.021,0.006-0.043,0.006-0.065c0,0-0.002-0.015-0.002-0.022c0-0.008,0.002-0.015,0.002-0.021
		c-0.002-0.022-0.007-0.042-0.01-0.061c-0.003-0.03-0.007-0.061-0.014-0.089c-0.006-0.024-0.014-0.048-0.021-0.072
		c-0.011-0.028-0.02-0.056-0.033-0.087c-0.011-0.021-0.023-0.043-0.034-0.063c-0.017-0.028-0.031-0.054-0.05-0.078
		c-0.015-0.02-0.031-0.039-0.048-0.059c-0.02-0.021-0.04-0.043-0.063-0.065c-0.006-0.007-0.013-0.016-0.021-0.024l-19.692-16.706
		C149.571,89,149.551,88.995,149.534,88.985z M149.5,92.16l7.569,13.36h-9.661L149.5,92.16z M137.387,86.771l10.715,3.46
		l-2.284,14.585l-15.397-12.063L137.387,86.771z M130.491,105.521H115.55l12.978-11.141L130.491,105.521z M130.304,94.795
		l13.69,10.726h-11.8L130.304,94.795z M130.348,107.198l-9.166,29.296l-6.842-29.296H130.348z M132.107,107.198h12.626
		l-21.439,28.168L132.107,107.198z M134.932,86.667l-5.98,5.135l-11.677-5.135H134.932z M127.54,93.014l-14.257,12.24l-14.256-12.24
		l14.256-6.269L127.54,93.014z M94.373,105.521H82.572l13.691-10.726L94.373,105.521z M98.04,94.378l12.979,11.143H96.076
		L98.04,94.378z M94.46,107.198l8.813,28.168l-21.44-28.168H94.46z M96.219,107.198h16.008l-6.841,29.296L96.219,107.198z
		 M109.292,86.667l-11.677,5.135l-5.981-5.135H109.292z M89.179,86.771l6.967,5.982l-15.398,12.063l-2.284-14.585L89.179,86.771z
		 M77.069,92.16l2.092,13.36h-9.663L77.069,92.16z M74.468,93.344l-6.897,12.177h-7.453L74.468,93.344z M59.79,107.198h7.826
		l20.343,29.561L59.79,107.198z M69.655,107.198h9.905l11.883,31.664L69.655,107.198z M95.361,144.526l-12.428-33.112l21.812,28.655
		l6.663,21.298L95.361,144.526z M113.283,161.74l-6.912-22.093l6.912-29.6l6.913,29.598L113.283,161.74z M115.159,161.367
		l6.664-21.298l21.811-28.655l-12.427,33.11L115.159,161.367z M147.008,107.198h9.905l-21.788,31.664L147.008,107.198z
		 M138.609,136.759l20.341-29.561h7.827L138.609,136.759z M166.451,105.521h-7.453l-6.898-12.177L166.451,105.521z"/>
</g>
</svg>
