<?xml version="1.0" encoding="UTF-8" standalone="no"?>
<!-- Created with Inkscape (http://www.inkscape.org/) -->

<svg
   xmlns:dc="http://purl.org/dc/elements/1.1/"
   xmlns:cc="http://creativecommons.org/ns#"
   xmlns:rdf="http://www.w3.org/1999/02/22-rdf-syntax-ns#"
   xmlns:svg="http://www.w3.org/2000/svg"
   xmlns="http://www.w3.org/2000/svg"
   xmlns:sodipodi="http://sodipodi.sourceforge.net/DTD/sodipodi-0.dtd"
   xmlns:inkscape="http://www.inkscape.org/namespaces/inkscape"
   id="svg3336"
   version="1.1"
   inkscape:version="0.91 r13725"
   width="137.8125"
   height="138.75"
   viewBox="0 0 137.8125 138.75"
   sodipodi:docname="RBR-alt.svg">
  <metadata
     id="metadata3342">
    <rdf:RDF>
      <cc:Work
         rdf:about="">
        <dc:format>image/svg+xml</dc:format>
        <dc:type
           rdf:resource="http://purl.org/dc/dcmitype/StillImage" />
        <dc:title></dc:title>
      </cc:Work>
    </rdf:RDF>
  </metadata>
  <defs
     id="defs3340" />
  <sodipodi:namedview
     pagecolor="#ffffff"
     bordercolor="#666666"
     borderopacity="1"
     objecttolerance="10"
     gridtolerance="10"
     guidetolerance="10"
     inkscape:pageopacity="0"
     inkscape:pageshadow="2"
     inkscape:window-width="1680"
     inkscape:window-height="873"
     id="namedview3338"
     showgrid="false"
     inkscape:zoom="4.6846847"
     inkscape:cx="73.734829"
     inkscape:cy="66.51777"
     inkscape:window-x="-9"
     inkscape:window-y="-9"
     inkscape:window-maximized="1"
     inkscape:current-layer="g3346" />
  <g
     id="g3346"
     transform="translate(-2.3076923e-7,-4.4826925)"
     style="fill:none;fill-opacity:1;stroke:#000000;stroke-opacity:1">
    <path
       style="fill-opacity:1;fill:none;stroke:#000000;stroke-opacity:1"
       d="M 59.575614,131.68358 C 39.232967,126.10296 21.325152,107.23652 17.558693,87.417466 16.862208,83.752571 15.982808,81.5625 15.207695,81.5625 12.4206,81.5625 8.2109698,78.43682 6.9573959,75.436595 5.0841142,70.953201 5.2447037,62.341696 7.265625,58.90802 c 2.0700466,-3.517142 7.217606,-6.761842 9.698215,-6.113148 1.419638,0.371243 2.121115,-0.128197 2.822833,-2.009809 0.513568,-1.377097 1.776181,-4.137484 2.805809,-6.134192 l 1.872049,-3.630378 -1.882339,-1.318442 c -2.448755,-1.715175 -3.436052,-7.069267 -1.960476,-10.631622 1.460146,-3.525105 8.510943,-10.067018 11.717515,-10.871816 3.291551,-0.826127 8.781147,0.14348 10.713568,1.892296 1.412687,1.278464 2.271157,1.14462 8.555598,-1.333909 3.841945,-1.515228 7.989116,-2.769482 9.215938,-2.78723 1.396892,-0.02021 3.674463,-1.569691 6.09375,-4.145713 4.291282,-4.5692972 8.780902,-5.9418308 15.643468,-4.7824076 4.43571,0.7494084 10.040824,5.7515286 10.832712,9.6673356 0.383532,1.896512 1.691644,3.071625 5.353519,4.809199 2.818916,1.337588 7.972716,5.357166 12.320916,9.609375 5.22502,5.109677 8.16823,7.309941 9.77823,7.309941 2.89611,0 9.87039,7.264076 11.38736,11.860534 1.28538,3.894736 0.54647,8.684139 -1.80757,11.716234 -1.32509,1.706744 -1.83165,4.541619 -2.24363,12.555669 -1.44078,28.027643 -18.42486,50.655063 -42.913099,57.171933 -6.307311,1.67851 -19.472212,1.64865 -25.694377,-0.0583 z M 85.3125,106.35431 c 6.892543,-2.72035 13.978566,-7.884823 17.81088,-12.981014 3.72499,-4.953474 7.50162,-14.527675 7.50162,-19.0175 0,-2.481409 -0.21396,-2.367962 -5.69055,3.017301 -3.12981,3.07761 -7.999772,8.647246 -10.822144,12.376971 -2.964365,3.91737 -6.797033,7.747176 -9.07507,9.068301 C 73.549404,105.48062 57.298842,102.68232 49.862052,92.761311 46.751558,88.611775 35.625,81.288412 35.625,83.39066 c 0,2.156471 3.999534,8.796946 7.747051,12.862521 4.550347,4.936549 9.99181,8.302399 17.37579,10.747919 6.549967,2.1693 18.207244,1.86237 24.564659,-0.64679 z M 43.510412,68.36557 c 3.155802,-3.750457 3.060633,-6.061984 -0.479403,-11.644041 l -2.90649,-4.58306 -1.760283,2.29014 c -2.653606,3.452362 -5.26876,12.386586 -4.718009,16.118266 0.05707,0.386719 1.753771,0.703125 3.770435,0.703125 2.943485,0 4.145358,-0.568897 6.09375,-2.88443 z m 60.677698,-7.576465 c 1.99341,-0.597242 3.62439,-1.509527 3.62439,-2.027299 0,-1.932665 -5.98452,-10.173436 -9.693684,-13.34834 C 93.719142,41.647508 84.898925,37.06554 83.5975,37.869864 c -0.481952,0.297863 -1.169514,3.27978 -1.527916,6.626483 -0.569528,5.31818 -0.382622,6.563562 1.483313,9.883546 1.174222,2.089248 3.421591,4.623232 4.994151,5.631076 3.292082,2.109873 10.070555,2.4471 15.641062,0.778136 z M 66.983752,50.101162 c 1.641048,-1.075256 2.96432,-3.450469 4.260774,-7.647899 1.03426,-3.348546 1.880474,-6.313359 1.880474,-6.588473 0,-0.275113 -2.506521,-0.272923 -5.570046,0.0049 -5.188988,0.470521 -13.525248,3.545925 -17.880475,6.596444 -1.824841,1.278168 -1.767314,1.439963 2.056581,5.784136 3.869302,4.39576 4.007359,4.460489 8.403163,3.939871 2.458076,-0.291123 5.540364,-1.231149 6.849529,-2.088946 z"
       id="path3350"
       inkscape:connector-curvature="0" />
  </g>
</svg>
