<svg xmlns="http://www.w3.org/2000/svg" width="137.813" height="138.75" viewBox="0 0 137.8125 138.75"><path d="M59.576 127.2c-20.343-5.58-38.25-24.446-42.017-44.265-.697-3.665-1.576-5.855-2.351-5.855-2.787 0-6.997-3.126-8.25-6.126-1.874-4.483-1.713-13.095.308-16.529 2.07-3.517 7.217-6.762 9.698-6.113 1.42.371 2.121-.128 2.823-2.01.513-1.377 1.776-4.137 2.805-6.134l1.873-3.63-1.883-1.319c-2.449-1.715-3.436-7.069-1.96-10.631 1.46-3.525 8.51-10.067 11.717-10.872 3.292-.826 8.781.143 10.714 1.892 1.412 1.279 2.271 1.145 8.555-1.334 3.842-1.515 7.99-2.77 9.216-2.787 1.397-.02 3.675-1.57 6.094-4.146C71.21 2.772 75.7 1.4 82.562 2.56c4.435.75 10.04 5.751 10.832 9.667.384 1.897 1.692 3.072 5.354 4.81 2.819 1.337 7.972 5.357 12.32 9.609 5.226 5.11 8.169 7.31 9.779 7.31 2.896 0 9.87 7.264 11.387 11.86 1.286 3.895.547 8.684-1.807 11.717-1.325 1.706-1.832 4.541-2.244 12.555-1.44 28.028-18.425 50.655-42.913 57.172-6.307 1.679-19.472 1.649-25.694-.058zm25.736-25.328c6.893-2.72 13.98-7.885 17.811-12.981 3.725-4.954 7.502-14.528 7.502-19.018 0-2.481-.214-2.368-5.69 3.017-3.13 3.078-8 8.648-10.823 12.377-2.964 3.918-6.797 7.748-9.075 9.069C73.55 100.998 57.3 98.2 49.862 88.279c-3.11-4.15-14.237-11.473-14.237-9.371 0 2.156 4 8.797 7.747 12.862 4.55 4.937 9.992 8.303 17.376 10.748 6.55 2.17 18.207 1.863 24.564-.646zM43.51 63.882c3.156-3.75 3.061-6.061-.479-11.643l-2.906-4.583-1.76 2.29c-2.654 3.452-5.27 12.387-4.719 16.118.057.387 1.754.703 3.77.703 2.944 0 4.146-.569 6.094-2.884zm60.678-7.576c1.994-.597 3.624-1.51 3.624-2.027 0-1.933-5.984-10.173-9.693-13.348-4.4-3.766-13.22-8.348-14.522-7.544-.481.298-1.169 3.28-1.527 6.627-.57 5.318-.383 6.563 1.483 9.883 1.174 2.09 3.421 4.623 4.994 5.631 3.292 2.11 10.07 2.447 15.641.778zM66.984 45.618c1.64-1.075 2.964-3.45 4.26-7.647 1.035-3.349 1.881-6.314 1.881-6.589 0-.275-2.507-.273-5.57.005-5.189.47-13.525 3.546-17.88 6.596-1.825 1.279-1.768 1.44 2.056 5.785 3.87 4.395 4.007 4.46 8.403 3.94 2.458-.292 5.54-1.232 6.85-2.09z" fill="none" stroke="#000"/></svg>