<svg xmlns="http://www.w3.org/2000/svg" width="137.813" height="138.75" viewBox="0 0 137.8125 138.75"><g fill="#231f20"><path d="M59.576 127.2c-20.343-5.58-38.25-24.446-42.017-44.265-.697-3.665-1.576-5.855-2.351-5.855-2.787 0-6.997-3.126-8.25-6.126-1.874-4.483-1.713-13.095.308-16.529 2.07-3.517 7.217-6.762 9.698-6.113 1.42.371 2.121-.128 2.823-2.01.513-1.377 1.776-4.137 2.805-6.134l1.873-3.63-1.883-1.319c-2.449-1.715-3.436-7.069-1.96-10.631 1.46-3.525 8.51-10.067 11.717-10.872 3.292-.826 8.781.143 10.714 1.892 1.412 1.279 2.271 1.145 8.555-1.334 3.842-1.515 7.99-2.77 9.216-2.787 1.397-.02 3.675-1.57 6.094-4.146C71.21 2.772 75.7 1.4 82.562 2.56c4.435.75 10.04 5.751 10.832 9.667.384 1.897 1.692 3.072 5.354 4.81 2.819 1.337 7.972 5.357 12.32 9.609 5.226 5.11 8.169 7.31 9.779 7.31 2.896 0 9.87 7.264 11.387 11.86 1.286 3.895.547 8.684-1.807 11.717-1.325 1.706-1.832 4.541-2.244 12.555-1.44 28.028-18.425 50.655-42.913 57.172-6.307 1.679-19.472 1.649-25.694-.058zm25.736-25.328c6.893-2.72 13.98-7.885 17.811-12.981 3.725-4.954 7.502-14.528 7.502-19.018 0-2.481-.214-2.368-5.69 3.017-3.13 3.078-8 8.648-10.823 12.377-2.964 3.918-6.797 7.748-9.075 9.069C73.55 100.998 57.3 98.2 49.862 88.279c-3.11-4.15-14.237-11.473-14.237-9.371 0 2.156 4 8.797 7.747 12.862 4.55 4.937 9.992 8.303 17.376 10.748 6.55 2.17 18.207 1.863 24.564-.646zM43.51 63.882c3.156-3.75 3.061-6.061-.479-11.643l-2.906-4.583-1.76 2.29c-2.654 3.452-5.27 12.387-4.719 16.118.057.387 1.754.703 3.77.703 2.944 0 4.146-.569 6.094-2.884zm60.678-7.576c1.994-.597 3.624-1.51 3.624-2.027 0-1.933-5.984-10.173-9.693-13.348-4.4-3.766-13.22-8.348-14.522-7.544-.481.298-1.169 3.28-1.527 6.627-.57 5.318-.383 6.563 1.483 9.883 1.174 2.09 3.421 4.623 4.994 5.631 3.292 2.11 10.07 2.447 15.641.778zM66.984 45.618c1.64-1.075 2.964-3.45 4.26-7.647 1.035-3.349 1.881-6.314 1.881-6.589 0-.275-2.507-.273-5.57.005-5.189.47-13.525 3.546-17.88 6.596-1.825 1.279-1.768 1.44 2.056 5.785 3.87 4.395 4.007 4.46 8.403 3.94 2.458-.292 5.54-1.232 6.85-2.09z"/><path d="M62.285 127.68c-20.673-4.102-39.082-22.314-44.25-43.775-1.435-5.963-1.921-6.833-4.09-7.314C6.324 74.9 2.674 60.971 8.018 53.964c2.78-3.645 7.16-6.18 9.276-5.368 1.1.423 1.98-.648 3.466-4.225 1.327-3.194 2.541-4.791 3.64-4.791 3.033 0 2.762-2.478-.438-4.004-2.425-1.156-3.184-2.194-3.634-4.969-.313-1.929-.143-4.18.378-5.001.754-1.19.832-1.073.382.579-.689 2.525.96 5.895 2.885 5.895 1.1 0 1.195-.395.436-1.814-.534-.997-.97-3.131-.97-4.742 0-2.036-.343-2.718-1.122-2.236-2.354 1.454 3.214-5.298 6.01-7.289 3.727-2.654 10.347-2.806 14.533-.334 1.637.967 2.807 2.033 2.6 2.368-.207.335.198.61.9.61.7 0 1.075-.522.83-1.159-.502-1.31 7.773-4.714 13.8-5.677 2.871-.46 4.108-1.238 5.14-3.234C67.657 5.62 70.94 3.01 73.1 3.03c.815.008.422.522-.912 1.194-1.559.785-2.443 2.113-2.642 3.97l-.3 2.791 3.143-3.281C74.116 5.9 75.386 4.107 75.21 3.72c-.176-.386 2.05-.703 4.946-.703 3.743 0 5.074.314 4.598 1.083-.429.694-.255.827.483.37 2.45-1.514 9.133 7.324 8.21 10.857-.291 1.11.18 2.123 1.257 2.7 1.316.703 1.794.569 2.025-.571.435-2.15 10.576 4.811 16.58 11.38 2.573 2.816 5.363 5.119 6.2 5.119 2.818 0 6.691 2.657 9.246 6.344 2.634 3.8 4.96 10.068 3.372 9.087-.482-.298-.877-1.22-.877-2.049s-.268-1.24-.595-.912c-.327.327-.078 1.843.554 3.368 1.409 3.401.674 6.039-2.089 7.494-1.742.918-1.778 1.018-.214.601 1.67-.445 1.634-.295-.332 1.372-1.214 1.03-2.585 1.639-3.047 1.353-.462-.285-.84.399-.84 1.52 0 1.612.415 1.932 1.97 1.525 1.93-.504 1.956-.342 1.295 8.094-1.813 23.157-13.63 41.827-32.503 51.354-9.746 4.92-22.536 6.684-33.164 4.575zm26.05-26.902c12.196-5.71 21.02-17.125 22.053-28.528l.51-5.615-6.532 6.583c-3.592 3.62-8.399 9.148-10.682 12.284-6.56 9.008-12.671 12.21-23.277 12.194-10.115-.015-17.803-4.51-22.544-13.18-1.49-2.724-2.909-4.37-3.267-3.792-.425.69-2.152.255-5.27-1.326-5.644-2.86-5.89-1.944-1.459 5.416 1.75 2.905 3.015 5.517 2.813 5.805-.202.288-.132.358.155.157.288-.202 1.87.893 3.516 2.433 8.7 8.14 16.959 11.187 29.243 10.792 7.165-.23 9.388-.717 14.74-3.223zM19.686 76.97c0-1.031-.421-1.614-.937-1.295-.516.318-.938 1.423-.938 2.454 0 1.031.422 1.614.938 1.296.516-.32.937-1.424.937-2.455zm4.724-4.774c1.075-2.033 1.8-5.149 1.746-7.5l-.092-4.021-1.21 3.828c-.664 2.106-1.888 5.144-2.72 6.75-1.725 3.337-2.164 8.235-.522 5.828.528-.774 1.787-2.972 2.798-4.885zm-10.416.432c-.037-.387-1.514-1.905-3.281-3.374-2.553-2.121-3.214-2.35-3.214-1.11 0 2.876 1.894 5.187 4.252 5.187 1.27 0 2.28-.317 2.243-.703zm28.904-7.963c2.078-1.952 2.305-1.986 3.154-.469.503.9 1.316 1.635 1.806 1.635 1.58 0 .956-2.786-1.922-8.586-3.168-6.386-3.283-6.796-1.64-5.85.68.391.844.316.39-.18-.43-.469-1.238-.853-1.796-.853-.559 0-1.211-.586-1.45-1.302-.261-.784-.017-1.045.614-.655.693.429.835.092.418-.994-.39-1.018-.773-1.212-1.006-.511-.208.621-.737.907-1.177.636-1.121-.693-6.328 10.544-7.088 15.296l-.63 3.936h4.045c2.9 0 4.677-.595 6.282-2.103zm79.771-4.551c-1.75-1.087-2.203.739-.65 2.613 1.155 1.393 1.289 1.38 1.588-.153.18-.921-.242-2.028-.938-2.46zM7.21 57.627c-.236-.903-.429-.164-.429 1.64 0 1.805.193 2.543.429 1.64.236-.901.236-2.378 0-3.28zm94.44-.381c2.968-.597 5.6-1.613 5.848-2.26 1.313-3.42-8.495-14.782-16.398-18.994-8.081-4.308-8.324-4.2-9.093 4.01-.578 6.166-.422 7.36 1.337 10.206 2.523 4.083 3.914 5.22 8.289 6.782 4.378 1.562 3.609 1.542 10.016.256zM69.127 43.799c1.514-3.61 3.032-7.985 3.374-9.722l.621-3.16-5.39.445c-5.82.48-14.338 3.435-17.948 6.226l-2.246 1.737 4.006 4.346c3.712 4.027 4.342 4.346 8.574 4.346 2.513 0 4.519.317 4.457.703-.06.387-.06 1.315 0 2.063.183 2.229 1.598.056 4.552-6.984zm.76 4.131c.826-1.595 1.334-3.066 1.13-3.27-.203-.203-1.071 1.102-1.929 2.9-1.928 4.043-1.26 4.353.8.37zm3.353-9.538c-.926-.919-1.033-.811-.524.525.352.925.876 1.445 1.164 1.156.29-.288.001-1.045-.64-1.68zM36.63 36.72c4.25-2.15 9.762-8.835 11.009-13.349 1.3-4.708-.37-4.498-2.286.288-1.88 4.698-8.897 10.993-13.141 11.79-1.78.334-3.642 1.425-4.195 2.459-.925 1.728-.776 1.81 2.135 1.182 1.721-.371 4.636-1.438 6.478-2.37zm88.023.475c-1.62-1.952-4.356-2.527-6.519-1.37-2.88 1.543-1.48 2.662 3.33 2.662 3.513 0 4.073-.227 3.189-1.292zm-49.887-2.87c0-1.725-.238-2.07-.806-1.172-1.05 1.655-1.057 3.615-.015 3.615.451 0 .82-1.1.82-2.444zm17.133-12.1c1.533-.793 2.788-1.828 2.788-2.3 0-1.94-2.165-1.933-6.197.018-5.052 2.446-11.523 2.102-17.321-.92-2.647-1.38-3.448-1.52-3.072-.54.28.73 2.686 2.432 5.347 3.784 4.128 2.096 5.632 2.38 10.251 1.928 2.978-.29 6.67-1.177 8.204-1.97zm-.493-6.082c.734-1.186-.508-1.186-2.344 0-1.211.783-1.187.911.18.923.871.008 1.846-.407 2.164-.923z"/></g></svg>