<?xml version="1.0" encoding="UTF-8" standalone="no"?>
<!-- Created with Inkscape (http://www.inkscape.org/) -->

<svg
   xmlns:dc="http://purl.org/dc/elements/1.1/"
   xmlns:cc="http://creativecommons.org/ns#"
   xmlns:rdf="http://www.w3.org/1999/02/22-rdf-syntax-ns#"
   xmlns:svg="http://www.w3.org/2000/svg"
   xmlns="http://www.w3.org/2000/svg"
   xmlns:sodipodi="http://sodipodi.sourceforge.net/DTD/sodipodi-0.dtd"
   xmlns:inkscape="http://www.inkscape.org/namespaces/inkscape"
   id="svg3336"
   version="1.1"
   inkscape:version="0.91 r13725"
   width="137.8125"
   height="138.75"
   viewBox="0 0 137.8125 138.75"
   sodipodi:docname="RBR.svg">
  <metadata
     id="metadata3342">
    <rdf:RDF>
      <cc:Work
         rdf:about="">
        <dc:format>image/svg+xml</dc:format>
        <dc:type
           rdf:resource="http://purl.org/dc/dcmitype/StillImage" />
        <dc:title></dc:title>
      </cc:Work>
    </rdf:RDF>
  </metadata>
  <defs
     id="defs3340" />
  <sodipodi:namedview
     pagecolor="#ffffff"
     bordercolor="#666666"
     borderopacity="1"
     objecttolerance="10"
     gridtolerance="10"
     guidetolerance="10"
     inkscape:pageopacity="0"
     inkscape:pageshadow="2"
     inkscape:window-width="1680"
     inkscape:window-height="873"
     id="namedview3338"
     showgrid="false"
     inkscape:zoom="4.6846847"
     inkscape:cx="36.673558"
     inkscape:cy="77.913462"
     inkscape:window-x="-9"
     inkscape:window-y="-9"
     inkscape:window-maximized="1"
     inkscape:current-layer="svg3336" />
  <g
     id="g3346"
     transform="translate(-2.3076923e-7,-4.4826925)"
     style="fill:#231f20;fill-opacity:1">
    <path
       style="fill-opacity:1;fill:#231f20"
       d="M 59.575614,131.68358 C 39.232967,126.10296 21.325152,107.23652 17.558693,87.417466 16.862208,83.752571 15.982808,81.5625 15.207695,81.5625 12.4206,81.5625 8.2109698,78.43682 6.9573959,75.436595 5.0841142,70.953201 5.2447037,62.341696 7.265625,58.90802 c 2.0700466,-3.517142 7.217606,-6.761842 9.698215,-6.113148 1.419638,0.371243 2.121115,-0.128197 2.822833,-2.009809 0.513568,-1.377097 1.776181,-4.137484 2.805809,-6.134192 l 1.872049,-3.630378 -1.882339,-1.318442 c -2.448755,-1.715175 -3.436052,-7.069267 -1.960476,-10.631622 1.460146,-3.525105 8.510943,-10.067018 11.717515,-10.871816 3.291551,-0.826127 8.781147,0.14348 10.713568,1.892296 1.412687,1.278464 2.271157,1.14462 8.555598,-1.333909 3.841945,-1.515228 7.989116,-2.769482 9.215938,-2.78723 1.396892,-0.02021 3.674463,-1.569691 6.09375,-4.145713 4.291282,-4.5692972 8.780902,-5.9418308 15.643468,-4.7824076 4.43571,0.7494084 10.040824,5.7515286 10.832712,9.6673356 0.383532,1.896512 1.691644,3.071625 5.353519,4.809199 2.818916,1.337588 7.972716,5.357166 12.320916,9.609375 5.22502,5.109677 8.16823,7.309941 9.77823,7.309941 2.89611,0 9.87039,7.264076 11.38736,11.860534 1.28538,3.894736 0.54647,8.684139 -1.80757,11.716234 -1.32509,1.706744 -1.83165,4.541619 -2.24363,12.555669 -1.44078,28.027643 -18.42486,50.655063 -42.913099,57.171933 -6.307311,1.67851 -19.472212,1.64865 -25.694377,-0.0583 z M 85.3125,106.35431 c 6.892543,-2.72035 13.978566,-7.884823 17.81088,-12.981014 3.72499,-4.953474 7.50162,-14.527675 7.50162,-19.0175 0,-2.481409 -0.21396,-2.367962 -5.69055,3.017301 -3.12981,3.07761 -7.999772,8.647246 -10.822144,12.376971 -2.964365,3.91737 -6.797033,7.747176 -9.07507,9.068301 C 73.549404,105.48062 57.298842,102.68232 49.862052,92.761311 46.751558,88.611775 35.625,81.288412 35.625,83.39066 c 0,2.156471 3.999534,8.796946 7.747051,12.862521 4.550347,4.936549 9.99181,8.302399 17.37579,10.747919 6.549967,2.1693 18.207244,1.86237 24.564659,-0.64679 z M 43.510412,68.36557 c 3.155802,-3.750457 3.060633,-6.061984 -0.479403,-11.644041 l -2.90649,-4.58306 -1.760283,2.29014 c -2.653606,3.452362 -5.26876,12.386586 -4.718009,16.118266 0.05707,0.386719 1.753771,0.703125 3.770435,0.703125 2.943485,0 4.145358,-0.568897 6.09375,-2.88443 z m 60.677698,-7.576465 c 1.99341,-0.597242 3.62439,-1.509527 3.62439,-2.027299 0,-1.932665 -5.98452,-10.173436 -9.693684,-13.34834 C 93.719142,41.647508 84.898925,37.06554 83.5975,37.869864 c -0.481952,0.297863 -1.169514,3.27978 -1.527916,6.626483 -0.569528,5.31818 -0.382622,6.563562 1.483313,9.883546 1.174222,2.089248 3.421591,4.623232 4.994151,5.631076 3.292082,2.109873 10.070555,2.4471 15.641062,0.778136 z M 66.983752,50.101162 c 1.641048,-1.075256 2.96432,-3.450469 4.260774,-7.647899 1.03426,-3.348546 1.880474,-6.313359 1.880474,-6.588473 0,-0.275113 -2.506521,-0.272923 -5.570046,0.0049 -5.188988,0.470521 -13.525248,3.545925 -17.880475,6.596444 -1.824841,1.278168 -1.767314,1.439963 2.056581,5.784136 3.869302,4.39576 4.007359,4.460489 8.403163,3.939871 2.458076,-0.291123 5.540364,-1.231149 6.849529,-2.088946 z"
       id="path3350"
       inkscape:connector-curvature="0" />
    <path
       style="fill-opacity:1;fill:#231f20"
       d="M 62.284728,132.1636 C 41.611842,128.06075 23.203349,109.84912 18.035916,88.388009 16.599942,82.424201 16.113822,81.554872 13.945858,81.073753 6.3229639,79.382066 2.673321,65.453083 8.0172125,58.44688 c 2.7805785,-3.645527 7.1599955,-6.179785 9.2760095,-5.367794 1.100711,0.422382 1.979249,-0.648754 3.46563,-4.225384 1.32726,-3.193744 2.541169,-4.791202 3.640838,-4.791202 3.032632,0 2.760928,-2.478046 -0.439014,-4.003992 -2.424417,-1.156124 -3.183303,-2.193831 -3.633585,-4.968594 -0.313033,-1.928997 -0.14298,-4.179768 0.377894,-5.001716 0.754386,-1.19043 0.832014,-1.072538 0.381593,0.579515 -0.688398,2.524907 0.96124,5.894787 2.885642,5.894787 1.099807,0 1.194767,-0.395159 0.435765,-1.813368 C 23.874218,33.75178 23.4375,31.617508 23.4375,30.006304 c 0,-2.035208 -0.342466,-2.717805 -1.121875,-2.236104 -2.353318,1.45443 3.214834,-5.297724 6.010202,-7.288201 3.727244,-2.654032 10.347654,-2.806197 14.532712,-0.334022 1.637348,0.967205 2.807558,2.03271 2.600468,2.367789 -0.20709,0.335078 0.197505,0.609234 0.8991,0.609234 0.701596,0 1.075616,-0.521227 0.831154,-1.158282 -0.502346,-1.309093 7.772786,-4.713696 13.799245,-5.677366 2.871757,-0.459212 4.108711,-1.23727 5.141191,-3.233867 1.526399,-2.951728 4.80987,-5.5625073 6.969527,-5.5416646 0.815032,0.00787 0.422211,0.5221328 -0.911724,1.193598 -1.559408,0.7849613 -2.443875,2.1137196 -2.642942,3.9705546 L 69.245366,15.46875 72.387849,12.1875 C 74.116214,10.382813 75.386109,8.5898438 75.209837,8.203125 75.033565,7.8164062 77.259451,7.5 80.15625,7.5 c 3.742458,0 5.073293,0.313275 4.597976,1.0823517 -0.428834,0.6938686 -0.255537,0.8268605 0.482823,0.3705295 2.449764,-1.5140374 9.133145,7.3242328 8.209465,10.8563978 -0.290465,1.110741 0.18134,2.123616 1.257467,2.699542 1.315819,0.704207 1.793756,0.569606 2.024813,-0.570248 0.435647,-2.14906 10.576536,4.811587 16.580186,11.38053 2.57285,2.815119 5.36276,5.118397 6.19978,5.118397 2.81826,0 6.69136,2.657547 9.24641,6.344488 2.63373,3.800479 4.95958,10.068159 3.37208,9.087023 -0.48249,-0.298193 -0.87725,-1.220395 -0.87725,-2.04934 0,-0.828944 -0.26772,-1.239448 -0.59494,-0.912231 -0.32721,0.327216 -0.078,1.842991 0.55386,3.368388 1.40885,3.401276 0.67376,6.038458 -2.08892,7.494109 -1.7423,0.918011 -1.77775,1.017692 -0.21375,0.600967 1.67028,-0.445043 1.63402,-0.295218 -0.33203,1.372228 -1.21386,1.0295 -2.58495,1.638244 -3.04687,1.352765 -0.46192,-0.28548 -0.83985,0.398798 -0.83985,1.520616 0,1.610746 0.41418,1.931362 1.96954,1.524625 1.93014,-0.504743 1.95605,-0.342853 1.29544,8.093784 -1.81327,23.157187 -13.62962,41.826428 -32.503561,51.353958 -9.746225,4.91988 -22.535796,6.6841 -33.164191,4.57472 z M 88.334371,105.26078 C 100.53082,99.549919 109.35424,88.136134 110.3883,76.732261 l 0.50909,-5.614343 -6.531,6.583006 c -3.59205,3.620654 -8.399034,9.148218 -10.682183,12.283477 -6.559763,9.007958 -12.671497,12.209629 -23.277229,12.193939 -10.115065,-0.015 -17.802691,-4.509365 -22.544253,-13.179988 -1.489377,-2.723539 -2.908333,-4.370509 -3.266352,-3.791224 -0.425613,0.688657 -2.152533,0.254221 -5.270939,-1.325995 -5.643667,-2.859863 -5.890191,-1.944159 -1.458099,5.416059 1.748909,2.904351 3.014534,5.516252 2.8125,5.804224 -0.202034,0.287971 -0.132079,0.35864 0.155457,0.15704 0.287536,-0.2016 1.869567,0.893456 3.515625,2.43345 8.699695,8.139134 16.958763,11.187054 29.242833,10.791764 7.16522,-0.23057 9.38794,-0.71655 14.740621,-3.22289 z M 19.6875,81.451843 c 0,-1.03125 -0.421875,-1.614267 -0.9375,-1.295593 -0.515625,0.318674 -0.9375,1.423157 -0.9375,2.454407 0,1.03125 0.421875,1.614267 0.9375,1.295593 0.515625,-0.318674 0.9375,-1.423157 0.9375,-2.454407 z m 4.723762,-4.77387 c 1.074787,-2.033136 1.800227,-5.149206 1.746048,-7.5 l -0.09269,-4.021723 -1.208956,3.828647 c -0.664926,2.105756 -1.888841,5.1434 -2.719811,6.750319 -1.725436,3.336625 -2.164762,8.234082 -0.522737,5.827284 0.527674,-0.773438 1.786839,-2.971475 2.798144,-4.884527 z M 13.994815,77.109375 C 13.957587,76.722656 12.481026,75.204543 10.713565,73.735789 8.1608635,71.614503 7.5,71.386184 7.5,72.625547 c 0,2.876591 1.8937988,5.186953 4.251735,5.186953 1.270921,0 2.280307,-0.316406 2.24308,-0.703125 z m 28.904634,-7.962848 c 2.077618,-1.951821 2.305002,-1.985617 3.153883,-0.46875 0.50316,0.899098 1.315749,1.634723 1.805752,1.634723 1.579792,0 0.956338,-2.785806 -1.921584,-8.586292 -3.168404,-6.385957 -3.283185,-6.795232 -1.640625,-5.849982 0.680855,0.391814 0.844528,0.316793 0.390625,-0.179046 -0.429688,-0.469387 -1.238282,-0.85343 -1.796875,-0.85343 -0.558593,0 -1.210981,-0.586067 -1.449749,-1.302371 -0.261304,-0.783913 -0.01677,-1.044435 0.614262,-0.654433 0.693115,0.428368 0.834873,0.09154 0.418323,-0.993978 -0.390771,-1.018332 -0.773156,-1.212633 -1.006834,-0.5116 -0.207224,0.621673 -0.736796,0.907807 -1.176827,0.635853 -1.121121,-0.692892 -6.327555,10.544037 -7.087578,15.296964 L 32.57286,71.25 l 4.043772,0 c 2.899898,0 4.677137,-0.595016 6.282817,-2.103473 z m 79.770921,-4.551021 c -1.74944,-1.086953 -2.20331,0.738846 -0.64963,2.613258 1.15469,1.39305 1.28793,1.380158 1.58713,-0.153558 0.17964,-0.920854 -0.24224,-2.027719 -0.9375,-2.4597 z M 7.2087427,62.109375 C 6.9729356,61.207031 6.7800025,61.945312 6.7800025,63.75 c 0,1.804687 0.1929331,2.542969 0.4287402,1.640625 0.2358071,-0.902344 0.2358071,-2.378906 0,-3.28125 z M 101.64808,61.728367 c 2.96907,-0.596274 5.60121,-1.612884 5.8492,-2.259134 1.31287,-3.421296 -8.49533,-14.782784 -16.397956,-18.994841 -8.081798,-4.307554 -8.324447,-4.200567 -9.093797,4.009534 -0.577862,6.16665 -0.421334,7.36111 1.337589,10.207108 2.522922,4.082172 3.914307,5.22056 8.288625,6.781486 4.378103,1.562277 3.608968,1.542631 10.016339,0.255847 z M 69.127641,48.28125 c 1.514071,-3.609375 3.032457,-7.984269 3.374192,-9.721987 l 0.621337,-3.159489 -5.38971,0.444669 c -5.821276,0.480275 -14.338726,3.43512 -17.948216,6.226536 l -2.246007,1.736959 4.006032,4.346031 C 55.25722,52.180961 55.886641,52.5 60.1194,52.5 c 2.512455,0 4.518142,0.316406 4.45708,0.703125 -0.06106,0.386719 -0.06106,1.314844 0,2.0625 0.182037,2.228935 1.597626,0.05652 4.551161,-6.984375 z m 0.761161,4.131628 c 0.8247,-1.594792 1.333019,-3.066057 1.129598,-3.269478 -0.20342,-0.20342 -1.071452,1.10141 -1.92896,2.899622 -1.928046,4.043156 -1.260012,4.352246 0.799362,0.369856 z M 73.241332,42.875 c -0.92589,-0.919001 -1.033575,-0.811316 -0.524807,0.524808 0.35206,0.924582 0.876273,1.444894 1.164917,1.156249 0.288645,-0.288644 5.95e-4,-1.045119 -0.64011,-1.681057 z M 36.629647,41.20185 c 4.249727,-2.150415 9.762577,-8.835069 11.008925,-13.34897 1.300074,-4.708479 -0.370436,-4.498367 -2.285338,0.287444 -1.879724,4.697893 -8.897246,10.99382 -13.141297,11.790009 -1.779669,0.333867 -3.641767,1.425359 -4.194896,2.45889 -0.92527,1.728884 -0.776364,1.811382 2.13478,1.182739 1.721186,-0.371681 4.636207,-1.43823 6.477826,-2.370112 z m 88.023143,0.475081 c -1.62044,-1.95251 -4.35544,-2.527036 -6.51864,-1.36933 -2.88104,1.541889 -1.48085,2.661149 3.3291,2.661149 3.51407,0 4.07359,-0.226615 3.18954,-1.291819 z M 74.765625,38.80616 c 0,-1.724693 -0.237169,-2.06954 -0.805957,-1.171875 -1.049059,1.65563 -1.056841,3.615715 -0.01436,3.615715 0.451172,0 0.820313,-1.099728 0.820313,-2.44384 z M 91.898513,26.706592 c 1.533943,-0.793233 2.788987,-1.828386 2.788987,-2.300339 0,-1.939278 -2.165943,-1.932672 -6.197359,0.0189 -5.052272,2.445763 -11.523081,2.101947 -17.321484,-0.92035 -2.646898,-1.379641 -3.44793,-1.520451 -3.07168,-0.53996 0.279941,0.729513 2.685923,2.432085 5.346628,3.783494 4.127941,2.09664 5.631923,2.379603 10.251782,1.928801 2.977776,-0.29057 6.669182,-1.177316 8.203125,-1.970549 z M 91.40625,20.625 c 0.733296,-1.186497 -0.507776,-1.186497 -2.34375,0 -1.211894,0.783187 -1.187149,0.910773 0.179047,0.923144 0.871913,0.0079 1.846029,-0.407519 2.164703,-0.923144 z"
       id="path3348"
       inkscape:connector-curvature="0" />
  </g>
</svg>
