<svg version="1.1" id="Layer_1" xmlns="http://www.w3.org/2000/svg" xmlns:xlink="http://www.w3.org/1999/xlink" x="0px" y="0px"
	 width="226.777px" height="226.777px" viewBox="0 0 226.777 226.777" enable-background="new 0 0 226.777 226.777"
	 xml:space="preserve">
<g>
	<path fill="#231F20" d="M92.96,112.597h23.571c19.892,0,19.892-7.922,19.892-14.29c0-14.297-10.25-14.297-14.626-14.297H20.654
		c-0.345,3.266-0.532,6.568-0.532,9.927c0,25.943,10.501,49.423,27.52,66.419l-0.015,0.008l66.427,66.412l23.536-23.53
		L92.96,112.597z"/>
	<path fill="#231F20" d="M207.983,93.938C207.983,42.053,165.926,0,114.053,0C76.205,0,43.681,22.427,28.802,54.674h92.994
		c30.369,0,43.964,21.916,43.964,43.634c0,20.027-9.892,34.146-27.326,40.247l21.058,42.789l20.981-20.979l-0.008-0.008
		C197.477,143.361,207.983,119.881,207.983,93.938z"/>
</g>
</svg>
