<svg version="1.1" id="Layer_1" xmlns="http://www.w3.org/2000/svg" xmlns:xlink="http://www.w3.org/1999/xlink" x="0px" y="0px"
	 width="226.777px" height="226.777px" viewBox="0 0 226.777 226.777" enable-background="new 0 0 226.777 226.777"
	 xml:space="preserve">
<path fill="#231F20" d="M113.494,0C50.813,0,0,50.813,0,113.494s50.813,113.494,113.494,113.494s113.494-50.813,113.494-113.494
	S176.175,0,113.494,0z M113.494,200.452l-43.556-43.546l0.011-0.006c-11.159-11.145-18.045-26.541-18.045-43.551
	c0-2.204,0.123-4.368,0.349-6.51h66.319c2.87,0,9.591,0,9.591,9.375c0,4.175,0,9.369-13.043,9.369H99.664l29.264,59.439
	L113.494,200.452z M157.046,156.906l-13.758,13.756l-13.807-28.058c11.432-4.001,17.918-13.258,17.918-26.39
	c0-14.241-8.915-28.612-28.828-28.612H57.595c9.755-21.144,31.082-35.849,55.898-35.849c34.014,0,61.591,27.574,61.591,61.596
	c0,17.01-6.89,32.406-18.043,43.551L157.046,156.906z"/>
</svg>
