<svg version="1.1" id="Layer_1" xmlns="http://www.w3.org/2000/svg" xmlns:xlink="http://www.w3.org/1999/xlink" x="0px" y="0px"
	 width="226.777px" height="226.777px" viewBox="0 0 226.777 226.777" enable-background="new 0 0 226.777 226.777"
	 xml:space="preserve">
<path fill="#231F20" d="M113.327,0C50.739,0,0,50.739,0,113.327c0,62.589,50.739,113.328,113.327,113.328
	c62.59,0,113.328-50.738,113.328-113.328C226.655,50.739,175.917,0,113.327,0z M160.56,60.266
	c3.223,6.784,3.535,15.889,0.805,26.474l-32.038-21.937l19.655-9.583C153.814,55.715,157.719,57.548,160.56,60.266z M121.047,92.77
	h38.483c-3.137,8.967-8.13,18.143-14.619,26.93c-0.016,0.021-0.03,0.044-0.046,0.066c-3.212,4.341-6.786,8.59-10.684,12.67
	c-0.072,0.072-0.142,0.144-0.213,0.218L121.047,92.77z M129.253,133.079l-35.69-13.774c4.904-3.346,9.802-7.495,14.359-12.262
	c3.466-3.626,6.57-7.426,9.242-11.273L129.253,133.079z M121.855,88.155c1.538-2.87,2.803-5.719,3.757-8.492
	c1.31-3.807,1.973-7.307,2.015-10.428l27.632,18.92H121.855z M138.656,55.119l-12.687,6.186c-0.622-1.212-1.412-2.297-2.386-3.227
	c-0.848-0.812-1.805-1.484-2.854-2.02C126.215,55.431,132.118,55.199,138.656,55.119z M62.056,104.827
	c2.16-6.277,6.06-13.01,11.227-19.478c1.715-2.025,3.506-4.019,5.375-5.973c2.214-2.318,4.488-4.527,6.802-6.628
	c9.884-8.455,20.359-13.634,28.11-13.634c2.933,0,5.23,0.773,6.826,2.301c3.165,3.023,3.475,9.127,0.853,16.745
	c-2.867,8.323-8.784,17.449-16.664,25.693c-11.622,12.16-25.302,20.02-34.852,20.02c-2.933,0-5.229-0.774-6.826-2.3
	C59.742,118.549,59.432,112.445,62.056,104.827z M56.144,118.425c0.606,2.599,1.798,4.789,3.574,6.486
	c0.15,0.143,0.304,0.282,0.46,0.416l-6.281,9.987C54.177,130.386,54.795,124.616,56.144,118.425z M60.255,160.525
	c-4.065-3.451-6.592-8.343-6.592-14.042c0-0.652,0-1.364,0-2.127l8.426-13.394l11.837,33.173
	C68.572,164.033,63.993,162.823,60.255,160.525z M65.973,128.118c1.17,0.246,2.424,0.372,3.759,0.372
	c4.524,0,9.799-1.496,15.319-4.195l-8.268,34.11L65.973,128.118z M90.134,122.928l38.593,14.896
	c-4.149,3.873-8.448,7.385-12.806,10.491c-0.087,0.051-0.167,0.114-0.247,0.177c-11.959,8.477-24.371,13.888-35.443,15.289
	L90.134,122.928z M94.725,164.873c7.518-2.729,15.257-6.822,22.81-12.073l33.987,8.615C138.84,162.2,112.869,163.8,94.725,164.873z
	 M122.369,149.262c5.233-4.025,10.328-8.594,15.147-13.637c2.948-3.087,5.72-6.271,8.299-9.519l9.825,31.59L122.369,149.262z
	 M159.589,154.843l-10.342-33.251c7.116-9.809,12.447-20.087,15.554-30.074C163.26,111.31,160.683,141.907,159.589,154.843z"/>
</svg>
