<svg version="1.1" id="Layer_1" xmlns="http://www.w3.org/2000/svg" xmlns:xlink="http://www.w3.org/1999/xlink" x="0px" y="0px"
	 width="226.777px" height="226.777px" viewBox="0 0 226.777 226.777" enable-background="new 0 0 226.777 226.777"
	 xml:space="preserve">
<g>
	<path fill="#1D1D1B" d="M139.519,102.232c0-17.341-14.73-21.445-24.054-21.445c-9.324,0-29.369,0-29.369,0v11.934
		c0,0,20.791,0,27.876,0s10.256,4.755,10.256,9.976c0,5.222-2.517,9.603-9.51,9.603c-6.993,0-28.623,0-28.623,0v12.773h24.427
		l14.638,20.793h18.087l-16.782-22.843C126.467,123.023,139.519,119.574,139.519,102.232z"/>
	<path fill="#1D1D1B" d="M113.327,0C50.738,0,0,50.738,0,113.327s50.738,113.327,113.327,113.327s113.326-50.738,113.326-113.327
		S175.916,0,113.327,0z M108.38,37.519c1.638-0.107,3.284-0.179,4.947-0.179c2.516,0,5.001,0.129,7.452,0.368v12.937
		c-2.444-0.288-4.93-0.438-7.452-0.438c-1.666,0-3.313,0.084-4.947,0.211V37.519z M98.125,187.789
		c-34.682-7.043-60.784-37.704-60.784-74.462c0-36.758,26.103-67.419,60.784-74.461v13.197
		c-27.516,6.805-47.918,31.647-47.918,61.265s20.402,54.459,47.918,61.265V187.789z M120.779,188.946
		c-2.451,0.238-4.937,0.367-7.452,0.367c-1.664,0-3.31-0.071-4.947-0.179v-12.899c1.634,0.127,3.282,0.212,4.947,0.212
		c2.522,0,5.008-0.154,7.452-0.44V188.946z M131.037,187.217v-13.29c20.147-5.88,36.124-21.535,42.456-41.486h-13.886
		c-7.511,18.166-25.398,30.954-46.28,30.954c-27.651,0-50.066-22.417-50.066-50.067c0-27.65,22.415-50.067,50.066-50.067
		c18.894,0,35.337,10.47,43.86,25.919h14.465c-7.266-17.529-22.2-31.065-40.615-36.442v-13.3
		c33.42,7.983,58.276,38.026,58.276,73.89C189.313,149.192,164.457,179.234,131.037,187.217z"/>
</g>
</svg>
