<svg version="1.1" id="Layer_1" xmlns="http://www.w3.org/2000/svg" xmlns:xlink="http://www.w3.org/1999/xlink" x="0px" y="0px"
	 width="226.777px" height="226.777px" viewBox="0 0 226.777 226.777" enable-background="new 0 0 226.777 226.777"
	 xml:space="preserve">
<g>
	<path fill="#231F20" d="M64.087,142.545c-11.257,5.503-22.014,8.554-31.237,8.554c-2.723,0-5.279-0.256-7.665-0.761l22.039,61.759
		L64.087,142.545z"/>
	<path fill="#231F20" d="M81.441,132.368l72.773,28.091l-24.651-76.077c-5.451,7.842-11.78,15.592-18.845,22.985
		C101.427,117.088,91.442,125.545,81.441,132.368z"/>
	<path fill="#231F20" d="M150.896,30.275c-0.085,6.363-1.435,13.504-4.106,21.266c-1.948,5.652-4.526,11.461-7.659,17.312h68.109
		L150.896,30.275z"/>
	<path fill="#231F20" d="M194.439,1.699L154.363,21.24l65.326,44.731c5.567-21.584,4.93-40.148-1.64-53.984
		C212.253,6.446,204.293,2.71,194.439,1.699z"/>
	<path fill="#231F20" d="M122.235,9.64c-15.809,0-37.164,10.561-57.318,27.802c-4.718,4.284-9.354,8.789-13.867,13.515
		c-3.811,3.985-7.464,8.052-10.962,12.179C29.554,76.323,21.603,90.05,17.197,102.85c-5.35,15.532-4.718,27.979,1.735,34.145
		c3.256,3.112,7.939,4.69,13.918,4.69c19.471,0,47.363-16.024,71.062-40.822c16.066-16.811,28.131-35.417,33.976-52.389
		c5.349-15.532,4.716-27.978-1.736-34.142C132.895,11.217,128.212,9.64,122.235,9.64z"/>
	<path fill="#231F20" d="M127.027,191.524c8.888-6.334,17.653-13.495,26.111-21.392l-78.69-30.374l-20.194,83.301
		c22.578-2.857,47.884-13.892,72.273-31.175C126.688,191.758,126.85,191.629,127.027,191.524z"/>
	<path fill="#231F20" d="M137.475,78.267l26.353,81.322c0.144-0.149,0.288-0.294,0.433-0.444
		c7.949-8.316,15.234-16.98,21.784-25.835c0.033-0.044,0.062-0.09,0.096-0.133c13.233-17.919,23.412-36.627,29.809-54.91H137.475z"
		/>
	<path fill="#231F20" d="M17.262,156.137l-17.18,27.315c-0.002,1.553,0,3.004,0,4.334c0,11.621,5.153,21.597,13.442,28.632
		c7.622,4.687,16.96,7.151,27.876,7.363L17.262,156.137z"/>
	<path fill="#231F20" d="M130.319,200.666C114.92,211.373,99.14,219.72,83.81,225.284c36.995-2.188,89.952-5.451,115.808-7.052
		L130.319,200.666z"/>
	<path fill="#231F20" d="M187.986,146.239c-5.26,6.624-10.91,13.116-16.923,19.409c-9.827,10.281-20.217,19.597-30.885,27.809
		l67.839,17.195L187.986,146.239z"/>
	<path fill="#231F20" d="M194.981,137.031l21.084,67.801c2.235-26.374,7.49-88.764,10.628-129.121
		C220.361,96.076,209.491,117.032,194.981,137.031z"/>
	<path fill="#231F20" d="M147.518,14.106l25.865-12.612c-13.328,0.164-25.367,0.638-36.552,1.915
		c2.144,1.094,4.091,2.463,5.822,4.118C144.638,9.424,146.248,11.636,147.518,14.106z"/>
	<path fill="#231F20" d="M13.367,144.649c-0.32-0.273-0.631-0.557-0.937-0.85c-3.622-3.46-6.052-7.927-7.291-13.224
		c-2.749,12.624-4.007,24.39-4.581,34.437L13.367,144.649z"/>
</g>
</svg>
