<svg version="1.1" id="Layer_1" xmlns="http://www.w3.org/2000/svg" xmlns:xlink="http://www.w3.org/1999/xlink" x="0px" y="0px"
	 width="226.777px" height="226.777px" viewBox="0 0 226.777 226.777" enable-background="new 0 0 226.777 226.777"
	 xml:space="preserve">
<g>
	<path fill="#1D1D1B" d="M90.828,205.09c-41.115-10.168-71.603-47.289-71.603-91.545c0-44.256,30.487-81.377,71.603-91.546V2.278
		C39.004,12.801,0,58.618,0,113.544S39.004,214.288,90.828,224.81V205.09z"/>
	<path fill="#1D1D1B" d="M106.152,19.541c2.442-0.189,4.903-0.315,7.393-0.315c3.769,0,7.484,0.226,11.137,0.655V0.55
		C121.016,0.192,117.303,0,113.544,0c-2.487,0-4.946,0.108-7.393,0.267V19.541z"/>
	<path fill="#1D1D1B" d="M140.006,3.133v19.874c27.52,8.035,49.837,28.262,60.692,54.453h-21.613
		c-12.739-23.085-37.309-38.729-65.541-38.729c-41.318,0-74.813,33.497-74.813,74.813s33.496,74.813,74.813,74.813
		c31.203,0,57.932-19.107,69.156-46.253h20.75c-9.464,29.813-33.337,53.206-63.444,61.994v19.857
		c49.941-11.928,87.083-56.82,87.083-110.412C227.089,59.954,189.947,15.06,140.006,3.133z M131.228,162.166l-21.873-31.069H72.854
		V112.01c0,0,32.321,0,42.77,0c10.449,0,14.211-6.546,14.211-14.35c0-7.801-4.736-14.907-15.324-14.907c-10.589,0-41.656,0-41.656,0
		V64.922c0,0,29.953,0,43.885,0c13.933,0,35.944,6.13,35.944,32.043s-19.506,31.068-19.506,31.068l25.078,34.133H131.228z"/>
	<path fill="#1D1D1B" d="M124.681,207.204c-3.654,0.429-7.368,0.659-11.137,0.659c-2.49,0-4.951-0.126-7.393-0.315v19.274
		c2.446,0.159,4.906,0.267,7.393,0.267c3.759,0,7.472-0.192,11.137-0.551V207.204z"/>
</g>
</svg>
