<svg width="227" height="227" viewBox="0 0 227 227" xmlns="http://www.w3.org/2000/svg"><title>rcn</title><path d="M113.5 227C50.813 227 0 176.187 0 113.5S50.813 0 113.5 0 227 50.813 227 113.5 176.187 227 113.5 227zM101.866 47.01c-2.234.376-4.433.922-6.632 1.44-23.729 6.13-43.308 25.829-48.77 49.408a65.156 65.156 0 0 0-1.135 25.637c.142.993.248 2.128-.518 2.937-3.568 4.625-6.753 9.576-9.08 14.925-1.085 2.596 1.37 5.505 4.072 5.498a4.561 4.561 0 0 0 3.76-2.511c1.518-2.866 3.029-5.746 4.795-8.47 1.632 3.518 2.937 7.2 4.994 10.513 9.406 16.358 25.949 28.687 44.648 32.737 12.897 3.05 26.63 2.065 39.1-2.291a69.519 69.519 0 0 0 28.213-18.94c13.343-14.628 19.607-35.299 16.315-54.714-.063-.71-.29-1.518.256-2.107 2.958-4.022 5.817-8.144 8.03-12.627.71-1.469 1.773-2.937 1.596-4.647a4.143 4.143 0 0 0-4.427-3.617c-1.596-.071-2.965.993-3.617 2.369-1.518 2.908-3.079 5.796-4.824 8.576-1.88-4.518-3.753-9.073-6.54-13.137a68.384 68.384 0 0 0-31.376-26.46c-6.47-2.908-13.52-4.384-20.55-5.207-6.101-.305-12.28-.433-18.317.688h.007zM85.111 61.27c12.981-6.775 28.53-8.84 42.796-5.214 21.416 4.93 39.406 22.345 44.308 43.513-12.783 14.897-31.333 23.955-50.38 28.347-3.71.773-7.399 1.631-11.165 2.021-5.2.497-10.386 1.398-15.628 1.135 4.781-4.83 9.81-9.434 14.542-14.33-1.773-2.127-3.866-3.979-5.845-5.908-5.32 5.008-10.428 10.229-15.677 15.301-3.05 3.135-6.484 5.902-9.463 9.108.766 1.036 1.688 1.951 2.624 2.838 6.888 6.725 13.727 13.506 20.643 20.21 1.83 1.76 3.547 3.632 5.526 5.242 1.972-1.93 4.058-3.76 5.846-5.873-4.647-4.384-9.159-8.896-13.734-13.35-1.553-1.554-3.2-3.016-4.54-4.76 15.294-.426 30.553-3.193 44.89-8.506a95.113 95.113 0 0 0 30.105-17.493c1.305-1.178 2.554-2.412 3.951-3.498 1.142 17.451-6.278 35.214-19.507 46.876a60.957 60.957 0 0 1-33.15 15.145c-8.824 1.22-17.876.213-26.36-2.39-14.514-4.597-27.133-14.777-34.44-27.95-2.213-4.157-4.235-8.456-5.306-13.052-.142-.667-.22-1.455.319-1.987 9.059-10.286 20.94-17.975 33.823-22.799 6.15-2.064 12.308-4.228 18.713-5.377 7.931-1.568 15.99-2.717 24.09-2.83-4.525 5.107-9.88 9.441-14.591 14.379 1.546 2.27 3.788 3.972 5.717 5.923a24.88 24.88 0 0 0 2.03-1.717c7.66-7.64 15.527-15.088 23.182-22.728-7.186-7.378-14.72-14.429-22.02-21.707-2.255-2.128-4.383-4.391-6.689-6.477-2.029 1.902-4.057 3.81-5.93 5.86 5.937 6.157 12.378 11.84 18.316 17.997-17.564.85-35.242 3.993-51.288 11.293-8.647 3.887-16.911 8.768-23.97 15.067a40.93 40.93 0 0 1-3.795 3.235c-.475-8.442 1.071-16.926 4.1-24.814 5.264-13.053 15.38-24.119 27.957-30.73z"/></svg>