<svg width="227" height="227" viewBox="0 0 227 227" xmlns="http://www.w3.org/2000/svg"><title>rcn</title><path d="M96.68 16.46c-3.232.544-6.411 1.334-9.59 2.083-34.31 8.861-62.618 37.344-70.516 71.437a94.207 94.207 0 0 0-1.64 37.067c.205 1.436.358 3.077-.75 4.246-5.158 6.688-9.764 13.847-13.128 21.58-1.569 3.754 1.98 7.96 5.888 7.949a6.595 6.595 0 0 0 5.435-3.63c2.195-4.145 4.38-8.309 6.934-12.247 2.359 5.087 4.246 10.41 7.22 15.2 13.6 23.652 37.52 41.478 64.555 47.334 18.647 4.41 38.504 2.985 56.535-3.313a100.514 100.514 0 0 0 40.79-27.385c19.293-21.149 28.35-51.037 23.59-79.109-.092-1.025-.42-2.195.37-3.046 4.276-5.815 8.41-11.775 11.61-18.257 1.025-2.123 2.564-4.246 2.307-6.718a5.99 5.99 0 0 0-6.4-5.23c-2.307-.103-4.287 1.435-5.23 3.425-2.195 4.205-4.452 8.38-6.975 12.4-2.718-6.533-5.426-13.118-9.456-18.995a98.873 98.873 0 0 0-45.365-38.257c-9.354-4.205-19.55-6.338-29.714-7.528-8.82-.441-17.754-.626-26.482.995h.01zM72.452 37.077c18.77-9.795 41.252-12.78 61.878-7.538 30.965 7.128 56.975 32.308 64.063 62.914-18.483 21.538-45.304 34.636-72.843 40.985-5.364 1.118-10.697 2.359-16.143 2.923-7.518.718-15.016 2.02-22.596 1.641 6.913-6.985 14.185-13.641 21.026-20.718-2.564-3.077-5.59-5.754-8.451-8.544-7.692 7.241-15.077 14.79-22.667 22.123-4.41 4.534-9.375 8.534-13.682 13.17 1.107 1.497 2.44 2.82 3.795 4.103 9.959 9.723 19.846 19.528 29.846 29.22 2.646 2.544 5.129 5.252 7.99 7.58 2.851-2.79 5.867-5.436 8.452-8.492-6.719-6.339-13.242-12.862-19.857-19.303-2.246-2.246-4.626-4.36-6.564-6.882 22.113-.616 44.175-4.616 64.903-12.298a137.52 137.52 0 0 0 43.529-25.293c1.887-1.702 3.692-3.487 5.713-5.056 1.651 25.231-9.077 50.913-28.206 67.775a88.135 88.135 0 0 1-47.929 21.898c-12.759 1.764-25.846.308-38.113-3.456-20.985-6.647-39.231-21.365-49.796-40.411-3.2-6.01-6.123-12.226-7.672-18.872-.205-.965-.317-2.103.462-2.872 13.098-14.872 30.277-25.99 48.903-32.965 8.893-2.985 17.795-6.113 27.057-7.774 11.467-2.267 23.118-3.929 34.831-4.093-6.543 7.385-14.287 13.652-21.097 20.79 2.236 3.282 5.477 5.744 8.266 8.565 1.026-.78 2-1.6 2.934-2.482 11.077-11.047 22.452-21.816 33.518-32.863-10.39-10.666-21.282-20.861-31.836-31.385-3.262-3.077-6.339-6.348-9.672-9.364-2.933 2.749-5.867 5.508-8.574 8.472 8.584 8.903 17.897 17.118 26.482 26.021-25.395 1.23-50.955 5.774-74.155 16.328-12.503 5.621-24.452 12.678-34.657 21.785a59.18 59.18 0 0 1-5.487 4.677c-.687-12.205 1.549-24.472 5.928-35.877 7.61-18.872 22.236-34.872 40.421-44.432z"/></svg>