<svg version="1.1" id="Layer_1" xmlns="http://www.w3.org/2000/svg" xmlns:xlink="http://www.w3.org/1999/xlink" x="0px" y="0px"
	 viewBox="0 0 226.8 226.8" style="enable-background:new 0 0 226.8 226.8;" xml:space="preserve">
<path class="st0" d="M113.5,0C50.9,0,0.1,50.8,0.1,113.4c0,62.6,50.8,113.4,113.4,113.4S226.9,176,226.9,113.4
	C226.9,50.8,176.1,0,113.5,0z M131.6,56.6c-1.2,1.8-2.2,3.7-3,5.7c-1.3-0.7-2.4-1.3-3.2-1.6c-0.4-0.2-0.9-0.2-1.3,0
	c-0.4,0.2-0.8,0.5-0.9,1l-1.5,4.1c-0.3,0.8,0,1.6,0.7,2c3,1.8,11,6.8,18.5,14.4c7.5,7.5,12.7,16,14.7,19.4c0.2,0.4,0.6,0.7,1.1,0.8
	c0.1,0,0.2,0,0.4,0c0.3,0,0.7-0.1,1-0.3l4-2.8c0.7-0.5,0.9-1.3,0.6-2c-0.2-0.6-0.6-1.4-1.1-2.3c2.1-0.6,4-1.4,5.9-2.4
	c0.4,1.2,0.8,2.5,1.2,3.7L127,133.1l-8.7-79.8C123,53.9,127.4,55,131.6,56.6z M124.8,135l-27,23.9l-27.2-57l48.9-15.5L124.8,135z
	 M110.6,52.8c1.8,0,3.6,0.1,5.3,0.2l3.4,31L69.6,99.8L60.1,80C70.9,63.6,89.5,52.8,110.6,52.8z M58.6,82.4l8.7,18.2l-16.7,5.3
	C51.6,97.3,54.4,89.4,58.6,82.4z M50.1,113.3c0-1.6,0.1-3.3,0.2-4.9l18-5.7L96,160.6l-9.4,8.3C65.1,159.6,50.1,138.2,50.1,113.3z
	 M89.1,169.9l8-7.1l5,10.4C97.6,172.5,93.2,171.4,89.1,169.9z M110.6,173.8c-1.9,0-3.8-0.1-5.7-0.3l-5.9-12.4l26.2-23.2l3.6,33.1
	C123,172.8,116.9,173.8,110.6,173.8z M131,170.2l-3.7-34.2l42-37.2c1.1,4.6,1.8,9.5,1.8,14.5C171.1,139.5,154.4,161.8,131,170.2z
	 M154.2,92c-0.2,0-0.4,0-0.6,0c-2.4-3.5-5.8-8.1-9.9-12.2c-4.4-4.4-8.9-7.8-12.3-10.1c0.4-11.5,10.5-20.8,22.8-20.8
	c12.6,0,22.8,9.7,22.8,21.6C177,82.3,166.8,92,154.2,92z"/>
</svg>
