<svg version="1.1" id="Layer_1" xmlns="http://www.w3.org/2000/svg" xmlns:xlink="http://www.w3.org/1999/xlink" x="0px" y="0px"
	 viewBox="0 0 226.8 226.8" style="enable-background:new 0 0 226.8 226.8;" xml:space="preserve">
<g>
	<path class="st0" d="M167.1,57.1c7.4,7.4,13.4,15.5,17.7,21.8c0.4,0,0.8,0,1.2,0c22.5,0,40.8-17.2,40.8-38.5
		c0-21.3-18.2-38.5-40.8-38.5c-22,0-40,16.5-40.7,37.1C151.2,43.2,159.3,49.3,167.1,57.1z"/>
	<path class="st0" d="M69.7,218.1c7.4,2.8,15.1,4.8,23.1,5.9L84,205.5L69.7,218.1z"/>
	<path class="st0" d="M123.6,64.7l-6-55.4c-3.1-0.3-6.3-0.4-9.6-0.4c-37.7,0-70.8,19.3-90.2,48.5l17,35.4L123.6,64.7z"/>
	<polygon class="st0" points="85.4,198.5 133.6,155.9 124.1,69.1 36.7,96.8 	"/>
	<path class="st0" d="M211.8,86.6c-0.7-2.2-1.4-4.5-2.2-6.7c-3.3,1.8-6.8,3.3-10.5,4.3c0.9,1.8,1.6,3.2,2,4.2
		c0.6,1.3,0.1,2.8-1.1,3.6l-7.2,5c-0.5,0.4-1.1,0.5-1.7,0.5c-0.2,0-0.4,0-0.7-0.1c-0.8-0.2-1.5-0.7-2-1.4
		c-3.4-6-12.9-21.3-26.2-34.6C148.8,48,134.7,39,129.3,35.8c-1.3-0.7-1.8-2.3-1.3-3.6l2.7-7.3c0.3-0.8,0.9-1.4,1.7-1.8
		c0.8-0.3,1.6-0.3,2.4,0c1.4,0.6,3.3,1.5,5.7,2.9c1.3-3.7,3.1-7.1,5.3-10.3c-7.6-2.8-15.5-4.8-23.8-5.9l15.5,142.6L211.8,86.6z"/>
	<path class="st0" d="M87.3,202.5l10.6,22.1c3.4,0.3,6.8,0.5,10.2,0.5c11.3,0,22.2-1.7,32.5-5l-6.4-59.1L87.3,202.5z"/>
	<path class="st0" d="M138,157.6l6.6,61.1c41.7-15,71.5-54.9,71.5-101.7c0-8.9-1.1-17.6-3.1-25.8L138,157.6z"/>
	<path class="st0" d="M15.2,61.7c-7.5,12.6-12.5,26.8-14.4,42l29.9-9.5L15.2,61.7z"/>
	<path class="st0" d="M32.6,98.1L0.4,108.3C0.2,111.2,0,114.1,0,117c0,44.5,26.9,82.7,65.3,99.3l16.7-14.8L32.6,98.1z"/>
</g>
</svg>
