<svg version="1.1" id="Layer_1" xmlns="http://www.w3.org/2000/svg" xmlns:xlink="http://www.w3.org/1999/xlink" x="0px" y="0px"
	 width="595.279px" height="595.28px" viewBox="0 123.305 595.279 595.28" enable-background="new 0 123.305 595.279 595.28"
	 xml:space="preserve">
<g>
	<path fill="#231F20" d="M375.947,488.644c-1.13-0.645-11.263-6.648-17.966-18.839c-3.093-5.616-4.868-13.2-6.745-21.23
		c-1.938-8.281-4.133-17.663-7.448-22.703c-6.82-10.365-16.334-21.108-35.067-25.275c0.693-0.551,1.396-1.093,2.029-1.661
		c6.038-5.407,9.548-12.125,11.568-18.603c21.646,7.28,33.46,21.542,40.856,32.788c5.582,8.483,8.278,20.004,10.655,30.164
		c1.373,5.866,2.928,12.51,4.48,15.341c3.053,5.547,7.587,8.828,8.863,9.685l35.452,16.094L309.407,281.512v79.131
		c0.16,3.741,0.172,18.574-8.974,26.767c-2.697,2.411-6.897,5.025-12.716,8.638c-9.482,5.893-22.46,13.959-29.454,21.918
		c-8.03,9.145-11.28,20.262-11.871,42.046c-6.877-3.396-14.916-6.415-22.943-7.288c1.145-20.694,5.328-36.347,17.381-50.07
		c9.257-10.544,23.93-19.661,34.642-26.313c3.695-2.297,8.295-5.154,9.477-6.215c0.69-0.987,1.412-5.362,1.27-8.632
		c-0.008-0.171-0.017-0.402-0.017-0.573v-79.409L172.986,484.409l25.334-11.5c1.923-0.947,10.735-4.988,20.614-4.988
		c12.887,0,29.697,10.456,36.785,15.986c14.727,11.488,24.543,16.339,30.781,18.273c-0.542,0.434-1.113,0.868-1.612,1.318
		c-5.995,5.365-9.5,12.03-11.528,18.457c-9.445-3.961-19.998-10.455-31.914-19.752c-7.867-6.136-18.75-11.083-22.512-11.083
		c-4.194,0-8.94,1.9-10.416,2.631c-0.117,0.057-0.302,0.148-0.422,0.199l-37.039,16.808l115.172,71.669v-40.64
		c-0.16-3.738-0.171-18.571,8.974-26.767c2.697-2.408,6.897-5.027,12.715-8.641c9.479-5.884,22.46-13.953,29.454-21.915
		c2.491-2.836,4.463-5.912,6.072-9.308c0.337,0.69,0.611,1.432,0.984,2.105c4.255,7.744,9.577,13.577,14.151,17.658
		c-1.198,1.654-2.408,3.299-3.772,4.856c-9.26,10.541-23.933,19.661-34.645,26.315c-3.695,2.294-8.296,5.153-9.477,6.215
		c-0.691,0.987-1.41,5.359-1.268,8.629c0.006,0.172,0.015,0.405,0.015,0.576v40.881l115.12-71.636l-47.671-21.642
		C376.563,488.975,376.252,488.814,375.947,488.644z"/>
	<path fill="#231F20" d="M297.64,122.755c-164.818,0-298.426,133.498-298.426,298.195c0,164.679,133.608,298.185,298.426,298.185
		c164.814,0,298.427-133.506,298.427-298.185C596.067,256.253,462.454,122.755,297.64,122.755z M452.085,516.408l-149.172,92.814
		c-1.563,0.971-3.339,1.461-5.108,1.461s-3.544-0.49-5.108-1.461l-149.172-92.814c-4.377-2.722-5.847-8.412-3.333-12.92
		l149.172-267.322c1.707-3.062,4.937-4.959,8.441-4.959s6.735,1.897,8.441,4.959l149.172,267.322
		C457.932,507.996,456.462,513.687,452.085,516.408z"/>
</g>
</svg>
