<svg version="1.1" id="Layer_1" xmlns="http://www.w3.org/2000/svg" xmlns:xlink="http://www.w3.org/1999/xlink" x="0px" y="0px"
	 width="595.279px" height="595.28px" viewBox="0 123.305 595.279 595.28" enable-background="new 0 123.305 595.279 595.28"
	 xml:space="preserve">
<path fill="#000000" d="M544.886,550.434L310.882,131.085c-2.676-4.804-7.743-7.78-13.242-7.78c-5.499,0-10.566,2.976-13.243,7.78
	L50.394,550.434c-3.945,7.068-1.641,15.991,5.232,20.27l234,145.596c2.453,1.522,5.234,2.286,8.013,2.286
	c2.778,0,5.561-0.764,8.014-2.286l234-145.596C546.526,566.425,548.83,557.502,544.886,550.434z M369.773,428.671
	c5.198,7.903,8.644,22.625,11.682,35.619c2.947,12.594,5.731,24.491,10.581,33.299c10.516,19.126,26.409,28.539,28.186,29.552
	c0.477,0.271,0.969,0.52,1.469,0.745l74.783,33.953L315.881,674.207v-64.124c0-0.267-0.013-0.636-0.022-0.902
	c-0.226-5.13,0.904-11.989,1.988-13.543c1.856-1.664,9.067-6.145,14.866-9.746c16.803-10.438,39.82-24.739,54.345-41.279
	c2.143-2.442,4.042-5.024,5.916-7.621c-7.173-6.398-15.519-15.55-22.196-27.7c-0.582-1.057-1.016-2.218-1.544-3.307
	c-2.524,5.326-5.616,10.161-9.525,14.608c-10.969,12.489-31.333,25.146-46.206,34.381c-9.123,5.668-15.714,9.77-19.943,13.554
	c-14.348,12.85-14.33,36.121-14.078,41.986v63.747L98.81,561.839l58.105-26.37c0.189-0.082,0.477-0.223,0.664-0.313
	c2.312-1.148,9.756-4.125,16.334-4.125c5.903,0,22.974,7.757,35.316,17.383c18.692,14.586,35.245,24.775,50.061,30.984
	c3.181-10.082,8.68-20.533,18.085-28.951c0.787-0.705,1.681-1.382,2.527-2.069c-9.785-3.037-25.186-10.638-48.285-28.661
	c-11.121-8.68-37.493-25.084-57.706-25.084c-15.493,0-29.318,6.345-32.335,7.826l-39.744,18.039L279.44,202.217v124.568
	c0,0.267,0.013,0.633,0.025,0.899c0.223,5.129-0.907,11.992-1.992,13.543c-1.854,1.666-9.069,6.145-14.865,9.746
	c-16.803,10.438-39.82,24.739-54.342,41.281c-18.905,21.522-25.468,46.085-27.265,78.538c12.592,1.374,25.201,6.104,35.991,11.436
	c0.923-34.168,6.024-51.614,18.621-65.957c10.969-12.489,31.333-25.142,46.206-34.378c9.123-5.67,15.714-9.77,19.946-13.556
	c14.342-12.85,14.326-36.116,14.075-41.986V202.217l177.6,318.271l-55.608-25.245c-2.002-1.338-9.115-6.487-13.904-15.19
	c-2.435-4.438-4.875-14.857-7.028-24.059c-3.729-15.941-7.96-34.011-16.717-47.323c-11.597-17.636-30.136-40.012-64.091-51.435
	c-3.168,10.167-8.674,20.7-18.146,29.182c-0.992,0.89-2.097,1.743-3.184,2.607C344.146,395.559,359.075,412.414,369.773,428.671z"/>
</svg>
