<svg width="227" height="227" viewBox="0 0 227 227" xmlns="http://www.w3.org/2000/svg"><title>req</title><path d="M113.5 227C50.813 227 0 176.187 0 113.5S50.813 0 113.5 0 227 50.813 227 113.5 176.187 227 113.5 227zM70.937 42.562v12.216l49.06.007c6.329-.085 10.975.44 13.926 1.568 10.683 3.639 17.99 14.648 17.131 25.693-.27 12.783-11.669 24.084-24.7 24.431-11.293.156-22.594.014-33.894.071 10.605 17.309 26.53 43.272 47.776 77.89l10.144-6.37a36755.176 36755.176 0 0 0-36.639-59.716c7.144-.128 14.45.603 21.41-1.369 10.966-2.901 20.344-10.91 24.827-21.14 4.952-11.115 4.1-24.6-2.412-34.936a38.228 38.228 0 0 0-25.466-17.28c-3.121-.66-7.896-1.015-14.294-1.065H70.938z"/></svg>