<svg width="227" height="227" viewBox="0 0 227 227" xmlns="http://www.w3.org/2000/svg"><title>req</title><path d="M40.488.893v19.39l77.88.012c10.044-.135 17.42.698 22.104 2.489 16.959 5.776 28.557 23.253 27.195 40.786-.428 20.292-18.524 38.23-39.21 38.782-17.927.248-35.866.022-53.804.113a213609.07 213609.07 0 0 0 75.841 123.642l16.103-10.112a58345.78 58345.78 0 0 0-58.162-94.793c11.34-.202 22.938.957 33.985-2.173 17.41-4.606 32.296-17.319 39.413-33.557 7.86-17.645 6.508-39.052-3.829-55.459a60.684 60.684 0 0 0-40.426-27.431c-4.955-1.047-12.533-1.61-22.69-1.69h-74.4z"/></svg>