<?xml version="1.0" encoding="UTF-8"?>
<svg width="227px" height="227px" viewBox="0 0 227 227" version="1.1" xmlns="http://www.w3.org/2000/svg" xmlns:xlink="http://www.w3.org/1999/xlink">
    <!-- Generator: Sketch 50.2 (55047) - http://www.bohemiancoding.com/sketch -->
    <title>req</title>
    <desc>Created with Sketch.</desc>
    <defs></defs>
    <g id="Page-1" stroke="none" stroke-width="1" fill="none" fill-rule="evenodd">
        <g id="req" transform="translate(39.000000, 0.000000)" fill="#000000" fill-rule="nonzero">
            <path d="M1.4881993,0.89291958 L1.4881993,20.2838588 L79.3672561,20.2951195 C89.4118077,20.159991 96.7875715,20.9932834 101.472026,22.783736 C118.430652,28.5604792 130.029182,46.0370981 128.666636,63.5700205 C128.238729,83.8618164 110.142771,101.800124 89.4568505,102.351899 C71.5298033,102.599635 53.5914954,102.37442 35.6531875,102.464506 C52.487946,129.940634 77.7682356,171.154825 111.494056,226.10708 L127.596869,215.994965 C108.239802,184.378948 88.852607,152.781387 69.4353116,121.202324 C80.7748446,120.999632 92.3733739,122.159484 103.420128,119.029008 C120.829183,114.423378 135.715839,101.710039 142.832607,85.4720977 C150.692581,67.8265682 149.341296,46.4199622 139.003966,30.0131106 C129.966932,15.6094825 115.301362,5.65813725 98.578024,2.58202579 C93.6233125,1.53477994 86.044856,0.971744537 75.8876973,0.89291958 L1.4881993,0.89291958 Z" id="Shape"></path>
        </g>
    </g>
</svg>