<svg width="227" height="227" viewBox="0 0 227 227" xmlns="http://www.w3.org/2000/svg"><circle cx="113.5" cy="113.5" r="113.5"/><path d="M71.959 142.045c2.128-3.227 4.143-6.25 6.044-9.08H56.268a.66.66 0 0 1-.66-.66v-4.511c0-.362.298-.66.66-.66H81.96c13.74-20.068 20.608-28.332 20.608-29.176 0-1.299-.284-1.944-4.966-1.944-9.25 0-24.466-6.604-24.466-24.637 0-9.81 15.868-21.72 25.133-21.72 4.299 0 4.958 1.822 2.98 1.943-5.293.326-16.87 10.896-16.87 21.068 0 6.81 6.044 18.48 19.508 18.48 15.904 0 29.489-25.283 62.51-25.283 19.841 0 25.133 15.522 25.133 19.778 0 4.256-6.193 6.484-14.549 6.484s-8.669-14.919-25.467-14.919c-26.374 0-48.833 28.56-59.623 49.926h18.614c.37 0 .66.298.66.66v4.512a.66.66 0 0 1-.66.666H89.154c-1.475 3.405-2.575 6.491-3.263 9.08h18.657c.369 0 .666.284.666.653v4.519a.66.66 0 0 1-.66.66h-19.5c.348 8.27 7.285 15.726 20.827 22.366H53.955a1314.644 1314.644 0 0 1 14.188-22.367h-17.82a.66.66 0 0 1-.667-.66v-4.518c0-.362.298-.66.66-.66h21.643z"/></svg>