<svg version="1.1" id="Layer_1" xmlns="http://www.w3.org/2000/svg" xmlns:xlink="http://www.w3.org/1999/xlink" x="0px" y="0px"
	 viewBox="0 0 226.8 226.8" style="enable-background:new 0 0 226.8 226.8;" xml:space="preserve">
<path class="st0" d="M113.4,0C50.8,0,0,50.8,0,113.4C0,176,50.8,226.8,113.4,226.8c62.6,0,113.4-50.8,113.4-113.4
	C226.8,50.8,176,0,113.4,0z M89.5,45c6,0,10.8,4.8,10.8,10.8c0,6-4.8,10.8-10.8,10.8c-6,0-10.8-4.8-10.8-10.8
	C78.7,49.8,83.6,45,89.5,45z M82.5,85.7l49.9-38c4.3-3.3,10.4-2.4,13.7,1.9s2.4,10.4-1.9,13.7l-49.9,38c-1.8,1.3-3.9,2-5.9,2
	c-3,0-5.9-1.3-7.8-3.9C77.3,95.2,78.2,89,82.5,85.7z M82.5,124.6l49.9-38c4.3-3.3,10.4-2.4,13.7,1.9c3.3,4.3,2.4,10.4-1.9,13.7
	l-49.9,38c-1.8,1.3-3.9,2-5.9,2c-3,0-5.9-1.3-7.8-3.9C77.3,134,78.2,127.9,82.5,124.6z M94.3,179.8c-1.8,1.3-3.9,2-5.9,2
	c-3,0-5.9-1.3-7.8-3.9c-3.3-4.3-2.4-10.4,1.9-13.7l49.9-38c4.3-3.3,10.4-2.4,13.7,1.9c3.3,4.3,2.4,10.4-1.9,13.7L94.3,179.8z
	 M137.4,181.7c-6,0-10.8-4.8-10.8-10.8c0-6,4.8-10.8,10.8-10.8c6,0,10.8,4.8,10.8,10.8C148.2,176.9,143.3,181.7,137.4,181.7z"/>
</svg>
