<svg version="1.1" id="Layer_1" xmlns="http://www.w3.org/2000/svg" xmlns:xlink="http://www.w3.org/1999/xlink" x="0px" y="0px"
	 viewBox="0 0 226.8 226.8" style="enable-background:new 0 0 226.8 226.8;" xml:space="preserve">
<g>
	<circle class="st0" cx="73.8" cy="17.9" r="17.9"/>
	<circle class="st0" cx="153.2" cy="208.9" r="17.9"/>
	<path class="st0" d="M71.9,96.7c3.4,0,6.9-1.1,9.8-3.3l82.8-63c7.1-5.4,8.5-15.6,3.1-22.8c-5.4-7.1-15.6-8.5-22.8-3.1l-82.8,63
		C55,73,53.6,83.2,59,90.3C62.2,94.5,67.1,96.7,71.9,96.7z"/>
	<path class="st0" d="M71.9,161.2c3.4,0,6.9-1.1,9.8-3.3l82.8-63c7.1-5.4,8.5-15.6,3.1-22.8c-5.4-7.1-15.6-8.5-22.8-3.1l-82.8,63
		c-7.1,5.4-8.5,15.6-3.1,22.8C62.2,159,67.1,161.2,71.9,161.2z"/>
	<path class="st0" d="M167.6,137.8c-5.4-7.1-15.6-8.5-22.8-3.1l-82.8,63c-7.1,5.4-8.5,15.6-3.1,22.8c3.2,4.2,8,6.4,12.9,6.4
		c3.4,0,6.9-1.1,9.8-3.3l82.8-63C171.7,155.1,173.1,144.9,167.6,137.8z"/>
</g>
</svg>
