<svg width="250" height="250" viewBox="0 0 250 250" xmlns="http://www.w3.org/2000/svg"><path d="M13 140.84l3.313-4.187c3.658 4.025 8.808 6.314 14.203 6.313 8.047 0 10.609-4.25 10.609-7.656 0-11.426-26.703-5.107-26.703-20.938 0-7.312 6.625-12.298 15.484-12.298 6.896 0 12.26 2.258 16.026 6.18l-3.38 4.056c-3.38-3.653-8.114-5.319-13.052-5.319-5.411 0-9.266 2.86-9.266 7.048 0 9.972 26.709 4.23 26.709 20.817 0 6.45-4.464 13.033-16.636 13.033-7.838 0-13.588-2.924-17.307-7.048zm139.203 7.049V102.1h5.589v40.713h20.99v5.081l-26.579-.005zm65.412 0v-40.707h-14.271V102.1h34.219v5.082h-14.339v40.712l-5.61-.005zM96.62 114.494l13.125 28.023h-26.25l13.125-28.023zm0-12.494l-21.485 45.889h42.97L96.62 102z"/></svg>