<svg width="250" height="250" viewBox="0 0 250 250" xmlns="http://www.w3.org/2000/svg"><g fill="none" fill-rule="evenodd"><circle fill="#000" cx="125" cy="125" r="125"/><path d="M50 136.175l2.208-2.822c2.44 2.713 5.872 4.255 9.47 4.255 5.364 0 7.072-2.865 7.072-5.16 0-7.7-17.802-3.442-17.802-14.11 0-4.928 4.417-8.288 10.323-8.288 4.597 0 8.173 1.521 10.684 4.165l-2.254 2.733c-2.253-2.462-5.41-3.584-8.701-3.584-3.608 0-6.177 1.927-6.177 4.75 0 6.72 17.805 2.85 17.805 14.028 0 4.347-2.975 8.783-11.09 8.783-5.225 0-9.059-1.97-11.538-4.75zm92.802 4.75v-30.857h3.726v27.436h13.993v3.425l-17.719-.004zm43.608 0v-27.433h-9.514v-3.424h22.812v3.424h-9.559v27.437l-3.74-.004zm-80.663-22.505l8.75 18.885h-17.5l8.75-18.885zm0-8.42l-14.323 30.925h28.645L105.747 110z" fill-rule="nonzero" fill="#FFF"/></g></svg>