<svg version="1.1" id="Layer_1" xmlns="http://www.w3.org/2000/svg" xmlns:xlink="http://www.w3.org/1999/xlink" x="0px" y="0px"
	 width="226.777px" height="226.777px" viewBox="0 0 226.777 226.777" enable-background="new 0 0 226.777 226.777"
	 xml:space="preserve">
<g>
	<path fill="#1D1D1B" d="M179.353,93.16h-61.681l-3.317-1.656c-8.203-4.134-13.575-6.619-13.575-12.134
		c0-5.794,5.939-8.827,13.575-8.827c9.051,0,17.536,5.24,26.021,13.519l23.193-22.899c-12.162-15.722-29.98-24.279-49.496-24.279
		c-28.852,0-48.649,19.31-48.649,42.208c0,4.991,0.96,9.649,2.723,14.069H47.423v16.758h32.936c3.262,2.923,7.083,5.709,11.41,8.379
		H47.423v16.758h75.538c5.142,3.482,8.081,7.031,8.081,11.35c0,6.623-7.354,11.862-16.687,11.862
		c-9.898,0-22.629-7.172-31.398-17.099l-23.19,24.827c13.011,16.544,30.83,25.102,52.607,25.102
		c32.811,0,54.023-19.587,54.023-45.795c0-3.688-0.521-7.038-1.272-10.247h14.229v-16.758H156.6
		c-2.571-2.969-5.768-5.716-9.31-8.379h32.063V93.16z"/>
	<path fill="#1D1D1B" d="M113.388,0C50.867,0,0,50.867,0,113.388s50.867,113.389,113.389,113.389
		c62.522,0,113.389-50.867,113.389-113.389S175.911,0,113.388,0z M113.388,203.958c-49.939,0-90.568-40.626-90.568-90.569
		c0-49.941,40.628-90.567,90.568-90.567s90.567,40.626,90.567,90.567C203.956,163.332,163.328,203.958,113.388,203.958z"/>
</g>
</svg>
