<svg version="1.1" id="Layer_1" xmlns="http://www.w3.org/2000/svg" xmlns:xlink="http://www.w3.org/1999/xlink" x="0px" y="0px"
	 width="226.777px" height="226.777px" viewBox="0 0 226.777 226.777" enable-background="new 0 0 226.777 226.777"
	 xml:space="preserve">
<g>
	<path fill="#1D1D1B" d="M113.388,44.226c-38.136,0-69.162,31.024-69.162,69.162c0,38.141,31.026,69.163,69.162,69.163
		c38.137,0,69.162-31.022,69.162-69.163C182.551,75.25,151.525,44.226,113.388,44.226z M146.386,117.137h17.376v12.797h-10.865
		c0.573,2.45,0.972,5.009,0.972,7.826c0,20.013-16.2,34.971-41.255,34.971c-16.63,0-30.237-6.534-40.173-19.169l17.709-18.96
		c6.696,7.582,16.419,13.058,23.978,13.058c7.126,0,12.74-4,12.74-9.059c0-3.298-2.243-6.007-6.169-8.667H63.013v-12.797h33.865
		c-3.304-2.039-6.222-4.167-8.713-6.399H63.013V97.941h15.828c-1.347-3.375-2.08-6.932-2.08-10.744
		c0-17.485,15.118-32.232,37.151-32.232c14.902,0,28.509,6.535,37.797,18.542l-17.713,17.487
		c-6.479-6.323-12.959-10.324-19.869-10.324c-5.832,0-10.367,2.316-10.367,6.741c0,4.211,4.102,6.109,10.367,9.267l2.532,1.264
		h47.103v12.797h-24.485C141.983,112.772,144.424,114.871,146.386,117.137z"/>
	<path fill="#1D1D1B" d="M113.389,0C50.766,0,0,50.766,0,113.388c0,62.623,50.766,113.389,113.389,113.389
		c62.622,0,113.388-50.766,113.388-113.389C226.777,50.766,176.011,0,113.389,0z M113.388,199.978
		c-47.745,0-86.59-38.845-86.59-86.59s38.845-86.59,86.59-86.59c47.746,0,86.59,38.845,86.59,86.59S161.135,199.978,113.388,199.978
		z"/>
</g>
</svg>
