<svg version="1.1" id="Layer_1" xmlns="http://www.w3.org/2000/svg" xmlns:xlink="http://www.w3.org/1999/xlink" x="0px" y="0px"
	 width="226.777px" height="226.777px" viewBox="0 0 226.777 226.777" enable-background="new 0 0 226.777 226.777"
	 xml:space="preserve">
<g id="SDC">
	<path fill="#231F20" d="M113.564,0L15.367,56.695v113.387l98.197,56.695l98.196-56.695V56.695L113.564,0z M191.785,156.726
		l-78.221,45.161l-78.222-45.161V66.405l78.222-45.162l78.221,45.162V156.726z"/>
	<polygon fill="#231F20" points="52.49,76.306 52.49,89.238 143.341,140.679 113.564,157.873 73.461,134.719 73.461,107.909 
		52.49,96.028 52.49,146.827 113.564,182.088 174.636,146.827 174.636,132.113 85.294,81.582 113.564,65.26 153.665,88.413 
		153.665,113.441 174.636,125.326 174.636,76.306 113.564,41.046 	"/>
</g>
</svg>
