<svg version="1.1" id="Layer_1" xmlns="http://www.w3.org/2000/svg" xmlns:xlink="http://www.w3.org/1999/xlink" x="0px" y="0px"
	 width="226.777px" height="226.777px" viewBox="0 0 226.777 226.777" enable-background="new 0 0 226.777 226.777"
	 xml:space="preserve">
<g id="SDC_alt">
	<path fill="#231F20" d="M61.965,82.459v59.258l51.318,29.628l51.318-29.628V82.459l-51.318-29.63L61.965,82.459z M153.35,121.115
		l-13.758-7.797v-16.42l-26.31-15.19L94.735,92.416l58.615,33.151v9.653l-40.067,23.134L73.214,135.22v-33.327l13.759,7.796v17.589
		l26.31,15.19l19.535-11.281L73.214,97.438v-8.484l40.069-23.134l40.067,23.134V121.115z"/>
	<path fill="#231F20" d="M113.283-0.211C50.602-0.211-0.211,50.602-0.211,113.283s50.813,113.494,113.494,113.494
		s113.494-50.813,113.494-113.494S175.964-0.211,113.283-0.211z M177.707,150.478l-64.424,37.195l-64.424-37.195v-74.39
		l64.424-37.196l64.424,37.196V150.478z"/>
</g>
</svg>
