<svg version="1.1" id="Layer_1" xmlns="http://www.w3.org/2000/svg" xmlns:xlink="http://www.w3.org/1999/xlink" x="0px" y="0px"
	 viewBox="0 0 226.8 226.8" style="enable-background:new 0 0 226.8 226.8;" xml:space="preserve">
<g>
	<path class="st0" d="M147.5,116.5c-8.9-8.9-23.3-8.9-32.2,0c-8.9,8.9-8.9,23.3,0,32.2c2.9,2.9,6.3,4.8,9.9,5.8
		c3.3,0.9,6.8,0.9,7.1,0.9h15.1c1.7,0,3.7-0.8,4.9-2s2-3.2,2-4.9V133c0-0.3,0-2.2-0.9-6.6C152.6,122.7,150.4,119.4,147.5,116.5z"/>
	<path class="st0" d="M113.4,0C50.8,0,0,50.8,0,113.4C0,176,50.8,226.8,113.4,226.8S226.8,176,226.8,113.4C226.8,50.8,176,0,113.4,0
		z M77.3,72.5c0.1,0.1,0.2,0.2,0.3,0.3L77.3,72.5C77.3,72.5,77.3,72.5,77.3,72.5z M169.1,163.3c0,1.7-1,3.6-2.2,4.9
		c-1.2,1.2-3,2.1-4.7,2.1c0,0-31.6,0.1-33.8-0.1c-8.5-0.8-17.1-4.6-23.5-11.1c-2-2-3.8-4.2-5.2-6.6c-6.8-10.9-7.5-24.5-2.1-36
		c0,0,0,0,0,0c2.8-6.1,1.8-13.4-2.9-18.6c-0.2-0.2-0.3-0.4-0.5-0.6L70.9,74.1c0,0,0,0,0,0c-1.7-1.5-4-2.1-6.2-1.9c0,0,0,0,0,0
		c-0.5,0.1-1,0.1-1.5,0.1c-4.4,0-7.9-3.5-7.9-7.9c0-4.4,3.5-7.9,7.9-7.9s7.9,3.5,7.9,7.9c0,0.5-0.1,1-0.1,1.5c0,0,0,0,0,0
		C70.8,68,71.4,70.2,73,72c0,0,0,0,0,0l23.1,23.1c0.2,0.2,0.5,0.4,0.7,0.7c5.2,4.7,12.5,5.6,18.6,2.9c0,0,0,0,0,0
		c11.5-5.4,25.1-4.7,36,2.1c2.3,1.5,4.6,3.2,6.6,5.2c6.5,6.5,10.1,14.2,10.8,22.7c0,0.3,0.4,2.5,0.4,4
		C169.1,134.2,169.1,163.3,169.1,163.3z"/>
</g>
</svg>
