<svg version="1.1" id="Layer_1" xmlns="http://www.w3.org/2000/svg" xmlns:xlink="http://www.w3.org/1999/xlink" x="0px" y="0px"
	 viewBox="0 0 226.8 226.8" style="enable-background:new 0 0 226.8 226.8;" xml:space="preserve">
<g id="Get-started" sketch:type="MSPage">
	<g id="Desktop-_x28__x3E_1200px_x29_" transform="translate(-161.000000, -19.000000)" sketch:type="MSArtboardGroup">
		<g id="Nav" transform="translate(161.000000, 19.000000)" sketch:type="MSLayerGroup">
			<g id="logo" sketch:type="MSShapeGroup">
				<path id="Fill-2_1_" class="st0" d="M39.8,35.8c0.2,0.2,0.4,0.4,0.7,0.6L39.8,35.8C39.8,35.8,39.8,35.8,39.8,35.8"/>
				<path id="Fill-3_1_" class="st0" d="M43.8,31.9l0.6,0.6C44.2,32.3,44,32,43.8,31.9C43.8,31.8,43.8,31.9,43.8,31.9"/>
				<path id="Fill-4" class="st0" d="M191.4,88.3c-21.7-13.6-48.8-15-71.7-4.3c0,0,0,0,0,0c-12.1,5.5-26.7,3.5-37.1-5.8
					c-0.5-0.4-0.9-0.8-1.4-1.3l-46-46c0,0,0,0,0,0c-3.1-3.4-4.4-7.9-3.9-12.2c0,0,0,0,0,0c0.2-0.9,0.3-1.9,0.3-2.9
					C31.5,7,24.4,0,15.7,0S0,7.1,0,15.7c0,8.7,7,15.7,15.7,15.7c1,0,2-0.1,2.9-0.3c0,0,0,0,0,0C23,30.8,27.5,32,31,35c0,0,0,0,0,0
					l46.2,46.2c0.4,0.4,0.7,0.8,1,1.2c9.3,10.4,11.2,25,5.7,37.1c0,0,0,0,0,0c-10.8,22.8-9.4,50,4.3,71.7c2.9,4.7,6.4,9.1,10.4,13.1
					c12.9,12.9,30,20.5,46.9,22c4.4,0.4,67.4,0.2,67.4,0.2c3.4,0,6.9-1.7,9.3-4.1c2.4-2.4,4.4-6.3,4.4-9.7c0,0,0-58,0-61
					c0-3-0.7-7.4-0.7-8c-1.5-16.9-8.7-32.2-21.6-45.1C200.4,94.7,196,91.2,191.4,88.3L191.4,88.3z M195.4,139.4
					c1.8,8.7,1.9,12.5,1.9,13.1v30.9c0,3.4-1.5,7.4-3.9,9.8c-2.4,2.4-6.4,3.9-9.8,3.9h-30c-0.6,0-7.6-0.1-14.1-1.9
					c-7.3-2-14.1-5.9-19.8-11.6c-17.7-17.7-17.7-46.4,0-64.1c17.7-17.7,46.5-17.7,64.1,0C189.4,125.3,193.9,132,195.4,139.4
					L195.4,139.4z"/>
			</g>
		</g>
	</g>
</g>
</svg>
