<svg version="1.1" id="Layer_1" xmlns="http://www.w3.org/2000/svg" xmlns:xlink="http://www.w3.org/1999/xlink" x="0px" y="0px"
	 width="226.777px" height="226.777px" viewBox="0 0 226.777 226.777" enable-background="new 0 0 226.777 226.777"
	 xml:space="preserve">
<g>
	<path fill="#1D1D1B" d="M113.389,0C50.767,0,0.001,50.766,0.001,113.389c0,62.622,50.766,113.388,113.389,113.388
		c62.623,0,113.388-50.766,113.388-113.388C226.777,50.766,176.012,0,113.389,0z M178.088,135.255
		c6.573,3.838,8.79,12.28,4.951,18.854c-3.84,6.575-12.28,8.79-18.855,4.951c-0.629-0.369-1.206-0.79-1.753-1.237l-35.504,20.498
		c0.097,0.662,0.164,1.336,0.164,2.026c0,7.612-6.174,13.782-13.787,13.78c-7.613,0-13.782-6.175-13.782-13.787
		c0-0.694,0.069-1.37,0.167-2.036l-35.714-20.619c-0.532,0.423-1.088,0.828-1.694,1.176c-6.589,3.816-15.023,1.566-18.836-5.024
		c-3.815-6.588-1.563-15.02,5.024-18.833c0.565-0.327,1.149-0.593,1.737-0.834V92.938c-0.623-0.244-1.239-0.52-1.836-0.862
		c-6.607-3.782-8.894-12.206-5.111-18.811c3.783-6.607,12.206-8.895,18.812-5.11c0.524,0.299,1.011,0.636,1.48,0.991l36.125-20.855
		c-0.082-0.61-0.139-1.224-0.139-1.857c0-7.611,6.171-13.785,13.784-13.785c7.613,0,13.785,6.174,13.785,13.785
		c0,0.632-0.058,1.248-0.141,1.857l36.381,21.003c0.448-0.332,0.912-0.649,1.41-0.929c6.62-3.757,15.035-1.436,18.79,5.188
		c3.758,6.622,1.434,15.032-5.188,18.79c-0.625,0.355-1.269,0.637-1.92,0.885v41.218
		C176.998,134.681,177.55,134.939,178.088,135.255z"/>
	<path fill="#1D1D1B" d="M171.564,90.864c1.808,0,3.599-0.475,5.178-1.372c2.44-1.382,4.196-3.635,4.944-6.343
		c0.747-2.706,0.396-5.538-0.99-7.979c-1.861-3.285-5.366-5.326-9.146-5.326c-1.809,0-3.6,0.475-5.18,1.372
		c-4.114,2.335-6.05,7.048-5.063,11.444L136.386,96.8c-4.794-5.796-11.983-9.464-20.016-9.621V56.49
		c4.311-1.311,7.458-5.321,7.458-10.055c0-5.792-4.714-10.508-10.508-10.508c-5.795,0-10.509,4.716-10.509,10.508
		c0,4.734,3.146,8.745,7.458,10.055v31.284c-4.18,0.897-8.1,2.772-11.409,5.514c-3.588,0.078-6.962,1.024-9.944,2.611L65.46,82.464
		c1.004-4.392-0.912-9.116-5.019-11.467c-1.588-0.91-3.39-1.39-5.212-1.39c-3.763,0-7.26,2.027-9.127,5.286
		c-1.395,2.435-1.759,5.269-1.023,7.978c0.736,2.71,2.484,4.969,4.92,6.362c1.587,0.91,3.39,1.392,5.213,1.392
		c2.711,0,5.274-1.064,7.201-2.875l21.144,12.108c-4.03,4.042-6.531,9.612-6.531,15.754c0,4.796,1.534,9.236,4.119,12.88
		l-18.612,10.772c-1.923-1.787-4.474-2.843-7.165-2.843c-1.841,0-3.658,0.491-5.258,1.416c-2.429,1.408-4.166,3.675-4.888,6.387
		c-0.724,2.712-0.347,5.546,1.059,7.974c1.872,3.234,5.36,5.244,9.101,5.244c1.84,0,3.659-0.489,5.257-1.417
		c4.096-2.367,5.989-7.1,4.965-11.489l19.841-11.484c3.82,3.052,8.652,4.893,13.913,4.893c1.469,0,2.918-0.142,4.338-0.422
		c2.082,1.077,4.288,1.854,6.569,2.341l-0.006,30.426c-4.31,1.311-7.458,5.318-7.459,10.051c0,2.806,1.092,5.448,3.077,7.433
		c1.985,1.984,4.625,3.079,7.432,3.079c5.793,0,10.507-4.716,10.507-10.505c0.001-4.732-3.145-8.743-7.455-10.058l0.007-29.848
		c2.615-0.051,5.215-0.479,7.698-1.282c2.182,0.881,4.52,1.332,6.932,1.332c5.166,0,9.844-2.114,13.22-5.525l16.7,9.754
		c-1.042,4.384,0.833,9.125,4.921,11.51c1.606,0.939,3.438,1.435,5.292,1.435c3.725,0,7.203-1.997,9.081-5.208
		c1.416-2.425,1.802-5.256,1.089-7.971c-0.713-2.713-2.44-4.986-4.864-6.402c-1.607-0.939-3.438-1.436-5.292-1.436
		c-2.676,0-5.215,1.04-7.133,2.813l-16.268-9.498c1.187-2.451,1.874-5.188,1.874-8.09c0-6.285-3.129-11.988-8.137-15.391
		c-0.451-1.591-1.057-3.104-1.772-4.554l24.624-13.97C166.26,89.787,168.835,90.864,171.564,90.864z M169.383,76.521
		c0.663-0.378,1.414-0.576,2.168-0.576c1.586,0,3.058,0.856,3.838,2.233c0.582,1.024,0.729,2.212,0.416,3.35
		c-0.313,1.132-1.049,2.079-2.073,2.658c-0.663,0.378-1.413,0.574-2.167,0.574c-1.587,0-3.059-0.856-3.841-2.233
		C166.525,80.413,167.268,77.72,169.383,76.521z M59.045,82.304c-0.784,1.372-2.252,2.219-3.833,2.219
		c-0.76,0-1.515-0.201-2.183-0.584c-1.021-0.585-1.753-1.53-2.062-2.667c-0.309-1.136-0.157-2.324,0.429-3.346
		c0.783-1.367,2.251-2.217,3.833-2.217c0.761,0,1.516,0.201,2.181,0.583C59.518,77.498,60.251,80.197,59.045,82.304z
		 M57.582,150.748c-0.671,0.389-1.434,0.592-2.201,0.592c-1.571,0-3.035-0.841-3.819-2.197c-0.591-1.019-0.749-2.207-0.446-3.345
		c0.304-1.137,1.032-2.089,2.05-2.677c0.672-0.389,1.433-0.596,2.201-0.596c1.571,0,3.036,0.844,3.821,2.2
		C60.406,146.828,59.686,149.53,57.582,150.748z M167.331,144.934c0.786-1.348,2.248-2.185,3.813-2.185
		c0.774,0,1.54,0.207,2.216,0.603c1.016,0.593,1.74,1.548,2.04,2.684c0.297,1.139,0.137,2.326-0.458,3.343
		c-0.787,1.348-2.248,2.186-3.812,2.186c-0.775,0-1.541-0.207-2.216-0.601C166.816,149.735,166.105,147.031,167.331,144.934z
		 M108.915,46.434c0-2.426,1.976-4.405,4.406-4.405c2.43,0,4.406,1.979,4.406,4.405c0,2.432-1.977,4.409-4.406,4.409
		C110.89,50.843,108.915,48.866,108.915,46.434z M117.714,180.347c0,2.428-1.976,4.402-4.406,4.402h-0.002
		c-1.176,0-2.283-0.456-3.115-1.29s-1.29-1.94-1.29-3.117c0-2.431,1.978-4.406,4.407-4.406
		C115.738,175.936,117.715,177.914,117.714,180.347z M141.481,121.873c0,0.354-0.019,0.705-0.054,1.049
		c-0.028,0.282-0.073,0.555-0.123,0.824c-0.012,0.063-0.017,0.127-0.027,0.188c-0.133,0.662-0.329,1.298-0.58,1.909
		c-0.001,0-0.001,0-0.001,0.003c-0.803,1.957-2.179,3.62-3.923,4.774c-0.003,0-0.005,0.001-0.007,0.003
		c-0.376,0.249-0.772,0.467-1.181,0.666c-0.071,0.035-0.143,0.07-0.215,0.104c-0.421,0.195-0.854,0.368-1.305,0.508
		c-0.004,0-0.01,0.002-0.015,0.002c-0.427,0.129-0.868,0.225-1.314,0.3c-0.11,0.018-0.222,0.036-0.333,0.052
		c-0.462,0.062-0.929,0.103-1.407,0.103c-2.427,0-4.655-0.83-6.433-2.214c-0.621,0.332-1.264,0.626-1.925,0.885
		c-0.611,0.243-1.244,0.444-1.887,0.62c-0.036,0.009-0.068,0.022-0.103,0.033c-1.535,0.412-3.144,0.646-4.809,0.646
		c-3.019,0-5.859-0.737-8.372-2.021c-0.013-0.008-0.024-0.013-0.037-0.021c-0.406-0.207-0.803-0.432-1.191-0.668
		c-0.044-0.028-0.092-0.054-0.138-0.08c-0.422-0.264-0.836-0.544-1.237-0.838c-1.695,0.715-3.557,1.108-5.509,1.108
		c-0.523,0-1.037-0.032-1.545-0.086c-0.089-0.009-0.174-0.027-0.26-0.039c-0.432-0.055-0.857-0.127-1.275-0.221
		c-0.052-0.009-0.102-0.025-0.153-0.037c-0.458-0.106-0.907-0.234-1.347-0.386c-0.012-0.003-0.022-0.006-0.035-0.013
		c-0.472-0.161-0.932-0.35-1.381-0.558c-2.997-1.401-5.417-3.813-6.832-6.804c-0.048-0.1-0.098-0.197-0.143-0.297
		c-0.104-0.232-0.195-0.473-0.288-0.714c-0.064-0.169-0.129-0.342-0.188-0.516c-0.072-0.211-0.138-0.427-0.2-0.644
		c-0.061-0.215-0.117-0.435-0.169-0.657c-0.045-0.192-0.089-0.385-0.126-0.58c-0.052-0.271-0.09-0.547-0.126-0.825
		c-0.021-0.158-0.047-0.313-0.061-0.473c-0.043-0.444-0.069-0.893-0.069-1.348c0-0.548,0.039-1.085,0.098-1.618
		c0.02-0.162,0.05-0.317,0.074-0.478c0.055-0.375,0.122-0.746,0.206-1.111c0.038-0.166,0.083-0.328,0.126-0.492
		c0.1-0.367,0.212-0.728,0.339-1.08c0.049-0.138,0.095-0.27,0.146-0.4c0.168-0.43,0.355-0.844,0.563-1.253
		c0.023-0.045,0.043-0.093,0.067-0.141c0.761-1.452,1.767-2.746,2.96-3.847c0.011-0.012,0.023-0.023,0.035-0.033
		c2.356-2.162,5.438-3.532,8.844-3.708c0.246-0.011,0.488-0.036,0.739-0.036c0.866,0,1.711,0.089,2.536,0.239
		c0.371-0.425,0.768-0.828,1.176-1.217c0.115-0.107,0.231-0.216,0.348-0.326c0.384-0.346,0.779-0.685,1.191-0.999
		c0.148-0.114,0.305-0.22,0.457-0.328c0.292-0.208,0.589-0.413,0.896-0.605c0.228-0.146,0.457-0.287,0.691-0.421
		c0.237-0.137,0.48-0.259,0.723-0.384c0.451-0.237,0.913-0.452,1.386-0.647c0.166-0.07,0.332-0.139,0.501-0.203
		c2.046-0.785,4.257-1.234,6.58-1.234c0.803,0,1.589,0.068,2.364,0.167c0.015,0.002,0.028,0.002,0.043,0.007
		c0.587,0.077,1.165,0.18,1.733,0.311c0.026,0.005,0.054,0.012,0.079,0.017c0.555,0.13,1.1,0.284,1.635,0.464
		c0.035,0.011,0.07,0.022,0.104,0.034c0.525,0.18,1.039,0.378,1.541,0.603c0.038,0.017,0.076,0.035,0.115,0.052
		c0.497,0.226,0.983,0.47,1.456,0.738c0.036,0.021,0.073,0.039,0.108,0.062c0.476,0.272,0.938,0.562,1.385,0.875
		c0.028,0.019,0.056,0.037,0.082,0.058c0.456,0.322,0.896,0.66,1.32,1.021c0.016,0.014,0.032,0.027,0.049,0.041
		c0.437,0.374,0.856,0.767,1.257,1.177c0,0,0,0,0.003,0c1.771,1.828,3.166,4.011,4.069,6.439c0.008,0.02,0.015,0.04,0.021,0.059
		c0.166,0.454,0.321,0.908,0.453,1.375c0.038,0.132,0.063,0.27,0.099,0.402c0.095,0.367,0.19,0.733,0.263,1.107
		c0.103,0.532,0.186,1.067,0.24,1.613C138.453,113.287,141.481,117.224,141.481,121.873z"/>
</g>
</svg>
