<svg version="1.1" id="Layer_1" xmlns="http://www.w3.org/2000/svg" xmlns:xlink="http://www.w3.org/1999/xlink" x="0px" y="0px"
	 width="226.777px" height="226.777px" viewBox="0 0 226.777 226.777" enable-background="new 0 0 226.777 226.777"
	 xml:space="preserve">
<g>
	<path fill="#1D1D1B" d="M31.902,154.305c-1.078,0-2.147,0.291-3.091,0.836c-1.43,0.828-2.453,2.164-2.878,3.762
		s-0.205,3.265,0.625,4.695c1.103,1.906,3.159,3.089,5.365,3.089c1.078,0,2.147-0.286,3.091-0.833
		c2.954-1.712,3.965-5.505,2.256-8.457C36.166,155.493,34.109,154.305,31.902,154.305z"/>
	<path fill="#1D1D1B" d="M119.481,19.357c0-3.409-2.776-6.188-6.188-6.188c-3.414,0-6.189,2.779-6.189,6.188
		c0,3.415,2.775,6.189,6.189,6.189C116.705,25.547,119.481,22.772,119.481,19.357z"/>
	<path fill="#1D1D1B" d="M195.09,73.183c1.059,0,2.112-0.279,3.042-0.809c1.439-0.814,2.474-2.142,2.913-3.734
		c0.44-1.594,0.234-3.264-0.583-4.702c-1.097-1.934-3.163-3.136-5.392-3.136c-1.06,0-2.114,0.278-3.045,0.808
		c-2.969,1.683-4.013,5.468-2.328,8.435C190.795,71.98,192.861,73.183,195.09,73.183z"/>
	<path fill="#1D1D1B" d="M34.771,61.287c-0.936-0.536-1.995-0.818-3.064-0.818c-2.219,0-4.281,1.193-5.382,3.114
		c-0.822,1.434-1.036,3.104-0.602,4.7c0.434,1.595,1.461,2.925,2.896,3.746c0.938,0.537,1.998,0.821,3.066,0.821
		c2.218,0,4.281-1.193,5.382-3.116C38.761,66.772,37.732,62.983,34.771,61.287z"/>
	<path fill="#1D1D1B" d="M197.61,155.468c-0.949-0.556-2.024-0.848-3.112-0.848c-2.197,0-4.249,1.178-5.354,3.07
		c-1.72,2.945-0.723,6.742,2.224,8.466c0.948,0.553,2.023,0.845,3.11,0.845c2.198,0,4.249-1.177,5.354-3.069
		c0.836-1.428,1.063-3.095,0.644-4.694C200.054,157.64,199.037,156.302,197.61,155.468z"/>
	<path fill="#1D1D1B" d="M107.084,207.419c0,1.651,0.644,3.206,1.812,4.376s2.724,1.813,4.375,1.813h0.003
		c3.413,0,6.187-2.774,6.187-6.185c0.001-3.414-2.774-6.192-6.187-6.192S107.084,204.005,107.084,207.419z"/>
	<path fill="#1D1D1B" d="M204.251,144.095c-0.754-0.44-1.531-0.805-2.314-1.133V85.074c0.914-0.349,1.818-0.745,2.695-1.242
		c9.299-5.277,12.563-17.092,7.286-26.39c-5.274-9.3-17.091-12.564-26.39-7.286c-0.699,0.394-1.352,0.841-1.981,1.305
		l-51.089-29.497c0.114-0.855,0.195-1.72,0.195-2.607c0-10.69-8.668-19.357-19.36-19.357c-10.691,0-19.359,8.667-19.359,19.357
		c0,0.89,0.082,1.753,0.196,2.61L43.396,51.256c-0.659-0.498-1.342-0.975-2.079-1.396c-9.278-5.313-21.107-2.102-26.42,7.178
		c-5.313,9.277-2.102,21.105,7.178,26.418c0.839,0.479,1.704,0.867,2.578,1.211v57.906c-0.826,0.336-1.645,0.71-2.438,1.171
		c-9.252,5.355-12.414,17.197-7.056,26.45c5.355,9.254,17.199,12.414,26.453,7.056c0.851-0.491,1.632-1.058,2.379-1.652
		l50.158,28.958c-0.14,0.935-0.235,1.886-0.235,2.859c-0.002,10.69,8.663,19.362,19.355,19.362
		c10.689,0.003,19.36-8.662,19.361-19.354c0-0.969-0.094-1.914-0.229-2.845l49.859-28.787c0.77,0.63,1.579,1.22,2.465,1.737
		c9.231,5.391,21.087,2.28,26.479-6.954C216.596,161.343,213.483,149.486,204.251,144.095z M207.231,168.253
		c-2.635,4.513-7.521,7.317-12.754,7.317c-2.603,0-5.174-0.697-7.432-2.016c-5.738-3.352-8.372-10.006-6.909-16.165l-23.454-13.698
		c-4.741,4.791-11.311,7.762-18.565,7.762c-3.388,0-6.672-0.636-9.735-1.873c-3.487,1.13-7.138,1.729-10.813,1.803l-0.008,41.918
		c6.053,1.845,10.472,7.477,10.469,14.122c0,8.134-6.618,14.754-14.755,14.754c-3.942,0-7.651-1.536-10.438-4.324
		c-2.789-2.787-4.322-6.495-4.322-10.438c0.001-6.646,4.422-12.275,10.477-14.114l0.009-42.73c-3.202-0.687-6.301-1.777-9.228-3.288
		c-1.993,0.393-4.028,0.592-6.093,0.592c-7.387,0-14.172-2.583-19.538-6.871l-27.864,16.13c1.439,6.163-1.22,12.809-6.972,16.137
		c-2.245,1.3-4.799,1.986-7.384,1.986c-5.254,0-10.151-2.82-12.781-7.364c-1.975-3.41-2.503-7.388-1.487-11.197
		c1.015-3.809,3.453-6.992,6.864-8.97c2.246-1.3,4.798-1.987,7.383-1.987c3.781,0,7.362,1.479,10.062,3.99l26.139-15.129
		c-3.629-5.118-5.784-11.351-5.784-18.087c0-8.629,3.513-16.449,9.172-22.124L41.797,77.382c-2.705,2.542-6.305,4.037-10.112,4.037
		c-2.561,0-5.093-0.677-7.323-1.954c-3.419-1.958-5.875-5.131-6.908-8.936s-0.524-7.784,1.436-11.204
		c2.623-4.58,7.534-7.425,12.817-7.425c2.56,0,5.091,0.675,7.322,1.952c5.767,3.303,8.457,9.936,7.047,16.103L79.02,88.823
		c4.187-2.228,8.924-3.555,13.963-3.667c4.647-3.85,10.153-6.483,16.024-7.744V33.477c-6.054-1.841-10.473-7.472-10.473-14.12
		c0-8.137,6.62-14.757,14.758-14.757c8.136,0,14.756,6.62,14.756,14.757c0,6.648-4.419,12.279-10.473,14.12v43.101
		c11.279,0.221,21.376,5.372,28.109,13.51l34.999-19.856c-1.386-6.174,1.331-12.794,7.112-16.074
		c2.218-1.259,4.733-1.925,7.272-1.925c5.308,0,10.229,2.866,12.845,7.478c1.944,3.429,2.439,7.408,1.389,11.209
		c-1.048,3.801-3.515,6.964-6.943,8.907c-2.217,1.259-4.731,1.925-7.271,1.925c-3.833,0-7.45-1.512-10.158-4.079L150.35,97.292
		c1.007,2.034,1.855,4.161,2.486,6.396c7.036,4.778,11.429,12.789,11.429,21.616c0,4.072-0.963,7.917-2.631,11.358l22.845,13.341
		c2.695-2.489,6.262-3.952,10.019-3.952c2.605,0,5.175,0.696,7.433,2.018c3.404,1.986,5.83,5.181,6.831,8.992
		C209.763,160.874,209.22,164.849,207.231,168.253z"/>
	<path fill="#1D1D1B" d="M142.703,111.317c-0.078-0.766-0.193-1.519-0.339-2.264c-0.101-0.525-0.236-1.041-0.369-1.556
		c-0.049-0.188-0.087-0.379-0.139-0.565c-0.185-0.654-0.401-1.294-0.636-1.931c-0.01-0.026-0.018-0.055-0.028-0.081
		c-1.27-3.411-3.23-6.479-5.717-9.042c-0.001,0-0.001,0-0.001,0c-0.563-0.58-1.152-1.13-1.768-1.656
		c-0.023-0.021-0.046-0.038-0.068-0.059c-0.595-0.506-1.214-0.981-1.853-1.434c-0.038-0.028-0.077-0.054-0.116-0.08
		c-0.629-0.438-1.277-0.848-1.944-1.23c-0.051-0.03-0.103-0.058-0.154-0.086c-0.664-0.375-1.346-0.721-2.044-1.037
		c-0.055-0.024-0.107-0.049-0.163-0.073c-0.704-0.314-1.426-0.593-2.161-0.846c-0.05-0.015-0.1-0.034-0.148-0.05
		c-0.75-0.251-1.517-0.467-2.295-0.649c-0.037-0.008-0.074-0.018-0.111-0.026c-0.799-0.182-1.611-0.328-2.437-0.435
		c-0.02-0.004-0.039-0.006-0.059-0.007c-1.09-0.142-2.193-0.238-3.32-0.238c-3.262,0-6.368,0.634-9.241,1.733
		c-0.236,0.092-0.471,0.188-0.705,0.285c-0.664,0.276-1.312,0.578-1.946,0.908c-0.341,0.175-0.683,0.35-1.015,0.54
		c-0.328,0.19-0.651,0.388-0.972,0.591c-0.427,0.271-0.844,0.558-1.254,0.852c-0.215,0.152-0.434,0.297-0.642,0.459
		c-0.58,0.443-1.134,0.917-1.673,1.404c-0.165,0.153-0.328,0.305-0.488,0.457c-0.575,0.547-1.13,1.113-1.653,1.71
		c-1.158-0.211-2.344-0.336-3.563-0.336c-0.35,0-0.69,0.035-1.036,0.051c-4.783,0.248-9.111,2.172-12.422,5.207
		c-0.015,0.016-0.031,0.029-0.048,0.045c-1.675,1.547-3.089,3.366-4.156,5.403c-0.034,0.067-0.062,0.135-0.095,0.198
		c-0.291,0.573-0.554,1.157-0.79,1.759c-0.073,0.185-0.138,0.372-0.206,0.562c-0.179,0.496-0.337,1.002-0.477,1.517
		c-0.063,0.231-0.124,0.458-0.177,0.692c-0.119,0.514-0.211,1.033-0.289,1.562c-0.034,0.224-0.077,0.442-0.103,0.67
		c-0.084,0.747-0.139,1.503-0.139,2.271c0,0.641,0.037,1.269,0.096,1.893c0.02,0.225,0.058,0.441,0.086,0.663
		c0.05,0.391,0.104,0.778,0.177,1.159c0.052,0.274,0.114,0.544,0.177,0.815c0.073,0.312,0.151,0.62,0.238,0.925
		c0.086,0.303,0.178,0.604,0.279,0.901c0.083,0.245,0.173,0.487,0.265,0.725c0.129,0.339,0.258,0.674,0.403,1.001
		c0.064,0.142,0.136,0.279,0.203,0.419c1.985,4.199,5.384,7.585,9.594,9.553c0.631,0.294,1.276,0.558,1.94,0.784
		c0.018,0.008,0.033,0.014,0.048,0.019c0.619,0.213,1.248,0.391,1.891,0.542c0.073,0.016,0.142,0.039,0.216,0.053
		c0.586,0.13,1.185,0.231,1.789,0.309c0.123,0.016,0.242,0.042,0.366,0.055c0.713,0.076,1.436,0.123,2.169,0.123
		c2.744,0,5.358-0.556,7.738-1.559c0.562,0.415,1.144,0.806,1.738,1.177c0.063,0.039,0.13,0.073,0.193,0.112
		c0.547,0.332,1.104,0.646,1.674,0.939c0.016,0.01,0.034,0.016,0.051,0.026c3.529,1.805,7.518,2.841,11.758,2.841
		c2.339,0,4.597-0.33,6.752-0.909c0.049-0.013,0.095-0.034,0.145-0.046c0.901-0.248,1.79-0.529,2.65-0.87
		c0.929-0.364,1.832-0.776,2.703-1.245c2.496,1.945,5.625,3.112,9.034,3.112c0.672,0,1.327-0.06,1.976-0.146
		c0.156-0.021,0.313-0.046,0.468-0.072c0.628-0.104,1.248-0.239,1.846-0.42c0.008,0,0.016-0.002,0.023-0.005
		c0.631-0.192,1.237-0.438,1.83-0.71c0.103-0.048,0.202-0.097,0.303-0.146c0.573-0.281,1.131-0.586,1.657-0.936
		c0.003-0.002,0.006-0.005,0.01-0.005c2.449-1.621,4.383-3.955,5.51-6.705c0,0,0-0.004,0.002-0.004
		c0.352-0.856,0.627-1.753,0.812-2.683c0.018-0.086,0.024-0.175,0.04-0.263c0.068-0.379,0.134-0.762,0.173-1.157
		c0.049-0.482,0.075-0.974,0.075-1.472C152.841,118.773,148.587,113.247,142.703,111.317z"/>
</g>
</svg>
