<svg version="1.1" id="Layer_1" xmlns="http://www.w3.org/2000/svg" xmlns:xlink="http://www.w3.org/1999/xlink" x="0px" y="0px"
	 width="226.777px" height="226.777px" viewBox="0 0 226.777 226.777" enable-background="new 0 0 226.777 226.777"
	 xml:space="preserve">
<g>
	<polygon fill="#231F20" points="58.319,91.972 58.319,137.304 152.974,137.304 	"/>
	<polygon fill="#231F20" points="113.37,51.594 68.955,80.404 157.604,80.404 	"/>
	<polygon fill="#231F20" points="113.37,175.052 157.602,146.246 68.955,146.246 	"/>
	<polygon fill="#231F20" points="168.189,134.677 168.189,89.345 73.534,89.345 	"/>
	<path fill="#231F20" d="M113.389,0C50.766,0,0,50.764,0,113.389c0,62.621,50.767,113.388,113.39,113.388
		c62.622,0,113.389-50.767,113.389-113.388C226.778,50.764,176.011,0,113.389,0z M177.131,141.775c0,1.569-0.809,2.945-2.03,3.744
		v0.003l-61.722,40.194l-61.964-40.19c-0.006-0.004-0.009-0.009-0.015-0.013c-0.238-0.156-0.46-0.334-0.665-0.532
		c-0.012-0.012-0.025-0.021-0.037-0.034c-0.199-0.198-0.379-0.413-0.538-0.646c-0.006-0.008-0.013-0.017-0.02-0.025
		c-0.314-0.465-0.542-0.993-0.664-1.562c-0.001-0.003-0.002-0.007-0.003-0.012c-0.054-0.256-0.083-0.521-0.091-0.79
		c0-0.029-0.003-0.059-0.003-0.088c0-0.016-0.003-0.032-0.003-0.05V84.874c0-1.57,0.812-2.949,2.038-3.747l0-0.003l61.964-40.195
		L175.1,81.128c0.005,0.004,0.009,0.008,0.013,0.011c0.241,0.158,0.464,0.337,0.669,0.538c0.01,0.01,0.022,0.021,0.032,0.03
		c0.2,0.199,0.382,0.418,0.542,0.653c0.006,0.007,0.011,0.016,0.017,0.023c0.313,0.466,0.541,0.996,0.662,1.567v0.001
		c0.055,0.258,0.083,0.526,0.091,0.798c0,0.027,0.003,0.053,0.003,0.08c0.001,0.016,0.002,0.03,0.002,0.045V141.775z"/>
</g>
</svg>
