<svg version="1.1" id="Layer_1" xmlns="http://www.w3.org/2000/svg" xmlns:xlink="http://www.w3.org/1999/xlink" x="0px" y="0px"
	 width="226.777px" height="226.777px" viewBox="0 0 226.777 226.777" enable-background="new 0 0 226.777 226.777"
	 xml:space="preserve">
<path fill="#231F20" d="M213.435,68.76c-0.002-0.042-0.008-0.083-0.008-0.126c-0.012-0.425-0.057-0.845-0.141-1.25l-0.002-0.002
	c-0.188-0.895-0.545-1.724-1.037-2.454c-0.008-0.013-0.016-0.026-0.023-0.037c-0.252-0.368-0.537-0.71-0.85-1.022
	c-0.016-0.016-0.035-0.033-0.051-0.048c-0.32-0.313-0.672-0.595-1.049-0.842c-0.006-0.005-0.012-0.01-0.018-0.017L113.582,0
	L16.53,62.955l0.001,0.006c-1.921,1.248-3.192,3.408-3.192,5.867v89.124c0,0.026,0.005,0.053,0.005,0.078
	c0,0.044,0.006,0.092,0.006,0.137c0.014,0.422,0.058,0.837,0.143,1.237c0.002,0.007,0.004,0.015,0.006,0.02
	c0.189,0.889,0.547,1.718,1.039,2.445c0.01,0.015,0.021,0.027,0.029,0.04c0.249,0.363,0.531,0.7,0.843,1.011
	c0.019,0.019,0.04,0.034,0.058,0.053c0.32,0.311,0.668,0.59,1.041,0.833c0.008,0.007,0.014,0.015,0.023,0.021l97.051,62.949
	l96.676-62.956v-0.004c1.912-1.251,3.18-3.406,3.18-5.864V68.829C213.437,68.805,213.435,68.783,213.435,68.76z M27.344,79.948
	l148.258,71.003H27.344V79.948z M51.176,75.832h148.256v71.003L51.176,75.832z M182.853,61.827H44.004l69.564-45.124L182.853,61.827
	z M113.568,210.072l-69.564-45.116h138.848L113.568,210.072z"/>
</svg>
