<svg version="1.1" id="Layer_1" xmlns="http://www.w3.org/2000/svg" xmlns:xlink="http://www.w3.org/1999/xlink" x="0px" y="0px"
	 viewBox="0 0 226.8 226.8" style="enable-background:new 0 0 226.8 226.8;" xml:space="preserve">
<path class="st0" d="M113.4,0C50.8,0,0,50.8,0,113.4C0,176,50.8,226.8,113.4,226.8S226.8,176,226.8,113.4C226.8,50.8,176,0,113.4,0z
	 M113.4,185.2c-38.9,0-70.4-31.5-70.4-70.4C43,85.7,60.7,60.7,85.9,50C71.7,61.7,71,75.7,72.7,86.2c2.1,12.7,9.3,22.3,22.1,28.2
	c12.7,6,24.7,8.8,33.6,15.3c17.2,12.5,13,34.5,2.5,46.6c-3.3,3.8-8.1,6.6-13.2,8.8C116.3,185.1,114.8,185.2,113.4,185.2z
	 M128.9,183.5c9.8-4.1,23.9-12.9,25-37.3c1.5-32.6-19.4-40.1-42.2-46.4c-22.7-6.2-30-22.2-23.8-37.6c6.1-15.4,27.1-15.2,38.5-8.2
	S143.2,80,143.2,80l4.1-1.2l-2.5-27c23.1,11.6,38.9,35.4,38.9,63C183.8,148.3,160.3,176.4,128.9,183.5z"/>
</svg>
