<svg version="1.1" id="Layer_1" xmlns="http://www.w3.org/2000/svg" xmlns:xlink="http://www.w3.org/1999/xlink" x="0px" y="0px"
	 viewBox="0 0 226.8 226.8" style="enable-background:new 0 0 226.8 226.8;" xml:space="preserve">
<g>
	<path class="st0" d="M120.4,226.6c8.2-3.4,15.9-8,21.3-14.1c17-19.5,23.8-54.9-4-75c-14.4-10.4-33.7-15.1-54.2-24.7
		c-20.5-9.6-32.2-25-35.6-45.5C45.1,50.4,46.2,27.8,69.1,9C28.5,26.2,0,66.5,0,113.4C0,176,50.8,226.8,113.4,226.8
		C115.8,226.8,118.1,226.7,120.4,226.6z"/>
	<path class="st0" d="M164.1,11.9l4,43.6l-6.6,1.9c0,0-8.7-30.7-27-42c-18.3-11.3-52.1-11.6-62,13.2c-9.9,24.8,1.8,50.5,38.4,60.5
		c36.6,10,70.3,22.1,67.9,74.7c-1.8,39.4-24.5,53.5-40.3,60.1c50.6-11.4,88.4-56.6,88.4-110.6C226.8,69,201.3,30.5,164.1,11.9z"/>
</g>
</svg>
