<svg xmlns="http://www.w3.org/2000/svg" width="226.8" height="226.8" viewBox="0 0 226.8 226.8"><path d="M133.32 125.94c.04.13.08.27.12.39.05.13.09.3.15.46 1.06 2.99 2.04 6.06 2.92 9.15l.21.72c.13.46.28.92.4 1.39.83 3.04 1.55 6.12 2.15 9.21.08-.16.17-.32.26-.46.73-1.26 1.42-2.55 2.07-3.85.19-.4.39-.82.58-1.25l.35-.76c.48-1.03 1.12-2.4 1.74-3.9.26-.63.51-1.27.76-1.92l.23-.58c.91-2.31 1.73-4.65 2.47-7.02.41-1.3.83-2.73 1.31-4.49.28-1.01.54-2.02.8-3.05.41-1.68.76-3.41 1.05-4.86l.15-.77c.15-.76.31-1.52.43-2.29.31-1.86.52-3.73.72-5.5l.12-1.02c.07-.55.14-1.11.18-1.66.25-3.01.35-5.72.32-8.28-.03-2.22-.26-4.67-.69-7.5-.08-.52-.18-1.04-.29-1.56l-.15-.79c-.36-1.83-.78-3.59-1.24-5.23-.24-.84-.49-1.68-.76-2.51-.55-1.69-1.21-3.44-2.01-5.31-.11-.26-.22-.51-.32-.78-.15-.39-.31-.78-.48-1.16a69.424 69.424 0 0 0-3.56-6.78c-.14-.24-.3-.46-.45-.69-.13-.18-.26-.38-.38-.57a68.168 68.168 0 0 0-3.47-4.98c-.42-.54-.85-1.06-1.28-1.57l-.27-.32c-1.08-1.3-2.23-2.55-3.43-3.74l-.03-.07c5.4 8.6 10.59 21.34 8.65 36.91-2.97 23.93-7.44 33.76-9.33 36.99zM68.19 200.83c.97-.17 1.97-.52 3.13-1.13.25-.13.49-.27.74-.41.96-.58 1.81-1.22 2.54-1.93.03-.03.07-.06.11-.09.79-.77 1.53-1.65 2.36-2.82l.49-.71.05-.08c.68-1.03 1.25-1.99 1.75-2.95.03-.06.07-.13.11-.19l.09-.15a49.54 49.54 0 0 0 1.6-3.55l.37-.95c.4-1.04.77-2.08 1.1-3.09l.17-.53c.34-1.07.66-2.16.96-3.37l.25-.96c.17-.69.33-1.35.47-1.99-4.29 2.2-10.17 4.88-15.16 5.96-6.26 1.36-11.61 2.81-13.97 6.83l-.12.21c-.01.01-.01.03-.02.04l-.11.23c-.96 2.07-.84 5.76 1.26 8.49 2.33 3 6.41 4.1 11.83 3.14z"/><path d="M95.27 130.36c-8.89-17.3-21.36-34.56-34.21-47.34-1.8-1.79-3.64-3.66-5.88-5.98 2.65 4.94 5.4 9.92 8.1 14.82l.26.47.05.09.11.21c9.08 16.45 18.47 33.46 23.47 47.9 6.19 17.84 5.71 26.86 4.84 30.69-.05.42-.22 1.53-.5 3.03-1.44 7.94-6.16 26.99-18.76 32.07-1.14.45-2.3.78-3.45.99-1.35.24-2.7.36-4.22.39-.02 0-.05 0-.07.01-.13.01-.25.02-.36.02-.19 0-.37-.01-.57-.04h-.03c-1.61-.04-3.08-.22-4.34-.53a16.89 16.89 0 0 1-3.59-1.37l-.07-.03-.18-.09-.1-.04-.1-.06c-.12-.07-.23-.13-.35-.2-.08 1.44-.16 2.81-.23 4.03-.21 3.7 1.09 7.34 3.58 10 3.57 3.82 7.75 6.15 12.43 6.93.9.15 1.84.29 3.03.45 18.77-1.3 32.31-19.6 34.52-46.7 1.09-13.18-3.67-30.83-13.38-49.72z"/><path d="M130.29 191.84c2.18-6.37 3.57-13.42 4.12-20.98.39-5.28.17-10.98-.66-16.93-1.15-8.26-3.5-17.29-6.98-26.82-12.89-35.13-37.11-66.85-44.22-75.73-10.78-13.47-14.75-25.71-11.46-35.4C73.42 9.13 79.15 3.78 88.18 0 68.23 3.05 54.25 13.98 48.6 20.85c-6.11 7.44-9.84 12.66-7.75 23.14h.05l.33 1.66.03.18.1.29.11.32c.85 1.94 4.81 9.18 21.69 26.43 1.26 1.28 2.59 2.63 4 4.03 26.26 26.14 52.75 71.41 50.11 103.85-.19 2.43-.52 4.92-1.06 8.08l-.05.3c-.08.47-.15.91-.24 1.35-.48 2.53-1.07 5-1.74 7.32-.05.18-.11.39-.18.59l-.04.13-.05.16c-.03.09-.06.19-.09.29-.67 2.19-1.43 4.3-2.26 6.3l-.08.19-.07.17-.05.12c-.07.18-.13.35-.21.52-.9 2.08-1.93 4.14-3.05 6.11-.2.37-.44.77-.72 1.22-1.32 2.21-2.52 3.97-3.73 5.52-.09.13-.19.23-.26.31l-.03.04c-1.16 1.47-2.5 2.95-4.1 4.5l-.25.25c-.11.11-.19.18-.26.26-.15.15-.3.29-.45.43-.68.63-1.39 1.25-2.12 1.84 2.02-.36 3.92-.84 5.69-1.43 1.17-.46 19.67-7.89 28.42-33.48z"/><path d="M174.7 151.78c7.45-18.2 28.49-80.93-13.75-124.22l-2.22-2.16c-.36-.33-.84-.78-1.35-1.23l-.28-.25c-.06-.05-.13-.11-.19-.17l-.18-.15-.33-.28c-8.44-7.28-25.53-19.47-45.32-19.47h-.42c-3.56.03-7.1.47-10.52 1.31-11.78 2.9-18.81 7.47-20.88 13.58-.31.93-.51 1.92-.61 3-.01.09 0 .25.01.4.01.17.01.39.01.6-.02.91-.03 1.56.04 2.2.02.17.06.38.1.6l.04.22.09.51.02.12.01.06c.12.66.23 1.28.39 1.87.11.39.26.83.39 1.2l.09.27c.21.64.45 1.34.72 2.01.18.45.38.89.58 1.33l.12.25c.33.73.63 1.34.92 1.91.26.5.55 1.03.88 1.6.38.67.73 1.26 1.07 1.8.3.48.61.98 1.04 1.62.33.5.66.98.99 1.46 3.92-3.71 10.93-8.33 21.52-8.33 3.2 0 6.56.43 9.99 1.29 1.85.46 3.76 1.1 5.68 1.9 22.17 9.38 35.75 37.28 36.07 58.83.04 2.79-.06 5.75-.3 8.78-.06.75-.16 1.52-.25 2.14-.06.42-.11.82-.16 1.23l-.11 1.03-.03.25c-.15 1.33-.3 2.7-.52 4.07-.13.81-.3 1.6-.46 2.36l-.06.31c-.05.23-.09.43-.13.63-.04.21-.09.42-.13.63l-.23 1.2c-.25 1.34-.47 2.42-.71 3.4-.2.82-.43 1.67-.75 2.75-.05.18-.11.39-.17.59-.06.2-.11.39-.17.59l-.29 1.09c-.33 1.25-.61 2.25-.88 3.14-.28.9-.59 1.76-.89 2.59-.15.39-.27.76-.4 1.12l-.38 1.1-.17.49c-.27.78-.55 1.59-.85 2.36-.3.76-.61 1.45-.9 2.13l-.11.24-.83 1.9c-.36.87-.77 1.82-1.2 2.72-.34.71-.68 1.35-1.02 1.96-.06.12-.14.26-.22.41l-.21.39-.36.69-.1.19c-.43.84-.88 1.7-1.36 2.5-.35.6-.72 1.15-1.03 1.6-.12.19-.26.39-.4.6-.12.19-.23.36-.34.53l-.18.29c-.2.34-.4.65-.6.95.13 1.21.21 2.39.28 3.53l.01.12.08 1.26c.03.37.07.77.11 1.16.06.66.13 1.34.15 2.02.11 3.08.06 6.09-.15 8.94-.19 2.5-.48 5.08-.89 7.86-.09.55-.18 1.06-.28 1.57l-.14.79c-.27 1.57-.58 3.24-.97 4.89-.16.67-.33 1.37-.54 2.14l-.09.37c-.48 1.79-.84 3.06-1.19 4.15-.25.79-.52 1.6-.79 2.37-.45 1.27-.92 2.5-1.43 3.74l-.22.53-.06.15c-.19.47-.39.95-.61 1.42-.28.64-.59 1.3-.98 2.08 18.81-15.55 32.19-32.93 39.89-51.72z"/></svg>