<?xml version="1.0" encoding="utf-8"?>
<!-- Generator: Adobe Illustrator 23.0.2, SVG Export Plug-In . SVG Version: 6.00 Build 0)  -->
<svg version="1.1" id="Слой_1" xmlns="http://www.w3.org/2000/svg" xmlns:xlink="http://www.w3.org/1999/xlink" x="0px" y="0px"
	 viewBox="0 0 226.8 226.8" style="enable-background:new 0 0 226.8 226.8;" xml:space="preserve">
<g>
	<path d="M133.3,125.9c0,0.1,0.1,0.3,0.1,0.4c0.1,0.1,0.1,0.3,0.1,0.5c1.1,3,2,6.1,2.9,9.2l0.2,0.7c0.1,0.5,0.3,0.9,0.4,1.4
		c0.8,3,1.6,6.1,2.1,9.2c0.1-0.2,0.2-0.3,0.3-0.5c0.7-1.3,1.4-2.6,2.1-3.9c0.2-0.4,0.4-0.8,0.6-1.2l0.4-0.8c0.5-1,1.1-2.4,1.7-3.9
		c0.3-0.6,0.5-1.3,0.8-1.9l0.2-0.6c0.9-2.3,1.7-4.6,2.5-7c0.4-1.3,0.8-2.7,1.3-4.5c0.3-1,0.5-2,0.8-3.1c0.4-1.7,0.8-3.4,1.1-4.9
		l0.1-0.8c0.1-0.8,0.3-1.5,0.4-2.3c0.3-1.9,0.5-3.7,0.7-5.5l0.1-1c0.1-0.6,0.1-1.1,0.2-1.7c0.2-3,0.4-5.7,0.3-8.3
		c0-2.2-0.3-4.7-0.7-7.5c-0.1-0.5-0.2-1-0.3-1.6l-0.1-0.8c-0.4-1.8-0.8-3.6-1.2-5.2c-0.2-0.8-0.5-1.7-0.8-2.5
		c-0.6-1.7-1.2-3.4-2-5.3c-0.1-0.3-0.2-0.5-0.3-0.8c-0.1-0.4-0.3-0.8-0.5-1.2c-1.1-2.3-2.2-4.6-3.6-6.8c-0.1-0.2-0.3-0.5-0.4-0.7
		c-0.1-0.2-0.3-0.4-0.4-0.6c-1.1-1.7-2.2-3.4-3.5-5c-0.4-0.5-0.9-1.1-1.3-1.6l-0.3-0.3c-1.1-1.3-2.2-2.5-3.4-3.7l0-0.1
		c5.4,8.6,10.6,21.3,8.6,36.9C139.7,112.9,135.2,122.7,133.3,125.9L133.3,125.9z M68.2,200.8c1-0.2,2-0.5,3.1-1.1
		c0.2-0.1,0.5-0.3,0.7-0.4c1-0.6,1.8-1.2,2.5-1.9c0,0,0.1-0.1,0.1-0.1c0.8-0.8,1.5-1.6,2.4-2.8l0.5-0.7l0.1-0.1c0.7-1,1.2-2,1.8-2.9
		c0-0.1,0.1-0.1,0.1-0.2l0.1-0.1c0.6-1.2,1.1-2.3,1.6-3.6l0.4-0.9c0.4-1,0.8-2.1,1.1-3.1l0.2-0.5c0.3-1.1,0.7-2.2,1-3.4l0.2-1
		c0.2-0.7,0.3-1.4,0.5-2c-4.3,2.2-10.2,4.9-15.2,6c-6.3,1.4-11.6,2.8-14,6.8l-0.1,0.2c0,0,0,0,0,0l-0.1,0.2c-1,2.1-0.8,5.8,1.3,8.5
		C58.7,200.7,62.8,201.8,68.2,200.8L68.2,200.8z"/>
	<path d="M95.3,130.4C86.4,113.1,73.9,95.8,61.1,83c-1.8-1.8-3.6-3.7-5.9-6c2.7,4.9,5.4,9.9,8.1,14.8l0.3,0.5l0,0.1l0.1,0.2
		c9.1,16.5,18.5,33.5,23.5,47.9c6.2,17.8,5.7,26.9,4.8,30.7c-0.1,0.4-0.2,1.5-0.5,3c-1.4,7.9-6.2,27-18.8,32.1
		c-1.1,0.4-2.3,0.8-3.4,1c-1.3,0.2-2.7,0.4-4.2,0.4c0,0-0.1,0-0.1,0c-0.1,0-0.2,0-0.4,0c-0.2,0-0.4,0-0.6,0h0
		c-1.6,0-3.1-0.2-4.3-0.5c-1.2-0.3-2.4-0.8-3.6-1.4l-0.1,0l-0.2-0.1l-0.1,0l-0.1-0.1c-0.1-0.1-0.2-0.1-0.3-0.2
		c-0.1,1.4-0.2,2.8-0.2,4c-0.2,3.7,1.1,7.3,3.6,10c3.6,3.8,7.8,6.1,12.4,6.9c0.9,0.1,1.8,0.3,3,0.4c18.8-1.3,32.3-19.6,34.5-46.7
		C109.7,166.9,105,149.3,95.3,130.4L95.3,130.4z"/>
	<path d="M130.3,191.8c2.2-6.4,3.6-13.4,4.1-21c0.4-5.3,0.2-11-0.7-16.9c-1.1-8.3-3.5-17.3-7-26.8C113.9,92,89.7,60.3,82.5,51.4
		C71.8,37.9,67.8,25.7,71.1,16c2.3-6.8,8.1-12.2,17.1-16C68.2,3,54.2,14,48.6,20.9c-6.1,7.4-9.8,12.7-7.8,23.1h0l0.3,1.7l0,0.2
		l0.1,0.3l0.1,0.3c0.8,1.9,4.8,9.2,21.7,26.4c1.3,1.3,2.6,2.6,4,4c26.3,26.1,52.8,71.4,50.1,103.9c-0.2,2.4-0.5,4.9-1.1,8.1
		l-0.1,0.3c-0.1,0.5-0.2,0.9-0.2,1.4c-0.5,2.5-1.1,5-1.7,7.3c-0.1,0.2-0.1,0.4-0.2,0.6l0,0.1l-0.1,0.2c0,0.1-0.1,0.2-0.1,0.3
		c-0.7,2.2-1.4,4.3-2.3,6.3l-0.1,0.2l-0.1,0.2l-0.1,0.1c-0.1,0.2-0.1,0.4-0.2,0.5c-0.9,2.1-1.9,4.1-3.1,6.1
		c-0.2,0.4-0.4,0.8-0.7,1.2c-1.3,2.2-2.5,4-3.7,5.5c-0.1,0.1-0.2,0.2-0.3,0.3l0,0c-1.2,1.5-2.5,2.9-4.1,4.5l-0.2,0.2
		c-0.1,0.1-0.2,0.2-0.3,0.3c-0.2,0.1-0.3,0.3-0.4,0.4c-0.7,0.6-1.4,1.2-2.1,1.8c2-0.4,3.9-0.8,5.7-1.4
		C103,224.9,121.5,217.4,130.3,191.8L130.3,191.8z"/>
	<path d="M174.7,151.8c7.4-18.2,28.5-80.9-13.8-124.2l-2.2-2.2c-0.4-0.3-0.8-0.8-1.4-1.2l-0.3-0.2c-0.1,0-0.1-0.1-0.2-0.2l-0.2-0.1
		l-0.3-0.3C148,16,130.9,3.8,111.1,3.8h-0.4c-3.6,0-7.1,0.5-10.5,1.3c-11.8,2.9-18.8,7.5-20.9,13.6c-0.3,0.9-0.5,1.9-0.6,3
		c0,0.1,0,0.2,0,0.4c0,0.2,0,0.4,0,0.6c0,0.9,0,1.6,0,2.2c0,0.2,0.1,0.4,0.1,0.6l0,0.2l0.1,0.5l0,0.1l0,0.1c0.1,0.7,0.2,1.3,0.4,1.9
		c0.1,0.4,0.3,0.8,0.4,1.2l0.1,0.3c0.2,0.6,0.4,1.3,0.7,2c0.2,0.4,0.4,0.9,0.6,1.3l0.1,0.2c0.3,0.7,0.6,1.3,0.9,1.9
		c0.3,0.5,0.6,1,0.9,1.6c0.4,0.7,0.7,1.3,1.1,1.8c0.3,0.5,0.6,1,1,1.6c0.3,0.5,0.7,1,1,1.5c3.9-3.7,10.9-8.3,21.5-8.3
		c3.2,0,6.6,0.4,10,1.3c1.8,0.5,3.8,1.1,5.7,1.9c22.2,9.4,35.8,37.3,36.1,58.8c0,2.8-0.1,5.8-0.3,8.8c-0.1,0.8-0.2,1.5-0.2,2.1
		c-0.1,0.4-0.1,0.8-0.2,1.2l-0.1,1l0,0.2c-0.1,1.3-0.3,2.7-0.5,4.1c-0.1,0.8-0.3,1.6-0.5,2.4l-0.1,0.3c-0.1,0.2-0.1,0.4-0.1,0.6
		c0,0.2-0.1,0.4-0.1,0.6l-0.2,1.2c-0.2,1.3-0.5,2.4-0.7,3.4c-0.2,0.8-0.4,1.7-0.8,2.8c-0.1,0.2-0.1,0.4-0.2,0.6s-0.1,0.4-0.2,0.6
		l-0.3,1.1c-0.3,1.2-0.6,2.2-0.9,3.1c-0.3,0.9-0.6,1.8-0.9,2.6c-0.1,0.4-0.3,0.8-0.4,1.1l-0.4,1.1l-0.2,0.5
		c-0.3,0.8-0.6,1.6-0.9,2.4c-0.3,0.8-0.6,1.4-0.9,2.1l-0.1,0.2l-0.8,1.9c-0.4,0.9-0.8,1.8-1.2,2.7c-0.3,0.7-0.7,1.4-1,2
		c-0.1,0.1-0.1,0.3-0.2,0.4l-0.2,0.4l-0.4,0.7l-0.1,0.2c-0.4,0.8-0.9,1.7-1.4,2.5c-0.4,0.6-0.7,1.1-1,1.6c-0.1,0.2-0.3,0.4-0.4,0.6
		c-0.1,0.2-0.2,0.4-0.3,0.5l-0.2,0.3c-0.2,0.3-0.4,0.6-0.6,0.9c0.1,1.2,0.2,2.4,0.3,3.5l0,0.1l0.1,1.3c0,0.4,0.1,0.8,0.1,1.2
		c0.1,0.7,0.1,1.3,0.1,2c0.1,3.1,0.1,6.1-0.1,8.9c-0.2,2.5-0.5,5.1-0.9,7.9c-0.1,0.6-0.2,1.1-0.3,1.6l-0.1,0.8
		c-0.3,1.6-0.6,3.2-1,4.9c-0.2,0.7-0.3,1.4-0.5,2.1l-0.1,0.4c-0.5,1.8-0.8,3.1-1.2,4.1c-0.2,0.8-0.5,1.6-0.8,2.4
		c-0.4,1.3-0.9,2.5-1.4,3.7l-0.2,0.5l-0.1,0.1c-0.2,0.5-0.4,0.9-0.6,1.4c-0.3,0.6-0.6,1.3-1,2.1C153.6,187.9,167,170.6,174.7,151.8
		L174.7,151.8z"/>
</g>
</svg>
