<svg xmlns="http://www.w3.org/2000/svg" viewBox="0 0 226.8 226.8"><path d="M163.8 28.5c-6.3-6.3-32.4-32.2-75.1-27.3-22.8 2.7-54.7 17.4-59 42.9-2.3 13.4 5.2 25.9 12.1 36.6 9 13.9 17.8 27.8 24.2 43.1 8.4 19.8 12.7 52.3-18.3 64.7.3 26.7 20.6 41.4 51.1 38 28.8-3.3 53.8-28 69.7-51.3 29.9-43.5 33.3-108.5-4.7-146.7zm-61.9 150c-1.9 9.6-6.1 26.1-14.9 31.5-10.2 6.3-24.5-3.6-25-13.8 4.4-2.2 16.6-13 20.6-22.2 4.7-10.8 9.9-45.1-18.2-78.5 31.5 29.3 43.4 53.3 37.5 83zm32.3-4.3c-2.9 18.7-8.9 32.1-30.4 38.5 4.9-7.3 12-23.9 12.6-39 1.3-31.3-15.5-58.3-36.6-80.2C69.4 82.6 50 66 45.5 55.3 38.9 39.6 59 24.2 69.1 18.8c-8.2 11.6 1.8 27.5 8.1 36.3 14 19.8 31.1 37 42.9 58.6 10.1 18.5 17.4 39.1 14.1 60.5zm7.4-47.5c-9.1-21.9-22.9-42-44.7-70.3 3.2-3.7 10.5-4 20-1.2 26.1 8.9 32.1 45.9 25 70.3 0 .1-.3 1.2-.3 1.2zm3.6 57.2c1.9-7.6 5-25.7 2.5-38.9 9.2-14.6 16.3-48.6 3.8-74.6-10.7-22.2-39-38.7-62.6-27l-1.4.8c-20-34.9 17.5-33.7 37.6-25.5 22.3 9.1 40.7 29.3 48 52.5 11.6 37-1.6 84.3-27.9 112.7z"/></svg>