<svg xmlns="http://www.w3.org/2000/svg" width="226.8" height="226.8" viewBox="0 0 226.8 226.8"><path d="M113.4 0C50.8 0 0 50.8 0 113.4s50.8 113.4 113.4 113.4S226.8 176 226.8 113.4 176 0 113.4 0zM91.89 189.82c-.81-.11-1.44-.2-2.05-.3-3.16-.52-5.98-2.1-8.39-4.68-1.68-1.8-2.56-4.25-2.42-6.75.04-.83.1-1.75.15-2.72.08.05.15.09.23.14l.07.04.07.03.12.06.05.02c.79.41 1.58.71 2.42.93.86.21 1.84.33 2.93.36h.02c.13.02.26.03.39.03.08 0 .16 0 .24-.01h.05c1.03-.02 1.94-.1 2.85-.26.78-.14 1.56-.36 2.33-.67 8.5-3.43 11.69-16.28 12.66-21.64.19-1.02.3-1.76.34-2.05.58-2.59.91-8.67-3.27-20.71-3.38-9.74-9.71-21.22-15.84-32.32l-.08-.14-.03-.06-.18-.32c-1.82-3.3-3.68-6.67-5.47-10 1.51 1.56 2.75 2.83 3.97 4.03 8.67 8.63 17.08 20.27 23.08 31.94 6.55 12.75 9.76 24.66 9.04 33.54-1.47 18.28-10.61 30.63-23.28 31.51zm-12.85-25.36l.08-.15c.01-.01.01-.02.01-.03l.08-.14c1.59-2.71 5.21-3.69 9.43-4.61 3.37-.73 7.34-2.54 10.23-4.02-.1.43-.2.88-.32 1.34l-.17.65c-.21.81-.42 1.55-.65 2.27l-.12.36c-.22.68-.47 1.38-.74 2.08l-.25.64c-.37.9-.72 1.68-1.08 2.4l-.06.1c-.03.04-.06.09-.08.13-.34.65-.73 1.3-1.18 1.99l-.03.06-.33.48c-.56.79-1.06 1.38-1.59 1.9-.03.02-.06.04-.08.06-.5.48-1.07.91-1.72 1.3-.17.1-.33.19-.5.28-.78.41-1.45.64-2.11.76-3.66.64-6.41-.1-7.98-2.13-1.41-1.84-1.49-4.32-.84-5.72zm53.52-12.36c-.37 5.1-1.31 9.86-2.78 14.16-5.91 17.27-18.39 22.28-19.17 22.58-1.19.4-2.47.72-3.84.97.49-.4.97-.81 1.43-1.24.1-.09.2-.19.3-.29.05-.05.1-.1.18-.17l.17-.17c1.07-1.05 1.98-2.05 2.76-3.04l.02-.03c.05-.05.11-.12.18-.21.82-1.04 1.62-2.24 2.52-3.73.19-.3.35-.57.48-.82.76-1.33 1.45-2.72 2.06-4.12.05-.11.1-.23.14-.35l.03-.08.05-.11.05-.13c.56-1.35 1.07-2.77 1.52-4.25.02-.07.04-.13.06-.19l.03-.11.03-.09c.05-.14.09-.28.12-.4.45-1.57.85-3.23 1.17-4.94.06-.3.11-.59.16-.91l.03-.2c.36-2.13.58-3.81.71-5.45 1.78-21.89-16.09-52.44-33.82-70.08-.95-.94-1.85-1.85-2.7-2.72-11.36-11.64-14.04-16.53-14.61-17.84l-.07-.22-.07-.19-.02-.12-.22-1.12h-.03c-1.41-7.08 1.1-10.6 5.23-15.62 3.81-4.64 13.25-12.01 26.71-14.07-6.09 2.55-9.96 6.16-11.54 10.79-2.22 6.54.46 14.79 7.74 23.89 4.8 6 21.15 27.4 29.84 51.11 2.35 6.43 3.94 12.52 4.71 18.1.55 4 .7 7.84.44 11.41zm-.28-80.18l.04.04c.81.81 1.58 1.65 2.31 2.53l.18.21c.29.35.58.69.87 1.06.83 1.08 1.61 2.2 2.34 3.36.08.13.17.26.26.39.1.15.21.3.3.46.88 1.48 1.69 3.01 2.4 4.58.12.26.22.52.33.78.07.18.14.35.21.53.54 1.27.98 2.44 1.36 3.59a45.773 45.773 0 0 1 1.35 5.23l.1.53c.07.35.14.7.19 1.05.29 1.91.44 3.57.46 5.06.02 1.72-.05 3.56-.21 5.59-.03.37-.08.75-.12 1.12l-.08.69c-.13 1.19-.28 2.46-.48 3.71-.08.52-.19 1.03-.29 1.54l-.1.52c-.19.98-.43 2.15-.71 3.28-.17.69-.35 1.38-.54 2.06-.33 1.19-.61 2.15-.89 3.03-.5 1.6-1.06 3.18-1.67 4.74l-.15.39c-.17.44-.34.87-.51 1.29a56.26 56.26 0 0 1-1.18 2.63l-.24.51c-.13.29-.26.57-.39.84-.44.88-.91 1.74-1.4 2.6-.06.1-.12.2-.17.31-.41-2.09-.9-4.16-1.45-6.22-.08-.31-.18-.62-.27-.93l-.14-.48c-.6-2.08-1.26-4.16-1.97-6.18-.04-.11-.07-.22-.1-.31-.03-.08-.06-.17-.08-.26 1.27-2.18 4.29-8.81 6.29-24.96 1.29-10.51-2.21-19.11-5.85-24.91zm27.46 67.31c-5.2 12.68-14.23 24.4-26.9 34.93.26-.52.47-.97.66-1.4.15-.32.28-.65.41-.96l.04-.1.15-.36c.35-.84.66-1.67.97-2.53.19-.52.37-1.06.53-1.6.24-.74.48-1.6.81-2.8l.06-.25c.14-.52.26-.99.37-1.44.26-1.11.47-2.24.65-3.3l.09-.54c.06-.34.13-.69.19-1.06.28-1.88.47-3.62.6-5.31.14-1.92.18-3.96.1-6.03-.02-.46-.06-.92-.1-1.37-.03-.27-.05-.53-.07-.78l-.06-.85-.01-.08c-.05-.77-.1-1.56-.19-2.38.13-.2.26-.41.4-.64l.12-.19c.07-.12.15-.23.23-.36.09-.14.18-.28.27-.41.21-.31.45-.67.69-1.08.33-.54.63-1.12.92-1.69l.07-.13.24-.47c.05-.09.09-.18.14-.26.05-.1.11-.2.15-.28.23-.42.46-.85.69-1.32.29-.61.57-1.25.81-1.83l.56-1.28.07-.16c.2-.45.4-.92.61-1.43.2-.52.39-1.07.57-1.59l.12-.33.26-.75c.09-.25.17-.5.27-.76.2-.56.41-1.14.6-1.75.19-.6.38-1.27.6-2.12l.2-.73c.04-.13.08-.26.11-.4.04-.14.08-.28.12-.4.22-.73.37-1.3.51-1.86a46 46 0 0 0 .48-2.29l.16-.81.09-.42c.03-.14.06-.27.09-.43l.04-.21c.11-.51.22-1.04.31-1.59.15-.92.25-1.85.35-2.75l.02-.17.07-.7c.03-.28.07-.55.11-.83.06-.42.13-.93.17-1.44.16-2.05.23-4.04.21-5.93-.21-14.55-9.38-33.37-24.34-39.7-1.3-.54-2.59-.98-3.84-1.29-2.31-.58-4.58-.87-6.74-.87-7.15 0-11.88 3.12-14.52 5.62-.22-.32-.45-.65-.67-.98-.29-.43-.5-.77-.7-1.09-.23-.37-.47-.76-.72-1.22-.22-.39-.42-.74-.6-1.08-.2-.38-.4-.79-.62-1.29l-.08-.17c-.13-.3-.27-.59-.39-.9-.18-.45-.34-.92-.49-1.36l-.06-.18c-.09-.25-.19-.55-.26-.81-.11-.4-.18-.82-.26-1.26l-.01-.04-.01-.08-.06-.34-.03-.15c-.03-.15-.06-.28-.07-.4-.05-.43-.04-.88-.03-1.49 0-.14 0-.29-.01-.4 0-.1-.01-.21 0-.27.06-.73.2-1.39.41-2.02 1.4-4.12 6.14-7.21 14.09-9.16 2.3-.57 4.69-.87 7.1-.89h.28c13.36 0 24.89 8.23 30.58 13.14l.22.19.12.1c.05.04.09.08.13.11l.19.17c.34.3.67.6.91.83l1.5 1.46c28.48 29.21 14.28 71.54 9.25 83.82z"/></svg>