<svg version="1.1" id="Layer_1" xmlns="http://www.w3.org/2000/svg" xmlns:xlink="http://www.w3.org/1999/xlink" x="0px" y="0px"
	 viewBox="0 0 226.8 226.8" style="enable-background:new 0 0 226.8 226.8;" xml:space="preserve">
<path class="st0" d="M113.4,0C50.8,0,0,50.8,0,113.4C0,176,50.8,226.8,113.4,226.8c62.6,0,113.4-50.8,113.4-113.4
	C226.8,50.8,176,0,113.4,0z M173.6,149.6l-59.6,38.8l-60.7-39.7v-22.3l60.7,39.6l46.5-30.2l-15.2-9.9l-31.9,21l-17.5-11.4l49.2-31.9
	l28.5,18.3V149.6z M173.6,100.2l-60.7-39.6L66.3,90.8l15.2,9.9l31.9-21l17.5,11.4L81.7,123l-28.5-18.3V77.1l59.6-38.8L173.6,78
	V100.2z"/>
</svg>
