<svg width="227" height="227" viewBox="0 0 227 227" xmlns="http://www.w3.org/2000/svg"><title>snt</title><path d="M113.5 227C50.813 227 0 176.187 0 113.5S50.813 0 113.5 0 227 50.813 227 113.5 176.187 227 113.5 227zM94.347 106.548c15.96 0 23.516 3.086 39.47 3.086 21.614 0 36.433-8.825 36.433-27.091 0-18.26-12.343-27.084-30.361-27.084-29.425 0-54.14 22.452-57.346 52.11a64.865 64.865 0 0 1 11.804-1.014v-.007zm-1.163 10.818c-21.615 0-36.434 8.832-36.434 27.091 0 18.26 12.343 27.084 30.361 27.084 29.425 0 54.14-22.452 57.346-52.11a64.865 64.865 0 0 1-11.804 1.02c-15.96 0-23.516-3.085-39.47-3.085z"/></svg>