<svg width="227" height="227" viewBox="0 0 227 227" xmlns="http://www.w3.org/2000/svg"><title>snt</title><path d="M76.4 100.012c30.966 0 45.624 5.987 76.577 5.987 41.936 0 70.688-17.121 70.688-52.561 0-35.426-23.948-52.548-58.906-52.548-57.09 0-105.04 43.56-111.261 101.104a125.85 125.85 0 0 1 22.901-1.968v-.014zm-2.258 20.989c-41.936 0-70.687 17.135-70.687 52.561s23.948 52.548 58.906 52.548c57.09 0 105.04-43.56 111.26-101.104a125.85 125.85 0 0 1-22.9 1.982c-30.968 0-45.625-5.987-76.579-5.987z"/></svg>