<svg width="227" height="227" viewBox="0 0 227 227" xmlns="http://www.w3.org/2000/svg"><title>srn</title><path d="M113.5 227C50.813 227 0 176.187 0 113.5S50.813 0 113.5 0 227 50.813 227 113.5 176.187 227 113.5 227zm-2.022-131.71c-1.73 6.633-5.64 9.293-6.944 10.173 0 2.213 3.043 15.046 9.115 15.046 4.341 0 8.25-3.98 9.548-15.04-2.17-1.773-4.334-5.752-5.64-10.179-1.737.44-3.9.887-6.079 0zm-6.512 38.938c.873 3.54 3.476 12.386 9.116 12.386 3.908 0 8.25-4.867 9.115-11.946-3.036-1.774-4.334-5.746-5.64-11.946-1.737.44-4.34.887-6.079 0-2.17 5.746-3.901 9.293-6.512 11.506zM70.242 147.94c2.171 3.547 6.512 9.293 11.286 7.08 1.306-.44 1.738-3.98 1.306-7.08-3.476-2.213-5.647-6.193-8.25-12.386-.866.44-2.171.44-3.476 0 .872 6.633.872 10.173-.866 12.386zm-18.23-11.946c1.737 9.733 2.17 10.62 1.737 11.946 3.036 5.753 6.08 8.406 9.981 7.966 1.306 0 .44-3.54-1.298-7.08 0 0-5.207-4.426-8.25-12.385-.865-.447-1.298-.447-2.17-.447zm-11.72 0c0-1.326 3.044 7.08 6.952 11.067 1.731 1.326 3.47 2.653 5.207 5.745.426.887-7.817 1.774-12.159-16.812zm52.955 11.946c2.171 7.966 8.25 7.966 10.421 7.08 3.036-.44 4.341-3.093 4.774-7.96-3.901-2.66-5.207-8.413-6.08-12.392-1.297.44-3.475.44-5.206 0-.433 6.193-.865 11.066-3.902 13.272h-.007zM55.92 134.228c1.738 4.42 6.952 12.833 10.853 12.833 1.738 0 2.604-3.1 1.738-12.393-2.61-1.774-4.78-5.306-6.079-11.067-.865.447-2.603.447-3.901 0-.44 4.874-.873 8.414-2.611 10.627zm-13.457 0c1.305 3.54 4.342 11.066 8.25 12.386 1.738.886 1.738-1.774-.432-11.946 0 0-3.044-2.653-5.214-11.067h-1.724a199.817 199.817 0 0 0-.873 10.627h-.007zm34.724 0c.44 1.773 4.774 10.62 9.988 11.946 6.072 1.326 6.512-6.64 6.512-11.506-3.043-1.774-5.214-5.306-6.512-11.067-1.305.447-3.476.887-5.647 0-.865 5.76-2.17 8.853-4.34 10.627zm-3.901-1.327c2.603 0 4.774-3.986 5.64-11.506-2.172-2.213-4.775-6.192-5.208-15.485-1.305.44-2.603.44-3.476 0-1.298 8.406-2.603 13.272-5.207 15.925 0 2.653 3.037 11.066 8.25 11.066zm-26.914-11.066c2.17 8.853 4.341 11.066 6.08 11.066 3.9 0 3.035-6.64 3.475-11.506-1.312-1.773-3.916-6.192-3.916-15.485h-2.17c-2.604 13.712-2.604 14.159-3.476 15.925h.007zm-8.683-15.485c-.865-.44-5.207 18.138 1.305 26.105.866.886.866-10.173.866-10.173-1.738-3.987-.866-15.486-2.17-15.932zm52.09 15.485c.432 1.327 3.036 11.066 9.98 11.066 4.342 0 7.818-4.873 8.683-11.953-3.476-3.532-5.207-8.406-6.08-15.038-1.297.44-3.475.44-5.206 0-2.603 8.846-4.341 13.712-7.378 15.925zm-35.597-17.252c.433 7.96 2.17 15.926 5.647 15.926 3.901 0 5.64-8.846 6.944-16.373-1.305-.88-3.043-3.54-3.043-9.293a2.603 2.603 0 0 1-3.469 0c-.432.887-2.603 8.414-6.079 9.74zM43.33 120.948c2.177 0 4.341-16.365 4.341-16.365-.865-1.326-1.73-3.987-1.298-9.74-.433.447-1.305 0-1.738 0a41.427 41.427 0 0 1-4.342 9.74c-.865 4.866 0 16.365 3.044 16.365h-.007zm32.993-16.365c.432 5.306 3.036 15.926 8.25 15.926 5.64 0 8.243-7.967 9.548-15.926-3.043-1.773-4.342-4.866-5.214-9.74-2.17.447-3.902.447-5.64-.44-1.738 4.427-5.206 9.293-6.944 10.18zm3.901-11.946c-1.298-1.773-3.036-4.873-2.163-11.506h-3.044c-2.17 4.427-4.774 9.733-8.243 12.386 0 .887.433 10.18 4.775 10.18 3.475 0 6.079-3.98 8.682-11.067l-.007.007zM58.956 81.571h-1.73c0 .447-5.647 10.62-8.25 12.393-.866 4.42-.866 9.732 1.737 10.172 2.604 0 4.342-2.213 7.81-11.066-.865-2.2-1.738-5.306.433-11.492v-.007zm-12.584.447c-6.512 4.42-9.981 20.352-8.25 20.792.433.447 5.646-7.08 5.214-11.506-.44-3.093 4.334-9.733 3.036-9.293v.007zm61.637 10.62c-1.738-1.774-3.901-4.874-4.774-11.507-1.305.44-3.476.44-4.774 0-1.305 3.98-3.476 9.293-7.817 12.386.872 4.426 3.043 9.74 6.952 10.18 7.377 0 9.108-6.193 10.413-11.067v.007zM48.975 80.683c-4.341 6.64-4.341 12.393-2.603 12.393 2.17 0 8.243-11.066 9.548-13.272-.433-2.214 4.341-6.64 2.603-7.08-3.036 0-8.682 7.52-9.548 7.96zm106.782 54.87c-1.305.44-2.61.44-3.475 0-1.738 5.746-4.342 10.173-8.25 12.386-.426 3.1-.426 6.64 1.305 7.08 4.774 1.773 9.548-3.54 11.286-7.08-1.305-2.213-1.305-5.746-.866-12.386zm17.359 0c-3.036 7.967-8.243 12.386-8.243 12.386-2.17 3.987-3.043 7.08-1.305 7.08 3.901 0 6.944-2.214 9.98-7.96-.425-1.333 0-2.213 1.739-11.952-.866.886-1.738.886-2.171.446zm6.952 11.507c3.901-3.987 6.505-12.393 7.377-11.067-4.341 18.586-12.591 17.7-12.158 16.812 1.305-3.092 3.036-3.98 4.774-5.745h.007zm-49.926-11.507c-1.73.44-3.476.44-5.207 0-.865 3.98-2.603 9.293-6.072 12.386.865 4.427 1.73 7.08 4.774 7.966 2.17.44 8.243.44 10.414-7.08-2.604-3.1-3.902-7.965-3.902-13.272h-.007zm39.065-12.392c-1.211.68-2.69.68-3.901 0-1.306 4.866-3.476 9.292-6.08 11.066-.865 9.293 0 12.386 1.738 12.386 3.476 0 9.116-8.406 10.854-12.833-2.171-1.773-2.61-5.306-2.61-10.62zm15.628.886h-1.731c-2.17 7.967-5.214 11.067-5.214 11.067-2.17 9.732-2.603 12.385-.426 11.946 3.47-1.334 6.505-8.853 8.243-12.393-.872-1.327-.872-7.08-.872-10.62zm-38.633-.886c-2.17.886-4.334.447-5.64 0-1.305 5.313-3.475 9.292-6.511 11.066 0 4.42.432 12.833 6.512 11.499 4.774-.88 9.548-9.733 9.98-11.946-2.603-1.327-3.475-4.42-4.34-10.62zm16.5-1.327c-2.17-2.653-3.476-7.959-5.214-15.925a4.71 4.71 0 0 1-3.476 0c-.425 9.293-3.029 13.712-5.2 15.485.866 7.08 3.037 11.506 5.64 11.506 4.342 0 7.81-8.413 8.25-11.066zm15.188-15.925c-.865 0-1.298.44-2.17 0 0 9.293-2.171 13.712-3.902 15.485.425 4.427-.44 11.506 3.476 11.506 1.73 0 3.901-2.66 6.072-11.066-.873-1.773-1.305-2.213-3.476-15.925zm9.115 15.925s0 11.066.873 10.18c6.505-7.08 2.603-26.552 1.298-26.105-.865.886 0 12.385-2.17 15.925zm-55.558-15.925c-2.17.44-4.341.44-5.207 0-.872 6.632-3.043 11.506-6.079 15.038 1.305 6.64 3.902 12.393 8.683 11.953 6.08 0 9.548-9.74 9.98-11.066-3.9-2.213-6.072-7.08-7.377-15.925zm36.03-11.067a4.15 4.15 0 0 1-3.91.447c0 5.306-1.737 8.406-3.035 9.733 1.298 7.966 3.036 16.372 6.944 16.372 3.476 0 5.64-8.406 5.64-15.932-3.036-2.206-5.64-9.733-5.64-10.62zm19.528 9.74s-2.17-3.987-3.901-9.74a1.298 1.298 0 0 1-1.738 0c.433 4.874-.433 7.967-1.305 9.293 0 0 2.17 16.373 4.341 16.373 2.17.44 3.036-11.067 2.603-15.926zm-42.534-9.74c-1.738.887-3.908.887-5.646.447-.433 4.427-2.171 7.967-4.774 9.733 1.305 8.406 3.036 16.372 9.548 15.925 4.774 0 7.817-10.612 8.25-15.925-2.604-1.327-5.647-6.193-7.378-10.18zm10.854 8.414c4.334 0 4.767-8.853 4.767-10.18-3.036-2.213-5.64-7.08-8.243-11.946-.866.44-1.738.44-3.036 0 .865 6.193-.44 9.733-2.171 11.506 3.036 7.08 5.64 11.06 8.676 10.62h.007zm13.882-10.62c3.043 8.846 4.781 11.06 6.952 11.06 2.603-.44 2.603-5.314 1.731-10.18-2.17-1.327-8.243-11.946-8.243-12.386h-1.738c2.603 6.633 1.738 9.733 1.298 11.506zm14.755-1.333c-.425 3.986 4.349 11.953 4.781 11.506 1.306-.44-1.305-16.373-8.25-20.792-.425-.447 3.909 6.193 3.476 9.293l-.007-.007zm-55.118 11.953c4.341-.447 6.512-4.874 6.945-10.18-3.476-2.653-5.647-7.966-6.952-11.946-1.298.44-3.47.44-4.767 0-.433 6.193-2.604 10.173-4.774 11.506 1.298 4.867 3.036 11.06 9.548 10.62zm40.363-30.532c-1.73 0 3.043 4.866 2.61 7.08 1.299 2.213 6.945 13.265 9.549 13.265 1.738 0 1.738-5.306-3.043-12.386-.426-.44-6.945-7.959-9.116-7.959zm-96.361 1.327s.872-2.214-.426-2.653c-2.178 0-8.25 8.406-10.853 9.732-.44.887-3.909 11.066.425 11.946 3.909.44 8.25-7.08 10.854-12.393-1.298-1.326-.866-3.972 0-6.632zm20.401-.44c0-.447 0-2.66-2.17-2.66-2.604 0-6.073 8.406-9.981 9.732-.866 4.874 0 11.506 3.901 11.953 5.647.44 9.123-6.64 10.854-11.953-2.164-1.326-2.604-4.42-2.604-7.072zm61.645 7.072c2.596 4.874 6.505 12.84 10.846 12.393 4.342-.887.866-11.066.433-11.946-2.603-1.326-8.683-9.732-10.853-9.732-1.299 0-.426 2.213-.426 2.653.865 2.653.865 5.306 0 6.632zm-23.012 0c1.738 4.874 4.774 12.84 10.853 11.953 4.342-.447 5.207-6.2 3.902-11.953-3.469-1.326-7.803-10.172-9.981-9.732-2.17 0-2.17 2.213-2.17 2.66-.426 2.653-.866 5.746-2.604 7.072zm-18.231-9.732c-4.774 0-3.036 7.966-8.243 10.18.426 3.979 1.73 11.945 7.81 11.945 6.952 0 8.25-9.733 8.25-11.946-3.476-1.773-3.476-10.18-7.817-10.18z"/></svg>