<svg width="227" height="227" viewBox="0 0 227 227" xmlns="http://www.w3.org/2000/svg"><title>srn</title><path d="M110.577 85.566c-2.503 9.59-8.154 13.436-10.041 14.708 0 3.2 4.4 21.754 13.18 21.754 6.276 0 11.928-5.754 13.805-21.744-3.139-2.564-6.267-8.318-8.154-14.718-2.513.636-5.641 1.282-8.79 0zm-9.416 56.299c1.262 5.118 5.026 17.908 13.18 17.908 5.651 0 11.928-7.036 13.18-17.272-4.39-2.565-6.267-8.308-8.154-17.273-2.513.636-6.277 1.283-8.79 0-3.139 8.308-5.641 13.437-9.416 16.637zM50.955 161.69c3.139 5.128 9.416 13.436 16.319 10.236 1.887-.636 2.513-5.754 1.887-10.236-5.026-3.2-8.164-8.954-11.929-17.908-1.25.635-3.138.635-5.025 0 1.261 9.59 1.261 14.707-1.252 17.908zm-26.359-17.273c2.513 14.072 3.139 15.355 2.513 17.273 4.39 8.318 8.79 12.154 14.43 11.518 1.888 0 .637-5.118-1.876-10.236 0 0-7.528-6.4-11.928-17.908-1.252-.647-1.877-.647-3.139-.647zm-16.944 0c0-1.917 4.4 10.237 10.052 16 2.502 1.919 5.015 3.837 7.528 8.309.615 1.282-11.303 2.564-17.58-24.309zm76.565 17.273c3.139 11.518 11.929 11.518 15.067 10.236 4.39-.636 6.277-4.472 6.903-11.508-5.641-3.846-7.528-12.165-8.79-17.918-1.877.635-5.026.635-7.528 0-.626 8.953-1.251 16-5.641 19.19h-.01zm-53.97-19.826c2.513 6.39 10.052 18.554 15.693 18.554 2.513 0 3.764-4.482 2.513-17.918-3.775-2.565-6.913-7.672-8.79-16-1.251.645-3.764.645-5.641 0-.636 7.046-1.262 12.164-3.775 15.364zm-19.456 0c1.887 5.118 6.277 16 11.928 17.908 2.513 1.282 2.513-2.565-.626-17.272 0 0-4.4-3.836-7.538-16h-2.492a288.907 288.907 0 0 0-1.262 15.364h-.01zm50.206 0c.636 2.564 6.902 15.354 14.44 17.272 8.78 1.918 9.416-9.6 9.416-16.636-4.4-2.565-7.538-7.672-9.415-16-1.887.645-5.026 1.281-8.164 0-1.252 8.328-3.139 12.8-6.277 15.364zm-5.641-1.918c3.764 0 6.902-5.765 8.153-16.637-3.138-3.2-6.902-8.954-7.528-22.39-1.887.636-3.764.636-5.026 0-1.877 12.154-3.764 19.19-7.528 23.026 0 3.836 4.39 16 11.929 16zm-38.914-16c3.139 12.8 6.277 16 8.79 16 5.641 0 4.39-9.6 5.026-16.637-1.898-2.564-5.662-8.954-5.662-22.39h-3.138c-3.765 19.826-3.765 20.472-5.026 23.026h.01zm-12.554-22.39c-1.251-.637-7.528 26.225 1.887 37.743 1.252 1.283 1.252-14.707 1.252-14.707-2.513-5.765-1.252-22.39-3.139-23.037zm75.314 22.39c.626 1.917 4.39 16 14.431 16 6.277 0 11.303-7.047 12.554-17.283-5.026-5.107-7.528-12.154-8.79-21.744-1.877.636-5.026.636-7.528 0-3.764 12.79-6.277 19.826-10.667 23.026zM27.735 99.001c.625 11.508 3.138 23.026 8.164 23.026 5.64 0 8.154-12.79 10.041-23.672-1.887-1.272-4.4-5.118-4.4-13.436a3.764 3.764 0 0 1-5.016 0c-.625 1.282-3.764 12.164-8.79 14.082zm-15.693 23.662c3.149 0 6.277-23.662 6.277-23.662-1.251-1.918-2.503-5.764-1.877-14.082-.626.646-1.887 0-2.513 0a59.898 59.898 0 0 1-6.277 14.082c-1.251 7.036 0 23.662 4.4 23.662h-.01zm47.703-23.662c.626 7.672 4.39 23.026 11.929 23.026 8.154 0 11.918-11.518 13.805-23.026-4.4-2.564-6.277-7.036-7.539-14.082-3.138.646-5.64.646-8.153-.636-2.513 6.4-7.529 13.436-10.042 14.718zm5.641-17.272c-1.877-2.564-4.39-7.046-3.128-16.636h-4.4c-3.138 6.4-6.903 14.072-11.918 17.908 0 1.282.626 14.718 6.903 14.718 5.025 0 8.79-5.754 12.554-16l-.01.01zm-30.749-16h-2.502c0 .646-8.165 15.354-11.929 17.918-1.251 6.39-1.251 14.072 2.513 14.708 3.764 0 6.277-3.2 11.293-16-1.252-3.18-2.513-7.672.625-16.616v-.01zm-18.195.646c-9.415 6.39-14.43 29.426-11.928 30.062.625.646 8.164-10.236 7.538-16.636-.636-4.472 6.267-14.072 4.39-13.436v.01zm89.12 15.354c-2.513-2.564-5.642-7.046-6.903-16.636-1.887.636-5.026.636-6.903 0-1.887 5.754-5.026 13.436-11.303 17.908 1.262 6.4 4.4 14.082 10.052 14.718 10.667 0 13.17-8.954 15.056-16v.01zM20.205 64.448c-6.277 9.6-6.277 17.918-3.764 17.918 3.139 0 11.918-16 13.805-19.19-.625-3.2 6.277-9.6 3.765-10.236-4.39 0-12.554 10.872-13.806 11.508zm154.392 79.335c-1.887.635-3.774.635-5.025 0-2.513 8.307-6.277 14.707-11.929 17.908-.615 4.482-.615 9.6 1.887 10.236 6.903 2.564 13.806-5.118 16.319-10.236-1.888-3.2-1.888-8.308-1.252-17.908zm25.098 0c-4.39 11.518-11.918 17.908-11.918 17.908-3.138 5.764-4.4 10.236-1.887 10.236 5.641 0 10.041-3.2 14.43-11.508-.615-1.929 0-3.2 2.514-17.283-1.252 1.282-2.513 1.282-3.139.647zm10.052 16.636c5.64-5.764 9.405-17.918 10.666-16-6.277 26.872-18.205 25.59-17.58 24.308 1.888-4.472 4.39-5.754 6.903-8.308h.01zm-72.186-16.636a15.093 15.093 0 0 1-7.528 0c-1.252 5.754-3.765 13.436-8.78 17.908 1.251 6.4 2.503 10.236 6.903 11.518 3.138.636 11.918.636 15.056-10.236-3.764-4.483-5.64-11.519-5.64-19.19h-.011zm56.483-17.919a5.764 5.764 0 0 1-5.641 0c-1.887 7.036-5.026 13.436-8.79 16-1.251 13.437 0 17.909 2.513 17.909 5.025 0 13.18-12.154 15.692-18.555-3.138-2.564-3.774-7.671-3.774-15.354zm22.595 1.282h-2.503c-3.138 11.519-7.538 16-7.538 16-3.139 14.073-3.764 17.909-.616 17.273 5.016-1.929 9.406-12.8 11.919-17.918-1.262-1.918-1.262-10.237-1.262-15.355zm-55.857-1.282c-3.139 1.282-6.267.647-8.154 0-1.887 7.683-5.026 13.436-9.416 16 0 6.39.626 18.555 9.416 16.626 6.902-1.271 13.805-14.072 14.43-17.272-3.763-1.918-5.025-6.39-6.276-15.354zm23.857-1.918c-3.139-3.836-5.026-11.507-7.539-23.026a6.81 6.81 0 0 1-5.026 0c-.615 13.436-4.38 19.826-7.518 22.39 1.251 10.237 4.39 16.637 8.154 16.637 6.277 0 11.293-12.165 11.929-16zm21.959-23.026c-1.251 0-1.877.636-3.139 0 0 13.436-3.138 19.826-5.64 22.39.615 6.4-.637 16.637 5.025 16.637 2.503 0 5.641-3.847 8.78-16-1.262-2.565-1.888-3.2-5.026-23.027zm13.18 23.026s0 16 1.261 14.719c9.405-10.237 3.764-38.39 1.877-37.745-1.251 1.282 0 17.908-3.138 23.026zm-80.33-23.026c-3.138.636-6.277.636-7.528 0-1.262 9.59-4.4 16.637-8.79 21.744 1.887 9.6 5.641 17.919 12.554 17.283 8.79 0 13.805-14.083 14.43-16-5.64-3.2-8.779-10.237-10.666-23.027zm52.093-16a6 6 0 0 1-5.651.646c0 7.672-2.513 12.154-4.39 14.072 1.877 11.518 4.39 23.672 10.041 23.672 5.026 0 8.154-12.154 8.154-23.036-4.39-3.19-8.154-14.072-8.154-15.354zm28.237 14.082s-3.139-5.764-5.642-14.082a1.877 1.877 0 0 1-2.512 0c.625 7.046-.626 11.518-1.888 13.436 0 0 3.139 23.672 6.277 23.672 3.139.636 4.39-16 3.765-23.026zM158.28 84.92c-2.513 1.282-5.651 1.282-8.164.646-.626 6.4-3.139 11.518-6.903 14.072 1.887 12.154 4.39 23.672 13.806 23.026 6.902 0 11.302-15.344 11.928-23.026-3.764-1.918-8.164-8.954-10.667-14.718zm15.693 12.164c6.266 0 6.892-12.8 6.892-14.718-4.39-3.2-8.154-10.236-11.918-17.272-1.251.636-2.513.636-4.39 0 1.251 8.954-.636 14.072-3.138 16.636 4.39 10.236 8.154 15.99 12.543 15.354h.01zm20.072-15.354c4.4 12.79 6.913 15.99 10.051 15.99 3.764-.636 3.764-7.682 2.503-14.718-3.139-1.918-11.918-17.272-11.918-17.908h-2.513c3.764 9.59 2.513 14.072 1.877 16.636zm21.333-1.928c-.615 5.764 6.288 17.282 6.913 16.636 1.888-.636-1.887-23.672-11.928-30.062-.615-.646 5.651 8.954 5.026 13.436l-.01-.01zm-79.693 17.282c6.277-.646 9.415-7.046 10.041-14.718-5.026-3.836-8.164-11.518-10.051-17.272-1.877.636-5.016.636-6.893 0-.625 8.954-3.764 14.708-6.902 16.636 1.877 7.036 4.39 15.99 13.805 15.354zm58.36-44.144c-2.503 0 4.4 7.036 3.774 10.236 1.877 3.2 10.041 19.18 13.806 19.18 2.512 0 2.512-7.672-4.4-17.908-.616-.636-10.042-11.508-13.18-11.508zM54.72 54.858s1.261-3.2-.616-3.836c-3.149 0-11.928 12.154-15.692 14.072-.636 1.282-5.652 16 .615 17.272 5.651.636 11.928-10.236 15.693-17.918-1.877-1.918-1.252-5.744 0-9.59zm29.497-.636c0-.646 0-3.846-3.138-3.846-3.764 0-8.78 12.154-14.431 14.072-1.251 7.046 0 16.636 5.641 17.282 8.164.636 13.19-9.6 15.693-17.282-3.129-1.918-3.765-6.39-3.765-10.226zm89.13 10.226c3.754 7.046 9.405 18.564 15.682 17.918 6.277-1.282 1.252-16 .626-17.272-3.764-1.918-12.554-14.072-15.693-14.072-1.876 0-.615 3.2-.615 3.836 1.251 3.836 1.251 7.672 0 9.59zm-33.272 0c2.513 7.046 6.902 18.564 15.692 17.282 6.277-.646 7.529-8.964 5.641-17.282-5.015-1.918-11.282-14.708-14.43-14.072-3.14 0-3.14 3.2-3.14 3.846-.614 3.836-1.25 8.308-3.763 10.226zm-26.36-14.072c-6.902 0-4.39 11.518-11.918 14.718.616 5.754 2.503 17.272 11.293 17.272 10.051 0 11.928-14.072 11.928-17.272-5.026-2.564-5.026-14.718-11.303-14.718z"/></svg>