<svg version="1.1" id="Layer_1" xmlns="http://www.w3.org/2000/svg" xmlns:xlink="http://www.w3.org/1999/xlink" x="0px" y="0px"
	 width="226.777px" height="226.777px" viewBox="0 0 226.777 226.777" enable-background="new 0 0 226.777 226.777"
	 xml:space="preserve">
<g>
	<path fill="#231F20" d="M146.82,73.769c-0.505-0.429-1.413-0.959-2.73-1.593c-1.316-0.632-2.91-1.207-4.781-1.727
		c-1.869-0.521-3.945-0.945-6.223-1.287c-0.384-0.057-0.791-0.082-1.181-0.126l0.704-9.853c0.133-2.306-1.635-4.291-3.946-4.418
		c-2.293-0.134-4.288,1.633-4.422,3.946l-0.713,10.019c-2.334,0.089-4.576,0.313-6.732,0.671l0.732-10.217
		c0.131-2.306-1.637-4.291-3.948-4.418c-2.292-0.134-4.288,1.633-4.42,3.946l-0.927,12.969c-3.337,1.269-6.293,2.858-8.843,4.795
		c-3.238,2.463-5.766,5.407-7.589,8.837c-1.819,3.429-2.73,7.181-2.73,11.244c0,2.931,0.456,5.505,1.365,7.716
		c0.91,2.216,2.112,4.17,3.605,5.858c1.491,1.693,3.187,3.175,5.086,4.439c1.894,1.262,3.83,2.436,5.805,3.518
		c1.968,1.083,3.905,2.104,5.804,3.054c1.896,0.939,3.59,1.947,5.083,3.008c1.492,1.06,2.694,2.226,3.605,3.49s1.369,2.73,1.369,4.4
		c0,1.85-0.395,3.555-1.181,5.112c-0.782,1.557-1.934,2.924-3.45,4.099c-1.519,1.173-3.406,2.097-5.653,2.776
		c-2.251,0.677-4.872,1.015-7.855,1.015c-3.39,0-6.3-0.363-8.729-1.086c-2.43-0.722-4.529-1.499-6.299-2.335
		c-1.772-0.834-3.252-1.601-4.438-2.301c-1.19-0.701-2.214-1.052-3.072-1.052c-0.508,0-0.977,0.23-1.406,0.68
		c-0.43,0.452-0.824,1.039-1.174,1.762c-0.357,0.72-0.662,1.524-0.913,2.402c-0.254,0.879-0.467,1.741-0.646,2.574
		c-0.177,0.829-0.315,1.61-0.417,2.333c-0.1,0.725-0.152,1.266-0.152,1.626c0,1.358,0.353,2.373,1.063,3.051
		c0.707,0.673,1.794,1.388,3.263,2.131c1.467,0.743,3.277,1.455,5.425,2.133c1.573,0.495,3.374,0.919,5.284,1.305l-0.739,10.351
		c-0.131,2.306,1.635,4.291,3.946,4.42c0.119,0.006,0.239,0.006,0.356,0.004c2.155-0.06,3.94-1.76,4.063-3.95l0.701-9.796
		c0.957,0.043,1.889,0.107,2.895,0.107c1.29,0,2.544-0.053,3.788-0.123l-0.666,9.338c-0.132,2.306,1.635,4.291,3.944,4.42
		c0.119,0.006,0.24,0.006,0.357,0.004c2.155-0.06,3.941-1.76,4.063-3.95l0.78-10.902c1.476-0.308,2.923-0.666,4.316-1.094
		c4.98-1.528,9.231-3.646,12.747-6.328c3.517-2.687,6.235-5.844,8.16-9.483c1.922-3.632,2.883-7.57,2.883-11.816
		c0-2.845-0.456-5.36-1.366-7.547c-0.91-2.192-2.127-4.134-3.642-5.823c-1.519-1.692-3.252-3.188-5.201-4.476
		c-1.946-1.282-3.918-2.47-5.916-3.553c-2.001-1.082-3.974-2.119-5.923-3.113c-1.946-0.989-3.678-2.016-5.195-3.082
		c-1.519-1.059-2.734-2.212-3.646-3.452c-0.909-1.246-1.363-2.679-1.363-4.304c0-1.396,0.289-2.783,0.873-4.163
		c0.579-1.374,1.478-2.62,2.693-3.722c1.213-1.109,2.77-2.001,4.668-2.678c1.896-0.677,4.21-1.015,6.941-1.015
		c2.633,0,4.983,0.282,7.06,0.843c2.073,0.566,3.881,1.18,5.426,1.832c1.543,0.653,2.845,1.265,3.907,1.829
		c1.063,0.563,1.947,0.841,2.658,0.841c0.455,0,0.881-0.224,1.287-0.673c0.406-0.452,0.772-1.028,1.102-1.727
		c0.327-0.7,0.607-1.466,0.833-2.303c0.23-0.838,0.42-1.659,0.573-2.47c0.15-0.819,0.263-1.56,0.34-2.235
		c0.074-0.678,0.114-1.196,0.114-1.561c0-0.721-0.114-1.32-0.342-1.798C147.695,74.647,147.327,74.196,146.82,73.769z"/>
	<path fill="#231F20" d="M113.389,0C50.766,0,0,50.766,0,113.388c0,62.623,50.766,113.389,113.389,113.389
		c62.622,0,113.388-50.766,113.388-113.389C226.777,50.766,176.011,0,113.389,0z M113.388,199.423
		c-47.516,0-86.034-38.521-86.034-86.032c0-47.516,38.519-86.036,86.034-86.036c47.518,0,86.034,38.52,86.034,86.036
		C199.423,160.902,160.906,199.423,113.388,199.423z"/>
</g>
</svg>
