<svg version="1.1" id="Layer_1" xmlns="http://www.w3.org/2000/svg" xmlns:xlink="http://www.w3.org/1999/xlink" x="0px" y="0px"
	 width="226.777px" height="226.777px" viewBox="0 0 226.777 226.777" enable-background="new 0 0 226.777 226.777"
	 xml:space="preserve">
<path fill="#231F20" d="M113.388,0C50.765,0,0,50.767,0,113.392c0,62.618,50.765,113.385,113.389,113.385
	c62.626,0,113.389-50.768,113.389-113.385C226.777,50.767,176.014,0,113.388,0z M159.202,67.375
	c-0.102,0.892-0.248,1.868-0.448,2.947c-0.2,1.069-0.452,2.152-0.754,3.255c-0.298,1.102-0.666,2.112-1.099,3.035
	c-0.434,0.921-0.916,1.682-1.452,2.275c-0.534,0.594-1.097,0.888-1.696,0.888c-0.937,0-2.104-0.368-3.502-1.109
	c-1.401-0.745-3.118-1.549-5.151-2.411c-2.035-0.858-4.418-1.667-7.148-2.413c-2.738-0.74-5.836-1.112-9.306-1.112
	c-3.6,0-6.649,0.445-9.149,1.338c-2.502,0.892-4.553,2.068-6.152,3.53c-1.602,1.451-2.787,3.095-3.55,4.903
	c-0.769,1.819-1.149,3.648-1.149,5.487c0,2.142,0.599,4.031,1.796,5.673c1.202,1.633,2.803,3.152,4.805,4.55
	c1.999,1.403,4.282,2.756,6.849,4.06c2.568,1.31,5.168,2.678,7.807,4.104c2.632,1.427,5.229,2.991,7.795,4.682
	c2.57,1.697,4.854,3.668,6.855,5.899c1.998,2.227,3.601,4.785,4.801,7.674c1.198,2.883,1.799,6.197,1.799,9.948
	c0,5.595-1.267,10.786-3.8,15.572c-2.536,4.797-6.118,8.959-10.753,12.498c-4.634,3.536-10.237,6.326-16.801,8.34
	c-1.836,0.564-3.744,1.036-5.689,1.442l-1.028,14.367c-0.162,2.889-2.515,5.128-5.355,5.207c-0.155,0.004-0.313,0.004-0.471-0.005
	c-3.044-0.172-5.374-2.785-5.199-5.825l0.878-12.308c-1.64,0.094-3.291,0.162-4.993,0.162c-1.324,0-2.554-0.084-3.815-0.142
	l-0.924,12.91c-0.162,2.889-2.514,5.128-5.354,5.207c-0.156,0.004-0.314,0.004-0.47-0.005c-3.046-0.172-5.375-2.785-5.201-5.825
	l0.974-13.642c-2.52-0.509-4.891-1.067-6.966-1.721c-2.832-0.893-5.217-1.83-7.151-2.809c-1.934-0.981-3.367-1.922-4.299-2.81
	c-0.936-0.894-1.401-2.231-1.401-4.021c0-0.476,0.068-1.187,0.201-2.143c0.132-0.951,0.315-1.98,0.548-3.074
	c0.236-1.099,0.516-2.235,0.851-3.394c0.331-1.156,0.732-2.217,1.202-3.167c0.463-0.951,0.981-1.726,1.549-2.319
	c0.566-0.593,1.183-0.896,1.852-0.896c1.131,0,2.48,0.461,4.05,1.387c1.563,0.922,3.513,1.932,5.848,3.03
	c2.333,1.103,5.1,2.128,8.303,3.078c3.199,0.953,7.036,1.433,11.501,1.433c3.934,0,7.387-0.446,10.354-1.338
	c2.962-0.897,5.449-2.113,7.45-3.659c2.001-1.548,3.519-3.352,4.549-5.402c1.036-2.054,1.555-4.3,1.555-6.738
	c0-2.199-0.602-4.132-1.804-5.799c-1.201-1.667-2.786-3.203-4.752-4.601c-1.966-1.396-4.199-2.725-6.698-3.965
	c-2.502-1.251-5.055-2.596-7.649-4.022c-2.604-1.427-5.154-2.975-7.652-4.638c-2.502-1.666-4.737-3.618-6.703-5.849
	c-1.966-2.226-3.553-4.8-4.75-7.723c-1.199-2.912-1.799-6.305-1.799-10.168c0-5.355,1.201-10.298,3.598-14.819
	c2.402-4.521,5.736-8.399,10.002-11.646c3.361-2.553,7.257-4.647,11.656-6.319l1.222-17.092c0.172-3.05,2.804-5.378,5.825-5.202
	c3.046,0.17,5.375,2.784,5.202,5.824l-0.964,13.465c2.841-0.472,5.796-0.766,8.872-0.883l0.94-13.204
	c0.177-3.05,2.806-5.378,5.827-5.202c3.046,0.17,5.376,2.784,5.201,5.824l-0.928,12.985c0.514,0.059,1.051,0.092,1.555,0.166
	c3.003,0.45,5.738,1.01,8.202,1.697c2.466,0.685,4.567,1.441,6.301,2.274c1.736,0.834,2.934,1.536,3.601,2.1
	c0.667,0.562,1.151,1.157,1.451,1.778c0.3,0.628,0.451,1.418,0.451,2.369C159.353,65.801,159.3,66.482,159.202,67.375z"/>
</svg>
