<svg version="1.1" id="Layer_1" xmlns="http://www.w3.org/2000/svg" xmlns:xlink="http://www.w3.org/1999/xlink" x="0px" y="0px"
	 viewBox="0 0 226.8 226.8" style="enable-background:new 0 0 226.8 226.8;" xml:space="preserve">
<path class="st0" d="M113.4,0C50.8,0,0,50.8,0,113.4C0,176,50.8,226.8,113.4,226.8S226.8,176,226.8,113.4C226.8,50.8,176,0,113.4,0z
	 M92.1,138.3c-0.7,7.2-17.4,24.2-19.1,23c-1.9-0.5,5.1-12,2.5-21.6c-3-11.2-20.9-40.1-20.9-52.8c0-9.3,15.3-22,16.6-21.4
	c1.4,0.2-2,9.1-0.1,19.2C72.6,93.3,92.9,126.8,92.1,138.3z M136.2,145.1c-0.8,9.2-22.2,30.8-24.4,29.4c-2.4-0.7,6.5-15.3,3.2-27.6
	c-3.8-14.2-26.7-51.1-26.7-67.4c0-11.9,19.6-28.1,21.1-27.3c1.7,0.3-2.6,11.6-0.2,24.4C111.3,87.7,137.3,130.5,136.2,145.1z
	 M169.9,138.3c-0.6,7.2-17.4,24.2-19.1,23c-1.9-0.5,5.1-12,2.5-21.6c-3-11.2-20.9-40.1-20.9-52.8c0-9.3,15.4-22,16.6-21.4
	c1.4,0.2-2,9.1-0.1,19.2C150.4,93.3,170.8,126.8,169.9,138.3z"/>
</svg>
