<svg version="1.1" id="Layer_1" xmlns="http://www.w3.org/2000/svg" xmlns:xlink="http://www.w3.org/1999/xlink" x="0px" y="0px"
	 width="226.777px" height="226.777px" viewBox="0 0 226.777 226.777" enable-background="new 0 0 226.777 226.777"
	 xml:space="preserve">
<g id="STR">
	<path fill="#231F20" d="M58.019,178.357c-1.382-0.985-3.301-0.662-4.285,0.72L23.351,221.75c-0.984,1.382-0.662,3.301,0.72,4.284
		c0.541,0.385,1.164,0.57,1.78,0.57c0.96,0,1.905-0.449,2.505-1.291l30.383-42.671C59.724,181.26,59.402,179.342,58.019,178.357z"/>
	<path fill="#231F20" d="M65.368,192.358c-1.378-0.988-3.298-0.673-4.287,0.705L44.182,216.62c-0.989,1.379-0.674,3.299,0.706,4.287
		c0.542,0.391,1.168,0.577,1.788,0.577c0.956,0,1.899-0.446,2.499-1.281l16.899-23.556
		C67.063,195.267,66.747,193.348,65.368,192.358z"/>
	<path fill="#231F20" d="M204.398,40.38c0-20.482-6.998-40.282-6.998-40.282s-26.116-1.792-47.964,9.984
		c-21.85,11.776-30.128,26.799-34.225,33.712s-12.631,21.678-12.631,21.678s-18.69-0.34-33.456,7.853
		C54.36,81.517,45.313,96.88,45.313,96.88s9.815-2.816,19.203-2.559c9.388,0.257,18.776,4.18,18.776,4.18s-2.219,3.328-1.792,8.192
		c0.188,2.138,3.044,5.18,6.976,8.491c-0.612,0.802-1.218,1.617-1.811,2.454c-14.018,19.806-17.22,41.635-7.151,48.763
		c10.07,7.126,29.596-3.15,43.613-22.952c0.447-0.632,0.883-1.268,1.307-1.903c3.57,2.249,6.629,3.735,8.53,3.639
		c5.036-0.257,9.388-5.548,9.388-5.548s9.603,12.162,12.034,18.308c2.433,6.145,3.329,17.154,3.329,17.154
		s10.753-12.674,14.149-31.396s-4.933-31.974-4.933-31.974s9.474-11.605,19.203-23.383C195.864,76.567,204.398,60.863,204.398,40.38
		z M119.817,138.853c-9.284,12.569-22.522,18.536-29.572,13.33c-7.049-5.207-5.235-19.616,4.049-32.186
		c0.037-0.051,0.076-0.099,0.114-0.15c3.75,2.803,7.731,5.59,11.074,8.013c4.403,3.193,9.669,7.301,14.527,10.717
		C119.942,138.669,119.885,138.761,119.817,138.853z M155.325,74.433c-11.549,0-20.911-9.362-20.911-20.91
		c0-11.549,9.362-20.91,20.911-20.91c11.548,0,20.909,9.361,20.909,20.91C176.234,65.071,166.873,74.433,155.325,74.433z"/>
</g>
</svg>
