<svg version="1.1" id="Layer_1" xmlns="http://www.w3.org/2000/svg" xmlns:xlink="http://www.w3.org/1999/xlink" x="0px" y="0px"
	 width="226.777px" height="226.777px" viewBox="0 0 226.777 226.777" enable-background="new 0 0 226.777 226.777"
	 xml:space="preserve">
<g id="SRT_alt">
	<path fill="#231F20" d="M130.607,70.618c-8.484,0-15.362,6.876-15.362,15.36c0,8.483,6.878,15.36,15.362,15.36
		c8.481,0,15.359-6.877,15.359-15.36C145.967,77.494,139.089,70.618,130.607,70.618z"/>
	<path fill="#231F20" d="M85.858,134.698c-0.027,0.039-0.057,0.072-0.084,0.11c-6.819,9.232-8.152,19.818-2.972,23.642
		c5.177,3.823,14.9-0.558,21.722-9.792c0.049-0.066,0.091-0.134,0.14-0.202c-3.568-2.508-7.437-5.525-10.671-7.873
		C91.537,138.805,88.614,136.759,85.858,134.698z"/>
	<path fill="#231F20" d="M113.313,0C50.732,0,0,50.732,0,113.313c0,34.818,15.709,65.963,40.42,86.749l15.562-21.855
		c0.722-1.017,2.13-1.253,3.147-0.529c1.015,0.725,1.251,2.132,0.527,3.147l-15.721,22.078c1.546,1.2,3.126,2.357,4.734,3.478
		c0.071-0.206,0.161-0.41,0.295-0.597l12.413-17.304c0.728-1.011,2.137-1.244,3.149-0.518c1.014,0.728,1.245,2.138,0.519,3.15
		l-12.413,17.303c-0.104,0.145-0.224,0.271-0.354,0.383c17.618,11.285,38.563,17.828,61.036,17.828
		c62.581,0,113.313-50.732,113.313-113.313S175.894,0,113.313,0z M153.238,111.559c-7.147,8.649-14.107,17.176-14.107,17.176
		s6.119,9.731,3.624,23.486c-2.493,13.752-10.394,23.063-10.394,23.063s-0.657-8.088-2.447-12.602
		c-1.785-4.515-8.838-13.449-8.838-13.449s-3.196,3.889-6.895,4.077c-1.398,0.069-3.645-1.021-6.268-2.674
		c-0.311,0.468-0.63,0.935-0.959,1.397c-10.296,14.547-24.64,22.095-32.036,16.862c-7.397-5.238-5.047-21.272,5.252-35.819
		c0.435-0.618,0.879-1.215,1.33-1.804c-2.888-2.433-4.986-4.669-5.124-6.238c-0.314-3.574,1.315-6.017,1.315-6.017
		s-6.895-2.882-13.792-3.072c-6.895-0.19-14.107,1.879-14.107,1.879s6.646-11.285,17.493-17.303
		c10.846-6.019,24.576-5.768,24.576-5.768s6.268-10.845,9.279-15.923c3.009-5.08,9.091-16.114,25.14-24.764
		c16.048-8.651,35.233-7.335,35.233-7.335s5.14,14.543,5.14,29.591C166.653,91.369,160.385,102.905,153.238,111.559z"/>
</g>
</svg>
