<svg version="1.1" id="Layer_1" xmlns="http://www.w3.org/2000/svg" xmlns:xlink="http://www.w3.org/1999/xlink" x="0px" y="0px"
	 viewBox="0 0 226.8 226.8" style="enable-background:new 0 0 226.8 226.8;" xml:space="preserve">
<g>
	<polygon class="st0" points="56.2,91.2 113.4,125.9 170.6,91.2 113.4,56.5 	"/>
	<path class="st0" d="M113.4,0C50.8,0,0,50.8,0,113.4C0,176,50.8,226.8,113.4,226.8S226.8,176,226.8,113.4C226.8,50.8,176,0,113.4,0
		z M113.4,178.4l-70.6-42.8l12-7.2l6.7,4.1l-5.3,3.2l57.2,34.7l57.2-34.7l-5.3-3.2l6.7-4.1l12,7.2L113.4,178.4z M113.4,156.2
		l-70.6-42.8l11.3-6.9l6.7,4.1l-4.6,2.8l57.2,34.7l57.2-34.7l-4.6-2.8l6.7-4.1l11.3,6.9L113.4,156.2z M113.4,134L42.8,91.2
		l70.6-42.8L184,91.2L113.4,134z"/>
</g>
</svg>
