<svg version="1.1" id="Layer_1" xmlns="http://www.w3.org/2000/svg" xmlns:xlink="http://www.w3.org/1999/xlink" x="0px" y="0px"
	 width="595.279px" height="595.281px" viewBox="0 0 595.279 595.281" enable-background="new 0 0 595.279 595.281"
	 xml:space="preserve">
<path fill="#231F20" d="M583.452,297.74c-8.46-5.065-19.863-4.672-30.501,1.035c-1.759,0.944-244.654,136.193-254.136,141.963
	c-1.75,1.063-2.625,1.603-6.298-0.403c-3.984-2.172-247.491-138.222-252.74-141.109c-2.319-1.28-5.403-3.56-5.403-8.579v-40.598
	c61.849,34.681,234.116,131.29,242.906,136.218c5.721,3.212,12.181,4.911,18.681,4.911c6.708,0,13.5-1.808,19.656-5.218
	c50.836-28.199,258.129-143.155,264.393-146.628c9.388-5.204,15.171-14.574,15.089-24.453c-0.077-9.288-5.28-17.587-13.924-22.197
	c-5.024-2.68-142.465-78.933-269.411-149.405c-5.122-2.839-10.479-4.286-15.921-4.286c-5.025,0-9.987,1.293-14.347,3.743
	c-40.275,22.583-263.125,147.549-268.61,150.63C4.808,197.894-0.011,206.201,0,215.588c0,0.034,0.006,0.063,0.006,0.094H0v74.964
	c0,16.48,8.461,30.582,23.214,38.693c5.147,2.837,248.71,138.915,252.851,141.172c17.408,9.492,31.692,5.024,40.599-0.397
	c5.65-3.405,199.61-111.763,244.061-136.38v37.657c0,0.46,0,1.853-6.64,6.036c-8.608,5.326-241.883,136.511-252.916,142.49
	c-4.718,2.559-5.303,2.217-7.241,1.104c-8.39-4.82-263.222-147.959-274.067-154.053L3.027,396.941
	c2.654,1.495,265.532,149.152,273.78,153.888c6.955,3.996,13.44,5.462,19.312,5.462c8.621,0,15.913-3.166,21.423-6.15
	c1.919-1.04,245.263-137.573,254.85-143.621c6.21-3.91,22.708-14.313,22.708-35.128v-51.919
	C595.099,310.093,590.856,302.169,583.452,297.74z M296.156,73.922c54.056,30.012,208.972,115.999,255.583,141.785
	c-45.32,25.127-208.483,115.616-252.792,140.188c-1.841,1.018-3.379,1.217-4.848,0.393
	c-9.197-5.161-197.183-110.585-250.734-140.606C92.302,188.236,257.054,95.846,296.156,73.922z"/>
</svg>
