<svg version="1.1" id="Layer_1" xmlns="http://www.w3.org/2000/svg" xmlns:xlink="http://www.w3.org/1999/xlink" x="0px" y="0px"
	 viewBox="0 0 226.8 226.8" style="enable-background:new 0 0 226.8 226.8;" xml:space="preserve">
<g>
	<path class="st0" d="M226.8,77.7L113.4,9L0,77.7l113.4,68.7L226.8,77.7z M113.4,22l91.9,55.7l-91.9,55.7L21.5,77.7L113.4,22z"/>
	<polygon class="st0" points="197.8,108.9 205.2,113.4 113.4,169.1 21.5,113.4 29,108.9 18.2,102.4 0,113.4 113.4,182.1 
		226.8,113.4 208.6,102.4 	"/>
	<polygon class="st0" points="196.8,143.9 205.2,149.1 113.4,204.8 21.5,149.1 30,143.9 19.2,137.4 0,149.1 113.4,217.8 
		226.8,149.1 207.6,137.4 	"/>
</g>
</svg>
