<svg xmlns="http://www.w3.org/2000/svg" viewBox="0 0 227.5 227.5"><path d="M193.5 0H34.1C15.3 0 0 15.3 0 34.1v159.4c0 18.8 15.3 34.1 34.1 34.1h159.4c18.8 0 34.1-15.3 34.1-34.1V34.1c0-18.8-15.3-34.1-34.1-34.1zm-116 170.8c-11.4 0-20.6-9.2-20.6-20.6s9.2-20.6 20.6-20.6S98 138.8 98 150.2s-9.2 20.6-20.5 20.6zm0-72.8c-11.4 0-20.6-9.2-20.6-20.6s9.2-20.6 20.6-20.6S98 66 98 77.4 88.8 98 77.5 98zm72.6 72.8c-11.4 0-20.6-9.2-20.6-20.6s9.2-20.6 20.6-20.6c11.4 0 20.6 9.2 20.6 20.6s-9.2 20.6-20.6 20.6zm0-72.8c-11.4 0-20.6-9.2-20.6-20.6s9.2-20.6 20.6-20.6c11.4 0 20.6 9.2 20.6 20.6S161.5 98 150.1 98z"/></svg>