<svg version="1.1" id="Layer_1" xmlns="http://www.w3.org/2000/svg" xmlns:xlink="http://www.w3.org/1999/xlink" x="0px" y="0px"
	 viewBox="0 0 226.8 226.8" style="enable-background:new 0 0 226.8 226.8;" xml:space="preserve">
<g id="OPAL_1_">
	<polygon class="st0" points="112.1,0 66.7,26.2 112.1,52.4 	"/>
	<polygon class="st0" points="61.8,81.5 61.8,29 16.4,55.2 	"/>
	<polygon class="st0" points="61.8,139.8 61.8,87.4 16.4,113.6 	"/>
	<polygon class="st0" points="162.5,139.8 162.5,87.4 117.1,113.6 	"/>
	<polygon class="st0" points="61.8,198.1 61.8,145.7 16.4,171.9 	"/>
	<polygon class="st0" points="14.9,116.5 14.9,168.9 60.3,142.7 	"/>
	<polygon class="st0" points="14.9,58.2 14.9,110.6 60.3,84.4 	"/>
	<polygon class="st0" points="65.3,29 65.3,81.5 110.7,55.2 	"/>
	<polygon class="st0" points="112.1,226.8 112.1,174.4 66.7,200.6 	"/>
	<polygon class="st0" points="65.3,145.3 65.3,197.7 110.7,171.5 	"/>
	<polygon class="st0" points="115.7,0 115.7,52.4 161.1,26.2 	"/>
	<polygon class="st0" points="166,29 166,81.5 211.3,55.2 	"/>
	<polygon class="st0" points="166,87.4 166,139.8 211.3,113.6 	"/>
	<polygon class="st0" points="166,198.1 211.3,171.9 166,145.7 	"/>
	<polygon class="st0" points="212.9,168.9 212.9,116.5 167.5,142.7 	"/>
	<polygon class="st0" points="167.5,84.4 212.9,110.6 212.9,58.2 	"/>
	<polygon class="st0" points="162.5,81.5 162.5,29 117.1,55.2 	"/>
	<polygon class="st0" points="115.7,226.8 161.1,200.6 115.7,174.4 	"/>
	<polygon class="st0" points="162.5,197.7 162.5,145.3 117.1,171.5 	"/>
</g>
</svg>
