<svg version="1.1" id="Layer_1" xmlns="http://www.w3.org/2000/svg" xmlns:xlink="http://www.w3.org/1999/xlink" x="0px" y="0px"
	 viewBox="0 0 226.8 226.8" style="enable-background:new 0 0 226.8 226.8;" xml:space="preserve">
<path class="st0" d="M113.4,0C50.8,0,0,50.8,0,113.4C0,176,50.8,226.8,113.4,226.8S226.8,176,226.8,113.4C226.8,50.8,176,0,113.4,0z
	 M81.3,57.6l30,17.3l-30,17.3V57.6z M48,76.9l30,17.3l-30,17.3V76.9z M48,115.5l30,17.3l-30,17.3V115.5z M79,169.4L49,152l30-17.3
	V169.4z M79,130.8l-30-17.3l30-17.3V130.8z M79,92.3L49,75l30-17.3V92.3z M81.3,134.5l30,17.3l-30,17.3V134.5z M112.2,188.3
	l-30-17.3l30-17.3V188.3z M112.2,73.1l-30-17.3l30-17.3V73.1z M147.8,57.6l30,17.3l-30,17.3V57.6z M147.8,96.2l30,17.3l-30,17.3
	V96.2z M114.6,38.5l30,17.3l-30,17.3V38.5z M114.6,188.3v-34.6l30,17.3L114.6,188.3z M145.5,169.1l-30-17.3l30-17.3V169.1z
	 M145.5,130.8l-30-17.3l30-17.3V130.8z M145.5,92.3l-30-17.3l30-17.3V92.3z M147.8,169.4v-34.6l30,17.3L147.8,169.4z M178.8,150.1
	l-30-17.3l30-17.3V150.1z M178.8,111.6l-30-17.3l30-17.3V111.6z"/>
</svg>
