<svg version="1.1" id="Layer_1" xmlns="http://www.w3.org/2000/svg" xmlns:xlink="http://www.w3.org/1999/xlink" x="0px" y="0px"
	 width="226.777px" height="226.777px" viewBox="0 0 226.777 226.777" enable-background="new 0 0 226.777 226.777"
	 xml:space="preserve">
<g id="SYNC_alt">
	<polygon fill="#231F20" points="94.466,103.013 132.679,133.81 132.679,124.255 94.466,93.459 	"/>
	<path fill="#231F20" d="M113.533,0.289C50.99,0.289,0.289,50.99,0.289,113.534c0,62.542,50.701,113.243,113.244,113.243
		s113.244-50.701,113.244-113.243C226.777,50.99,176.076,0.289,113.533,0.289z M114.17,184.727
		c-40.111,0-56.982-32.115-56.982-56.102c0-16.566,0-29.779,0-29.779l36.995,29.779H70.908c0,18.227,15.008,42.381,41.569,42.381
		c31.167,0,43.194-25.646,43.194-42.381l12.907,10.569C168.579,148.445,153.808,184.727,114.17,184.727z M146.807,121.308
		c0,0,2.032,24.086-13.924,33.945c-15.956,9.858-27.441,6.505-36.893,1.32c-9.452-5.183-14.229-16.599-14.229-18.801h15.45
		c0,0,3.454,8.843,14.227,9.856c10.774,1.018,14.636-4.927,14.636-4.927L80.542,105.96c0,0-1.627-21.851,11.281-32.115
		c12.907-10.266,26.525-10.468,37.809-4.371c11.279,6.098,15.956,19.513,15.956,19.513h-15.348c0,0-3.557-7.928-13.415-9.554
		c-9.859-1.625-15.552,4.878-15.552,4.878L146.807,121.308z M169.878,128.219l-36.994-29.779h23.273
		c0-18.227-15.008-42.381-41.566-42.381c-31.169,0-43.196,25.646-43.196,42.381L58.488,87.871c0-9.25,14.771-45.533,54.408-45.533
		c40.112,0,56.982,32.116,56.982,56.103C169.878,115.007,169.878,128.219,169.878,128.219z"/>
</g>
</svg>
