<svg version="1.1" id="Layer_1" xmlns="http://www.w3.org/2000/svg" xmlns:xlink="http://www.w3.org/1999/xlink" x="0px" y="0px"
	 width="226.777px" height="226.777px" viewBox="0 0 226.777 226.777" enable-background="new 0 0 226.777 226.777"
	 xml:space="preserve">
<g id="SYNC">
	<path fill="#231F20" d="M119.638,59.08c15.701,2.59,21.365,15.217,21.365,15.217h24.443c0,0-7.447-21.366-25.414-31.079
		s-39.659-9.389-60.214,6.959c-20.559,16.35-17.968,51.151-17.968,51.151l72.519,58.516c0,0-6.152,9.469-23.312,7.851
		c-17.158-1.619-22.66-15.702-22.66-15.702H63.793c0,3.508,7.608,21.691,22.662,29.945c15.053,8.257,33.346,13.598,58.758-2.103
		c25.414-15.703,22.177-54.064,22.177-54.064L94.872,66.85C94.872,66.85,103.937,56.49,119.638,59.08z M144.888,130.465v15.217
		L84.027,96.635V81.419L144.888,130.465z"/>
	<path fill="#231F20" d="M113.379,0C50.251,0,26.725,57.786,26.725,72.516L47.283,89.35c0-26.654,19.154-67.498,68.795-67.498
		c42.301,0,66.202,38.469,66.202,67.498h-37.067l58.921,47.428c0,0,0-21.043,0-47.428C204.134,51.15,177.262,0,113.379,0z"/>
	<path fill="#231F20" d="M112.714,204.924c-42.303,0-66.206-38.47-66.206-67.499h37.069L24.656,89.999c0,0,0,21.042,0,47.426
		c0,38.202,26.87,89.353,90.753,89.353c63.13,0,86.655-57.787,86.655-72.518l-20.558-16.835
		C181.507,164.079,162.352,204.924,112.714,204.924z"/>
</g>
</svg>
