<svg version="1.1" id="Layer_1" xmlns="http://www.w3.org/2000/svg" xmlns:xlink="http://www.w3.org/1999/xlink" x="0px" y="0px"
	 width="226.777px" height="226.777px" viewBox="0 0 226.777 226.777" enable-background="new 0 0 226.777 226.777"
	 xml:space="preserve">
<g>
	<path fill="#231F20" d="M123.412,31.733v2.705c1.906,0.354,3.354,2.015,3.354,4.02c0,2.259-1.836,4.097-4.098,4.097
		c-2.259,0-4.097-1.838-4.097-4.097c0-2.005,1.449-3.667,3.351-4.02v-2.896c-2.252-0.232-4.54-0.35-6.843-0.394v9.222
		c3.112,0.577,5.48,3.3,5.48,6.575c0,3.694-3.004,6.698-6.7,6.698c-3.693,0-6.698-3.004-6.698-6.698c0-3.275,2.368-5.998,5.48-6.575
		v-9.245c-2.33,0.02-4.635,0.135-6.915,0.345v2.968c1.903,0.354,3.353,2.015,3.353,4.02c0,2.259-1.838,4.097-4.098,4.097
		c-2.26,0-4.098-1.838-4.098-4.097c0-2.005,1.449-3.667,3.353-4.02v-2.813C63.1,36.176,31.103,71.036,31.103,113.388
		c0,45.447,36.842,82.283,82.288,82.283c45.447,0,82.283-36.836,82.283-82.283C195.674,71.334,164.129,36.68,123.412,31.733z
		 M96.134,38.287L113.657,64.4l17.45-26.007c5.441,1.28,10.667,3.12,15.595,5.485l-25.446,37.917v13.813
		c-2.29-0.949-4.799-1.478-7.431-1.478c-2.694,0-5.262,0.547-7.596,1.539h-0.002v-13.62L80.485,43.695
		C85.435,41.352,90.675,39.537,96.134,38.287z M37.658,127.633h14.799c0,0,2.902,11.234,7.105,17.688
		c4.203,6.452,11.091,13.411,11.091,13.411l14.572-17.615v-20.01H36.709c-0.253-2.537-0.386-5.113-0.386-7.719
		c0-28.572,15.562-53.491,38.659-66.803l25.902,37.332v13.269H85.007V86.528L71.959,68.26c0,0-10.875,7.829-14.898,17.29
		c-4.022,9.459-5.219,21.204-5.219,21.204H95.62c-0.803,2.131-1.26,4.432-1.26,6.84c0,5.775,2.529,10.946,6.524,14.515v16.596
		l-27.717,34.423C54.937,167.953,41.729,149.401,37.658,127.633z M89.256,184.078H82.71c-1.274-0.554-2.533-1.14-3.77-1.758
		l2.5-3.041h7.815V184.078z M89.256,177.191h-6.103l5.334-6.492c0,0,0.285,0.132,0.768,0.336V177.191z M100.8,189.398
		c-3.224-0.529-6.382-1.247-9.458-2.168v-1.067h9.458V189.398z M100.8,184.078h-9.458v-4.799h9.458V184.078z M100.8,177.191h-9.458
		v-5.308c2.21,0.857,5.544,2.026,9.458,2.99V177.191z M112.347,190.421c-3.205-0.043-6.361-0.284-9.458-0.71v-3.548h9.458V190.421z
		 M112.347,184.078h-9.458v-4.799h9.458V184.078z M112.347,177.191h-9.458v-1.836c2.981,0.643,6.203,1.116,9.458,1.23V177.191z
		 M92.547,165.914l13.629-17.485v-24.443c-3.195-2.357-5.292-6.118-5.292-10.391c0-7.144,5.794-12.938,12.94-12.938
		c7.148,0,12.941,5.794,12.941,12.938c0,4.375-2.186,8.229-5.51,10.569v23.335l13.919,18.706c0,0-10.73,4.495-21.35,4.495
		S92.547,165.914,92.547,165.914z M123.888,189.711c-3.098,0.426-6.252,0.667-9.454,0.71v-4.258h9.454V189.711z M123.888,184.078
		h-9.454v-4.799h9.454V184.078z M123.888,177.191h-9.454v-0.577c3.269-0.045,6.482-0.475,9.454-1.087V177.191z M135.437,187.237
		c-3.075,0.918-6.235,1.632-9.458,2.164v-3.238h9.458V187.237z M135.437,184.078h-9.458v-4.799h9.458V184.078z M135.437,177.191
		h-9.458v-2.133c3.872-0.936,7.201-2.107,9.458-3.006V177.191z M144.065,184.078h-6.542v-4.799h7.749l2.429,3.112
		C146.51,182.986,145.292,183.544,144.065,184.078z M137.523,177.191v-6.007c0.671-0.299,1.059-0.485,1.059-0.485l5.064,6.492
		H137.523z M156.995,158.732c0,0,6.89-6.959,11.092-13.411c4.204-6.454,7.106-17.688,7.106-17.688h13.927
		c-4.028,21.538-17.005,39.915-34.937,51.13l-27.418-34.058v-16.596c3.994-3.569,6.523-8.74,6.523-14.515
		c0-2.409-0.458-4.709-1.259-6.84h43.778c0,0-1.197-11.745-5.22-21.204c-4.023-9.461-14.897-17.29-14.897-17.29l-13.049,18.269
		v10.658h-15.877V83.917l25.655-36.972c22.754,13.393,38.034,38.129,38.034,66.443c0,2.606-0.133,5.182-0.387,7.719h-47.644v20.01
		L156.995,158.732z"/>
	<path fill="#231F20" d="M109.251,46.945c0,2.542,2.066,4.613,4.608,4.613c2.545,0,4.61-2.07,4.61-4.613
		c0-2.541-2.065-4.611-4.61-4.611C111.317,42.334,109.251,44.404,109.251,46.945z"/>
	<path fill="#231F20" d="M102.162,38.458c0,1.556,1.264,2.823,2.82,2.823c1.555,0,2.817-1.267,2.817-2.823
		c0-1.554-1.262-2.821-2.817-2.821C103.426,35.636,102.162,36.904,102.162,38.458z"/>
	<path fill="#231F20" d="M113.388,0C50.766,0,0,50.766,0,113.388c0,62.624,50.766,113.389,113.389,113.389
		c62.623,0,113.388-50.766,113.388-113.389C226.776,50.766,176.011,0,113.388,0z M113.39,201.578
		c-48.708,0-88.191-39.484-88.191-88.19c0-48.707,39.483-88.191,88.191-88.191c48.707,0,88.19,39.484,88.19,88.191
		C201.581,162.094,162.097,201.578,113.39,201.578z"/>
	<path fill="#231F20" d="M119.846,38.458c0,1.556,1.266,2.823,2.821,2.823c1.557,0,2.818-1.267,2.818-2.823
		c0-1.554-1.262-2.821-2.818-2.821C121.112,35.636,119.846,36.904,119.846,38.458z"/>
</g>
</svg>
