<svg version="1.1" id="Layer_1" xmlns="http://www.w3.org/2000/svg" xmlns:xlink="http://www.w3.org/1999/xlink" x="0px" y="0px"
	 width="226.777px" height="226.777px" viewBox="0 0 226.777 226.777" enable-background="new 0 0 226.777 226.777"
	 xml:space="preserve">
<g>
	<path fill="#231F20" d="M123.502,157.245v-30.002c4.272-3.01,7.083-7.962,7.083-13.589c0-9.184-7.448-16.636-16.639-16.636
		c-9.187,0-16.636,7.452-16.636,16.636c0,5.493,2.695,10.331,6.803,13.359v31.431l-17.523,22.479c0,0,13.704,6.152,27.357,6.152
		c13.655,0,27.45-5.779,27.45-5.779L123.502,157.245z"/>
	<path fill="#231F20" d="M113.388,0C50.763,0-0.001,50.765-0.001,113.389c0,62.622,50.765,113.388,113.39,113.388
		c62.624,0,113.389-50.767,113.389-113.388C226.777,50.765,176.012,0,113.388,0z M113.992,22.032c3.272,0,5.929,2.662,5.929,5.93
		c0,3.269-2.656,5.93-5.929,5.93c-3.269,0-5.925-2.662-5.925-5.93C108.067,24.694,110.723,22.032,113.992,22.032z M113.388,219.183
		c-58.43,0-105.799-47.361-105.799-105.794c0-54.453,41.14-99.273,94.03-105.126v3.618c-2.448,0.455-4.31,2.591-4.31,5.168
		c0,2.905,2.363,5.268,5.269,5.268c2.905,0,5.268-2.363,5.268-5.268c0-2.577-1.863-4.714-4.31-5.168V8.065
		c2.93-0.271,5.894-0.419,8.891-0.445v11.888c-4.001,0.742-7.047,4.241-7.047,8.454c0,4.75,3.863,8.611,8.612,8.611
		c4.751,0,8.615-3.862,8.615-8.611c0-4.212-3.045-7.711-7.047-8.454V7.651c2.961,0.057,5.902,0.208,8.798,0.506v3.724
		c-2.445,0.455-4.31,2.591-4.31,5.168c0,2.905,2.364,5.268,5.27,5.268s5.267-2.363,5.267-5.268c0-2.577-1.862-4.714-4.31-5.168
		V8.402c52.349,6.363,92.908,50.918,92.908,104.987C219.183,171.822,171.822,219.183,113.388,219.183z M102.578,13.422
		c1.999,0,3.622,1.63,3.622,3.626c0,2.001-1.624,3.631-3.622,3.631c-2.001,0-3.626-1.63-3.626-3.631
		C98.952,15.052,100.577,13.422,102.578,13.422z M125.318,13.422c1.998,0,3.622,1.63,3.622,3.626c0,2.001-1.624,3.631-3.622,3.631
		c-2.001,0-3.627-1.63-3.627-3.631C121.691,15.052,123.317,13.422,125.318,13.422z"/>
	<path fill="#231F20" d="M104.178,90.609h0.002c3.001-1.276,6.303-1.981,9.766-1.981c3.386,0,6.612,0.682,9.556,1.901V72.769
		l32.717-48.751c-6.334-3.042-13.056-5.406-20.05-7.053l-22.438,33.438L91.202,16.83c-7.02,1.607-13.757,3.94-20.121,6.951
		l33.096,49.314V90.609z"/>
	<path fill="#231F20" d="M97.31,132.316c-5.136-4.59-8.388-11.238-8.388-18.663c0-3.097,0.588-6.055,1.62-8.793H34.254
		c0,0,1.539-15.1,6.71-27.263c5.173-12.165,19.155-22.231,19.155-22.231l16.776,23.489v13.703H97.31V75.498l-33.304-48
		c-29.697,17.115-49.706,49.154-49.706,85.89c0,3.351,0.171,6.663,0.497,9.926h62.378v25.727l-18.735,22.65
		c0,0-8.856-8.95-14.26-17.246c-5.404-8.297-9.135-22.741-9.135-22.741H16.018c5.233,27.988,22.216,51.841,45.655,66.209
		l35.637-44.258V132.316z"/>
	<path fill="#231F20" d="M211.976,123.315c0.326-3.264,0.495-6.575,0.495-9.926c0-36.404-19.645-68.208-48.9-85.427l-32.986,47.536
		v17.059H151V78.855l16.775-23.489c0,0,13.982,10.066,19.155,22.231c5.172,12.164,6.711,27.263,6.711,27.263h-56.288
		c1.031,2.739,1.619,5.697,1.619,8.793c0,7.424-3.251,14.073-8.388,18.663v21.34l35.252,43.787
		c23.056-14.419,39.74-38.047,44.918-65.738h-17.903c0,0-3.733,14.444-9.137,22.741c-5.403,8.296-14.26,17.246-14.26,17.246
		l-18.735-22.65v-25.727H211.976z"/>
	<path fill="#231F20" d="M129.576,195.425h12.159v-6.608c-2.901,1.155-7.181,2.663-12.159,3.863V195.425z"/>
	<path fill="#231F20" d="M114.73,195.425h12.156v-2.142c-3.82,0.785-7.953,1.341-12.156,1.399V195.425z"/>
	<rect x="114.73" y="198.107" fill="#231F20" width="12.156" height="6.17"/>
	<rect x="129.576" y="198.107" fill="#231F20" width="12.159" height="6.17"/>
	<path fill="#231F20" d="M144.418,187.699v7.726h7.873l-6.513-8.351C145.778,187.074,145.279,187.315,144.418,187.699z"/>
	<path fill="#231F20" d="M144.418,198.107v6.17h8.411c1.578-0.687,3.141-1.404,4.675-2.168l-3.123-4.002H144.418z"/>
	<path fill="#231F20" d="M69.096,202.015c1.591,0.797,3.208,1.55,4.847,2.262h8.415v-6.17H72.31L69.096,202.015z"/>
	<path fill="#231F20" d="M99.887,195.425h12.16v-0.779c-4.184-0.147-8.327-0.755-12.16-1.582V195.425z"/>
	<path fill="#231F20" d="M129.576,211.122c4.143-0.687,8.205-1.604,12.159-2.782v-1.381h-12.159V211.122z"/>
	<path fill="#231F20" d="M74.512,195.425h7.846v-7.917c-0.621-0.262-0.987-0.434-0.987-0.434L74.512,195.425z"/>
	<path fill="#231F20" d="M114.73,212.432c4.118-0.057,8.173-0.364,12.156-0.911v-4.563H114.73V212.432z"/>
	<rect x="85.041" y="198.107" fill="#231F20" width="12.16" height="6.17"/>
	<rect x="99.887" y="198.107" fill="#231F20" width="12.16" height="6.17"/>
	<path fill="#231F20" d="M99.887,211.521c3.982,0.547,8.039,0.854,12.16,0.911v-5.474h-12.16V211.521z"/>
	<path fill="#231F20" d="M85.041,195.425h12.16v-2.979c-5.031-1.241-9.318-2.745-12.16-3.846V195.425z"/>
	<path fill="#231F20" d="M85.041,208.331c3.954,1.183,8.015,2.104,12.16,2.788v-4.16h-12.16V208.331z"/>
</g>
</svg>
