<svg version="1.1" id="Layer_1" xmlns="http://www.w3.org/2000/svg" xmlns:xlink="http://www.w3.org/1999/xlink" x="0px" y="0px"
	 viewBox="0 0 226.8 226.8" style="enable-background:new 0 0 226.8 226.8;" xml:space="preserve">
<g>
	<path d="M123.351,100.469c0-5.496-4.455-9.951-9.951-9.951c-5.496,0-9.951,4.455-9.951,9.951c0,3.779,2.106,7.065,5.209,8.75
		l-2.837,21.542h15.157l-2.837-21.542C121.244,107.534,123.351,104.248,123.351,100.469z"/>
	<path d="M113.4,57.366c-10.023,0-18.178,8.417-18.178,18.762v2.662h36.357v-2.662C131.578,65.783,123.423,57.366,113.4,57.366z"/>
	<path d="M202.96,18.962c0,0-7.324-2.645-12.919-7.223S179.224,0.278,179.224,0.278H47.576c0,0-5.222,6.884-10.817,11.461
		S23.84,18.962,23.84,18.962s-15.327,53.595-8.274,89.886c7.053,36.291,18.175,61.18,45.846,86.409
		c22.785,20.819,51.984,31.263,51.989,31.264v0l0,0l0,0v0c0.004-0.001,29.203-10.446,51.989-31.264
		c27.67-25.229,38.792-50.118,45.846-86.409C218.287,72.558,202.96,18.962,202.96,18.962z M157.06,133.094
		c0,6.053-4.907,10.96-10.96,10.96H80.7c-6.053,0-10.96-4.907-10.96-10.96V86.871c0-4.463,3.618-8.08,8.08-8.08h6.008v-2.662
		c0-16.628,13.266-30.156,29.572-30.156c16.306,0,29.572,13.528,29.572,30.156v2.662h6.008c4.463,0,8.08,3.618,8.08,8.08V133.094z"
		/>
</g>
</svg>
