<svg version="1.1" id="Layer_1" xmlns="http://www.w3.org/2000/svg" xmlns:xlink="http://www.w3.org/1999/xlink" x="0px" y="0px"
	 viewBox="0 0 226.8 226.8" style="enable-background:new 0 0 226.8 226.8;" xml:space="preserve">
<g>
	<path d="M135.653,100.404h-3.757v-1.665c0-10.4-8.297-18.86-18.495-18.86c-10.198,0-18.495,8.461-18.495,18.86v1.665h-3.757
		c-2.791,0-5.054,2.263-5.054,5.054v28.909c0,3.786,3.069,6.855,6.855,6.855h40.903c3.786,0,6.855-3.069,6.855-6.855v-28.909
		C140.706,102.667,138.444,100.404,135.653,100.404z M118.14,132.909h-9.48l1.774-13.473c-1.94-1.054-3.258-3.109-3.258-5.473
		c0-3.437,2.786-6.223,6.223-6.223c3.437,0,6.224,2.786,6.224,6.223c0,2.363-1.317,4.419-3.258,5.473L118.14,132.909z
		 M124.769,100.404H102.03v-1.665c0-6.47,5.1-11.734,11.369-11.734c6.269,0,11.37,5.264,11.37,11.734V100.404z"/>
	<path d="M113.4,0C50.8,0,0,50.8,0,113.4s50.8,113.4,113.4,113.4S226.8,176,226.8,113.4S176,0,113.4,0z M174.589,119.203
		c-4.411,22.697-11.367,38.264-28.673,54.043c-14.251,13.021-32.513,19.553-32.515,19.554v0l0,0l0,0v0
		c-0.003-0.001-18.265-6.533-32.515-19.554c-17.306-15.779-24.262-31.345-28.673-54.043c-4.411-22.697,5.175-56.218,5.175-56.218
		s4.581-1.654,8.08-4.517c3.499-2.863,6.765-7.168,6.765-7.168h82.337c0,0,3.266,4.305,6.765,7.168
		c3.499,2.863,8.08,4.517,8.08,4.517S179,96.506,174.589,119.203z"/>
</g>
</svg>
