<svg width="227" height="227" viewBox="0 0 227 227" xmlns="http://www.w3.org/2000/svg"><title>trx</title><g fill="none"><circle fill="#000" cx="113.5" cy="113.5" r="113.5"/><path d="M175.142 87.463c-5.67-4.028-11.738-8.326-17.671-12.59-.135-.099-.263-.198-.426-.297a7.946 7.946 0 0 0-2.328-1.33l-.07-.035a22692.71 22692.71 0 0 1-47.615-11.75L64.564 50.966l-1.114-.299c-1.278-.362-2.754-.767-4.33-.568a2.986 2.986 0 0 0-1.206.469l-.397.334a4.903 4.903 0 0 0-1.114 1.797l-.1.27v1.528l.071.234c8.942 25.47 18.126 51.31 26.983 76.312 6.82 19.254 13.91 39.19 20.822 58.77.426 1.329 1.64 2.203 3.152 2.33h.326a3.682 3.682 0 0 0 3.279-1.833l25.975-38.457c6.323-9.357 12.654-18.743 18.984-28.1l7.771-11.523c4.259-6.324 8.659-12.853 13.023-19.212l.228-.326v-.405c.099-1.166.127-3.56-1.775-4.832M144.71 101.48c-6.103 3.226-12.327 6.558-18.594 9.854l10.958-11.921c4.556-4.995 9.311-10.16 13.967-15.219l.1-.1c.39-.532.886-1.03 1.412-1.562.354-.363.752-.732 1.114-1.165a844.588 844.588 0 0 1 7.246 5.13 332.024 332.024 0 0 0 5.216 3.694 1824.695 1824.695 0 0 0-21.419 11.29m-15.67-1.6a3262.277 3262.277 0 0 1-14.364 15.68 9291.82 9291.82 0 0 0-28.14-34.493L73.911 65.652l-.029-.036c-.95-1.094-1.873-2.294-2.789-3.424-.589-.767-1.213-1.5-1.838-2.266a523.53 523.53 0 0 0 11.412 2.827c3.314.803 6.756 1.634 10.135 2.501l57.095 14.082a7483.288 7483.288 0 0 0-18.857 20.547m-16.5 64.894c.362-3.495.76-7.09 1.086-10.621.298-2.835.589-5.727.887-8.49.454-4.434.95-9.024 1.348-13.52l.092-.797c.327-2.87.653-5.826.852-8.795a9.79 9.79 0 0 1 1.185-.569c.49-.227.98-.426 1.47-.724a4339.37 4339.37 0 0 1 22.76-12.057c7.579-3.993 15.35-8.128 23.057-12.22a6646.684 6646.684 0 0 0-20.893 30.905c-5.87 8.682-11.902 17.641-17.906 26.465-2.356 3.531-4.819 7.126-7.146 10.586-2.626 3.865-5.316 7.823-7.935 11.794.327-4 .717-8.028 1.143-11.957M66.835 67.783c-.426-1.2-.894-2.43-1.284-3.595A13076.01 13076.01 0 0 0 92.015 96.55c4.493 5.492 8.985 10.956 13.477 16.483.888 1.03 1.775 2.132 2.626 3.197 1.115 1.365 2.229 2.8 3.442 4.164-.397 3.424-.724 6.891-1.086 10.216-.227 2.33-.454 4.668-.716 7.034v.029c-.1 1.492-.298 2.998-.462 4.461l-.752 6.629-.035.227c-.59 6.729-1.313 13.52-2.002 20.114-.29 2.728-.553 5.527-.851 8.327-.164-.498-.355-1.002-.526-1.471-.5-1.357-.98-2.721-1.44-4.092l-3.513-9.89-33.349-94.195" fill="#FFF"/></g></svg>