<svg width="250" height="250" xmlns="http://www.w3.org/2000/svg"><title>background</title><path fill="none" d="M-1-1h252v252H-1z"/><g><title>Layer 1</title><path d="M33 11.4c-1.6 2.1-.9 5.1 6.4 26.1C45.2 54 57.4 89.4 65 112c3.3 9.6 8.3 24 11.1 32 2.8 8 5.7 16.5 6.4 19 .8 2.5 3.7 11 6.5 19 9.2 26.4 15.1 43.5 16 46.5.5 1.6 1.9 5.8 3.1 9.3 2 5.7 2.5 6.3 4.7 6 1.7-.2 3.7-1.9 5.8-4.8 1.8-2.5 3.3-4.8 3.3-5.2.1-.4 2.5-4.3 5.4-8.5 2.8-4.3 7.5-11.4 10.2-15.8 2.8-4.4 7.4-11.5 10.3-15.8 2.8-4.3 5.2-8.1 5.2-8.3 0-.2 2-3.3 4.5-7 2.5-3.6 4.5-6.7 4.5-6.9 0-.2 1.3-2.3 2.9-4.7 1.5-2.4 4.8-7.5 7.3-11.3 2.5-3.9 7.1-11.1 10.3-16 3.2-5 8.3-12.8 11.3-17.5 3-4.7 8.9-13.7 13.1-20 4.2-6.3 7.8-11.9 8-12.3.2-.5 1.9-3.2 3.7-6 2.4-3.6 3.4-6.2 3.2-8.4-.1-1.8-.4-3-.6-2.8-.4.4-6.9-4-17.7-12-12-8.9-16.1-11.3-22-12.8-35.3-8.9-58-14.7-77-19.7-6.6-1.8-14-3.6-16.5-4-2.5-.5-9.4-2.2-15.5-3.8-6-1.7-16.6-4.5-23.5-6.3-6.9-1.7-13-3.4-13.6-3.6-.6-.2-1.7.3-2.4 1.1zm20.5 11.1c3.9.9 12.9 3.2 20 5 7.2 1.8 19.5 5 27.5 7 14.4 3.6 33.7 8.5 58.5 15 7.2 1.9 14.9 3.7 17.3 4 4.6.7 4.9 1.2 2.6 4.1-.8 1-1.2 1.2-.8.4.4-.9.3-1.2-.2-.7s-.9 1.2-.9 1.6c0 1.7-37.6 43.7-38.7 43.4-.5-.2-.7.1-.5.6.1.4-2.1 3.5-4.9 6.7-2.8 3.2-6.2 7.2-7.6 8.8l-2.4 2.8-18.9-23.8C94 84.3 79 65.4 71 55.4 43.5 20.9 42.6 19.7 44.6 20.2c1 .3 5.1 1.3 8.9 2.3zm-3 14.6c4.4 5.6 7.9 10.6 7.8 11-.2.5.1.8.6.6.5-.1 3.7 3.4 7.2 7.8S80.5 74.6 90.3 87c9.8 12.4 18.4 23.2 19 24 .7.8 2.7 3.4 4.4 5.6 1.8 2.3 2.9 4.5 2.5 4.9-.4.5-.2.5.4.2.7-.4 2 .5 2.9 2 1.7 2.6 1.7 3.5.2 18.2-.9 8.6-2.6 25.3-3.7 37.1s-2.7 28-3.5 36c-.9 8-1.5 14.9-1.6 15.5 0 1-4.4-10.8-5.9-16-.5-1.7-3.4-10.2-6.5-19S90.2 171.6 87 162c-3.3-9.6-8.5-24.7-11.5-33.5-3.1-8.8-6-17.4-6.5-19-.5-1.7-3.2-9.5-6-17.5s-5.8-16.5-6.5-19c-.8-2.5-3.7-11-6.5-19-10.2-29.2-11-31.6-9.2-29.3.9 1.1 5.3 6.7 9.7 12.4zm144.7 25.7c4.3 3.1 10 7.3 12.7 9.3l4.9 3.6-9.1 4.8c-5.1 2.7-12.6 6.6-16.7 8.8-4.1 2.2-12.9 6.8-19.5 10.2-20.3 10.6-27.8 14.6-32.5 17.3-4 2.4-3.1 1.1 8.5-11.7 7.2-7.9 15.4-17.3 18.3-20.8 2.9-3.5 5.7-6.1 6.3-5.8.5.4.8.2.7-.4-.3-1 16.8-21.1 18-21.1.4 0 4.2 2.6 8.4 5.8zm15.5 20.5c-.3.7-4.4 7.4-9.2 14.8-4.8 7.3-10.3 15.9-12.3 18.9-1.9 3-5.7 8.8-8.4 12.8-2.6 4.1-4.8 7.5-4.8 7.8 0 .2-2.6 4.3-5.9 9.1-3.2 4.9-7.8 11.9-10.3 15.8-2.5 3.8-7 10.9-10.1 15.7-3.2 4.9-8.2 12.7-11.4 17.6-3.1 4.8-7.6 11.8-10.1 15.7-2.5 3.8-5.8 8.9-7.3 11.3-1.6 2.4-2.9 4.7-2.9 5.1 0 .5-.8 1.5-1.7 2.2-1.4 1.2-1.6 1.2-1.1-.1.3-.8 1.1-7.1 1.7-14 .7-6.9 2.1-21.3 3.1-32 1.1-10.7 2.7-26.9 3.6-36 2.1-21.4 2.1-21.4 5.2-22.8 1.5-.6 6.5-3.2 11.2-5.8 4.7-2.5 14.4-7.6 21.5-11.4 7.2-3.7 16.6-8.7 21-11 19.3-10.3 28-14.9 28.4-14.9.2-.1.1.5-.2 1.2z"/></g></svg>