<svg width="227" height="227" viewBox="0 0 227 227" xmlns="http://www.w3.org/2000/svg"><title>Shape</title><path d="M209.844 59.772c-9.059-6.435-18.752-13.302-28.23-20.112-.216-.159-.42-.318-.68-.476a12.694 12.694 0 0 0-3.72-2.123l-.113-.057a36251.28 36251.28 0 0 1-76.062-18.772L33.197 1.469l-1.78-.477C29.376.413 27.017-.234 24.5.084a4.77 4.77 0 0 0-1.927.749l-.635.533a7.833 7.833 0 0 0-1.78 2.872L20 4.669v2.44l.113.375C34.398 48.172 49.07 89.45 63.218 129.39c10.895 30.757 22.221 62.605 33.264 93.884.68 2.123 2.619 3.519 5.033 3.723h.522a5.883 5.883 0 0 0 5.238-2.928l41.494-61.436c10.102-14.948 20.215-29.94 30.328-44.888l12.414-18.41c6.803-10.1 13.832-20.53 20.804-30.689l.363-.522v-.647c.159-1.861.204-5.686-2.834-7.718m-48.615 22.405c-9.75 5.153-19.693 10.476-29.704 15.742l17.505-19.045c7.279-7.979 14.875-16.23 22.312-24.311l.159-.159c.623-.851 1.417-1.646 2.256-2.497.567-.579 1.202-1.169 1.78-1.861 3.877 2.724 7.8 5.482 11.575 8.194a530.401 530.401 0 0 0 8.333 5.902 2914.926 2914.926 0 0 0-34.216 18.035m-25.033-2.554a5211.442 5211.442 0 0 1-22.946 25.049 14843.569 14843.569 0 0 0-44.953-55.103l-20.17-24.629-.044-.056c-1.52-1.748-2.993-3.666-4.456-5.471-.941-1.226-1.939-2.395-2.936-3.62 6.076 1.588 12.21 3.087 18.23 4.517 5.295 1.282 10.793 2.61 16.19 3.995l91.209 22.495c-10.113 10.964-20.283 22.075-30.124 32.823m-26.359 103.67c.578-5.584 1.213-11.327 1.735-16.968.476-4.528.94-9.148 1.417-13.563.725-7.082 1.519-14.414 2.154-21.598l.147-1.271c.522-4.585 1.043-9.307 1.36-14.051a15.6 15.6 0 0 1 1.894-.908c.782-.363 1.565-.681 2.347-1.158 12.108-6.446 24.205-12.882 36.359-19.26 12.108-6.379 24.522-12.984 36.835-19.522a10617.99 10617.99 0 0 0-33.377 49.372c-9.376 13.869-19.013 28.18-28.604 42.277-3.764 5.64-7.699 11.384-11.417 16.911-4.195 6.174-8.492 12.496-12.675 18.84a727.117 727.117 0 0 1 1.825-19.1M36.825 28.332c-.68-1.918-1.429-3.881-2.052-5.743C48.922 39.933 63.16 57.377 77.049 74.288c7.177 8.773 14.354 17.501 21.53 26.331 1.417 1.646 2.834 3.405 4.195 5.108 1.78 2.179 3.56 4.471 5.498 6.65-.634 5.471-1.156 11.01-1.734 16.321-.363 3.723-.726 7.457-1.145 11.237v.045c-.159 2.383-.476 4.79-.737 7.128l-1.202 10.589-.057.363c-.94 10.748-2.097 21.599-3.197 32.131-.465 4.358-.884 8.83-1.36 13.302-.261-.795-.567-1.6-.84-2.35a239.085 239.085 0 0 1-2.3-6.537l-5.613-15.799L36.813 28.333"/></svg>