<svg id="Layer_1" xmlns="http://www.w3.org/2000/svg" viewBox="0 0 2500 2500"><path d="M805.7 611.1l.4.4c52.5 63.1 105.3 126.6 157.8 189.8 115.6 138.9 234.8 282.8 351.6 424.6 60.2-64.3 120.9-129.5 179.5-193 77-82.8 156.6-168.4 235.7-252.9-237.7-57.8-475.8-115.6-713.5-173.4-42.2-10.7-85.2-20.9-126.6-30.7-47.1-11.1-95.1-22.5-142.6-34.8 7.8 9.4 15.6 18.4 23 27.9 11.4 13.8 22.9 28.5 34.7 42.1zm569.7 684.8c-6.1 3.7-12.3 6.1-18.4 9-5.3 2-10.2 4.5-14.8 7-2.5 36.5-6.6 73-10.7 108.2l-1.2 9.8c-4.9 55.3-11.1 111.9-16.8 166.4-3.7 34-7.4 69.7-11.1 104.5-4.1 43.4-9 87.7-13.5 130.7-5.3 48.4-10.2 98-14.3 147.1 32.8-48.8 66.4-97.5 99.2-145.1 29.1-42.6 59.8-86.9 89.3-130.3 75-108.6 150.4-218.9 223.8-325.8 85.2-125 173.4-253.3 261.1-380.3-96.3 50.4-193.4 101.2-288.1 150.4-95.1 49.2-189.8 98.8-284.5 148.4zm-141.8-61.9c-10.7-13.1-21.7-26.6-32.8-39.3-56.1-68-112.3-135.2-168.4-202.9C923.8 861.5 812.3 727 701.6 593.4c4.9 14.3 10.7 29.5 16 44.3 138.9 386.9 277.9 773 416.8 1159.4l43.9 121.7c5.7 16.8 11.9 34 18 50.4 2 5.7 4.5 11.9 6.6 18 3.7-34.4 7-68.9 10.7-102.5 8.6-81.1 17.6-164.8 25-247.5l.4-2.9s6.6-56.6 9.4-81.6c2-18 4.5-36.5 5.7-54.9v-.4c3.3-29.1 6.1-57.8 9-86.5 4.5-41 8.6-83.6 13.5-125.8-15.1-16.7-29.1-34.3-43-51.1zm569.3-429.1c-4.5 5.3-9.4 9.8-13.9 14.3-6.6 6.6-12.7 12.7-17.6 19.3l-1.2 1.2C1712 902 1652.6 965.5 1595.6 1027c-45.5 48.8-91.4 98-136.9 146.7 78.3-40.6 156.1-81.6 232.4-121.3 87.3-45.9 177.5-93 267.6-138.9-22.1-15.2-43.9-30.3-65.2-45.5-29.6-20.9-60.3-42.2-90.6-63.1z"/><path d="M1250 0C559.6 0 0 559.6 0 1250s559.6 1250 1250 1250 1250-559.6 1250-1250S1940.4 0 1250 0zm843.4 939.3v4.9l-2.9 4.1c-54.5 78.3-109.4 158.6-162.7 236.5-32.4 47.1-64.8 94.7-97.1 141.8-79.1 115.2-158.2 230.7-237.3 345.9l-324.6 473.4c-7.8 13.9-23.4 22.5-41 22.5h-4.1c-18.9-1.6-34-12.3-39.3-28.7-86.5-241-175-486.5-260.2-723.4C813.5 1108.6 698.8 790.6 586.9 477l-.8-2.9v-18.9l1.2-3.3c2-5.3 6.1-14.8 13.9-22.1l4.9-4.1c4.5-2.9 9.4-4.9 15.2-5.7 19.7-2.5 38.1 2.5 54.1 7 4.9 1.2 9.4 2.5 13.9 3.7 177 43 353.7 86.1 530.7 129.1 195.1 47.5 396.7 96.7 595.1 144.7l.8.4c11.5 3.7 20.9 10.2 29.1 16.4 2 1.2 3.7 2.5 5.3 3.7 74.2 52.5 150 105.3 220.9 154.9 23.9 15.6 23.5 45.1 22.2 59.4z"/><script id="globalVarsDetection"/></svg>