<svg version="1.1" id="Layer_1" xmlns="http://www.w3.org/2000/svg" xmlns:xlink="http://www.w3.org/1999/xlink" x="0px" y="0px"
	 width="226.777px" height="226.777px" viewBox="0 0 226.777 226.777" enable-background="new 0 0 226.777 226.777"
	 xml:space="preserve">
<g>
	<path fill="#1D1D1B" d="M113.433,0C50.885,0,0,50.884,0,113.432c0,62.546,50.886,113.433,113.433,113.433
		c62.545,0,113.43-50.887,113.43-113.433C226.863,50.884,175.978,0,113.433,0z M113.433,219.633
		c-58.559,0-106.201-47.642-106.201-106.2c0-58.56,47.642-106.201,106.201-106.201c58.558,0,106.199,47.641,106.199,106.201
		C219.632,171.991,171.991,219.633,113.433,219.633z"/>
	<circle fill="#1D1D1B" cx="113.433" cy="50.338" r="22.962"/>
	<circle fill="#1D1D1B" cx="54.081" cy="138.882" r="22.962"/>
	<path fill="#1D1D1B" d="M58.277,107.669c1.875-18.072,12.472-33.582,27.488-42.265c-2.442-4.476-3.832-9.609-3.832-15.066
		c0-0.631,0.024-1.257,0.061-1.878C58.846,59.707,42.575,82.965,41.33,110.08c3.899-1.729,8.211-2.698,12.752-2.698
		C55.506,107.382,56.904,107.486,58.277,107.669z"/>
	<path fill="#1D1D1B" d="M168.571,107.544c1.052-0.106,2.116-0.162,3.194-0.162c4.943,0,9.619,1.142,13.78,3.169
		c-1.077-27.315-17.394-50.779-40.674-62.091c0.034,0.621,0.059,1.247,0.059,1.878c0,5.457-1.389,10.59-3.83,15.066
		C156.082,74.069,166.661,89.526,168.571,107.544z"/>
	<path fill="#1D1D1B" d="M146.612,157.838c-9.259,6.936-20.747,11.05-33.179,11.05c-12.729,0-24.459-4.321-33.828-11.559
		c-3.382,4.671-8.009,8.378-13.399,10.629c12.67,10.987,29.179,17.662,47.228,17.662c17.898,0,34.281-6.562,46.911-17.386
		C154.852,166.094,150.106,162.466,146.612,157.838z"/>
	<circle fill="#1D1D1B" cx="171.765" cy="138.88" r="22.962"/>
	<path fill="#1D1D1B" d="M113.433,15.276c-54.125,0-98.158,44.032-98.158,98.156c0,54.125,44.033,98.156,98.158,98.156
		c54.122,0,98.155-44.031,98.155-98.156C211.588,59.308,167.554,15.276,113.433,15.276z M171.765,170.38
		c-0.953,0-1.897-0.051-2.829-0.133c-14.335,14.007-33.928,22.655-55.503,22.655c-21.628,0-41.262-8.689-55.604-22.753
		c-1.23,0.147-2.478,0.23-3.747,0.23c-17.396,0-31.5-14.103-31.5-31.498c0-9.754,4.435-18.471,11.396-24.247
		c-0.006-0.401-0.015-0.801-0.015-1.202c0-33.34,20.641-61.95,49.814-73.726c4.362-12.165,15.99-20.866,29.655-20.866
		c13.663,0,25.292,8.702,29.653,20.866c29.173,11.776,49.815,40.385,49.815,73.726c0,0.693-0.009,1.383-0.026,2.071
		c6.38,5.763,10.391,14.1,10.391,23.378C203.265,156.277,189.162,170.38,171.765,170.38z"/>
</g>
</svg>
