<svg version="1.1" id="Layer_1" xmlns="http://www.w3.org/2000/svg" xmlns:xlink="http://www.w3.org/1999/xlink" x="0px" y="0px"
	 width="226.777px" height="226.777px" viewBox="0 0 226.777 226.777" enable-background="new 0 0 226.777 226.777"
	 xml:space="preserve">
<path id="UNITY" fill="#231F20" d="M113.38-0.018C50.752-0.018-0.018,50.752-0.018,113.38s50.77,113.397,113.398,113.397
	s113.397-50.77,113.397-113.397S176.008-0.018,113.38-0.018z M42.459,140.522C35.826,132.601,32,123.486,32,113.763
	c0-7.671,2.37-14.959,6.609-21.583c0.339,4.199,1.601,9.531,6.269,14.229c7.037,7.096,19.72,10.541,38.746,10.541
	c13.54,0,23.304,2.734,28.239,7.896c4.093,4.297,3.859,9.311,3.76,11.518c-0.016,0.204-1.697,19.81-31.133,19.81
	C66.104,156.172,51.915,149.485,42.459,140.522z M113.384,168.427c-6.407,0-12.61-0.548-18.588-1.488
	c26.566-4.251,32.429-24.54,32.429-30.591c0.364-7.719-1.99-14.28-6.974-19.505c-7.278-7.626-19.598-11.493-36.626-11.493
	c-19.381,0-27.3-3.867-30.529-7.11c-3.065-3.1-3.042-6.893-3.008-11.075c0-4.206,5.71-12.149,27.323-12.149
	c17.013,0,33.434,7.718,50.201,23.603c6.778,6.427,29.735,34.961,44.118,53.203C156.944,162.054,136.283,168.427,113.384,168.427z
	 M174.983,137.26c-12.467-15.677-32.52-40.542-39.395-47.052c-17.893-16.957-35.802-25.609-54.601-26.596
	c9.933-2.896,20.87-4.532,32.396-4.532c24.64,0,46.675,7.395,61.6,19.019V137.26z M186.581,137.528v-47.53
	c5.186,7.188,8.18,15.238,8.18,23.765C194.76,122.287,191.766,130.33,186.581,137.528z"/>
</svg>
