<svg version="1.1" id="Layer_1" xmlns="http://www.w3.org/2000/svg" xmlns:xlink="http://www.w3.org/1999/xlink" x="0px" y="0px"
	 width="226.777px" height="226.777px" viewBox="0 0 226.777 226.777" enable-background="new 0 0 226.777 226.777"
	 xml:space="preserve">
<g id="UNITY_alt">
	<path fill="#231F20" d="M215.38,78.482v66.236c7.228-10.03,11.397-21.239,11.397-33.118C226.777,99.718,222.607,88.5,215.38,78.482
		z"/>
	<path fill="#231F20" d="M144.319,78.774c9.58,9.072,37.525,43.724,54.897,65.569V61.9c-20.798-16.197-51.505-26.503-85.84-26.503
		c-16.063,0-31.304,2.278-45.146,6.315C94.427,43.086,119.385,55.145,144.319,78.774z"/>
	<path fill="#231F20" d="M133.204,90.496c-23.366-22.138-46.25-32.892-69.957-32.892c-30.119,0-38.077,11.069-38.077,16.93
		c-0.046,5.828-0.081,11.115,4.191,15.434c4.499,4.519,15.535,9.908,42.543,9.908c23.73,0,40.897,5.389,51.041,16.017
		c6.943,7.281,10.226,16.425,9.718,27.181c0,8.433-8.172,36.705-45.191,42.63c8.331,1.311,16.976,2.074,25.904,2.074
		c31.912,0,60.703-8.88,81.308-23.142C174.64,139.216,142.65,99.45,133.204,90.496z"/>
	<path fill="#231F20" d="M73.111,170.7c41.021,0,43.364-27.322,43.388-27.605c0.136-3.077,0.463-10.064-5.241-16.05
		c-6.875-7.194-20.483-11.005-39.353-11.005c-26.514,0-44.188-4.8-53.995-14.688c-6.505-6.546-8.262-13.976-8.735-19.827
		c-5.908,9.23-9.211,19.387-9.211,30.076c0,13.551,5.332,26.253,14.575,37.291C27.717,161.382,47.489,170.7,73.111,170.7z"/>
</g>
</svg>
