<?xml version="1.0" encoding="utf-8"?>
<!-- Generator: Adobe Illustrator 22.0.1, SVG Export Plug-In . SVG Version: 6.00 Build 0)  -->
<svg version="1.1" id="Layer_1" xmlns="http://www.w3.org/2000/svg" xmlns:xlink="http://www.w3.org/1999/xlink" x="0px" y="0px"
	 viewBox="0 0 144 144" style="enable-background:new 0 0 144 144;" xml:space="preserve">
<style type="text/css">
	.st0{fill:#231F20;}
</style>
<g>
	<g>
		<path class="st0" d="M43.1,77.4c-11,0-21.9,0-32.9,0c0-5.2,0-10.2,0-15.5c8.7,0,17.3,0,26.2,0c-1.4-3.5-2.9-6.8-4.3-10.2
			c-7.3,0-14.5,0-21.8,0C10,50.8,10,38.9,10.2,36.3c1.3,0,2.5,0,3.7,0s2.5,0,3.7,0c1.3,0,2.6,0,3.9,0c1.3,0,2.5,0,4,0
			c-1.6-4.1-3.4-8.1-5-12c-1.6-4-3.4-8-5-12c-1.6-4-3.4-8-5.2-12c0.4,0,0.7-0.1,1.1-0.1c6.2,0,12.4,0,18.6,0c0.9,0,1.2,0.5,1.5,1.2
			C38,16.7,44.3,32,50.8,47.1c1.9,4.6,3.9,9.1,5.7,13.7c0.1,0.4,0.4,0.7,0.5,1.1c10.1,0,20.2,0,30.3,0c0.1-0.4,0.4-0.7,0.5-0.9
			c8.3-19.7,16.6-39.5,25-59.2c0.1-0.4,0.2-0.6,0.4-0.9c0.1-0.4,0.5-0.6,0.8-0.6c0.1,0,0.4,0,0.5,0c6.1,0,12.2,0,18.4,0
			c0.4,0,0.6,0,1.2,0c-1.6,4.1-3.4,8-5,12c-1.6,4-3.4,8-5,12s-3.4,8-5.2,12.1c5.2,0.1,10.2,0,15.2,0c0,5.2,0,10.2,0,15.5
			c-7.4,0-14.6,0-21.9,0c-1.4,3.4-2.8,6.7-4.3,10.1c1.5,0.2,2.9,0.1,4.3,0.1c1.5,0,2.9,0,4.5,0c1.4,0,2.9,0,4.3,0s2.9,0,4.3,0
			c1.5,0,2.9,0,4.5,0c1.4,0,2.8,0,4.3,0c0,5.2,0,10.3,0,15.5c-11,0-21.9,0-32.9,0c-9.6,22.3-19.1,44.5-28.6,66.7c-0.1,0-0.1,0-0.2,0
			C62.2,122,52.7,99.7,43.1,77.4z M71.8,97.7c2.5-5.2,8.3-19.2,8.3-20.3c-5.6,0-11.1,0-16.9,0C66.2,84.2,69,90.9,71.8,97.7z"/>
	</g>
</g>
</svg>
