<?xml version="1.0" encoding="utf-8"?>
<!-- Generator: Adobe Illustrator 22.0.1, SVG Export Plug-In . SVG Version: 6.00 Build 0)  -->
<svg version="1.1" id="Layer_1" xmlns="http://www.w3.org/2000/svg" xmlns:xlink="http://www.w3.org/1999/xlink" x="0px" y="0px"
	 viewBox="0 0 144 144" style="enable-background:new 0 0 144 144;" xml:space="preserve">
<style type="text/css">
	.st0{fill:#231F20;}
</style>
<g>
	<g>
		<path class="st0" d="M47.5,76.5c-9.4,0-18.7,0-28.1,0c0-4.4,0-8.7,0-13.2c7.4,0,14.8,0,22.4,0c-1.2-3-2.5-5.8-3.7-8.7
			c-6.2,0-12.4,0-18.6,0c-0.3-0.8-0.3-11-0.1-13.2c1.1,0,2.1,0,3.2,0c1.1,0,2.1,0,3.2,0c1.1,0,2.2,0,3.3,0c1.1,0,2.1,0,3.4,0
			c-1.4-3.5-2.9-6.9-4.3-10.2c-1.4-3.4-2.9-6.8-4.3-10.2c-1.4-3.4-2.9-6.8-4.4-10.2c0.3,0,0.6-0.1,0.9-0.1c5.3,0,10.6,0,15.9,0
			c0.8,0,1,0.4,1.3,1c5.5,13,10.9,26,16.4,38.9c1.6,3.9,3.3,7.8,4.9,11.7c0.1,0.3,0.3,0.6,0.4,0.9c8.6,0,17.2,0,25.9,0
			c0.1-0.3,0.3-0.6,0.4-0.8c7.1-16.8,14.2-33.7,21.3-50.5c0.1-0.3,0.2-0.5,0.3-0.8c0.1-0.3,0.4-0.5,0.7-0.5c0.1,0,0.3,0,0.4,0
			c5.2,0,10.4,0,15.7,0c0.3,0,0.5,0,1,0c-1.4,3.5-2.9,6.8-4.3,10.2c-1.4,3.4-2.9,6.8-4.3,10.2c-1.4,3.4-2.9,6.8-4.4,10.3
			c4.4,0.1,8.7,0,13,0c0,4.4,0,8.7,0,13.2c-6.3,0-12.5,0-18.7,0c-1.2,2.9-2.4,5.7-3.7,8.6c1.3,0.2,2.5,0.1,3.7,0.1
			c1.3,0,2.5,0,3.8,0c1.2,0,2.5,0,3.7,0c1.2,0,2.5,0,3.7,0c1.3,0,2.5,0,3.8,0c1.2,0,2.4,0,3.7,0c0,4.4,0,8.8,0,13.2
			c-9.4,0-18.7,0-28.1,0c-8.2,19-16.3,38-24.4,56.9c-0.1,0-0.1,0-0.2,0C63.8,114.5,55.7,95.5,47.5,76.5z M72,93.8
			c2.1-4.4,7.1-16.4,7.1-17.3c-4.8,0-9.5,0-14.4,0C67.2,82.3,69.6,88,72,93.8z"/>
	</g>
</g>
</svg>
