<?xml version="1.0" encoding="utf-8"?>
<!-- Generator: Adobe Illustrator 22.0.1, SVG Export Plug-In . SVG Version: 6.00 Build 0)  -->
<svg version="1.1" id="Layer_1" xmlns="http://www.w3.org/2000/svg" xmlns:xlink="http://www.w3.org/1999/xlink" x="0px" y="0px"
	 viewBox="0 0 144 144" style="enable-background:new 0 0 144 144;" xml:space="preserve">
<g>
	<path d="M69.2,9.5c1.8,0,3.6,0,5.5,0c0.1,0,0.2,0.1,0.3,0.1c2.1,0.2,4.3,0.3,6.4,0.6c6.5,0.9,12.6,2.9,18.5,5.8
		c6.6,3.3,12.4,7.6,17.4,12.9c6.3,6.6,10.9,14.3,13.9,22.9c2.1,6.1,3.2,12.4,3.3,18.9c0,0.1,0,0.2,0.1,0.3c0,0.6,0,1.2,0,1.8
		c0,0.1-0.1,0.2-0.1,0.3c0,3.3-0.4,6.6-1,9.9c-1.1,6.2-3.1,12.2-6,17.8c-4.1,7.8-9.5,14.4-16.4,19.9c-10,8-21.3,12.5-34,13.5
		c-4.8,0.4-9.5,0.2-14.3-0.5c-7-1-13.6-3.1-19.8-6.4c-12.3-6.5-21.5-16.1-27.5-28.7c-3.4-7.1-5.3-14.7-5.8-22.6
		c0-0.6-0.1-1.1-0.1-1.7c0-1.6,0-3.2,0-4.8c0-0.1,0.1-0.2,0.1-0.4c0.2-2.3,0.4-4.6,0.7-6.8c1-6.7,3.1-13.1,6.2-19.1
		c3.2-6.1,7.3-11.6,12.3-16.4c6.9-6.6,15-11.4,24.1-14.4c4.8-1.5,9.7-2.5,14.7-2.8C68.1,9.6,68.7,9.6,69.2,9.5z M91.6,69.5
		c0.7-1.7,1.5-3.4,2.1-5c0.1-0.3,0.3-0.4,0.6-0.4c3.6,0,7.2,0,10.8,0c0.2,0,0.3,0,0.5,0c0-2.8,0-5.5,0-8.3c-2.7,0-5.4,0-8.1,0
		c2.8-6.4,5.5-12.8,8.2-19.2c-0.2,0-0.3,0-0.4,0c-3.4,0-6.8,0-10.2,0c-0.4,0-0.5,0.1-0.7,0.5c-1.3,3.1-2.6,6.3-3.9,9.4
		c-3.2,7.5-6.3,15-9.5,22.5c-0.2,0.4-0.4,0.6-0.8,0.6c-5,0-10,0-15.1,0c-0.4,0-0.6-0.1-0.8-0.5c-1.8-4.4-3.7-8.8-5.5-13.1
		c-2.6-6.2-5.2-12.4-7.8-18.6c-0.3-0.7-0.4-0.7-1.1-0.7c-1.7,0-3.5,0-5.2,0c-1.4,0-2.9,0-4.3,0c-0.2,0-0.4,0-0.7,0.1
		c2.7,6.4,5.5,12.8,8.2,19.2c-2.8,0-5.5,0-8.2,0c0,0.1,0,0.2,0,0.3c0,2.5,0,5,0,7.4c0,0.4,0.1,0.5,0.5,0.5c3.6,0,7.2,0,10.8,0
		c0.2,0,0.4,0,0.5,0.3c0.7,1.6,1.3,3.2,2,4.7c0.1,0.1,0.1,0.3,0.2,0.5c-4.7,0-9.4,0-14,0c0,2.8,0,5.5,0,8.2c0.2,0,0.4,0,0.5,0
		c5.6,0,11.1,0,16.7,0c0.3,0,0.5,0.1,0.6,0.4c2.1,4.9,4.2,9.8,6.3,14.8c2.9,6.7,5.8,13.4,8.6,20.1c0.1,0.1,0.1,0.3,0.2,0.5
		c0.1-0.3,0.2-0.4,0.2-0.6c5-11.6,9.9-23.2,14.9-34.8c0.1-0.3,0.3-0.4,0.6-0.4c5.5,0,11,0,16.6,0c0.2,0,0.3,0,0.5,0
		c0-2.8,0-5.5,0-8.3C100.9,69.5,96.3,69.5,91.6,69.5z"/>
	<path d="M72.6,88.6c-1.5-3.6-3-7.2-4.5-10.8c3,0,6,0,9,0C75.8,81.5,74.2,85,72.6,88.6z"/>
</g>
</svg>
