<svg version="1.1" id="Layer_1" xmlns="http://www.w3.org/2000/svg" xmlns:xlink="http://www.w3.org/1999/xlink" x="0px" y="0px"
	 width="226.777px" height="226.777px" viewBox="0 0 226.777 226.777" enable-background="new 0 0 226.777 226.777"
	 xml:space="preserve">
<path id="VIOR" fill="#231F20" d="M113.408,0.039C50.796,0.039,0.039,50.796,0.039,113.408c0,62.612,50.757,113.369,113.369,113.369
	c62.612,0,113.369-50.757,113.369-113.369C226.777,50.796,176.02,0.039,113.408,0.039z M37.701,113.535
	c0-41.812,33.896-75.705,75.706-75.705c7.125,0,14.019,0.985,20.555,2.827c19.082,7.906,32.524,26.583,32.524,48.313
	c0,6.226-1.109,12.201-3.132,17.745c-10.351-16.442-28.758-27.389-49.75-27.389c-35.55,0-58.611,30.288-58.611,58.086
	c0,14.079,5.058,26.986,13.466,37.04C49.802,160.667,37.701,138.514,37.701,113.535z M137.306,86.604l-23.899,58.075l-23.9-58.075
	h12.512l11.388,30.377l11.39-30.377H137.306z M113.407,189.241c-4.412,0-8.737-0.382-12.943-1.107
	c-22.825-5.798-39.745-26.341-39.745-50.721c0-6.227,1.114-12.196,3.138-17.737c10.351,16.436,28.755,27.38,49.747,27.38
	c30.932,0,58.607-25.991,58.607-58.085c0-12.945-4.285-24.891-11.51-34.547c17.318,13.873,28.411,35.196,28.411,59.112
	C189.113,155.346,155.219,189.241,113.407,189.241z"/>
</svg>
