<svg version="1.1" id="Layer_1" xmlns="http://www.w3.org/2000/svg" xmlns:xlink="http://www.w3.org/1999/xlink" x="0px" y="0px"
	 width="226.777px" height="226.777px" viewBox="0 0 226.777 226.777" enable-background="new 0 0 226.777 226.777"
	 xml:space="preserve">
<g id="VIOR_alt">
	<polygon fill="#231F20" points="149.205,73.092 130.473,73.092 113.418,118.579 96.365,73.092 77.631,73.092 113.418,160.052 	"/>
	<g>
		<path fill="#231F20" d="M25.952,149.171c0-41.624,34.529-86.975,87.76-86.975c31.434,0,58.995,16.39,74.493,41.011
			c3.03-8.302,4.69-17.249,4.69-26.571c0-32.539-20.127-60.503-48.701-72.343c-9.786-2.757-20.108-4.232-30.777-4.232
			C50.814,0.059,0.059,50.811,0.059,113.418c0,37.402,18.12,70.572,46.055,91.217C33.524,189.581,25.952,170.252,25.952,149.171z"/>
		<path fill="#231F20" d="M184.236,24.906c10.817,14.459,17.233,32.347,17.233,51.729c0,48.056-41.442,86.974-87.757,86.974
			c-31.432,0-58.991-16.387-74.49-40.997c-3.028,8.297-4.696,17.236-4.696,26.559c0,36.507,25.335,67.266,59.51,75.948
			c6.299,1.086,12.774,1.658,19.381,1.658c62.608,0,113.359-50.753,113.359-113.359C226.777,77.606,210.167,45.678,184.236,24.906z"
			/>
	</g>
</g>
</svg>
