<svg version="1.1" id="Layer_1" xmlns="http://www.w3.org/2000/svg" xmlns:xlink="http://www.w3.org/1999/xlink" x="0px" y="0px"
	 width="226.777px" height="226.777px" viewBox="0 0 226.777 226.777" enable-background="new 0 0 226.777 226.777"
	 xml:space="preserve">
<path fill="#231F20" d="M113.388,0C50.765,0,0,50.766,0,113.387c0,62.624,50.765,113.39,113.389,113.39
	c62.623,0,113.389-50.766,113.389-113.39C226.777,50.766,176.011,0,113.388,0z M184.479,104.163
	c-0.886,2.325-3.139,7.873-4.135,10.199c-0.997,2.326-2.621,3.09-4.946,3.09c-1.605,0-11.745,0-17.882,0l-2.27,6.314
	c5.438,0,13.101,0,15.315,0c3.543,0,4.541,2.436,3.654,4.762c-0.886,2.325-3.137,7.874-4.135,10.198
	c-0.996,2.326-2.62,3.091-4.946,3.091c-1.48,0-10.215,0-16.378,0l-8.825,24.548c0,0-8.86,6.792-25.769,6.792
	c-16.906,0-25.618-6.497-25.618-6.497l-8.941-24.843c-6.144,0-16.224,0-17.822,0c-2.325,0-3.95-0.765-4.947-3.091
	c-0.997-2.324-3.249-7.873-4.134-10.198c-0.886-2.326,0.11-4.762,3.654-4.762c2.418,0,11.332,0,16.751,0l-2.272-6.314
	c-5.834,0-17.577,0-19.314,0c-2.326,0-3.95-0.764-4.946-3.09c-0.997-2.326-3.249-7.874-4.134-10.199
	c-0.886-2.326,0.11-4.763,3.654-4.763c2.656,0,13.153,0,18.243,0L53.255,68.614c0,0,15.21,0,23.774,0s13.584,5.316,15.355,10.189
	c1.772,4.872,21.707,60.246,21.707,60.246s19.492-53.898,21.854-60.395c2.361-6.497,10.188-10.04,15.503-10.04
	c5.316,0,23.626,0,23.626,0l-11.069,30.787c5.414,0,14.391,0,16.818,0C184.368,99.401,185.364,101.838,184.479,104.163z"/>
</svg>
