<svg version="1.1" id="Layer_1" xmlns="http://www.w3.org/2000/svg" xmlns:xlink="http://www.w3.org/1999/xlink" x="0px" y="0px"
	 width="226.777px" height="226.777px" viewBox="0 0 226.777 226.777" enable-background="new 0 0 226.777 226.777"
	 xml:space="preserve">
<path fill="#231F20" d="M220.837,82.343c-3.86,0-18.131,0-26.737,0l17.598-48.948c0,0-29.11,0-37.563,0s-20.896,5.633-24.649,15.963
	c-3.757,10.329-34.747,96.021-34.747,96.021S83.045,57.341,80.227,49.594c-2.816-7.748-10.798-16.199-24.415-16.199
	c-13.615,0-37.798,0-37.798,0l17.619,48.948c-8.093,0-24.781,0-29.005,0c-5.634,0-7.218,3.875-5.81,7.572
	c1.408,3.697,4.988,12.518,6.574,16.215c1.583,3.698,4.166,4.913,7.863,4.913c2.763,0,21.432,0,30.708,0l3.613,10.039
	c-8.616,0-22.787,0-26.632,0c-5.634,0-7.219,3.872-5.81,7.57c1.407,3.697,4.988,12.518,6.573,16.214
	c1.585,3.698,4.167,4.915,7.865,4.915c2.542,0,18.568,0,28.335,0l14.216,39.498c0,0,13.852,10.33,40.731,10.33
	c26.882,0,40.97-10.8,40.97-10.8l14.031-39.028c9.799,0,23.686,0,26.039,0c3.697,0,6.28-1.217,7.865-4.915
	c1.584-3.696,5.165-12.517,6.572-16.214c1.409-3.698-0.174-7.57-5.811-7.57c-3.521,0-15.704,0-24.348,0l3.605-10.039
	c9.758,0,25.88,0,28.432,0c3.697,0,6.28-1.215,7.865-4.913c1.583-3.697,5.165-12.518,6.574-16.215
	C228.057,86.219,226.471,82.343,220.837,82.343z"/>
</svg>
