<svg version="1.1" id="Layer_1" xmlns="http://www.w3.org/2000/svg" xmlns:xlink="http://www.w3.org/1999/xlink" x="0px" y="0px"
	 width="226.777px" height="226.777px" viewBox="0 0 226.777 226.777" enable-background="new 0 0 226.777 226.777"
	 xml:space="preserve">
<g id="VPN_alt">
	<polygon fill="#231F20" points="0.164,103.869 43.583,103.869 90.828,151.114 90.828,103.869 124.801,103.869 124.801,198.815 
		92.404,198.815 	"/>
	<path fill="#231F20" d="M137.682,60.731v24.127c0,0,31.33,0,43.986,0c12.432,0,16.704,7.42,16.704,14.68
		c0,7.259-4.948,14.848-17.661,14.848c-10.463,0-43.029,0-43.029,0v30.036c0,0,35.099,0,52.141,0
		c19.798,0,36.954-13.499,36.954-44.377c0-30.882-23.232-39.315-36.954-39.315C179.868,60.731,137.682,60.731,137.682,60.731z"/>
	<path fill="#231F20" d="M172.65,172.996c11.151,4.055,17.849,9.242,17.849,14.902c0,12.987-35.257,23.511-78.745,23.511
		c-43.49,0-78.744-10.523-78.744-23.511c0-5.66,6.697-10.848,17.845-14.902c-19.872,5.32-32.47,13.197-32.47,21.99
		c0,16.028,41.802,29.022,93.369,29.022s93.37-12.994,93.37-29.022C205.124,186.193,192.523,178.316,172.65,172.996z"/>
	<path fill="#231F20" d="M85.093,80.793c0,0.848-0.685,1.533-1.529,1.533H64.014c-0.847,0-1.532-0.686-1.532-1.533V61.248
		c0-0.845,0.685-1.532,1.532-1.532h19.549c0.844,0,1.529,0.688,1.529,1.532V80.793z"/>
	<path fill="#231F20" d="M124.69,90.229c0,1.227-0.991,2.222-2.214,2.222H94.173c-1.227,0-2.218-0.995-2.218-2.222V61.932
		c0-1.225,0.991-2.216,2.218-2.216h28.303c1.223,0,2.214,0.991,2.214,2.216V90.229z"/>
	<path fill="#231F20" d="M112.796,51.131c0,0.78-0.634,1.415-1.412,1.415H93.366c-0.779,0-1.411-0.635-1.411-1.415V33.115
		c0-0.779,0.632-1.41,1.411-1.41h18.018c0.778,0,1.412,0.631,1.412,1.41V51.131z"/>
	<path fill="#231F20" d="M83.321,51.131c0,0.78-0.632,1.415-1.409,1.415H63.893c-0.778,0-1.411-0.635-1.411-1.415V33.115
		c0-0.779,0.633-1.41,1.411-1.41h18.019c0.777,0,1.409,0.631,1.409,1.41V51.131z"/>
	<path fill="#231F20" d="M78.26,26.586c0,0.591-0.48,1.068-1.068,1.068H63.551c-0.589,0-1.068-0.477-1.068-1.068V12.948
		c0-0.592,0.479-1.069,1.068-1.069h13.641c0.588,0,1.068,0.478,1.068,1.069V26.586z"/>
	<path fill="#231F20" d="M57.027,47.121c0,0.62-0.502,1.122-1.122,1.122H41.611c-0.62,0-1.12-0.502-1.12-1.122V32.823
		c0-0.615,0.5-1.117,1.12-1.117h14.294c0.62,0,1.122,0.502,1.122,1.117V47.121z"/>
	<path fill="#231F20" d="M51.289,24.73c0,0.406-0.326,0.734-0.729,0.734h-9.339c-0.404,0-0.73-0.329-0.73-0.734v-9.336
		c0-0.404,0.326-0.731,0.73-0.731h9.339c0.403,0,0.729,0.327,0.729,0.731V24.73z"/>
	<path fill="#231F20" d="M35.766,12.834c0,0.406-0.326,0.732-0.73,0.732h-9.339c-0.404,0-0.73-0.326-0.73-0.732V3.498
		c0-0.404,0.326-0.73,0.73-0.73h9.339c0.404,0,0.73,0.326,0.73,0.73V12.834z"/>
</g>
</svg>
