<svg version="1.1" id="Layer_1" xmlns="http://www.w3.org/2000/svg" xmlns:xlink="http://www.w3.org/1999/xlink" x="0px" y="0px"
	 width="226.777px" height="226.777px" viewBox="0 0 226.777 226.777" enable-background="new 0 0 226.777 226.777"
	 xml:space="preserve">
<path id="VPN" fill="#231F20" d="M113.408,0.039C50.796,0.039,0.039,50.796,0.039,113.408c0,62.612,50.757,113.369,113.369,113.369
	c62.612,0,113.369-50.757,113.369-113.369C226.777,50.796,176.02,0.039,113.408,0.039z M99.272,60.525
	c0-0.511,0.416-0.924,0.927-0.924h11.835c0.512,0,0.928,0.414,0.928,0.924V72.36c0,0.512-0.416,0.93-0.928,0.93h-11.835
	c-0.511,0-0.927-0.418-0.927-0.93V60.525z M99.272,79.455c0-0.805,0.651-1.456,1.457-1.456h18.592c0.803,0,1.454,0.651,1.454,1.456
	v18.588c0,0.806-0.651,1.459-1.454,1.459h-18.592c-0.806,0-1.457-0.653-1.457-1.459V79.455z M79.911,47.278
	c0-0.39,0.315-0.702,0.701-0.702h8.961c0.386,0,0.702,0.313,0.702,0.702v8.959c0,0.387-0.316,0.702-0.702,0.702h-8.961
	c-0.386,0-0.701-0.314-0.701-0.702V47.278z M79.911,60.525c0-0.511,0.416-0.924,0.927-0.924h11.836c0.511,0,0.925,0.414,0.925,0.924
	V72.36c0,0.512-0.414,0.93-0.925,0.93H80.838c-0.511,0-0.927-0.418-0.927-0.93V60.525z M79.911,79.006
	c0-0.555,0.451-1.006,1.006-1.006H93.76c0.553,0,1.005,0.451,1.005,1.006v12.839c0,0.558-0.452,1.008-1.005,1.008H80.917
	c-0.555,0-1.006-0.45-1.006-1.008V79.006z M65.466,48.885c0-0.265,0.213-0.48,0.479-0.48h6.135c0.265,0,0.479,0.216,0.479,0.48
	v6.132c0,0.267-0.215,0.483-0.479,0.483h-6.135c-0.265,0-0.479-0.216-0.479-0.483V48.885z M65.466,60.334
	c0-0.404,0.328-0.733,0.735-0.733h9.39c0.407,0,0.737,0.329,0.737,0.733v9.391c0,0.408-0.33,0.737-0.737,0.737h-9.39
	c-0.408,0-0.735-0.33-0.735-0.737V60.334z M55.268,41.07c0-0.265,0.215-0.479,0.479-0.479h6.134c0.265,0,0.479,0.214,0.479,0.479
	v6.133c0,0.267-0.215,0.482-0.479,0.482h-6.134c-0.265,0-0.479-0.215-0.479-0.482V41.07z M67.496,107.004l31.035,31.034v-31.034
	h22.317v62.369H99.566l-60.592-62.369H67.496z M112.278,185.923c-33.875,0-61.334-8.536-61.334-19.065
	c0-5.776,8.277-10.949,21.329-14.444c-7.323,2.662-11.721,6.071-11.721,9.789c0,8.531,23.158,15.444,51.726,15.444
	c28.566,0,51.726-6.913,51.726-15.444c0-3.718-4.399-7.127-11.725-9.789c13.055,3.495,21.332,8.668,21.332,14.444
	C173.611,177.386,146.151,185.923,112.278,185.923z M163.561,133.642c-11.196,0-34.251,0-34.251,0v-19.729c0,0,21.392,0,28.266,0
	c8.351,0,11.601-4.986,11.601-9.753c0-4.771-2.807-9.645-10.973-9.645c-8.314,0-28.894,0-28.894,0V78.667c0,0,27.711,0,34.251,0
	c9.013,0,24.274,5.54,24.274,25.825C187.836,124.775,176.565,133.642,163.561,133.642z"/>
</svg>
