<svg version="1.1" id="Layer_1" xmlns="http://www.w3.org/2000/svg" xmlns:xlink="http://www.w3.org/1999/xlink" x="0px" y="0px"
	 width="226.777px" height="226.777px" viewBox="0 0 226.777 226.777" enable-background="new 0 0 226.777 226.777"
	 xml:space="preserve">
<path fill="#231F20" d="M113.619,0C50.868,0,0,50.866,0,113.619c0,62.753,50.868,113.619,113.619,113.619
	c62.753,0,113.619-50.866,113.619-113.619C227.238,50.866,176.372,0,113.619,0z M113.619,79.677c6.03,0,10.921,4.89,10.921,10.92
	c0,6.029-4.891,10.918-10.921,10.918S102.7,96.627,102.7,90.598C102.7,84.567,107.589,79.677,113.619,79.677z M163.096,153.474
	c-6.03,0-10.922-4.89-10.922-10.919c0-6.03,4.892-10.921,10.922-10.921c6.028,0,10.918,4.891,10.918,10.921
	C174.014,148.585,169.125,153.474,163.096,153.474z M113.619,198.715L44.741,64.558H80.74l33.119,67.918l32.4-67.918h36.239
	L113.619,198.715z"/>
</svg>
