<svg version="1.1" id="Layer_1" xmlns="http://www.w3.org/2000/svg" xmlns:xlink="http://www.w3.org/1999/xlink" x="0px" y="0px"
	 width="226.777px" height="226.777px" viewBox="0 0 226.777 226.777" enable-background="new 0 0 226.777 226.777"
	 xml:space="preserve">
<path fill="#231F20" d="M210.49,54.537l-91.335,129.297c0,0-1.766,2.699-5.347,2.699c-3.584,0-5.921-2.855-5.921-2.855
	L92.13,162.781l94.899-135.729C167.221,10.185,141.549,0,113.494,0C50.813,0,0,50.813,0,113.494s50.813,113.494,113.494,113.494
	s113.494-50.813,113.494-113.494C226.988,91.903,220.958,71.72,210.49,54.537z M28.958,110.617l9.892-11.069l8.347,11.069H28.958z
	 M41.814,96.232l0.23-0.259h44.709l24.468,31.878l-21.854,31.27L41.814,96.232z"/>
</svg>
