<svg version="1.1" id="Layer_1" xmlns="http://www.w3.org/2000/svg" xmlns:xlink="http://www.w3.org/1999/xlink" x="0px" y="0px"
	 width="595.279px" height="595.28px" viewBox="0 123.305 595.279 595.28" enable-background="new 0 123.305 595.279 595.28"
	 xml:space="preserve">
<g id="Layer_x0020_1">
	<g id="_921457168">
		<path fill="#000000" d="M488.968,287.71l-145.55-145.549c-25.145-25.143-66.289-25.143-91.434,0l-145.25,145.253
			c-8.386,8.385-8.386,22.08,0,30.465l44.058,44.055l29.332,27.145c8.71,8.049,22.009,8.049,30.705,0l58.658-54.272
			c16.122-14.919,40.901-14.919,57.012,0l58.67,54.272c8.693,8.049,22.006,8.049,30.688,0l29.344-27.127l43.768-43.765
			C497.35,309.79,497.35,296.096,488.968,287.71z"/>
		<path fill="#000000" d="M23.894,471.66l228.091,228.097c25.131,25.13,66.271,25.13,91.417,0l228.093-228.108
			c39.541-39.537,11.682-51.258-17.323-78.722l-35.78-33.906c-8.603-8.143-21.998-8.049-30.705,0l-58.658,54.269
			c-16.121,14.919-40.891,14.919-57.012,0l-58.67-54.269c-8.696-8.049-21.995-8.049-30.693,0l-58.658,54.269
			c-16.122,14.919-40.902,14.919-57.021,0l-58.659-54.269c-8.71-8.049-22.012-8.049-30.708,0l-32.853,30.395
			C14.426,417.477-17.412,430.356,23.894,471.66z"/>
	</g>
</g>
</svg>
