<svg version="1.1" id="Layer_1" xmlns="http://www.w3.org/2000/svg" xmlns:xlink="http://www.w3.org/1999/xlink" x="0px" y="0px"
	 width="595.279px" height="595.28px" viewBox="0 123.305 595.279 595.28" enable-background="new 0 123.305 595.279 595.28"
	 xml:space="preserve">
<path fill="#000000" d="M297.64,123.42c-164.317,0-297.524,133.207-297.524,297.524S133.323,718.468,297.64,718.468
	s297.523-133.206,297.523-297.523S461.957,123.42,297.64,123.42z M176.11,333.021l92.467-92.467
	c16.004-16.001,42.197-16.001,58.204,0l92.651,92.655c5.339,5.338,5.339,14.056,0,19.403l-27.859,27.859l-18.68,17.268
	c-5.523,5.125-14.002,5.125-19.537,0l-37.349-34.547c-10.25-9.498-26.026-9.498-36.29,0L242.38,397.74
	c-5.541,5.125-14.005,5.125-19.548,0l-18.672-17.279l-28.05-28.045C170.774,347.078,170.774,338.36,176.11,333.021z
	 M471.971,456.132l-145.202,145.21c-16.007,15.999-42.194,15.999-58.192,0L123.375,456.141
	c-26.293-26.291-6.025-34.49,13.282-52.356l20.915-19.349c5.535-5.122,14.002-5.122,19.546,0l37.343,34.547
	c10.261,9.498,26.034,9.498,36.298,0l37.34-34.547c5.535-5.122,14.003-5.122,19.537,0l37.35,34.547
	c10.261,9.498,26.028,9.498,36.289,0l37.344-34.547c5.543-5.122,14.07-5.185,19.548,0l22.777,21.584
	C479.405,423.504,497.14,430.963,471.971,456.132z"/>
</svg>
