<svg width="227" height="227" viewBox="0 0 227 227" xmlns="http://www.w3.org/2000/svg"><title>wax</title><path d="M113.5 227C50.813 227 0 176.187 0 113.5S50.813 0 113.5 0 227 50.813 227 113.5 176.187 227 113.5 227zm85.125-92.488l-53.09-45.84h-16.847l32.808 28.36-10.364 8.918-21.558-26.304h-14.258L89.41 131.178l-2.824 3.447L99.27 99.703H87.75l-8.4 23.586-8.412-23.58H56.75l-8.427 23.637-8.456-23.736H28.375l12.577 34.838h14.982l7.91-22.204 7.973 22.381h14.755l-8.825 10.797h14.167l30.538-37.178 8.747 10.697h-11.485l-5.909 7.3h23.353l6.774 8.228h14.174l11.853-10.144 11.896 10.187h16.77zm-16.635-21.083l15.954-13.492-15.968-.014-7.895 6.724 7.91 6.782z"/></svg>