<svg width="227" height="227" viewBox="0 0 227 227" xmlns="http://www.w3.org/2000/svg"><title>wax</title><path d="M226.502 131.744l-70.476-60.852h-22.365l43.553 37.648-13.758 11.837L134.84 85.46h-18.93l-34.39 41.858-3.749 4.576L94.61 85.535H79.317l-11.15 31.311L57 85.545H38.165L26.978 116.92 15.753 85.413H.498l16.696 46.246h19.888l10.5-29.475 10.585 29.71h19.587l-11.715 14.333h18.806l40.54-49.354 11.61 14.2h-15.246l-7.844 9.69h31l8.993 10.924h18.815l15.736-13.466 15.792 13.523h22.261zm-22.082-27.987l21.178-17.911-21.197-.019-10.481 8.927 10.5 9.003z"/></svg>