<svg width="227" height="227" viewBox="0 0 227 227" xmlns="http://www.w3.org/2000/svg"><title>wings</title><g fill-rule="evenodd"><path d="M120.811 129.368l-92.593 71.86 147.394-63.073 8.552-3.624-.016-.028 13.8-5.906.697-35.045 19.91 5.511-15.176-33.774-40.988 31.81-29.188-50.18L3.851 40.276l98.58 26.42 2.502 8.53L18.752 70.8l77.553 20.773 13.385 46.426z"/><path fill-opacity=".7" d="M120.811 129.368L109.69 138 96.303 91.57 18.752 70.798l86.182 4.434z"/><path d="M120.811 129.368l8.351 28.475 46.45-19.688L28.218 201.23l92.593-71.86zm41.58-32.27l40.988-31.81 15.176 33.775-19.91-5.51-.697 35.044-13.8 5.906-21.757-37.404z" fill-opacity=".3"/></g></svg>