<svg width="227" height="227" viewBox="0 0 227 227" xmlns="http://www.w3.org/2000/svg"><title>wings</title><g fill="none" fill-rule="evenodd"><path d="M119.849 122.715L58.664 170.2l97.397-41.679 5.651-2.395-.01-.019 9.118-3.902.46-23.157 13.157 3.641-10.028-22.318-27.084 21.02-19.288-33.159-85.475-4.388 65.142 17.458 1.653 5.637-56.948-2.926 51.246 13.727 8.845 30.678 7.349-5.703zM113.5 227C50.816 227 0 176.184 0 113.5S50.816 0 113.5 0 227 50.816 227 113.5 176.184 227 113.5 227z" fill="#000"/><g fill="#FFF"><path d="M119.849 122.715l-7.35 5.703-8.845-30.68L52.409 84.01l56.948 2.93z"/><path d="M119.849 122.715l5.518 18.815 30.694-13.009L58.664 170.2l61.185-47.485zm27.476-21.324l27.084-21.02 10.029 22.318-13.157-3.641-.46 23.157-9.12 3.902-14.376-24.716z"/></g></g></svg>