<svg xmlns="http://www.w3.org/2000/svg" width="226.777" height="226.777" viewBox="0 0 226.777 226.777"><path d="M44.149 7.611l14.093 14.093-14.094 14.094-14.093-14.093zM127.936 15.984L113.845 1.891 62.042 53.692l14.099 14.091zM106.958 98.595l84.5-84.5L177.369 0 92.856 84.509zM219.16 43.847L205.065 57.94l-14.094-14.094 14.093-14.093zM158.983 75.832l51.8 51.798 14.095-14.091-51.804-51.805zM142.258 92.549l-14.087 14.1 84.5 84.502 14.095-14.091zM182.926 218.832l-14.097-14.095 14.093-14.095 14.097 14.094zM99.137 210.476l14.092 14.093 51.802-51.802-14.098-14.09zM120.117 127.865l-84.501 84.499 14.091 14.096 84.51-84.509zM7.921 182.613l14.092-14.096 14.095 14.09-14.092 14.097zM68.09 150.627L16.293 98.829 2.198 112.921l51.803 51.805zM98.904 119.81l-84.502-84.5L.307 49.401l84.509 84.509z"/></svg>