<svg version="1.1" id="Layer_1" xmlns="http://www.w3.org/2000/svg" xmlns:xlink="http://www.w3.org/1999/xlink" x="0px" y="0px"
	 width="226.777px" height="226.777px" viewBox="0 0 226.777 226.777" enable-background="new 0 0 226.777 226.777"
	 xml:space="preserve">
<g>
	
		<rect x="34.184" y="11.739" transform="matrix(0.7071 0.7071 -0.7071 0.7071 28.278 -24.861)" fill="#231F20" width="19.931" height="19.932"/>
	<polygon fill="#231F20" points="127.936,15.984 113.845,1.891 62.042,53.692 76.141,67.783 	"/>
	<polygon fill="#231F20" points="106.958,98.595 191.458,14.095 177.369,0 92.856,84.509 	"/>
	
		<rect x="195.095" y="33.876" transform="matrix(-0.7071 0.7071 -0.7071 -0.7071 381.0646 -70.1508)" fill="#231F20" width="19.931" height="19.932"/>
	<polygon fill="#231F20" points="158.983,75.832 210.783,127.63 224.878,113.539 173.074,61.734 	"/>
	<polygon fill="#231F20" points="142.258,92.549 128.171,106.649 212.671,191.151 226.766,177.06 	"/>
	
		<rect x="172.958" y="194.788" transform="matrix(-0.7072 -0.7071 0.7071 -0.7072 167.5072 478.8843)" fill="#231F20" width="19.933" height="19.931"/>
	<polygon fill="#231F20" points="99.137,210.476 113.229,224.569 165.031,172.767 150.933,158.677 	"/>
	<polygon fill="#231F20" points="120.117,127.865 35.616,212.364 49.707,226.46 134.217,141.951 	"/>
	
		<rect x="12.046" y="172.652" transform="matrix(0.707 -0.7072 0.7072 0.707 -122.6947 69.0672)" fill="#231F20" width="19.932" height="19.93"/>
	<polygon fill="#231F20" points="68.09,150.627 16.293,98.829 2.198,112.921 54.001,164.726 	"/>
	<polygon fill="#231F20" points="98.904,119.81 14.402,35.31 0.307,49.401 84.816,133.91 	"/>
</g>
</svg>
