<svg width="227" height="227" viewBox="0 0 227 227" xmlns="http://www.w3.org/2000/svg"><circle cx="113.5" cy="113.5" r="113.5"/><path d="M184.274 140.13l-3.866 15.486-10.321-2.568 3.859-15.493-15.486-3.86 2.575-10.32 15.486 3.859 3.866-15.486 10.321 2.575-3.859 15.486 15.486 3.859-2.575 10.328-15.486-3.866zm-38.072-42.52c-1.44 9.577-6.66 14.23-13.563 15.89 9.442 4.987 14.223 12.677 9.562 26.084-5.788 16.649-19.337 18.124-37.327 14.755l-4.47 17.89-10.54-2.625 4.405-17.663a391.964 391.964 0 0 1-8.4-2.178l-4.426 17.735-10.527-2.625 4.47-17.933c-2.47-.631-4.966-1.298-7.52-1.937l-13.727-3.426 5.307-12.357s7.767 2.064 7.66 1.915c2.994.73 4.328-1.263 4.86-2.59l7.051-28.289 1.121.277a8.541 8.541 0 0 0-1.1-.355l5.037-20.196c.142-2.291-.617-5.171-4.895-6.242.17-.107-7.654-1.902-7.654-1.902l2.873-11.52 14.542 3.632-.014.05c2.185.546 4.44 1.064 6.74 1.582l4.419-17.72 10.541 2.624-4.334 17.38c2.83.638 5.675 1.291 8.441 1.986l4.306-17.259 10.549 2.625-4.42 17.727c13.308 4.611 23.02 11.584 21.033 24.665zm-24.31 34.653c3.483-13.975-19.451-17.45-26.602-19.238l-5.909 23.743c7.15 1.773 29.191 8.888 32.525-4.512l-.014.007zm3.455-34.731c3.163-12.72-16.018-15.443-21.97-16.926l-5.37 21.544c5.952 1.49 24.296 7.569 27.34-4.618z"/></svg>