<svg version="1.1" id="Layer_1" xmlns="http://www.w3.org/2000/svg" xmlns:xlink="http://www.w3.org/1999/xlink" x="0px" y="0px"
	 width="226.777px" height="226.777px" viewBox="0 0 226.777 226.777" enable-background="new 0 0 226.777 226.777"
	 xml:space="preserve">
<g>
	<path fill="#231F20" d="M177.174,49.819c7.424,2.874,14.387,6.273,20.76,10.168c3.136,1.912,6.07,3.918,8.815,6.002
		c-0.588-13.332-5.014-24.543-13.108-32.638c-7.986-7.983-19.217-12.471-32.616-13.08c2.077,2.738,4.074,5.665,5.98,8.787
		C170.901,35.431,174.3,42.394,177.174,49.819z"/>
	<path fill="#231F20" d="M145.979,14.015c-9.837-9.003-20.887-13.796-32.33-13.796S91.155,5.011,81.317,14.015
		c10.526,1.411,21.44,4.637,32.333,9.461C124.544,18.652,135.457,15.426,145.979,14.015z"/>
	<path fill="#231F20" d="M50.125,49.82c2.874-7.425,6.273-14.388,10.167-20.762c1.908-3.122,3.905-6.049,5.98-8.787
		c-13.399,0.609-24.63,5.097-32.614,13.08c-8.096,8.094-12.521,19.306-13.108,32.638c2.746-2.083,5.681-4.09,8.814-6.002
		C35.738,56.092,42.699,52.694,50.125,49.82z"/>
	<path fill="#231F20" d="M171.743,171.436c1.867-5.153,3.471-10.53,4.811-16.087c-3.183,3.699-6.539,7.319-10.057,10.841
		c-3.529,3.526-7.154,6.881-10.852,10.061C161.204,174.912,166.586,173.305,171.743,171.436z"/>
	<path fill="#231F20" d="M99.068,187.541c4.823,2.935,9.699,5.559,14.582,7.857c4.88-2.299,9.757-4.923,14.583-7.857
		c-4.804,0.355-9.67,0.54-14.583,0.54C108.737,188.081,103.87,187.896,99.068,187.541z"/>
	<path fill="#231F20" d="M81.317,212.673c9.838,9.003,20.89,13.796,32.333,13.796s22.493-4.793,32.332-13.796
		c-10.522-1.409-21.438-4.638-32.332-9.462C102.757,208.035,91.843,211.263,81.317,212.673z"/>
	<path fill="#231F20" d="M177.172,176.867c-2.874,7.426-6.271,14.387-10.167,20.763c-1.906,3.124-3.903,6.048-5.98,8.784
		c13.399-0.607,24.63-5.094,32.616-13.078c8.095-8.097,12.521-19.306,13.108-32.638c-2.745,2.084-5.68,4.09-8.815,6.004
		C191.56,170.596,184.597,173.993,177.172,176.867z"/>
	<path fill="#231F20" d="M16.322,91.474c-0.863-3.569-1.52-7.063-1.988-10.477c-9.01,9.843-13.809,20.899-13.809,32.345
		c0,11.446,4.798,22.505,13.809,32.347c0.469-3.417,1.125-6.909,1.988-10.478c1.754-7.261,4.272-14.588,7.491-21.87
		C20.594,106.06,18.075,98.735,16.322,91.474z"/>
	<path fill="#231F20" d="M212.966,80.997c-0.469,3.414-1.126,6.909-1.988,10.478c-1.754,7.261-4.274,14.585-7.49,21.869
		c3.216,7.282,5.736,14.609,7.49,21.87c0.862,3.568,1.52,7.061,1.988,10.478c9.01-9.842,13.808-20.901,13.808-32.347
		C226.773,101.897,221.975,90.838,212.966,80.997z"/>
	<path fill="#231F20" d="M55.556,171.436c5.155,1.869,10.536,3.476,16.098,4.814c-3.698-3.18-7.324-6.534-10.851-10.061
		c-3.521-3.521-6.876-7.142-10.058-10.841C52.083,160.906,53.689,166.283,55.556,171.436z"/>
	<path fill="#231F20" d="M50.125,176.867c-7.426-2.874-14.387-6.272-20.761-10.165c-3.133-1.914-6.068-3.92-8.814-6.004
		c0.588,13.332,5.013,24.541,13.108,32.638c7.984,7.984,19.214,12.471,32.614,13.078c-2.075-2.736-4.072-5.66-5.98-8.784
		C56.398,191.254,52.999,184.293,50.125,176.867z"/>
	<path fill="#231F20" d="M31.492,113.343c2.325,4.964,4.992,9.903,7.975,14.779c-0.367-4.867-0.554-9.801-0.554-14.779
		c0-4.978,0.187-9.912,0.554-14.778C36.484,103.441,33.817,108.38,31.492,113.343z"/>
	<path fill="#231F20" d="M206.599,74.843c-3.646-3.134-7.754-6.107-12.31-8.891c-4.387-2.68-9.078-5.108-14.015-7.287
		c2.485,7.848,4.424,16.117,5.781,24.685c5.099,7.016,9.577,14.235,13.366,21.545c1.954-5.032,3.552-10.065,4.759-15.063
		C205.434,84.643,206.236,79.634,206.599,74.843z"/>
	<path fill="#231F20" d="M180.275,168.022c4.937-2.178,9.628-4.605,14.015-7.287c4.556-2.783,8.664-5.759,12.31-8.891
		c-0.36-4.793-1.165-9.801-2.418-14.991c-1.207-4.996-2.805-10.03-4.759-15.062c-3.789,7.309-8.268,14.527-13.366,21.544
		C184.699,151.903,182.76,160.173,180.275,168.022z"/>
	<path fill="#231F20" d="M195.806,113.343c-2.327-4.965-4.992-9.904-7.977-14.779c0.368,4.867,0.554,9.8,0.554,14.779
		c0,4.978-0.186,9.912-0.552,14.781C190.814,123.246,193.482,118.307,195.806,113.343z"/>
	<path fill="#231F20" d="M143.66,40.938c8.561,1.357,16.824,3.294,24.667,5.78c-2.178-4.938-4.606-9.629-7.287-14.016
		c-2.779-4.547-5.748-8.652-8.874-12.291c-9.564,0.714-19.7,3.191-29.945,7.189C129.466,31.375,136.65,35.839,143.66,40.938z"/>
	<path fill="#231F20" d="M83.641,185.75c-8.562-1.357-16.826-3.296-24.668-5.781c2.176,4.938,4.606,9.63,7.286,14.017
		c2.778,4.547,5.747,8.651,8.875,12.29c9.564-0.715,19.699-3.191,29.946-7.189C97.835,195.314,90.648,190.848,83.641,185.75z"/>
	<path fill="#231F20" d="M58.972,46.718c7.84-2.485,16.106-4.422,24.667-5.78c7.007-5.099,14.194-9.563,21.439-13.337
		c-10.248-3.999-20.382-6.476-29.946-7.189c-3.128,3.639-6.096,7.744-8.875,12.291C63.578,37.089,61.148,41.78,58.972,46.718z"/>
	<path fill="#231F20" d="M71.651,50.438c-5.559,1.339-10.94,2.945-16.095,4.811c-1.867,5.155-3.473,10.532-4.811,16.089
		c3.181-3.701,6.537-7.321,10.058-10.841C64.329,56.97,67.954,53.616,71.651,50.438z"/>
	<path fill="#231F20" d="M47.023,58.665c-4.938,2.178-9.629,4.607-14.014,7.287c-4.556,2.784-8.666,5.757-12.31,8.891
		c0.361,4.791,1.164,9.8,2.416,14.988c1.208,4.998,2.807,10.033,4.759,15.063c3.791-7.309,8.267-14.528,13.366-21.545
		C42.597,74.783,44.535,66.513,47.023,58.665z"/>
	<path fill="#231F20" d="M20.699,151.844c3.644,3.132,7.754,6.107,12.31,8.891c4.385,2.682,9.076,5.109,14.014,7.287
		c-2.487-7.85-4.426-16.119-5.782-24.687c-5.099-7.017-9.576-14.235-13.366-21.544c-1.952,5.031-3.551,10.065-4.759,15.062
		C21.863,142.044,21.06,147.053,20.699,151.844z"/>
	<path fill="#231F20" d="M176.553,71.336c-1.34-5.556-2.943-10.934-4.811-16.088c-5.157-1.865-10.536-3.472-16.098-4.811
		c3.699,3.179,7.322,6.532,10.852,10.059C170.014,64.016,173.371,67.636,176.553,71.336z"/>
	<path fill="#231F20" d="M113.65,31.288c-4.883,2.297-9.76,4.924-14.584,7.858c4.805-0.356,9.671-0.539,14.584-0.539
		c4.913,0,9.78,0.183,14.583,0.539C123.409,36.212,118.53,33.586,113.65,31.288z"/>
	<path fill="#231F20" d="M168.327,179.971c-7.843,2.482-16.108,4.421-24.669,5.778c-7.008,5.099-14.192,9.562-21.437,13.336
		c10.246,3.998,20.38,6.475,29.944,7.189c3.126-3.641,6.095-7.743,8.874-12.29C163.72,189.598,166.149,184.907,168.327,179.971z"/>
	<path fill="#231F20" d="M148.604,128.628c0-6.761-2.759-12.889-7.209-17.316c3.328-3.935,5.338-9.014,5.338-14.558
		c0-12.448-10.127-22.577-22.575-22.577H85.246c-4.183,0-7.574,3.391-7.574,7.573v63.797c0,4.186,3.391,7.576,7.574,7.576h38.912
		c0.342,0,0.676-0.033,1.006-0.076C138.178,152.516,148.604,141.77,148.604,128.628z M92.821,89.325h31.337
		c4.096,0,7.429,3.332,7.429,7.428c0,4.096-3.333,7.428-7.429,7.428H92.821V89.325z M124.158,137.925
		c-0.284,0-0.563,0.02-0.839,0.05H92.821V119.33h31.337c5.125,0,9.297,4.172,9.297,9.298S129.283,137.925,124.158,137.925z"/>
</g>
</svg>
