<svg version="1.1" id="Layer_1" xmlns="http://www.w3.org/2000/svg" xmlns:xlink="http://www.w3.org/1999/xlink" x="0px" y="0px"
	 width="226.777px" height="226.777px" viewBox="0 0 226.777 226.777" enable-background="new 0 0 226.777 226.777"
	 xml:space="preserve">
<path id="XCP" d="M193.424,50.858h-46.207l-80.195,80.196H46.316l-14.883-14.882V97.292l14.93-14.929h19.537L76.372,92.8
	c0.682,0.713,1.637,1.163,2.702,1.163c1.121,0,2.114-0.501,2.801-1.282L98.641,75.96v-0.015c0.676-0.676,1.096-1.613,1.096-2.646
	c0-1.015-0.407-1.932-1.063-2.605v-0.007L78.92,50.93H33.342L0,84.272v44.92l33.295,33.295h46.745l80.196-80.196h20.168
	l15.058,15.059v19.197l-14.618,14.619h-22.675l-8.661-8.66h-0.007c-0.68-0.689-1.62-1.117-2.664-1.117
	c-1.01,0-1.922,0.403-2.596,1.054h-0.015l-19.616,19.617v45.792v0.002c0,2.064,1.676,3.742,3.742,3.742h0.003h23.926
	c2.056-0.004,3.722-1.664,3.736-3.719l0.026-18.836l0.012-0.012c0.006-3.551,2.884-6.428,6.436-6.43h31.372l33.032-33.033V84.331
	L193.424,50.858z"/>
</svg>
