<svg version="1.1" id="Layer_1" xmlns="http://www.w3.org/2000/svg" xmlns:xlink="http://www.w3.org/1999/xlink" x="0px" y="0px"
	 width="226.777px" height="226.777px" viewBox="0 0 226.777 226.777" enable-background="new 0 0 226.777 226.777"
	 xml:space="preserve">
<path id="XCP_alt" d="M113.367,0.044C50.756,0.044,0,50.8,0,113.411c0,62.611,50.756,113.367,113.367,113.367
	c62.611,0,113.367-50.756,113.367-113.367C226.733,50.8,175.978,0.044,113.367,0.044z M184.63,126.48l-20.964,20.964h-19.911
	c-2.253,0.002-4.08,1.827-4.083,4.081l-0.008,0.007l-0.018,11.954c-0.009,1.305-1.066,2.358-2.37,2.36H122.09h-0.001
	c-1.312,0-2.375-1.063-2.375-2.375v-0.001v-29.063l12.45-12.45h0.009c0.427-0.412,1.007-0.668,1.647-0.668
	c0.663,0,1.26,0.271,1.69,0.708h0.005l5.497,5.496h14.39l9.278-9.277v-12.185l-9.557-9.556h-12.8l-50.896,50.896H61.761
	l-21.132-21.131V97.733l21.162-21.161h28.926l12.536,12.539v0.004c0.417,0.427,0.676,1.01,0.676,1.653
	c0,0.655-0.267,1.25-0.695,1.679v0.01l-10.641,10.611c-0.437,0.496-1.067,0.814-1.778,0.814c-0.676,0-1.281-0.285-1.714-0.738
	l-6.647-6.623H70.054l-9.475,9.474v11.983l9.445,9.444h13.142l50.896-50.896h29.325L184.63,97.77V126.48z"/>
</svg>
