<svg width="227" height="227" viewBox="0 0 227 227" xmlns="http://www.w3.org/2000/svg"><title>xdn</title><path d="M113.5 227C50.813 227 0 176.187 0 113.5S50.813 0 113.5 0 227 50.813 227 113.5 176.187 227 113.5 227zM94.41 85.125v56.75h19.423c9.378 0 26.127-5.696 26.127-28.375 0-22.679-16.742-28.375-26.127-28.375H94.411zm10.712 45.258V96.617h8.045c6.696 0 14.733 4.1 14.733 16.883s-8.037 16.883-14.733 16.883h-8.045zm42.215-45.258v56.75h4.015V93.127l36.157 48.748h4.022v-56.75h-4.022v49.84l-36.164-49.84h-4.008zm-111.868 0v14.188h13.393V85.124H35.469zm20.096 0v14.188h13.386V85.124H55.565zm20.09 0v14.188h13.4V85.124h-13.4zm0 21.281v14.188h13.4v-14.188h-13.4zm0 21.281v14.188h13.4v-14.188h-13.4zm-20.09-21.28v14.187h13.386v-14.188H55.565z"/></svg>