<svg width="227" height="227" viewBox="0 0 227 227" xmlns="http://www.w3.org/2000/svg"><title>Shape</title><path d="M86.203 70.125v82.545h28.25c13.641 0 38.003-8.285 38.003-41.272 0-32.987-24.351-41.273-38.002-41.273H86.203zm15.58 65.83V86.84h11.7c9.741 0 21.432 5.964 21.432 24.558 0 18.593-11.69 24.557-21.431 24.557h-11.701zm61.403-65.83v82.545h5.84V81.764l52.592 70.906h5.85V70.125h-5.85v72.496l-52.602-72.496h-5.83zm-162.717 0v20.636h19.48V70.125H.47zm29.231 0v20.636h19.47V70.125H29.7zm29.221 0v20.636h19.491V70.125h-19.49zm0 30.955v20.636h19.491V101.08h-19.49zm0 30.954v20.636h19.491v-20.636h-19.49zm-29.22-30.954v20.636h19.47V101.08H29.7z"/></svg>