<svg version="1.1" id="Layer_1" xmlns="http://www.w3.org/2000/svg" xmlns:xlink="http://www.w3.org/1999/xlink" x="0px" y="0px"
	 width="226.777px" height="226.777px" viewBox="0 0 226.777 226.777" enable-background="new 0 0 226.777 226.777"
	 xml:space="preserve">
<g>
	<path fill="#231F20" d="M78.6,106.173c0.496-0.27,0.938-0.521,1.376-0.792c15.509-9.309,24.78-25.579,24.857-43.568l-0.002-0.136
		c0-24.766,12.935-46.864,33.7-58.891c-8.414-0.91-16.844-1.37-25.167-1.37c-38.646,0-77.097,9.6-111.201,27.76
		c-1.605,0.854-1.715,1.041-1.838,1.258c-0.268,0.463-0.345,0.634-0.321,1.471C0.41,45.391,1.99,58.942,4.703,72.177
		c0.571,2.777,1.235,5.701,2.028,8.924c7.849,18.838,26.752,31.479,47.11,31.479C62.509,112.58,71.072,110.364,78.6,106.173z"/>
	<path fill="#231F20" d="M139.541,120.942c-0.425-0.261-0.813-0.487-1.2-0.704l-0.469-0.271c-7.336-4.057-15.862-6.252-24.488-6.252
		c-8.671,0-17.201,2.195-24.669,6.354c-0.513,0.319-1.191,0.715-1.869,1.082c-10.016,5.57-21.439,8.522-33.004,8.522
		c-11.689,0-23.277-3.117-33.5-8.91c18.95,42.441,50.367,79.015,89.329,103.742c0.933,0.596,1.578,0.855,3.852,0.855
		c2.059,0,2.56-0.208,3.57-0.846c10.615-6.747,20.727-14.364,30.049-22.641c2.121-1.882,4.335-3.932,6.766-6.265
		c6.745-8.873,10.457-19.835,10.457-30.899C164.363,146.876,154.852,130.105,139.541,120.942z"/>
	<path fill="#231F20" d="M226.444,30.431c-0.121-0.208-0.231-0.4-1.838-1.256c-11.364-6.052-23.282-11.198-35.429-15.295
		c-2.721-0.918-5.57-1.818-8.469-2.676c-2.602-0.398-5.222-0.6-7.798-0.6c-27.901,0-50.641,22.532-50.979,50.356v0.653
		c0.008,17.994,9.207,34.302,24.616,43.628l0.224,0.137c0.471,0.255,1.063,0.593,1.617,0.93
		c20.194,12.09,32.823,34.165,33.062,57.717c27.873-38.406,43.886-84.932,45.31-132.138
		C226.783,31.055,226.72,30.909,226.444,30.431z"/>
</g>
</svg>
