<svg version="1.1" id="Layer_1" xmlns="http://www.w3.org/2000/svg" xmlns:xlink="http://www.w3.org/1999/xlink" x="0px" y="0px"
	 width="226.777px" height="226.777px" viewBox="0 0 226.777 226.777" enable-background="new 0 0 226.777 226.777"
	 xml:space="preserve">
<path fill="#231F20" d="M113.494,0C50.813,0,0,50.813,0,113.494s50.813,113.494,113.494,113.494s113.494-50.813,113.494-113.494
	S176.175,0,113.494,0z M56.229,109.718c-0.426-1.731-0.782-3.301-1.088-4.792c-1.456-7.106-2.305-14.382-2.523-21.623
	c-0.013-0.45,0.028-0.541,0.173-0.79c0.066-0.117,0.125-0.217,0.986-0.675c18.31-9.751,38.957-14.905,59.706-14.905
	c4.469,0,8.995,0.246,13.513,0.735c-11.149,6.458-18.094,18.323-18.094,31.62l0.001,0.073c-0.042,9.659-5.02,18.396-13.346,23.393
	c-0.237,0.146-0.474,0.28-0.739,0.425c-4.043,2.25-8.641,3.44-13.294,3.44C70.594,126.619,60.445,119.832,56.229,109.718z
	 M135.252,171.198c-1.306,1.254-2.494,2.354-3.634,3.365c-5.005,4.443-10.435,8.533-16.133,12.155
	c-0.544,0.343-0.812,0.454-1.917,0.454c-1.221,0-1.567-0.14-2.068-0.459c-20.919-13.277-37.788-32.914-47.962-55.701
	c5.488,3.11,11.709,4.784,17.987,4.784c6.21,0,12.343-1.586,17.72-4.577c0.364-0.196,0.729-0.408,1.005-0.58
	c4.009-2.232,8.588-3.412,13.245-3.412c4.631,0,9.209,1.18,13.148,3.358l0.252,0.146c0.207,0.116,0.416,0.236,0.644,0.377
	c8.221,4.921,13.327,13.926,13.327,23.5C140.865,160.55,138.873,166.436,135.252,171.198z M150.041,154.241
	c-0.129-12.646-6.91-24.496-17.752-30.988c-0.298-0.182-0.616-0.363-0.869-0.5l-0.119-0.074
	c-8.273-5.007-13.214-13.764-13.217-23.424v-0.35c0.182-14.94,12.391-27.038,27.371-27.038c1.383,0,2.79,0.108,4.188,0.322
	c1.556,0.46,3.085,0.944,4.546,1.437c6.522,2.2,12.922,4.963,19.021,8.212c0.863,0.459,0.923,0.563,0.988,0.674
	c0.147,0.256,0.183,0.334,0.17,0.782C173.603,108.639,165.006,133.62,150.041,154.241z"/>
</svg>
