<svg width="227" height="227" viewBox="0 0 227 227" xmlns="http://www.w3.org/2000/svg"><title>xmg</title><path d="M113.5 227C50.813 227 0 176.187 0 113.5S50.813 0 113.5 0 227 50.813 227 113.5 176.187 227 113.5 227zm49.656-88.388l-5.256-1.603a58.31 58.31 0 0 1-3.533 7.25 39.74 39.74 0 0 1-4.363 6.192 20.713 20.713 0 0 1-5.568 4.64c-2.142 1.227-4.512 1.844-7.094 1.844h-52.53l46.025-52.245v-2.228L93.602 56.07h24.85c3.504 0 6.511.142 9.03.447 2.511.305 4.483.802 5.916 1.497 2.029.837 4.334 2.965 6.916 6.377 2.59 3.412 5.725 8.555 9.414 15.429h5.604l-3.036-30.163h-87.48v7.037l47.194 59.418-48.166 54.756v6.477h88.792l10.52-38.732z"/></svg>