<svg width="227" height="227" viewBox="0 0 227 227" xmlns="http://www.w3.org/2000/svg"><title>xmg</title><path d="M205.244 157.69l-9.25-2.822a102.609 102.609 0 0 1-6.216 12.757 69.929 69.929 0 0 1-7.677 10.898c-2.746 3.27-6.03 5.992-9.8 8.164-3.769 2.16-7.938 3.245-12.482 3.245H67.384l80.988-91.936v-3.92L82.85 12.44h43.727c6.167 0 11.46.25 15.89.787 4.42.536 7.89 1.41 10.412 2.634 3.57 1.473 7.627 5.217 12.17 11.222 4.557 6.004 10.074 15.054 16.565 27.15h9.861l-5.342-53.077H32.195v12.383l83.048 104.556-84.758 96.354v11.397h156.247l18.512-68.156z"/></svg>