<svg version="1.1" id="Layer_1" xmlns="http://www.w3.org/2000/svg" xmlns:xlink="http://www.w3.org/1999/xlink" x="0px" y="0px"
	 width="226.777px" height="226.777px" viewBox="0 0 226.777 226.777" enable-background="new 0 0 226.777 226.777"
	 xml:space="preserve">
<g id="XMR_2_">
	<path d="M39.722,149.021v-95.15l73.741,73.741l73.669-73.669v95.079h33.936c3.699-11.193,5.709-23.155,5.709-35.59
		c0-62.6-50.746-113.347-113.347-113.347c-62.6,0-113.347,50.747-113.347,113.347c0,12.435,2.008,24.396,5.709,35.59H39.722z"/>
	<path d="M162.54,172.077v-60.152l-49.495,49.495l-49.148-49.148v59.806H16.417c19.864,32.786,55.879,54.7,97.013,54.7
		c41.135,0,77.149-21.914,97.013-54.7H162.54z"/>
</g>
</svg>
