<svg width="227" height="227" viewBox="0 0 227 227" xmlns="http://www.w3.org/2000/svg"><title>xmy</title><path d="M165.296 162.61h46.841c7.836 0 14.185-6.584 14.185-14.697s-6.349-14.697-14.256-14.697l-27.047.184c6.975-22.38 10.482-37.098 10.482-44.144 0-18.647-12.954-29.21-28.36-29.21-16.646 0-28.369 8.697-35.148 16.164-4.924-11.19-16.031-16.165-24.647-16.165-8.615 0-18.493 2.482-25.898 11.816-1.64-7.047-6.154-10.565-13.559-10.565H15.17c-8 0-14.482 6.534-14.482 14.596 0 8.072 6.482 14.615 14.8 14.615h31.437L32.75 149.554c.41 8.708 4.513 13.057 12.328 13.057 8.626 0 14.175-4.975 16.647-14.923 4.513-18.226 8.01-31.898 10.482-41.027C75.9 92.99 83.92 86.774 92.546 86.774c8.636 0 12.328 6.215 12.328 11.19 0 3.313-1.149 8.615-3.456 15.897-5.918 21.816-8.872 33.724-8.872 35.693 0 4.975 1.846 13.057 12.954 13.057 7.385 0 12.533-3.734 15.405-11.18 7.405-28.605 12.124-46.216 14.185-52.842 3.077-9.949 13.231-11.815 17.877-11.815 8.01 0 12.329 5.6 12.329 11.19 0 2.902-.729 6.184-2.195 9.846-7.17 23.652-10.75 37.775-10.75 42.36 0 9.333 6.78 12.44 12.945 12.44z"/></svg>