<svg width="226.777" height="226.777" viewBox="0 0 72 72" xmlns="http://www.w3.org/2000/svg" xmlns:xlink="http://www.w3.org/1999/xlink"><title>Union</title><desc>Created using Figma</desc><use xlink:href="#a" transform="scale(3)"/><defs><path id="a" fill-rule="evenodd" d="M9.045 8.587c0-.553-.39-1.008-1.105-1.008h-.013l-.012.002H.84C2.6 3.14 6.934 0 12 0c6.628 0 12 5.372 12 12 0 .674-.056 1.336-.163 1.98h-5.438l.608-2.273c.146-.552.293-1.17.293-1.658 0-1.575-.96-2.535-2.52-2.535-1.316 0-2.356.65-3.12 1.577-.341-.959-1.121-1.577-2.307-1.577-.975 0-1.69.52-2.308 1.073zm6.647 6.273c-.267.99.133 1.584.909 1.623v.002h6.532C21.356 20.89 17.042 24 12 24 5.373 24 0 18.627 0 12c0-.652.053-1.291.153-1.915h6.022L4.901 14.86c-.277 1.024.162 1.625.991 1.625.65 0 1.17-.455 1.382-1.251l1.007-3.738c.276-1.04.877-1.739 1.853-1.739.763 0 1.153.374 1.153 1.073 0 .211-.048.536-.113.78l-.878 3.25c-.276 1.024.163 1.625.992 1.625.65 0 1.17-.455 1.38-1.251l1.009-3.738c.276-1.04.877-1.739 1.852-1.739.764 0 1.154.374 1.154 1.073 0 .211-.049.536-.114.78l-.877 3.25z"/></defs></svg>