<svg version="1.1" id="Layer_1" xmlns="http://www.w3.org/2000/svg" xmlns:xlink="http://www.w3.org/1999/xlink" x="0px" y="0px"
	 width="226.777px" height="226.777px" viewBox="0 0 226.777 226.777" enable-background="new 0 0 226.777 226.777"
	 xml:space="preserve">
<path fill="#231F20" d="M113.379,0C50.761,0,0,50.761,0,113.377c0,62.617,50.761,113.379,113.379,113.379
	c62.616,0,113.377-50.763,113.377-113.379C226.757,50.761,175.995,0,113.379,0z M166.387,113.145
	c0,29.39-22.699,39.381-41.806,39.381v7.662h14.742v10.377h-14.742v11.933h-23.053v-11.933H87.433v-10.377h14.063v-7.759
	c-6.111,0-41.125-1.456-41.125-41.418c0-37.731,0-48.108,0-48.108h22.891c0,0,0,43.55,0,49.952
	c0,20.854,18.331,20.659,18.331,20.659V62.903h22.988v70.611c0,0,18.914,1.066,18.914-20.949c0-22.019,0-49.662,0-49.662h22.892
	C166.387,62.903,166.387,97.239,166.387,113.145z"/>
</svg>
