<svg version="1.1" id="Layer_1" xmlns="http://www.w3.org/2000/svg" xmlns:xlink="http://www.w3.org/1999/xlink" x="0px" y="0px"
	 width="226.777px" height="226.777px" viewBox="0 0 226.777 226.777" enable-background="new 0 0 226.777 226.777"
	 xml:space="preserve">
<path id="XRP_alt" d="M113.48,0.183C50.908,0.183,0.183,50.908,0.183,113.48c0,62.572,50.725,113.297,113.297,113.297
	c62.572,0,113.297-50.726,113.297-113.297C226.777,50.908,176.052,0.183,113.48,0.183z M160.899,163.96
	c-7.365,12.656-23.905,17.119-36.941,9.97c-13.037-7.149-17.635-23.205-10.268-35.862c3.068-5.272,1.153-11.96-4.28-14.941
	c-5.356-2.937-12.132-1.166-15.261,3.941h-0.002v-0.021c-0.044,0.078-0.083,0.155-0.128,0.232
	c-7.365,12.656-23.904,17.12-36.94,9.97c-13.038-7.149-17.636-23.207-10.271-35.86c7.367-12.657,23.905-17.12,36.944-9.969
	c4.357,2.39,7.765,5.779,10.107,9.7v-0.014l0.002-0.002c3.248,5.032,10.055,6.654,15.341,3.603c5.362-3.095,7.125-9.824,3.936-15.03
	c-7.651-12.494-3.42-28.645,9.451-36.072c12.869-7.428,29.506-3.321,37.159,9.172c7.651,12.495,3.422,28.645-9.451,36.073
	c-4.303,2.483-9.028,3.671-13.697,3.694l0.012,0.005v0.002c-6.175,0.207-11.081,5.161-11.007,11.191
	c0.073,6.11,5.239,11.008,11.533,10.936l-0.039,0.021c4.591-0.036,9.251,1.053,13.533,3.401
	C163.666,135.251,168.264,151.306,160.899,163.96z"/>
</svg>
