<svg version="1.1" id="Layer_1" xmlns="http://www.w3.org/2000/svg" xmlns:xlink="http://www.w3.org/1999/xlink" x="0px" y="0px"
	 width="226.777px" height="226.777px" viewBox="0 0 226.777 226.777" enable-background="new 0 0 226.777 226.777"
	 xml:space="preserve">
<path fill="#1D1D1B" d="M113.417,0C50.779,0,0,50.779,0,113.417s50.779,113.417,113.417,113.417s113.417-50.779,113.417-113.417
	S176.055,0,113.417,0z M72.944,157.51L38.787,72.683l68.313,111.955L72.944,157.51z M109.86,175.084L41.548,63.128L84.942,99.52
	L70.406,67.409l27.312,22.906L85.357,66.542l24.503,20.549V175.084z M116.973,87.091l24.504-20.549l-12.362,23.773l27.313-22.906
	L141.892,99.52l43.395-36.393l-68.313,111.956V87.091z M153.891,157.51l-34.157,27.128l68.313-111.955L153.891,157.51z"/>
</svg>
