<svg version="1.1" id="Layer_1" xmlns="http://www.w3.org/2000/svg" xmlns:xlink="http://www.w3.org/1999/xlink" x="0px" y="0px"
	 width="226.777px" height="226.777px" viewBox="0 0 226.777 226.777" enable-background="new 0 0 226.777 226.777"
	 xml:space="preserve">
<path id="YBC_alt" fill="#231F20" d="M113.448,0.122C50.862,0.122,0.123,50.861,0.123,113.451
	c0,62.588,50.739,113.326,113.326,113.326c62.59,0,113.329-50.738,113.329-113.326C226.777,50.861,176.039,0.122,113.448,0.122z
	 M131.091,183.756c-5.647,1.414-11.556,2.167-17.642,2.167c-40.025,0-72.471-32.448-72.471-72.472
	c0-30.076,18.319-55.869,44.405-66.837v84.169l10.76,10.734h34.948V183.756z M141.517,180.285V96.118l-10.763-10.734H95.809V43.143
	c5.646-1.412,11.556-2.167,17.64-2.167c40.026,0,72.474,32.448,72.474,72.475C185.923,143.523,167.603,169.317,141.517,180.285z"/>
</svg>
