<svg width="227" height="227" viewBox="0 0 227 227" xmlns="http://www.w3.org/2000/svg"><title>zcl</title><path d="M113.5 227C50.813 227 0 176.187 0 113.5S50.813 0 113.5 0 227 50.813 227 113.5 176.187 227 113.5 227zm-.057-35.469c43.783-.056 78.003-35.44 78.088-78.017.057-43.045-34.901-78.017-77.925-78.045C70.456 35.44 35.47 70.335 35.47 113.4c0 43.158 34.88 78.102 77.974 78.13zm-31.801-42.35c26.382.015 52.75 0 79.102-.056-13.712 19.139-42.96 30.595-70.852 18.146-28.8-12.84-40.292-44.89-32.163-70.441h.965c16.032-.014 32.078 0 48.124.021a1.405 1.405 0 0 0 1.433-.823c3.078-5.512 6.214-10.995 9.314-16.5.22-.355.418-.738.688-1.263H67.32c-.022-.085-.078-.142-.107-.22 1.128-1.326 2.2-2.695 3.384-3.972 9.01-9.747 20.004-15.911 33.057-18.231 13.123-2.305 25.623-.383 37.497 5.675a54.317 54.317 0 0 1 13.053 9.2c8.633 8.265 14.485 18.146 17.153 29.851a59.006 59.006 0 0 1-.745 29.276c-.135.525-.327.745-.93.745a44929.61 44929.61 0 0 0-53.571-.029c-.192 0-.384 0-.745-.028 9.895-17.43 19.713-34.76 29.602-52.21h-1.015c-7.115 0-14.258 0-21.38-.028a1.036 1.036 0 0 0-1.071.631c-6.1 10.783-12.201 21.565-18.338 32.333a18464.326 18464.326 0 0 0-20.969 36.902c-.163.27-.333.603-.553 1.014v.008zm89.686 13.464l-10.222-10.413c18.742-23.19 17.976-55.487-.191-77.322 3.461-3.504 6.952-7.002 10.527-10.605 11.456 13.904 17.592 29.63 18.025 47.528.553 21.728-8.243 39.824-18.139 50.813z"/></svg>