<svg width="227" height="227" viewBox="0 0 227 227" xmlns="http://www.w3.org/2000/svg"><title>zcl</title><path d="M113.418 226.322c63.303-.082 112.781-51.242 112.904-112.801C226.404 51.284 175.86.719 113.654.678 51.264.637.678 51.088.678 113.356c0 62.401 50.431 112.925 112.74 112.966zm-45.98-61.231c38.144.02 76.268 0 114.37-.083-19.825 27.673-62.113 44.237-102.442 26.237C37.724 172.68 21.11 126.34 32.863 89.397h1.395c23.18-.02 46.38 0 69.58.03a2.03 2.03 0 0 0 2.072-1.189c4.451-7.97 8.985-15.898 13.467-23.857.318-.513.605-1.066.995-1.825H46.73c-.031-.123-.113-.206-.154-.318 1.63-1.918 3.18-3.898 4.892-5.744 13.026-14.093 28.924-23.005 47.796-26.36 18.975-3.333 37.047-.553 54.216 8.206a78.535 78.535 0 0 1 18.872 13.303c12.482 11.949 20.944 26.236 24.8 43.16a85.314 85.314 0 0 1-1.076 42.328c-.195.76-.472 1.077-1.344 1.077-25.806-.03-51.621-.041-77.458-.041-.277 0-.553 0-1.077-.041 14.308-25.2 28.503-50.257 42.801-75.488h-1.467c-10.287 0-20.615 0-30.913-.041a1.497 1.497 0 0 0-1.549.912c-8.82 15.59-17.64 31.18-26.513 46.75a26696.778 26696.778 0 0 0-30.318 53.355c-.236.39-.482.871-.8 1.466v.01zm129.674 19.467l-14.78-15.057c27.098-33.529 25.99-80.227-.277-111.797 5.005-5.066 10.051-10.123 15.22-15.333 16.565 20.103 25.437 42.841 26.063 68.719.8 31.416-11.919 57.58-26.226 73.468z"/></svg>