<svg version="1.1" id="Layer_1" xmlns="http://www.w3.org/2000/svg" xmlns:xlink="http://www.w3.org/1999/xlink" x="0px" y="0px"
	 width="595.279px" height="595.28px" viewBox="0 123.305 595.279 595.28" enable-background="new 0 123.305 595.279 595.28"
	 xml:space="preserve">
<path fill="#000000" d="M297.582,123.305C133.231,123.305,0,256.581,0,421.006c0,164.407,133.231,297.689,297.582,297.689
	c164.349,0,297.582-133.282,297.582-297.689C595.164,256.581,461.931,123.305,297.582,123.305z M402.412,347.421
	c-1.869,9.971-13.072,18.691-20.545,27.423c-23.654,28.043-47.312,55.464-71.589,83.513c-9.336,11.219-18.672,21.19-29.254,32.403
	c41.706,0,80.922,0,121.388,0c0,20.57,0,40.516,0,61.078c-24.278,0-48.559,0-74.701,0c1.245,17.454,1.866,33.655,3.111,51.109
	c-21.164,0-41.082,0-62.873,0c0-16.206,0-33.036,0-50.482c-25.521,0-49.175,0-74.699,0c0-19.948-2.487-39.888,1.246-58.584
	c1.867-9.977,13.072-18.702,19.918-27.425c23.654-28.047,47.309-55.47,71.586-83.511c9.338-10.595,18.677-20.565,29.258-32.411
	c-39.838,0-77.812,0-116.407,0c0-20.565,0-40.51,0-61.073c22.408,0,45.445,0,69.096,0c0-17.452,0-33.656,0-51.105
	c20.544,0,39.843,0,60.384,0c0,16.201,0,32.405,0,49.857c24.901,0,49.178,0,75.322,0
	C403.656,308.777,406.145,328.724,402.412,347.421z"/>
</svg>
