<svg version="1.1" id="Layer_1" xmlns="http://www.w3.org/2000/svg" xmlns:xlink="http://www.w3.org/1999/xlink" x="0px" y="0px"
	 width="595.279px" height="595.28px" viewBox="0 123.305 595.279 595.28" enable-background="new 0 123.305 595.279 595.28"
	 xml:space="preserve">
<g>
	<g id="tgmAOB_1_">
		<g>
			<g id="_x34_o0Zdu.tif">
				<g>
					<g id="B0wFFZ.tif">
						<path fill="#231F20" d="M297.606,718.517C133.506,718.517,0,585.015,0,420.914C0,256.81,133.506,123.305,297.606,123.305
							c164.098,0,297.605,133.505,297.605,297.609C595.211,585.015,461.703,718.517,297.606,718.517z M297.606,152.336
							c-148.092,0-268.573,120.482-268.573,268.577c0,148.092,120.481,268.575,268.573,268.575
							c148.091,0,268.569-120.482,268.569-268.575C566.175,272.818,445.697,152.336,297.606,152.336z"/>
					</g>
				</g>
			</g>
		</g>
	</g>
	<path fill="#231F20" d="M278.497,500.175c47.415,0,92.004,0,138.006,0c0,23.356,0,46.006,0,69.357c-27.599,0-55.205,0-84.927,0
		c1.416,19.818,2.12,38.221,3.539,58.036c-24.063,0-46.711,0-71.482,0c0-18.404,0-37.514,0-57.325c-29.014,0-55.911,0-84.927,0
		c0-22.651-2.829-45.294,1.415-66.525c2.125-11.326,14.862-21.238,22.649-31.143c26.89-31.849,53.788-62.987,81.388-94.833
		c10.614-12.03,21.232-23.353,33.262-36.803c-45.291,0-88.464,0-132.343,0c0-23.354,0-46.003,0-69.356c25.477,0,51.664,0,78.556,0
		c0-19.815,0-38.216,0-58.032c23.356,0,45.295,0,68.648,0c0,18.4,0,36.801,0,56.617c28.313,0,55.911,0,85.637,0
		c0,23.353,2.83,46.002-1.415,67.234c-2.122,11.323-14.862,21.229-23.356,31.14c-26.89,31.849-53.785,62.984-81.388,94.835
		C301.143,476.115,290.529,487.438,278.497,500.175z"/>
</g>
</svg>
