<svg version="1.1" id="Layer_1" xmlns="http://www.w3.org/2000/svg" xmlns:xlink="http://www.w3.org/1999/xlink" x="0px" y="0px"
	 width="226.777px" height="226.777px" viewBox="0 0 226.777 226.777" enable-background="new 0 0 226.777 226.777"
	 xml:space="preserve">
<path fill="#231F20" d="M113.388,0.001C50.766,0.001,0,50.767,0,113.389c0,62.623,50.766,113.388,113.388,113.388
	c62.623,0,113.389-50.765,113.389-113.388C226.777,50.767,176.01,0.001,113.388,0.001z M168.661,58.118
	c10.684,10.684,17.622,23.692,20.829,37.397l-30.091,30.089L159.272,50.1C162.556,52.487,165.699,55.156,168.661,58.118z
	 M113.387,35.223c15.111,0,29.215,4.291,41.173,11.717v42.552L101.081,36.19C105.091,35.555,109.2,35.223,113.387,35.223z
	 M136.333,132.306c-0.743-2.014-6.042-1.166-6.995-2.755c-0.955-1.591-3.921-4.663-8.479-5.405
	c-4.558-0.743-6.888,2.438-9.325,0.742c-2.438-1.696,0.847-3.181-2.438-3.922c-3.287-0.741,0.104-5.087-2.333-3.391
	c-2.437,1.695-4.239,1.588-4.239-1.379c0-2.966,3.816-5.299,6.572-4.132c2.754,1.166,4.132,2.755,2.967,3.71
	c-1.165,0.953,0.53,2.437,2.438,3.283c1.907,0.85,5.723,1.38,4.557,0.105c-1.165-1.27-5.193-0.952-5.086-2.542
	c0.105-1.59-2.014-5.086-0.584-6.041c1.431-0.955,3.974-5.829,6.201-6.358c2.226-0.531,0.213-2.651,2.12-2.437
	c1.906,0.21,4.662,0.182,4.874-0.703c0.212-0.888,3.18,0.596,3.286-0.994c0.105-1.589-3.18-5.299-3.498-7.312
	c-0.317-2.014,1.377-5.829,0.954-7.418c-0.423-1.591-5.829-5.3-3.921-6.465c1.907-1.166,6.146,1.165,6.676,3.074
	c0.53,1.906,2.119,10.597,4.133,9.854c2.014-0.742,1.062-4.021,3.075-3.97c1.394,0.035,2.379-0.971,2.503-2.228
	c3.714,3.534,6.722,7.801,8.786,12.576c-0.872-0.938-1.649-1.468-2.176-1.292c-1.622,0.541,0.529,3.923,1.271,4.982
	c0.743,1.059,1.908,2.542,1.061,2.861c-0.848,0.318-1.613,1.696-1.283,3.179c0.33,1.484,0.436,5.179-0.942,6.299
	c-1.378,1.119-3.285,6.208-1.695,8.537c1.59,2.334,2.605,0.425,4.218,1.062c0.561,0.22,0.782,0.673,0.898,1.132
	c-4.228,13.366-15.587,23.554-29.609,26.114c0.908-0.997,1.682-2.808,2.874-3.508c1.803-1.061,5.298-5.724,7.205-6.678
	C132.304,139.936,137.075,134.32,136.333,132.306z M86.099,90.763c1.589,0,3.178-5.505,5.404-2.17
	c2.226,3.335-0.742,3.971-0.317,5.667c0.424,1.696,2.309,3.814,0.518,6.676c-1.79,2.862-0.518,9.326,3.297,13.299
	c3.814,3.976,1.031,4.399,6.08,6.307c5.047,1.906,5.683,1.802,7.062,2.756c1.378,0.953,1.166,2.438,2.967,2.966
	c1.801,0.53,3.285,1.696,2.278,3.076c-1.005,1.375-2.914,3.707-0.211,6.676c2.703,2.967,5.14,3.392,4.611,7.632
	c-0.47,3.738-0.769,6.747,0.405,7.761c-1.574,0.196-3.177,0.3-4.805,0.3c-21.162,0-38.318-17.156-38.318-38.319
	c0-10.208,3.993-19.483,10.5-26.351C85.313,88.801,85.223,90.763,86.099,90.763z M94.849,79.849
	c5.494-3.043,11.813-4.778,18.538-4.778c1.853,0,3.676,0.137,5.459,0.39c-5.937,1.28-13.014,4.282-15.05,4.282
	C102.398,79.742,98.595,79.465,94.849,79.849z M58.115,58.118c10.685-10.685,23.693-17.623,37.398-20.829l30.088,30.089
	l-75.504,0.126C52.485,64.221,55.156,61.079,58.115,58.118z M35.222,113.39c0-15.111,4.292-29.216,11.715-41.172h42.554
	l-53.302,53.478C35.555,121.685,35.222,117.578,35.222,113.39z M58.116,168.661c-10.684-10.684-17.624-23.691-20.828-37.396
	l30.089-30.09l0.126,75.505C64.219,174.293,61.078,171.622,58.116,168.661z M113.39,191.555c-15.111,0-29.217-4.29-41.173-11.716
	v-42.553l53.48,53.302C121.686,191.224,117.577,191.554,113.39,191.555z M168.661,168.661
	c-10.686,10.685-23.692,17.623-37.397,20.829l-30.09-30.09l75.506-0.125C174.292,162.558,171.621,165.699,168.661,168.661z
	 M179.839,154.561h-42.552l53.301-53.479c0.634,4.009,0.966,8.118,0.967,12.307C191.553,128.499,187.263,142.605,179.839,154.561z"
	/>
</svg>
