<svg version="1.1" id="Layer_1" xmlns="http://www.w3.org/2000/svg" xmlns:xlink="http://www.w3.org/1999/xlink" x="0px" y="0px"
	 width="226.777px" height="226.777px" viewBox="0 0 226.777 226.777" enable-background="new 0 0 226.777 226.777"
	 xml:space="preserve">
<g>
	<path fill="#231F20" d="M173.112,16.995C155.766,6.225,135.305,0,113.387,0c-6.074,0-12.037,0.483-17.854,1.403l77.578,77.32
		V16.995z"/>
	<path fill="#231F20" d="M223.78,87.46c-4.649-19.881-14.716-38.75-30.215-54.25c-4.295-4.295-8.852-8.168-13.615-11.631
		l0.182,109.527L223.78,87.46z"/>
	<path fill="#231F20" d="M225.373,95.535l-77.317,77.578h61.728c10.769-17.346,16.993-37.808,16.994-59.725
		C226.776,107.312,226.293,101.352,225.373,95.535z"/>
	<path fill="#231F20" d="M139.319,223.78c19.879-4.649,38.749-14.716,54.247-30.214c4.295-4.296,8.17-8.853,11.633-13.616
		l-109.53,0.183L139.319,223.78z"/>
	<path fill="#231F20" d="M53.664,209.782c17.345,10.771,37.806,16.995,59.726,16.995c6.074-0.001,12.036-0.483,17.853-1.403
		l-77.578-77.319V209.782z"/>
	<path fill="#231F20" d="M2.997,139.32c4.648,19.878,14.715,38.747,30.214,54.246c4.296,4.295,8.853,8.169,13.616,11.633
		l-0.183-109.53L2.997,139.32z"/>
	<path fill="#231F20" d="M16.994,53.665C6.226,71.009,0,91.47,0,113.389c0.001,6.074,0.483,12.036,1.403,17.854l77.32-77.578H16.994
		z"/>
	<path fill="#231F20" d="M87.459,2.997c-19.88,4.651-38.75,14.715-54.25,30.213c-4.293,4.297-8.168,8.854-11.63,13.617
		l109.527-0.184L87.459,2.997z"/>
	<path fill="#231F20" d="M99.474,64.58c2.954,0,13.218-4.355,21.83-6.211c-2.586-0.368-5.229-0.567-7.917-0.567
		c-9.757,0-18.923,2.517-26.893,6.932C91.929,64.177,97.446,64.58,99.474,64.58z"/>
	<path fill="#231F20" d="M138.061,153.281c-2.767,1.384-7.84,8.147-10.453,9.685c-1.728,1.018-2.851,3.644-4.169,5.091
		c20.341-3.717,36.819-18.495,42.951-37.882c-0.169-0.666-0.49-1.324-1.304-1.643c-2.338-0.924-3.812,1.845-6.118-1.538
		c-2.306-3.382,0.462-10.76,2.46-12.387c1.998-1.623,1.845-6.984,1.366-9.137c-0.479-2.151,0.632-4.149,1.862-4.611
		c1.229-0.461-0.461-2.614-1.537-4.15s-4.196-6.442-1.845-7.225c0.764-0.255,1.894,0.513,3.157,1.872
		c-2.993-6.924-7.357-13.117-12.747-18.241c-0.178,1.821-1.608,3.28-3.63,3.229c-2.921-0.072-1.538,4.685-4.46,5.761
		c-2.921,1.076-5.226-11.53-5.996-14.297c-0.768-2.767-6.916-6.148-9.684-4.457c-2.769,1.69,5.072,7.07,5.688,9.377
		c0.615,2.306-1.845,7.84-1.383,10.762c0.461,2.92,5.227,8.301,5.073,10.608c-0.154,2.305-4.46,0.153-4.766,1.439
		c-0.308,1.287-4.306,1.327-7.073,1.021c-2.767-0.31,0.155,2.766-3.074,3.535c-3.229,0.768-6.918,7.839-8.993,9.224
		c-2.074,1.383,0.999,6.456,0.847,8.762c-0.154,2.308,5.688,1.846,7.378,3.689c1.69,1.846-3.844,1.076-6.61-0.153
		c-2.767-1.229-5.227-3.383-3.535-4.766c1.69-1.383-0.308-3.689-4.305-5.38c-3.996-1.692-9.532,1.691-9.532,5.995
		c0,4.305,2.615,4.459,6.151,1.999c3.534-2.46-1.385,3.844,3.381,4.92c4.766,1.074,0,3.228,3.537,5.688
		c3.536,2.46,6.917-2.152,13.527-1.076c6.611,1.076,10.915,5.535,12.299,7.841s9.069,1.076,10.147,3.997
		C147.748,143.752,140.829,151.899,138.061,153.281z"/>
	<path fill="#231F20" d="M57.802,113.388c0,30.699,24.887,55.587,55.586,55.587c2.36,0,4.686-0.149,6.969-0.434
		c-1.702-1.473-1.268-5.837-0.589-11.263c0.769-6.149-2.767-6.764-6.687-11.068c-3.921-4.306-1.153-7.688,0.307-9.686
		c1.461-1.998-0.693-3.69-3.305-4.458c-2.614-0.77-2.305-2.921-4.305-4.305c-1.997-1.383-2.921-1.23-10.244-3.997
		c-7.321-2.766-3.284-3.381-8.818-9.147c-5.534-5.765-7.379-15.142-4.783-19.293c2.597-4.151-0.137-7.225-0.751-9.685
		c-0.615-2.46,3.689-3.382,0.461-8.222c-3.229-4.838-5.535,3.148-7.84,3.148c-1.271,0-1.141-2.847-0.769-5.403
		C63.594,85.125,57.802,98.581,57.802,113.388z"/>
</g>
</svg>
