<svg width="227" height="227" viewBox="0 0 227 227" xmlns="http://www.w3.org/2000/svg"><title>zen</title><path d="M113.5 227C50.816 227 0 176.184 0 113.5S50.816 0 113.5 0 227 50.816 227 113.5 176.184 227 113.5 227zm18.91-104.29v-37.8l-31.957-18.59v11.864l22.419 13.092v25.728l9.538 5.708zm-13.014-26.028l-32.03 18.816v37.507l9.22-5.512v-26.534l22.81-13.395V96.682zm-16.29 24.719l32.047 18.916 32.09-18.901-9.932-5.937-22.054 13.046-21.903-13.046-10.249 5.922zm32.045 22.24l-34.892-20.596v40.888l34.892 20.505 34.892-20.398v-40.95l-34.892 20.55zM84.52 113.849l34.876-20.488-34.998-20.46-34.742 20.476V134.4l34.864 20.306V113.85zm85.523-50.994l-34.742-20.292-34.848 20.444 34.804 20.245v41.162l34.786-20.46V62.856z"/></svg>