<svg width="227" height="227" viewBox="0 0 227 227" xmlns="http://www.w3.org/2000/svg"><title>zen</title><path d="M148.407 128.122V68.114l-50.73-29.51v18.833l35.588 20.782v40.841l15.142 9.062zm-20.66-41.32l-50.844 29.87v59.538l14.637-8.75v-42.12l36.208-21.263V86.802zm-25.86 39.24l50.873 30.027 50.94-30.003-15.766-9.424-35.008 20.708-34.77-20.708-16.268 9.4zm50.87 35.304L97.37 128.652v64.907l55.388 32.548 55.388-32.379v-65.005l-55.388 32.623zm-80.373-47.291l55.364-32.524L72.19 49.053 17.04 81.556v65.122l55.343 32.233v-64.856zm135.761-80.949L152.995.893 97.677 33.346l55.249 32.139v65.34l55.22-32.477V33.106z"/></svg>