<svg xmlns="http://www.w3.org/2000/svg" width="226.8" height="226.8" viewBox="0 0 226.8 226.8"><path d="M109.361.127h6.78c4.254.28 8.516.533 12.742 1.135 14.464 2.042 28.57 6.865 41.147 14.327-2.894 2.307-5.997 4.336-8.966 6.543-20.064 14.4-40.079 28.876-60.169 43.241-1.627-1.352-3.037-2.94-4.58-4.382-4.586-4.402-9.042-8.935-13.666-13.285-1.686.61-3.225 1.548-4.798 2.395-10.495 5.872-19.427 14.43-25.93 24.548-8.467-10.715-16.582-21.709-24.593-32.764-.251-.369-.475-.751-.704-1.135a109.825 110.127 0 0 1 9.744-10.257C53.708 14.311 76.226 3.75 99.783.98c3.18-.433 6.39-.512 9.578-.853zm54.981 42.432c7.1-5.37 14.21-10.728 21.481-15.86 14.923 12.448 26.503 28.868 33.344 47.071 8.667 22.857 9.548 48.555 2.578 71.977a111.654 111.96 0 0 1-10.071 23.67c-.665-.567-1.132-1.316-1.65-2.002l-41.1-54.443c-2.66-3.566-5.398-7.07-8.017-10.667 5.998-6.46 12.253-12.694 18.271-19.14a73.025 73.226 0 0 0-17.646-23.87c-2.927-2.672-6.152-4.973-9.41-7.208 3.971-3.3 8.131-6.371 12.22-9.528M8.012 72.024c2.037-5.053 4.308-10.042 7.129-14.707 3.989 5.036 7.798 10.22 11.712 15.319q18.616 24.45 37.215 48.906c.813 1.074 1.686 2.102 2.385 3.257-6.263 6.554-12.687 12.954-18.923 19.534 1.504 3.563 3.54 6.876 5.667 10.099a73.137 73.338 0 0 0 11.245 12.995c3.055 2.863 6.467 5.298 9.897 7.684-2.989 2.518-6.143 4.833-9.225 7.23q-8.238 6.323-16.612 12.466c-2.641 1.876-5.174 3.908-7.898 5.664-17.57-14.728-30.501-34.923-36.509-57.077-2.442-8.779-3.63-17.862-4.026-26.958v-5.674c.131-1.966.253-3.934.39-5.9a112.46 112.768 0 0 1 7.553-32.838zm159.101 90.344c2.8-3.038 5.194-6.411 7.53-9.808 2.527 3.117 4.937 6.331 7.387 9.51 6.069 8 12.076 16.043 17.886 24.23-1.658 2.319-3.71 4.328-5.658 6.404-16.259 16.782-37.796 28.368-60.783 32.517-5.432 1.045-10.96 1.488-16.479 1.85H108.8c-2.43-.309-4.883-.36-7.314-.64-15.81-1.667-31.307-6.668-44.996-14.792 4.687-3.583 9.44-7.076 14.15-10.634q26.966-20.168 53.912-40.367c3.048 2.817 5.926 5.817 8.926 8.692 3.508 3.365 6.88 6.89 10.462 10.185 8.791-4.033 16.675-9.985 23.173-17.147" fill="#1d2227"/></svg>