<svg width="227" height="227" viewBox="0 0 227 227" xmlns="http://www.w3.org/2000/svg"><circle cx="113.5" cy="113.5" r="113.5"/><path d="M109.925 191.531c-1.916-.198-3.83-.376-5.746-.603a77.18 77.18 0 0 1-29.24-9.676c-.135-.07-.256-.177-.518-.354 15.648-11.705 31.226-23.339 46.89-35.043l4.717 4.59c2.624 2.567 5.263 5.107 7.838 7.71.639.639 1.1.631 1.845.248a50.713 50.713 0 0 0 19.351-16.954l.76-1.12c.22.255.425.46.595.688 5.441 7.25 10.875 14.5 16.337 21.728.475.624.419.993-.085 1.56-12.648 14.372-28.368 23.225-47.315 26.254-2.384.383-4.803.525-7.208.788-.319.035-.638.12-.95.184h-7.271zm6.88-156.062c1.32.135 2.647.276 3.973.397 11.18 1.064 21.636 4.377 31.376 9.931.142.085.262.185.496.355l-47.655 34.185c-.632-.596-1.242-1.164-1.845-1.752-3.348-3.264-6.71-6.52-10.037-9.811-.532-.525-.937-.582-1.604-.248A50.699 50.699 0 0 0 71.86 85.72l-.709 1.064L53.643 63.46c1.766-1.873 3.398-3.739 5.164-5.462C70.32 46.769 83.99 39.626 99.83 36.752c3.05-.554 6.165-.738 9.25-1.1.348-.035.696-.12 1.036-.184H116.806zM45.812 74.726l35.434 46.45-7.15 7.334c-1.781 1.823-3.548 3.668-5.364 5.463-.51.51-.532.9-.22 1.525a50.607 50.607 0 0 0 17.189 19.65c.248.155.496.319.73.496.043.028.064.1.192.34l-23.133 17.352c-13.833-11.91-22.806-26.588-26.41-44.386-3.859-19.054-.73-37.058 8.74-54.224h-.008zm100.554 31l6.512-6.761c1.816-1.887 3.604-3.795 5.463-5.633.581-.574.574-1.007.234-1.688a50.628 50.628 0 0 0-17.38-19.848c-.262-.178-.518-.369-.965-.688l23.26-17.45c13.174 11.278 21.92 25.182 25.935 41.959 5.016 20.94.547 41.654-8.136 56.239l-34.923-46.13z"/></svg>