<svg width="235" height="235" viewBox="0 0 235 235" xmlns="http://www.w3.org/2000/svg"><g fill="none"><path d="M157.16 10.93c-28.193-9.884-67.767 29.766-88.394 88.563C48.143 158.291 54.28 213.968 82.474 223.85c28.193 9.882 67.768-29.77 88.39-88.567C191.49 76.488 185.355 20.81 157.16 10.93z" fill="#5FBCD3"/><path d="M206.743 48.438c-18.261-23.64-73.053-11.933-122.385 26.149-49.33 38.082-74.517 88.117-56.256 111.756 18.26 23.638 73.054 11.93 122.383-26.152 49.33-38.081 74.517-88.116 56.258-111.753z" fill="#2C89A0"/><path d="M229.508 104.275c-3.473-29.665-56.47-47.841-118.375-40.599C49.228 70.92 1.86 100.843 5.334 130.506c3.474 29.664 56.474 47.84 118.377 40.595 61.904-7.243 109.272-37.163 105.797-66.826z" fill="#164450"/><path d="M172.942 110.692c-4.128 12.976-24.189 15.41-24.189 15.41-8.04 1.107-22.792.957-22.792.957-1.031 9.144 4.646 10.47 14.68 10.62 10.03.145 22.494-5.606 22.494-5.606L160.038 148s-12.318 3.317-21.465 3.17c-9.145-.145-21.314.297-28.744-11.132-7.429 8.33-16.983 11.721-29.742 11.797-12.761.073-21.907-7.522-18.366-23.816 3.54-16.296 24.856-18.065 24.856-18.065 10.842-1.475 23.085-1.032 23.085-1.032 1.55-9.954-7.891-10.545-17.553-10.47-9.662.074-19.618 5.457-19.618 5.457l2.728-15.705s10.398-2.434 23.676-3.466c13.276-1.033 23.159 4.056 26.331 11.281 7.819-8.554 22.199-13.79 35.034-11.355 12.832 2.433 16.815 13.051 12.682 26.028z" fill="#FFF"/><path d="M88.253 122.783c-5.754 1.991-8.685 9.622-3.872 13.437 4.813 3.82 12.889 2.047 16.65-1.713 3.761-3.76 6.029-12.992 6.029-12.992s-13.053-.723-18.807 1.268zm46.742-21.843c-6.25 4.424-6.857 13.603-6.857 13.603s6.801.61 15.874-.387c9.073-.995 10.677-8.35 8.465-12.885-2.214-4.532-11.228-4.755-17.482-.331z" fill="#164450"/></g></svg>