<svg width="235" height="235" viewBox="0 0 235 235" xmlns="http://www.w3.org/2000/svg"><g transform="translate(5 5)" fill="none" fill-rule="evenodd"><circle fill="#FFF" cx="112.5" cy="112.5" r="112.5"/><path d="M112.5 0C50.368 0 0 50.368 0 112.5S50.368 225 112.5 225 225 174.632 225 112.5 174.632 0 112.5 0zm0 195.838c-22.89 0-43.622-9.23-58.683-24.168l8.98-16.302h99.562l8.908 16.219c-15.069 14.987-35.835 24.251-58.767 24.251zm32.821-71.623l8.036 14.692H71.772l8.009-14.692h65.54zm-56.565-16.462l23.744-43.55 23.818 43.55H88.756zm93.755 49.968L112.5 29.16 42.41 157.6c-8.383-13.002-13.25-28.483-13.25-45.1 0-46.028 37.312-83.341 83.34-83.341 46.027 0 83.338 37.312 83.338 83.34 0 16.672-4.896 32.197-13.327 45.222z" fill="#548C8C" fill-rule="nonzero"/></g></svg>