<svg width="235" height="235" viewBox="0 0 235 235" xmlns="http://www.w3.org/2000/svg"><g fill="none" fill-rule="evenodd"><path d="M117.5 5C55.397 5 5 55.397 5 117.5S55.397 230 117.5 230 230 179.603 230 117.5 179.603 5 117.5 5z" fill="#3CAFE5" fill-rule="nonzero"/><path d="M117.8 202.6c-46.8 0-84.8-38-84.8-84.8S71 33 117.8 33s84.8 38 84.8 84.8c0 46.7-38.1 84.8-84.8 84.8zM118 43c-41.4 0-75 33.6-75 75s33.6 75 75 75 75-33.6 75-75-33.7-75-75-75z" fill="#FFF"/><path d="M154.2 123.369l-50.4 29.1c-4.4 2.5-9.8-.6-9.8-5.7v-58.2c0-5 5.4-8.2 9.8-5.7l50.4 29.1c4.3 2.6 4.3 8.9 0 11.4z" fill="#FFF" fill-rule="nonzero"/></g></svg>