<svg width="235" height="235" viewBox="0 0 235 235" xmlns="http://www.w3.org/2000/svg"><g transform="translate(5 5)" fill="none"><circle fill="#5F2652" cx="112.5" cy="112.5" r="112.5"/><path d="M178.208 145.375L118.203 38.11a5.946 5.946 0 0 0-5.23-3.11 5.946 5.946 0 0 0-5.23 3.11l-59.98 107.265c-1.56 2.766-.666 6.355 2.132 8.002l60.074 35.8a6.326 6.326 0 0 0 6.239 0l59.982-35.732c2.66-1.715 3.647-5.304 2.018-8.07m-45.347-43.23l-1.468-1.235-.092-.092c-.467-.38-.958-.731-1.468-1.051l-.092-.092c-.482-.32-.986-.663-1.56-.983-.091 0-.091-.091-.16-.091-.482-.32-1.055-.572-1.56-.823-.092 0-.092-.092-.16-.092-.482-.251-1.056-.48-1.63-.731-.09 0-.09-.092-.16-.092-.481-.16-.986-.411-1.468-.571a25.148 25.148 0 0 0-4.083-1.143c-1.055 2.034-2.546 3.84-4.174 5.372 2.546.16 5 .823 7.202 1.715a27.814 27.814 0 0 1 3.762 1.966.23.23 0 0 1 .16.091c.322.16.574.412.895.663.154.085.293.193.413.32.297.193.574.415.826.663.16.16.32.252.481.412.253.251.482.411.734.663l.482.48.665.663.482.48c.174.235.365.457.573.663.16.183.322.411.482.571l.482.732c.16.251.32.411.413.663l.481.731c.16.252.253.48.413.663.16.252.253.48.413.732.16.251.252.48.413.732.092.251.252.48.321.731.16.32.252.663.413.892a21.006 21.006 0 0 1 1.4 5.212l.733 2.858c.321 1.234 3.28 11.66 10.139 15.18 7.867 4.069 18.258 9.144 22.34 11.087l-53.903 32.144v-22.016c0-3.498 6.95-7.59 10.139-8.962l.16-.091a27.17 27.17 0 0 0 1.973-1.052l.252-.16a25.275 25.275 0 0 0 3.923-2.857c.091-.092.252-.16.32-.32.161-.092.253-.252.414-.32.413-.32.734-.732 1.147-1.052l.16-.16a8.818 8.818 0 0 0 1.147-1.303c.092-.16.252-.252.321-.412.321-.32.574-.731.895-1.143.091-.091.16-.251.252-.32l.986-1.463c0-.091.092-.091.092-.16.413-.663.826-1.395 1.239-2.035-1.629-1.966-2.867-4.069-3.854-6.035a22.139 22.139 0 0 1-1.56 3.498c-.252.48-.573.983-.825 1.463-.092.091-.092.16-.16.16a12.37 12.37 0 0 1-.827 1.143c-.091.091-.16.251-.252.32a5.709 5.709 0 0 1-.894 1.052c-.092.091-.092.16-.161.16-1.973 2.194-4.335 4.069-7.042 5.372l-.482.252c-1.399.571-13.418 6.035-13.418 14.265v22.015l-54.018-32.051c3.51-2.126 13.67-8.162 22.02-10.768 3.28-1.051 10.23 3.338 14.152 6.516l.253.251c.505.507 1.05.973 1.628 1.395l.16.16c1.24.983 2.547 1.966 4.015 2.697l.986.48a.23.23 0 0 1 .16.092c.895.48 1.79.891 2.776 1.303.134.063.272.117.413.16.092 0 .16.091.321.091 1.4.48 2.776.892 4.175 1.235 1.055-2.035 2.615-3.84 4.266-5.372a23.512 23.512 0 0 1-6.72-1.464c-.092-.091-.253-.091-.321-.16a3.41 3.41 0 0 1-.734-.32c-.092-.091-.253-.091-.322-.16-.252-.091-.481-.251-.665-.32-1.628-.823-3.12-1.714-4.496-2.857l-2.133-1.966a40.384 40.384 0 0 0-6.376-4.573c-5.322-3.017-9.818-4-13.258-2.926-7.111 2.286-15.23 6.607-20.14 9.465l53.927-96.567v42.34c0 1.463-2.202 5.372-9.657 8.733l-.482.251c-.734.32-1.399.732-2.133 1.143l-.16.091a31.404 31.404 0 0 0-4.015 2.858 17.69 17.69 0 0 0-2.202 2.126l-.091.092a16.796 16.796 0 0 0-1.973 2.286l-.092.091c-.32.412-.573.823-.894 1.235 0 .091-.092.091-.092.16-.252.411-.482.731-.734 1.143 0 .091-.092.091-.092.16l-.734 1.234c-.091.092-.091.16-.16.32-.253.412-.413.824-.574 1.144a.228.228 0 0 1-.091.16c-.161.411-.322.731-.482 1.143a2.89 2.89 0 0 0-.16.411l-.482 1.235a3.02 3.02 0 0 0-.161.411 4.634 4.634 0 0 1-.321.892c-.092.16-.092.32-.16.48-.092.411-.253.823-.322 1.143-.092.16-.092.411-.16.571-.092.252-.092.572-.16.823-.093.252-.093.48-.161.732-.092.32-.092.663-.161.983 0 .252-.092.412-.092.663 0 .32-.092.572-.092.892.015.3-.016.6-.091.891v1.235a27.95 27.95 0 0 0 .32 4.412c2.134.48 4.336 1.395 6.722 2.538-.666-2.126-.987-4.321-1.056-6.607v-.412a9.635 9.635 0 0 1 .092-1.623v-.411c0-.48.092-.892.16-1.395v-.16c.092-.48.161-.983.253-1.555 0-.16.092-.251.092-.411.092-.412.252-.823.32-1.235 0-.091.093-.16.093-.251l.481-1.463c.092-.092.092-.252.16-.32.161-.412.322-.823.483-1.143.091-.092.091-.16.16-.32.252-.48.413-.892.734-1.304.062-.078.115-.162.16-.251.253-.412.414-.732.666-1.143.061-.079.115-.163.16-.252.276-.427.574-.84.895-1.234a.089.089 0 0 1 .092-.092c.32-.411.573-.731.894-1.143.062-.078.116-.162.16-.251a25.59 25.59 0 0 1 5.001-4.252l2.546-1.235c1.4-.571 13.35-6.195 13.35-14.448v-42.18l54.431 97.39c-4.84-2.355-13.419-6.607-20.047-10.036-3.854-1.966-6.377-8.893-7.111-11.43l-.734-2.927c0-1.555-.413-3.11-.895-4.64a30.059 30.059 0 0 0-8.555-12.552" fill="#FFF"/></g></svg>