<svg width="235" height="235" viewBox="0 0 235 235" xmlns="http://www.w3.org/2000/svg"><g transform="translate(5 5)" fill="none" fill-rule="evenodd"><rect fill="#FFF" width="225" height="225" rx="11"/><path d="M39.066 134.961V0H10.413C4.66 0 0 4.66 0 10.41v28.183h28.224v51.023H0V214.59C0 220.336 4.662 225 10.413 225h90.665c-36.252-13.841-62.012-48.923-62.012-90.038z" fill="#216821" fill-rule="nonzero"/><path d="M207.29 199.151l-36.216-36.219c6.06-7.706 9.704-17.403 9.704-27.97 0-25.044-20.303-45.346-45.346-45.346H100.93V38.593h34.503c40.663 0 75.418 25.2 89.568 60.822V10.41C225 4.66 220.339 0 214.588 0h-124.5v134.961c0 25.042 20.299 45.344 45.344 45.344 10.567 0 20.263-3.643 27.972-9.703l36.217 36.219A96.51 96.51 0 0 1 169.8 225h44.788c5.75 0 10.412-4.663 10.412-10.41v-44.063a96.45 96.45 0 0 1-17.71 28.624z" fill="#090996"/></g></svg>