<svg width="235" height="235" viewBox="0 0 235 235" xmlns="http://www.w3.org/2000/svg"><path d="M74.231 99.547L49.055 74.122 117.499 5l68.467 69.145-25.177 25.425-43.29-43.717L74.23 99.547zm-42.83-7.351l25.175 25.176-25.426 25.425-25.175-25.175L31.4 92.196zm42.83 43.257l43.268 43.694 43.289-43.715 25.19 25.41-.012.015L117.499 230l-68.446-69.12-.035-.036 25.213-25.39zm154.794-17.82l-25.177 25.176-25.424-25.424L203.6 92.208l25.424 25.424zm-85.99-.146l.024.012-.013.014-25.547 25.8-25.525-25.777-.035-.037.035-.035 4.475-4.52 2.168-2.19h.002l18.88-19.067 25.547 25.8h-.01z" fill="#F3BA2F"/></svg>