<svg width="235" height="235" viewBox="0 0 235 235" xmlns="http://www.w3.org/2000/svg"><path d="M194.765 117.213c.658-.738 1.397-1.477 2.137-2.215 2.384-2.543 5.014-5.25 7.48-7.874 9.946-10.336 15.453-23.788 15.453-37.897 0-.984.165-5.004.165-5.578C218.849 31.331 191.313 5 158.763 5h-102.5v40.85H15V230h145.407C192.71 230 220 201.619 220 167.988c.082-24.034-14.96-41.014-25.235-50.775zM76.812 66.356l81.622.082-51.291 51.35 50.716 50.856H76.812V66.356zm83.595 143.055H35.549V66.274h20.714V189.07h101.596a20.594 20.594 0 0 0 19.07-12.715c3.205-7.71 1.479-16.487-4.44-22.393l-36.248-36.256 36.824-36.83c5.918-5.906 7.644-14.683 4.439-22.393a20.594 20.594 0 0 0-19.07-12.715h-81.54V25.425h81.951c21.7 0 39.948 17.471 40.688 38.716 0 .903-.165 4.43-.165 4.512v.41c0 11.976-6.082 20.097-9.781 23.87-2.548 2.625-5.179 5.414-7.562 7.875-4.028 4.183-7.48 7.792-9.124 9.433l-7.398 7.218 7.316 7.3c.986.985 2.219 2.133 3.698 3.528 8.549 7.874 22.933 20.998 22.933 39.537.083 22.147-18.165 41.587-39.043 41.587z" fill="#6356AB"/></svg>