<svg width="235" height="235" viewBox="0 0 235 235" xmlns="http://www.w3.org/2000/svg"><g fill="none"><path d="M129.632 154.54c57.15-17.312 36.75-75.504 0-77.714 9.338 0 16.962-26.272 16.962-58.807 89.725 6.261 131.883 151.499-2.7 196.924.86-11.786-4.056-44.688-14.259-60.404" stroke="#000" stroke-width=".5" fill="#000"/><path d="M5 137.347c66.987 0 121.19-53.283 121.19-119.21H63.63c.122 32.288-26.058 58.684-58.507 58.807H5v60.403zm81.982-10.926c-16.957 14.978-26.426 22.712-72.886 30.078 27.41 0 49.533 27.01 49.533 60.403h62.563c0-10.067-2.09-60.526-39.209-90.481z" fill="#F60"/></g></svg>