<svg width="235" height="235" viewBox="0 0 235 235" xmlns="http://www.w3.org/2000/svg"><g fill="none"><path d="M226.625 144.725c-15.017 60.262-76.07 96.939-136.35 81.9-60.28-15.039-96.94-76.062-81.9-136.33 15.04-60.267 76.064-96.961 136.33-81.92 60.266 15.041 96.96 76.068 81.92 136.35z" fill="#F7931A"/><path d="M167.113 101.472c2.236-14.97-9.162-23.018-24.75-28.387l5.062-20.278-12.348-3.076-4.932 19.745a486.141 486.141 0 0 0-9.887-2.326l4.95-19.876-12.335-3.076-5.048 20.27-24.899-6.167-3.285 13.186s9.16 2.1 8.967 2.23c5 1.249 5.906 4.556 5.753 7.18l-13.853 55.552c-.612 1.52-2.163 3.796-5.657 2.925.124.18-8.973-2.25-8.973-2.25l-6.129 14.152 24.863 6.277-5.11 20.515 12.33 3.075 5.062-20.293a488.03 488.03 0 0 0 9.835 2.551l-5.042 20.2 12.346 3.075 5.11-20.475c21.052 3.983 36.883 2.376 43.537-16.65 5.368-15.328-.263-24.17-11.34-29.94 8.066-1.867 14.141-7.17 15.762-18.131m-28.205 39.546c-3.825 15.328-29.626 7.045-37.999 4.963l6.78-27.174c8.367 2.088 35.2 6.224 31.224 22.209m3.825-39.769c-3.48 13.95-24.965 6.863-31.938 5.123l6.138-24.653c6.975 1.742 29.42 4.984 25.791 19.529" fill="#FFF"/></g></svg>