<svg width="235" height="235" viewBox="0 0 235 235" xmlns="http://www.w3.org/2000/svg"><path d="M117.665 48a69.423 69.423 0 0 0-17.321 2.175v-.003c-37.08 9.483-59.462 47.248-49.987 84.35 9.476 37.104 47.217 59.497 84.3 50.016 37.082-9.48 59.461-47.244 49.987-84.347-7.996-31.305-36.113-52.14-66.98-52.19zM5 48.318V187h63.962C47.156 171.69 32.9 146.34 32.9 117.659c0-28.68 14.255-54.03 36.062-69.341H5zm161.038 0c21.806 15.312 36.062 40.661 36.062 69.34 0 28.682-14.255 54.031-36.062 69.342H230V48.318h-63.962zM115.653 71.19l3.435 13.448c6.274-1.196 11.174-1.193 15.945.75 6.17 2.507 7.599 9.24 7.89 10.859.288 1.618.374 4.859-.516 7.188-.888 2.333-3.79 5.182-3.79 5.182s4.24-.178 7.615 1.231c3.367 1.41 6.422 4.63 7.71 10.163 1.29 5.53 1.56 11.28-2.542 16.044-4.004 4.645-9.033 6.65-11.397 7.594l-.177.07c-1.126.451-3.081 1.124-5.191 1.796l3.438 13.469-8.285 2.12-3.385-13.251-6.311 1.613 3.384 13.25-8.285 2.12-3.384-13.252-16.302 4.167-.839-10.394 4.956-1.266c1.665-.428 2.321-.759 2.85-1.594.528-.838.426-1.885.218-2.701l-8.76-34.307c-.549-2.15-.872-2.685-2.14-3.537-1.271-.853-3.631-.406-4.94-.069l-4.789 1.223-2.2-8.61 16.304-4.167-3.397-13.288 8.286-2.118 3.393 13.29 6.31-1.614-3.393-13.289 8.29-2.12zm3.634 23.875c-2.939-.011-4.986.444-7.265.991-2.604.626-5.18 1.532-5.18 1.532l4.085 16.001s3.904-.875 6.894-1.763c2.992-.89 6.029-2.405 8.023-4.277 1.997-1.874 2.799-4.226 1.951-7.228-.852-3.003-3.515-5.044-7.19-5.22a30.47 30.47 0 0 0-1.318-.036zm8.847 23.831a32.587 32.587 0 0 0-5.726.551c-4.176.778-9.372 2.395-9.372 2.395l4.541 17.782s5.53-1.287 9.138-2.5c3.609-1.211 7.165-3.11 8.797-4.643 1.628-1.53 3.498-3.744 2.459-7.81-1.039-4.07-4.184-5.08-5.93-5.46-.873-.189-2.238-.325-3.907-.315z" fill="#F7931A"/></svg>