<svg width="235" height="235" viewBox="0 0 235 235" xmlns="http://www.w3.org/2000/svg"><path d="M110.637 75.596c.52 2.306.436 4.388-.253 6.248-1.179 3.179-8.868 12.707-13.315 13.825-2.965.745-11.103 1.395-24.412 1.948C54.621 97.617 40 112.164 40 130.109c0 17.945 14.621 32.493 32.657 32.493a32.623 32.623 0 0 0 20.392-7.112c5.1-3.278 8.786-5.278 11.058-6.002 3.768-1.202 12.934-1.436 16.322-1.136 3.387.301 3.023.38 5.966 1.136 2.943.756 3.391.689 6.517 2.071 3.125 1.383 2.74 1.297 5.167 3.098 2.427 1.802 2.808 2.163 5.309 4.679 1.464 1.473 2.92 3.74 4.365 6.798A24.375 24.375 0 0 0 170.63 182c13.46 0 24.371-10.856 24.371-24.248 0-13.392-10.911-24.248-24.371-24.248a24.346 24.346 0 0 0-15.554 5.58 24.584 24.584 0 0 1-4.526 2.162c-2.79.994-3.813 1.497-7.735 1.976-3.922.48-4.269.55-8.426 0-4.158-.55-5.37-.475-10.22-2.467-4.849-1.991-5.291-2.323-9.834-5.77-4.542-3.446-8.912-10.517-10.227-15.016-1.316-4.498-1.142-10.809-.569-14.463.572-3.654.62-4.471 2.462-8.208 1.841-3.736 6.116-8.045 8.334-9.586 1.396-.97 5.053-1.871 10.972-2.704 8.88-.004 16.078-7.168 16.078-16.004 0-8.839-7.202-16.004-16.085-16.004-8.884 0-16.085 7.165-16.085 16.004 0 2.35.509 4.581 1.423 6.592zM230 117.499C230 179.632 179.633 230 117.5 230 55.369 230 5 179.632 5 117.5S55.368 5 117.5 5 230 55.368 230 117.5z" fill="#F7931A"/></svg>