<svg width="235" height="235" viewBox="0 0 235 235" xmlns="http://www.w3.org/2000/svg"><g transform="translate(5 5)" fill="none" fill-rule="evenodd"><circle stroke="#00206B" stroke-width="5" cx="112.5" cy="112.5" r="110"/><circle stroke="#FFF" stroke-width="5" cx="112.5" cy="112.5" r="105"/><circle stroke="#EBA809" stroke-width="30" cx="112.5" cy="112.5" r="87.5"/><circle fill="#FFF" cx="112.5" cy="112.5" r="72.5"/><circle stroke="#00206B" stroke-width="5" cx="112" cy="112" r="62.5"/><path d="M139.903 107.543c6.439-3.268 10.467-9.024 9.526-18.614-1.267-13.105-12.623-17.5-26.957-18.751L122.469 52h-11.106l-.004 17.7c-2.922 0-5.9.057-8.866.116l-.002-17.814H91.394l-.002 18.173a349.88 349.88 0 0 1-7.073.095v-.053L69 70.21l.002 11.816s8.202-.154 8.067-.004c4.497.003 5.965 2.605 6.388 4.851l.003 20.709v29.088c-.198 1.41-1.031 3.662-4.176 3.666.143.126-8.079-.001-8.079-.001l-2.203 13.213h14.451c2.693.003 5.339.045 7.934.065l.01 18.384 11.094.003-.004-18.191a408.3 408.3 0 0 0 8.876.085L111.36 172h11.106l.007-18.353c18.668-1.068 31.738-5.755 33.363-23.225 1.31-14.066-5.334-20.344-15.933-22.879zm-37.145-24.72c6.264 0 25.964-1.987 25.967 11.052-.003 12.5-19.696 11.04-25.967 11.04V82.824zm-.004 57.603l.004-24.358c7.526-.002 31.132-2.158 31.135 12.173.003 13.744-23.609 12.18-31.14 12.185z" fill="#00206B" fill-rule="nonzero"/></g></svg>