<svg width="235" height="235" viewBox="0 0 235 235" xmlns="http://www.w3.org/2000/svg"><path d="M97.07 145.355c-1.966 2.757-3.42 6.017-4.19 9.443H48V97.555l49.07 47.8zm-3.86 19.398c.6 3.472 2.058 6.69 3.86 9.653l-31.827 31.413C55.378 194.557 49.029 180.417 48 164.753h45.21zm70.544-56.366l-32.018 31.478c-2.74-2.036-5.907-3.31-9.502-3.988V91.333c15.923 1.103 30.305 7.382 41.52 17.054zm-25.164 65.048c1.684-2.588 2.778-5.426 3.62-8.682h44.192c-1.179 15.194-7.07 28.885-16.414 39.821l-31.398-31.139zm4.032-18.637a30.818 30.818 0 0 0-4.032-9.653l31.827-31.413c9.865 11.262 16.214 25.402 17.243 41.066h-45.038zm-70.716 57.61l32.018-31.478c2.74 2.037 5.907 3.31 9.502 3.988v44.544c-15.923-1.103-30.305-7.381-41.52-17.054zm51.586-27.49c3.51-.679 6.763-1.951 9.845-3.988l31.675 31.478c-11.214 9.673-25.597 16.036-41.52 17.054v-44.544zM48.172 82.951C48.171 81.182 48 5.553 48 5.47l65.426 57.1v72.514c-3.34.674-6.166 2.022-8.906 3.537-6.337-6.316-44.274-43.794-56.349-55.669z" fill="#35BAEB"/></svg>