<svg width="235" height="235" viewBox="0 0 235 235" xmlns="http://www.w3.org/2000/svg"><defs><linearGradient x1="50%" y1="0%" x2="50%" y2="100%" id="a"><stop stop-color="#EFCF9A" offset="0%"/><stop stop-color="#B49560" offset="100%"/></linearGradient></defs><g fill="none" fill-rule="evenodd"><path d="M112.5 0C50.37 0 0 50.369 0 112.5 0 174.632 50.369 225 112.5 225c62.132 0 112.5-50.368 112.5-112.5C225 50.37 174.632 0 112.5 0z" fill="url(#a)" fill-rule="nonzero" transform="translate(5 5)"/><path d="M117.5 11C58.682 11 11 58.682 11 117.5 11 176.32 58.682 224 117.5 224c58.82 0 106.5-47.681 106.5-106.5C224 58.682 176.319 11 117.5 11z" fill="#000" fill-rule="nonzero"/><path d="M97.077 26.968c.31 18.748-16.038 24.016-16.038 24.016s6.663-6.439 6.353-22.93C87.082 11.56 74.688 3.418 74.688 3.418s22.08 4.803 22.389 23.55zM23.584 115.05L.962 116.136v-2.066s13.842-1.396 13.842-25.668V26.374C14.804 5.819.962 2.254.962 2.254V.396L23.584 1.48v113.57zm36.152 1.162c-9.839.078-28.097-1.265-28.097-1.265V1.637c12.035-.156 16.243-1.783 26.159-.39 9.917 1.394 18.44 11.08 20.762 20.763 2.325 9.683-.153 18.903-3.332 23.938-3.175 5.036-10.148 8.523-10.148 8.523s10.537 3.563 14.257 6.66c3.718 3.1 10.922 11.544 8.133 29.905-2.789 18.36-17.896 25.1-27.734 25.176zm26.147-4.182s10.728-9.143 10.256-27.679c-.474-18.538-10.256-27.248-10.256-27.248s20.179 4.96 20.41 27.038c.234 22.079-20.41 27.89-20.41 27.89z" fill="url(#a)" transform="translate(66 59)"/><path d="M131.469 104.535c7.23-9.4 4.958-27.088-3.795-33.131-8.755-6.044-17.974-3.02-19.756-1.318-1.782 1.705-1.704 41.369-1.704 41.369s18.024 2.48 25.255-6.92zm1.34 16.89c-6.765-2.945-26.596-2.17-26.596-2.17s-.308 10.02.413 28.768c.724 18.746 7.128 18.643 13.79 18.903 6.665.258 19.369-.207 23.552-16.374 4.183-16.165-4.39-26.185-11.158-29.128z" fill="#000" fill-rule="nonzero"/></g></svg>