<svg width="235" height="235" viewBox="0 0 235 235" xmlns="http://www.w3.org/2000/svg"><g fill="none" fill-rule="evenodd"><path fill="#5BC0ED" fill-rule="nonzero" d="M5.115 5.115v224.728h224.728V5.115z"/><path d="M154.617 154.172c-2.244 4.256-5.265 7.712-9.078 10.387-3.791 2.684-8.133 4.654-13.01 5.942a58.525 58.525 0 0 1-15.011 1.933H61.927V57.581h53.978c5.455 0 10.443.474 14.941 1.442 4.498.967 8.351 2.546 11.567 4.746 3.212 2.198 5.702 5.123 7.468 8.772 1.768 3.643 2.65 8.14 2.65 13.505 0 5.791-1.308 10.616-3.93 14.48-2.636 3.863-6.514 7.024-11.651 9.485 7.069 2.052 12.35 5.609 15.816 10.704 3.487 5.096 5.227 11.24 5.227 18.427 0 5.792-1.121 10.8-3.376 15.03zm37.1 18.262h-25.231v-24.767h25.23v24.767zm-67.942-71.587c2.89-2.136 4.34-5.629 4.34-10.461 0-2.666-.488-4.87-1.45-6.587-.96-1.706-2.25-3.06-3.849-4.028-1.612-.948-3.462-1.63-5.542-2.007a37.675 37.675 0 0 0-6.516-.562H87.156v26.861h25.536c4.505 0 8.19-1.068 11.083-3.216zm4.013 24.207c-3.313-2.51-7.71-3.772-13.174-3.772H87.156v31.53h26.978a34.11 34.11 0 0 0 7.07-.719c2.252-.49 4.233-1.293 5.946-2.42 1.7-1.124 3.073-2.647 4.09-4.582 1.013-1.936 1.538-4.395 1.538-7.4 0-5.9-1.664-10.108-4.99-12.637z" fill="#FFF"/></g></svg>