<svg width="235" height="235" viewBox="0 0 235 235" xmlns="http://www.w3.org/2000/svg"><g fill="none" fill-rule="evenodd"><path d="M117.4 5C55.353 5 5 55.352 5 117.4c0 62.05 50.352 112.402 112.4 112.402 62.05 0 112.402-50.353 112.402-112.401C229.802 55.352 179.449 5 117.4 5z" fill="#000" fill-rule="nonzero"/><path d="M201.714 135.24s-6.948 7.376-15.043 21.398c-8.095 14.021-11.009 23.727-11.009 23.727l10.016 5.783c-11.367 11.194-25.476 19.612-41.23 24.15v-11.911s-9.862-2.33-26.052-2.33c-16.191 0-26.052 2.33-26.052 2.33v12.404c-16.167-4.322-30.67-12.706-42.353-23.995l11.138-6.43s-2.913-9.707-11.01-23.728c-8.094-14.021-15.042-21.398-15.042-21.398l-11.502 6.64a97.295 97.295 0 0 1-3.243-24.965 97.332 97.332 0 0 1 3.101-24.44l11.644 6.723S42.025 91.822 50.12 77.8c8.095-14.021 11.01-23.727 11.01-23.727L49.6 47.416c11.75-11.48 26.396-20.005 42.743-24.375v13.011s9.862 2.33 26.052 2.33c16.191 0 26.052-2.33 26.052-2.33V23.533c15.935 4.59 30.187 13.145 41.62 24.532l-10.406 6.009s2.913 9.706 11.01 23.727c8.094 14.021 15.042 21.398 15.042 21.398l10.082-5.82a97.377 97.377 0 0 1 2.877 23.538 97.315 97.315 0 0 1-3.007 24.07l-9.95-5.747z" fill="#97B71B"/><path d="M117.502 41.576c-41.61 0-75.34 33.73-75.34 75.34 0 41.608 33.73 75.339 75.34 75.339 41.61 0 75.34-33.73 75.34-75.34 0-41.608-33.73-75.34-75.34-75.34z" fill="#000" fill-rule="nonzero"/><path d="M100.47 131.333c-1.32 9.551-9.862 12.58-15.452 12.58H69.72v-51.64h15.482c10.124 0 13.56 6.212 13.405 14.134-.194 6.251-4.893 9.629-6.833 9.862 4.969 1.397 10.017 5.512 8.696 15.064zm25.898 12.58l-7.993-18.725c-.22.005-3.742.01-4.859.01v18.714h-9.318V92.273h16.1c7.145 0 14.392 4.038 14.392 16.1 0 7.577-2.799 12.272-7.33 14.717l9.298 20.822h-10.29zm45.699 0h-10.25l-7.3-18.715-6.678 18.714h-9.862l11.26-26.558-10.639-25.082h10.329l6.523 18.249 5.901-18.249h10.017l-10.561 25.82 11.26 25.82z" fill="#FFF"/><path d="M84.642 121.315h-5.786v13.408h5.725c2.769 0 6.986-1.457 6.986-6.541 0-5.083-2.432-6.867-6.925-6.867zm33.586-19.982h-4.712v14.702h4.194c3.158 0 7.92-1.139 7.92-7.3 0-6.16-4.038-7.402-7.402-7.402zm-28.68 5.979c0-4.427-2.045-5.98-5.825-5.98h-4.867v11.675h4.815c2.329 0 5.876-1.269 5.876-5.695z" fill="#000" fill-rule="nonzero"/></g></svg>