<svg width="235" height="235" viewBox="0 0 235 235" xmlns="http://www.w3.org/2000/svg"><g fill="none" fill-rule="evenodd"><path d="M117.4 5C55.353 5 5 55.352 5 117.4c0 62.05 50.352 112.402 112.4 112.402 62.05 0 112.402-50.353 112.402-112.401C229.802 55.352 179.449 5 117.4 5z" fill="#000" fill-rule="nonzero"/><path d="M201.525 135.221s-6.941 7.369-15.028 21.375c-8.087 14.008-10.998 23.703-10.998 23.703l10.007 5.776c-11.356 11.184-25.45 19.592-41.187 24.125v-11.9s-9.852-2.327-26.026-2.327-26.026 2.328-26.026 2.328v12.39C76.117 206.375 61.63 198 49.96 186.722l11.127-6.423s-2.91-9.695-10.997-23.703c-8.087-14.006-15.028-21.375-15.028-21.375l-11.49 6.634a97.182 97.182 0 0 1-3.24-24.94 97.238 97.238 0 0 1 3.1-24.415l11.63 6.716s6.942-7.369 15.03-21.375c8.086-14.007 10.996-23.703 10.996-23.703l-11.516-6.649c11.735-11.468 26.366-19.983 42.696-24.35v12.998s9.852 2.328 26.026 2.328 26.026-2.328 26.026-2.328V23.63c15.917 4.586 30.156 13.132 41.577 24.507L175.5 54.138s2.91 9.696 10.998 23.703c8.087 14.006 15.028 21.375 15.028 21.375l10.072-5.815a97.271 97.271 0 0 1 2.874 23.514 97.21 97.21 0 0 1-3.004 24.045l-9.943-5.739z" fill="#2EA4FE"/><path d="M117.4 41.655c-41.565 0-75.26 33.696-75.26 75.261 0 41.566 33.695 75.261 75.26 75.261 41.566 0 75.262-33.695 75.262-75.26 0-41.566-33.696-75.262-75.261-75.262z" fill="#000" fill-rule="nonzero"/><path d="M100.59 130.79c-1.266 9.16-9.46 12.066-14.822 12.066H71.095v-49.53h14.85c9.71 0 13.006 5.958 12.857 13.555-.186 5.996-4.692 9.236-6.555 9.46 4.767 1.34 9.608 5.288 8.342 14.449zm24.839 12.066l-7.667-17.96c-.212.005-3.59.01-4.66.01v17.95h-8.937v-49.53h15.442c6.852 0 13.804 3.872 13.804 15.443 0 7.267-2.686 11.77-7.032 14.115l8.919 19.972h-9.87zm36.284 0l-9.842-20.394-4.353 7.29v13.104h-8.799v-49.53h8.8V113.3l11.87-19.974h9.878l-11.829 19.81 13.987 29.72h-9.712z" fill="#FFF"/><path d="M117.62 102.016h-4.52v14.101h4.022c3.03 0 7.597-1.092 7.597-7 0-5.909-3.872-7.101-7.1-7.101zm-32.213 19.166H79.86v12.861h5.49c2.656 0 6.7-1.398 6.7-6.273 0-4.877-2.332-6.588-6.642-6.588zm4.705-13.431c0-4.246-1.961-5.735-5.586-5.735H79.86v11.196h4.618c2.234 0 5.635-1.215 5.635-5.461z" fill="#000" fill-rule="nonzero"/></g></svg>