<svg width="235" height="235" viewBox="0 0 235 235" xmlns="http://www.w3.org/2000/svg"><g transform="translate(5 5)" fill="none"><circle fill="#F04086" cx="112.5" cy="112.5" r="112.5"/><path d="M181.657 121.33c-5.399-5.96-13.179-9.657-23.34-11.094v-.215c8.898-1.433 15.89-5.072 20.645-10.891a31.758 31.758 0 0 0 7.4-20.578c0-12.5-4.044-20.995-12.396-27.677-8.353-6.682-20.9-8.875-37.898-8.875h-64.2v59.59H35v22.82h100.636c7.92 0 13.87.559 17.798 3.716 3.929 3.156 5.937 7.239 5.937 13.274 0 6.035-1.983 11.183-5.937 14.416-3.953 3.233-9.903 5.363-17.798 5.363h-34.528v-17.75h-29.24V184h66.31c16.858 0 29.75-4.387 38.686-11.208 8.938-6.82 13.133-16.9 13.133-29.262a32.558 32.558 0 0 0-8.34-22.2zm-49.708-19.804h-30.841V64.758h30.841c15.854 0 23.774 6.175 23.774 18.384 0 12.21-7.92 18.384-23.774 18.384z" fill="#FFF"/></g></svg>