<svg width="235" height="235" viewBox="0 0 235 235" xmlns="http://www.w3.org/2000/svg"><g fill="none" opacity=".8"><path d="M83.903 41.193l60.495 60.374L93.082 7 50.18 50.2zm68.344 153.487l-60.494-60.374 51.315 94.566 42.878-43.2zM41.179 152.04l38.787-82.063-59.37 59.276L6.919 142.88l43.287 42.793zm153.818-68.233l-60.52 60.4 94.756-51.214-43.287-42.818z" fill="#040000"/><path d="M166.105 79.877l-59.37-59.225L93.083 7l51.316 94.567zm-96.06 76.093l73.023 72.902-51.315-94.566zm31.628-64.304l-21.707-21.69-38.787 82.064zm54.512 74.204l73.048-72.877-94.756 51.213z" fill="#323333"/><path d="M25.148 25.168L6.918 92.993 44.043 73.09zm185.88 185.536l18.205-67.825-37.125 19.878zm-185.88-.025l67.934 18.193-19.917-37.076zm185.88-185.511L143.068 7l19.918 37.051z" fill="#555"/><path d="M50.179 50.2L93.082 7 25.148 25.168 44.043 73.09zm135.767 135.472l-42.878 43.2 67.96-18.168-18.92-47.947zm-135.741 0L6.918 142.879l18.23 67.8 48.017-18.883zM185.946 50.175l43.287 42.818-18.205-67.825-48.042 18.883z" fill="#323333"/><path d="M44.043 73.09L6.918 92.993l8.616 8.574zm148.065 89.667l37.125-19.878-8.617-8.573zm-99.026 66.115l8.591-8.599-28.508-28.477zM143.068 7l-8.59 8.6 28.508 28.451z" fill="#040000"/></g></svg>