<svg width="235" height="235" viewBox="0 0 235 235" xmlns="http://www.w3.org/2000/svg"><defs><linearGradient x1="21.909%" y1="12.438%" x2="71.959%" y2="71.646%" id="a"><stop stop-color="#FFF" offset="0%"/><stop stop-color="#D5AC51" offset="16%"/><stop stop-color="#D2A644" offset="18%"/><stop stop-color="#CC9B2E" offset="26%"/><stop stop-color="#E6DE5F" offset="29%"/><stop stop-color="#9D9A62" offset="45%"/><stop stop-color="#787864" offset="63%"/><stop stop-color="#517E69" stop-opacity=".96" offset="70%"/><stop stop-color="#4F99CA" offset="100%"/></linearGradient></defs><path d="M133.656 106.358c3.9-35.848 4.213-71.408 4.213-81.445V23.89c2-.86 5.95-1.658 12.738.187 7.776 2.12 13.752 9.976 16.538 14.278v2.743c-.138 15.236-4.926 52.904-13.227 81.158-7.25 24.676-23.09 57.518-26.253 64.064a39.59 39.59 0 0 0-4.8-.76c1.262-8.33 7.1-45.411 10.788-79.2l.003-.002zm-2.751 80.834a36.536 36.536 0 0 1 4.776 1.895c4.1-5.349 22.94-30.323 34.716-52.904 13.89-26.633 26.816-61.969 28.566-68.827l.712-2.805c-1.538-4.763-5.225-13.628-12.388-18.28a30.058 30.058 0 0 0-16.8-5.323v.136c-.137 15.424-5 53.528-13.364 82.069-7.138 24.277-22.402 56.196-26.228 64.04h.012-.002zm7.762 3.529a35.672 35.672 0 0 1 5.488 4.102c5-4.987 26.078-25.807 40.067-43.39 16.153-20.3 32.218-48.8 34.843-54.972l1.362-3.217c-.374-4.09-1.513-10.585-5-15.399a29.163 29.163 0 0 0-13.24-9.526c-2.199 8.475-15.575 44.076-28.752 69.434-11.677 22.256-30.038 46.757-34.779 52.961h.013l-.002.007zM78.987 119.5c9.363 30.585 23.288 61.096 26.415 67.829a38.925 38.925 0 0 1 5-1.247c-1.25-7.282-7.612-45.585-11.563-81.607-4.313-39.363-6.075-72.73-6.25-79.5v-.673c-3.076-.81-9.614-1.92-18.077 1.97a28.709 28.709 0 0 0-13.6 14.376c.124.922.25 1.958.4 3.117 1.248 9.988 7.236 41.645 17.675 75.735zm23.165-15.4c3.963 36.085 10.364 74.488 11.552 81.495a46.61 46.61 0 0 1 4.837-.249h.87c1.25-7.568 7.164-45.174 10.89-79.375 3.888-35.673 4.188-71.071 4.188-81.046v-1.622C131.327 20.498 124.001 15 115.027 15c-8.975 0-16.137 5.498-19.263 8.303v1.56c.325 6.746 2.076 39.987 6.388 79.25v-.013zm16.39 84.588c-18.316 0-26.68 10.897-29.154 14.962 15.49 11.334 25.34 16.35 29.29 16.35 3.95 0 15.177-6.073 28.966-15.86-2.538-4.264-10.913-15.436-29.103-15.436v-.016zm103.486-90.734c-2.9 6.633-19.027 35.211-35.213 55.56-14.09 17.705-35.19 38.652-40.329 43.64a35.122 35.122 0 0 1 3.825 4.987 329.059 329.059 0 0 0 31.404-26.047c26.449-24.937 47.497-49.561 48.226-61.994a17.577 17.577 0 0 0-7.913-16.146zM48.447 149.31a382.762 382.762 0 0 0 43.987 45.511 35.075 35.075 0 0 1 3.588-2.856 312.884 312.884 0 0 1-36.942-56.258c-17.294-33.588-23.873-56.83-26.686-66.755l-.387-1.483V67.4c-3.876 1.035-13.64 4.264-17.502 11.333a22.545 22.545 0 0 0-2.6 10.573c.6 1.72 1.363 3.803 2.326 6.234 6.024 15.231 17.543 33.374 34.216 53.77zm-2.6 2.12c-16.252-19.95-27.728-37.755-34.054-52.98-2.375 2.083-7.302 7.63-6.75 17.457.712 12.892 19.277 33.279 53.218 62.605 10.901 9.425 20.402 17.082 28.49 23.114a33.11 33.11 0 0 1 3.376-4.426 387.23 387.23 0 0 1-44.29-45.768h.012l-.002-.002zM35.633 68.042c2.775 9.825 9.288 32.843 26.437 66.09a307.788 307.788 0 0 0 36.817 55.983 35.545 35.545 0 0 1 3.363-1.646c-3.375-7.269-17.164-37.618-26.478-68.03-10.499-34.3-16.524-66.225-17.8-76.313v-.386a24.185 24.185 0 0 0-15.565 4.688c-5.238 3.853-7.363 10.099-8.238 14.264a148.6 148.6 0 0 0 1.025 3.815l.439 1.535z" fill="url(#a)"/></svg>