<svg width="235" height="235" viewBox="0 0 235 235" xmlns="http://www.w3.org/2000/svg"><g fill="none"><path d="M117.5 12.5c-57.961 0-105 47.039-105 105s47.039 105 105 105 105-47.039 105-105-47.039-105-105-105z" stroke="#FF3A00" stroke-width="15"/><path d="M165.438 107.335c-4.495-22.765-24.663-39.29-47.954-39.29-3.62 0-7.294.402-10.905 1.194-24.302 5.328-40.48 27.279-38.468 52.191.954 11.826 5.502 21.772 13.902 30.41l1.62 1.664 2.146-.902a289.606 289.606 0 0 1 3.952-1.627l4.984-2.01-3.943-3.65c-5.98-5.532-9.804-12.53-11.363-20.8-2.273-12.084.831-23.375 8.972-32.647 7.273-8.284 17.798-13.035 28.87-13.035 10.076 0 19.571 3.86 26.737 10.865 8.137 7.957 12.06 17.605 11.66 28.677-.394 11.067-4.571 20.25-12.414 27.287l-4.016 3.608 4.986 2.072c1.264.523 2.5 1.083 3.716 1.678l2.205 1.08 1.725-1.747c12.604-12.775 17.05-27.5 13.588-45.018" fill="#FF3A00"/><path d="M55.728 171.44l2.49 2.78 9.344-10.041-1.998-2.314c-7.1-8.2-12.009-17.698-14.59-28.23-3.04-12.401-2.623-24.835 1.229-36.956 3.875-12.175 10.77-22.59 20.49-30.953a68.37 68.37 0 0 1 44.592-16.555c17.963 0 34.87 6.906 47.604 19.449 12.553 12.357 19.407 27.356 20.38 44.577 1.059 18.859-4.76 35.57-17.289 49.66l-2.018 2.273 9.157 10.211 2.54-2.726c20.03-21.454 26.737-53.572 17.087-81.829-11.3-33.09-42.473-55.324-77.575-55.324-.618 0-1.24.004-1.861.016-34.61.76-65.123 23.355-75.925 56.227-10.916 33.202 1.284 62.957 16.343 79.736" fill="#FF3A00"/></g></svg>