<svg width="235" height="235" viewBox="0 0 235 235" xmlns="http://www.w3.org/2000/svg"><path d="M196.809 47.5h-45.822l-79.525 79.775H50.93l-14.76-14.803V93.69l14.806-14.85H70.35l10.384 10.382a3.69 3.69 0 0 0 2.68 1.157 3.681 3.681 0 0 0 2.777-1.275l16.626-16.634v-.015a3.723 3.723 0 0 0 .033-5.223v-.007L83.26 47.572H38.065L5 80.739v44.684l33.017 33.12h46.355l79.526-79.775h20l14.932 14.98v19.097l-14.496 14.542h-22.486l-8.589-8.615h-.007a3.689 3.689 0 0 0-5.216-.062h-.015l-19.452 19.514v45.554a3.719 3.719 0 0 0 3.711 3.722h23.73a3.718 3.718 0 0 0 3.704-3.7l.026-18.737.012-.012c.005-3.532 2.86-6.394 6.382-6.396h31.11L230 125.795V80.797L196.809 47.5z" fill="#ED1750"/></svg>