<svg width="235" height="235" viewBox="0 0 235 235" xmlns="http://www.w3.org/2000/svg"><path d="M230 117.5c0 62.132-50.367 112.5-112.5 112.5C55.369 230 5 179.632 5 117.5S55.368 5 117.5 5 230 55.368 230 117.5zm-35.205-31.054c-.062-2.878-1.142-5.238-2.314-7.483-1.214-2.302-2.96-4.03-5.768-5.18-2.316-1.19-4.685-1.783-8.08-1.783H73.522l-7.507 22.505h95.224l-15.016 45.99h-95.22L43.496 163h105.617c2.888 0 5.833-.608 9.24-1.783 2.96-1.67 6.353-3.397 9.238-5.681 2.381-1.802 5.2-4.622 7.487-7.5 1.813-2.878 3.52-5.76 4.642-8.697l13.918-43.677c1.153-2.942 1.686-6.338 1.157-9.216zm-91.244 20.657H47.478L40 127.9h56.561l6.99-20.796z" fill="#2075BC"/></svg>