<svg width="235" height="235" viewBox="0 0 235 235" xmlns="http://www.w3.org/2000/svg"><g fill="none"><path d="M5 58.112h56.972c12.706 1.012 25.607 4.203 36.194 11.562 8.306 5.529 14.794 13.338 20.009 21.758 5.001 8.203 8.796 17.065 12.79 25.79 4.935 10.787 10.295 22.38 20.565 29.143 8.73 5.914 19.583 7.093 29.865 7.2 16.16.052 32.333-.014 48.494.013v23.204c-17.474 0-34.934.027-52.4-.013-16.079-.186-32.691-4.641-44.924-15.474-5.81-5.012-10.482-11.23-14.475-17.754-4.962-8.407-8.836-17.396-12.869-26.267-5.476-12.132-12.428-24.994-25.047-30.92-16.2-7.769-34.655-4.23-51.955-5.038a62164.25 62164.25 0 0 0 0 72.262c-.04 7.73-.08 15.473.08 23.203H5V58.112z" fill="#008A6F"/><path d="M174.88 58.112h55.008v23.204c-16.612.027-33.21-.027-49.807.013-11.158.265-22.848 2.824-31.578 10.156-8.226 6.683-12.91 16.441-17.541 25.733-3.994-8.724-7.788-17.581-12.79-25.789 5.545-8.697 12.378-16.772 21.188-22.314 10.51-6.972 23.088-9.955 35.52-11.003m-69.655 59.162c4.033 8.87 7.907 17.86 12.869 26.267-5.082 7.876-10.96 15.473-18.748 20.856-11.847 8.71-26.774 12.078-41.273 12.37-9.924.053-19.848-.013-29.772.014-.16-7.73-.12-15.473-.08-23.203 16.836-.703 34.575 2.28 50.616-4.257 13.571-5.595 20.682-19.41 26.388-32.047" fill="#1BB168"/></g></svg>