<svg width="235" height="235" viewBox="0 0 235 235" xmlns="http://www.w3.org/2000/svg"><defs><linearGradient x1="0%" y1="50.001%" x2="100.001%" y2="50.001%" id="a"><stop stop-color="#62D0C9" offset="0%"/><stop stop-color="#7DE2AC" offset="100%"/></linearGradient><linearGradient x1="-.001%" y1="50%" x2="99.998%" y2="50%" id="b"><stop stop-color="#3268FB" offset="0%"/><stop stop-color="#4795FA" offset="100%"/></linearGradient></defs><g fill="none"><path d="M99.454 106.131h54.758c20.34 0 36.889-16.545 36.889-36.88 0-20.333-16.549-36.876-36.89-36.876h-17.443L99.454 0h54.758c38.258 0 69.276 31.008 69.276 69.25 0 29.014-17.855 53.859-43.179 64.161l43.174 37.463H174.08l-74.625-64.743z" fill="url(#a)" transform="translate(5 31)"/><path d="M126.19 64.754H71.438c-20.337 0-36.892 16.539-36.892 36.873 0 20.332 16.553 36.877 36.892 36.877H88.88l37.312 32.372H71.438c-38.261 0-69.279-31.003-69.279-69.25 0-29.011 17.855-53.86 43.178-64.163L2.163 0h49.405l74.622 64.754z" fill="url(#b)" transform="translate(5 31)"/></g></svg>