<svg width="235" height="235" viewBox="0 0 235 235" xmlns="http://www.w3.org/2000/svg"><path d="M117.5 5C55.368 5 5 55.368 5 117.5S55.368 230 117.5 230c62.131 0 112.5-50.368 112.5-112.5S179.631 5 117.5 5zm66.358 94.523l-23.087-4.032 9.032-22.589a68.55 68.55 0 0 1 14.055 26.62zm-27.56-6.603l-14.255-14.256 23.73-9.44-9.475 23.696zm-38.797 18.909l-15.888-31.504h31.775l-15.887 31.504zm20.727-29.756l14.7 14.701-29.657 14.957 14.957-29.658zM111.73 111.73L82.074 96.775l14.701-14.7 14.956 29.656zm.098 5.77l-31.505 15.888v-31.776L111.83 117.5zm-.098 5.77l-14.957 29.66-14.7-14.7 29.658-14.958zm5.77-.097l15.887 31.503h-31.775l15.888-31.503zm5.77.097l29.657 14.956-14.7 14.7-14.957-29.656zm-.097-5.77l31.503-15.888v31.775L123.173 117.5zm38.915-52.31l-22.642 9.007-4.48-23.193A68.542 68.542 0 0 1 162.09 65.19zm-57.167-15.275a69.302 69.302 0 0 1 24.613-.102l4.907 25.402h-33.939l4.42-25.3zm-5.4 1.229L95.49 74.23 72.902 65.2a68.537 68.537 0 0 1 26.62-14.055zm-6.601 27.56L78.663 92.959l-9.44-23.73 23.696 9.475zm-27.73-5.792l9.007 22.642-23.192 4.479a68.55 68.55 0 0 1 14.185-27.12zm-16.428 44.589c0-4.105.362-8.126 1.052-12.032l25.4-4.908v33.938l-25.3-4.418a69.153 69.153 0 0 1-1.152-12.58zm2.38 17.977l23.087 4.033-9.03 22.588a68.57 68.57 0 0 1-14.056-26.62zm27.56 6.605l14.256 14.255-23.73 9.44 9.475-23.695zm-5.79 27.729l22.64-9.008 4.48 23.193a68.552 68.552 0 0 1-27.12-14.185zm57.167 15.275a69.222 69.222 0 0 1-12.579 1.151 69.195 69.195 0 0 1-12.034-1.05l-4.907-25.403h33.938l-4.418 25.302zm5.398-1.229l4.033-23.087 22.588 9.032a68.567 68.567 0 0 1-26.62 14.055zm6.604-27.56l14.254-14.255 9.442 23.73-23.696-9.475zm27.73 5.79l-9.008-22.64 23.192-4.48a68.545 68.545 0 0 1-14.184 27.12zm15.375-32.554l-25.4 4.908v-33.938l25.3 4.418a69.222 69.222 0 0 1 1.151 12.579c0 4.105-.361 8.125-1.05 12.033z" fill="#476F94"/></svg>