<svg width="235" height="235" viewBox="0 0 235 235" xmlns="http://www.w3.org/2000/svg"><g transform="translate(5 5)" fill="none"><path d="M112.788.804C50.923.804.804 51.004.804 112.788c0 61.783 50.2 111.983 111.984 111.983 61.783 0 112.063-50.12 112.063-111.983 0-61.865-50.2-111.984-112.063-111.984z" fill="#06C"/><circle fill="#002352" cx="112.788" cy="112.788" r="90.986"/><path d="M140.783 67.174l3.218-8.367c.322-.885-.322-1.77-1.206-1.77h-11.987l-3.781 9.895h-5.31l3.057-8.125c.322-.885-.322-1.77-1.206-1.77H111.58l-3.781 9.895H70.23c-1.689 0-3.298.966-4.182 2.414l-9.332 16.492h70.069c2.333 0 4.586.402 6.758 1.287 4.183 1.69 9.09 5.55 7.803 14.239-2.01 14.561-16.894 40.304-49.073 40.707l16.653-43.281c.644-1.77-.643-3.62-2.574-3.62H84.068l-26.95 66.128s5.39.643 13.917.643L68.3 168.86h12.389c.965 0 1.85-.564 2.172-1.529l2.333-5.953c1.85-.16 3.62-.402 5.55-.563l-3.056 8.045h12.308c.966 0 1.85-.564 2.172-1.529l3.54-9.09c20.193-4.586 41.753-14.642 54.705-35.72 25.984-42.476-.966-53.416-19.63-55.347z" fill="#FFF"/></g></svg>