<svg width="235" height="235" viewBox="0 0 235 235" xmlns="http://www.w3.org/2000/svg"><g fill="#C2A633"><path d="M119.807 78.885h-16.022v31.579h25.202v13.223h-25.202v31.579h16.799c4.317 0 35.445.487 35.398-36.743-.047-37.227-30.187-39.638-36.175-39.638z"/><path d="M117.114 5C55.194 5 5 55.195 5 117.113c0 61.92 50.195 112.114 112.114 112.114 61.918 0 112.112-50.194 112.112-112.114C229.226 55.195 179.032 5 117.114 5zm4.405 172.666H80.916v-53.978H66.604v-13.223h14.31V56.484h34.848c8.244 0 62.846-1.713 62.846 61.603 0 64.363-57.089 59.579-57.089 59.579z"/></g></svg>