<svg width="235" height="235" viewBox="0 0 235 235" xmlns="http://www.w3.org/2000/svg"><g fill="none" fill-rule="evenodd"><path d="M230 117.5c0 62.132-50.367 112.5-112.5 112.5C55.369 230 5 179.632 5 117.5S55.368 5 117.5 5 230 55.368 230 117.5" fill="#000"/><g stroke="#FFF" stroke-width="3"><path d="M117.5 78.466l-50.767 85.799a.115.115 0 0 0 .098.173H168.17a.115.115 0 0 0 .098-.173L117.5 78.466z"/><path d="M117.5 42.493L85.115 85.497 117.5 189.716l32.385-104.22L117.5 42.494z"/><path d="M117.5 42.493l-32.66 43.37-19.112 79.306 51.772 28.124 51.772-28.124-19.112-79.307-32.66-43.369zm0 1.507v35.52"/></g></g></svg>