<svg width="235" height="235" viewBox="0 0 235 235" xmlns="http://www.w3.org/2000/svg"><path d="M140.233 7.065C133 5.528 111.61 4.451 104.683 5.297c-14.927 1.845-33.394 8.15-46.167 15.915C31.353 37.588 12.424 65.419 6.038 98.248c-1 5.536-1.462 34.367-.539 35.366.462.385 38.166-11.532 110.188-34.75 4.617-1.461 8.541-2.46 8.695-2.307.231.23-.77 4.843-2.308 10.225-1.462 5.459-2.54 10.072-2.386 10.226.231.153 15.159-4.46 33.241-10.303 18.083-5.766 34.704-11.07 36.781-11.686 2.155-.692 4.155-1.46 4.463-1.768.846-.769-3.232-10.61-7.31-17.452-15.082-25.526-43.783-40.825-73.638-39.21-18.39.999-34.934 7.61-48.861 19.45-13.466 11.456-23.008 27.755-26.547 45.438l-1.385 6.69-6.464 2.152c-3.54 1.23-6.848 1.999-7.31 1.845-.538-.23-.615-1.999-.154-5.997 3.232-27.216 18.93-52.665 41.783-67.887 18.159-12.07 40.32-17.837 60.942-15.838 16.235 1.538 30.701 6.535 43.552 14.915 22.545 14.685 36.395 34.982 42.397 62.198l.462 2.076-18.236 5.843a9575.332 9575.332 0 0 0-29.856 9.61c-11.927 3.845-46.014 14.762-55.248 17.684-2.924.922-5.386 1.537-5.617 1.383-.154-.23 1-5.381 2.693-11.455s2.924-11.148 2.847-11.225c-.154-.154-6.232 1.691-13.62 4.075-7.386 2.306-17.543 5.612-22.622 7.227-16.466 5.305-28.162 8.995-45.783 14.608-9.542 3.075-17.467 5.689-17.621 5.843-1.077 1 4.463 16.376 8.849 24.602 15.697 29.754 43.937 50.973 77.1 57.97 9.773 2.076 26.394 2.844 35.704 1.614 42.706-5.612 76.485-31.752 92.183-71.116 2.693-6.843 5.77-18.76 6.54-25.218l.539-4.382-6.002 1.999c-3.386 1.076-7.464 2.306-9.08 2.844-2.77.77-3.078 1.154-4.078 5.075-8.003 32.06-28.624 55.894-58.326 67.58-45.476 17.913-97.876-2.153-119.883-45.822-1.54-3.076-2.54-5.69-2.232-5.844.462-.23 6.387-2.23 12.235-3.997.462-.154 1.693 1.23 2.54 3.152 5.155 10.533 15.696 22.834 25.392 29.677 15.158 10.686 33.856 16.068 51.939 14.992 28.855-1.769 54.709-18.683 67.713-44.362 2.232-4.382 6.002-13.915 5.617-14.223-.154-.077-5.155 1.46-11.234 3.383l-10.927 3.613-3.231 4.92c-1.77 2.769-5.694 7.458-8.695 10.457-24.854 24.68-65.636 23.834-89.72-1.845-5.156-5.459-11.08-14.685-10.08-15.608.923-.922 24.007-8.226 24.315-7.688.154.23-.924 4.613-2.309 9.687-1.385 5.075-2.77 10.149-3 11.302l-.462 2 5.617-1.77c3.078-.999 11.157-3.613 17.929-5.765 6.77-2.153 16.466-5.305 21.545-6.92 5.078-1.614 28.316-9.072 51.554-16.53 23.315-7.457 44.552-14.3 47.322-15.146 2.77-.845 5.31-1.845 5.695-2.152 1.692-1.615-3.001-24.372-7.233-35.059-14.159-35.827-44.553-61.506-82.18-69.579zm-34.703 48.59c1.847-.384 7.08-.692 11.542-.769 18.39-.153 36.704 8.15 48.092 21.912 4.925 5.843 6.079 7.919 4.848 8.38-4.925 1.692-27.932 8.842-28.086 8.688-.077-.154 1-4.536 2.462-9.841 1.385-5.305 2.617-9.995 2.617-10.456 0-.538-8.542 1.845-19.776 5.459-10.926 3.536-29.163 9.38-40.628 13.07-11.388 3.613-22.776 7.304-25.315 8.072l-4.463 1.461.461-2.46c.77-3.767 5.464-13.3 9.234-18.529 8.926-12.532 23.777-21.988 39.012-24.987z" fill="#030358" fill-rule="evenodd"/></svg>