<svg width="235" height="235" viewBox="0 0 235 235" xmlns="http://www.w3.org/2000/svg"><g fill="none"><path d="M87.663 8.913c-4.891 1.467-4.891 1.467-7.337 2.446-3.913 1.467-4.402 1.467-7.337 2.934-3.913 1.468-3.913 1.468-5.38 2.446-3.424 1.957-3.424 1.957-4.892 2.446-3.424 1.956-3.424 1.956-4.89 2.935-3.425 1.956-3.425 1.956-4.892 3.423-3.913 1.957-3.913 1.957-5.38 3.424-3.425 2.935-3.914 2.935-5.87 4.892C50 26.522 61.739 18.696 74.945 13.315c4.403-1.956 8.805-3.424 12.718-4.402" fill="#417BA4"/><path d="M25.054 52.935c-.978.978-1.956 2.445-2.934 3.913.978-1.468 1.956-2.446 2.934-3.913" fill="#D37D41"/><path d="M93.533 200.652c-2.446 3.424-4.403 6.359-5.87 9.294 1.467-2.935 3.424-6.359 5.87-9.294" fill="#E8B521"/><path d="M9.891 143.913c-.489 2.446 0 4.402.49 6.359-.979-1.957-.979-3.913-.49-6.359m23.479 47.446c-1.957-2.446-3.913-4.402-5.87-6.848 1.957 2.446 4.402 5.87 6.848 7.826 0-.49-.49-.978-.978-.978" fill="#417BA4"/><path d="M87.663 221.685c-1.467-1.957-1.956-3.913-1.467-6.848-.49 2.935 0 5.38 1.467 6.848M5.978 103.315c0-.978.49-1.467.49-2.445.489-2.935.978-5.38 1.467-8.316v.979l-.978 3.913-.979 5.87" fill="#E8B521"/><path d="M25.054 52.935c1.468-1.957 2.446-3.913 3.913-5.87L27.5 49.511c-1.467 2.446-3.913 5.38-5.38 7.337.978-1.468 1.956-2.446 2.934-3.913" fill="#D37D41"/><path d="M35.815 40.217c1.468-1.956 3.424-4.402 5.87-6.358 3.913-3.424 3.913-3.424 5.87-4.892 3.423-2.445 3.423-2.445 5.38-3.913 3.424-2.445 3.424-2.445 4.891-3.424 3.424-1.956 3.424-1.956 4.891-2.934 3.424-1.957 3.424-1.957 4.892-2.446 3.424-1.467 3.424-1.467 5.38-2.446 3.913-1.467 4.402-1.956 7.337-2.934 4.891-1.468 4.891-1.468 7.337-2.446 14.185-3.424 22.99-1.467 21.033 6.359-.49 2.445-2.446 5.38-5.38 8.804-2.446.978-7.338 0-8.316-.978 2.446-2.446 3.913-4.892 4.402-7.337 1.957-7.826-9.782-8.315-26.902-1.468-13.207 5.87-25.435 14.674-31.304 22.011-1.957 1.468-3.913 2.935-5.38 4.402m-.001 0c-1.956 1.957-2.935 3.913-3.424 5.38.49-1.467 1.468-3.423 3.424-5.38" fill="#417BA4"/><path d="M108.207 5.49C111.14 5 114.565 5 117.5 5c9.783 0 14.674 3.913 12.717 11.25-2.445 9.293-15.163 21.522-31.793 32.772-3.424 1.467-6.359-2.935-5.87-4.402.49 0 .49-.49.49-.49 14.673-9.782 25.923-20.543 27.88-28.858 1.956-7.337-4.402-10.761-15.163-9.783h2.446M22.609 56.848l-1.957 3.913c0-1.468.978-2.446 1.957-3.913" fill="#D37D41"/><path d="M165.435 16.25c5.87 2.446 7.826 7.337 6.358 14.674-5.87 21.033-46.956 53.804-92.934 73.37-8.805 3.423-16.63 6.358-24.457 8.804-3.913.489-4.891-5.38-2.935-7.826.49-.979.979-.979 1.468-1.468 6.848-1.956 14.674-4.891 22.989-8.315 43.043-18.098 82.174-48.913 87.554-68.967 1.957-7.337-.978-11.74-7.337-14.185 2.446.978 6.359 2.446 9.294 3.913m49.402 46.957l1.467 2.445c1.468 3.424 1.468 3.424 1.468 5.87v.489c-1.468-.49-4.402-6.359-4.402-8.804 0-2.446-.49-4.892-1.957-6.848l3.424 6.848" fill="#E8B521"/><path d="M224.62 88.641c.489 2.446.489 5.38-.49 8.805-5.38 21.032-41.087 51.358-84.13 73.858-4.891 1.957-7.826-1.467-6.359-4.891.49-1.467 1.468-1.956 2.446-2.935 43.533-22.989 79.728-53.804 85.598-75.326.978-3.913.978-7.337 0-9.782.978 2.934 1.956 6.847 2.935 10.271" fill="#417BA4"/><path d="M228.043 108.207v3.423c0 1.468 0 3.424-.489 5.38-3.424 12.718-18.587 29.349-40.597 45.49-3.424 1.957-4.892-.978-4.403-3.424.49-1.956 1.468-2.935 2.446-3.424 22.5-16.63 38.152-33.75 41.576-46.956.49-2.446.978-4.892.49-6.848l.977 6.359" fill="#D37D41"/><path d="M31.902 52.446c-.489-.979-.978-1.957-.489-3.913-.49 1.956 0 2.934.49 3.913M80.815 38.26c.49.49.978 1.957 0 2.936-4.891 2.934-10.272 5.38-15.163 7.826-16.63 7.337-29.837 8.315-33.26 3.424 1.956-2.446 3.912-4.892 6.358-7.337 2.446 3.913 12.717 2.934 25.924-2.446 4.402-1.956 8.315-3.913 12.228-6.359 1.468-.489 3.424 1.468 3.913 1.957" fill="#417BA4"/><path d="M20.163 70.543c-.978-1.467-1.467-3.423-1.467-5.38 0 2.446 0 3.424 1.467 5.38m38.152-4.402c0 2.446-.489 5.87-21.032 8.316-5.87.489-13.696.489-17.12-3.914 1.467-2.934 2.935-5.38 4.891-7.826 3.424 4.892 15.653 4.892 31.305-.489 2.445-.489 1.956 3.913 1.956 3.913" fill="#D37D41"/><path d="M11.848 90.598C10.38 88.64 9.89 86.196 10.38 83.75c-.489 2.446 0 4.891 1.468 6.848M140.49 7.446c1.956.489 3.423.978 4.401.978 5.87 2.446 8.316 6.359 6.848 13.206-4.891 18.098-40.109 45.98-79.239 62.61-30.815 13.206-54.293 15.162-60.652 6.358l2.935-8.805c5.87 7.827 27.39 5.87 55.271-5.87 35.707-15.162 67.99-40.597 72.392-57.227 1.467-5.87-.49-9.783-5.87-11.74.978 0 1.467 0 3.913.49" fill="#417BA4"/><path d="M13.804 112.12c-.489 1.467-.978 3.423-1.956 2.934-4.402-2.445-6.848-6.358-5.87-11.739-.489 3.424 0 5.87 1.957 8.315l1.467-8.804c.978 1.467 2.446 2.446 3.913 3.424.978.978.49 5.38.49 5.87" fill="#E8B521"/><path d="M5.49 126.793v-3.423 3.423m175.597-101.25l4.402 3.424c3.913 2.935 5.38 7.826 3.913 14.185-6.359 23.478-52.337 59.674-103.206 81.196-48.424 20.543-83.642 20.054-80.707-.978-.489 3.913.49 6.847 1.957 9.293-.49-2.935-.49-5.87-.49-9.293 31.794 33.75 173.642-53.316 175.598-90 .49-6.36-3.424-9.294-5.38-10.761l3.913 2.934" fill="#D37D41"/><g fill="#417BA4"><path d="M10.38 150.272c-.489-1.957-.978-3.913-.489-6.359-.489 2.446-.489 4.402.49 6.359"/><path d="M202.609 45.109c2.934 3.424 3.424 7.826 1.956 13.206-6.848 24.946-55.272 63.587-109.076 86.087-51.359 22.011-88.532 21.522-85.598-.489-.489 3.913.49 6.848 1.957 9.783-.978-2.935-1.957-5.87-2.446-8.805 8.315 11.74 40.598 8.805 81.685-8.804 52.337-22.5 100.272-60.163 107.12-84.62 1.467-5.87.489-10.76-2.935-13.695 2.445 1.956 5.38 5.38 7.337 7.337"/></g><path d="M190.38 107.228c.979 2.935 0 4.892-.978 5.87-21.032 18.587-51.359 38.152-83.641 51.848C57.826 185 22.12 185.978 18.696 168.859c-.49-1.468 0-.49.489-.979 0 .49 0 2.935 1.956 5.38-.978-.488-1.467-.977-1.467-1.956-.49-.489-.49-.978-.49-1.467-.977-1.467-1.467-2.935-2.445-4.891 8.804 12.228 42.065 9.293 84.62-8.805 32.282-13.695 62.608-32.771 83.641-51.848 3.424-1.467 4.891 1.468 5.38 2.935" fill="#E8B521"/><path d="M70.543 193.804c.49.979.979 2.446-.978 3.424-17.12 2.935-29.348.979-35.217-4.891-1.957-2.446-4.891-5.38-6.848-7.826 5.38 6.848 18.098 8.804 36.196 5.38 3.913 0 6.358 2.935 6.847 3.913" fill="#417BA4"/><path d="M122.88 195.76c.49.49.49 2.447-2.445 3.914-32.772 12.717-58.207 15.652-68.478 8.315-2.446-1.956-5.87-4.402-7.827-6.359 9.783 8.316 37.174 5.87 71.903-7.826 4.89-1.467 6.847 1.957 6.847 1.957" fill="#D37D41"/><path d="M227.554 126.793c-.489 2.446-.489 6.36-.978 8.805 0 .489 0 .978-.489 1.467-5.38 20.544-45.49 52.337-90 70.924-28.37 12.228-51.848 16.141-63.098 11.25-2.935-1.467-6.359-2.935-9.293-4.402 38.641 16.141 158.478-49.402 163.858-89.51v1.466" fill="#417BA4"/><path d="M219.728 159.076c-16.63 34.24-92.935 71.902-123.26 67.011-2.935-.49-7.338-1.467-10.272-2.446 10.76 2.935 31.304-.489 55.76-10.76 39.62-16.631 75.816-45 81.685-64.077-1.467 3.424-2.445 7.337-3.913 10.272" fill="#E8B521"/><path d="M195.272 193.315c0 .49-.979 1.957-2.446 2.935-10.76 8.315-24.456 17.12-39.13 23.478-12.229 5.38-22.99 7.826-31.305 8.315h-11.739c9.294.49 23.478-2.445 39.62-9.782 16.63-6.848 32.771-16.63 44.51-26.413.49 0 .49-.49.979-.49v.49c0 .489-.49.978-.49 1.467M31.902 52.446c-.489-.979-.978-1.957-.489-3.913v-.979c1.957-1.956 3.913-4.402 6.359-6.358-.49 1.956 0 2.934.489 4.402-1.957 1.956-3.913 4.402-6.359 6.848" fill="#417BA4"/><path d="M20.163 70.543c-.978-1.467-1.467-3.423-1.467-5.38 0-.49 0-.978.489-1.956 1.467-2.446 2.935-4.892 4.891-7.337-.489 2.445-.489 4.89.978 6.358-1.956 2.935-3.424 5.87-4.891 8.315" fill="#D37D41"/><path d="M11.848 90.598C10.38 88.64 9.89 86.196 10.38 83.75c0-.49 0-1.467.49-2.446.978-2.445 1.956-5.38 2.934-7.826-.978 3.424-.489 6.359.979 8.315l-2.935 8.805" fill="#417BA4"/><path d="M7.446 111.63c-1.468-1.956-2.446-4.89-1.957-8.315l.978-5.87.979-4.402c-.979 3.914-.49 6.848 1.467 9.294-.49 2.935-.978 5.87-1.467 9.293" fill="#E8B521"/><path d="M7.446 132.663c-.979-1.467-1.957-3.424-1.957-5.87 0-2.934-.489-6.847-.489-10.271 0 2.445.49 4.891 1.957 6.848 0 3.423.489 6.358.489 9.293" fill="#D37D41"/><path d="M11.848 153.696c-.978-.979-1.468-1.957-1.468-3.424-.978-2.935-1.956-6.848-2.445-9.783.489 1.468.978 2.935 1.956 4.402.49 2.935.979 5.87 1.957 8.805M31.413 47.554c0-.489.49-1.467.49-1.956.977-1.468 1.956-3.424 3.912-5.38 1.957-1.468 3.424-3.425 5.38-4.892-1.467 2.446-2.934 4.402-3.423 5.87l-6.359 6.358" fill="#417BA4"/><path d="M19.185 63.696c0-.979.489-1.957.978-2.935.49-1.468 1.467-2.446 1.957-3.913 1.467-2.446 3.423-5.38 5.38-7.337l1.467-1.957c-2.445 2.935-3.913 5.38-4.89 9.294-1.957 1.956-3.425 4.402-4.892 6.848" fill="#D37D41"/><path d="M10.87 81.304c0-.489.489-.978.489-1.956.978-2.935 2.445-6.848 3.913-9.783-.49 1.468-.979 2.935-1.468 3.913-.978 2.446-1.956 5.38-2.934 7.826" fill="#417BA4"/></g></svg>