<svg width="235" height="235" viewBox="0 0 235 235" xmlns="http://www.w3.org/2000/svg"><g fill="#354A51" fill-rule="evenodd"><path d="M117.5 230C55.368 230 5 179.632 5 117.5S55.368 5 117.5 5 230 55.368 230 117.5 179.632 230 117.5 230zm0-6c58.818 0 106.5-47.682 106.5-106.5S176.318 11 117.5 11 11 58.682 11 117.5 58.682 224 117.5 224z"/><path d="M177.458 47.01c-1.316-.39-20.458 11.362-29.373 18.137-8.912 6.775-25.543 19.995-26.17 21.375-.63 1.378-.689 3.867-1.436 10.131-.748 6.266-3.35 8.994-3.35 8.994s-1.256-.959-1.945-2.998c-.688-2.038-1.136-7.735-1.555-7.854-.418-.12-11.625 10.343-11.625 10.343s-.797 5.235-2.512 15.628c-1.716 10.393-4.348 14.74-4.916 14.8-.568.06-1.795-4.017-2.213-8.155-.418-4.136-.12-13.94-.568-14.239-.45-.3-6.34 5.916-6.34 5.916s.796 7.394 1.394 17.067c.599 9.673-.318 16.318-1.305 16.948-.988.63-2.482-1.74-4.667-6.926-2.182-5.186-2.332-9.293-3.349-9.653-1.018-.36-3.14 4.707-3.768 9.744-.628 5.036-.15 12.68-.15 12.68s-2.932-5.455-4.786-8.303c-1.855-2.848-6.162-8.545-6.699-8.125-.54.42 1.823 5.037 3.258 9.144 1.436 4.108 3.35 10.193 3.35 10.193s-4.995-4.887-7.267-6.506c-2.274-1.618-8.883-5.365-9.422-4.196-.538 1.168 4.008 4.617 5.983 6.594 1.974 1.979 6.192 6.505 6.192 6.505s-2.125 2.22-2.663 5.247c-.539 3.027.777 5.875.777 5.875s3.5-7.255 5.504-7.374c2.005-.12 2.752 3.987 2.154 6.684-.599 2.7-9.422 11.972-8.974 13.222.45 1.25 11.695-10.603 12.752-12.861 2.233 2.718 14.118 7.354 14.796 7.113.678-.238-4.587-3.875-6.66-5.835-2.073-1.958-4.466-7.754-3.629-8.512.838-.76 1.914 3.876 7.936 6.794 6.022 2.918 15.235 3.557 15.394 3.157.16-.4-7.059-2.557-11.326-5.275-4.267-2.718-6.421-8.354-6.421-8.354s6.181 1.238 21.656 2.078c15.474.84 25.204-4.436 25.204-4.436s-13.56-.16-22.372-.56c-8.815-.4-21.456-1.518-21.456-1.518s3.34-4.977 12.233-6.775c8.892-1.8 23.142-.82 24.417-1.02 1.277-.2 21.735-29.138 21.735-29.138s-12.642.519-11.765-1.64c1.95-4.798 12.881-3.717 14.516-3.876 1.634-.161 6.74-7.675 12.723-14.71 5.982-7.035 22.333-25.222 23.17-36.973.837-11.752-5.145-18.167-6.462-18.558zm-44.627 64.004c-10.05 11.91-33.1 34.934-33.1 34.934s15.393-21.024 26.88-34.535c11.486-13.51 34.615-38.932 34.615-38.932s-18.344 26.621-28.395 38.533z" fill-rule="nonzero"/></g></svg>