<svg width="235" height="235" viewBox="0 0 235 235" xmlns="http://www.w3.org/2000/svg"><g transform="translate(5 5)" fill="none" fill-rule="evenodd"><circle fill="#FFF" cx="112.5" cy="112.5" r="112.5"/><path d="M31.173 190.229C51.656 211.654 80.518 225 112.502 225c31.98 0 60.842-13.346 81.326-34.771H31.173z" fill="#FD0105" fill-rule="nonzero"/><path d="M83.283 172.04v-15.045H68.014v-16.166h15.27V51.906h86.228v23.803h-62.2v26.946h46.256v16.167h-46.257v22.008h15.046v16.166h-15.046v15.045H207.96c10.796-17.267 17.04-37.675 17.04-59.539C225 50.367 174.633 0 112.501 0S0 50.367 0 112.501c0 21.865 6.246 42.272 17.04 59.539h66.243z" fill="#0735CF"/></g></svg>