<svg width="235" height="235" viewBox="0 0 235 235" xmlns="http://www.w3.org/2000/svg"><g transform="translate(5 5)" fill="none" fill-rule="evenodd"><circle fill="#2D475B" cx="112.5" cy="112.5" r="112.5"/><path d="M126.488 35.764c16.485 2.548 30.595 9.188 41.429 19.524l2.88 2.727-7.343 7.286-7.343 7.322-3.024-2.44C135.953 56.4 114.933 52.236 95.28 58.732c-19.69 6.532-34.05 23.005-37.759 43.427-.9 4.881-.9 15.79-.036 20.529 4.32 23.113 21.237 40.305 44.67 45.4 3.131.682 4.714.79 11.374.79 6.983 0 8.17-.108 12.238-.97 8.422-1.758 17.24-5.312 23.252-9.331l2.844-1.937.108-9.009.071-9.044h-64.79v-19.381H174l-.072 24.98-.109 24.979-5.363 3.374c-16.197 10.085-28.939 14.966-43.948 16.868-6.298.79-17.025.79-22.677 0-36.75-5.096-63.566-32.157-67.452-68.119-.577-5.024-.468-13.782.143-18.95 4.247-34.346 29.84-60.617 64.682-66.36 6.335-1.04 6.48-1.04 15.405-.933 5.112.072 9.503.358 11.88.717v.001zM173.64 96.06v9.51H87.254V86.548h86.386v9.51z" fill="#FFF"/></g></svg>