<svg width="235" height="235" viewBox="0 0 235 235" xmlns="http://www.w3.org/2000/svg"><g fill="#00A6C4"><path d="M153.057 95.176l.812 1.335a43.317 43.317 0 0 1 6.197 22.324c-.074 23.66-19.18 42.868-42.714 42.868h-.073c-23.533 0-42.713-19.357-42.64-43.016 0-7.936 2.213-15.65 6.27-22.324l.739-1.261 3.91 3.93c-.738 1.113-1.402 2.3-1.845 3.635-3.098 8.529 1.328 17.948 9.885 21.063a16.49 16.49 0 0 0 14.68-1.854l9.074 9.197 10.402-10.458c.96.668 2.066 1.187 3.246 1.632 8.336 2.966 17.484-1.41 20.434-9.716 1.77-4.895.96-10.013-1.623-14.092l3.246-3.263zm-62.705 8.677l12.246 12.238a8.415 8.415 0 0 1-5.311 1.854c-4.795 0-8.705-3.93-8.705-8.752 0-2.002.664-3.856 1.77-5.34zm42.714 11.496l12.098-12.163c.959 1.409 1.475 3.115 1.475 4.895 0 4.82-3.91 8.751-8.705 8.751-1.844 0-3.467-.519-4.868-1.483z"/><path d="M117.5 124.546l-35.262-35.6 1.401-1.483C92.344 78.192 104.221 73 116.984 73h.073c12.91 0 25.304 5.563 33.935 15.204l1.328 1.484-34.82 34.858zm-29.508-35.6l29.508 29.74 29.14-29.147c-7.82-7.862-18.443-12.386-29.509-12.386h-.074c-10.991 0-21.246 4.154-29.065 11.793zm-9.369 58.517l-4.131-.296c-17.558-1.113-41.754-5.489-57.394-19.655-9.664-8.677-11.508-16.91-11.582-17.28L5 107.71h63.885l-.369 2.373a48.507 48.507 0 0 0-.442 6.527c0 9.79 2.803 19.283 8.188 27.367l2.361 3.486zm77.311 0l2.287-3.486c5.386-8.084 8.189-17.503 8.189-27.219 0-2.225-.148-4.524-.443-6.675l-.295-2.373h63.885l-.516 2.522c-.074.37-1.918 8.603-11.508 17.28-15.64 14.166-39.91 18.542-57.467 19.655l-4.132.296z"/></g></svg>