<svg width="235" height="235" viewBox="0 0 235 235" xmlns="http://www.w3.org/2000/svg" xmlns:xlink="http://www.w3.org/1999/xlink"><defs><path d="M113 18c-52.443 0-95 42.557-95 95s42.557 95 95 95 95-42.557 95-95-42.557-95-95-95z" id="a"/><filter x="-2.1%" y="-2.1%" width="104.2%" height="104.2%" filterUnits="objectBoundingBox" id="b"><feMorphology radius="5" in="SourceAlpha" result="shadowSpreadInner1"/><feGaussianBlur stdDeviation="1.5" in="shadowSpreadInner1" result="shadowBlurInner1"/><feOffset in="shadowBlurInner1" result="shadowOffsetInner1"/><feComposite in="shadowOffsetInner1" in2="SourceAlpha" operator="arithmetic" k2="-1" k3="1" result="shadowInnerInner1"/><feColorMatrix values="0 0 0 0 0.835294118 0 0 0 0 0.674509804 0 0 0 0 0.11372549 0 0 0 1 0" in="shadowInnerInner1"/></filter><path d="M172.17 125.584c0 8.821-11.895 47.676-57.192 47.676-26.366 0-48.767-16.652-57.39-39.945H45.1c-1.982 0-3.667-1.685-3.667-3.667v-3.073c0-1.982 1.685-3.668 3.667-3.668h9.714a62 62 0 0 1-.892-12.191c.099-2.18.198-4.46.495-6.542H45.1c-1.982 0-3.667-1.685-3.667-3.667v-3.073c0-1.982 1.685-3.667 3.667-3.667h11.597c7.83-24.384 30.628-42.225 57.29-42.622 19.329-.297 36.675 8.425 48.073 22.203.793.991.793 2.478-.099 3.37l-10.01 10.606c-1.388 1.487-3.866 1.387-5.155-.298-7.434-9.416-18.932-15.462-31.916-15.462-15.76 0-29.438 9.02-36.179 22.103h9.813c1.983 0 3.668 1.685 3.668 3.668v3.072c0 1.983-1.685 3.668-3.668 3.668h-13.38a43.959 43.959 0 0 0-.794 9.614c.1 3.172.595 6.245 1.388 9.12h12.786c1.983 0 3.668 1.684 3.668 3.667v3.072c0 1.983-1.685 3.668-3.668 3.668h-8.227c6.939 11.2 19.13 18.932 33.007 19.427 16.95.694 30.727-9.119 36.773-23.491h-23.095c-1.982 0-3.667-1.685-3.667-3.667v-12.886c0-1.982 1.685-3.667 3.667-3.667h41.531c1.983 0 3.668 1.685 3.668 3.667v12.985z" id="d"/><filter x="-4.6%" y="-4.9%" width="109.2%" height="109.8%" filterUnits="objectBoundingBox" id="c"><feMorphology radius="1" operator="dilate" in="SourceAlpha" result="shadowSpreadOuter1"/><feOffset in="shadowSpreadOuter1" result="shadowOffsetOuter1"/><feGaussianBlur stdDeviation="1" in="shadowOffsetOuter1" result="shadowBlurOuter1"/><feColorMatrix values="0 0 0 0 0.689273417 0 0 0 0 0.579443216 0 0 0 0 0.306329876 0 0 0 1 0" in="shadowBlurOuter1"/></filter></defs><g fill="none" fill-rule="evenodd"><path d="M117.5 5C55.397 5 5 55.397 5 117.5S55.397 230 117.5 230 230 179.603 230 117.5 179.603 5 117.5 5z" fill="#785B0E" fill-rule="nonzero"/><path d="M118 8C57.277 8 8 57.277 8 118s49.277 110 110 110 110-49.277 110-110S178.723 8 118 8z" fill="#FFEE81" fill-rule="nonzero"/><g fill-rule="nonzero" transform="translate(5 5)"><use fill="#F5C823" fill-rule="evenodd" xlink:href="#a"/><use fill="#000" filter="url(#b)" xlink:href="#a"/></g><g transform="translate(5 5)"><use fill="#000" filter="url(#c)" xlink:href="#d"/><use fill="#FFF" xlink:href="#d"/></g></g></svg>