<svg width="235" height="235" viewBox="0 0 235 235" xmlns="http://www.w3.org/2000/svg"><path d="M154.122 65.206c0-10.685-3.69-20.506-9.833-28.222L169 12.292 161.703 5l-24.726 24.707c-7.451-5.876-16.786-9.385-26.916-9.385C85.766 20.322 66 40.457 66 65.206c0 22.97 17.03 41.953 38.901 44.566v30.778C83.03 143.162 66 162.146 66 185.116 66 209.866 85.766 230 110.06 230c24.296 0 44.062-20.135 44.062-44.884 0-22.97-17.03-41.953-38.901-44.566v-30.778c21.871-2.612 38.9-21.596 38.9-44.566zm-77.803 0c0-19.063 15.137-34.572 33.742-34.572 18.605 0 33.741 15.509 33.741 34.572 0 19.063-15.136 34.572-33.741 34.572S76.319 84.27 76.319 65.206zm67.483 119.91c0 19.063-15.136 34.572-33.741 34.572s-33.742-15.51-33.742-34.573c0-19.063 15.137-34.572 33.742-34.572 18.605 0 33.741 15.509 33.741 34.572z" fill="#001D57"/></svg>