<svg width="235" height="235" viewBox="0 0 235 235" xmlns="http://www.w3.org/2000/svg"><defs><linearGradient x1=".019%" y1="49.99%" x2="100.113%" y2="49.99%" id="a"><stop stop-color="#FF3F3F" offset="0%"/><stop stop-color="#EB0000" offset="100%"/></linearGradient><linearGradient x1="-.063%" y1="49.928%" x2="99.956%" y2="49.928%" id="b"><stop stop-color="#2482C5" offset="0%"/><stop stop-color="#285FAC" offset="100%"/></linearGradient></defs><g fill="none"><path d="M92.757 86.337c16.115-6.671 27.382-22.761 27.382-41.468C120.269 20.145 100.356 0 75.987 0 51.488 0 31.574 20.145 31.574 44.87c0 13.473 5.896 25.508 15.198 33.75l-23.32 15.566s46.77 4.055 69.305-7.849z" fill="url(#a)" transform="translate(14 5)"/><path d="M187.48 135.392c-22.273-7.98-53.323 7.457-53.323 7.457s23.975-32.05 23.451-79.404c-.262-34.666-12.577-45.916-22.01-54.288.786 4.71 1.18 9.55 1.18 14.39 0 50.232-31.182 83.982-81.36 83.982-20.83 0-39.959-.13-55.287-11.773.262.785 2.49 10.334 11.398 20.276 3.93 4.448 9.302 8.895 16.246 12.689 22.534 12.166 39.828 13.605 41.53 13.735.132.131.132.393.263.524 0 24.985-17.556 60.697-42.448 60.697-3.8 0-7.468-.523-11.005-1.308C6.42 200.407.393 195.436.393 195.436s3.406 26.032 31.443 28.648c30.788 2.878 44.937-3.793 75.463-22.369 32.623-19.884 57.384-40.945 76.38-35.712 14.412 3.924 16.77 26.817 16.77 26.817s4.324-9.026 5.634-17.006c1.31-8.372 3.668-32.442-18.604-40.422z" fill="url(#b)" transform="translate(14 5)"/><path d="M88.94 19.52c9.301 0 17.686 4.186 23.32 10.727l3.537-3.009c-6.55-7.456-16.246-12.296-26.858-12.296-7.467 0-14.411 2.355-20.176 6.279l2.62 3.794c4.979-3.402 11.006-5.495 17.556-5.495z" fill="#FFF"/></g></svg>