<svg width="235" height="235" viewBox="0 0 235 235" xmlns="http://www.w3.org/2000/svg" xmlns:xlink="http://www.w3.org/1999/xlink"><defs><path d="M97.362 225L.084 168.75V56.25L97.362 0l97.278 56.25v112.5L97.362 225zm-92.58-58.967l92.58 53.532 92.58-53.532V58.967L97.361 5.435 4.782 58.967v107.066z" id="a"/><linearGradient x1="50%" y1="0%" x2="50%" y2="100%" id="b"><stop stop-color="#7F00F6" offset="0%"/><stop stop-color="#41007F" offset="100%"/></linearGradient><path d="M127.671 24.342c-5.575 4.671-11.696 8.892-18.035 12.8-5.977 3.684-12.116 7.118-18.09 10.455a876.146 876.146 0 0 0-5.416 3.048C58.866 66.133 41.326 78.71 41.326 99.901c0 17.904 12.583 29.57 32.977 42.047a328.602 328.602 0 0 0 7.296 4.32c-.898.503-1.78 1-2.699 1.51-6.113 3.39-12.435 6.897-18.694 10.748-.62.382-1.24.769-1.861 1.159a163.604 163.604 0 0 1-6.513-4.444c-17.953-12.987-32.135-29.667-32.135-55.34 0-30.637 20.19-48.6 42.927-62.76 6.346-3.951 12.89-7.607 19.249-11.16 1.446-.807 2.86-1.603 4.257-2.392 7.302-4.13 13.852-8.034 19.61-11.929L86.13.32 66.512 11.665a196.261 196.261 0 0 0 7.813 5.028 354.72 354.72 0 0 0 7.286 4.312c-.629.353-1.243.701-1.883 1.059-6.386 3.567-12.989 7.255-19.43 11.266-.624.389-1.23.775-1.837 1.162-2.208-1.432-4.392-2.89-6.515-4.412a122.033 122.033 0 0 1-7.363-5.735L.024 50.11v99.58l44.293 25.612c5.612-4.742 11.79-9.01 18.194-12.951 6.115-3.762 12.404-7.254 18.521-10.648a860.81 860.81 0 0 0 5.098-2.85c13.047-7.353 23.866-14.042 31.604-21.334H71.356l13.904-24.166h67.212c-.469 9.156-2.805 17.119-6.47 24.166-7.745 14.893-21.455 25.678-36.254 34.832-6.297 3.895-12.788 7.497-19.096 10.996a907.93 907.93 0 0 0-4.522 2.526c-7.43 4.179-14.083 8.132-19.912 12.093l19.911 11.513 19.918-11.517a189.082 189.082 0 0 0-8.064-5.194 342.793 342.793 0 0 0-7.315-4.313c.706-.394 1.397-.783 2.117-1.182 6.331-3.513 12.878-7.145 19.277-11.103.611-.378 1.235-.77 1.858-1.164a165.223 165.223 0 0 1 6.484 4.393 120.1 120.1 0 0 1 7.54 5.901l44.29-25.61V50.11l-44.563-25.768zm-29.79 33.224a330.445 330.445 0 0 0-7.249-4.33c1.016-.572 2.016-1.138 3.057-1.72 5.677-3.171 12.112-6.765 18.255-10.552.614-.378 1.229-.762 1.843-1.148a164.844 164.844 0 0 1 6.492 4.455c15.926 11.583 28.889 26.044 31.698 47h-22.118c-3.435-13.342-15.006-23.24-31.979-33.705z" id="d"/></defs><g fill="none" fill-rule="evenodd"><path fill="#FFF" d="M21.182 61.885l96.18-55.616 96.18 55.616v111.23l-96.18 55.616-96.18-55.616V61.885"/><g transform="translate(20 5)"><mask id="c" fill="#fff"><use xlink:href="#a"/></mask><use fill="#F00" xlink:href="#a"/><path d="M97.362 225L.084 168.75V56.25L97.362 0l97.278 56.25v112.5L97.362 225zm-92.58-58.967l92.58 53.532 92.58-53.532V58.967L97.361 5.435 4.782 58.967v107.066z" fill="url(#b)" mask="url(#c)"/></g><g transform="translate(31.233 17.6)"><mask id="e" fill="#fff"><use xlink:href="#d"/></mask><use fill="#F00" xlink:href="#d"/><path d="M127.671 24.342c-5.575 4.671-11.696 8.892-18.035 12.8-5.977 3.684-12.116 7.118-18.09 10.455a876.146 876.146 0 0 0-5.416 3.048C58.866 66.133 41.326 78.71 41.326 99.901c0 17.904 12.583 29.57 32.977 42.047a328.602 328.602 0 0 0 7.296 4.32c-.898.503-1.78 1-2.699 1.51-6.113 3.39-12.435 6.897-18.694 10.748-.62.382-1.24.769-1.861 1.159a163.604 163.604 0 0 1-6.513-4.444c-17.953-12.987-32.135-29.667-32.135-55.34 0-30.637 20.19-48.6 42.927-62.76 6.346-3.951 12.89-7.607 19.249-11.16 1.446-.807 2.86-1.603 4.257-2.392 7.302-4.13 13.852-8.034 19.61-11.929L86.13.32 66.512 11.665a196.261 196.261 0 0 0 7.813 5.028 354.72 354.72 0 0 0 7.286 4.312c-.629.353-1.243.701-1.883 1.059-6.386 3.567-12.989 7.255-19.43 11.266-.624.389-1.23.775-1.837 1.162-2.208-1.432-4.392-2.89-6.515-4.412a122.033 122.033 0 0 1-7.363-5.735L.024 50.11v99.58l44.293 25.612c5.612-4.742 11.79-9.01 18.194-12.951 6.115-3.762 12.404-7.254 18.521-10.648a860.81 860.81 0 0 0 5.098-2.85c13.047-7.353 23.866-14.042 31.604-21.334H71.356l13.904-24.166h67.212c-.469 9.156-2.805 17.119-6.47 24.166-7.745 14.893-21.455 25.678-36.254 34.832-6.297 3.895-12.788 7.497-19.096 10.996a907.93 907.93 0 0 0-4.522 2.526c-7.43 4.179-14.083 8.132-19.912 12.093l19.911 11.513 19.918-11.517a189.082 189.082 0 0 0-8.064-5.194 342.793 342.793 0 0 0-7.315-4.313c.706-.394 1.397-.783 2.117-1.182 6.331-3.513 12.878-7.145 19.277-11.103.611-.378 1.235-.77 1.858-1.164a165.223 165.223 0 0 1 6.484 4.393 120.1 120.1 0 0 1 7.54 5.901l44.29-25.61V50.11l-44.563-25.768zm2.188 66.928c-3.435-13.34-15.006-23.238-31.979-33.704a330.445 330.445 0 0 0-7.248-4.33c1.016-.572 2.016-1.138 3.057-1.72 5.677-3.171 12.112-6.765 18.255-10.552.614-.378 1.229-.762 1.843-1.148a164.844 164.844 0 0 1 6.492 4.455c15.926 11.583 28.889 26.044 31.698 47h-22.118z" fill="url(#b)" mask="url(#e)"/></g></g></svg>