<svg width="235" height="235" viewBox="0 0 235 235" xmlns="http://www.w3.org/2000/svg"><g fill="#0095B5"><path d="M118.69 153.48c6.64 0 12.191-2.478 16.453-7.533 4.262-5.055 6.443-12.885 6.443-23.59 0-13.976-3.073-24.879-9.119-32.809-4.46-5.848-10.21-8.722-17.247-8.722-6.542 0-11.993 2.577-16.354 7.731-4.362 5.154-6.641 13.183-6.641 23.888 0 13.877 2.973 24.68 8.92 32.313 4.659 5.848 10.507 8.722 17.544 8.722zm45.099 51.84c-4.56-1.983-13.58-3.073-27.159-3.47-19.824-.495-34.989-1.586-45.595-3.072-4.163 4.46-7.235 8.623-9.317 12.489-2.081 3.865-3.172 7.433-3.172 10.704v.595l.1.297a112.053 112.053 0 0 0 38.854 6.939c19.13 0 37.17-4.758 53.029-13.282v-.198c0-.397.099-.892.099-1.289-.198-4.56-2.38-7.83-6.84-9.714z"/><path d="M117.4 5C55.353 5 5 55.352 5 117.4c0 43.613 24.78 81.378 61.156 100.012l.397-.595c1.09-1.487 2.28-3.073 3.667-4.857.595-.793 5.055-5.55 13.48-14.273-4.559-2.676-7.83-5.154-9.713-7.335-1.883-2.18-2.875-4.559-2.875-7.334 0-3.073 1.289-6.641 3.767-10.804 2.478-4.163 8.326-10.011 17.346-17.544-7.335-3.569-13.084-8.624-17.049-15.066-3.965-6.443-5.947-13.58-5.947-21.41 0-11.994 4.46-22.203 13.48-30.826 9.02-8.624 20.518-12.886 34.593-12.886 11.2 0 21.013 2.677 29.339 8.029 7.434-7.335 12.985-13.48 16.652-18.535 4.857-6.84 7.236-13.084 7.236-18.734 0-4.36-1.289-7.83-3.965-10.705-2.676-2.775-5.848-4.163-9.516-4.163-3.37 0-6.343.992-9.02 2.974-2.676 1.982-4.658 4.857-5.947 8.623h-1.883c.793-6.244 2.974-11.002 6.443-14.273 3.47-3.27 7.83-4.956 12.985-4.956 5.55 0 10.11 1.784 13.876 5.353 3.668 3.568 5.55 7.731 5.55 12.588 0 3.469-.792 6.938-2.378 10.407-2.478 5.452-6.542 11.2-12.093 17.247-8.325 9.119-13.579 14.57-15.66 16.454h17.841c3.668 0 6.145-.1 7.632-.397 1.487-.297 2.776-.793 3.965-1.586 1.19-.793 2.18-1.982 3.073-3.469h1.883l-6.641 17.148h-18.535c4.262 6.145 6.343 13.678 6.343 22.797 0 11.3-4.262 20.914-12.885 28.844-8.623 8.028-20.22 11.993-34.692 11.993-5.947 0-12.092-.892-18.337-2.676-3.865 3.37-6.442 6.244-7.83 8.722-1.388 2.478-2.082 4.659-2.082 6.443 0 1.487.694 2.974 2.181 4.361 1.487 1.388 4.262 2.38 8.524 3.073 2.478.397 8.624.694 18.436.892 18.14.397 29.835 1.09 35.188 1.883 8.127 1.19 14.67 4.163 19.625 9.12 4.857 4.955 7.335 11.002 7.335 18.237v.793c29.934-20.22 49.659-54.416 49.659-93.27C229.802 55.351 179.449 5 117.4 5z"/></g></svg>