<svg width="235" height="235" viewBox="0 0 235 235" xmlns="http://www.w3.org/2000/svg"><defs><linearGradient x1="50%" y1="0%" x2="50%" y2="100%" id="a"><stop stop-color="#29B0FC" offset="0%"/><stop stop-color="#217ADC" offset="100%"/></linearGradient></defs><path d="M117.5 105.341v24.173h87.197c-5.858 42.926-42.664 76.003-87.197 76.003-48.61 0-88.016-39.404-88.016-88.017 0-48.609 39.406-88.016 88.016-88.016 24.32 0 46.333 9.864 62.262 25.808l17.562-17.064C176.944 17.708 148.707 5 117.5 5 55.37 5 5 55.368 5 117.5 5 179.63 55.369 230 117.5 230S230 179.631 230 117.5c0-4.11-.226-8.166-.654-12.16H117.5v.001z" fill="url(#a)"/></svg>