<svg width="235" height="235" viewBox="0 0 235 235" xmlns="http://www.w3.org/2000/svg"><g fill="#56428E"><path d="M65.32 30.677c-.1.076-.177 1.568-.177 3.288 0 2.277.076 3.162.329 3.238.152.05.784.228 1.365.38 1.34.328 2.958 1.922 3.666 3.54.96 2.201 1.44 5.439 1.618 10.903.1 2.858.1 5.488 0 5.868l-.152.683-16.584.05-16.56.076-.732.886c-.405.48-.759.986-.759 1.087 0 .203-4.904 8.803-5.562 9.79-.151.201-.43.707-.657 1.137a18.942 18.942 0 0 1-.86 1.518 25.147 25.147 0 0 0-1.061 1.77 32.85 32.85 0 0 1-.885 1.518c-.177.279-.43.784-.581 1.113-.152.33-.607 1.113-1.012 1.72-.43.607-.758 1.164-.758 1.24 0 .076-.986 1.796-2.174 3.844-1.214 2.05-2.276 3.946-2.402 4.225-.126.278-.43.809-.683 1.188a41.179 41.179 0 0 0-1.137 1.898c-.38.657-.81 1.39-.936 1.593-.151.202-.43.708-.632 1.138a19.488 19.488 0 0 1-.884 1.518 29.755 29.755 0 0 0-.885 1.518 19.488 19.488 0 0 1-.885 1.517c-.278.405-.582.936-.683 1.139-.177.404-5.233 9.207-5.663 9.864-.126.203-.379.658-.556 1.012a23.588 23.588 0 0 1-.96 1.644c-2.276 3.567-2.958 5.514-2.124 6.197.202.177.38.43.38.557 0 .177 4.474 8.069 5.56 9.814.127.202.43.708.633 1.138.202.405.607 1.088.885 1.518.278.405.581.936.682 1.138.152.38 6.953 12.167 7.408 12.9.151.203.354.607.48.91.126.28.53.962.91 1.519.38.53.784 1.214.936 1.492.126.278.505.961.834 1.518.354.556.708 1.188.809 1.39.076.203 1.491 2.657 3.11 5.44 1.617 2.807 3.033 5.235 3.134 5.437.101.203.455.835.784 1.392.354.556.733 1.29.885 1.618.151.33.606 1.113 1.01 1.72.43.608.76 1.164.76 1.24 0 .303 3.64 6.323 3.994 6.602.303.253 3.716.329 15.118.329 8.09 0 14.89-.076 15.118-.152.354-.127.404-1.417.404-11.712 0-8.65-.076-11.635-.303-11.863-.202-.202-1.618-.303-4.753-.303-4.753 0-5.284-.127-5.84-1.366a16.054 16.054 0 0 0-.86-1.543 33.439 33.439 0 0 1-.783-1.391c-.101-.203-1.365-2.403-2.806-4.857-1.416-2.453-2.604-4.527-2.604-4.603 0-.076-.329-.633-.759-1.24-.404-.607-.86-1.39-1.01-1.72a11.18 11.18 0 0 0-.76-1.366 18.942 18.942 0 0 1-.859-1.517c-.227-.43-.505-.936-.657-1.139-.506-.758-5.562-9.586-5.562-9.713 0-.075-.329-.607-.733-1.214a28.42 28.42 0 0 1-1.29-2.15l-.556-1.062.86-1.467c.48-.81.935-1.644 1.036-1.847.102-.202.43-.809.759-1.315.303-.531.885-1.543 1.29-2.276a30.797 30.797 0 0 1 1.44-2.429c.405-.607.733-1.138.733-1.214 0-.101 3.666-6.526 4.55-7.942.683-1.138 2.478-4.224 2.605-4.553.101-.203.404-.734.682-1.138.279-.43.683-1.113.91-1.518 1.922-3.693 4.98-8.752 5.436-8.98.278-.177 15.32-.227 40.601-.202l40.146.076v22.765h-38.174l-.076-9.916-.05-9.915-.835-.152c-.43-.076-7.053-.1-14.713-.076l-13.905.076-.151 51.095c-.127 50.412-.152 51.12-.658 52.865-.733 2.504-1.466 3.946-2.604 5.084-1.896 1.923-3.033 2.48-5.991 2.985-2.655.48-2.63.455-2.554 3.92l.076 2.935h52.837l.076-2.858c.025-1.569-.05-3.036-.177-3.314-.202-.354-.682-.506-2.149-.658-1.44-.126-2.325-.38-3.615-1.037-2.073-1.062-2.35-1.315-3.514-3.06-1.719-2.606-1.921-3.542-2.048-10.27-.1-4.528-.05-6.096.177-6.374.278-.329 6.573-.38 50.941-.38h50.638l1.542-2.731c.86-1.493 1.669-2.884 1.795-3.086a6.01 6.01 0 0 0 .556-1.012 5.47 5.47 0 0 1 .607-.936c.177-.177.556-.81.86-1.391a41.67 41.67 0 0 1 1.162-2.1c.33-.556.708-1.239.835-1.542.126-.279.581-1.037 1.011-1.67.43-.632.784-1.214.784-1.29 0-.126 5.081-9.055 5.562-9.789.151-.202.43-.733.657-1.138.202-.43.581-1.113.86-1.518.252-.43.733-1.264 1.036-1.871.303-.608 1.466-2.024 2.604-3.188 1.997-2.048 3.312-2.883 5.208-3.288.505-.101.86-.38 1.036-.81.354-.935.278-5.21-.076-5.716-.303-.404-1.693-.43-19.542-.38l-19.213.077-.152 3.035c-.152 3.39.076 2.808-3.362 8.701-.91 1.569-1.669 2.934-1.669 3.01 0 .076-.404.734-.885 1.467-.48.734-.885 1.417-.885 1.543 0 .127-.328.532-.707.91l-.708.684h-12.236l-.127-.582c-.075-.303-.1-24.181-.05-53.042.101-57.545.025-54.459 1.567-57.747.885-1.872 2.579-3.364 4.07-3.592.936-.127 1.062-.253 1.214-.936.227-1.214.177-4.654-.101-5.362l-.253-.658h-21.185c-16.13 0-21.262.076-21.49.304-.201.202-.303 1.264-.303 3.136 0 2.656.026 2.884.557 3.238.303.227.783.404 1.036.404.86 0 3.21 1.898 3.21 2.606 0 .152.153.455.355.657.202.228.48.936.632 1.594.152.683.404 1.695.53 2.276.152.633.228 3.719.203 7.412l-.076 6.323-19.011.076-19.037.05-.151-.657c-.101-.354-.101-3.465-.026-6.88.127-5.236.228-6.526.632-7.892.531-1.67 1.29-3.339 1.871-4.047.506-.607 1.997-1.442 2.933-1.644.455-.101.935-.38 1.062-.632.151-.253.252-1.62.252-3.01 0-1.948-.1-2.606-.404-2.91-.354-.353-2.655-.404-21.565-.404-11.654 0-21.26.076-21.337.177zm74.908 109.955c0 6.045-.076 11.155-.152 11.382-.152.354-2.048.405-18.91.405-14.259 0-18.835-.076-19.062-.304-.228-.227-.303-3.01-.303-10.977 0-5.869.075-10.852.151-11.08.152-.353 2.073-.404 19.214-.404h19.062v10.978z"/><path d="M173.346 59.083c-.48.48-.506.834-.506 11.584 0 10.447.025 11.13.455 11.51.404.379 1.138.43 4.904.43 4.248 0 4.425.025 4.93.556.48.556 3.363 5.337 3.363 5.615 0 .076.328.633.758 1.24.404.607.86 1.39 1.011 1.72.152.329.48.936.759 1.366 1.44 2.225 1.592 2.706 1.744 5.817l.152 3.036 19.213.075c17.849.051 19.239.026 19.542-.379.38-.506.43-5.185.05-5.868-.125-.253-.631-.557-1.137-.633-1.567-.303-3.488-1.467-5.056-3.035-1.112-1.113-2.2-2.706-3.944-5.716-1.34-2.302-2.503-4.351-2.578-4.553a12.044 12.044 0 0 0-.683-1.139 19.488 19.488 0 0 1-.885-1.517 12.47 12.47 0 0 0-.632-1.139c-.91-1.467-6.32-10.952-6.32-11.104 0-.101-.126-.303-.303-.48-.304-.304-1.517-2.378-2.352-3.972a13.16 13.16 0 0 0-.884-1.517c-.278-.43-.632-1.012-.784-1.316-.177-.303-.632-.683-1.062-.834-.505-.152-5.713-.253-14.991-.253-13.93 0-14.259 0-14.764.506zm-32.36 120.123l-.632.177-.152 5.033c-.151 5.186-.278 5.97-1.466 8.297-1.39 2.732-4.197 4.502-7.584 4.856-2.453.253-2.604.456-2.503 4.073l.076 2.757 26.039.076c14.334.025 26.292 0 26.62-.076.532-.127.557-.253.557-2.909 0-3.44-.152-3.642-2.68-3.92-.96-.077-1.972-.304-2.25-.481a5.094 5.094 0 0 0-1.188-.506c-.986-.228-3.54-2.808-4.222-4.275-.935-1.948-1.264-3.845-1.44-8.398-.102-2.377-.279-4.451-.43-4.628-.178-.228-3.312-.304-14.183-.279-7.66.026-14.208.101-14.562.203z"/></g></svg>