<svg width="235" height="235" viewBox="0 0 235 235" xmlns="http://www.w3.org/2000/svg"><g fill="none" fill-rule="evenodd"><path d="M5 117.501c0 49.21 31.6 91.036 75.616 106.305v-43.28c-21.62-12.68-36.148-36.15-36.148-63.025 0-26.877 14.527-50.346 36.148-63.027V11.193C36.6 26.463 5 68.288 5 117.5zM154.385 11.193v43.281c21.62 12.681 36.15 36.15 36.15 63.027 0 26.876-14.53 50.344-36.15 63.025v43.28C198.4 208.537 230 166.712 230 117.501c0-49.213-31.6-91.037-75.615-106.308z" fill="#2FA3DC" fill-rule="nonzero"/><path d="M93.156 82.737s9.406-5.72 24.344-5.72c14.937 0 24.344 5.72 24.344 5.72V227.35A112.832 112.832 0 0 1 117.5 230a112.82 112.82 0 0 1-24.344-2.65V82.737zm0-75.087A112.882 112.882 0 0 1 117.5 5a112.91 112.91 0 0 1 24.344 2.65v40.99a72.846 72.846 0 0 0-24.344-4.173 72.849 72.849 0 0 0-24.344 4.174V7.65z" fill="#82CAEF"/></g></svg>