<svg width="235" height="235" viewBox="0 0 235 235" xmlns="http://www.w3.org/2000/svg"><path d="M199.278 145.475l.004.015v-.015h-.004zM97.53 124.062v.014l.002-.012-.002-.002zm-36.81 36.4v.008-.008zm19.152-14.705v-.008.008zm96.389-8.601v.008-.008zm-37.15-71.07c1.036 1.417 3.007 2.07 4.788 1.569a4.52 4.52 0 0 0 1.255-.572c1.943-1.302 2.425-3.864 1.068-5.704-.801-1.096-2.149-1.752-3.606-1.752a4.39 4.39 0 0 0-2.44.717c-1.96 1.3-2.439 3.876-1.065 5.742zm-11.086-10.28a4.543 4.543 0 0 0 1.652 3.268 5.22 5.22 0 0 0 4.805 1.056 5.061 5.061 0 0 0 2.326-1.403c.904-.953 1.358-2.173 1.287-3.45a4.684 4.684 0 0 0-1.67-3.305c-.879-.749-2.06-1.163-3.326-1.163-1.48 0-2.86.563-3.781 1.546a4.56 4.56 0 0 0-1.293 3.45zm-11.078-2.364a6.16 6.16 0 0 0 4.508.471 5.71 5.71 0 0 0 3.46-2.64 5.274 5.274 0 0 0 .519-4.229 5.554 5.554 0 0 0-2.795-3.331 5.919 5.919 0 0 0-2.717-.641c-2.197 0-4.268 1.106-5.271 2.818-1.542 2.679-.515 6.07 2.296 7.552zm-16.152-3.247a7.33 7.33 0 0 0 3.76-.034c2.271-.637 4.016-2.3 4.666-4.448a6.184 6.184 0 0 0-.603-4.934 6.767 6.767 0 0 0-5.836-3.319c-3.061 0-5.896 1.977-6.733 4.703-1.005 3.418 1.121 7.024 4.746 8.032zm-19.537.267a8.359 8.359 0 0 0 2.68-.3c3.244-.91 5.538-3.667 5.706-6.863a7.298 7.298 0 0 0-2.067-5.496 8.017 8.017 0 0 0-5.482-2.46l-.393-.01c-4.185 0-7.776 3.23-8.01 7.2-.21 4.164 3.186 7.725 7.566 7.929zm-33.087-1.929c.792 4.234 4.664 7.304 9.2 7.306.891 0 1.779-.12 2.638-.357 4.553-1.277 7.37-5.586 6.548-10.03-.81-4.22-4.676-7.291-9.195-7.291-.543 0-1.086.046-1.621.137-5.062.898-8.462 5.489-7.57 10.235zm92.536 33.256a4.585 4.585 0 0 0 1.278-3.453 4.606 4.606 0 0 0-1.67-3.285c-.89-.767-2.075-1.188-3.347-1.188-1.468 0-2.83.557-3.735 1.525a4.62 4.62 0 0 0 .347 6.75 5.256 5.256 0 0 0 4.824 1.031 5.026 5.026 0 0 0 2.303-1.382v.002zm-11.379-11.693a5.653 5.653 0 0 0-2.815-3.342 5.93 5.93 0 0 0-2.721-.647c-2.2 0-4.219 1.09-5.268 2.845-1.527 2.694-.484 6.089 2.338 7.548 1.38.72 2.983.887 4.481.467 1.498-.42 2.726-1.359 3.45-2.648a5.232 5.232 0 0 0 .535-4.223zm-16.214-1.348a6.23 6.23 0 0 0-.617-4.936 6.746 6.746 0 0 0-4.09-3.068 6.659 6.659 0 0 0-1.751-.232c-3.064 0-5.884 1.971-6.7 4.686-1.034 3.435 1.073 7.03 4.696 8.02a7.273 7.273 0 0 0 3.81-.022c2.252-.63 3.991-2.294 4.652-4.448zm-19.582-2.404a7.267 7.267 0 0 0-2.05-5.474 8.049 8.049 0 0 0-5.493-2.469 7.954 7.954 0 0 0-.414-.01c-4.107 0-7.76 3.285-7.978 7.171-.225 4.164 3.167 7.727 7.562 7.946a8.325 8.325 0 0 0 2.683-.295c3.217-.904 5.507-3.664 5.69-6.869zM61.23 61.198c-.538 0-1.079.046-1.61.135-5.054.828-8.444 5.426-7.567 10.248.436 2.33 1.802 4.362 3.848 5.714a9.687 9.687 0 0 0 6.97 1.451c.363-.06.704-.138 1.046-.231 4.53-1.27 7.337-5.577 6.527-10.02-.813-4.224-4.689-7.297-9.214-7.297zM24.48 84.877c1.715 3.832 5.645 6.31 10.009 6.31a11.318 11.318 0 0 0 4.298-.842c2.702-1.098 4.786-3.115 5.867-5.68a9.713 9.713 0 0 0-.097-7.879C42.842 72.96 38.9 70.49 34.515 70.49a11.38 11.38 0 0 0-4.262.826c-5.527 2.234-8.117 8.316-5.775 13.56zm112.943 7.335a5.908 5.908 0 0 0-2.746-.658c-2.196 0-4.244 1.104-5.224 2.812-1.566 2.688-.542 6.072 2.28 7.554a6.07 6.07 0 0 0 4.504.49 5.922 5.922 0 0 0 3.505-2.666c1.54-2.671.5-6.057-2.319-7.532zm-25.986 3.384a6.754 6.754 0 0 0 4.09 3.08 7.414 7.414 0 0 0 3.822-.022c2.27-.635 4.008-2.298 4.652-4.452 1.015-3.445-1.092-7.041-4.694-8.009a6.705 6.705 0 0 0-1.77-.235c-3.043 0-5.859 1.966-6.691 4.675a6.186 6.186 0 0 0 .59 4.963zm-6.992-3.815c.216-4.164-3.184-7.733-7.583-7.945l-.376-.009c-4.124 0-7.785 3.283-7.991 7.172-.236 4.166 3.154 7.74 7.553 7.964l.391.009c.778 0 1.546-.105 2.278-.312 3.232-.904 5.534-3.667 5.728-6.877v-.002zM72.149 104.34a9.876 9.876 0 0 0 2.628-.362c4.566-1.274 7.377-5.586 6.544-10.027-.799-4.24-4.664-7.317-9.191-7.317a9.73 9.73 0 0 0-1.623.135c-5.053.853-8.437 5.468-7.545 10.284.799 4.22 4.662 7.287 9.187 7.287zm-16.614 5.81a9.751 9.751 0 0 0-.074-7.915c-1.7-3.756-5.768-6.28-10.125-6.28-1.453 0-2.86.273-4.185.816-2.691 1.072-4.769 3.066-5.862 5.617a9.764 9.764 0 0 0 .082 7.95c1.722 3.827 5.66 6.297 10.032 6.297 1.467 0 2.92-.282 4.28-.831 2.683-1.077 4.762-3.085 5.852-5.653zM28.1 118.237c-2.403-3.123-6.27-4.99-10.35-4.99-1.22 0-2.43.168-3.6.496a13.047 13.047 0 0 0-3.91 1.834c-2.75 1.899-4.553 4.706-5.083 7.907a11.564 11.564 0 0 0 2.285 9.008c2.398 3.13 6.271 4.999 10.359 4.999 1.22 0 2.429-.166 3.598-.492a13.032 13.032 0 0 0 3.898-1.826c5.688-3.947 6.948-11.546 2.803-16.934v-.002zm137.406 42.44c-.19-2.107-2.094-3.76-4.332-3.76-.126 0-.252.006-.378.013-1.847.15-3.384 1.415-3.825 3.152a4.016 4.016 0 0 0-.105 1.323c.204 2.09 2.092 3.735 4.302 3.735a4.42 4.42 0 0 0 3.312-1.478c.759-.85 1.125-1.912 1.028-2.985h-.002zm3.05-4.572a4.56 4.56 0 0 0 .113 2.62c.839 2.449 3.743 3.866 6.359 3.06a4.963 4.963 0 0 0 2.868-2.405c.614-1.157.736-2.475.334-3.624a4.74 4.74 0 0 0-2.502-2.786 5.088 5.088 0 0 0-3.813-.28c-1.7.511-2.95 1.785-3.36 3.415zm12.187-7.59v.002c.368-1.46 1.323-2.692 2.681-3.47a6.097 6.097 0 0 1 2.996-.782c2.053 0 3.987 1.028 5.05 2.675 1.602 2.536.66 6.11-2.011 7.645a6.003 6.003 0 0 1-4.437.63 5.783 5.783 0 0 1-3.602-2.536 5.21 5.21 0 0 1-.677-4.164zm18.536-3.979v.942h-.002l-.128-.944c-1.83-.03-3.537-.728-4.805-1.968a6.255 6.255 0 0 1-1.73-6.057 6.43 6.43 0 0 1 1.85-3.104c1.297-1.174 3.003-1.82 4.803-1.82a7.002 7.002 0 0 1 4.901 1.935c2.524 2.503 2.452 6.802-.147 9.195a7.004 7.004 0 0 1-4.742 1.821zm18.097-19.064v-.002c-1.14 1.682-2.913 2.847-4.988 3.274a8.625 8.625 0 0 1-1.718.173 8.25 8.25 0 0 1-4.334-1.224c-2.834-1.738-4.208-5.002-3.415-8.118a7.433 7.433 0 0 1 1.066-2.35c1.472-2.164 3.977-3.455 6.708-3.455a8.28 8.28 0 0 1 4.315 1.203c3.632 2.25 4.717 7.056 2.366 10.499zm4.918-34.466c4.776 1.64 7.27 6.73 5.558 11.336-1.333 3.485-4.87 5.825-8.798 5.825a9.784 9.784 0 0 1-3.144-.517c-4.466-1.546-6.994-6.015-5.883-10.393.083-.32.184-.633.302-.94 1.344-3.494 4.879-5.84 8.794-5.84a9.69 9.69 0 0 1 3.171.53zm-76.735 56.807c.41-1.626 1.67-2.92 3.345-3.45a5.32 5.32 0 0 1 1.552-.233 5.151 5.151 0 0 1 2.286.53 4.833 4.833 0 0 1 2.502 2.793c.398 1.134.276 2.442-.338 3.588a4.935 4.935 0 0 1-2.89 2.4 5.174 5.174 0 0 1-3.841-.272 4.799 4.799 0 0 1-2.511-2.776 4.48 4.48 0 0 1-.105-2.58zm16.471-.92c-1.52-.367-2.792-1.267-3.592-2.55a5.183 5.183 0 0 1-.69-4.16c.37-1.45 1.313-2.671 2.663-3.45a6.074 6.074 0 0 1 3.015-.798c2.076 0 3.968.999 5.047 2.652 1.613 2.603.702 6.111-1.99 7.663-1.324.762-2.96.989-4.453.644zm14.23-10.685v.949l-.08-.949a7.05 7.05 0 0 1-4.813-1.958c-1.639-1.624-2.284-3.884-1.737-6.05a6.475 6.475 0 0 1 1.886-3.14c1.283-1.174 2.971-1.82 4.758-1.82a6.964 6.964 0 0 1 4.913 1.97 6.324 6.324 0 0 1 1.85 4.628c-.031 1.747-.763 3.403-2.012 4.542-1.275 1.18-2.967 1.828-4.765 1.828zm18.115-19.069c-1.144 1.685-2.92 2.85-5.002 3.277a8.246 8.246 0 0 1-6.02-1.052c-2.837-1.754-4.215-5.013-3.428-8.111A7.317 7.317 0 0 1 181 108.9c1.477-2.16 3.99-3.45 6.713-3.45a8.255 8.255 0 0 1 4.32 1.213 7.613 7.613 0 0 1 3.401 4.807 7.143 7.143 0 0 1-1.058 5.668zm-1.442-17.82c-4.462-1.556-6.992-6.016-5.888-10.365.086-.33.187-.652.313-.983.848-2.222 2.553-3.998 4.81-4.999a9.752 9.752 0 0 1 7.14-.302c4.84 1.688 7.344 6.776 5.575 11.34-1.341 3.484-4.883 5.827-8.815 5.827a9.762 9.762 0 0 1-3.135-.517zm5.373-25.409c-2.881-.326-5.453-1.697-7.24-3.857a9.928 9.928 0 0 1-2.02-8.892c1.178-4.633 5.523-7.87 10.565-7.87.45 0 .9.025 1.346.076 5.962.7 10.218 5.87 9.494 11.525-.673 5.184-5.322 9.096-10.816 9.096-.44 0-.882-.025-1.33-.078zm-57.886 65.097h-.003a5.632 5.632 0 0 1-2.628 3.475 6.084 6.084 0 0 1-3.018.799c-2.075 0-3.955-1-5.021-2.66a5.403 5.403 0 0 1-.677-4.211 5.491 5.491 0 0 1 2.694-3.453 6.045 6.045 0 0 1 3.004-.795c2.053 0 3.977 1.032 5.035 2.696.763 1.184.986 2.696.614 4.15zm7.187-6.585c-1.872 0-3.623-.696-4.925-1.955-1.642-1.61-2.292-3.872-1.739-6.049a6.583 6.583 0 0 1 1.888-3.155c1.292-1.175 2.982-1.82 4.858-1.82h.002a7.03 7.03 0 0 1 4.828 1.997c2.526 2.499 2.444 6.78-.179 9.17-1.266 1.169-2.946 1.812-4.731 1.812h-.002zm7.065-16.814v-.002c-2.834-1.762-4.207-5.037-3.419-8.143a7.382 7.382 0 0 1 1.06-2.343c1.485-2.158 3.995-3.445 6.716-3.445a8.234 8.234 0 0 1 4.332 1.22c3.562 2.185 4.664 7.07 2.355 10.457-1.478 2.166-3.993 3.463-6.724 3.463a8.263 8.263 0 0 1-4.32-1.207zm15.93-36.711l.001.002c4.843 1.672 7.36 6.76 5.615 11.335-1.338 3.485-4.87 5.826-8.794 5.826a9.794 9.794 0 0 1-3.171-.528c-4.47-1.54-7-6.004-5.884-10.395.078-.318.177-.63.299-.945 1.34-3.48 4.87-5.821 8.783-5.821 1.072 0 2.136.177 3.15.526zm1.665-29.31c2.914.333 5.507 1.721 7.296 3.908a9.852 9.852 0 0 1 2.198 7.628c-.625 5.098-5.4 9.092-10.872 9.092-.42 0-.845-.023-1.266-.071a10.943 10.943 0 0 1-7.267-3.902 9.881 9.881 0 0 1-2.01-8.816c1.186-4.658 5.54-7.914 10.598-7.914.442 0 .883.025 1.323.076zm-4.944-9.852h-.002c-6.534 0-11.99-4.66-12.695-10.837a11.569 11.569 0 0 1 .28-4.116c1.268-4.976 5.726-8.68 11.096-9.212.454-.048.907-.069 1.354-.069 6.547 0 12 4.656 12.693 10.827a11.539 11.539 0 0 1-.282 4.128c-1.26 4.963-5.711 8.665-11.08 9.212-.458.046-.914.067-1.364.067zM66.05 124.608v-.002c1.364 1.233 1.751 3.13.963 4.72-.715 1.447-2.265 2.38-3.953 2.38a4.437 4.437 0 0 1-1.822-.384 4.148 4.148 0 0 1-2.212-2.337 3.944 3.944 0 0 1 .133-3.146c.702-1.428 2.248-2.351 3.934-2.351a4.51 4.51 0 0 1 1.802.372c.422.188.811.44 1.155.748zm-4.605 10.29h.002a5.12 5.12 0 0 1 2.439 1.208c1.283 1.157 1.823 2.82 1.438 4.47-.258 1.232-1.024 2.296-2.155 2.996a5.135 5.135 0 0 1-3.8.663 5.026 5.026 0 0 1-3.137-2.083c-.749-1.083-1.026-2.384-.766-3.564.494-2.202 2.56-3.796 4.915-3.796.357 0 .713.036 1.064.107zm-.644 24.618h.002l-.084.946v-.946c-3.074 0-5.829-2.558-5.898-5.477a5.36 5.36 0 0 1 1.642-3.96c1.09-1.064 2.55-1.664 4.28-1.685a5.927 5.927 0 0 1 3.982 1.523 5.412 5.412 0 0 1 1.825 3.937c.049 3.052-2.532 5.592-5.749 5.662zm4.368 17.319h.002c-3.131-.003-6.05-2.108-6.792-4.899a6.171 6.171 0 0 1 .77-4.904c.948-1.493 2.443-2.545 4.205-2.965a7.203 7.203 0 0 1 1.67-.196 7.065 7.065 0 0 1 4.725 1.802 6.478 6.478 0 0 1 1.913 3.073c.894 3.479-1.337 7.03-4.963 7.914a6.754 6.754 0 0 1-1.53.175zm13.045 18.004a8.077 8.077 0 0 1-3.528.789c-3.058 0-5.896-1.605-7.238-4.093a7.097 7.097 0 0 1-.494-5.735c.658-1.941 2.075-3.523 3.985-4.45a8.316 8.316 0 0 1 3.61-.825 8.183 8.183 0 0 1 5.512 2.087 7.59 7.59 0 0 1 1.61 2.05c2.007 3.702.455 8.268-3.457 10.177zm19.371 5.485h.003c3.307 3.741 2.798 9.34-1.134 12.48a9.523 9.523 0 0 1-5.936 2.05 9.698 9.698 0 0 1-7.192-3.146c-3.297-3.725-2.79-9.317 1.123-12.467a9.685 9.685 0 0 1 6.002-2.074 9.575 9.575 0 0 1 6.426 2.434c.249.228.486.47.708.723zM80.55 120.16a5.11 5.11 0 0 1 2.411 1.205 4.66 4.66 0 0 1 1.475 4.476 4.745 4.745 0 0 1-2.192 3.001 5.203 5.203 0 0 1-3.801.66c-1.235-.237-2.368-.992-3.106-2.071-.745-1.083-1.016-2.383-.743-3.575.27-1.252 1.037-2.322 2.162-3.02a5.26 5.26 0 0 1 3.794-.676zm-.627 24.64h-.002l-.049.947v-.947c-3.158 0-5.883-2.5-5.948-5.46a5.43 5.43 0 0 1 1.64-3.985 5.948 5.948 0 0 1 4.102-1.672l.21-.004a5.898 5.898 0 0 1 3.954 1.514 5.393 5.393 0 0 1 1.813 3.908c.08 3.05-2.499 5.607-5.72 5.7zm-1.68 7.52a6.851 6.851 0 0 1 4.2-2.97 7.292 7.292 0 0 1 1.664-.192 7.035 7.035 0 0 1 4.723 1.79 6.467 6.467 0 0 1 1.922 3.12c.91 3.466-1.32 6.998-4.97 7.866a6.58 6.58 0 0 1-1.538.181c-3.12 0-6.022-2.105-6.758-4.9a6.163 6.163 0 0 1 .757-4.894zm7.822 18.74c.654-1.935 2.065-3.506 3.972-4.428a8.446 8.446 0 0 1 3.63-.82 8.158 8.158 0 0 1 5.484 2.061 7.615 7.615 0 0 1 1.613 2.061c1.997 3.719.441 8.29-3.474 10.186a8.104 8.104 0 0 1-3.5.784c-3.065 0-5.904-1.607-7.235-4.101a7.124 7.124 0 0 1-.49-5.744zm30.625 14.565c1.61 1.81 2.377 4.095 2.164 6.446-.212 2.358-1.383 4.499-3.297 6.024a9.75 9.75 0 0 1-6.02 2.071 9.452 9.452 0 0 1-7.118-3.165c-3.29-3.724-2.78-9.323 1.127-12.473a9.726 9.726 0 0 1 6.012-2.072 9.525 9.525 0 0 1 6.392 2.417c.26.237.508.488.74.752zm23.638 14.792c3.993 3.602 4.49 9.484 1.157 13.68-2.076 2.608-5.257 4.107-8.72 4.107a11.186 11.186 0 0 1-6.547-2.075c-2.336-1.67-3.844-4.1-4.243-6.846a9.881 9.881 0 0 1 2.082-7.634c1.74-2.204 4.277-3.632 7.145-4.02a11.25 11.25 0 0 1 9.126 2.788zm-42.666-77.298l-.13.943h-.002v-.94c-3.045 0-5.766-2.558-5.82-5.475-.064-3.053 2.51-5.598 5.771-5.67a6.144 6.144 0 0 1 4.134 1.548 5.336 5.336 0 0 1 1.803 3.941c.06 3.062-2.52 5.597-5.756 5.653zm-2.389 12.42h-.002c-.917-3.441 1.312-6.968 4.967-7.862a7.29 7.29 0 0 1 1.678-.198 6.991 6.991 0 0 1 4.708 1.796 6.55 6.55 0 0 1 1.935 3.128 6.184 6.184 0 0 1-.768 4.906 6.817 6.817 0 0 1-5.757 3.134c-3.127 0-6.033-2.108-6.76-4.905zm9.07 19.619v-.002c-2.006-3.718-.45-8.297 3.465-10.2a8.451 8.451 0 0 1 3.625-.82 8.204 8.204 0 0 1 5.516 2.082 7.71 7.71 0 0 1 1.61 2.044c1.992 3.729.428 8.297-3.49 10.185a8.053 8.053 0 0 1-3.501.785c-3.053 0-5.89-1.599-7.225-4.074zm15.855 20.181c-3.304-3.729-2.788-9.327 1.144-12.475a9.657 9.657 0 0 1 6.008-2.08 9.555 9.555 0 0 1 7.143 3.163c3.29 3.73 2.782 9.317-1.136 12.45a9.744 9.744 0 0 1-6.043 2.093 9.5 9.5 0 0 1-7.116-3.15zm39.085 17.082a10.93 10.93 0 0 1-7.217 4.038c-.507.067-1.01.098-1.512.098-2.35.008-4.642-.73-6.548-2.105a10.074 10.074 0 0 1-4.197-6.755 9.934 9.934 0 0 1 2.029-7.729c1.741-2.206 4.294-3.636 7.191-4.023a11.9 11.9 0 0 1 1.554-.101 11.165 11.165 0 0 1 7.503 2.864c4.006 3.61 4.521 9.506 1.197 13.713zm31.327-1.855c3.914 3.524 5.062 9.039 2.864 13.714-2.048 4.376-6.636 7.2-11.693 7.2a13.213 13.213 0 0 1-8.782-3.335c-3.898-3.512-5.055-9.022-2.868-13.708 2.046-4.374 6.639-7.198 11.706-7.198 1.77-.004 3.524.347 5.156 1.032a12.93 12.93 0 0 1 3.617 2.295z"/></svg>