<svg width="235" height="235" viewBox="0 0 235 235" xmlns="http://www.w3.org/2000/svg"><g fill="#1B5A7D"><path d="M151.172 50.009l-1.593 12.22 9.14 7.664 16.307-5.721-10.935-9.08-5.478-10.428-29.24-27.963 7.8 19.846z"/><path d="M130.019 56.372l-1.809 10.85-20.615 14.81 2.03 24.114 15.6 39.754 8.837-16.003-2.867-4.433 8.508-20.598V94.34l16.183-22.1-10.149-8.51 1.614-12.377-13.254-12.743-11.204-28.25-.79-.43.107 26.238z"/><path d="M171.172 127.684l1.603-2.808V103.62l3.673-36.11-16.974 5.951-16.153 22.061v10.06l-8.057 19.51 1.932 2.989 31.3 2.2 2.676-2.597zm-50.235 50.268l4.945 2.405 3.74-4.144 10.956-1.605 4.141-5.616 9.353-.265.535-2.809 9.216-1.736 2.774-30.407-29.403-2.066-10.6 19.19-10.326 27.909 1.063 5.159 3.606-6.015zm-25.132-43.599l-27.422 12.059.718 17.278 11.623 5.838 2.805 4.679 5.879-3.075 3.473 1.07 1.07-2.806 2.405-.937 7.481 2.941 2.805 6.953 6.013-2.809h.964l9.39-25.382-15.373-39.183-11.83 23.374z"/><path d="M64.024 135.973l2.293 7.395 26.847-11.807L106 106.2l-1.993-23.695-50.815-16.692 11.768 61.201-.936 8.958zm60.864-70.82l1.4-8.4-7.691-19.902-.128-30.844-2.34-.113-2.807 1.337-59.013 55.14 51.09 16.784 19.489-14.001zm55.096 95.287l-10.29-4.881-.7 7.678 3.111 1.476-13.044 8.938-14.502 11.602-15.327 3.967-12.431 6.54-15.538-5.75-27.797-15.83-11.701-9.543 2.272-.84-.316-7.6-9.732 3.598-7.257 13.737 1.234 24.1 15.003 6.456 2.334 1.815L96.2 221.018l2.583.39 14.734 8.114 7.705.35 10.151-5.369 31.857-15.07 23.797-13.062 1.88-21.15-8.923-14.78zm-63.127 54.822v7.165l-1.327-.06-14.391-7.926-2.762-.416-29.22-14.293-2.477-1.928-11.718-5.042-.903-17.61 4.48-8.478 12.876 10.503 28.187 16.05 15.802 5.873 3.094 12.503-1.641 3.66zm63.309-23.379l-20.123 11.052-31.832 15.06-7.736 4.088v-6.045l1.834-4.091-3.282-13.268 11.519-6.06 15.67-4.056L161.16 176.6l14.24-9.755 6.095 10.094-1.33 14.944z"/></g></svg>