<svg width="235" height="235" viewBox="0 0 235 235" xmlns="http://www.w3.org/2000/svg"><g fill="none" fill-rule="evenodd"><path d="M117.5 5C55.367 5 5 55.368 5 117.5 5 179.628 55.368 230 117.5 230c62.134 0 112.5-50.37 112.5-112.5C230 55.368 179.634 5 117.5 5z" fill="#4279BD" fill-rule="nonzero"/><path d="M160.9 90.122c-9.089-14.304-25.072-23.805-43.289-23.805-28.301 0-51.246 22.915-51.246 51.183 0 19.85 11.324 37.053 27.866 45.538V95.181h13.453v34.712c.128 1.872 1.266 10.323 11.458 10.323 9.172 0 10.137-8.68 10.217-11.34l-.002-33.696h13.452v33.84c-.138 9.958-6.553 24.633-23.667 24.633-4.522 0-8.312-.921-11.458-2.427v16.487c3.213.63 6.53.968 9.927.968 16.81 0 31.73-8.086 41.073-20.574l30.843 22.786C173.194 192.803 147.065 207 117.61 207 68.121 207 28 166.928 28 117.5 28 68.07 68.122 28 117.611 28c31.65 0 59.447 16.403 75.389 41.147l-32.1 20.975z" fill="#FFF"/></g></svg>