<svg width="235" height="235" viewBox="0 0 235 235" xmlns="http://www.w3.org/2000/svg" xmlns:xlink="http://www.w3.org/1999/xlink"><defs><path d="M104.889 156.59c-2.067 1.264-28.467 2.411-30.533 0-1.893-2.21-1.188-8.486-1.587-19.413H51.684l-11.689-11.681h31.896c-.627-5.037-1.51-9.119-2.52-12.995H46.69L35 100.821h30.676c-3.48-8.277-9.698-19.09-12.213-21.886-3.098-3.444-6.888-5.626-6.772-7.006.118-1.377.92-4.134 11.71-4.538 10.792-.4 14.12-.63 18.022 0 5.431.878 16.011 15.507 19.972 24.813 3.961 9.305 8.78 25.671 9.47 39.458.689 13.782 1.089 23.663-.976 24.927zm41.3 0c-2.066 1.264-28.467 2.411-30.533 0-2.065-2.412-1.031-9.652-1.722-22.515-.69-12.866-2.754-19.987-5.05-28.029-2.297-8.042-11.02-23.665-14.119-27.111-3.101-3.444-6.888-5.626-6.771-7.006.113-1.377.914-4.134 11.708-4.538 10.788-.4 14.119-.63 18.02 0 5.433.878 16.013 15.507 19.974 24.813 3.96 9.305 8.78 25.671 9.47 39.458.69 13.782 1.089 23.663-.977 24.927zm42.28 0c-2.066 1.264-28.467 2.411-30.533 0-2.066-2.412-1.036-9.652-1.721-22.515-.69-12.866-2.755-19.987-5.052-28.029-2.294-8.042-11.017-23.665-14.117-27.111-3.1-3.444-6.887-5.626-6.775-7.006.116-1.377.917-4.134 11.71-4.538 10.79-.4 14.118-.63 18.021 0 5.43.878 16.01 15.507 19.972 24.813 3.96 9.305 8.781 25.671 9.47 39.458.687 13.782 1.09 23.663-.975 24.927z" id="b"/><filter x="-4.8%" y="-3.8%" width="107.1%" height="115.4%" filterUnits="objectBoundingBox" id="a"><feMorphology radius="1" operator="dilate" in="SourceAlpha" result="shadowSpreadOuter1"/><feOffset dx="-2" dy="5" in="shadowSpreadOuter1" result="shadowOffsetOuter1"/><feColorMatrix values="0 0 0 0 0.0609012544 0 0 0 0 0.403238058 0 0 0 0 0.208354503 0 0 0 1 0" in="shadowOffsetOuter1"/></filter></defs><g fill="none" fill-rule="evenodd"><path d="M117.5 5C55.37 5 5 55.367 5 117.5 5 179.632 55.368 230 117.5 230S230 179.632 230 117.5C230 55.367 179.632 5 117.5 5z" fill="#0F6835" fill-rule="nonzero"/><path d="M117.5 12C59.235 12 12 59.233 12 117.5 12 175.766 59.234 223 117.5 223S223 175.766 223 117.5C223 59.233 175.766 12 117.5 12z" fill="#FFF" fill-rule="nonzero"/><path d="M117.5 17C61.996 17 17 61.995 17 117.5 17 173.004 61.996 218 117.5 218S218 173.004 218 117.5C218 61.995 173.004 17 117.5 17z" fill="#0F6835" fill-rule="nonzero"/><path d="M117.5 20C63.653 20 20 63.652 20 117.5c0 53.847 43.652 97.5 97.5 97.5s97.5-43.653 97.5-97.5c0-53.848-43.652-97.5-97.5-97.5z" fill="#4FBB67" fill-rule="nonzero"/><g transform="translate(5 5)"><use fill="#000" filter="url(#a)" xlink:href="#b"/><use fill="#FFF" xlink:href="#b"/></g></g></svg>