<svg width="235" height="235" viewBox="0 0 235 235" xmlns="http://www.w3.org/2000/svg"><defs><linearGradient x1="0%" y1="0%" y2="96.84%" id="a"><stop stop-color="#0B2645" offset="0%"/><stop stop-color="#114F7E" offset="100%"/></linearGradient></defs><g fill="none" fill-rule="evenodd"><path fill="#FFF" fill-rule="nonzero" d="M212.354 173.838V61.514l-97.56-56.162-96.942 56.162v112.324L114.795 230z"/><path fill="url(#a)" d="M8.438 163.652V61.172l88.857-51.24 88.682 51.24v102.48l-88.682 51.24z" transform="translate(17.5 5)"/><path d="M152.852 54.043l9.228 39.111-94.57-.088 8.7-39.023h76.642zM89.834 120.84v25.928l17.227 16.435-.088 7.734-16.524 15.381H76.475l-34.98-60.82 25.663-19.16 22.676 14.502zm72.246-14.678l25.664 19.336-34.805 60.645h-13.798l-16.524-15.206-.088-7.822 17.139-16.347V120.84l22.412-14.678zm-72.158-7.119h49.658l-8.174 21.797 2.373 24.258-38.056.088 2.548-24.346-8.35-21.797z" fill="#FFF" fill-rule="nonzero"/></g></svg>