<svg width="235" height="235" viewBox="0 0 235 235" xmlns="http://www.w3.org/2000/svg"><g fill="#E6CB94"><path d="M117.08 155.231l12.099-20.393h-23.716z"/><path d="M202.267 88.507l-16.022-71.895-31.476 49.476a159.23 159.23 0 0 0-74.46 0L48.903 16.612 32.825 88.507C15.533 102.28 5 120.273 5 140.021c0 43.264 50.365 78.345 112.5 78.345S230 183.284 230 140.021c-.011-19.748-10.463-37.741-27.733-51.514zM55.004 121.439h-7.496l18.3-21.038h13.33L55.004 121.44zm61.934 51.378l-31.13-54.615 7.688-4.368L100.435 126h34.004l7.249-12.222 7.605 4.502-32.356 54.537zm63.166-51.378L155.949 100.4h13.413l18.29 21.038H180.1h.003z"/></g></svg>