<svg width="235" height="235" viewBox="0 0 235 235" xmlns="http://www.w3.org/2000/svg"><g fill="none" fill-rule="evenodd"><path d="M117.499 5C55.368 5 5 55.368 5 117.5 5 179.63 55.368 230 117.5 230c62.131 0 112.5-50.369 112.5-112.5C229.999 55.368 179.63 5 117.499 5z" fill="#F19533" fill-rule="nonzero"/><path d="M94.74 64.12c4.486-2.78 17.764 17.944 20.276 18.302 2.512.359 8.97-6.1 13.098-9.51 4.126-3.408 22.16-14.713 22.965-13.546.809 1.166-12.649 8.972-20.095 14.714-7.446 5.742-12.74 14.533-18.661 14.533-5.92 0-16.686-16.687-18.211-18.54-1.525-1.854-1.49-4.64.628-5.952zm58.074 95.424l-11.242-46.65-24.073 28.948-24.493-28.948-11.243 46.65H60.47l21.293-89.472 35.736 43.78 34.837-43.78 21.053 89.472h-20.575z" fill="#FFF"/></g></svg>