<svg width="235" height="235" viewBox="0 0 235 235" xmlns="http://www.w3.org/2000/svg"><g fill="none" fill-rule="evenodd"><path d="M117.5 5C55.367 5 5 55.369 5 117.501 5 179.633 55.367 230 117.5 230c62.131 0 112.5-50.368 112.5-112.499C230 55.37 179.631 5 117.5 5z" fill="#6787B7" fill-rule="nonzero"/><path d="M160.856 161.345c-1.56 5.93-5.616 11.13-10.351 13.265-3.953 1.779-15.762 1.437-15.762 1.437l-49.11-67.557s-12.617 47.124-14.254 52.855c-2.393 8.373-6.346 10.765-10.3 12.95-3.954 2.187-16.542 1.752-16.542 1.752S70.477 81.3 72.695 72.837c2.22-8.462 7.527-12.313 11.48-13.768 3.955-1.457 14.879-.833 14.879-.833l49.005 67.11 14.41-53.012s1.925-6.764 7.542-11.029c5.619-4.266 18.73-3.201 18.73-3.201s-26.324 97.31-27.885 103.241z" fill="#FFF"/><path fill="#6787B7" fill-rule="nonzero" d="M90.452 90.872l48.554 66.726 4.3-13.595L94.06 76.166z"/></g></svg>