<svg width="235" height="235" viewBox="0 0 235 235" xmlns="http://www.w3.org/2000/svg"><g fill="none"><path d="M59.522 90.55v-4.436l-45.9-24.833A30.685 30.685 0 0 0 9 77.424v40.332l.112.062 50.41-27.269z" fill="#3377B5"/><path fill="#4F6CB0" d="M9.114 117.82l50.408 27.268V90.55L9.114 117.819"/><path d="M221.676 61.803l-44.937 24.31v4.436L226 117.2V77.424c0-5.562-1.541-10.915-4.323-15.622" fill="#504CA1"/><path d="M59.522 147.255v-2.166L9.112 117.82l-.112.062v39.693c0 5.957 1.765 11.677 4.933 16.612l45.677-24.71-.088-2.222z" fill="#3B9CC7"/><path fill="#5465AD" d="M172.102 83.197V29.645l-49.494 26.776 49.494 26.776"/><path d="M176.739 85.704v.408l44.937-24.31c-2.979-5.039-7.38-9.328-12.888-12.311l-36.686-19.846v53.552" fill="#513D9A"/><path fill="#214688" d="M118.103 171.567l49.188-26.61v-.528l-49.188-26.61v53.748"/><path fill="#4395C4" d="M63.527 151.76v53.933l.592.32 49.85-26.966-50.442-27.288"/><path d="M59.617 149.643l-.005-.166-45.678 24.71c2.957 4.607 7.134 8.54 12.275 11.319l37.322 20.187v-53.934l-3.914-2.116z" fill="#54A4CB"/><path d="M118.446 54.17l4.16 2.248 49.493-26.776-37.393-20.23a36.13 36.13 0 0 0-16.575-4.3v49.226l.315-.167z" fill="#7F6FB3"/><path d="M113.968 56.592l4.16-2.248V5.112c-5.388-.1-10.73 1-15.641 3.22L63.622 29.356l50.346 27.235z" fill="#5054A4"/><path fill="#50479E" d="M63.622 29.357l-.097.05V83.88l50.442-27.287-50.345-27.235"/><path d="M59.522 86.06l2.136-1.173 1.862-1.011V29.408L24.106 50.735A33.181 33.181 0 0 0 13.62 61.283l45.9 24.83v-.052z" fill="#5057A6"/><path d="M118.446 181.469l-.315-.17v48.589a36.151 36.151 0 0 0 16.578-4.304l36.803-19.908-48.904-26.455-4.162 2.248z" fill="#2C7AB6"/><path d="M113.968 179.046L64.12 206.019l36.168 19.568a36.217 36.217 0 0 0 17.843 4.3v-48.589" fill="#4FA2CA"/><path fill="#4D8DC0" d="M122.608 179.217l48.904 26.454.59-.32v-52.909l-49.494 26.775"/><path d="M176.739 149.933l-4.636 2.508v52.91l36.685-19.846c5.332-2.884 9.636-6.993 12.61-11.821l-44.66-24.164" fill="#4488BE"/><path d="M176.739 149.524l44.659 24.163A30.68 30.68 0 0 0 226 157.574V118.44l-49.261 26.649" fill="#6687BE"/><path fill="#415CA8" d="M176.739 145.089L226 118.439v-1.24l-49.261-26.65v54.54"/><path fill="#5D62AC" d="M167.29 144.43V91.21l-49.188 26.61 49.188 26.61"/></g></svg>