<svg width="235" height="235" viewBox="0 0 235 235" xmlns="http://www.w3.org/2000/svg"><g fill="none"><path d="M117.652 228.784c.455-.304 1.062-.608 1.517-.912 14.715-8.666 28.368-19.004 40.655-30.862.759-.76 1.366-1.672 1.973-2.584.758-1.52 1.668-3.193 2.427-4.713 5.916-12.314 7.13-24.933 3.186-38.007-7.586-25.388-32.01-39.983-56.433-36.79-6.978.912-13.501 3.04-19.57 6.537-11.68 6.537-24.12 9.273-37.318 8.057-6.523-.608-12.743-2.28-18.81-4.865-4.703-2.128-9.103-4.713-13.199-7.905-.303-.304-.607-.456-1.213-.76.151.608.303.912.455 1.216 5.158 13.378 11.68 25.997 19.417 38.159 8.344 13.074 17.901 25.084 28.672 36.182 10.77 11.098 22.603 20.828 35.498 29.493 5.613 3.65 11.074 6.994 12.743 7.754" fill="#05CCBB"/><path d="M178.939 176.334c.607-.304.91-.76 1.213-1.216a252.416 252.416 0 0 0 13.198-18.243c14.715-22.804 24.88-47.432 30.644-73.885a206.686 206.686 0 0 0 4.096-27.213c.607-6.233.91-12.466.91-18.7 0-.455 0-.911-.152-1.216-.607-.304-1.213-.76-1.668-1.064-4.855-2.736-9.71-5.32-14.715-7.601-7.282-3.345-14.564-6.537-22.149-8.818-9.253-3.192-18.507-3.496-28.064-1.216C135.4 23.7 118.259 50 123.265 77.212c2.882 15.052 10.922 26.758 23.817 34.967.91.608 1.82 1.064 2.579 1.672 9.405 5.777 16.838 13.53 22.148 23.413 5.613 10.185 8.04 21.283 7.433 32.99.152 1.672-.152 3.8-.303 6.08" fill="#3BB8E9"/><path d="M6.152 35.557v1.52c0 8.666.607 17.18 1.517 25.693.91 7.754 2.275 15.355 3.944 22.956a16.197 16.197 0 0 0 1.365 3.801c10.468 22.5 34.891 34.358 59.012 28.885 18.356-4.105 33.374-18.395 38.532-36.638 1.365-5.017 1.82-10.186 2.124-15.355.151-3.497.455-6.841 1.061-10.186 3.945-20.676 17.75-37.703 37.015-45.76 1.062-.456 2.124-.912 3.338-1.216.152 0 .455-.152.303-.304-3.034-1.064-21.238-2.889-32.16-3.04-23.362-.457-46.42 2.584-68.872 9.425-16.536 4.713-32.16 11.554-47.18 20.22" fill="#F5A81C"/></g></svg>