<svg width="235" height="235" viewBox="0 0 235 235" xmlns="http://www.w3.org/2000/svg"><g fill="none" fill-rule="evenodd"><path d="M5 5h24.537v224.73H5V5zm137.538 62.09v28.378l-83.343-48.22v182.48H34.657V5l107.88 62.09zm0-34.303v28.378L45.54 5h48.97l48.027 27.787zm0-27.787v21.864L104.748 5h37.79zm62.653 0h24.537v224.73H205.19V5zm-29.658 182.48V5h24.537v224.73L92.19 167.64v-28.38l83.343 48.22zM92.19 201.943v-28.378l96.996 56.165h-48.969L92.19 201.942zm0 27.787v-21.862l37.79 21.862H92.19z" fill="#3A3A3C"/><path d="M142.416 101.395v25.022L87.072 94.89v134.837H64.315V54.878l78.101 46.517zm-50.21 31.938v-25.022l55.344 31.527V5h22.757v174.85l-78.1-46.517z" fill="#EDEA46"/></g></svg>