<svg width="235" height="235" viewBox="0 0 235 235" xmlns="http://www.w3.org/2000/svg"><path d="M228.349 107.098c-3.993-15.045-14.029-26.92-23.856-33.266-9.826-6.344-25.39-9.62-25.39-9.62s.208-7.268-2.353-13.511c-2.56-6.243-8.6-11.976-8.6-11.976s-12.492 4.093-19.147 15.047c-6.652 10.952-4.503 24.258-2.253 29.376 2.253 5.117 8.499 11.361 8.499 11.361s.177 3.453-.743 4.222c-.923.767-11.44 5.526-27.182 6.6-15.74 1.076-31.174 8.676-38.853 14.894-7.678 6.22-17.584 20.189-17.584 20.189s4.761-12.512 17.584-25.103c12.823-12.59 24.418-16.658 29.946-34.008 5.529-17.349 4.762-34.16-4.3-48.208C105.059 19.047 88.703 5.077 63.366 5c-25.34-.076-41.388 16.198-45.996 21.878-4.608 5.68-12.67 19.882-12.361 33.47.307 13.587 6.603 26.484 6.603 26.484s-.714-13.816 7.885-22.005c8.598-8.189 25.798-8.189 34.194 1.228 8.394 9.418 7.783 20.06 3.072 28.657-4.711 8.599-21.5 21.086-28.462 44.832-6.962 23.746-.228 43.704 7.59 53.223 7.817 9.52 22.483 17.196 31.466 18.347 8.985 1.152 9.214.615 10.06-.229.844-.844-1.229-3.531-2.15-7.063-.922-3.532-1.305-6.14-1.305-6.14s4.3 13.433 16.048 21.724c11.748 8.29 25.032 10.594 33.556 10.594h80.623v-8.368c0-3.636-3.636-7.267-7.066-7.267-3.428 0-33.988-.052-35.73-.052-1.74 0-2.816-1.074-2.254-2.046.565-.972 13.006-15.199 10.343-34.44-2.663-19.243-13.207-29.967-26.004-37.054 0 0 10.75 2.869 20.577 12.898 9.828 10.03 12.181 17.707 13.31 23.438 1.126 5.732.818 15.763 1.74 16.07.923.306 8.497-15.764 8.702-29.376.204-13.614-4.913-32.547-4.504-32.752.41-.205 10.544 5.836 22.625 6.653 12.083.818 21.91-1.945 21.91-1.945s4.504-13.614.51-28.66zm-16.044.035a6.725 6.725 0 0 0-13.448.019 6.68 6.68 0 0 0 1.02 3.524c-4.279-1.539-7.341-5.616-7.341-10.423 0-6.119 4.963-11.082 11.085-11.082 6.123 0 11.088 4.963 11.088 11.082 0 2.5-.847 4.925-2.404 6.88z" fill="#2673B2"/></svg>