<svg width="235" height="235" viewBox="0 0 235 235" xmlns="http://www.w3.org/2000/svg"><path d="M7 127.558v-20.505c0-12.765 29.558-23.11 66.027-23.11 36.461 0 66.022 10.345 66.022 23.11v20.505c-3.531 7.337-28.469 16.665-66.022 16.665-37.559.002-62.496-9.328-66.027-16.665zm149.298 31.913c-3.535 7.338-28.475 16.664-66.028 16.664-37.557 0-62.492-9.328-66.027-16.664v-11.917c13.111 3.836 30.082 6.072 48.786 6.072 37.632 0 68.263-9.043 74.496-21.99l.929-1.93v-1.658c4.994 3.251 7.844 6.967 7.844 10.92v20.503zm8.47 4.075l.933-1.932v-3.198c.746 1.385 1.175 2.812 1.175 4.274v20.508c-3.533 7.336-28.468 16.666-66.021 16.666-37.56 0-62.499-9.332-66.03-16.666v-5.979c13.747 5.193 33.37 8.321 55.445 8.321 37.634-.002 68.263-9.044 74.498-21.994zm-13.571 49.792C147.664 220.672 122.727 230 85.176 230c-37.558 0-62.499-9.33-66.032-16.662V192.83c0-3.503 2.294-6.81 6.274-9.781v2.288l.93 1.932c6.236 12.95 36.867 21.99 74.505 21.99 19.467 0 37.03-2.438 50.344-6.567v10.646zm76.801-23.38c0 12.764-29.56 23.11-66.023 23.11-.464 0-.911-.02-1.373-.03v-13.875c5.167-2.343 9.236-5.03 11.977-7.979 22.322-1.067 43.525-5.493 55.417-13.103v11.877h.002zm0-24.579c-3.065 6.353-22.22 14.203-51.717 16.183V162.69c0-.302-.044-.596-.066-.894 20.969-1.354 40.53-5.705 51.783-12.9v16.483zm0-29.191c-3.164 6.572-23.577 14.732-54.816 16.356-1.81-2.784-4.341-5.304-7.481-7.55v-6.029a17.795 17.795 0 0 0-1.048-5.934c25.125-.3 50.044-4.82 63.345-13.328v16.485zm0-29.192c-3.529 7.334-28.47 16.669-66.023 16.669-1.365 0-2.67-.04-3.993-.06-2.64-2.331-5.836-4.416-9.528-6.257v-10.293c0-1.245-.157-2.454-.395-3.62 4.595.29 9.256.44 13.916.44 26.013 0 52.248-4.55 66.023-13.36v16.481zm0-29.187c-3.529 7.332-28.47 16.666-66.023 16.666-6.864 0-13.303-.32-19.273-.876-8.813-9.433-26.805-15.202-46.755-17.653V61.318c13.777 8.813 40.008 13.365 66.03 13.365 26.013 0 52.248-4.55 66.023-13.365v16.491h-.002zm0-29.191c-3.529 7.336-28.47 16.668-66.023 16.668-37.557 0-62.493-9.332-66.03-16.668V28.11c0-12.765 29.563-23.11 66.03-23.11 36.463 0 66.023 10.345 66.023 23.11v20.508z" fill="#F2C869"/></svg>