<svg width="235" height="235" viewBox="0 0 235 235" xmlns="http://www.w3.org/2000/svg"><path d="M210.04 53.525l-41.388 134.003-11.262-36.365 36.08-116.635a114.465 114.465 0 0 0-4.776-4.133l-34.41 110.728-11.265-36.389 27.052-86.712C154.378 9.712 136.49 5 117.5 5 55.367 5 5 55.369 5 117.5c0 24.268 7.684 46.74 20.751 65.119L65.724 50.565l11.328 36.583-34.565 114.186a114.79 114.79 0 0 0 4.684 3.97L80.027 96.76l11.325 36.582-25.467 84.14C81.343 225.48 98.893 230 117.499 230 179.632 230 230 179.632 230 117.5c0-23.768-7.379-45.813-19.96-63.975zm-89.167 135.288c-5.37 0-9.379-3.62-10.578-7.54-1.197-3.919-41.18-133.977-41.18-133.977l15.07.002c4.293 0 8.109 2.541 9.243 6.127 1.135 3.585 41.615 135.388 41.615 135.388h-14.17zm28.58-.03c-5.099 0-9.65-3.895-11.12-8.857-1.472-4.962-40.148-132.63-40.148-132.63h14.58c4.844 0 8.66 2.801 9.909 6.891 1.247 4.091 40.741 134.601 40.741 134.601s-8.86-.005-13.961-.005z" fill="#FFC93D"/></svg>