<svg width="235" height="235" viewBox="0 0 235 235" xmlns="http://www.w3.org/2000/svg"><g fill="none" fill-rule="evenodd"><path d="M230 117.5c0 62.132-50.367 112.5-112.5 112.5C55.369 230 5 179.632 5 117.5S55.368 5 117.5 5 230 55.368 230 117.5" fill="#018FBB"/><path d="M188.53 123.97c-3.571 0-6.468-2.907-6.468-6.494v-6.493h-32.495c-3.57 0-6.465-2.906-6.465-6.49 0-3.587 2.894-6.493 6.465-6.493h38.962c3.572 0 6.466 2.906 6.466 6.493v12.983c0 3.587-2.894 6.493-6.466 6.493zm-32.05 0h12.93c3.57 0 6.464 2.906 6.464 6.49 0 3.587-2.895 6.494-6.464 6.494h-19.843a6.405 6.405 0 0 1-2.98-.73l-37.704-25.241H98.015c-3.57 0-6.465-2.906-6.465-6.49 0-3.587 2.895-6.493 6.465-6.493h12.93c1.394 0 2.686.443 3.742 1.196l36.86 24.773h4.932zm-45.534 0c3.57 0 6.465 2.906 6.465 6.49 0 3.587-2.895 6.494-6.465 6.494H98.014a6.408 6.408 0 0 1-2.978-.73l-37.705-25.241H46.466c-3.572 0-6.466-2.906-6.466-6.49C40 100.906 42.894 98 46.466 98h12.93a6.43 6.43 0 0 1 3.742 1.196l36.86 24.773h10.948zm-64.48-.001h12.93c3.57 0 6.465 2.906 6.465 6.492s-2.894 6.492-6.465 6.492h-12.93c-3.572 0-6.466-2.906-6.466-6.492s2.894-6.492 6.466-6.492z" fill="#FFF"/></g></svg>