<svg width="235" height="235" viewBox="0 0 235 235" xmlns="http://www.w3.org/2000/svg"><g fill="none" fill-rule="evenodd"><path d="M117.498 5C55.366 5 5 55.365 5 117.5S55.366 230 117.498 230C179.628 230 230 179.635 230 117.5S179.629 5 117.498 5z" fill="#0165A4" fill-rule="nonzero"/><path d="M184.54 138.866c-2.214 5.915-10.5 25.795-10.5 25.795l-21.09-5.257s6.892-16.267 7.55-18.322c.657-2.053 1.229-4.682-1.887-5.584-3.118-.904-21.663-5.751-21.663-5.751l-9.682 23.414-21.5-5.587 26.011-61.945 21.335 5.42-13.21 30.645 38.236-24.483 25.437 6.449-29.95 18.033s8.207 3.204 10.175 6.161c1.97 2.96 2.955 5.096.738 11.012zm-99.476 3.806c-6.018-1.315-39.715-10.188-44.747-11.503-5.033-1.312-10.394-5.816-7.002-14.41 3.391-8.593 13.237-32.144 16.957-40.577 3.72-8.436 18.323-6.13 23.85-4.71 5.168 1.325 31.29 7.668 36.76 9.201 5.47 1.534 12.91 6.133 9.956 14.24-2.954 8.108-13.019 31.658-16.739 39.982-3.719 8.325-13.017 9.092-19.035 7.777z" fill="#FFF"/><path d="M92.806 93.72c-2.686-.751-14.742-3.69-17.279-4.338-2.71-.697-6.95-1.155-8.774 2.982-1.826 4.139-7.035 16.324-8.699 20.54-1.664 4.215.885 5.8 3.355 6.446 2.469.644 15.19 3.691 18.144 4.336 2.951.644 5.81.4 7.635-3.685 1.825-4.084 7.12-16.347 8.57-20.326 1.45-3.975-.271-5.202-2.952-5.955z" fill="#0165A4" fill-rule="nonzero"/></g></svg>