<svg width="235" height="235" viewBox="0 0 235 235" xmlns="http://www.w3.org/2000/svg"><path d="M59.453 121.125c-30.037 0-54.387 24.372-54.387 54.437C5.066 205.628 29.42 230 59.456 230c30.04 0 54.39-24.372 54.39-54.438 0-30.065-24.35-54.437-54.39-54.437h-.003zm0 92.408c-20.94 0-37.916-16.991-37.916-37.951s16.976-37.952 37.916-37.952c20.943 0 37.92 16.992 37.92 37.952-.036 20.944-16.993 37.916-37.92 37.951zM175.61 5c-30.038 0-54.39 24.372-54.39 54.438 0 30.065 24.352 54.437 54.39 54.437 30.04 0 54.39-24.372 54.39-54.437C230 29.372 205.65 5 175.61 5zm0 92.408c-20.94 0-37.917-16.991-37.917-37.951s16.977-37.951 37.917-37.951c20.943 0 37.92 16.99 37.92 37.951-.036 20.944-16.993 37.916-37.92 37.951zM59.453 5C33.56 4.984 11.241 23.236 6.091 48.638.944 74.036 14.395 99.55 38.249 109.636c23.853 10.083 51.506 1.946 66.107-19.458 14.605-21.404 12.117-50.14-5.949-68.711h15.423V5H59.453zm37.92 54.438c0 20.96-16.977 37.951-37.92 37.951-20.94 0-37.916-16.991-37.916-37.951s16.976-37.952 37.916-37.952c20.934.026 37.904 16.998 37.94 37.952h-.02z" fill="#1B53F0"/></svg>