<svg width="235" height="235" viewBox="0 0 235 235" xmlns="http://www.w3.org/2000/svg"><g fill="#1C347A"><path d="M51.467 15.432H15.772v35.769a122.3 122.3 0 0 1 35.695-35.769zm167.897 34.81v-34.81h-35.066a122.29 122.29 0 0 1 35.066 34.81zM184.812 219.01h34.553v-34.473a122.334 122.334 0 0 1-34.553 34.473zm-169.04-35.43v35.43h35.183a122.299 122.299 0 0 1-35.183-35.43z"/><path d="M229.78 117.39c0-61.696-50.197-111.89-111.897-111.89S5.986 55.694 5.986 117.39c0 61.697 50.198 111.89 111.897 111.89 61.7 0 111.897-50.193 111.897-111.89zm-111.897 81.59c-44.992 0-81.595-36.602-81.595-81.59 0-44.989 36.603-81.59 81.595-81.59 44.991 0 81.595 36.601 81.595 81.59 0 44.988-36.604 81.59-81.595 81.59z"/></g></svg>