<svg width="235" height="235" viewBox="0 0 235 235" xmlns="http://www.w3.org/2000/svg"><path d="M115.701 5L70.753 31l44.948 26.004V5zM65.943 85.812V33.807L20.997 59.81l44.946 26.002zm0 57.86V91.67l-44.946 26 44.946 26.002zm0 57.863V149.53l-44.946 26.001 44.946 26.003zM19.5 120.597v52.005l44.947-26.001L19.5 120.597zm0-57.86v52.003l44.947-26L19.5 62.737zm49.87-28.93v52.005l44.946-26.002-44.947-26.003zM115.7 230v-52.004l-44.947 26.002L115.701 230zm-46.33-80.813v52.005l44.947-26.003-44.947-26.002zM119.3 5v52.004l44.949-26.003L119.298 5zm49.758 28.807v52.005l44.947-26.002-44.947-26.003zm0 57.863v52.003l44.947-26.002-44.947-26.001zm0 109.865l44.947-26.003-44.947-26.001v52.004zm46.443-28.933v-52.005l-44.948 26.004 44.948 26.001zM170.552 88.74l44.948 26V62.737L170.552 88.74zm-4.921-2.928V33.807L120.684 59.81l44.947 26.002zM119.299 230l44.946-26.002-44.946-26.002V230zm46.332-28.808v-52.005l-44.947 26.002 44.947 26.003z" fill="#7193AA"/></svg>