<svg width="235" height="235" viewBox="0 0 235 235" xmlns="http://www.w3.org/2000/svg"><path d="M111.014 6.949c-6.862 2.646-8.006 12.58-2.406 17.154 9.03 7.954 17.343 16.693 26.033 25.024 3.311 3.277 8.586 5.052 12.905 2.697 5.617-2.51 7.29-10.754 3.159-15.26-7.205-7.596-14.801-14.834-22.79-21.61-4.473-4.472-9.645-11.163-16.9-8.005zm79.14 23.077c-10.787 9.098-19.494 20.347-29.36 30.383-4.388 4.421-2.817 13.16 3.003 15.568 4.03 1.861 9.049.939 11.899-2.51 7.818-8.159 15.637-16.318 23.678-24.255 3.67-3.465 7.016-8.62 4.933-13.826-1.366-5.854-9.235-8.006-14.152-5.36zM33.018 31.648c-4.574 3.21-5.77 10.788-1.758 14.918 7.084 7.255 14.237 14.458 22.056 20.927 4.455 3.602 7.99 10.191 14.647 9.167 7.955-.035 11.932-11.198 6.23-16.472-8.62-8.467-17.412-16.78-25.93-25.382-3.79-4.2-10.123-6.248-15.245-3.158zm6.607 50.85c-11.984 8.124-20.28 20.773-30.728 30.776-5.787 5.359-1.793 16.42 6.163 16.727 6.794.82 10.6-5.633 14.68-9.831 6.914-7.802 15.16-14.441 21.493-22.704 5.36-7.458-3.021-18.28-11.608-14.968zm174.106 23.93c-7.562 6.555-13.793 14.628-21.167 21.474-4.456 4.813-11.523 9.49-10.277 17.018.956 7.287 10.908 10.821 16.234 5.786 7.29-6.947 14.357-14.168 20.792-21.917 3.653-4.49 10.294-8.022 9.424-14.713-.188-7.119-9.1-11.506-15.006-7.648zM62.02 159.361c-8.483 7.407-15.653 16.231-23.899 23.947-4.25 4.131-9.832 9.44-7.562 16.012 1.332 6.81 11.335 9.097 16.03 4.352 7.221-7.033 14.373-14.15 20.792-21.917 3.636-4.489 10.277-8.057 9.219-14.783-.137-6.963-8.844-11.043-14.58-7.611zm101.949-.258c-6.59 2.476-7.887 12.393-2.374 16.677 9.117 8.519 17.823 17.496 26.887 26.048 4.49 4.472 13.743 4.319 16.44-1.997 1.912-3.516 1.655-8.415-1.23-11.334-9.337-10.07-19.904-18.844-29.84-28.283-2.68-2.288-6.708-2.202-9.883-1.11zM87.474 183.24c-5.668 2.476-7.375 10.821-3.175 15.31 6.964 7.29 14.168 14.374 21.936 20.81 4.472 3.617 7.938 10.223 14.595 9.438 8.245-.085 12.206-11.368 6.35-16.933-8.894-8.16-17.463-16.66-26.032-25.16-3.398-3.601-8.946-6.026-13.674-3.465zM72.275 15.533c0-5.39-4.37-9.76-9.76-9.76s-9.76 4.37-9.76 9.76 4.37 9.76 9.76 9.76 9.76-4.37 9.76-9.76zm28.449 25.958c0-5.39-4.37-9.76-9.76-9.76s-9.76 4.37-9.76 9.76 4.37 9.759 9.76 9.759 9.76-4.369 9.76-9.76zM24.52 65.336c0-5.389-4.37-9.758-9.76-9.758S5 59.948 5 65.336c0 5.39 4.37 9.76 9.76 9.76s9.76-4.37 9.76-9.76zM179.455 14.76c0-5.39-4.37-9.759-9.76-9.759s-9.76 4.369-9.76 9.76c0 5.389 4.37 9.758 9.76 9.758s9.76-4.37 9.76-9.759zM230 62.888c0-5.39-4.37-9.76-9.76-9.76s-9.76 4.37-9.76 9.76 4.37 9.76 9.76 9.76 9.76-4.37 9.76-9.76zM203.326 90.93c0-5.39-4.37-9.758-9.76-9.758s-9.76 4.369-9.76 9.758c0 5.39 4.37 9.759 9.76 9.759s9.76-4.37 9.76-9.759zm26.629 78.818c0-5.39-4.37-9.76-9.76-9.76s-9.76 4.37-9.76 9.76 4.37 9.759 9.76 9.759 9.76-4.37 9.76-9.759zm-76.117 23.797c0-5.39-4.37-9.76-9.76-9.76s-9.76 4.37-9.76 9.76 4.37 9.76 9.76 9.76 9.76-4.37 9.76-9.76zm28.08 26.695c0-5.388-4.37-9.758-9.76-9.758-5.391 0-9.76 4.37-9.76 9.758a9.76 9.76 0 0 0 9.76 9.76c5.39 0 9.76-4.369 9.76-9.76zm-106.884 0c0-5.39-4.37-9.759-9.76-9.759s-9.76 4.37-9.76 9.76c0 5.389 4.37 9.758 9.76 9.758s9.76-4.37 9.76-9.759zm-23.805-76.437c0-5.39-4.37-9.76-9.76-9.76s-9.76 4.37-9.76 9.76 4.37 9.759 9.76 9.759 9.76-4.37 9.76-9.759zM24.52 172.167c0-5.39-4.37-9.759-9.76-9.759S5 166.778 5 172.168c0 5.389 4.37 9.758 9.76 9.758s9.76-4.37 9.76-9.759z" fill="#03E8B0"/></svg>