<svg width="235" height="235" viewBox="0 0 235 235" xmlns="http://www.w3.org/2000/svg"><path d="M224.78 126.428l-7.81-8.19c.26-17.359-4.762-34.52-14.455-49.744 3.061-11.082 8.878-33.347 7.97-39.465-1.22-8.248-9.768-21.692-30.227-19.86-14.041 1.258-26.495 10.05-32.93 15.442-26.677-10.653-51.21-10.105-71.47-4.86-6.85-4.423-18.734-10.177-27.39-4.02-7.902 5.622-10.51 15.23-11.35 21.815a.256.256 0 0 0-.059.038S5 57.134 5 105.713c0 27.303 9.357 47.269 22.92 62.288.402 6.018 1.801 13.478 6.087 16.224 3.776 2.418 9.935 2.444 15.2 1.85 5.092 3.394 10.354 6.424 15.638 9.148 9.308 4.798 21.08 9.442 34.133 12.206 5.606 7.753 16.15 19.777 27.543 19.568 12.181-.222 21.443-12.484 25.86-21.776 13.471-4.526 26.75-12.652 38.895-25.77 7.95 4.627 21.646-3.06 30.854-17.438 9.352-14.593 10.539-30.52 2.65-35.585zm-96.428-85.482s-16.955-10.728-33.263-12.628c-16.305-1.9-28.801.484-33.095.508l8.344-3.31s11.258-5.072 36.947-1.526c22.134 3.055 31.296 10.996 31.296 10.996l-10.23 5.96zm49.659 73.194c-3.65.147-6.833-5.427-7.109-12.446-.275-7.02 2.462-12.822 6.112-12.967 3.652-.145 6.835 5.43 7.108 12.45.278 7.017-2.458 12.82-6.111 12.963zm17.936-9.978c-3.094.126-5.791-4.6-6.026-10.553-.232-5.947 2.088-10.87 5.183-10.991 3.096-.125 5.793 4.601 6.025 10.553.237 5.95-2.086 10.873-5.182 10.991zm14.593 53.37c-.548 5.234-3.101 9.248-5.706 8.976-2.598-.27-4.26-4.727-3.71-9.963.55-5.233 3.104-9.25 5.703-8.971 2.599.267 4.26 4.732 3.713 9.957zm12.553-11.905c-.498 4.777-2.748 8.449-5.017 8.21-2.266-.235-3.7-4.296-3.201-9.075.503-4.772 2.749-8.448 5.02-8.206 2.267.235 3.699 4.298 3.198 9.071z" fill="#EA8396"/></svg>