<svg width="235" height="235" viewBox="0 0 235 235" xmlns="http://www.w3.org/2000/svg"><g transform="translate(5 5)" fill="none" fill-rule="evenodd"><circle fill="#FFF" cx="112.5" cy="112.5" r="112.5"/><path d="M115.625 166.667c-9.78 0-18.968-2.544-26.935-7.005-.643-.36-1.19 57.005-1.19 61.171-14.583-5.208-14.583-4.978-27.044-11.458 0-3.17.124-92.513 0-95.814a56.19 56.19 0 0 1-.04-2.103c0-30.49 24.718-55.208 55.209-55.208 30.49 0 55.208 24.718 55.208 55.208 0 30.491-24.717 55.209-55.208 55.209zm0-29.167c14.382 0 26.042-11.66 26.042-26.042 0-14.382-11.66-26.041-26.042-26.041-14.382 0-26.042 11.659-26.042 26.041 0 14.383 11.66 26.042 26.042 26.042z" fill="#FF7BAC"/><path d="M192.045 189.08c-19.64 20.395-47.047 33.255-77.462 33.817V193.75c22.66 0 43.155-9.277 57.892-24.24l19.57 19.57zm-.096-153.26l-19.57 19.572c-14.73-14.906-35.184-24.142-57.796-24.142-44.873 0-81.25 36.377-81.25 81.25 0 2.813.143 5.594.422 8.333h-.422v68.638c-19.34-19.888-31.25-47.039-31.25-76.971C2.083 51.519 51.52 2.083 112.5 2.083c31.195 0 59.369 12.937 79.45 33.738z" fill="#B3B3B3"/></g></svg>