<svg width="235" height="235" viewBox="0 0 235 235" xmlns="http://www.w3.org/2000/svg"><defs><linearGradient x1="8.998%" y1="6.265%" x2="96.996%" y2="96.311%" id="a"><stop stop-color="#3E3353" offset="0%"/><stop stop-color="#7F69AC" offset="100%"/></linearGradient><linearGradient x1="0%" y1="32.601%" y2="58.029%" id="b"><stop stop-color="#332A3F" offset="0%"/><stop stop-color="#9077C2" offset="100%"/></linearGradient><linearGradient x1="0%" y1="1.707%" x2="77.18%" y2="87.211%" id="c"><stop stop-color="#2A2334" offset="0%"/><stop stop-color="#372F44" offset="100%"/></linearGradient></defs><g fill="none"><path d="M117.907 5L26 24.183v127.203c0 18.624 19.108 36.224 39.801 49.913 16.215 10.616 33.183 19.928 50.707 28.03l1.49.562 1.492-.562c3.728-1.397 90.509-38.273 90.509-77.943V24.183L117.907 5zm84.636 146.386c0 27.75-59.748 57.083-84.636 66.861l-1.212-.465-.466-.187-.84-.372-.465-.187-.84-.372-.279-.093-1.025-.466-.28-.093-1.118-.466-.187-.093-1.211-.465h-.092l-1.398-.563h-.094c-12.397-5.494-28.522-13.595-42.69-23.093l-1.678-1.118-1.678-1.211-1.584-1.118-.094-.093-1.49-1.118-.094-.093-1.493-1.109-.094-.093-1.49-1.118-.188-.093-1.398-1.024-.187-.094-1.305-1.024-.187-.187-1.212-1.024-.187-.187-1.118-1.024-.28-.187-1.025-1.024-.28-.28-1.025-1.023-.28-.28-1.025-.93-.28-.28-.932-.93-.28-.372-.838-.931-.28-.373-.838-.93-.28-.373-.745-.93-.373-.373-.652-.838-.373-.465-.652-.838-.372-.466-.563-.837-.28-.466-.563-.837-.279-.563c-.187-.279-.28-.562-.466-.745l-.373-.562a2.787 2.787 0 0 1-.372-.746l-.28-.562c-.093-.279-.279-.466-.372-.746a3.1 3.1 0 0 0-.28-.562 6.412 6.412 0 0 1-.279-.745c-.093-.28-.187-.373-.28-.653a4.537 4.537 0 0 0-.279-.652 1.725 1.725 0 0 1-.186-.652c0-.187-.187-.465-.187-.652a1.725 1.725 0 0 0-.187-.652c-.094-.187-.094-.372-.187-.652-.094-.28-.094-.466-.187-.746a1.382 1.382 0 0 1-.094-.562c0-.187-.093-.466-.093-.746 0-.28-.094-.372-.094-.562a3.452 3.452 0 0 0-.187-.838c-.093-.278 0-.278 0-.465V30.981l84.179-13.5h.745l84.176 13.5.094 120.406h-.006z" fill="#5E4778"/><path d="M117.907 26.79L54.152 37.034l-13.145 2.049v109.044c0 25.236 54.342 51.962 76.9 60.809 13.142-5.122 37.004-16.297 54.622-29.705 1.305-1.025 2.702-2.05 3.915-3.074 6.058-4.935 11.092-10.15 14.355-15.457 2.517-4.098 4.008-8.288 4.008-12.481V39.083l-76.9-12.293zM80.808 84.618h44.835v9.313H80.808v-9.313zm87.433 4.378c0 22.069-15.38 36.319-36.632 36.319h-29.455v46.56H90.502V114.79h39.526c15.846 0 26.192-9.591 26.192-25.794 0-16.017-10.346-25.33-26.007-25.33h-12.306l-29.455.094V53.144h43.06c21.347 0 36.727 13.782 36.727 35.852h.002z" fill="#5E4778"/><path d="M105.513 120.22h-29.36v5.492A121.201 121.201 0 0 0 92 136.422c18.549 10.616 42.411 17.787 72.892 19.183 2.516-4.097 4.007-8.288 4.007-12.48V34.082L92 21.79 28.152 32.034c2.983 23.933 11.838 56.99 36.353 82.971v-5.215h39.525c15.846 0 26.192-9.591 26.192-25.794 0-16.017-10.346-25.33-26.006-25.33h-12.31l-29.454.094V48.144h43.06c21.253 0 36.633 13.875 36.633 35.757 0 22.07-15.286 36.32-36.632 36.32v-.002zM91.907 79.617h7.638v9.313H54.808v-9.313h37.099z" fill="url(#a)" transform="translate(26 5)"/><path d="M57.78 36.455c-.806.13-2.015.322-3.628.58 2.983 23.932 11.838 56.989 36.353 82.97v-5.215h39.525c15.846 0 26.192-9.591 26.192-25.794 0-16.017-10.346-25.33-26.006-25.33h-12.31l-29.454.094V53.144h43.06c21.253 0-39.25 0-73.731-16.689zm60.127 48.163h7.638v9.313H80.808v-9.313h37.099z" fill="#332A44"/><path d="M91.999 224.723v.168l-1.491-.562c-17.524-8.102-34.492-17.414-50.707-28.03C19.108 182.609 0 165.01 0 146.386V19.183L91.907 0l91.912 19.183v127.103c0 39.67-86.781 76.546-90.51 77.943l-1.31.494zm-.18-11.545v-.027c24.888-9.778 84.636-39.112 84.636-66.862V25.981l-84.176-13.5h-.745l-84.176 13.5v121.596c0 .186-.094.186 0 .465.097.27.16.552.187.838 0 .19.093.282.093.562 0 .28.094.56.094.746-.009.192.023.383.093.562.094.28.094.466.187.746.093.28.093.465.187.652.105.203.168.424.187.652 0 .183.187.466.187.745.005.23.07.455.187.653.11.21.203.427.279.652.092.28.186.373.28.652.077.254.17.503.279.745a3.1 3.1 0 0 1 .279.563c.093.28.279.466.372.745l.28.562.372.746.373.562c.187.183.28.467.466.746l.28.465.563.838.279.465.563.838.373.466.652.837.372.466.652.837.373.373.84.745.278.372.84.931.279.373.838.93.28.373.932.93.28.28 1.025.93.28.28 1.025 1.024.28.279 1.025 1.024.28.187 1.118 1.024.187.187 1.212 1.024.185.179 1.305 1.024.187.094 1.399 1.024.187.093 1.49 1.118.094.093 1.491 1.118.094.093 1.49 1.118.094.093 1.584 1.118 1.678 1.303 1.678 1.118c14.168 9.591 30.295 17.693 42.598 23.187h.094l1.398.562h.185l1.212.562.187.094 1.118.465.279.094 1.026.465.28.093.838.373.466.186.84.28.465.186 1.03.396z" fill="url(#b)" transform="translate(26 5)"/><path d="M76.06 125.712v41.155H64.411v-51.863c-24.517-26.073-33.279-59.132-36.26-82.97l-13.144 2.049v109.044c0 25.236 54.342 51.962 76.9 60.809 13.142-5.122 37.004-16.297 54.622-29.705 1.305-1.025 2.702-2.05 3.915-3.074 6.058-4.935 11.092-10.15 14.355-15.457-30.48-1.583-54.25-8.754-72.891-19.276a121.257 121.257 0 0 1-15.848-10.712z" fill="url(#c)" transform="translate(26 5)"/></g></svg>