<svg width="235" height="235" viewBox="0 0 235 235" xmlns="http://www.w3.org/2000/svg"><g fill="none" fill-rule="evenodd"><path d="M230 117.5c0 62.132-50.367 112.5-112.5 112.5C55.369 230 5 179.632 5 117.5S55.368 5 117.5 5 230 55.368 230 117.5" fill="#383A60"/><path d="M123.147 76.954h16.509c7.37 0 13.344 5.974 13.344 13.344v44.14c0 7.369-5.974 13.343-13.344 13.343h-16.509V195H101.53V76.954h21.618zm0 9.238v52.351h4.126a3.08 3.08 0 0 0 3.08-3.08V89.273a3.08 3.08 0 0 0-3.08-3.08h-4.126zM111.31 73.874c-9.38 0-16.985-7.583-16.985-16.937 0-9.354 7.604-16.937 16.985-16.937 9.38 0 16.985 7.583 16.985 16.937 0 9.354-7.604 16.937-16.985 16.937zm-26.256 2.053h12.359v71.854H85.053A2.053 2.053 0 0 1 83 145.728V77.98c0-1.134.92-2.053 2.053-2.053z" fill="#FFF"/></g></svg>