<svg width="235" height="235" viewBox="0 0 235 235" xmlns="http://www.w3.org/2000/svg"><g fill="none" fill-rule="evenodd"><path d="M117.5 5C55.368 5 5 55.368 5 117.5S55.368 230 117.5 230 230 179.632 230 117.5 179.632 5 117.5 5z" fill="#105B2F" fill-rule="nonzero"/><path d="M192.032 88.408c-5.684 46.818-51.328 50.698-71.038 50.698h-40.86l-10.726 55.618H42.02L60.76 98.35H44.772l3.477-18.417h16.093l7.526-38.722h55.647c37.207-.002 69.824 3.47 64.517 47.196z" fill="#FFF"/><path d="M137.802 67.75H93.898l-2.352 12.183h38.722L126.79 98.35H87.994l-2.853 14.794h46.72c15.795 0 30.432-10.441 32.315-26.975 1.885-16.533-14.344-18.419-26.374-18.419z" fill="#105B2F" fill-rule="nonzero"/></g></svg>