<svg width="235" height="235" viewBox="0 0 235 235" xmlns="http://www.w3.org/2000/svg" xmlns:xlink="http://www.w3.org/1999/xlink"><defs><path d="M181 109.116c0 38.09-29.333 51.04-54.024 51.04v9.93h19.05v13.448h-19.05V199h-29.79v-15.466H78.97v-13.449h18.173V160.03c-7.897 0-53.144-1.887-53.144-53.68V44H73.58v64.74c0 27.027 23.688 26.775 23.688 26.775V44h29.707v91.515s24.442 1.381 24.442-27.151V44H181v65.116z" id="a"/><filter x="-3.6%" y="-3.2%" width="107.3%" height="106.5%" filterUnits="objectBoundingBox" id="b"><feGaussianBlur stdDeviation="3.5" in="SourceAlpha" result="shadowBlurInner1"/><feOffset dx="3" dy="3" in="shadowBlurInner1" result="shadowOffsetInner1"/><feComposite in="shadowOffsetInner1" in2="SourceAlpha" operator="arithmetic" k2="-1" k3="1" result="shadowInnerInner1"/><feColorMatrix values="0 0 0 0 0 0 0 0 0 0 0 0 0 0 0 0 0 0 0.613592618 0" in="shadowInnerInner1"/></filter></defs><g fill="none" fill-rule="evenodd"><path d="M117.501 5C179.632 5 230.001 55.368 230 117.499 230 179.63 179.632 230 117.501 230 55.368 230 5 179.631 5 117.499 5 55.368 55.368 5 117.501 5zM186 114.116V49h-29.582v64.364c0 28.532-24.442 27.15-24.442 27.15V49h-29.707v91.515s-23.688.252-23.688-26.775V49H49v62.35c0 51.792 45.247 53.68 53.144 53.68v10.055H83.971v13.45h18.214V204h29.79v-15.466h19.051v-13.449h-19.05v-9.93c24.691 0 54.024-12.949 54.024-51.04z" fill="#FEDD1C" fill-rule="nonzero"/><g transform="translate(5 5)"><use fill-opacity="0" fill="#FEDD1C" xlink:href="#a"/><use fill="#000" filter="url(#b)" xlink:href="#a"/></g></g></svg>