<svg width="235" height="235" viewBox="0 0 235 235" xmlns="http://www.w3.org/2000/svg" xmlns:xlink="http://www.w3.org/1999/xlink"><defs><linearGradient x1="2.384%" y1="49.245%" y2="49.245%" id="a"><stop stop-color="#AE024F" offset="0%"/><stop stop-color="#C93C56" offset="13.933%"/><stop stop-color="#D5AC5E" offset="27.82%"/><stop stop-color="#A89B70" offset="41.643%"/><stop stop-color="#4FB1E5" offset="57.264%"/><stop stop-color="#4AAEE4" offset="75.054%"/><stop stop-color="#2258D5" offset="86.761%"/><stop stop-color="#380DB5" offset="100%"/></linearGradient><path d="M181.178 72.87c-8.017-13.897-25.79-18.658-39.695-10.634a28.934 28.934 0 0 0-7.983 6.838c-.004-.003-.01-.003-.015-.007-4.761 6.812-12.65 11.28-21.586 11.28-8.944 0-16.828-4.468-21.59-11.28-.006.004-.02.007-.025.011-2.172-2.668-4.828-5.012-7.983-6.834-13.897-8.021-31.668-3.263-39.69 10.635-8.024 13.893-3.259 31.665 10.638 39.69 2.986 1.718 6.158 2.808 9.368 3.384 8.48.57 16.528 5.224 21.081 13.143 4.46 7.76 4.52 16.836.976 24.363.029.02.055.05.087.067-1.219 3.204-1.918 6.67-1.918 10.3 0 16.048 13.008 29.06 29.056 29.06 16.042 0 29.05-13.013 29.05-29.06 0-3.446-.644-6.738-1.75-9.81-3.744-7.628-3.74-16.924.841-24.825 4.48-7.73 12.29-12.311 20.564-13.02.005-.037.014-.075.017-.11a28.95 28.95 0 0 0 9.921-3.499c13.895-8.027 18.656-25.797 10.636-39.692zM111.9 134.48c-11.934 0-21.604-9.676-21.604-21.607 0-11.93 9.67-21.602 21.604-21.602 11.926 0 21.604 9.671 21.604 21.602 0 11.93-9.678 21.608-21.604 21.608z" id="b"/><filter x="-1.4%" y="-1.5%" width="102.7%" height="103%" filterUnits="objectBoundingBox" id="c"><feGaussianBlur stdDeviation="1.5" in="SourceAlpha" result="shadowBlurInner1"/><feOffset dy="1" in="shadowBlurInner1" result="shadowOffsetInner1"/><feComposite in="shadowOffsetInner1" in2="SourceAlpha" operator="arithmetic" k2="-1" k3="1" result="shadowInnerInner1"/><feColorMatrix values="0 0 0 0 0 0 0 0 0 0 0 0 0 0 0 0 0 0 0.5 0" in="shadowInnerInner1"/></filter></defs><g fill="none"><path d="M117.908 5.973C56.098 5.973 6 56.066 6 117.861 6 179.658 56.098 229.78 117.908 229.78c61.782 0 111.887-50.122 111.887-111.919 0-61.795-50.105-111.888-111.887-111.888zm0 208.29c-53.239 0-96.388-43.175-96.388-96.402 0-53.226 43.15-96.37 96.388-96.37 53.214 0 96.374 43.144 96.374 96.37 0 53.227-43.16 96.403-96.374 96.403z" fill="#404040"/><g transform="translate(6 5)"><use fill="url(#a)" fill-rule="evenodd" xlink:href="#b"/><use fill="#000" filter="url(#c)" xlink:href="#b"/></g></g></svg>