<svg width="235" height="235" viewBox="0 0 235 235" xmlns="http://www.w3.org/2000/svg" xmlns:xlink="http://www.w3.org/1999/xlink"><defs><linearGradient x1="50%" y1="0%" x2="50%" y2="100%" id="a"><stop stop-color="#EBEEF8" offset="0%"/><stop stop-color="#BABCC5" offset="100%"/></linearGradient><linearGradient x1="50%" y1="0%" x2="50%" y2="100%" id="b"><stop stop-color="#BB5EF7" offset="0%"/><stop stop-color="#736CDD" offset="100%"/></linearGradient><linearGradient x1="50%" y1="0%" x2="50%" y2="100%" id="e"><stop stop-color="#EDF0FA" offset="0%"/><stop stop-color="#CCCFD7" offset="97.899%"/></linearGradient><path d="M27.574.822c14.774 0 26.752 11.977 26.752 26.752 0 14.774-11.978 26.752-26.752 26.752C12.799 54.326.822 42.348.822 27.574.822 12.799 12.799.822 27.574.822zm0 34.817a8.065 8.065 0 1 0 0-16.13 8.065 8.065 0 0 0 0 16.13zm63.654 82.341c-14.775 0-26.752-11.977-26.752-26.752 0-14.775 11.977-26.752 26.752-26.752 14.775 0 26.752 11.977 26.752 26.752 0 14.775-11.977 26.752-26.752 26.752zm0-18.687a8.065 8.065 0 1 0 0-16.13 8.065 8.065 0 0 0 0 16.13zm-36.902-8.065c0 14.775-11.977 26.752-26.752 26.752-14.775 0-26.752-11.977-26.752-26.752 0-14.775 11.977-26.753 26.752-26.753 20.38 0 36.901-16.521 36.901-36.901C64.475 12.799 76.453.822 91.228.822s26.752 11.977 26.752 26.752c0 14.775-11.977 26.752-26.752 26.752-20.38 0-36.902 16.522-36.902 36.902zm-26.752 8.065a8.065 8.065 0 1 0 0-16.13 8.065 8.065 0 0 0 0 16.13zM91.228 35.64a8.065 8.065 0 1 0 0-16.13 8.065 8.065 0 0 0 0 16.13z" id="d"/><filter x="-2.1%" y="-1.3%" width="104.3%" height="105.1%" filterUnits="objectBoundingBox" id="c"><feOffset dy="2" in="SourceAlpha" result="shadowOffsetOuter1"/><feGaussianBlur stdDeviation=".5" in="shadowOffsetOuter1" result="shadowBlurOuter1"/><feColorMatrix values="0 0 0 0 0 0 0 0 0 0 0 0 0 0 0 0 0 0 0.317764946 0" in="shadowBlurOuter1"/></filter></defs><g fill="none" fill-rule="evenodd"><path d="M112.5 0C50.397 0 0 50.397 0 112.5S50.397 225 112.5 225 225 174.603 225 112.5 174.603 0 112.5 0z" fill="url(#a)" transform="translate(5 5)"/><path d="M112.5 9C55.365 9 9 55.365 9 112.5S55.365 216 112.5 216 216 169.635 216 112.5 169.635 9 112.5 9z" fill="url(#b)" transform="translate(5 5)"/><g transform="translate(58 58)"><use fill="#000" filter="url(#c)" xlink:href="#d"/><use fill="url(#e)" xlink:href="#d"/></g></g></svg>