<svg width="235" height="235" viewBox="0 0 235 235" xmlns="http://www.w3.org/2000/svg"><g fill="none"><path fill="#2C839A" d="M118 80.086V5L21 61.057 86.01 98.6 118 80.086"/><path fill="#40B299" d="M86.01 98.6L21 61.057v56.057h65.01V98.6"/><path fill="#1FB0E6" d="M149.99 98.6v18.514H215V61.057L149.99 98.6"/><path fill="#6CCEF5" d="M149.99 98.6L215 61.057 118 5v75.086L149.99 98.6"/><path fill="#BBD631" d="M86.01 117.114H21v55.929L86.01 135.5z"/><path fill="#49B749" d="M86.01 135.5L21 173.043l97 56.057v-75.086L86.01 135.5"/><path fill="#1993D2" d="M149.99 117.114V135.5L118 154.014V229.1l97-56.057v-55.929h-65.01"/><path fill="#C5C7C9" d="M118 80.086L86.01 98.6 118 117.114V80.086"/><path fill="#F0F1F1" d="M118 80.086v37.028L149.99 98.6 118 80.086"/><path fill="#DCDDDE" d="M86.01 98.6v18.514H118L86.01 98.6"/><path fill="#DEDFE1" d="M149.99 98.6L118 117.114h31.99V98.6"/><path fill="#CBCDCF" d="M149.99 117.114H118v36.9l31.99-18.514v-18.386"/><path fill="#EBECED" d="M118 117.114H86.01V135.5L118 117.114"/><path fill="#D9DADC" d="M118 117.114L86.01 135.5 118 154.014v-36.9"/></g></svg>