<svg width="235" height="235" viewBox="0 0 235 235" xmlns="http://www.w3.org/2000/svg"><g fill="none"><path d="M121.783 20.67a106.2 106.2 0 0 0-10.723-.541c-30.996 0-58.852 13.446-78.064 34.806l16.867 45.546 76.02-26.3-4.1-53.51z" fill="#0089CE"/><path fill="#E30613" d="M85.383 194.34l46.97-38.208-6.47-81.951-51.02 93.805 10.52 26.354"/><path d="M131.82 156.471l-46.438 37.867 12.968 34.891a105.57 105.57 0 0 0 39.463-2.678l-5.46-70.425-.532.43-.002-.085z" fill="#E9453F"/><path fill="#CA1416" d="M125.911 74.566l-.028-.385-76.019 26.3 25 67.505 51.047-93.42"/><path d="M32.996 54.935C18.343 71.232 8.724 92.14 6.575 115.22l43.288-14.738-16.867-45.547z" fill="#0156A3"/><path d="M49.863 100.481L6.575 115.219a106.267 106.267 0 0 0-.464 9.844c0 36.163 18.296 68.053 46.137 86.922l22.615-44" fill="#149F39"/><path d="M74.863 167.986l-22.615 44c2.653 1.8 5.391 3.477 8.214 5.03l24.92-22.678-10.519-26.352z" fill="#28A737"/><path d="M60.462 217.014a104.25 104.25 0 0 0 37.888 12.218l-12.968-34.894" fill="#82BB2B"/><path d="M137.814 226.554c45.005-11.828 78.196-52.78 78.196-101.49a104.825 104.825 0 0 0-5.141-32.512l-78.512 63.576 5.457 70.426z" fill="#FECC00"/><path d="M149.521 27.4l-23.638 46.78.028.385 6.443 81.563 78.511-63.576c-9.7-29.791-32.366-53.733-61.344-65.152" fill="#EF7900"/><path d="M125.883 74.18l23.638-46.78a104.319 104.319 0 0 0-27.739-6.73l4.074 53.18.027.33z" fill="#23A9E1"/><path d="M129.198 50.258l2.41-10.8c31.436 13.102 50.98 33.305 61.566 59.002l-9.43 6.621c-12.478-25.669-30.072-44.707-54.546-54.823" fill="#000"/><path d="M228.918 49.22C228.918 24.8 209.116 5 184.694 5c-24.422 0-44.225 19.8-44.225 44.22.001 2.325.184 4.648.547 6.945 14.723 8.663 26.553 21.086 36.004 36.596 2.536.447 5.105.673 7.68.675 24.416.002 44.218-19.795 44.218-44.217z" fill="#E30613"/></g></svg>