<svg width="235" height="235" viewBox="0 0 235 235" xmlns="http://www.w3.org/2000/svg"><g fill="none" fill-rule="evenodd"><path d="M117.5 230c30.419-30 52.46-52.015 66.123-66.045C205.764 140.75 211 116.968 211 98.75 211 46.973 169.139 5 117.5 5S24 46.973 24 98.75c0 23.366 10.472 48.75 27.496 65.19C73.557 185.98 95.56 208 117.5 230z" fill="#4C4C4C"/><path d="M117.5 221.622c28.469-28.085 49.097-48.695 61.885-61.829 20.721-21.724 25.621-43.988 25.621-61.043 0-48.472-39.178-87.766-87.506-87.766S29.994 50.278 29.994 98.75c0 21.875 9.8 45.638 25.733 61.029a48244.839 48244.839 0 0 1 61.773 61.843z" fill="#FFF"/><g fill-rule="nonzero"><path d="M99.177 114.225h20.415c17.228 0 17.228-6.801 17.228-12.268 0-12.274-8.877-12.274-12.667-12.274h-87.6a80.272 80.272 0 0 0-.46 8.522c0 22.272 9.096 42.43 23.836 57.02l57.518 57.021 20.384-20.2-38.654-77.821z" fill="#0E4A86"/><path d="M198.798 98.206c0-44.543-36.425-80.645-81.352-80.645-32.78 0-60.949 19.254-73.836 46.937h80.542c26.303 0 38.077 18.815 38.077 37.46 0 17.193-8.567 29.314-23.667 34.551l18.238 36.734 18.175-18.01c14.727-14.598 23.823-34.755 23.823-57.027z" fill="#5286B6"/></g></g></svg>