<svg width="235" height="235" viewBox="0 0 235 235" xmlns="http://www.w3.org/2000/svg"><defs><linearGradient x1="0%" y1="0%" y2="0%" id="a"><stop stop-color="#11AAE2" offset="0%"/><stop stop-color="#0880B7" offset="59%"/><stop stop-color="#016197" offset="100%"/></linearGradient></defs><path d="M150.997 11.053c-14.775 8.685-23.523 24.369-23.523 40.908 0 8.685 3.485 17.437 7.849 25.246 3.485 6.975 5.194 19.148-6.971 25.246-8.68 5.197-20.038 1.732-25.232-6.975-5.196-6.975-11.29-13.95-19.138-19.149-14.775-8.685-32.204-8.685-46.98 0C22.226 85.014 13.5 100.737 13.5 117.28s8.68 32.221 23.498 40.93c14.775 8.685 32.204 8.685 46.98 0 7.85-4.365 13.942-11.295 18.262-19.149 3.485-6.097 13.065-13.95 25.232-6.975 8.68 5.198 11.289 16.562 6.97 25.247-4.362 7.852-6.97 16.56-6.97 25.246 0 16.56 8.68 32.22 23.523 40.907 14.774 8.685 32.204 8.685 46.98 0 14.776-8.685 23.525-24.369 23.525-40.907 0-16.539-8.703-32.221-23.523-40.93-7.849-4.365-16.552-6.098-26.11-6.098-7.85 0-18.262-5.197-18.262-18.27 0-10.463 7.85-18.272 18.262-18.272 8.68 0 18.261-1.732 26.11-6.097 14.775-8.685 23.523-24.369 23.523-40.906 0-16.538-8.703-32.222-23.523-40.908-6.97-4.365-15.653-6.097-23.498-6.097-7.804-.045-16.553 1.732-23.479 6.052" fill="url(#a)"/></svg>