<svg width="235" height="235" viewBox="0 0 235 235" xmlns="http://www.w3.org/2000/svg"><g fill="#D80020"><path d="M117.653 79.946l25.49-21.908-25.49-11.222-25.488 11.222 25.488 21.908zm38.706-33.268h-31.568l20.877 9.191 10.691-9.19zM83.845 80.426l3.38-19.2-24.478 19.2h21.098zm67.463 3.002l-15.757 50.426 38.33-50.426h-22.573zM90.4 60.478l-3.51 19.949h26.715L90.4 60.479zm9.358 73.376L84 83.428H61.427l38.33 50.426zm76.063-54.687l4.085-26.111-19.157-6.192-12.458 10.709 27.53 21.594zm20.116 1.259L182.4 56.508l-3.74 23.918h17.276zm-80.173 3.002h-28.62l16.388 52.443 12.232-52.443zm16.013 52.443l16.386-52.443h-28.618l12.232 52.443zm80.932-55.445L187.05 58.631l12.334 21.795h13.325zm-40.148 0l-24.479-19.2 3.383 19.2h21.096zm-50.858 0h26.714l-3.509-19.945-23.205 19.945zm-65.055 0l-3.74-23.918-13.535 23.918h17.275zm76.273 61.845l-11.915 38.122 28.692-30.145 22.218-59.272-38.995 51.295zm45.027-58.843l-21.245 56.68 38.952-56.68h-17.707zm-60.295 5.1l-12.359 52.989 12.359 39.548 12.359-39.551-12.36-52.985z"/><path d="M161.748 36.666H73.56L49.51 44.44 6.149 81.273l111.505 117.156L229.158 81.273 185.8 44.44l-24.052-7.775zm56.056 44.159c.04.036.076.076.113.116.03.033.06.067.086.104.056.081.106.166.15.254.022.051.038.103.057.155.014.042.03.085.04.128.012.051.018.105.025.158.004.036.015.072.017.109 0 .012-.003.026-.002.039 0 .012.004.024.004.04 0 .04-.01.076-.013.118-.004.047-.006.096-.014.142-.01.057-.026.107-.04.16-.015.044-.026.087-.043.127-.02.053-.044.104-.071.153-.022.037-.038.075-.062.114-.033.048-.07.089-.105.134-.023.028-.042.06-.067.086l-99.14 104.169a1.636 1.636 0 0 1-.325.253c-.02.013-.04.015-.06.025-.08.045-.164.083-.251.112-.033.01-.067.022-.099.029a1.77 1.77 0 0 1-.347.05h-.007a1.535 1.535 0 0 1-.347-.05c-.033-.008-.066-.02-.1-.03a1.679 1.679 0 0 1-.255-.11c-.018-.01-.038-.013-.056-.026-.009-.003-.013-.01-.024-.018a1.675 1.675 0 0 1-.302-.235L17.428 82.962c-.025-.026-.044-.058-.068-.087-.037-.044-.075-.085-.103-.133-.024-.04-.043-.077-.063-.114-.026-.052-.053-.101-.074-.153-.016-.04-.027-.083-.04-.126a1.409 1.409 0 0 1-.041-.16c-.008-.048-.01-.099-.013-.145-.004-.04-.013-.076-.013-.117 0-.015.003-.026.004-.04 0-.013-.004-.026-.002-.038.002-.038.011-.073.016-.11.008-.052.014-.106.024-.157a.942.942 0 0 1 .042-.128c.016-.052.034-.105.057-.155.019-.04.042-.078.063-.117.028-.047.054-.093.085-.137a2.06 2.06 0 0 1 .198-.22c.015-.015.025-.03.042-.043L52.75 50.875c.021-.019.051-.024.073-.04.115-.088.239-.159.372-.21.024-.008.04-.026.064-.035l21.175-6.843c.008-.004.02-.003.027-.005.127-.038.258-.057.39-.062.014-.001.03-.005.043-.005h85.512c.014 0 .026.004.038.004.134.005.27.025.398.063l.023.005 21.177 6.843c.027.01.047.032.074.043.124.046.237.112.345.193.028.02.064.027.09.05l35.21 29.907c.016.012.03.026.042.042z"/><path d="M110.517 46.678h-31.57l10.695 9.191 20.875-9.19zm52.413 89.662l50.363-52.912h-13.997L162.93 136.34zM63.394 90.976l22.217 59.272 28.69 30.145-11.913-38.122-38.994-51.295zm23.622-33.403L74.56 46.864l-19.158 6.192 4.086 26.11 27.53-21.593zm-38.76 1.058L22.603 80.426h13.323l12.332-21.795zm-26.24 24.797l50.361 52.912L36.01 83.428H22.015zm17.637 0l38.952 56.68-21.244-56.68H39.653z"/></g></svg>