<svg width="235" height="235" viewBox="0 0 235 235" xmlns="http://www.w3.org/2000/svg"><g fill="none"><path d="M95.15 208.218C45.089 195.8 14.559 145.128 26.97 95.032c8.327-33.63 34.57-59.89 68.18-68.227V7.268C34.303 19.65-4.983 79.044 7.39 139.935c8.995 44.245 43.546 78.828 87.76 87.82v-19.537zm15.18-183.84V5.261c2.426-.149 4.828-.261 7.32-.261 3.678.007 7.353.193 11.026.556v19.152a94.253 94.253 0 0 0-11.025-.647c-2.46 0-4.895.125-7.32.317zm18.35 185.935v19.129c-3.664.37-7.344.555-11.026.556a112.4 112.4 0 0 1-7.32-.261v-19.095c2.425.192 4.827.317 7.32.317a94.24 94.24 0 0 0 11.025-.647z" fill="#231F20"/><path d="M143.852 8.107v19.688a93.702 93.702 0 0 1 60.102 53.95H182.56c-19.74-35.857-64.779-48.92-100.621-29.167-35.843 19.753-48.883 64.825-29.145 100.688 19.739 35.863 64.781 48.916 100.622 29.165a74.13 74.13 0 0 0 32.72-36.614h20.544a93.658 93.658 0 0 1-62.82 61.425v19.673c60.362-14.548 97.517-75.302 82.99-135.705-9.88-41.076-41.93-73.15-82.982-83.046l-.011-.057h-.005zm-8.748 157.579l-21.664-30.787H77.372v-18.913h42.345c10.345 0 14.063-6.486 14.063-14.208s-4.68-14.775-15.172-14.775H77.383V69.341h43.388c13.745 0 35.592 6.075 35.592 31.75s-19.309 30.785-19.309 30.785l24.838 33.825h-26.708l-.08-.012v-.003z" fill="#D31F26"/></g></svg>