<svg width="235" height="235" viewBox="0 0 235 235" xmlns="http://www.w3.org/2000/svg"><g fill="#0072BB"><path d="M182.773 97.34h-61.138l-3.288-1.642c-8.13-4.098-13.455-6.56-13.455-12.027 0-5.743 5.887-8.75 13.455-8.75 8.972 0 17.382 5.194 25.792 13.4l22.989-22.697c-12.055-15.583-29.716-24.065-49.06-24.065-28.598 0-48.22 19.14-48.22 41.836 0 4.947.951 9.564 2.699 13.945H52.005v16.61h32.646c3.233 2.898 7.02 5.66 11.31 8.306H52.004v16.61h74.873c5.096 3.451 8.01 6.97 8.01 11.25 0 6.565-7.29 11.758-16.54 11.758-9.811 0-22.43-7.11-31.122-16.949L64.24 169.533c12.897 16.399 30.559 24.881 52.144 24.881 32.522 0 53.547-19.414 53.547-45.391 0-3.656-.516-6.976-1.26-10.157h14.103v-16.61H160.22c-2.548-2.943-5.717-5.666-9.228-8.305h31.78V97.339z"/><path d="M117.389 5C55.419 5 5 55.419 5 117.389s50.419 112.39 112.39 112.39c61.971 0 112.39-50.419 112.39-112.39C229.78 55.418 179.361 5 117.389 5zm0 202.161c-49.499 0-89.77-40.268-89.77-89.771 0-49.501 40.27-89.77 89.77-89.77 49.5 0 89.769 40.269 89.769 89.77.001 49.503-40.269 89.771-89.769 89.771z"/></g></svg>