<svg width="235" height="235" viewBox="0 0 235 235" xmlns="http://www.w3.org/2000/svg"><defs><linearGradient x1="50%" y1="0%" x2="50%" y2="175.13%" id="a"><stop stop-color="#00FFC2" offset="0%"/><stop stop-color="#00D9A5" offset="37.972%"/><stop stop-color="#00A07A" offset="100%"/></linearGradient></defs><path d="M192.012 80.423a81 81 0 0 0-77.47-4.635 37.117 37.117 0 0 1-40.055-6.203l-1.496-1.426-29.578-29.592a16.905 16.905 0 0 1-4.205-13.192 17.621 17.621 0 0 0 0-3.137A17.113 17.113 0 0 0 27.985 6.043a17.1 17.1 0 0 0-19.02 5.116 17.12 17.12 0 0 0-1.6 19.641 17.102 17.102 0 0 0 17.945 8.124 17.028 17.028 0 0 1 13.256 4.136l29.791 29.806 1.14 1.283a37.236 37.236 0 0 1 6.2 40.145c-14.554 30.862-8.197 67.543 15.894 91.7a82.87 82.87 0 0 0 50.673 23.816c4.775.428 72.84 0 72.84 0a14.892 14.892 0 0 0 10.12-4.42 16.119 16.119 0 0 0 4.774-10.483v-65.958a79.33 79.33 0 0 0-.784-8.7 77.596 77.596 0 0 0-23.305-48.844 80.755 80.755 0 0 0-14.254-11.266l.356.285zm1.07 53.052a78.473 78.473 0 0 1 1.995 14.26v32.802a14.265 14.265 0 0 1-4.17 10.445 14.25 14.25 0 0 1-10.44 4.172h-31.859a64.754 64.754 0 0 1-14.966-1.996 47.604 47.604 0 0 1-20.954-12.336c-18.328-18.88-18.1-48.987.51-67.587 18.61-18.6 48.703-18.796 67.553-.439a42.788 42.788 0 0 1 12.401 20.964l-.07-.285z" fill="url(#a)"/></svg>