<svg width="235" height="235" viewBox="0 0 235 235" xmlns="http://www.w3.org/2000/svg"><g fill="none" fill-rule="evenodd"><path d="M117.499 5C55.367 5 5 55.37 5 117.503 5 179.631 55.367 230 117.5 230c62.135 0 112.5-50.37 112.5-112.497C229.999 55.37 179.634 5 117.499 5z" fill="#02AEF0" fill-rule="nonzero"/><path d="M162.954 71.847c-.114.98-.263 1.955-.445 2.924a40.274 40.274 0 0 1-.748 3.23 18.361 18.361 0 0 1-1.09 3.01c-.43.914-.909 1.67-1.44 2.258-.53.59-1.09.88-1.683.88-.93 0-2.088-.364-3.475-1.1-1.39-.739-3.094-1.536-5.11-2.392-2.02-.85-4.384-1.653-7.093-2.394-2.716-.734-5.79-1.103-9.233-1.103-3.571 0-6.596.442-9.077 1.328-2.482.885-4.517 2.051-6.104 3.502-1.59 1.44-2.765 3.07-3.522 4.865-.763 1.804-1.14 3.619-1.14 5.444 0 2.125.594 3.999 1.782 5.628 1.193 1.62 2.781 3.127 4.767 4.514 1.984 1.392 4.249 2.735 6.796 4.029a369.41 369.41 0 0 1 7.746 4.071 105.097 105.097 0 0 1 7.733 4.646 35.003 35.003 0 0 1 6.802 5.853c1.982 2.21 3.572 4.747 4.763 7.613 1.189 2.86 1.785 6.149 1.785 9.87 0 5.552-1.257 10.702-3.77 15.45-2.516 4.76-6.07 8.89-10.669 12.4-4.598 3.509-10.157 6.277-16.67 8.275a63.335 63.335 0 0 1-5.644 1.43l-1.02 14.255a5.476 5.476 0 0 1-5.78 5.162 5.479 5.479 0 0 1-5.158-5.78l.871-12.211a86.02 86.02 0 0 1-4.954.16c-1.314 0-2.534-.083-3.785-.14l-.917 12.808a5.475 5.475 0 0 1-5.778 5.162 5.48 5.48 0 0 1-5.16-5.78l.966-13.535c-2.5-.505-4.853-1.059-6.911-1.707-2.81-.886-5.176-1.816-7.095-2.787-1.92-.974-3.34-1.907-4.266-2.788-.928-.887-1.39-2.214-1.39-3.99 0-.472.068-1.178.2-2.126.13-.944.312-1.965.544-3.05a49.76 49.76 0 0 1 .844-3.367 18.708 18.708 0 0 1 1.192-3.143c.46-.943.974-1.712 1.537-2.3.562-.589 1.174-.89 1.838-.89 1.122 0 2.46.458 4.018 1.377 1.55.914 3.486 1.917 5.802 3.006 2.315 1.094 5.06 2.111 8.238 3.054 3.174.945 6.98 1.422 11.41 1.422 3.904 0 7.33-.443 10.274-1.328 2.939-.89 5.406-2.096 7.391-3.63 1.986-1.536 3.492-3.326 4.514-5.36 1.028-2.038 1.542-4.266 1.542-6.685 0-2.182-.597-4.1-1.79-5.754-1.191-1.654-2.764-3.178-4.714-4.565-1.95-1.385-4.166-2.703-6.646-3.934a220.357 220.357 0 0 1-7.589-3.99 103.171 103.171 0 0 1-7.592-4.602 33.781 33.781 0 0 1-6.65-5.803c-1.95-2.208-3.525-4.762-4.713-7.662-1.19-2.89-1.785-6.256-1.785-10.089 0-5.313 1.192-10.217 3.57-14.703 2.383-4.485 5.691-8.333 9.924-11.554 3.334-2.533 7.2-4.61 11.564-6.27l1.213-16.958c.17-3.026 2.782-5.336 5.779-5.161a5.479 5.479 0 0 1 5.161 5.778l-.956 13.36a69.872 69.872 0 0 1 8.802-.876l.933-13.1c.175-3.027 2.784-5.337 5.781-5.162a5.477 5.477 0 0 1 5.16 5.778l-.92 12.884c.51.058 1.042.09 1.542.164 2.98.447 5.693 1.002 8.138 1.684 2.447.68 4.531 1.43 6.252 2.256 1.722.828 2.91 1.524 3.573 2.084.661.557 1.142 1.148 1.44 1.764.297.623.447 1.407.447 2.35-.002.48-.055 1.155-.152 2.041z" fill="#FFF"/></g></svg>