<svg width="235" height="235" viewBox="0 0 235 235" xmlns="http://www.w3.org/2000/svg"><g transform="translate(5 5)" fill="none" fill-rule="evenodd"><rect fill="#4A57AD" width="225" height="225" rx="46"/><path d="M91.228 188.918c28.086-5.273 50.536-25.047 59.836-52.635 1.221-3.578 2.442-8.475 2.818-10.829l.564-4.425-12.963.376c-9.582.283-17.472-.094-29.683-1.6-27.993-3.39-43.022-2.354-56.36 3.766-15.312 7.156-22.075 21.75-18.506 39.83 2.255 11.11 10.52 20.15 21.98 24.198 7.328 2.543 22.639 3.202 32.314 1.319zm64.25-83.019c15.876-3.201 27.054-11.77 30.717-23.728 4.603-14.877.188-30.79-10.802-39.076-6.67-4.99-14.09-7.344-25.362-8.003-23.766-1.224-48.376 9.886-63.5 28.624-8.36 10.546-14.935 24.952-16.438 35.969l-.564 4.425 12.963-.376c9.581-.283 17.472.094 29.683 1.6 18.6 2.26 33.816 2.449 43.304.565z" fill="#FFF" fill-rule="nonzero"/></g></svg>