<svg width="235" height="235" viewBox="0 0 235 235" xmlns="http://www.w3.org/2000/svg"><g fill="none"><path d="M43.251 30.076c-2.195-1.102-30.043 22.03-30.043 39.049-.039 23.261 32.483 75.959 37.96 96.343 4.712 17.483-7.994 38.466-4.501 39.418 3.19 2.059 33.53-28.819 34.712-41.984 1.523-20.963-35.428-82.091-38.373-97.875-3.416-18.421 2.705-34.54.245-34.951z" fill="#1A5099"/><path d="M112.758 6.01c-2.796-1.403-38.32 28.068-38.32 49.797-.039 29.662 41.433 96.87 48.413 122.84 6.005 22.294-10.19 49.055-5.76 50.252 4.093 2.614 42.764-36.728 44.287-53.54 1.95-26.723-45.19-104.664-48.942-124.823-4.352-23.433 3.435-44.004.322-44.526z" fill="#4BA2F2"/><path d="M184.494 30.076c-2.176-1.102-30.043 22.03-30.043 39.049-.034 23.261 32.483 75.959 37.965 96.343 4.707 17.483-7.994 38.466-4.507 39.418 3.21 2.059 33.555-28.819 34.718-41.984 1.518-20.963-35.428-82.091-38.378-97.875-3.41-18.421 2.705-34.54.245-34.951z" fill="#1A5099"/></g></svg>