<svg width="235" height="235" viewBox="0 0 235 235" xmlns="http://www.w3.org/2000/svg"><g fill="none"><path d="M83.395 171.076c9.968 7.092 28.246-1.75 41.203-19.74.183-.238.38-.46.551-.71 7.127-10.211 4.671-24.328-5.474-31.547-10.146-7.22-24.146-4.792-31.264 5.417-.175.251-.318.512-.48.767-12.415 18.378-14.504 38.728-4.536 45.813" fill="#ED8117"/><path d="M93.592 157.474c6.938 4.816 19.746-1.314 28.87-13.691.134-.165.271-.317.396-.49a15.358 15.358 0 0 0 2.68-11.578 15.331 15.331 0 0 0-6.381-10.017c-7.066-4.91-16.863-3.19-21.88 3.834-.128.173-.224.352-.336.525-8.752 12.642-10.292 26.597-3.35 31.417" fill="#EEBB18"/><path d="M50.513 99.028c-1.046 1.35-1.562 3.382 1.28 2.495 8.11-2.529 26.496-5.48 47.837 9.36 28.824 20.043 26.484-31.904 26.484-31.904-6.845-4.755-41.286-24.057-75.601 20.049m109.572 78.313c.123 2.936 1.851 1.783 2.757.364 29.67-46.487.13-72.097-6.604-76.876 0 0-49.247 15.027-20.899 35.168 20.99 14.911 24.392 32.973 24.746 41.344" fill="#5B6A72"/><path d="M130.144 143.876c5.628 4.172 9.032 4.852 13.123-.214 4.09-5.065 25.601-30.36 47.093-58.246 21.49-27.886 8.38-75.872 5.801-77.784l-.033.04.022-.05c-2.58-1.911-49.98 1.27-67.717 31.934-17.737 30.665-33.149 60.476-36.306 66.228-3.157 5.753-1.403 8.904 4.224 13.072 2.564 1.895 9.783 7.243 16.896 12.51 7.113 5.266 14.334 10.615 16.897 12.51" fill="#DCF2F9"/><path d="M136.487 150.038h-.233c-2.569-.07-5.247-1.221-8.955-3.852-2.608-1.849-9.87-7.001-17.112-12.144l-.426-.303-11.392-8.08-6.151-4.363c-3.701-2.629-5.68-4.778-6.607-7.187-1.45-3.77.112-7.226 1.41-9.498.68-1.19 1.926-3.44 3.65-6.554 6.336-11.445 19.515-35.263 34.083-59.387 5.242-8.682 13.258-15.967 23.825-21.664 5.586-3.01 14.917-7.152 27.624-9.8 5.024-1.047 10.173-1.756 14.499-2 6.63-.374 7.807.463 8.373.866l.053.038c.58.415 1.746 1.363 3.589 7.64 1.233 4.206 2.305 9.351 3.016 14.488 1.951 14.089 2.973 40.522-12.105 59.258-17.65 21.94-35.476 42.464-44.044 52.322-2.333 2.686-4.018 4.626-4.9 5.673-1.286 1.523-2.548 2.625-3.859 3.373a8.688 8.688 0 0 1-4.338 1.174M193.849 10.72c-4.642 0-14.79.96-26.232 4.472-12.405 3.804-29.081 11.473-38.076 26.38-14.516 24.033-27.664 47.789-33.983 59.204a724.91 724.91 0 0 1-3.69 6.624c-1.51 2.638-1.346 3.893-1.043 4.691.488 1.268 1.956 2.738 4.62 4.63l6.152 4.363 11.393 8.08.428.303c7.241 5.14 14.502 10.29 17.11 12.144 5.496 3.899 7.125 3.536 9.886.265a612.719 612.719 0 0 1 4.954-5.735c8.545-9.836 26.325-30.303 43.904-52.155 10.912-13.563 12.465-31.969 11.847-45.021-.673-14.139-4.03-25.386-5.372-28.165a18.43 18.43 0 0 0-1.898-.084" fill="#5B6A72"/><path d="M147.498 75.104c8.98 6.347 21.39 4.189 27.703-4.816 6.313-9.004 4.17-21.445-4.81-27.791-8.98-6.347-21.384-4.193-27.702 4.814-6.318 9.008-4.168 21.446 4.81 27.793" fill="#FEFEFE"/><path d="M158.906 81.563A22.702 22.702 0 0 1 138.8 69.255a22.817 22.817 0 0 1 1.599-23.562 22.667 22.667 0 0 1 14.67-9.318 22.628 22.628 0 0 1 16.944 3.822c10.232 7.231 12.693 21.457 5.486 31.71a22.514 22.514 0 0 1-14.669 9.314c-1.296.227-2.61.341-3.925.342m.07-39.902c-.99 0-1.98.086-2.955.255a16.941 16.941 0 0 0-11.034 7.012c-5.42 7.723-3.569 18.434 4.128 23.877a17.036 17.036 0 0 0 12.753 2.876 17.065 17.065 0 0 0 11.043-7.012c5.428-7.721 3.574-18.43-4.13-23.875a16.928 16.928 0 0 0-9.805-3.133" fill="#5B6A72"/><path d="M28 228.31l31.503-44.329 2.293 1.63-31.503 44.328zm18.062-5.641l18.429-26.055 2.306 1.631L48.368 224.3z" fill="#979797"/></g></svg>