<svg width="235" height="235" viewBox="0 0 235 235" xmlns="http://www.w3.org/2000/svg"><g fill="none"><path d="M117.39 5C55.319 5 5 55.317 5 117.39c0 62.07 50.32 112.389 112.391 112.389 62.07 0 112.39-50.32 112.39-112.389C229.78 55.317 179.46 5 117.39 5z" fill="#FFF"/><path d="M62.805 96.162v44.932h93.821l-93.82-44.932zm54.566-40.023L73.347 84.696h87.868l-43.844-28.557zm0 122.37l43.842-28.552H73.347l44.024 28.553zm54.336-40.019V93.558h-93.82l93.82 44.932z" fill="#999"/><path d="M117.39 5C55.319 5 5 55.317 5 117.39c0 62.07 50.32 112.389 112.391 112.389 62.07 0 112.39-50.32 112.39-112.389C229.78 55.317 179.46 5 117.39 5zm63.18 140.526a4.428 4.428 0 0 1-2.012 3.71v.004l-61.178 39.84-61.418-39.836-.015-.013a4.496 4.496 0 0 1-.659-.527c-.012-.012-.025-.021-.037-.034a4.419 4.419 0 0 1-1.304-3.008l-.003-.088c0-.015-.003-.031-.003-.05V89.127c0-1.556.805-2.923 2.02-3.714v-.003l61.418-39.84 61.178 39.844.013.011a4.353 4.353 0 0 1 1.232 1.21l.017.023c.31.462.536.987.656 1.553v.001c.055.256.082.522.09.791 0 .027.003.053.003.08l.002.044v56.4z" fill="#999"/></g></svg>