<svg width="235" height="235" viewBox="0 0 235 235" xmlns="http://www.w3.org/2000/svg"><g fill="#2683FF"><path d="M217.306 70.212c-.18 7.023-3.23 12.257-9.117 15.785-1.086.649-1.463 1.31-1.46 2.547.037 19.16.034 38.32.005 57.475-.002 1.15.291 1.845 1.347 2.453 6.81 3.933 10.257 11.188 9.034 18.815-1.173 7.309-7.019 13.312-14.59 14.75-4.39.837-8.643.17-12.49-2.189-1.173-.717-1.999-.59-3.098.042-16.48 9.54-32.977 19.056-49.494 28.535-1.13.65-1.553 1.363-1.55 2.681.018 9.218-7.101 17.24-15.994 18.134-9.47.955-17.845-4.994-19.891-14.18-.314-1.412-.42-2.888-.451-4.334-.024-.979-.296-1.579-1.167-2.083a26185.687 26185.687 0 0 1-50.199-28.94c-.906-.528-1.617-.532-2.53.02-10.928 6.575-24.856.273-27.174-12.009-1.462-7.758 1.698-15.013 8.646-19.099 1.097-.648 1.594-1.3 1.592-2.64-.05-19.162-.043-38.319-.012-57.477 0-1.151-.299-1.832-1.353-2.444-6.975-4.049-10.256-11.084-8.917-18.983 1.33-7.847 7.402-13.604 15.304-14.729 4.235-.601 8.32.17 11.984 2.509.85.544 1.483.527 2.35.028a19984.32 19984.32 0 0 1 50.062-28.856c1.01-.58 1.404-1.246 1.407-2.435.027-10.552 8.37-18.63 18.94-18.416 8.24.164 15.95 6.962 17.118 15.088.107.747.274 1.207.274 2.236 0 2.253.83 3.208 2.585 4.21 16.205 9.268 32.365 18.607 48.514 27.963 1.11.645 1.915.67 3.071.016 10.97-6.253 24.269-.26 26.939 12.113.251 1.15.227 2.362.315 3.414zM74.303 135.937c-.166.144-.278.264-.417.341-9.09 5.25-18.173 10.51-27.297 15.698-.505.286-1.484.227-1.997-.082-2.411-1.455-4.979-2.42-7.789-2.496-9.349-.24-15.034 7.393-15.354 14.023-.37 7.767 5.51 15.722 15.018 15.65 8.339-.062 14.685-6.744 14.602-15.082-.013-1.49.425-2.333 1.733-3.075 9.688-5.514 19.338-11.093 28.978-16.687.932-.544 1.681-.633 2.695-.155 6.012 2.825 12.23 3.303 18.639 1.492.637-.18 1.483.002 2.12.274 1.885.802 3.685 1.82 5.581 2.581 1.081.438 1.446 1.028 1.444 2.176-.033 15.102-.03 30.2-.003 45.301.001 1.066-.334 1.673-1.306 2.138-5.092 2.453-8.934 8.782-7.886 15.551 1.216 7.864 9.3 13.802 17.1 12.278 6.873-1.341 11.388-6.031 12.355-13.245.654-4.893-1.7-11.352-7.996-14.586-.855-.436-1.326-.913-1.323-1.962.031-14.668.034-29.336 0-44.001 0-1.304.599-1.571 1.742-1.773 3.015-.529 6.037-1.112 8.984-1.939 1.333-.374 2.387-.427 3.679.13 6.461 2.777 12.752 2.302 18.77-1.328.86-.514 1.475-.538 2.338-.034 7.95 4.626 15.912 9.234 23.911 13.772 1.295.732 1.794 1.542 1.756 3.056-.231 8.777 7.426 15.947 16.354 14.996 8.764-.931 14.975-9.363 12.941-17.888-2.437-10.218-13.51-14.828-22.455-9.306-.943.58-1.624.74-2.63.15a2338.24 2338.24 0 0 0-22.774-13.143c-1.127-.64-1.276-1.234-.918-2.44 2.298-7.737.736-14.62-4.807-20.547-1.083-1.159-6.166-9.272-6.875-10.768-.56-1.183-.323-1.815.805-2.461a7155.777 7155.777 0 0 0 34.598-19.932c.928-.535 1.557-.544 2.467.066 3.246 2.177 6.884 2.866 10.7 2.198 7.431-1.302 12.816-8.022 12.154-15.954-.72-8.605-9.166-15.038-17.601-13.171-7.402 1.638-12.053 7.42-11.967 15.02.012 1.295-.348 2.033-1.504 2.694a5496.738 5496.738 0 0 0-35.01 20.197c-1.05.61-1.624.483-2.47-.33-5.486-5.284-12.09-8.251-19.622-9.192-2.543-.32-2.544-.307-2.544-2.93 0-13.746.033-27.493-.041-41.24-.01-1.918.438-3.03 2.237-4.063 6.45-3.703 8.9-11.676 5.95-18.474-2.976-6.857-10.578-10.52-17.708-8.35-6.49 1.976-10.106 6.557-10.742 13.225-.49 5.145 1.945 10.86 7.82 14.07.903.492 1.532.925 1.528 2.162-.048 15.156-.045 30.31-.007 45.466.002 1.201-.545 1.608-1.525 2.105-2.934 1.477-6.082 2.77-8.572 4.829-2.874 2.37-5.559 3.74-9.559 3.74-.39-.012-.641.025-1.047.017-.991-.021-2.105-.063-2.916-.526-11.798-6.725-23.534-13.56-35.348-20.263-1.687-.956-2.501-1.982-2.22-3.924.113-.775-.126-1.604-.253-2.402-1.153-7.261-8.258-13.335-16.835-11.927-8.414 1.384-13.757 8.994-12.368 17.14 1.77 10.402 13.648 15.667 22.61 9.977 1.01-.642 1.71-.692 2.746-.089 8.88 5.177 17.798 10.293 26.703 15.429 1.527.88 3.048 1.768 4.564 2.648-10.23 10.834-11.379 22.47-3.936 35.175z"/><path d="M98.907 100.928c2.341.207 3.506-.58 5.217-2.168 7.385-6.86 16.097-8.983 25.663-5.808 9.405 3.122 15.237 9.801 17.169 19.601.378 1.919 1.133 3.073 2.848 4.05 4.905 2.791 7.728 8.83 6.759 13.86-1.257 6.515-5.53 11.03-11.573 11.988-3.22.513-6.414.145-9.246-1.597-1.27-.783-2.274-.697-3.585-.149-8.412 3.536-16.559 2.935-24.303-1.931-1.189-.75-2.184-.809-3.471-.387-10.912 3.563-22.26-2.627-25.031-13.501-3.175-12.47 6.778-24.527 19.553-23.958zm96.121 63.339c0-2.44 1.754-4.212 4.156-4.207 2.312.012 4.283 1.92 4.306 4.178.026 2.173-2.08 4.276-4.272 4.28-2.347 0-4.189-1.868-4.19-4.251zM113.497 23.321c.01-2.362 1.853-4.185 4.235-4.187 2.386-.002 4.215 1.817 4.224 4.188.006 2.275-1.981 4.285-4.216 4.257-2.273-.022-4.25-2.009-4.243-4.258zM40.422 164.284c-.009 2.382-1.867 4.253-4.202 4.234-2.206-.021-4.245-2.077-4.255-4.297-.011-2.218 2.007-4.16 4.322-4.16 2.4.001 4.144 1.782 4.135 4.223zm77.356 42.787c2.38.016 4.188 1.825 4.177 4.18-.015 2.345-1.85 4.112-4.263 4.097-2.391-.012-4.22-1.834-4.195-4.182.028-2.334 1.892-4.113 4.28-4.095zM36.335 74.43c-2.412.022-4.298-1.735-4.37-4.064-.07-2.27 1.837-4.176 4.215-4.21 2.482-.037 4.207 1.616 4.242 4.062.037 2.458-1.646 4.19-4.087 4.213zm162.797.007c-2.439-.017-4.128-1.753-4.104-4.211.024-2.44 1.754-4.1 4.236-4.067 2.38.033 4.275 1.921 4.218 4.203-.056 2.313-1.954 4.092-4.35 4.075z"/></g></svg>