<svg width="235" height="235" viewBox="0 0 235 235" xmlns="http://www.w3.org/2000/svg"><defs><linearGradient x1="-.404%" y1="49.978%" x2="98.975%" y2="49.978%" id="a"><stop stop-color="#FFF" offset="0%"/><stop stop-color="#21BBC0" offset="0%"/><stop stop-color="#20B9C0" offset="34%"/><stop stop-color="#1387C9" offset="100%"/></linearGradient></defs><path d="M225.596 117.538c-3.199-1.92-7.51-1.77-11.532.392-.665.357-92.5 51.602-96.086 53.788-.661.403-.992.607-2.38-.153-1.507-.823-93.574-52.37-95.559-53.464-.877-.485-2.043-1.35-2.043-3.251V99.468c23.385 13.14 88.517 49.744 91.84 51.612a14.44 14.44 0 0 0 7.063 1.86c2.536 0 5.104-.685 7.432-1.977 19.22-10.684 97.595-54.24 99.964-55.556 3.55-1.971 5.736-5.522 5.705-9.265-.03-3.519-1.997-6.663-5.265-8.41-1.9-1.015-53.864-29.907-101.86-56.608-1.937-1.076-3.963-1.624-6.02-1.624-1.9 0-3.768.488-5.425 1.418C77.577 39.941 43.724 58.965 9.872 77.99 6.818 79.707 4.996 82.854 5 86.41l.002.037H5v28.403c0 6.244 3.199 11.587 8.777 14.66 1.946 1.075 94.034 52.634 95.6 53.489 6.582 3.596 11.982 1.903 15.35-.15 2.136-1.29 75.47-42.347 92.276-51.674v14.268c0 .174 0 .702-2.51 2.287-3.255 2.018-91.453 51.723-95.625 53.988-1.784.97-2.005.84-2.737.419-3.173-1.827-99.521-56.06-103.622-58.37l-6.365 11.357c1.004.566 100.395 56.512 103.513 58.307 2.63 1.514 5.082 2.069 7.302 2.069 3.26 0 6.016-1.2 8.1-2.33.725-.394 92.73-52.125 96.355-54.417 2.348-1.481 8.586-5.423 8.586-13.31v-19.671c0-3.554-1.605-6.556-4.404-8.234zM116.973 32.735c20.438 11.371 79.01 43.95 96.633 53.721-17.135 9.52-78.825 43.806-95.578 53.116-.696.386-1.277.461-1.833.149-3.477-1.956-74.552-41.9-94.8-53.274 18.503-10.4 80.794-45.405 95.578-53.712z" fill="url(#a)"/></svg>