<svg width="235" height="235" viewBox="0 0 235 235" xmlns="http://www.w3.org/2000/svg"><g fill="none" fill-rule="evenodd"><path d="M19.437 154.149C10.281 143.203 5 130.608 5 117.173c0-10.6 3.271-20.671 9.123-29.824.468 5.802 2.21 13.17 8.653 19.662 9.714 9.805 27.221 14.565 53.484 14.565 18.69 0 32.168 3.778 38.98 10.911 5.65 5.938 5.327 12.866 5.19 15.916-.022.282-2.342 27.374-42.974 27.374-25.38-.003-44.966-9.243-58.019-21.628z" fill="#F58634"/><path d="M117.34 192.708c-8.844 0-17.407-.757-25.658-2.056 36.67-5.874 44.764-33.91 44.764-42.271.502-10.666-2.747-19.732-9.627-26.952-10.046-10.538-27.053-15.882-50.557-15.882-26.753 0-37.685-5.343-42.142-9.824-4.23-4.284-4.199-9.525-4.152-15.304 0-5.812 7.882-16.788 37.716-16.788 23.484 0 46.151 10.665 69.296 32.615 9.356 8.881 41.045 48.31 60.899 73.517-20.41 14.139-48.93 22.945-80.54 22.945z" fill="#F48534"/><path d="M202.37 149.641c-17.21-21.663-44.89-56.022-54.38-65.017-24.7-23.432-49.42-35.387-75.37-36.751 13.711-4.002 28.808-6.262 44.718-6.262 34.013 0 64.43 10.218 85.031 26.28v81.75z" fill="#96989A"/><path d="M218.379 150.011V84.334c7.158 9.932 11.291 21.056 11.291 32.839-.001 11.778-4.134 22.892-11.291 32.838z" fill="#A3A4A4"/></g></svg>