<svg width="235" height="235" viewBox="0 0 235 235" xmlns="http://www.w3.org/2000/svg"><g fill="#008DD2"><path d="M122.581 63.56c15.528 2.567 21.13 15.082 21.13 15.082h24.172s-7.365-21.177-25.133-30.805c-17.769-9.627-39.22-9.306-59.549 6.898-20.332 16.206-17.77 50.7-17.77 50.7l71.718 58s-6.084 9.386-23.054 7.783c-16.968-1.605-22.41-15.564-22.41-15.564H67.353c0 3.477 7.524 21.5 22.412 29.681 14.887 8.184 32.977 13.478 58.109-2.084 25.133-15.565 21.932-53.588 21.932-53.588L98.089 71.26s8.965-10.269 24.492-7.702zm24.971 70.756v15.082l-60.188-48.614V85.702l60.188 48.614z"/><path d="M116.391 5c-62.43 0-85.696 57.277-85.696 71.877l20.33 16.686c0-26.42 18.943-66.904 68.036-66.904 41.833 0 65.47 38.13 65.47 66.904h-36.657l58.27 47.01v-47.01C206.144 55.699 179.568 5 116.39 5zm-.657 203.119c-41.836 0-65.475-38.132-65.475-66.905h36.66l-58.27-47.008v47.008c0 37.866 26.573 88.566 89.75 88.566 62.432 0 85.697-57.278 85.697-71.88l-20.33-16.686c0 26.42-18.943 66.905-68.032 66.905z"/></g></svg>