<svg width="235" height="235" viewBox="0 0 235 235" xmlns="http://www.w3.org/2000/svg"><g fill="none" fill-rule="evenodd"><path d="M230 117.5c0 62.132-50.367 112.5-112.5 112.5C55.369 230 5 179.632 5 117.5S55.368 5 117.5 5 230 55.368 230 117.5" fill="#53AE94"/><path d="M133.26 122.879v-.017c-.887.058-5.439.332-15.584.332-8.106 0-13.81-.23-15.82-.336v.025c-31.193-1.377-54.483-6.82-54.483-13.33 0-6.498 23.29-11.945 54.483-13.333v21.25c2.042.141 7.886.487 15.953.487 9.686 0 14.544-.404 15.452-.488V96.23c31.131 1.39 54.362 6.836 54.362 13.324 0 6.507-23.23 11.937-54.362 13.326m0-28.861V75h43.438V46H58.412v29h43.444v19.014C66.551 95.637 40 102.642 40 111.033c0 8.39 26.55 15.393 61.856 17.029V189h31.405v-60.954c35.244-1.63 61.739-8.628 61.739-17.013 0-8.383-26.495-15.383-61.74-17.015" fill="#FFF"/></g></svg>