<svg width="235" height="235" viewBox="0 0 235 235" xmlns="http://www.w3.org/2000/svg"><g fill="none" fill-rule="evenodd"><path d="M117.5 5C55.368 5 5 55.368 5 117.5S55.368 230 117.5 230 230 179.632 230 117.5 179.632 5 117.5 5z" fill="#181818" fill-rule="nonzero"/><path d="M173.797 181.485c-3.129 6.321-7.788 11.048-14.168 14.177-6.194 3.069-13.064 4.603-20.423 4.603-10.796 0-18.707-2.577-23.613-7.793-4.969-5.155-7.422-10.74-7.422-16.753 0-2.21.43-4.05 1.288-5.523.859-1.473 2.024-2.7 3.559-3.56 1.47-.86 3.311-1.288 5.519-1.288 2.207 0 4.048.429 5.52 1.288 1.47.86 2.698 2.025 3.557 3.56.858 1.534 1.288 3.313 1.288 5.523 0 2.639-.614 4.787-1.901 6.443-1.288 1.657-2.76 2.762-4.478 3.252 1.471 2.087 3.863 3.56 7.053 4.42 3.19.857 6.44 1.349 9.69 1.349 4.478 0 8.526-1.228 12.145-3.62 3.616-2.394 6.316-6.014 8.034-10.678 1.716-4.726 2.576-10.064 2.576-16.079 0-6.505-.92-12.09-2.822-16.694-1.84-4.602-4.6-8.038-8.22-10.308-3.616-2.27-7.543-3.376-11.712-3.376-2.76 0-6.195 1.167-10.366 3.438l-7.606 3.804v-3.683l34.164-45.534h-47.29v47.315c0 3.927.86 7.12 2.577 9.695 1.718 2.517 4.356 3.806 7.912 3.806 2.76 0 5.398-.921 7.912-2.762a28.54 28.54 0 0 0 6.562-6.75c.245-.491.49-.92.858-1.166.368-.246.737-.37 1.105-.37.613 0 1.41.308 2.268.922.798.92 1.228 1.963 1.228 3.191a20.7 20.7 0 0 1-.43 2.393c-1.962 4.357-4.662 7.733-8.097 10.003-3.434 2.333-7.237 3.439-11.408 3.439-10.242 0-17.297-2.025-21.222-6.015-3.925-4.05-5.886-9.512-5.886-16.385V88.45H67.445v-8.837H91.61V59.607l-5.52-5.523v-4.48h16.007l6.01 3.13v26.94l62.437-.184 6.194 6.199-38.271 38.293c2.332-.92 4.724-1.473 7.238-1.717 4.171 0 8.832 1.29 14.045 3.927 5.214 2.64 9.2 6.2 12.022 10.678 2.821 4.541 4.661 8.837 5.458 13.01.86 4.173 1.227 7.855 1.227 11.048 0 7.364-1.533 14.236-4.661 20.557z" fill="#FFF"/></g></svg>