<svg width="235" height="235" viewBox="0 0 235 235" xmlns="http://www.w3.org/2000/svg"><g transform="translate(5 5)" fill="none"><path d="M112.434 0C50.437 0 0 50.436 0 112.433c0 61.995 50.438 112.433 112.434 112.433 61.994 0 112.43-50.438 112.43-112.433C224.864 50.436 174.428 0 112.434 0zm0 217.698c-58.043 0-105.266-47.222-105.266-105.264C7.168 54.39 54.391 7.168 112.434 7.168c58.042 0 105.263 47.222 105.263 105.266 0 58.042-47.221 105.264-105.263 105.264z" fill="#000"/><circle fill="#1F8BCC" cx="112.434" cy="49.894" r="22.76"/><circle fill="#1F8BCC" cx="53.605" cy="137.658" r="22.76"/><path d="M57.764 106.72c1.858-17.912 12.362-33.286 27.245-41.892a31.087 31.087 0 0 1-3.737-16.795C58.328 59.181 42.2 82.234 40.966 109.11a31.099 31.099 0 0 1 12.64-2.674c1.411 0 2.797.103 4.158.284zm109.322-.124a31.548 31.548 0 0 1 3.166-.16c4.9 0 9.534 1.132 13.658 3.141-1.067-27.074-17.24-50.332-40.315-61.544a31.097 31.097 0 0 1-3.738 16.795c14.85 8.588 25.336 23.91 27.229 41.768zm-21.766 49.851c-9.177 6.875-20.564 10.953-32.886 10.953-12.617 0-24.244-4.283-33.53-11.457a31.325 31.325 0 0 1-13.281 10.535c12.558 10.89 28.922 17.507 46.812 17.507 17.74 0 33.979-6.505 46.497-17.233a31.318 31.318 0 0 1-13.612-10.305z" fill="#000"/><circle fill="#1F8BCC" cx="170.252" cy="137.656" r="22.76"/><path d="M112.434 15.141c-53.649 0-97.294 43.644-97.294 97.292s43.645 97.29 97.294 97.29c53.645 0 97.29-43.642 97.29-97.29s-43.646-97.292-97.29-97.292zm57.818 153.738a31.7 31.7 0 0 1-2.804-.132c-14.21 13.884-33.63 22.455-55.014 22.455-21.438 0-40.899-8.612-55.115-22.552-1.232.15-2.472.226-3.713.228-17.243 0-31.223-13.979-31.223-31.22 0-9.669 4.396-18.309 11.296-24.034-.006-.397-.015-.794-.015-1.191 0-33.047 20.459-61.405 49.375-73.077 4.323-12.058 15.849-20.682 29.394-20.682 13.542 0 25.069 8.625 29.391 20.682 28.916 11.672 49.376 40.03 49.376 73.077 0 .686-.008 1.37-.025 2.052 6.323 5.713 10.3 13.976 10.3 23.172 0 17.243-13.98 31.222-31.223 31.222z" fill="#1F8BCC"/></g></svg>