<svg width="235" height="235" viewBox="0 0 235 235" xmlns="http://www.w3.org/2000/svg"><g fill="none" fill-rule="evenodd"><path d="M117.4 5C55.353 5 5 55.352 5 117.4c0 62.05 50.352 112.402 112.4 112.402 62.05 0 112.402-50.353 112.402-112.401C229.802 55.352 179.449 5 117.4 5z" fill="#2EC0F1" fill-rule="nonzero"/><path d="M177.324 120.16c-4.313 22.258-11.114 37.524-28.034 52.999-13.933 12.769-31.788 19.175-31.79 19.176-.003-.001-17.858-6.407-31.79-19.176-16.92-15.475-23.721-30.74-28.034-53-4.312-22.258 5.06-55.131 5.06-55.131s4.479-1.622 7.9-4.43c3.42-2.808 6.614-7.03 6.614-7.03h80.5s3.194 4.222 6.615 7.03c3.421 2.808 7.9 4.43 7.9 4.43s9.371 32.873 5.059 55.132z" fill="#FFF"/><path d="M169.542 120.519c-3.752 19.396-9.668 32.7-24.387 46.184-12.121 11.128-27.653 16.71-27.655 16.711-.003 0-15.535-5.583-27.655-16.71-14.719-13.485-20.635-26.788-24.387-46.185-3.751-19.397 4.402-48.044 4.402-48.044s3.896-1.414 6.872-3.86c2.976-2.447 5.754-6.126 5.754-6.126h70.029s2.778 3.679 5.754 6.126c2.976 2.446 6.872 3.86 6.872 3.86s8.152 28.647 4.4 48.044z" fill="#2184AC"/><path d="M163.705 120.798c-3.33 17.17-8.583 28.947-21.652 40.885-10.761 9.85-24.552 14.792-24.553 14.793-.002-.001-13.793-4.943-24.553-14.793-13.069-11.938-18.321-23.714-21.652-40.885-3.331-17.171 3.908-42.53 3.908-42.53s3.459-1.252 6.101-3.418c2.642-2.166 5.109-5.423 5.109-5.423h62.175s2.466 3.257 5.109 5.423c2.642 2.166 6.101 3.417 6.101 3.417s7.238 25.36 3.907 42.53z" fill="#70D9FF"/><path d="M135.765 107.484h-3v-1.318c0-8.234-6.626-14.933-14.77-14.933-8.144 0-14.77 6.7-14.77 14.933v1.318h-3c-1.07 0-2.097.422-2.853 1.172a3.984 3.984 0 0 0-1.183 2.83v22.888c0 1.44.577 2.82 1.604 3.838a5.498 5.498 0 0 0 3.87 1.59h32.665c3.023 0 5.474-2.43 5.474-5.428v-22.888c-.001-2.21-1.808-4.001-4.037-4.002zM121.78 133.22h-7.57l1.416-10.667a4.911 4.911 0 0 1-2.452-5.544c.559-2.187 2.544-3.718 4.82-3.717 2.274 0 4.259 1.531 4.818 3.717a4.912 4.912 0 0 1-2.45 5.544l1.418 10.667zm5.293-25.736h-18.158v-1.318c0-5.123 4.072-9.29 9.079-9.29 5.006 0 9.08 4.167 9.08 9.29v1.318z" fill="#FFF" fill-rule="nonzero"/></g></svg>