<svg width="235" height="235" viewBox="0 0 235 235" xmlns="http://www.w3.org/2000/svg"><path d="M181.006 42.796l32.846 24.107a2.79 2.79 0 0 1 .637 3.845L104.197 228.834a2.79 2.79 0 0 1-4.912-.65L20.17 8.732a2.79 2.79 0 0 1 3.274-3.659l157.562 37.723zm-7.008 6.95L33.835 15.687l79.893 96.62 60.27-62.56zm-58.868 69.511l-9.812 97.315L204.133 73.38l-89.003 45.877zm64.475-69.51l-57.467 60.474L202.03 69.21l-22.426-19.463zM26.827 14.992l73.586 202.97 10.512-101.485L26.827 14.992z" fill-rule="evenodd"/></svg>