<svg width="235" height="235" viewBox="0 0 235 235" xmlns="http://www.w3.org/2000/svg"><g fill="none" fill-rule="evenodd"><path d="M117.5 5C55.367 5 5 55.365 5 117.5S55.367 230 117.5 230c62.135 0 112.5-50.365 112.5-112.5S179.635 5 117.5 5z" fill="#418BCA" fill-rule="nonzero"/><path d="M117.5 59.017c6.784 0 12.287 5.504 12.287 12.291 0 6.786-5.503 12.289-12.288 12.289-6.784 0-12.285-5.502-12.285-12.288 0-6.788 5.5-12.292 12.285-12.292zm55.67 83.062c-6.785 0-12.29-5.504-12.29-12.29 0-6.787 5.505-12.292 12.29-12.292 6.782 0 12.284 5.505 12.284 12.292s-5.5 12.29-12.285 12.29zM117.5 193L40 42h40.505l37.264 76.445L154.225 42H195l-77.5 151z" fill="#FFF"/></g></svg>