<svg width="235" height="235" viewBox="0 0 235 235" xmlns="http://www.w3.org/2000/svg"><path d="M5 30c12.424.022 24.845.025 37.264.008C50.112 71 57.954 111.989 65.787 152.976c.362 1.812.815 3.61 1.296 5.395 1.85-7.146 3.006-14.453 4.546-21.672 7.145-35.562 14.287-71.128 21.427-106.696 12.016.008 24.03.01 36.043.008-13.224 57.556-26.45 115.11-39.679 172.663H44.678A415874.629 415874.629 0 0 1 5 30.118V30zm138.528 54.246c7.841-9.63 20.376-14 32.459-14.763 11.912-.821 24.773.237 34.875 7.193 8.943 6.117 13.845 16.45 16.177 26.738 2.82 12.886 2.969 26.14 2.954 39.269-22.011.007-44.021.01-66.028.008.052 9.704-.577 19.726 2.754 29.024 1.606 4.579 4.606 9.127 9.381 10.8 5.08 1.619 11.203.561 14.912-3.448 4.95-5.473 5.983-13.158 7.064-20.178h29.971c-.675 11.657-2.88 23.973-10.688 33.137-7.825 9.527-20.45 13.424-32.4 13.898-12.979.48-27.076-1.243-37.426-9.794-9.618-7.848-13.816-20.274-15.482-32.182-1.666-13.72-1.755-27.597-.978-41.384 1.052-13.44 3.54-27.671 12.446-38.324m25.596 13.711c-5.117 7.193-5.243 16.45-5.16 24.927 11.364.007 22.734.007 34.11 0-.526-8.055-.467-16.576-4.183-23.958-4.607-9.104-19.19-9.14-24.758-.968" fill="#F93"/></svg>