<svg width="235" height="235" viewBox="0 0 235 235" xmlns="http://www.w3.org/2000/svg"><g fill="none"><path d="M117.499 5C55.367 5 5 55.37 5 117.503 5 179.631 55.367 230 117.5 230c62.135 0 112.5-50.37 112.5-112.497C229.999 55.37 179.634 5 117.499 5z" fill="#000"/><path d="M40.112 111.435h29.647l32.26 32.203v-32.203h23.198v64.717h-22.122l-62.983-64.717zm93.9-29.403v16.445h30.034c8.49 0 11.406 5.058 11.406 10.006s-3.378 10.12-12.059 10.12h-29.381v20.474h35.603c13.518 0 25.233-9.201 25.233-30.248 0-21.05-15.864-26.798-25.233-26.798h-35.603z" fill="#FFF"/><path d="M157.889 158.553c7.614 2.764 12.187 6.3 12.187 10.158 0 8.852-24.074 16.025-53.768 16.025-29.696 0-53.768-7.172-53.768-16.025 0-3.858 4.573-7.394 12.185-10.158-13.57 3.627-22.171 8.996-22.171 14.989 0 10.925 28.543 19.782 63.754 19.782 35.21 0 63.755-8.857 63.755-19.782 0-5.993-8.605-11.362-22.174-14.989zM98.103 95.706a1.042 1.042 0 0 1-1.044 1.045H83.71a1.047 1.047 0 0 1-1.046-1.045V82.384c0-.576.468-1.044 1.046-1.044h13.348c.577 0 1.044.469 1.044 1.044v13.322h.001zm27.038 6.432a1.51 1.51 0 0 1-1.512 1.515h-19.326a1.517 1.517 0 0 1-1.514-1.515V82.851c0-.835.676-1.51 1.514-1.51h19.326a1.51 1.51 0 0 1 1.512 1.51v19.287zm-8.122-26.65a.966.966 0 0 1-.964.965h-12.303a.965.965 0 0 1-.963-.965v-12.28c0-.53.431-.96.963-.96h12.303c.531 0 .964.43.964.96v12.28zm-20.126 0a.964.964 0 0 1-.962.965H83.627a.965.965 0 0 1-.963-.965v-12.28c0-.53.432-.96.963-.96h12.304a.96.96 0 0 1 .962.96v12.28zm-3.456-16.73a.729.729 0 0 1-.729.728h-9.314a.729.729 0 0 1-.73-.728v-9.296a.73.73 0 0 1 .73-.728h9.314a.73.73 0 0 1 .73.728v9.296zM78.94 72.755a.765.765 0 0 1-.766.765h-9.76a.765.765 0 0 1-.765-.765V63.01c0-.419.341-.761.765-.761h9.76c.423 0 .766.342.766.761v9.746zm-3.918-15.262a.497.497 0 0 1-.498.5h-6.377a.5.5 0 0 1-.498-.5V51.13a.497.497 0 0 1 .498-.499h6.377a.499.499 0 0 1 .498.499v6.363zm-10.6-8.108a.497.497 0 0 1-.498.499h-6.377a.499.499 0 0 1-.498-.5v-6.363c0-.275.223-.498.498-.498h6.377c.276 0 .499.223.499.498v6.364z" fill="#4B9D07"/></g></svg>