<svg width="235" height="235" viewBox="0 0 235 235" xmlns="http://www.w3.org/2000/svg"><defs><linearGradient x1="21.981%" y1="29.84%" x2="78.591%" y2="62.592%" id="a"><stop stop-color="#58C5D1" offset=".094%"/><stop stop-color="#009ADB" offset="100%"/></linearGradient><linearGradient x1="5.182%" y1="14.117%" x2="67.464%" y2="35.748%" id="b"><stop stop-color="#EFEFEF" offset="0%"/><stop stop-color="#DBDBDB" offset="100%"/></linearGradient></defs><g fill="none" fill-rule="evenodd"><path d="M186.036 62.832L130.388 7.184c-9.579-9.579-25.087-9.579-34.666 0L40.53 62.832c-3.193 3.193-3.193 8.21 0 11.403l16.877 16.877 10.947 10.491c3.193 3.193 8.21 3.193 11.86 0l22.35-20.526c5.93-5.473 15.509-5.473 21.894 0l22.35 20.526c3.194 3.193 8.211 3.193 11.86 0l11.404-10.49 16.877-16.878c2.28-3.193 2.28-8.21-.913-11.403z" fill="url(#a)" transform="translate(5 5)"/><path d="M7.422 129.17l87.12 87.12c9.58 9.58 25.088 9.58 34.667 0l87.12-87.12c15.053-15.053 4.562-19.614-6.385-30.105L196.26 86.293c-3.193-3.193-8.21-3.193-11.86 0l-22.35 20.526c-5.93 5.473-15.508 5.473-21.894 0l-22.35-20.526c-3.193-3.193-8.21-3.193-11.86 0l-22.35 20.526c-5.93 5.473-15.509 5.473-21.895 0l-22.35-20.526c-3.193-3.193-8.21-3.193-11.86 0L15.176 97.696C3.773 108.643-8.087 113.661 7.422 129.17z" fill="url(#b)" transform="translate(5 5)"/></g></svg>