<svg width="235" height="235" viewBox="0 0 235 235" xmlns="http://www.w3.org/2000/svg"><path d="M117.5 5C55.368 5 5 55.368 5 117.5 5 179.633 55.368 230 117.5 230S230 179.633 230 117.5C230 55.368 179.63 5 117.5 5zm54.84 57.662c10.6 10.6 17.483 23.506 20.665 37.104l-29.855 29.853-.126-74.912a78.114 78.114 0 0 1 9.315 7.955zm-54.841-22.716c14.992 0 28.986 4.258 40.85 11.625v42.22l-53.06-52.885c4.038-.64 8.12-.96 12.21-.96zm22.766 96.323c-.737-1.998-5.995-1.157-6.94-2.734-.948-1.578-3.89-4.626-8.413-5.362-4.522-.737-6.834 2.419-9.252.736-2.419-1.683.84-3.156-2.419-3.891-3.261-.736.103-5.047-2.315-3.365-2.417 1.682-4.205 1.576-4.205-1.368 0-2.943 3.786-5.257 6.52-4.1 2.733 1.157 4.1 2.734 2.944 3.681-1.156.946.526 2.418 2.419 3.258 1.892.843 5.678 1.369 4.521.104-1.156-1.26-5.152-.945-5.046-2.522.104-1.578-1.998-5.046-.58-5.994 1.42-.948 3.943-5.783 6.153-6.308 2.208-.527.211-2.63 2.103-2.418 1.891.208 4.626.18 4.836-.698.21-.88 3.155.592 3.26-.986.105-1.576-3.155-5.257-3.47-7.255-.315-1.998 1.366-5.783.946-7.36-.42-1.578-5.783-5.258-3.89-6.414 1.892-1.157 6.098 1.156 6.624 3.05.526 1.891 2.102 10.514 4.1 9.777 1.999-.736 1.054-3.99 3.051-3.939 1.383.035 2.36-.963 2.484-2.21a38.106 38.106 0 0 1 8.717 12.477c-.865-.93-1.636-1.457-2.16-1.282-1.608.537.526 3.892 1.262 4.943.737 1.05 1.893 2.522 1.053 2.839-.842.315-1.6 1.682-1.273 3.154.327 1.472.432 5.138-.935 6.25-1.367 1.11-3.26 6.159-1.682 8.47 1.578 2.315 2.585.421 4.185 1.053.557.219.776.668.891 1.123-4.195 13.262-15.465 23.37-29.377 25.91.901-.99 1.669-2.786 2.852-3.48 1.789-1.053 5.256-5.68 7.148-6.626 1.89-.943 6.624-6.515 5.888-8.513zM90.425 95.05c1.576 0 3.152-5.462 5.361-2.153 2.209 3.31-.736 3.94-.315 5.623.421 1.683 2.291 3.784.514 6.624-1.776 2.84-.514 9.252 3.272 13.194 3.784 3.945 1.023 4.365 6.032 6.258 5.007 1.891 5.638 1.788 7.007 2.734 1.367.946 1.156 2.42 2.943 2.943 1.787.526 3.26 1.683 2.26 3.052-.997 1.364-2.89 3.678-.209 6.624 2.682 2.944 5.1 3.365 4.575 7.572-.466 3.709-.763 6.694.402 7.7a38.558 38.558 0 0 1-4.767.298c-20.997 0-38.018-17.022-38.018-38.019 0-10.128 3.961-19.33 10.417-26.145-.255 1.749-.344 3.695.525 3.695zm8.68-10.828a37.844 37.844 0 0 1 18.394-4.74c1.838 0 3.647.135 5.416.386-5.89 1.27-12.912 4.248-14.932 4.248-1.387 0-5.16-.275-8.877.106zM62.66 62.662c10.6-10.601 23.507-17.485 37.105-20.666l29.852 29.853-74.913.125a78.457 78.457 0 0 1 7.956-9.312zM39.946 117.5c0-14.993 4.258-28.987 11.623-40.85h42.22l-52.884 53.06a78.134 78.134 0 0 1-.959-12.21zm22.715 54.838c-10.6-10.6-17.486-23.505-20.665-37.103l29.853-29.854.125 74.913a78.197 78.197 0 0 1-9.313-7.956zm54.84 22.715c-14.992 0-28.988-4.257-40.85-11.624v-42.22l53.061 52.884c-3.98.631-8.056.959-12.21.96zm54.838-22.715c-10.602 10.601-23.506 17.485-37.104 20.666l-29.854-29.854 74.915-.124a78.453 78.453 0 0 1-7.957 9.312zm11.09-13.99h-42.218l52.884-53.06c.629 3.978.958 8.055.959 12.211-.002 14.992-4.258 28.987-11.624 40.85z"/></svg>