<svg width="235" height="235" viewBox="0 0 235 235" xmlns="http://www.w3.org/2000/svg"><g fill="none"><path fill="#CCB18E" d="M22 95.371l37.944-22.947 152.772 89.513-38.425 22.5z"/><path fill="#0D1006" d="M212.94 72.275l-153.249 90v-45l153.25-90v45"/><path fill="#F88900" d="M174.291 139.423V50l-38.2-22.5v89.907l38.2 22.016"/><path fill="#0D1006" d="M212.716 207.5L174.29 230v-45.563l38.425-22.5V207.5"/><path fill="#F88900" d="M22 95.371l37.691 21.938v45.278L22 140.649V95.371"/><path fill="#CCB18E" d="M136.091 27.5l38.2-22.5 38.65 22.275L174.29 50l-38.2-22.5"/><path fill="#F88900" d="M174.291 184.438l-38.2-22.342V207.5l38.2 22.5v-45.563"/></g></svg>