<svg width="235" height="235" viewBox="0 0 235 235" xmlns="http://www.w3.org/2000/svg"><path d="M173.65 30.352c-4.372-9.731-10.761-16.59-19.058-19.484-22.1-7.705-51.127 15-72.537 53.478 4.26-1.01 8.545-1.904 12.853-2.682 27.727-18.524 56.004-29.386 78.743-31.312zM61.194 204.427c4.372 9.73 10.764 16.589 19.06 19.483 22.098 7.706 51.125-15.001 72.534-53.475a244.035 244.035 0 0 1-12.854 2.68c-27.728 18.524-56.003 29.384-78.74 31.312z"/><path d="M110.623 59.33c41.047-4.804 78.468.734 102.135 13.134.916-9.17-.828-17.23-5.595-23.48-15.546-20.38-58.155-14.896-101.254 10.945a267.36 267.36 0 0 1 4.714-.6zm13.596 116.117c-41.046 4.806-78.466-.732-102.134-13.132-.915 9.171.828 17.23 5.595 23.478 15.546 20.382 58.154 14.896 101.251-10.946-1.562.216-3.13.419-4.712.6zm-35.966-53.655c-5.754 1.991-8.685 9.622-3.872 13.438 4.813 3.818 12.889 2.046 16.65-1.714 3.761-3.759 6.029-12.992 6.029-12.992s-13.053-.723-18.807 1.268zm46.742-21.843c-6.25 4.424-6.857 13.603-6.857 13.603s6.801.61 15.874-.387c9.073-.995 10.677-8.35 8.465-12.885-2.214-4.532-11.228-4.754-17.482-.331z"/><path d="M229.508 104.275c-3.473-29.665-56.47-47.841-118.375-40.599C49.228 70.92 1.86 100.843 5.334 130.506c3.474 29.664 56.474 47.84 118.377 40.595 61.904-7.243 109.272-37.163 105.797-66.826zm-56.566 5.426c-4.128 12.976-24.189 15.41-24.189 15.41-8.04 1.107-22.792.957-22.792.957-1.031 9.144 4.646 10.47 14.68 10.62 10.03.145 22.494-5.606 22.494-5.606l-3.097 15.927s-12.318 3.317-21.465 3.17c-9.145-.145-21.314.297-28.744-11.132-7.429 8.33-16.983 11.721-29.742 11.797-12.761.073-21.907-7.522-18.366-23.816 3.54-16.296 24.856-18.065 24.856-18.065 10.842-1.475 23.085-1.032 23.085-1.032 1.55-9.954-7.891-10.545-17.553-10.47-9.662.074-19.618 5.457-19.618 5.457l2.728-15.705s10.398-2.433 23.676-3.466c13.276-1.032 23.159 4.056 26.331 11.281 7.819-8.554 22.199-13.79 35.034-11.355 12.832 2.433 16.815 13.051 12.682 26.028z"/></svg>