<svg width="235" height="235" viewBox="0 0 235 235" xmlns="http://www.w3.org/2000/svg"><path d="M117.5 5C55.368 5 5 55.368 5 117.5S55.368 230 117.5 230 230 179.632 230 117.5 179.632 5 117.5 5zm0 195.838c-22.89 0-43.622-9.23-58.683-24.168l8.98-16.302h99.562l8.908 16.219c-15.069 14.987-35.835 24.251-58.767 24.251zm32.821-71.623l8.036 14.692H76.772l8.009-14.692h65.54zm-56.565-16.462l23.744-43.55 23.818 43.55H93.756zm93.755 49.968L117.5 34.16 47.41 162.6c-8.383-13.002-13.25-28.483-13.25-45.1 0-46.028 37.312-83.341 83.34-83.341 46.027 0 83.338 37.312 83.338 83.34 0 16.672-4.896 32.197-13.327 45.222z"/></svg>