<svg width="235" height="235" viewBox="0 0 235 235" xmlns="http://www.w3.org/2000/svg"><path d="M117.4 43.062c-41.034 0-74.338 33.304-74.338 74.339s33.304 74.34 74.339 74.34 74.34-33.305 74.34-74.34c0-41.035-33.404-74.34-74.34-74.34zm36.27 79.942l-49.956 28.844c-4.362 2.478-9.714-.595-9.714-5.65V88.511c0-4.956 5.352-8.128 9.714-5.65l49.956 28.844c4.262 2.577 4.262 8.822 0 11.3z"/><path d="M117.4 5C55.353 5 5 55.352 5 117.4c0 62.05 50.352 112.402 112.4 112.402 62.05 0 112.402-50.353 112.402-112.401C229.802 55.352 179.449 5 117.4 5zm0 196.454c-46.387 0-84.052-37.665-84.052-84.053s37.665-84.053 84.053-84.053 84.053 37.665 84.053 84.053c0 46.288-37.765 84.053-84.053 84.053z"/></svg>