<svg width="235" height="235" viewBox="0 0 235 235" xmlns="http://www.w3.org/2000/svg"><path d="M44.066 139.961c0 41.115 25.76 76.197 62.012 90.038H15.413c-5.75 0-10.413-4.663-10.413-10.41V94.616h28.224V43.593H5V15.41C5 9.66 9.661 5 15.413 5h28.653v134.961zm168.224 64.19A96.45 96.45 0 0 0 230 175.527v44.063c0 5.747-4.661 10.41-10.412 10.41H174.8a96.51 96.51 0 0 0 29.821-18.18l-36.217-36.218c-7.709 6.06-17.405 9.703-27.972 9.703-25.045 0-45.344-20.302-45.344-45.344V5h124.5C225.338 5 230 9.66 230 15.41v89.005c-14.15-35.622-48.905-60.822-89.568-60.822H105.93v51.023h34.503c25.043 0 45.346 20.302 45.346 45.345 0 10.568-3.644 20.265-9.704 27.971l36.216 36.22z"/></svg>