<svg width="235" height="235" viewBox="0 0 235 235" xmlns="http://www.w3.org/2000/svg"><path d="M129.632 154.6c57.15-17.321 36.75-75.547 0-77.759 9.338 0 16.962-26.287 16.962-58.841 89.725 6.265 131.884 151.587-2.7 197.04.86-11.794-4.056-44.715-14.258-60.44h-.004zM5 137.398V76.96h.123c32.45-.122 58.63-26.534 58.506-58.84h62.562C126.191 84.085 71.987 137.4 5 137.4zm81.982-10.933h.001c37.12 29.974 39.209 80.462 39.209 90.535H63.629c0-33.414-22.124-60.439-49.533-60.439 46.46-7.37 55.93-15.109 72.886-30.096z" stroke="#000" stroke-width=".5"/></svg>