<svg width="235" height="235" viewBox="0 0 235 235" xmlns="http://www.w3.org/2000/svg"><path d="M117.5 5C179.632 5 230 55.369 230 117.5c0 62.132-50.368 112.5-112.5 112.5C55.37 230 5 179.632 5 117.5 5 55.37 55.369 5 117.5 5zm45.577 80.968c-.31-18.747-22.39-23.55-22.39-23.55s12.395 8.142 12.705 24.636c.31 16.491-6.353 22.93-6.353 22.93s16.347-5.268 16.038-24.016zM89.584 174.05V60.48l-22.622-1.084v1.858s13.842 3.565 13.842 24.12v62.028c0 24.272-13.842 25.668-13.842 25.668v2.066l22.622-1.086zm36.152 1.162c9.838-.076 24.945-6.816 27.734-25.176 2.79-18.361-4.415-26.805-8.133-29.904-3.72-3.098-14.257-6.661-14.257-6.661s6.973-3.487 10.148-8.523c3.179-5.035 5.657-14.255 3.332-23.938-2.323-9.684-10.845-19.37-20.762-20.762-9.916-1.394-14.124.233-26.16.388v113.311s18.26 1.343 28.098 1.265zm26.147-4.182s20.644-5.81 20.41-27.889c-.231-22.079-20.41-27.038-20.41-27.038s9.782 8.71 10.256 27.248c.472 18.536-10.256 27.68-10.256 27.68z"/><path d="M131.469 104.535c7.23-9.4 4.958-27.088-3.795-33.131-8.755-6.044-17.974-3.02-19.756-1.318-1.782 1.705-1.704 41.369-1.704 41.369s18.024 2.48 25.255-6.92zm1.34 16.89c-6.765-2.945-26.596-2.17-26.596-2.17s-.308 10.02.413 28.768c.724 18.746 7.128 18.643 13.79 18.903 6.665.258 19.369-.207 23.552-16.374 4.183-16.165-4.39-26.185-11.158-29.128z"/></svg>