<svg width="235" height="235" viewBox="0 0 235 235" xmlns="http://www.w3.org/2000/svg"><path d="M78.957 68.783l21.913 21.913-61.044 61.434 9 34.044 23.087 6.26 28.957 28.957L92.26 230l-68.869-18.391L5 142.739l13.696-13.696 60.26-60.26zm132.652 142.826L142.739 230l-73.956-73.957 21.913-21.913 61.434 61.044 34.044-9 6.26-23.087 28.957-28.957 8.609 8.61-18.391 68.869zM186.174 48.826l-23.087-6.26-28.957-28.957L142.74 5l68.869 18.391L230 92.261l-73.957 73.956-21.913-21.913 61.044-61.434-9-34.044zM42.565 71.913L13.61 100.87 5 92.26l18.391-68.869L92.261 5l13.696 13.696 60.26 60.26-21.913 21.914L82.87 39.826l-34.044 9-6.26 23.087z"/></svg>