<svg width="235" height="235" viewBox="0 0 235 235" xmlns="http://www.w3.org/2000/svg"><path d="M5 58.5v118h22.722V81.532H58.33c23.669 0 34.082 8.52 50.176 43.225 16.265 35.075 34.398 51.743 66.586 51.743H230v-22.4h-54.908c-20.51 0-30.61-7.259-45.757-39.124C114.186 83.11 98.093 58.5 58.33 58.5H5zm170.092 0c-22.694 0-38.403 8.285-51.395 25.468 4.688 6.97 8.841 14.584 12.687 22.396C148.04 85.992 157.913 80.9 175.092 80.9H230V58.5h-54.908zm-75.975 70.014c-11.557 19.584-21.995 24.954-40.787 24.954H37.82V176.5h20.51c25.32 0 41.044-9.978 53.036-25.456-4.32-6.575-8.269-13.952-12.02-22.04l-.229-.49z"/></svg>