<svg width="235" height="235" viewBox="0 0 235 235" xmlns="http://www.w3.org/2000/svg"><path d="M104.454 137.131h54.758c20.34 0 36.889-16.545 36.889-36.88 0-20.333-16.549-36.876-36.89-36.876h-17.443L104.454 31h54.758c38.258 0 69.276 31.008 69.276 69.25 0 29.014-17.855 53.859-43.179 64.161l43.174 37.463H179.08l-74.625-64.743zm26.736-41.377H76.438c-20.337 0-36.892 16.539-36.892 36.873 0 20.332 16.553 36.877 36.892 36.877H93.88l37.312 32.372H76.437c-38.26 0-69.278-31.003-69.278-69.25 0-29.011 17.855-53.86 43.178-64.163L7.163 31h49.405l74.622 64.754z"/></svg>