<svg width="235" height="235" viewBox="0 0 235 235" xmlns="http://www.w3.org/2000/svg"><path d="M117.788 5.804c61.864 0 112.063 50.12 112.063 111.984S179.571 229.77 117.788 229.77c-61.784 0-111.984-50.2-111.984-111.983 0-61.784 50.12-111.984 111.984-111.984zm27.995 66.37l3.218-8.367c.322-.885-.322-1.77-1.206-1.77h-11.987l-3.781 9.895h-5.31l3.057-8.125c.322-.885-.322-1.77-1.206-1.77H116.58l-3.781 9.895H75.23c-1.689 0-3.298.966-4.182 2.414l-9.332 16.492h70.069c2.333 0 4.586.402 6.758 1.287 4.183 1.69 9.09 5.55 7.803 14.239-2.01 14.561-16.894 40.304-49.073 40.707l16.653-43.281c.644-1.77-.643-3.62-2.574-3.62H89.068l-26.95 66.128s5.39.643 13.917.643L73.3 173.86h12.389c.965 0 1.85-.564 2.172-1.529l2.333-5.953c1.85-.16 3.62-.402 5.55-.563l-3.056 8.045h12.308c.966 0 1.85-.564 2.172-1.529l3.54-9.09c20.193-4.586 41.753-14.642 54.705-35.72 25.984-42.476-.966-53.416-19.63-55.347z"/></svg>