<svg width="235" height="235" viewBox="0 0 235 235" xmlns="http://www.w3.org/2000/svg"><path d="M13.804 73.478c-.978 3.424-.489 6.359.979 8.315 5.87 7.827 27.39 5.87 55.271-5.87 35.707-15.162 67.99-40.597 72.392-57.227 1.467-5.87-.49-9.783-5.87-11.74.978 0 1.467 0 3.913.49 1.957.489 3.424.978 4.402.978 5.87 2.446 8.316 6.359 6.848 13.206-4.891 18.098-40.109 45.98-79.239 62.61-30.815 13.206-54.293 15.162-60.652 6.358-1.468-1.957-1.957-4.402-1.468-6.848 0-.49 0-1.467.49-2.446 0-.489.489-.978.489-1.956.978-2.935 2.445-6.848 3.913-9.783-.49 1.468-.979 2.935-1.468 3.913zm5.434-10.36l-.053.089c-.49.978-.49 1.467-.49 1.956 0 2.446 0 3.424 1.468 5.38 3.525-6.035 4.175-6.93 4.891-7.826 3.424 4.892 15.653 4.892 31.305-.489 2.445-.489 1.956 3.913 1.956 3.913 0 2.446-.489 5.87-21.032 8.316-5.87.489-13.696.489-17.12-3.914.93-1.86 1.86-3.524 2.916-5.116a60.724 60.724 0 0 1 1.975-3.199c-1.231-1.231-1.43-3.152-1.172-5.183-1.86 1.922-3.279 4.286-4.697 6.65 0-.192.019-.384.053-.577zM40.64 36.233c-1.268 2.027-2.441 3.681-2.868 4.963l-6.359 6.358c0-.489.49-1.467.49-1.956.977-1.468 1.956-3.424 3.912-5.38.785-.589 1.49-1.256 2.18-1.939a28.879 28.879 0 0 0-2.18 1.938c1.468-1.956 3.424-4.402 5.87-6.358 3.913-3.424 3.913-3.424 5.87-4.892 3.423-2.445 3.423-2.445 5.38-3.913 3.424-2.445 3.424-2.445 4.891-3.424 3.424-1.956 3.424-1.956 4.891-2.934 3.424-1.957 3.424-1.957 4.892-2.446 3.424-1.467 3.424-1.467 5.38-2.446 3.913-1.467 4.402-1.956 7.337-2.934 4.891-1.468 4.891-1.468 7.337-2.446 14.185-3.424 22.99-1.467 21.033 6.359-.49 2.445-2.446 5.38-5.38 8.804-2.446.978-7.338 0-8.316-.978 2.446-2.446 3.913-4.892 4.402-7.337 1.957-7.826-9.782-8.315-26.902-1.468-13.207 5.87-25.435 14.674-31.304 22.011l-.556.418zM9.807 144.763l.084.128.134.8c9.208 10.794 40.936 7.593 81.062-9.604 52.337-22.5 100.272-60.163 107.12-84.62 1.467-5.87.489-10.76-2.935-13.695 2.445 1.956 5.38 5.38 7.337 7.337 2.934 3.424 3.424 7.826 1.956 13.206-6.848 24.946-55.272 63.587-109.076 86.087-42.746 18.32-75.665 21.053-83.812 8.764.055.177.112.353.17.53-.922-.923-1.41-1.845-1.462-3.177-.075-.223-.143-.45-.205-.68a7.433 7.433 0 0 1-.537-1.962c-.706-2.466-1.343-5.199-1.708-7.388.465 1.396.93 2.793 1.817 4.189.04-.25.087-.505.14-.765a10.04 10.04 0 0 0-.127.784c.01.018.022.035.033.052.025-.275.056-.554.093-.836-.036.288-.064.571-.084.85zm-4.41-20.613c-.142-2.43-.397-5.156-.397-7.628 0 2.445.49 4.891 1.957 6.848 31.793 33.75 173.64-53.316 175.597-90 .49-6.36-3.424-9.294-5.38-10.761l3.913 2.934 4.402 3.424c3.913 2.935 5.38 7.826 3.913 14.185-6.359 23.478-52.337 59.674-103.206 81.196-47.818 20.286-82.757 20.063-80.8-.198zm.005.098a14.446 14.446 0 0 0 .108 3.161 9.113 9.113 0 0 1-.02-.616c0-.787-.036-1.645-.088-2.545zm2.095-12.976l-.051.358c-1.468-1.956-2.446-4.89-1.957-8.315l.978-5.87.979-4.402c-.979 3.914-.49 6.848 1.467 9.294a406.574 406.574 0 0 0-1.39 8.75c.13.181.267.362.412.543l1.467-8.804c.978 1.467 2.446 2.446 3.913 3.424.978.978.49 5.38.49 5.87-.49 1.467-.979 3.423-1.957 2.934-1.819-1.01-3.304-2.27-4.35-3.782zM108.207 5.489C111.14 5 114.565 5 117.5 5c9.783 0 14.674 3.913 12.717 11.25-2.445 9.293-15.163 21.522-31.793 32.772-3.424 1.467-6.359-2.935-5.87-4.402.49 0 .49-.49.49-.49 14.673-9.782 25.923-20.543 27.88-28.858 1.956-7.337-4.402-10.761-15.163-9.783h2.446zm57.228 10.761c5.87 2.446 7.826 7.337 6.358 14.674-5.87 21.033-46.956 53.804-92.934 73.37-8.805 3.423-16.63 6.358-24.457 8.804-3.913.489-4.891-5.38-2.935-7.826.49-.979.979-.979 1.468-1.468 6.848-1.956 14.674-4.891 22.989-8.315 43.043-18.098 82.174-48.913 87.554-68.967 1.957-7.337-.978-11.74-7.337-14.185 2.446.978 6.359 2.446 9.294 3.913zm49.402 46.957l1.467 2.445c1.468 3.424 1.468 3.424 1.468 5.87v.489c-1.468-.49-4.402-6.359-4.402-8.804 0-2.446-.49-4.892-1.957-6.848l3.424 6.848zm9.783 25.434c.489 2.446.489 5.38-.49 8.805-5.38 21.032-41.087 51.358-84.13 73.858-4.891 1.957-7.826-1.467-6.359-4.891.49-1.467 1.468-1.956 2.446-2.935 43.533-22.989 79.728-53.804 85.598-75.326.978-3.913.978-7.337 0-9.782.978 2.934 1.956 6.847 2.935 10.271zm3.423 19.566v3.423c0 1.468 0 3.424-.489 5.38-3.424 12.718-18.587 29.349-40.597 45.49-3.424 1.957-4.892-.978-4.403-3.424.49-1.956 1.468-2.935 2.446-3.424 22.5-16.63 38.152-33.75 41.576-46.956.49-2.446.978-4.892.49-6.848l.977 6.359zM31.903 52.446c-.49-.979-.98-1.957-.49-3.913-.49 1.956 0 2.934.49 3.913zM80.814 38.26c.49.489.978 1.956 0 2.935-4.891 2.934-10.272 5.38-15.163 7.826-16.63 7.337-29.837 8.315-33.26 3.424 1.956-2.446 3.912-4.892 6.358-7.337 2.446 3.913 12.717 2.934 25.924-2.446 4.402-1.956 8.315-3.913 12.228-6.359 1.468-.489 3.424 1.468 3.913 1.957zM11.848 90.598C10.38 88.64 9.89 86.196 10.38 83.75c-.489 2.446 0 4.891 1.468 6.848zm178.532 16.63c.979 2.935 0 4.892-.978 5.87-21.032 18.587-51.359 38.152-83.641 51.848C57.826 185 22.12 185.978 18.696 168.859c-.49-1.468 0-.49.489-.979 0 .49 0 2.935 1.956 5.38-.978-.488-1.467-.977-1.467-1.956-.49-.489-.49-.978-.49-1.467-.977-1.467-1.467-2.935-2.445-4.891 8.804 12.228 42.065 9.293 84.62-8.805 32.282-13.695 62.608-32.771 83.641-51.848 3.424-1.467 4.891 1.468 5.38 2.935zM70.543 193.804c.49.979.979 2.446-.978 3.424-17.12 2.935-29.348.979-35.217-4.891-1.957-2.446-4.891-5.38-6.848-7.826 5.38 6.848 18.098 8.804 36.196 5.38 3.913 0 6.358 2.935 6.847 3.913zm52.337 1.957c.49.489.49 2.446-2.445 3.913-32.772 12.717-58.207 15.652-68.478 8.315-2.446-1.956-5.87-4.402-7.827-6.359 9.783 8.316 37.174 5.87 71.903-7.826 4.89-1.467 6.847 1.957 6.847 1.957zm104.674-68.968c-.489 2.446-.489 6.36-.978 8.805 0 .489 0 .978-.489 1.467-5.38 20.544-45.49 52.337-90 70.924-28.37 12.228-51.848 16.141-63.098 11.25-2.935-1.467-6.359-2.935-9.293-4.402 38.641 16.141 158.478-49.402 163.858-89.51v1.466zm-7.826 32.283c1.468-2.935 2.446-6.848 3.913-10.272-5.87 19.076-42.065 47.446-81.684 64.076-24.457 10.272-45 13.696-55.761 10.761 2.934.979 7.337 1.957 10.271 2.446 30.326 4.891 106.63-32.772 123.261-67.01zm-24.456 34.24c0 .488-.979 1.956-2.446 2.934-10.76 8.315-24.456 17.12-39.13 23.478-12.229 5.38-22.99 7.826-31.305 8.315h-11.739c9.294.49 23.478-2.445 39.62-9.782 16.63-6.848 32.771-16.63 44.51-26.413.49 0 .49-.49.979-.49v.49c0 .489-.49.978-.49 1.467z"/></svg>