<svg width="235" height="235" viewBox="0 0 235 235" xmlns="http://www.w3.org/2000/svg"><path d="M117.5 230C55.368 230 5 179.632 5 117.5S55.368 5 117.5 5 230 55.368 230 117.5 179.632 230 117.5 230zm13.988-189.236v-.001c-2.376-.359-6.767-.645-11.879-.717-8.926-.108-9.07-.108-15.405.933-34.843 5.743-60.435 32.014-64.682 66.36-.611 5.168-.72 13.926-.143 18.95 3.886 35.962 30.702 63.023 67.452 68.12 5.652.788 16.379.788 22.677 0 15.009-1.903 27.75-6.784 43.948-16.869l5.363-3.374.11-24.979.071-24.98H92.254v19.381h64.79l-.072 9.044-.108 9.009-2.844 1.937c-6.011 4.02-14.83 7.573-23.252 9.332-4.068.861-5.255.969-12.238.969-6.66 0-8.243-.108-11.374-.79-23.433-5.095-40.35-22.287-44.67-45.4-.863-4.738-.863-15.648.036-20.529 3.709-20.422 18.069-36.895 37.759-43.426 19.652-6.497 40.672-2.334 57.806 11.448l3.024 2.441 7.343-7.322 7.342-7.286-2.88-2.727c-10.833-10.336-24.943-16.976-41.428-19.524zm47.152 60.295v-9.511H92.254v19.021h86.386v-9.51z" fill-rule="evenodd"/></svg>