<svg width="235" height="235" viewBox="0 0 235 235" xmlns="http://www.w3.org/2000/svg"><path d="M117.5 5C179.603 5 230 55.397 230 117.5S179.603 230 117.5 230 5 179.603 5 117.5 55.397 5 117.5 5zm59.67 125.584v-12.985c0-1.982-1.685-3.667-3.668-3.667h-41.53c-1.983 0-3.668 1.685-3.668 3.667v12.886c0 1.982 1.685 3.667 3.667 3.667h23.095c-6.046 14.372-19.824 24.185-36.773 23.491-13.877-.495-26.068-8.227-33.007-19.427h8.227c1.983 0 3.668-1.685 3.668-3.668v-3.072c0-1.983-1.685-3.668-3.668-3.668H80.727a38.942 38.942 0 0 1-1.388-9.119 43.95 43.95 0 0 1 .793-9.614h13.381c1.983 0 3.668-1.685 3.668-3.668v-3.072c0-1.983-1.685-3.668-3.668-3.668H83.7c6.74-13.083 20.419-22.103 36.179-22.103 12.984 0 24.482 6.046 31.916 15.462 1.289 1.685 3.767 1.785 5.154.298l10.011-10.606c.892-.892.892-2.379.1-3.37-11.4-13.778-28.745-22.5-48.073-22.203-26.663.397-49.46 18.238-57.291 42.622H50.099c-1.982 0-3.667 1.685-3.667 3.667v3.073c0 1.982 1.685 3.667 3.667 3.667h9.317c-.297 2.082-.396 4.361-.495 6.542a62 62 0 0 0 .892 12.191h-9.714c-1.982 0-3.667 1.686-3.667 3.668v3.073c0 1.982 1.685 3.667 3.667 3.667h12.49c8.622 23.293 31.023 39.945 57.389 39.945 45.297 0 57.192-38.855 57.192-47.676z"/></svg>