<svg width="235" height="235" viewBox="0 0 235 235" xmlns="http://www.w3.org/2000/svg"><path d="M106.744 91.442C84.18 103.361 37.35 99.3 37.35 99.3L60.7 83.715c-9.314-8.252-15.217-20.301-15.217-33.791C45.483 25.17 65.423 5 89.953 5c24.4 0 44.339 20.17 44.207 44.924 0 18.729-11.281 34.838-27.416 41.518zm94.843 49.115c22.3 7.99 19.939 32.088 18.627 40.47-1.312 7.99-5.64 17.027-5.64 17.027s-2.362-22.92-16.792-26.85c-19.02-5.238-43.814 15.848-76.477 35.756-30.565 18.598-44.732 25.278-75.56 22.397-28.072-2.62-31.483-28.683-31.483-28.683s6.035 4.976 15.742 6.941c3.542.786 7.215 1.31 11.019 1.31 24.924 0 42.502-35.756 42.502-60.772-.131-.13-.131-.393-.262-.524-1.706-.13-19.021-1.571-41.584-13.752-6.953-3.798-12.331-8.251-16.266-12.704-8.92-9.954-11.15-19.515-11.413-20.3 15.348 11.656 34.5 11.787 55.358 11.787 50.241 0 81.462-33.791 81.462-84.085 0-4.846-.393-9.692-1.18-14.407 9.444 8.382 21.775 19.646 22.038 54.354.524 47.412-23.481 79.5-23.481 79.5s31.089-15.454 53.39-7.465zM88.903 19.538c9.314 0 17.71 4.191 23.35 10.74l3.542-3.013C109.236 19.8 99.53 14.954 88.903 14.954c-7.477 0-14.43 2.357-20.201 6.287l2.623 3.798c4.985-3.405 11.02-5.501 17.578-5.501z"/></svg>