<svg width="235" height="235" viewBox="0 0 235 235" xmlns="http://www.w3.org/2000/svg" xmlns:xlink="http://www.w3.org/1999/xlink"><defs><path d="M97.362 225L.084 168.75V56.25L97.362 0l97.278 56.25v112.5L97.362 225zm-92.58-58.967l92.58 53.532 92.58-53.532V58.967L97.361 5.435 4.782 58.967v107.066z" id="a"/><path d="M138.904 36.942c-5.576 4.671-11.696 8.892-18.035 12.8-5.978 3.684-12.116 7.118-18.09 10.455a876.149 876.149 0 0 0-5.416 3.048C70.099 78.733 52.559 91.31 52.559 112.501c0 17.904 12.582 29.57 32.976 42.047a328.602 328.602 0 0 0 7.297 4.32c-.898.503-1.78 1-2.7 1.51-6.113 3.39-12.434 6.897-18.693 10.748-.62.382-1.24.769-1.861 1.159a162.161 162.161 0 0 1-6.513-4.444c-17.954-12.987-32.135-29.667-32.135-55.34 0-30.637 20.19-48.6 42.926-62.76 6.347-3.951 12.89-7.608 19.25-11.16 1.446-.807 2.86-1.603 4.257-2.392 7.302-4.13 13.851-8.034 19.61-11.929l-19.61-11.34-19.618 11.344a196.261 196.261 0 0 0 7.814 5.028 354.72 354.72 0 0 0 7.285 4.312c-.628.353-1.243.701-1.882 1.059-6.386 3.567-12.989 7.255-19.43 11.266-.624.389-1.23.775-1.837 1.162-2.208-1.432-4.392-2.89-6.515-4.412a122.033 122.033 0 0 1-7.363-5.735L11.257 62.71v99.58l44.293 25.612c5.611-4.742 11.79-9.01 18.194-12.951 6.114-3.762 12.404-7.254 18.521-10.648a860.81 860.81 0 0 0 5.098-2.85c13.047-7.353 23.865-14.042 31.603-21.334H82.588l13.905-24.166h67.212c-.469 9.156-2.805 17.119-6.47 24.166-7.745 14.893-21.455 25.678-36.254 34.832-6.297 3.895-12.788 7.497-19.097 10.996-1.537.853-3.04 1.693-4.521 2.526-7.431 4.179-14.083 8.132-19.912 12.093l19.911 11.513 19.917-11.517a189.082 189.082 0 0 0-8.064-5.195 342.79 342.79 0 0 0-7.314-4.312c.705-.394 1.396-.783 2.116-1.182 6.332-3.513 12.879-7.145 19.278-11.103.61-.378 1.235-.77 1.858-1.164a165.223 165.223 0 0 1 6.484 4.393 120.1 120.1 0 0 1 7.54 5.901l44.29-25.61V62.71l-44.563-25.768zm-29.791 33.224a330.446 330.446 0 0 0-7.248-4.33c1.016-.572 2.016-1.138 3.057-1.72 5.677-3.171 12.111-6.765 18.255-10.552.614-.379 1.229-.762 1.843-1.148a164.845 164.845 0 0 1 6.492 4.455c15.926 11.583 28.889 26.044 31.698 47h-22.12c-3.434-13.342-15.006-23.24-31.978-33.705z" id="b"/></defs><g transform="translate(20 5)" fill-rule="evenodd"><use xlink:href="#a"/><use xlink:href="#b"/></g></svg>