<svg width="235" height="235" viewBox="0 0 235 235" xmlns="http://www.w3.org/2000/svg"><path d="M93.156 82.737V227.35A112.82 112.82 0 0 0 117.5 230c8.36 0 16.504-.92 24.344-2.65V82.737s-9.407-5.72-24.344-5.72c-14.938 0-24.344 5.72-24.344 5.72zM5 117.5c0 49.21 31.6 91.036 75.616 106.305v-43.28c-21.62-12.68-36.148-36.15-36.148-63.025 0-26.877 14.527-50.346 36.148-63.027v-43.28C36.6 26.463 5 68.288 5 117.5zM154.385 11.193v43.281c21.62 12.681 36.15 36.15 36.15 63.027 0 26.876-14.53 50.344-36.15 63.025v43.28C198.4 208.537 230 166.712 230 117.501c0-49.213-31.6-91.037-75.615-106.308zM93.156 7.65v40.99a72.847 72.847 0 0 1 24.344-4.173c8.54 0 16.727 1.48 24.344 4.174V7.65A112.893 112.893 0 0 0 117.5 5c-8.36 0-16.505.92-24.344 2.65z"/></svg>