<svg width="235" height="235" viewBox="0 0 235 235" xmlns="http://www.w3.org/2000/svg"><path d="M117.5 159.058l-.055.022-29.385-12.217-12.14-29.418L88.137 88.06 117.5 75.942l.055-.022 29.385 12.217 12.14 29.418-12.217 29.385-29.363 12.118zm0-112.6L67.305 67.172l-.147.355-20.738 49.88 20.752 50.288 50.234 20.885.094-.038 50.195-20.714 20.885-50.234-20.752-50.289-.027-.01-50.207-20.875-.094.038zm0-41.397l.148-.061 79.425 33.022.082.033L230 117.648l-33.055 79.507-79.445 32.784-.148.061-79.506-33.055L5 117.352l32.885-79.097.17-.41L117.5 5.061z" fill-rule="evenodd"/></svg>