<svg width="235" height="235" viewBox="0 0 235 235" xmlns="http://www.w3.org/2000/svg"><path d="M138.26 153.725L24.97 86.455c20.854-12.458 81.68-48.79 117.986-70.483 44.33-26.49 74.545 3.313 74.545 3.313v.022L86.34 93.15l51.898 30.018.022 30.556zm-35.865-60.49L217.5 28.42v148.932c0 31.67-37.18 51.457-39.475 52.647V77.209l-51.116 30.14-24.513-14.114zm67.687-2.052v134.383C142.25 209.15 47.477 153.06 32.455 141.588c-16.45-12.548-15.076-45.765-14.816-50.24l128.571 76.335-.062-62.274 23.934-14.226z"/></svg>