<svg width="235" height="235" viewBox="0 0 235 235" xmlns="http://www.w3.org/2000/svg"><path d="M117.5 5C179.634 5 230 55.368 230 117.5c0 62.13-50.366 112.5-112.5 112.5C55.368 230 5 179.628 5 117.5 5 55.368 55.367 5 117.5 5zm43.4 85.122L193 69.147C177.058 44.403 149.261 28 117.611 28 68.121 28 28 68.07 28 117.5c0 49.428 40.122 89.5 89.611 89.5 29.454 0 55.583-14.196 71.916-36.107l-30.843-22.786c-9.343 12.488-24.264 20.574-41.073 20.574-3.397 0-6.714-.338-9.927-.968v-16.487c3.146 1.506 6.936 2.427 11.458 2.427 17.114 0 23.529-14.675 23.667-24.633V95.18h-13.452l.002 33.696c-.08 2.66-1.045 11.34-10.217 11.34-10.192 0-11.33-8.451-11.458-10.323V95.181H94.23v67.857c-16.54-8.485-27.865-25.688-27.865-45.538 0-28.268 22.945-51.183 51.246-51.183 18.217 0 34.2 9.501 43.288 23.805z"/></svg>