<svg width="235" height="235" viewBox="0 0 235 235" xmlns="http://www.w3.org/2000/svg"><path d="M117.5 5C179.632 5 230 55.367 230 117.5c0 62.132-50.368 112.5-112.5 112.5S5 179.632 5 117.5C5 55.367 55.37 5 117.5 5zm-7.611 156.59c2.065-1.265 1.665-11.146.976-24.928-.69-13.787-5.509-30.153-9.47-39.458-3.96-9.306-14.54-23.935-19.972-24.813-3.902-.63-7.23-.4-18.023 0-10.79.404-11.591 3.16-11.71 4.538-.115 1.38 3.675 3.562 6.773 7.006 2.515 2.796 8.733 13.61 12.213 21.885H40l11.689 11.681h22.683c1.008 3.876 1.892 7.958 2.519 12.995H44.995l11.689 11.68h21.085c.4 10.928-.306 17.203 1.587 19.413 2.066 2.412 28.466 1.265 30.533 0zm41.3 0c2.066-1.265 1.667-11.146.977-24.928-.69-13.787-5.51-30.153-9.47-39.458-3.961-9.306-14.54-23.935-19.973-24.813-3.902-.63-7.233-.4-18.02 0-10.795.404-11.596 3.16-11.71 4.538-.116 1.38 3.67 3.562 6.772 7.006 3.1 3.446 11.822 19.069 14.12 27.111 2.295 8.042 4.359 15.163 5.05 28.03.69 12.862-.344 20.102 1.72 22.513 2.067 2.412 28.468 1.265 30.534 0zm42.28 0c2.065-1.265 1.662-11.146.975-24.928-.689-13.787-5.51-30.153-9.47-39.458-3.962-9.306-14.542-23.935-19.972-24.813-3.903-.63-7.231-.4-18.021 0-10.793.404-11.594 3.16-11.71 4.538-.112 1.38 3.675 3.562 6.775 7.006 3.1 3.446 11.823 19.069 14.117 27.111 2.297 8.042 4.362 15.163 5.052 28.03.685 12.862-.345 20.102 1.721 22.513 2.066 2.412 28.467 1.265 30.533 0z"/></svg>