<svg width="235" height="235" viewBox="0 0 235 235" xmlns="http://www.w3.org/2000/svg"><path d="M212.354 173.838L114.794 230l-96.942-56.162V61.514l96.943-56.162 97.559 56.162v112.324zm-186.417-5.186l88.858 51.24 88.682-51.24V66.172l-88.682-51.24-88.858 51.24v102.48z"/><path d="M152.852 54.043l9.228 39.111-94.57-.088 8.7-39.023h76.642zM89.834 120.84v25.928l17.227 16.435-.088 7.734-16.524 15.381H76.475l-34.98-60.82 25.663-19.16 22.676 14.502zm72.246-14.678l25.664 19.336-34.805 60.645h-13.798l-16.524-15.206-.088-7.822 17.139-16.347V120.84l22.412-14.678zm-72.158-7.119h49.658l-8.174 21.797 2.373 24.258-38.056.088 2.548-24.346-8.35-21.797z"/></svg>