<svg width="235" height="235" viewBox="0 0 235 235" xmlns="http://www.w3.org/2000/svg"><path d="M117.5 5C179.631 5 230 55.37 230 117.501 230 179.632 179.631 230 117.5 230 55.367 230 5 179.633 5 117.501S55.367 5 117.5 5zm43.356 156.345c1.561-5.932 27.884-103.241 27.884-103.241s-13.11-1.065-18.73 3.201c-5.616 4.265-7.542 11.03-7.542 11.03l-14.41 53.01-49.004-67.109s-10.924-.624-14.879.833c-3.953 1.455-9.26 5.306-11.48 13.768-2.218 8.462-28.158 103.21-28.158 103.21s12.588.435 16.542-1.752c3.954-2.185 7.907-4.577 10.3-12.95 1.637-5.731 14.254-52.855 14.254-52.855l49.11 67.557s11.809.342 15.762-1.437c4.735-2.135 8.79-7.336 10.35-13.265z"/><path d="M90.452 90.872l48.554 66.726 4.3-13.595L94.06 76.166z"/></svg>