<svg width="235" height="235" viewBox="0 0 235 235" xmlns="http://www.w3.org/2000/svg"><path d="M131.44 8.597l74.127 42.812A26.873 26.873 0 0 1 219 74.68v85.641c0 9.6-5.12 18.47-13.433 23.27l-74.127 42.813a26.873 26.873 0 0 1-26.88 0L30.433 183.59A26.873 26.873 0 0 1 17 160.32V74.68c0-9.6 5.12-18.47 13.433-23.27L104.56 8.596a26.873 26.873 0 0 1 26.88 0zM118 54.68L63.615 86.09v62.82L118 180.32l54.385-31.41V86.09L118 54.68zm8.57 66.32l37.282-19.018-.75 41.845-37.282 19.018.75-41.845z" fill-rule="evenodd"/></svg>