<svg width="235" height="235" viewBox="0 0 235 235" xmlns="http://www.w3.org/2000/svg"><path d="M230 117.5c0 62.132-50.367 112.5-112.5 112.5C55.369 230 5 179.632 5 117.5S55.368 5 117.5 5 230 55.368 230 117.5zm-41.47 6.47c3.571 0 6.465-2.907 6.465-6.494v-12.983c0-3.587-2.894-6.493-6.466-6.493h-38.962c-3.57 0-6.465 2.906-6.465 6.493 0 3.584 2.894 6.49 6.465 6.49h32.495v6.493c0 3.587 2.897 6.493 6.467 6.493zm-32.05 0h-4.932l-36.86-24.774A6.422 6.422 0 0 0 110.945 98h-12.93c-3.571 0-6.466 2.906-6.466 6.493 0 3.584 2.895 6.49 6.465 6.49h10.868l37.705 25.241c.891.466 1.903.73 2.979.73h19.843c3.57 0 6.464-2.907 6.464-6.494 0-3.584-2.895-6.49-6.464-6.49h-12.93zm-45.534 0H99.997L63.138 99.195A6.43 6.43 0 0 0 59.396 98h-12.93C42.894 98 40 100.906 40 104.493c0 3.584 2.894 6.49 6.466 6.49H57.33l37.705 25.241a6.41 6.41 0 0 0 2.978.73h12.932c3.57 0 6.465-2.907 6.465-6.494 0-3.584-2.895-6.49-6.465-6.49zm-64.48-.001c-3.572 0-6.466 2.906-6.466 6.492s2.894 6.492 6.466 6.492h12.93c3.57 0 6.465-2.906 6.465-6.492s-2.894-6.492-6.465-6.492h-12.93z" fill-rule="evenodd"/></svg>