<svg width="235" height="235" viewBox="0 0 235 235" xmlns="http://www.w3.org/2000/svg"><path d="M117.498 5C179.628 5 230 55.365 230 117.5S179.629 230 117.498 230C55.366 230 5 179.635 5 117.5S55.366 5 117.498 5zm67.042 133.866c2.217-5.916 1.232-8.052-.738-11.012-1.968-2.957-10.174-6.161-10.174-6.161l29.949-18.033-25.437-6.449-38.237 24.483 13.21-30.644-21.334-5.421-26.01 61.945 21.499 5.587 9.682-23.414s18.545 4.847 21.663 5.75c3.116.903 2.544 3.532 1.887 5.585-.658 2.055-7.55 18.322-7.55 18.322l21.09 5.257s8.286-19.88 10.5-25.795zm-99.476 3.806c6.018 1.315 15.316.548 19.035-7.777 3.72-8.324 13.785-31.874 16.739-39.983 2.953-8.106-4.486-12.705-9.957-14.239-5.47-1.533-31.591-7.876-36.759-9.201-5.527-1.42-20.13-3.726-23.85 4.71-3.72 8.433-13.566 31.984-16.957 40.577-3.392 8.594 1.969 13.098 7.002 14.41 5.032 1.315 38.729 10.188 44.747 11.503z"/><path d="M92.806 93.72c-2.686-.751-14.742-3.69-17.279-4.338-2.71-.697-6.95-1.155-8.774 2.982-1.826 4.139-7.035 16.324-8.699 20.54-1.664 4.215.885 5.8 3.355 6.446 2.469.644 15.19 3.691 18.144 4.336 2.951.644 5.81.4 7.635-3.685 1.825-4.084 7.12-16.347 8.57-20.326 1.45-3.975-.271-5.202-2.952-5.955z"/></svg>