<svg width="235" height="235" viewBox="0 0 235 235" xmlns="http://www.w3.org/2000/svg"><path d="M117.5 230.003C55.368 230.003 5 179.634 5 117.502c0-62.133 50.368-112.5 112.5-112.5 62.133 0 112.5 50.367 112.5 112.5 0 62.132-50.367 112.5-112.5 112.5zM70.793 57.812v61.659c0 33.81 25.925 63.158 61.397 57.756 20.841-29.593 2.806-75.436-41.885-101.204 56.171 22.492 67.656 63.205 61.595 97.042-.325 1.78-.754 3.529-1.171 5.268 10.244-6.882 15.115-13.488 19.7-25.556 16.18-43.372-16.052-91.97-99.636-94.965z" fill-rule="evenodd"/></svg>