<svg width="235" height="235" viewBox="0 0 235 235" xmlns="http://www.w3.org/2000/svg"><path d="M117.907 5L26 24.183v127.203c0 18.624 19.108 36.224 39.801 49.913 16.215 10.616 33.183 19.928 50.707 28.03l1.49.562 1.492-.562c3.728-1.397 90.509-38.273 90.509-77.943V24.183L117.907 5zm84.636 146.386c0 27.75-59.748 57.083-84.636 66.861l-1.212-.465-.466-.187-.84-.372-.465-.187-.84-.372-.279-.093-1.025-.466-.28-.093-1.118-.466-.187-.093-1.211-.465h-.092l-1.398-.563h-.094c-12.397-5.494-28.522-13.595-42.69-23.093l-1.678-1.118-1.678-1.211-1.584-1.118-.094-.093-1.49-1.118-.094-.093-1.493-1.109-.094-.093-1.49-1.118-.188-.093-1.398-1.024-.187-.094-1.305-1.024-.187-.187-1.212-1.024-.187-.187-1.118-1.024-.28-.187-1.025-1.024-.28-.28-1.025-1.023-.28-.28-1.025-.93-.28-.28-.932-.93-.28-.372-.838-.931-.28-.373-.838-.93-.28-.373-.745-.93-.373-.373-.652-.838-.373-.465-.652-.838-.372-.466-.563-.837-.28-.466-.563-.837-.279-.563c-.187-.279-.28-.562-.466-.745l-.373-.562a2.787 2.787 0 0 1-.372-.746l-.28-.562c-.093-.279-.279-.466-.372-.746a3.1 3.1 0 0 0-.28-.562 6.412 6.412 0 0 1-.279-.745c-.093-.28-.187-.373-.28-.653a4.537 4.537 0 0 0-.279-.652 1.725 1.725 0 0 1-.186-.652c0-.187-.187-.465-.187-.652a1.725 1.725 0 0 0-.187-.652c-.094-.187-.094-.372-.187-.652-.094-.28-.094-.466-.187-.746a1.382 1.382 0 0 1-.094-.562c0-.187-.093-.466-.093-.746 0-.28-.094-.372-.094-.562a3.452 3.452 0 0 0-.187-.838c-.093-.278 0-.278 0-.465V30.981l84.179-13.5h.745l84.176 13.5.094 120.406h-.006z"/><path d="M117.907 26.79L54.152 37.034l-13.145 2.049v109.044c0 25.236 54.342 51.962 76.9 60.809 13.142-5.122 37.004-16.297 54.622-29.705 1.305-1.025 2.702-2.05 3.915-3.074 6.058-4.935 11.092-10.15 14.355-15.457 2.517-4.098 4.008-8.288 4.008-12.481V39.083l-76.9-12.293zM80.808 84.618h44.835v9.313H80.808v-9.313zm87.433 4.378c0 22.069-15.38 36.319-36.632 36.319h-29.455v46.56H90.502V114.79h39.526c15.846 0 26.192-9.591 26.192-25.794 0-16.017-10.346-25.33-26.007-25.33h-12.306l-29.455.094V53.144h43.06c21.347 0 36.727 13.782 36.727 35.852h.002z"/></svg>