<svg width="235" height="235" viewBox="0 0 235 235" xmlns="http://www.w3.org/2000/svg"><g fill-rule="evenodd"><path d="M119.03 76.954h-17.5V195h21.617v-47.219h16.509c7.37 0 13.344-5.974 13.344-13.344V90.298c0-7.37-5.974-13.344-13.344-13.344h-20.627zM230 117.499C230 179.632 179.633 230 117.5 230 55.369 230 5 179.632 5 117.5S55.368 5 117.5 5 230 55.368 230 117.5zM111.309 73.874c9.38 0 16.985-7.583 16.985-16.937 0-9.354-7.604-16.937-16.985-16.937-9.38 0-16.985 7.583-16.985 16.937 0 9.354 7.604 16.937 16.985 16.937zm-26.256 2.053c-1.134 0-2.053.92-2.053 2.053v67.748c0 1.134.92 2.053 2.053 2.053h12.359V75.927H85.053z"/><path d="M123.147 86.192h4.126a3.08 3.08 0 0 1 3.08 3.08v46.192a3.08 3.08 0 0 1-3.08 3.079h-4.126v-52.35z"/></g></svg>