<svg width="235" height="235" viewBox="0 0 235 235" xmlns="http://www.w3.org/2000/svg"><path d="M117.5 5C179.632 5 230 55.368 230 117.5S179.632 230 117.5 230 5 179.632 5 117.5 55.368 5 117.5 5zm74.532 83.408c5.307-43.726-27.31-47.198-64.517-47.196H71.868l-7.526 38.722H48.249l-3.477 18.417H60.76l-18.74 96.373h27.39l10.726-55.618h40.859c19.71 0 65.354-3.88 71.038-50.698z"/><path d="M137.802 67.75H93.898l-2.352 12.183h38.722L126.79 98.35H87.994l-2.853 14.794h46.72c15.795 0 30.432-10.441 32.315-26.975 1.885-16.533-14.344-18.419-26.374-18.419z"/></svg>