<svg width="235" height="235" viewBox="0 0 235 235" xmlns="http://www.w3.org/2000/svg"><g transform="translate(5 5)" fill-rule="evenodd"><path d="M112.5 0C174.603 0 225 50.397 225 112.5S174.603 225 112.5 225 0 174.603 0 112.5 50.397 0 112.5 0zM80.574 53.822c-14.775 0-26.752 11.977-26.752 26.752 0 14.774 11.977 26.752 26.752 26.752 14.774 0 26.752-11.978 26.752-26.752 0-14.775-11.978-26.752-26.752-26.752zm63.654 117.158c14.775 0 26.752-11.977 26.752-26.752 0-14.775-11.977-26.752-26.752-26.752-14.775 0-26.752 11.977-26.752 26.752 0 14.775 11.977 26.752 26.752 26.752zm-36.901-26.752c0-20.38 16.521-36.901 36.901-36.901 14.775 0 26.752-11.978 26.752-26.752 0-14.775-11.977-26.752-26.752-26.752-14.775 0-26.752 11.977-26.752 26.752 0 20.38-16.521 36.9-36.901 36.9-14.775 0-26.752 11.978-26.752 26.753S65.8 170.98 80.575 170.98c14.774 0 26.752-11.977 26.752-26.752z"/><circle cx="80.574" cy="80.574" r="8.065"/><circle cx="144.228" cy="144.228" r="8.065"/><circle cx="80.574" cy="144.228" r="8.065"/><circle cx="144.228" cy="80.574" r="8.065"/></g></svg>