<svg width="235" height="235" viewBox="0 0 235 235" xmlns="http://www.w3.org/2000/svg"><path d="M170.774 61.656c7.341 7.327 13.293 15.347 17.56 21.585h1.19c22.321 0 40.476-17.03 40.476-38.12C230 24.03 211.944 7 189.524 7c-21.826 0-39.683 16.337-40.377 36.734 5.853 4.159 13.889 10.199 21.627 17.922zM74.147 221.069a105.18 105.18 0 0 0 22.916 5.842l-8.73-18.318-14.186 12.476zm53.472-151.888l-5.952-54.854c-3.076-.297-6.25-.396-9.524-.396-37.4 0-70.238 19.11-89.484 48.022l16.865 35.051 88.095-27.823zM89.722 201.662L41.41 100.965l86.706-27.427 9.425 85.944-47.818 42.18zM215.12 90.865l-73.71 65.152-15.377-141.195a109.841 109.841 0 0 1 23.61 5.842c-2.182 3.168-3.967 6.535-5.257 10.198-2.381-1.386-4.266-2.277-5.655-2.871a3.292 3.292 0 0 0-2.38 0c-.794.396-1.39.99-1.687 1.782l-2.679 7.228c-.496 1.288 0 2.872 1.29 3.565 5.357 3.168 19.345 12.08 32.639 25.348 13.194 13.168 22.619 28.318 25.992 34.258.496.694 1.19 1.189 1.984 1.387.298.099.496.099.694.099.596 0 1.19-.1 1.687-.495l7.143-4.951c1.19-.792 1.686-2.277 1.091-3.565-.397-.99-1.091-2.376-1.984-4.158 3.67-.99 7.143-2.476 10.417-4.258.793 2.178 1.488 4.456 2.182 6.634zM91.607 205.623l46.528-41.091 6.35 58.517c-10.22 3.268-21.033 4.951-32.243 4.951-3.373 0-6.746-.198-10.119-.495l-10.516-21.882zm50.298-44.458L216.31 95.42a107.871 107.871 0 0 1 3.075 25.546c0 46.338-29.564 85.845-70.933 100.697l-6.547-60.498zM20.079 66.211l15.377 32.18-29.662 9.406A106.948 106.948 0 0 1 20.079 66.21zm17.262 36.04L86.35 204.634l-16.567 14.654C31.687 202.85 5 165.027 5 120.966c0-2.872.198-5.743.397-8.615l31.944-10.1z"/></svg>