<svg width="235" height="235" viewBox="0 0 235 235" xmlns="http://www.w3.org/2000/svg"><path d="M117.5 230c-21.941-22-43.943-44.02-66.004-66.06C34.472 147.5 24 122.116 24 98.75 24 46.973 65.861 5 117.5 5S211 46.973 211 98.75c0 18.218-5.236 42-27.377 65.205C169.96 177.985 147.92 200 117.5 230zM99.177 114.225h20.415c17.228 0 17.228-6.801 17.228-12.268 0-12.274-8.877-12.274-12.667-12.274h-87.6a80.272 80.272 0 0 0-.46 8.522c0 22.272 9.096 42.43 23.836 57.02l57.518 57.021 20.384-20.2-38.654-77.821zm99.621-16.019c0-44.543-36.425-80.645-81.352-80.645-32.78 0-60.949 19.254-73.836 46.937h80.542c26.303 0 38.077 18.815 38.077 37.46 0 17.193-8.567 29.314-23.667 34.551l18.238 36.734 18.175-18.01c14.727-14.598 23.823-34.755 23.823-57.027z" fill-rule="evenodd"/></svg>