<svg width="235" height="235" viewBox="0 0 235 235" xmlns="http://www.w3.org/2000/svg"><path d="M78.112 40.5c-9.844 0-17.825-7.947-17.825-17.75S68.267 5 78.112 5c9.844 0 17.824 7.947 17.824 17.75S87.956 40.5 78.112 40.5zm79.064 189.4c-9.844 0-17.825-7.946-17.825-17.75 0-9.802 7.98-17.75 17.825-17.75 9.844 0 17.824 7.948 17.824 17.75 0 9.804-7.98 17.75-17.824 17.75zM76.22 100.89c-4.78 0-9.66-2.181-12.846-6.346-5.377-7.04-3.983-17.155 2.988-22.61l82.45-62.472c7.169-5.354 17.326-3.966 22.703 3.074 5.377 7.14 3.983 17.255-3.087 22.61l-82.45 62.472a16.272 16.272 0 0 1-9.758 3.272zm0 63.96c-4.78 0-9.66-2.181-12.945-6.346-5.377-7.14-3.983-17.255 3.087-22.61l82.45-62.472c7.169-5.355 17.326-3.966 22.703 3.074 5.377 7.14 3.983 17.255-3.087 22.61l-82.45 62.472a16.272 16.272 0 0 1-9.758 3.272zm95.295-23.204c5.477 7.04 4.082 17.155-3.187 22.61l-82.45 62.472A16.272 16.272 0 0 1 76.12 230c-4.88 0-9.659-2.182-12.845-6.346-5.377-7.14-3.983-17.255 3.087-22.61l82.45-62.472c7.169-5.355 17.326-3.966 22.703 3.074z"/></svg>