<svg width="235" height="235" viewBox="0 0 235 235" xmlns="http://www.w3.org/2000/svg"><path d="M117.499 5C179.634 5 229.999 55.37 230 117.503 230 179.63 179.635 230 117.5 230 55.367 230 5 179.63 5 117.503 5 55.37 55.367 5 117.499 5zm45.455 66.847c.097-.886.15-1.562.152-2.04 0-.944-.15-1.728-.448-2.351-.297-.616-.778-1.207-1.44-1.764-.661-.56-1.85-1.256-3.572-2.084-1.72-.826-3.805-1.576-6.252-2.256-2.445-.682-5.158-1.237-8.138-1.684-.5-.073-1.032-.106-1.542-.164l.92-12.884a5.477 5.477 0 0 0-5.16-5.778c-2.997-.175-5.606 2.135-5.781 5.161l-.933 13.1c-2.95.107-5.89.4-8.802.877l.956-13.36a5.479 5.479 0 0 0-5.161-5.778c-2.997-.175-5.609 2.135-5.78 5.161l-1.212 16.958c-4.364 1.66-8.23 3.737-11.564 6.27-4.233 3.221-7.54 7.069-9.924 11.554-2.378 4.486-3.57 9.39-3.57 14.703 0 3.833.596 7.2 1.785 10.089 1.188 2.9 2.762 5.454 4.713 7.662a33.781 33.781 0 0 0 6.65 5.803 103.171 103.171 0 0 0 7.592 4.602c2.504 1.38 5.034 2.71 7.59 3.99 2.479 1.23 4.694 2.55 6.645 3.934 1.95 1.387 3.523 2.911 4.715 4.565 1.192 1.654 1.79 3.572 1.79 5.754 0 2.419-.515 4.647-1.543 6.685-1.022 2.034-2.528 3.824-4.514 5.36-1.985 1.534-4.452 2.74-7.391 3.63-2.944.885-6.37 1.328-10.273 1.328-4.43 0-8.237-.477-11.41-1.422-3.179-.943-5.924-1.96-8.239-3.054-2.316-1.09-4.251-2.092-5.802-3.006-1.558-.919-2.896-1.376-4.018-1.376-.664 0-1.276.3-1.838.889-.563.588-1.077 1.357-1.537 2.3a18.708 18.708 0 0 0-1.192 3.143 49.723 49.723 0 0 0-.844 3.367 43.328 43.328 0 0 0-.544 3.05c-.132.948-.2 1.654-.2 2.126 0 1.776.462 3.103 1.39 3.99.925.88 2.347 1.814 4.266 2.788 1.919.97 4.285 1.9 7.095 2.787 2.058.648 4.41 1.202 6.911 1.707l-.966 13.535a5.48 5.48 0 0 0 9.119 4.397 5.475 5.475 0 0 0 1.82-3.779l.916-12.809c1.251.058 2.471.141 3.785.141a86.02 86.02 0 0 0 4.954-.16l-.871 12.211a5.479 5.479 0 1 0 10.938.618l1.02-14.254a63.335 63.335 0 0 0 5.645-1.43c6.512-2 12.071-4.767 16.669-8.275 4.599-3.512 8.153-7.641 10.669-12.4 2.513-4.75 3.77-9.9 3.77-15.45 0-3.722-.596-7.01-1.785-9.87-1.19-2.867-2.781-5.405-4.763-7.614a35.003 35.003 0 0 0-6.802-5.853 105.097 105.097 0 0 0-7.733-4.646 369.41 369.41 0 0 0-7.746-4.071c-2.547-1.294-4.812-2.637-6.796-4.029-1.986-1.387-3.574-2.894-4.767-4.514-1.188-1.63-1.782-3.503-1.782-5.628 0-1.825.377-3.64 1.14-5.444.757-1.794 1.933-3.425 3.522-4.865 1.587-1.45 3.622-2.617 6.104-3.502 2.48-.886 5.506-1.328 9.077-1.328 3.443 0 6.517.37 9.233 1.103 2.709.74 5.073 1.543 7.092 2.394 2.017.856 3.721 1.653 5.111 2.393 1.387.735 2.545 1.1 3.475 1.1.594 0 1.152-.292 1.682-.881.532-.589 1.01-1.344 1.44-2.257.451-.97.816-1.978 1.091-3.012.294-1.065.543-2.143.748-3.229.182-.97.33-1.944.445-2.924z"/></svg>