<svg width="235" height="235" viewBox="0 0 235 235" xmlns="http://www.w3.org/2000/svg"><path d="M43.251 30.076c2.46.411-3.66 16.53-.245 34.951 2.945 15.784 39.896 76.912 38.373 97.875-1.182 13.165-31.523 44.043-34.712 41.984-3.493-.952 9.213-21.935 4.5-39.418-5.476-20.384-37.998-73.082-37.96-96.343 0-17.019 27.849-40.15 30.044-39.05zM112.758 6.01c3.113.522-4.674 21.093-.322 44.526 3.752 20.16 50.892 98.1 48.942 124.823-1.523 16.812-40.194 56.154-44.287 53.54-4.43-1.197 11.765-27.958 5.76-50.252-6.98-25.97-48.452-93.178-48.413-122.84 0-21.73 35.524-51.2 38.32-49.797zm71.736 24.066c2.46.411-3.656 16.53-.245 34.951 2.95 15.784 39.896 76.912 38.378 97.875-1.163 13.165-31.509 44.043-34.718 41.984-3.487-.952 9.214-21.935 4.507-39.418-5.482-20.384-37.999-73.082-37.965-96.343 0-17.019 27.867-40.15 30.043-39.05z"/></svg>