<svg width="235" height="235" viewBox="0 0 235 235" xmlns="http://www.w3.org/2000/svg"><path d="M124.598 151.337c-12.957 17.988-31.235 26.83-41.203 19.74-9.968-7.086-7.88-27.436 4.535-45.814.163-.255.306-.516.481-.767 1.663-2.384 3.853-7.592 5.976-5.855C99.717 123 122 138 128.541 143.204c2.016 1.603-1.776 5.107-3.392 7.422-.172.25-.368.472-.55.71zm-2.135-7.554c.133-.165.27-.317.395-.49.605-.839 2.43-2.23 1.54-2.66C121 139 105 126 99.717 122.833c-1.014-.607-1.719 1.688-2.44 2.699-.129.173-.225.352-.337.525-8.752 12.642-10.292 26.597-3.35 31.417 6.939 4.816 19.747-1.314 28.872-13.691zm-70.669-42.26c6.846-2.135 21.017-4.571 38.106 3.651C92 102 107 75 108.86 71.732c-14.793-3.143-36.595-.662-58.347 27.296-1.046 1.35-1.562 3.382 1.28 2.495zm111.048 76.182c19.28-30.207 13.558-51.6 5.34-64.189C164 117 146 140 143.577 142.81c13.695 13.252 16.206 27.404 16.507 34.531.123 2.936 1.851 1.783 2.757.364z"/><path d="M136.487 150.038h-.233c-2.569-.07-5.247-1.221-8.955-3.852-2.608-1.849-9.87-7.001-17.112-12.144l-.426-.303-11.392-8.08-6.151-4.363c-3.701-2.629-5.68-4.778-6.607-7.187-1.45-3.77.112-7.226 1.41-9.498.68-1.19 1.926-3.44 3.65-6.554 6.336-11.445 19.515-35.263 34.083-59.387 5.242-8.682 13.258-15.967 23.825-21.664 5.586-3.01 14.917-7.152 27.624-9.8 5.024-1.047 10.173-1.756 14.499-2 6.63-.374 7.807.463 8.373.866l.053.038c.58.415 1.746 1.363 3.589 7.64 1.233 4.206 2.305 9.351 3.016 14.488 1.951 14.089 2.973 40.522-12.105 59.258-17.65 21.94-35.476 42.464-44.044 52.322-2.333 2.686-4.018 4.626-4.9 5.673-1.286 1.523-2.548 2.625-3.859 3.373a8.688 8.688 0 0 1-4.338 1.174zM193.849 10.72c-4.642 0-14.79.96-26.232 4.472-12.405 3.804-29.081 11.473-38.076 26.38-14.516 24.033-27.664 47.789-33.983 59.204a724.91 724.91 0 0 1-3.69 6.624c-1.51 2.638-1.346 3.893-1.043 4.691.488 1.268 1.956 2.738 4.62 4.63l6.152 4.363 11.393 8.08.428.303c7.241 5.14 14.502 10.29 17.11 12.144 5.496 3.899 7.125 3.536 9.886.265a612.719 612.719 0 0 1 4.954-5.735c8.545-9.836 26.325-30.303 43.904-52.155 10.912-13.563 12.465-31.969 11.847-45.021-.673-14.139-4.03-25.386-5.372-28.165a18.43 18.43 0 0 0-1.898-.084v.004z"/><path d="M158.906 81.563A22.702 22.702 0 0 1 138.8 69.255a22.817 22.817 0 0 1 1.599-23.562 22.667 22.667 0 0 1 14.67-9.318 22.628 22.628 0 0 1 16.944 3.822c10.232 7.231 12.693 21.457 5.486 31.71a22.514 22.514 0 0 1-14.669 9.314c-1.296.227-2.61.341-3.925.342m.07-39.902c-.99 0-1.98.086-2.955.255a16.941 16.941 0 0 0-11.034 7.012c-5.42 7.723-3.569 18.434 4.128 23.877a17.036 17.036 0 0 0 12.753 2.876 17.065 17.065 0 0 0 11.043-7.012c5.428-7.721 3.574-18.43-4.13-23.875a16.928 16.928 0 0 0-9.805-3.133M28 228.31l31.503-44.329 2.293 1.63-31.503 44.328zm18.062-5.641l18.429-26.055 2.306 1.631L48.368 224.3z"/></svg>