<svg width="235" height="235" viewBox="0 0 235 235" xmlns="http://www.w3.org/2000/svg"><path d="M210.746 67.571c10.642 0 19.254 8.615 19.254 19.24 0 10.625-8.651 19.238-19.29 19.238-10.64 0-19.302-8.613-19.302-19.24v-.008l.02.011h.042c-.001-23.453-19.055-42.463-42.533-42.463s-42.514 18.991-42.533 42.427c0 .011-.005.024-.005.035 0 .462-.03.925-.064 1.374.761 22.737 19.49 41.092 42.44 41.103h.055c10.64 0 19.303 8.613 19.303 19.24-.034 10.653-8.689 19.273-19.358 19.28v-.01a42.444 42.444 0 0 0-30.02 12.423 42.32 42.32 0 0 0-12.405 29.992v.017c-.035 10.651-8.691 19.268-19.358 19.27-10.642 0-19.27-8.633-19.27-19.26v-.06.037c-.012-23.436-19.04-42.391-42.514-42.402h-.023c-10.643 0-19.285-8.608-19.285-19.238 0-10.631 8.614-19.242 19.257-19.242 10.642 0 19.226 8.613 19.226 19.24v.008l.055-.012h.031c.002 23.066 18.423 41.836 41.38 42.446.409-.026.822-.04 1.238-.04v.006a42.387 42.387 0 0 0 21.106-5.591c12.74-7.327 21.322-21.06 21.336-36.787v-.036c0-.501.02-.998.057-1.489-.76-22.773-19.478-41.005-42.469-41.024h-.036c-10.644 0-19.27-8.622-19.27-19.247s8.625-19.254 19.268-19.254c.246 0 .49.014.735.023 23.172-.359 41.847-19.277 41.86-42.419v-.034c0-10.625 8.628-19.25 19.27-19.25 10.643 0 19.271 8.621 19.271 19.247v.037-.015c.011 23.436 19.038 42.417 42.513 42.427h.018zM66.819 24.759c0-10.626 8.627-19.259 19.27-19.259 10.642 0 19.261 8.593 19.261 19.218 0 10.624-8.628 19.2-19.27 19.2h-.01l.013.05v.027c-23.484 0-42.525 19.022-42.525 42.463 0 23.442 19.023 42.445 42.496 42.464.012 0 .025-.007.036-.007 10.642 0 19.271 8.602 19.271 19.226 0 10.623-8.625 19.21-19.268 19.21-10.642 0-19.265-8.623-19.265-19.295h.009c0-23.253-19.087-42.339-42.6-42.35C13.6 105.705 5 97.088 5 86.462s8.608-19.24 19.251-19.24h.022C47.75 67.21 66.81 48.214 66.82 24.777v-.018z"/></svg>