<svg width="235" height="235" viewBox="0 0 235 235" xmlns="http://www.w3.org/2000/svg"><path d="M117.5 5C179.632 5 230 55.368 230 117.5S179.632 230 117.5 230 5 179.632 5 117.5 55.368 5 117.5 5zm56.297 176.485c3.128-6.32 4.661-13.193 4.661-20.557 0-3.193-.368-6.875-1.227-11.048-.797-4.173-2.637-8.469-5.458-13.01-2.821-4.478-6.808-8.039-12.022-10.678-5.213-2.638-9.874-3.927-14.045-3.927-2.514.244-4.906.798-7.238 1.717l38.271-38.293-6.194-6.2-62.438.185v-26.94l-6.01-3.13H86.09v4.48l5.521 5.523v20.006H67.445v8.837h24.103v47.319c0 6.873 1.961 12.335 5.886 16.385 3.925 3.99 10.98 6.015 21.222 6.015 4.17 0 7.974-1.106 11.408-3.439 3.435-2.27 6.135-5.646 8.096-10.003a20.7 20.7 0 0 0 .43-2.393c0-1.228-.429-2.27-1.227-3.191-.858-.614-1.655-.921-2.268-.921-.368 0-.737.123-1.105.369-.367.245-.613.675-.858 1.165a28.54 28.54 0 0 1-6.562 6.751c-2.514 1.84-5.152 2.762-7.912 2.762-3.556 0-6.194-1.289-7.912-3.806-1.717-2.576-2.576-5.768-2.576-9.695V88.453h47.289l-34.164 45.534v3.683l7.606-3.804c4.17-2.271 7.605-3.438 10.366-3.438 4.17 0 8.096 1.105 11.712 3.376 3.62 2.27 6.38 5.706 8.22 10.308 1.901 4.605 2.822 10.189 2.822 16.694 0 6.015-.86 11.353-2.576 16.08-1.718 4.663-4.418 8.283-8.034 10.677-3.62 2.392-7.667 3.62-12.144 3.62-3.252 0-6.5-.492-9.691-1.349-3.19-.86-5.582-2.333-7.053-4.42 1.717-.49 3.19-1.595 4.478-3.252 1.287-1.656 1.9-3.804 1.9-6.443 0-2.21-.429-3.989-1.287-5.523-.86-1.535-2.086-2.7-3.557-3.56-1.472-.86-3.313-1.288-5.52-1.288-2.208 0-4.048.429-5.52 1.288-1.534.86-2.7 2.087-3.558 3.56-.858 1.473-1.288 3.313-1.288 5.523 0 6.013 2.453 11.598 7.422 16.753 4.906 5.216 12.817 7.793 23.613 7.793 7.359 0 14.229-1.534 20.423-4.603 6.38-3.129 11.04-7.856 14.168-14.177z"/></svg>