<svg width="235" height="235" viewBox="0 0 235 235" xmlns="http://www.w3.org/2000/svg"><path d="M117.4 5c62.05 0 112.402 50.352 112.402 112.4 0 62.05-50.353 112.402-112.401 112.402C55.352 229.802 5 179.449 5 117.4 5 55.352 55.352 5 117.4 5zm59.924 115.16c4.312-22.259-5.06-55.132-5.06-55.132s-4.478-1.622-7.899-4.43c-3.42-2.808-6.614-7.03-6.614-7.03H77.25s-3.193 4.222-6.614 7.03-7.9 4.43-7.9 4.43-9.372 32.873-5.06 55.132c4.313 22.26 11.114 37.524 28.034 52.999 13.932 12.769 31.787 19.175 31.79 19.176.002-.001 17.857-6.407 31.79-19.176 16.92-15.475 23.72-30.74 28.034-53zm-13.619.638c-3.33 17.17-8.583 28.947-21.652 40.885-10.761 9.85-24.552 14.792-24.553 14.793-.002-.001-13.793-4.943-24.553-14.793-13.069-11.938-18.321-23.714-21.652-40.885-3.331-17.171 3.908-42.53 3.908-42.53s3.459-1.252 6.101-3.418c2.642-2.166 5.109-5.423 5.109-5.423h62.175s2.466 3.257 5.109 5.423c2.642 2.166 6.101 3.417 6.101 3.417s7.238 25.36 3.907 42.53zm-27.94-13.314h-3v-1.318c0-8.234-6.626-14.933-14.77-14.933-8.144 0-14.77 6.7-14.77 14.933v1.318h-3c-1.07 0-2.097.422-2.853 1.172a3.984 3.984 0 0 0-1.183 2.83v22.888c0 1.44.577 2.82 1.604 3.838a5.498 5.498 0 0 0 3.87 1.59h32.665c3.023 0 5.474-2.43 5.474-5.428v-22.888c-.001-2.21-1.808-4.001-4.037-4.002zM121.78 133.22h-7.57l1.416-10.667a4.911 4.911 0 0 1-2.452-5.544c.559-2.187 2.544-3.718 4.82-3.717 2.274 0 4.259 1.531 4.818 3.717a4.912 4.912 0 0 1-2.45 5.544l1.418 10.667zm5.293-25.736h-18.158v-1.318c0-5.123 4.072-9.29 9.079-9.29 5.006 0 9.08 4.167 9.08 9.29v1.318z"/></svg>