<svg width="235" height="235" viewBox="0 0 235 235" xmlns="http://www.w3.org/2000/svg"><g fill="none" fill-rule="evenodd"><path d="M230 117.5c0 62.132-50.367 112.5-112.5 112.5C55.369 230 5 179.632 5 117.5S55.368 5 117.5 5 230 55.368 230 117.5" fill="#000"/><path d="M161.64 66.037l22.572 16.608a1.922 1.922 0 0 1 .438 2.646l-75.785 108.896a1.922 1.922 0 0 1-3.385-.447L51.117 42.57a1.922 1.922 0 0 1 2.257-2.519L161.64 66.037zm-4.816 4.789L60.507 47.362l54.901 66.56 41.416-43.096zm-40.453 47.884l-6.742 67.04 67.904-98.644-61.162 31.604zm44.306-47.884l-39.49 41.66 54.9-28.253-15.41-13.407zM55.691 46.883l50.567 139.824 7.224-69.912-57.79-69.912z" fill="#FFF"/></g></svg>