<svg width="235" height="235" viewBox="0 0 235 235" xmlns="http://www.w3.org/2000/svg"><path d="M117.5 5C179.635 5 230 55.365 230 117.5S179.635 230 117.5 230C55.367 230 5 179.635 5 117.5S55.367 5 117.5 5zm0 54.017c-6.785 0-12.286 5.504-12.286 12.292 0 6.786 5.5 12.288 12.285 12.288s12.288-5.503 12.288-12.289c0-6.787-5.503-12.29-12.288-12.29zm55.67 83.062c6.783 0 12.284-5.503 12.284-12.29 0-6.787-5.502-12.292-12.285-12.292-6.784 0-12.289 5.505-12.289 12.292 0 6.786 5.505 12.29 12.29 12.29zM117.5 193L195 42h-40.775l-36.456 76.445L80.505 42H40l77.5 151z"/></svg>