<svg width="235" height="235" viewBox="0 0 235 235" xmlns="http://www.w3.org/2000/svg"><path d="M117.499 5C179.634 5 229.999 55.37 230 117.503 230 179.63 179.635 230 117.5 230 55.367 230 5 179.63 5 117.503 5 55.37 55.367 5 117.499 5zM40.112 111.435l62.983 64.717h22.122v-64.717h-23.198v32.203l-32.26-32.203H40.112zm93.9-29.403v16.445h30.034c8.49 0 11.406 5.058 11.406 10.006s-3.378 10.12-12.059 10.12h-29.381v20.474h35.603c13.518 0 25.233-9.201 25.233-30.248 0-21.05-15.864-26.798-25.233-26.798h-35.603zm23.877 76.521c7.614 2.764 12.187 6.3 12.187 10.158 0 8.852-24.074 16.025-53.768 16.025-29.696 0-53.768-7.172-53.768-16.025 0-3.858 4.573-7.394 12.185-10.158-13.57 3.627-22.171 8.996-22.171 14.989 0 10.925 28.543 19.782 63.754 19.782 35.21 0 63.755-8.857 63.755-19.782 0-5.993-8.605-11.362-22.174-14.989zM98.103 95.706V82.384c0-.575-.468-1.044-1.045-1.044H83.71c-.578 0-1.046.468-1.046 1.044v13.322a1.043 1.043 0 0 0 1.046 1.045h13.35a1.046 1.046 0 0 0 1.043-1.045zm27.038 6.432V82.851a1.51 1.51 0 0 0-1.512-1.51h-19.326a1.51 1.51 0 0 0-1.514 1.51v19.287a1.511 1.511 0 0 0 1.514 1.515h19.326a1.516 1.516 0 0 0 1.512-1.515zm-8.122-26.65v-12.28a.963.963 0 0 0-.964-.96h-12.303a.962.962 0 0 0-.963.96v12.28c0 .532.43.964.963.965h12.303a.966.966 0 0 0 .964-.965zm-20.126 0v-12.28a.96.96 0 0 0-.962-.96H83.627a.963.963 0 0 0-.963.96v12.28c0 .532.43.963.963.965h12.304c.53 0 .962-.433.962-.965zm-3.456-16.73v-9.296a.73.73 0 0 0-.729-.728h-9.314a.729.729 0 0 0-.73.728v9.296a.73.73 0 0 0 .73.728h9.314a.73.73 0 0 0 .73-.728zM78.94 72.755V63.01a.764.764 0 0 0-.766-.761h-9.76a.763.763 0 0 0-.765.761v9.746a.763.763 0 0 0 .765.765h9.76a.765.765 0 0 0 .766-.765zm-3.918-15.262V51.13a.497.497 0 0 0-.498-.499h-6.377a.499.499 0 0 0-.498.499v6.363a.498.498 0 0 0 .498.5h6.377a.499.499 0 0 0 .498-.5zm-10.6-8.108V43.02a.497.497 0 0 0-.498-.498h-6.377a.497.497 0 0 0-.498.498v6.364a.497.497 0 0 0 .498.499h6.377a.499.499 0 0 0 .499-.5z"/></svg>