<svg width="235" height="235" viewBox="0 0 235 235" xmlns="http://www.w3.org/2000/svg"><g fill-rule="evenodd"><path d="M191.036 67.832l-55.648-55.648c-9.579-9.579-25.087-9.579-34.666 0L45.53 67.832c-3.193 3.193-3.193 8.21 0 11.403l16.877 16.877 10.947 10.491c3.193 3.193 8.21 3.193 11.86 0l22.35-20.526c5.93-5.473 15.509-5.473 21.894 0l22.35 20.526c3.194 3.193 8.211 3.193 11.86 0l11.404-10.49 16.877-16.878c2.28-3.193 2.28-8.21-.913-11.403z"/><path d="M12.422 134.17l87.12 87.12c9.58 9.58 25.088 9.58 34.667 0l87.12-87.12c15.053-15.053 4.562-19.614-6.385-30.105L201.26 91.293c-3.193-3.193-8.21-3.193-11.86 0l-22.35 20.526c-5.93 5.473-15.508 5.473-21.894 0l-22.35-20.526c-3.193-3.193-8.21-3.193-11.86 0l-22.35 20.526c-5.93 5.473-15.509 5.473-21.895 0l-22.35-20.526c-3.193-3.193-8.21-3.193-11.86 0l-12.315 11.403c-11.403 10.947-23.263 15.965-7.754 31.473z"/></g></svg>