<svg width="235" height="235" viewBox="0 0 235 235" xmlns="http://www.w3.org/2000/svg"><path d="M104.99 171.325H75.415V152.32l30.49-42.29c5.548-7.253 9.917-12.496 15.42-19.05v-.436H78.78V64.199h26.21v-19.53h24.156V64.2h28.787v19.922l-29.093 40.544c-5.33 7.034-10.31 13.806-15.813 19.704v.437h46.522v26.52h-30.403v19.004h-24.157v-19.005zm12.493 58.457c-62.002 0-112.265-50.27-112.265-112.282 0-62.011 50.263-112.282 112.265-112.282 62.001 0 112.264 50.27 112.264 112.282 0 62.011-50.263 112.282-112.264 112.282zm0-24.903c48.25 0 87.365-39.121 87.365-87.379s-39.115-87.379-87.365-87.379c-48.25 0-87.366 39.121-87.366 87.379s39.115 87.379 87.366 87.379z"/></svg>