<svg width="235" height="235" viewBox="0 0 235 235" xmlns="http://www.w3.org/2000/svg"><path d="M176.755 21.862C159.545 11.176 139.245 5 117.498 5c-6.026 0-11.943.48-17.714 1.392l76.97 76.714V21.862zm50.27 69.913c-4.612-19.726-14.6-38.447-29.978-53.825a113.394 113.394 0 0 0-13.508-11.54l.18 108.669 43.307-43.304zm1.581 8.011l-76.71 76.97h61.243C223.824 159.547 230 139.246 230 117.5a113.545 113.545 0 0 0-1.394-17.714zm-85.38 127.24c19.724-4.612 38.446-14.6 53.822-29.977a113.5 113.5 0 0 0 11.542-13.51l-108.671.182 43.308 43.305zm-84.983-13.888C75.453 223.825 95.753 230 117.501 230c5.932 0 11.854-.466 17.713-1.392l-76.97-76.713v61.243zm-50.27-69.91c4.612 19.723 14.6 38.444 29.978 53.821a113.59 113.59 0 0 0 13.509 11.542L51.278 99.92 7.974 143.23zm13.888-84.984C11.177 75.453 5 95.754 5 117.5c.001 6.027.48 11.942 1.392 17.715l76.714-76.97H21.86zm69.912-50.27C72.05 12.588 53.327 22.574 37.95 37.95a113.651 113.651 0 0 0-11.54 13.51l108.67-.182L91.772 7.974zm11.921 61.1c2.93 0 13.114-4.32 21.659-6.162a55.724 55.724 0 0 0-7.855-.563 54.89 54.89 0 0 0-26.682 6.878c5.392-.553 10.866-.153 12.878-.153zm38.285 88.006c2.746-1.371 9.61-9.454 8.542-12.35-1.07-2.899-8.694-1.678-10.067-3.966-1.374-2.288-5.644-6.712-12.203-7.78-6.558-1.067-9.913 3.509-13.42 1.068-3.51-2.44 1.218-4.578-3.51-5.644-4.729-1.067.152-7.322-3.355-4.881-3.508 2.44-6.102 2.288-6.102-1.983 0-4.27 5.492-7.627 9.457-5.948 3.965 1.677 5.948 3.965 4.271 5.337-1.679 1.373.762 3.51 3.507 4.729 2.745 1.22 8.235 1.983 6.559.152-1.677-1.829-7.473-1.37-7.32-3.66.15-2.288-2.899-7.321-.841-8.694 2.059-1.374 5.719-8.39 8.923-9.151 3.203-.763.304-3.815 3.05-3.508 2.745.304 6.711.264 7.017-1.013.304-1.276 4.576.86 4.729-1.427.152-2.29-4.576-7.628-5.034-10.525-.458-2.9 1.983-8.39 1.373-10.678-.612-2.289-8.391-7.627-5.644-9.303 2.746-1.678 8.846 1.676 9.608 4.422.764 2.745 3.051 15.252 5.95 14.185 2.898-1.068 1.526-5.788 4.424-5.716 2.006.05 3.425-1.397 3.602-3.204a55.226 55.226 0 0 1 12.647 18.098c-1.253-1.348-2.374-2.11-3.132-1.857-2.333.777.763 5.644 1.83 7.168 1.068 1.524 2.744 3.66 1.525 4.118-1.22.458-2.323 2.44-1.847 4.575.475 2.136.627 7.455-1.356 9.065-1.982 1.614-4.728 8.934-2.44 12.29s3.75.61 6.07 1.526c.807.316 1.126.97 1.293 1.63-6.083 19.235-22.432 33.897-42.614 37.585 1.308-1.436 2.422-4.041 4.137-5.051 2.592-1.526 7.625-8.236 10.37-9.61zm-79.63-39.58c0-14.691 5.746-28.042 15.112-37.927-.369 2.536-.498 5.36.763 5.36 2.287 0 4.575-7.923 7.779-3.123 3.203 4.802-1.068 5.717-.457 8.158.609 2.44 3.321 5.49.745 9.61-2.576 4.118-.745 13.421 4.745 19.14 5.49 5.722 1.485 6.332 8.749 9.076 7.266 2.746 8.182 2.594 10.164 3.966 1.984 1.373 1.677 3.507 4.27 4.271 2.592.762 4.73 2.44 3.28 4.423-1.449 1.983-4.195 5.338-.305 9.61 3.89 4.27 7.398 4.88 6.635 10.982-.674 5.383-1.104 9.713.584 11.174a55.8 55.8 0 0 1-6.914.43c-30.458 0-55.15-24.692-55.15-55.15z"/></svg>