<svg width="235" height="235" viewBox="0 0 235 235" xmlns="http://www.w3.org/2000/svg"><path d="M100.706 141.303l35.092-21.047 77.2 42.094-38.099 22.049-74.193-43.096zM22.001 94.699l37.542-22.125L97.698 94.66l-38.155 22.087L22 94.7zm39.102 68.653v-46.103l73.692-42.093v44.098l-73.692 44.098zM175.401 52.606L213.5 29.555v42.87L175.902 95.2l-.501-42.594zm-1.504 0v86.191l-38.008-20.044V31.058l38.008 21.548zM175.902 230v-44.098L213 164.354v44.098L175.902 230zM21.5 96.203l38.1 22.049v45.1l-38.1-22.05v-45.1zM173.897 5l39.102 22.8-39.102 22.801-38.1-21.548L173.898 5zm-38.008 158.352l38.51 22.55V230l-38.51-22.049v-44.6z"/></svg>