<?xml version="1.0" standalone="no"?>
<!DOCTYPE svg PUBLIC "-//W3C//DTD SVG 1.1//EN" "http://www.w3.org/Graphics/SVG/1.1/DTD/svg11.dtd" >
<svg xmlns="http://www.w3.org/2000/svg">
<metadata>Generated by IcoMoon</metadata>
<defs>
<font id="cryptocoins" horiz-adv-x="1024">
<font-face units-per-em="1024" ascent="960" descent="-64" />
<missing-glyph horiz-adv-x="1024" />
<glyph unicode="&#x20;" horiz-adv-x="512" d="" />
<glyph unicode="&#xe900;" glyph-name="DOGED" d="M601.345 953.606c-193.555 0-505.604 0-505.604 0l-96.12-362.085h199.14l54.98 157.996v-807.118c0 0 333.118 0 414.762 0 81.635 0 355.497 72.41 355.497 310.735 0 238.321 0 142.201 0 376.57 0 206.726-162.944 323.902-422.655 323.902zM766.254 284.403c0-67.154-63.198-100.726-110.597-100.726-47.403 0-143.849 0-143.849 0v532.272c0 0 62.873 0 140.887 0 78.009 0 113.559-46.41 113.559-91.835s0-272.557 0-339.711z" />
<glyph unicode="&#xe901;" glyph-name="DOGED-alt" d="M583.929 578.503c-39.745 0-71.769 0-71.769 0v-271.157c0 0 49.137 0 73.277 0 24.149 0 56.348 17.105 56.348 51.309 0 34.214 0 149.926 0 173.073 0.005 23.142-18.111 46.776-57.856 46.776zM511.6 960c-282.55 0-511.6-229.051-511.6-511.6 0-282.545 229.051-511.6 511.6-511.6 282.545 0 511.6 229.055 511.6 511.6-0.005 282.55-229.055 511.6-511.6 511.6zM773.099 342.725c0-121.416-139.518-158.307-181.11-158.307s-211.309 0-211.309 0v411.204l-28.005-80.497h-101.453l48.966 184.461c0 0 158.975 0 257.584 0 132.321 0 215.324-59.694 215.324-165.013 0.005-119.398 0.005-70.432 0.005-191.848z" />
<glyph unicode="&#xe902;" glyph-name="ARCH" d="M511.984 960c-282.766 0-511.984-229.218-511.984-511.984s229.222-511.984 511.984-511.984 511.984 229.222 511.984 511.984-229.222 511.984-511.984 511.984zM562.81 242.852l-145.953 266.827-141.356-244.801h235.589l10.756-22.026h-286.55l286.546 479.365 266.827-479.365h-225.858z" />
<glyph unicode="&#xe903;" glyph-name="ARCH-alt" d="M530.741 891.939l-530.741-887.877h530.741l-19.922 40.788h-436.35l261.815 453.432 270.34-494.22h418.329z" />
<glyph unicode="&#xe904;" glyph-name="BANX" d="M238.375 431.923h-42.147v-46.392h42.147c16.689 0 28.289 5.933 28.289 22.636-0.005 17.822-12.449 23.756-28.289 23.756zM424.028 489.35l-22.916-70.716h45.827l-22.342 70.716zM258.464 485.106c0 14.716-10.471 19.525-21.503 19.525h-40.734v-38.756h40.734c9.053 0 21.503 4.809 21.503 19.231zM512.183 959.616c-282.658 0-511.804-229.145-511.804-511.808s229.145-511.808 511.804-511.808c282.676 0 511.817 229.141 511.817 511.808s-229.141 511.808-511.817 511.808zM239.364 644.971c0 1.671 1.35 3.021 3.021 3.021h43.908c1.666 0 3.021-1.35 3.021-3.021v-72.694c0-1.666-1.355-3.021-3.021-3.021h-43.908c-1.671 0-3.021 1.355-3.021 3.021v72.694zM143.6 644.971c0 1.671 1.35 3.021 3.025 3.021h43.904c1.675 0 3.025-1.35 3.025-3.021v-72.694c0-1.666-1.35-3.021-3.025-3.021h-43.904c-1.675 0-3.025 1.355-3.025 3.021v72.694zM193.559 240.639c0-1.666-1.35-3.025-3.025-3.025h-43.904c-1.675 0-3.025 1.359-3.025 3.025v72.694c0 1.666 1.35 3.025 3.025 3.025h43.904c1.675 0 3.025-1.359 3.025-3.025v-72.694zM289.314 240.639c0-1.666-1.355-3.025-3.021-3.025h-43.908c-1.671 0-3.021 1.359-3.021 3.025v72.694c0 1.666 1.35 3.025 3.021 3.025h43.908c1.666 0 3.021-1.359 3.021-3.025v-72.694zM240.637 343.379h-97.037v201.99h94.486c34.801 0.564 72.988-8.485 72.988-50.641 0-18.102-10.747-32.814-26.587-40.734 21.503-6.227 34.792-24.903 34.792-47.814 0-48.094-35.356-62.801-78.641-62.801zM471.837 343.379l-12.449 36.214h-70.441l-12.729-36.214h-54.032l75.53 201.99h53.467l75.539-201.99h-54.885zM715.654 343.379h-54.023l-70.161 125.891h-0.56v-125.891h-49.516v201.99h54.041l70.157-124.473h0.564v124.473h49.498v-201.99zM870.475 343.379l-37.894 67.33-41.307-67.33h-60.539l71.863 106.090-65.93 95.899h61.961l33.956-62.801 35.916 62.801h59.974l-65.343-95.899 71.29-106.090h-63.948z" />
<glyph unicode="&#xe905;" glyph-name="BANX-alt" d="M838.162 308.488l53.409 87.040 49.006-87.040h82.673l-92.178 137.17 84.498 123.99h-77.557l-46.441-81.197-43.895 81.197h-80.104l85.229-123.99-92.91-137.17zM398.443 569.648h-69.136l-97.651-261.16h69.859l16.463 46.816h91.077l16.093-46.816h70.969l-97.674 261.16zM333.701 405.787l29.63 91.438h0.741l28.881-91.438h-59.252zM182.907 451.506c20.478 10.246 34.376 29.256 34.376 52.668 0 54.501-49.372 66.206-94.364 65.474h-122.17v-261.16h125.457c55.974 0 101.683 19.024 101.683 81.201 0 29.626-17.186 53.765-44.983 61.816zM68.784 516.976h52.673c14.273 0 27.806-6.213 27.806-25.241 0-18.644-16.098-24.871-27.806-24.871h-52.673v50.112zM123.281 362.985h-54.497v59.979h54.497c20.491 0 36.584-7.667 36.584-30.714 0-21.584-15-29.265-36.584-29.265zM675.669 408.709l-90.715 160.94h-69.868v-261.16h64.020v162.768h0.722l90.715-162.768h69.854v261.16h-64.006v-160.94zM128.469 273.543c-2.158 0-3.91-1.747-3.91-3.906v-93.994c0-2.154 1.757-3.906 3.91-3.906h56.768c2.154 0 3.91 1.757 3.91 3.906v93.994c0 2.163-1.757 3.906-3.91 3.906h-56.768zM185.242 600.539c2.154 0 3.91 1.757 3.91 3.901v93.994c0 2.167-1.757 3.91-3.91 3.91h-56.773c-2.158 0-3.91-1.743-3.91-3.91v-93.989c0-2.149 1.757-3.901 3.91-3.901h56.773zM61.433 600.539c2.158 0 3.91 1.757 3.91 3.901v93.994c0 2.167-1.752 3.91-3.91 3.91h-56.773c-2.163 0-3.91-1.743-3.91-3.91v-93.989c0-2.149 1.747-3.901 3.91-3.901h56.773zM4.66 273.543c-2.163 0-3.91-1.747-3.91-3.906v-93.994c0-2.154 1.747-3.906 3.91-3.906h56.768c2.158 0 3.91 1.757 3.91 3.906v93.994c0 2.163-1.752 3.906-3.91 3.906h-56.768z" />
<glyph unicode="&#xe906;" glyph-name="BAY" d="M630.831-64h-562.264v820.751h203.254v203.249h398.782c87.415 0 170.16-40.955 232.988-115.316 51.833-61.374 84.037-139.089 84.037-202.82 0-81.368-29.301-154.487-51.35-196.454 12.101-20.789 27.043-50.93 38.259-88.124 25.44-84.276 19.213-166.399-17.99-237.472-38.178-72.947-94.996-125.173-168.842-155.232-46.59-18.965-99.371-28.583-156.876-28.583zM174.608 42.045h456.223c109.694 0 187.667 42.721 231.764 126.943 61.193 116.909-29.084 240.669-30.028 241.875l-26.275 32.416 25.431 33.035c7.694 10.435 49.873 85.654 49.873 165.55 0 31.084-18.477 86.39-59.003 134.375-24.528 29.025-76.88 77.715-151.981 77.715h-292.737v-97.209h275.050c56.177 0 107.233-38.575 124.157-93.827 17.777-58.005-5.143-107.937-32.529-135.323-11.293-11.284-55.883-50.329-91.627-81.382 37.821-35.902 88.968-84.547 101.566-97.141 41.619-41.619 33.636-115.853 9.875-148.685-19.231-26.564-53.44-61.871-128.108-61.871h-370.687v463.583h106.045v-357.538h264.632c26.984 0 34.173 7.143 40.648 15.881 1.242 4.226 1.458 11.776 0.483 15.741-19.755 19.444-99.137 94.739-139.884 133.301l-42.635 40.35 44.464 38.327c44.278 38.16 118.779 102.961 130.239 114.421 0.47 0.47 11.487 11.758 6.123 29.269-3.793 12.372-14.323 18.847-22.767 18.847h-478.312v-608.655z" />
<glyph unicode="&#xe907;" glyph-name="BAY-alt" d="M657.486 445.045l13.307 17.294c4.037 5.459 26.108 44.834 26.108 86.651 0 16.274-9.672 45.222-30.886 70.333-12.837 15.19-40.233 40.675-79.553 40.675h-153.214v-50.88h143.962c29.409 0 56.127-20.198 64.995-49.11 9.297-30.357-2.7-56.497-17.037-70.829-5.906-5.911-29.251-26.348-47.954-42.599 19.796-18.793 46.563-44.251 53.16-50.844 21.783-21.783 17.606-60.647 5.17-77.824-10.069-13.903-27.969-32.385-67.063-32.385h-194.015v242.642h55.504v-187.129h138.507c14.129 0 17.895 3.734 21.29 8.308 0.646 2.213 0.754 6.164 0.244 8.236-10.336 10.178-51.887 49.589-73.213 69.777l-22.32 21.119 23.273 20.062c23.169 19.972 62.182 53.892 68.174 59.888 0.244 0.248 6.010 6.155 3.206 15.316-1.991 6.484-7.505 9.866-11.921 9.866h-250.35v-318.583h238.786c57.423 0 98.234 22.361 121.312 66.449 32.037 61.193-15.222 125.967-15.723 126.595l-13.75 16.969zM512.476 960c-283.033 0-512.476-229.444-512.476-512.476s229.444-512.476 512.481-512.476c283.028 0 512.476 229.444 512.476 512.476s-229.448 512.476-512.481 512.476zM736.14 275.747c-19.994-38.187-49.72-65.524-88.372-81.256-24.383-9.925-52.018-14.96-82.122-14.96h-294.294v429.591h106.384v106.388h208.731c45.764 0 89.072-21.439 121.958-60.358 27.129-32.123 43.99-72.807 43.99-106.158 0-42.59-15.339-80.867-26.885-102.826 6.335-10.882 14.165-26.659 20.031-46.13 13.303-44.111 10.051-87.094-9.419-124.292z" />
<glyph unicode="&#xe908;" glyph-name="BC" d="M576.14 506.559c32.936 42.82 22.586 123.403-17.29 150.933-39.88 27.531-81.879 13.759-89.997 6.001-8.119-7.767-7.762-188.457-7.762-188.457s82.109-11.298 115.049 31.522zM582.249 429.62c-30.822 13.411-121.163 9.88-121.163 9.88s-1.404-45.642 1.878-131.052c3.301-85.401 32.475-84.931 62.823-86.114 30.362-1.179 88.236 0.944 107.292 74.591 19.055 73.642-19.999 119.289-50.83 132.696zM512.278 959.449c-282.617 0-511.727-229.109-511.727-511.727s229.109-511.722 511.727-511.722 511.722 229.105 511.722 511.722-229.105 511.727-511.722 511.727zM720.133 591.142c1.409-85.405-73.060-109.405-73.060-109.405s30.353 29.332 28.94 104.46c-1.413 75.137-57.875 112.231-57.875 112.231s100.586-21.882 101.995-107.287zM385.33 189.877l-103.056-4.944v9.41c0 0 63.058 6.358 63.058 116.932 0 110.592 0 188.935 0 282.577 0 93.637-63.058 109.879-63.058 109.879v8.462l103.056-4.935v-517.38zM550.022 184.585c-44.82-0.357-127.999 5.762-127.999 5.762v516.197c54.827 0.709 73.999 8.119 119.172 1.77 45.177-6.344 84.001-50.469 94.585-94.585 10.589-44.111-0.7-86.114-15.181-109.048-14.463-22.943-46.229-38.828-46.229-38.828s47.999-16.233 64.946-30.344c16.937-14.12 49.76-52.587 37.054-136.231-12.706-83.64-81.526-114.345-126.347-114.692zM669.14 203.635c0 0 48.871 41.651 46.721 126.094-2.158 84.452-46.721 124.13-46.721 124.13s91.926-22.591 92.982-123.172c1.061-100.582-92.982-127.051-92.982-127.051z" />
<glyph unicode="&#xe909;" glyph-name="BC-alt" d="M40.698 943.586c0 0 122.26-31.486 122.26-213.039 0-181.557 0-333.466 0-547.873 0-214.403-122.26-226.721-122.26-226.721v-18.247l199.809 9.582v1003.143l-199.809 9.568v-16.414zM804.125 715.719c2.732-145.673-56.123-202.54-56.123-202.54s144.395 46.532 141.645 212.127c-2.732 165.591-197.754 208.018-197.754 208.018s109.486-71.927 112.231-217.604zM790.795 459.119c0 0 86.408-76.921 90.575-240.66 4.186-163.748-90.575-244.494-90.575-244.494s182.343 51.323 180.288 246.34c-2.055 195.018-180.288 238.813-180.288 238.813zM732.957 423.542c-32.845 27.368-125.913 58.845-125.913 58.845s61.591 30.791 89.645 75.268c28.054 44.482 49.954 125.909 29.432 211.44-20.527 85.536-95.8 171.072-183.386 183.386-87.591 12.323-124.766-2.050-231.065-3.423v-1000.858c0 0 161.265-11.858 248.169-11.176 86.9 0.682 220.331 60.218 244.963 222.39 24.632 162.168-39.009 236.754-71.845 264.127zM402.453 865.577c15.736 15.050 97.168 41.741 174.49-11.636s97.389-209.616 33.527-292.642-223.068-61.13-223.068-61.13-0.691 350.354 15.050 365.408zM720.86 154.846c-36.945-142.788-149.163-146.906-208.018-144.616-58.845 2.289-115.424 1.377-121.804 166.968-6.376 165.595-3.648 254.098-3.648 254.098s175.172 6.845 234.939-19.164c59.762-26.004 135.491-114.498 98.532-257.286z" />
<glyph unicode="&#xe90a;" glyph-name="BCN" d="M588.471 432.347c-53.364 0-98.572 0-124.053 0v-154.171c38.25 0 91.777 0 124.839 0 55.829 0 115.717 19.927 115.717 69.994 0.005 50.072-34.101 84.177-116.503 84.177zM663.789 563.051c0 48.302-45.191 69.556-89.492 69.556-31.346 0-82.547 0-109.874 0v-142.214c28.267 0 77.11 0 107.21 0 44.306 0 92.156 24.365 92.156 72.658zM512.652 958.7c-282.414 0-511.352-228.938-511.352-511.352 0-282.41 228.938-511.348 511.352-511.348 282.41 0 511.348 228.938 511.348 511.348 0 282.414-228.938 511.352-511.348 511.352zM594.676 194.559c-54.181 0-221.225 0-221.225 0v131.020h-135.87v66.454h135.874v88.169h-135.874v66.463h135.874v155.923c0 0 187.305 0 238.94 0 85.076 0 139.126-71.173 139.126-126.992 0-55.829-51.39-87.424-51.39-87.424s88.602-29.247 88.602-132.903c-0.005-103.675-89.501-160.709-194.056-160.709z" />
<glyph unicode="&#xe90b;" glyph-name="BCN-alt" d="M858.834 521.532c0 0 95.43 58.665 95.43 162.321 0 103.652-100.36 235.797-258.315 235.797-95.863 0-443.656 0-443.656 0v-289.522h-252.292v-123.398h252.292v-163.703h-252.292v-123.394h252.292v-243.288c0 0 310.157 0 410.752 0 194.146 0 360.319 105.901 360.319 298.412-0.005 192.467-164.529 246.774-164.529 246.774zM625.205 789.709c82.271 0 166.178-39.465 166.178-129.151 0-89.668-88.841-134.904-171.117-134.904-55.883 0-146.581 0-199.073 0v264.054c50.749 0 145.813 0 204.013 0zM652.997 131.605c-61.397 0-160.777 0-231.805 0v286.27c47.317 0 131.255 0 230.342 0 153.006 0 216.331-63.32 216.331-156.293 0-92.96-111.206-129.977-214.868-129.977z" />
<glyph unicode="&#xe90c;" glyph-name="BTC" d="M612.814 408.013c-11.803 5.915-38.097 13.88-69.393 15.953-31.31 2.068-71.471 0-71.471 0v-135.554c0 0 41.935-0.894 70.003 1.174 28.041 2.068 56.989 9.153 71.461 17.136 14.463 7.974 31.893 20.378 31.893 51.381 0 31.017-20.676 44.003-32.493 49.909zM524.515 486.876c23.047 0.89 47.557 6.2 65.262 15.949 17.723 9.744 27.761 25.092 27.183 48.135-0.605 23.038-15.949 42.526-41.935 50.51-25.995 7.974-43.407 8.566-63.207 8.859-19.787 0.289-39.871-1.481-39.871-1.481v-121.971c0.005 0 29.536-0.89 52.569 0zM512.111 960c-282.83 0-512.111-229.276-512.111-512.111 0-282.83 229.281-512.111 512.111-512.111s512.102 229.281 512.102 512.111c0 282.834-229.272 512.111-512.102 512.111zM720.625 252.081c-38.11-26.582-78.862-31.315-96.879-33.667-8.891-1.17-24.122-2.402-40.454-3.359v-102.672h-63.207v101.011c-11.808 0-28.723 0-48.135 0v-101.011h-63.203v101.011c-62.548 0-124.333 0-124.333 0l12.991 75.914c0 0 25.101 0 37.799 0 12.706 0 18.012 1.179 23.327 6.195 5.315 5.026 6.498 12.697 6.498 18.911 0 6.2 0 245.126 0 261.517 0 16.382-1.332 20.816-8.864 29.229-7.532 8.43-25.246 9.537-35.221 9.537-9.966 0-36.534 0-36.534 0v65.623c0 0 59.812 0 124.333 0v101.3h63.198v-101.3c17.561 0 34.033 0 48.135 0v101.3h63.207v-102.514c47.119-2.921 82.195-11.898 112.809-34.521 39.582-29.238 37.505-80.032 36.62-92.142-0.881-12.11-6.195-35.446-16.838-50.496-10.62-15.068-36.611-30.132-36.611-30.132s30.71-6.493 52.28-22.74c21.543-16.247 37.51-44.888 36.602-86.828-0.867-41.939-9.428-83.585-47.521-110.163z" />
<glyph unicode="&#xe90d;" glyph-name="BTC-alt" d="M826.241 450.414c-32.963 24.826-79.919 34.755-79.919 34.755s39.736 23.038 55.974 46.053c16.256 23.024 24.379 58.696 25.738 77.205 1.35 18.518 4.515 96.161-55.987 140.85-46.798 34.579-100.428 48.306-172.445 52.772v156.695h-96.613v-154.844c-21.557 0-46.748 0-73.588 0v154.844h-96.604v-154.844c-98.622 0-190.064 0-190.064 0v-100.329c0 0 40.63 0 55.865 0 15.231 0 42.319-1.693 53.829-14.576 11.514-12.86 13.546-19.638 13.546-44.68 0-25.052 0.005-390.293 0.005-399.775 0-9.478-1.806-21.209-9.939-28.89-8.119-7.681-16.242-9.473-35.663-9.473-19.416 0-57.78 0-57.78 0l-19.863-116.038c0 0 94.454 0 190.064 0v-154.406h96.608v154.406c29.685 0 55.531 0 73.588 0v-154.406h96.613v156.952c24.975 1.458 48.261 3.35 61.844 5.13 27.544 3.603 89.839 10.828 148.089 51.463 58.231 40.639 71.312 104.298 72.672 168.399 1.373 64.106-23.038 107.906-55.969 132.736zM429.401 694.645c0 0 30.696 2.705 60.945 2.262 30.258-0.447 56.881-1.355 96.622-13.546 39.722-12.196 63.18-41.994 64.101-77.21 0.899-35.216-14.467-58.683-41.542-73.584-27.084-14.896-64.535-23.024-99.764-24.365-35.207-1.359-80.361 0-80.361 0v186.443zM645.646 232.81c-22.121-12.196-66.368-23.029-109.247-26.181-42.892-3.165-106.998-1.811-106.998-1.811v207.228c0 0 61.401 3.152 109.26 0 47.85-3.174 88.029-15.353 106.077-24.397 18.057-9.022 49.67-28.881 49.67-76.293 0-47.394-26.655-66.359-48.762-78.546z" />
<glyph unicode="&#xe90e;" glyph-name="BTCD" d="M512.029 959.95c-282.757 0-511.975-229.218-511.975-511.975 0-282.753 229.222-511.975 511.975-511.975 282.748 0 511.971 229.222 511.971 511.975s-229.222 511.975-511.971 511.975zM532.692 98.046c-166.331 0-340.501 120.093-340.501 312.528 0 192.453 169.316 272.264 266.66 270.019 100.672-2.312 200.269-83.911 211.838-176.030 10.106-80.51-35.302-141.975-55.694-160.872-20.383-18.884-77.566-44.748-128.284-31.324-50.731 13.424-74.595 53.21-79.075 74.103-4.475 20.879-7.414 69.411 33.22 92.756 40.621 23.345 68.219-5.744 73.936-20.157 5.712-14.422-2.493-35.812-18.405-39.542-15.903-3.73-30.082 2.009-38.539 9.216 0 0-1.237-34.751 32.701-40.725 33.938-5.965 55.007 13.424 64.892 28.714 9.889 15.294 28.343 65.271-15.669 111.699-44.003 46.432-120.639 43.082-164.096 11-43.443-32.078-87.392-91.316-68.996-177.832 18.409-86.534 97.218-167.094 214.448-168.088s248.512 92.472 259.462 247.135c10.927 154.654-94.987 264.050-171.068 295.875-76.085 31.829-141.695 44.856-223.772 28.858-82.073-15.994-125.313-50.713-149.935-66.887 0 0 87.279 99.2 262.56 99.2 175.285 0 354.3-166.327 354.3-359.52 0.009-193.18-153.638-340.126-319.983-340.126z" />
<glyph unicode="&#xe90f;" glyph-name="BTCD-alt" d="M95.452 814.151c0 0 127.634 145.081 383.989 145.081 256.351 0 518.161-243.261 518.161-525.801 0-282.532-224.716-497.431-467.981-497.431-243.27 0-497.986 175.633-497.986 457.072 0 281.448 247.632 398.177 389.99 394.894 147.226-3.387 292.895-122.716 309.805-257.439 14.775-117.749-51.63-207.638-81.445-235.273-29.82-27.626-113.446-65.451-187.626-45.814-74.184 19.638-109.084 77.824-115.632 108.375-6.547 30.542-10.842 101.516 48.582 135.653 59.414 34.15 99.778-8.399 108.127-29.481 8.358-21.087-3.648-52.366-26.908-57.82-23.268-5.459-43.994 2.931-56.366 13.47 0 0-1.811-50.83 47.819-59.559 49.638-8.728 80.456 19.638 94.91 41.998 14.454 22.365 41.452 95.452-22.907 163.36-64.363 67.903-176.446 62.995-239.992 16.080-63.537-46.902-127.814-133.544-100.907-260.081 26.921-126.545 142.173-244.376 313.63-245.821 171.456-1.449 363.444 135.247 379.447 361.439 15.994 226.179-138.913 386.166-250.174 432.711-111.274 46.554-207.237 65.596-327.266 42.206s-183.264-74.175-219.27-97.818z" />
<glyph unicode="&#xe910;" glyph-name="BTS" d="M512.21 959.129c-282.527 0-511.786-228.816-511.786-511.338 0-282.518 229.258-511.79 511.79-511.79 282.523 0 511.79 229.267 511.79 511.79-0.005 282.523-229.267 511.338-511.795 511.338zM725.917 350.514h-125.773c-1.562 9.839-5.179 19.159-10.864 26.926l89.027 89.027c26.384-31.577 44.504-71.425 47.611-115.952zM542.685 533.227c44.513-2.064 84.376-20.184 115.939-47.615l-89.027-89.031c-7.758 5.17-17.077 9.324-26.912 10.873v125.773zM334.098 775.982l182.194-163.039c0 0 0-170.296 0-206.004-8.281-1.558-17.086-5.188-24.329-9.839-17.601 17.597-123.705 124.229-157.35 158.393-0.515 6.213-0.515 220.489-0.515 220.489zM334.098 514.601l136.642-136.642c-5.17-8.286-9.315-17.606-10.873-27.445h-125.769c0 46.067 0 94.21 0 164.087zM334.098 323.611h125.769c1.553-9.324 5.179-18.635 10.873-25.887l-89.031-90.061c-26.908 31.053-44.504 71.425-47.611 115.948zM516.798 141.412c-44.504 2.073-84.358 20.18-115.93 47.615l89.031 89.022c7.753-5.175 17.073-9.311 26.899-10.864v-125.773zM542.685 141.412v125.773c9.835 1.558 19.155 5.175 27.436 10.864l88.503-88.503c-31.053-27.431-71.421-45.033-115.939-48.135zM679.851 209.736l-89.546 89.022c4.655 7.78 7.762 16.048 9.32 25.363h126.803c-3.098-43.484-20.18-82.818-46.577-114.385z" />
<glyph unicode="&#xe911;" glyph-name="BTS-alt" d="M417.706 318.102l-220.593 220.598c0-112.656 0-190.733 0-265.138h203.308c2.086 15.718 8.376 30.913 17.285 44.54zM400.421 230.073h-203.308c4.71-71.787 33.536-136.24 77.025-187.071l143.564 145.154c-8.904 12.038-15.194 26.718-17.281 41.917zM721.095 491.545c-50.839 44.54-115.275 73.363-187.066 77.029v-203.308c16.238-2.623 30.913-8.909 43.497-17.294l143.569 143.573zM611.067 190.247l143.569-143.569c43.497 50.826 70.735 114.223 75.453 184.447h-204.356c-2.628-14.675-7.338-28.298-14.666-40.878zM625.733 273.561h203.299c-4.71 71.782-33.541 136.24-77.011 187.062l-143.587-144.097c8.918-12.052 14.671-27.246 17.299-42.964zM305.059 13.137c50.817-44.536 115.279-73.358 187.062-77.025v203.308c-16.251 2.619-30.926 8.909-43.488 17.285l-143.573-143.569zM534.029 139.421v-203.308c71.787 4.714 136.231 33.536 187.066 78.077l-142.521 142.521c-13.632-8.385-28.307-14.671-44.545-17.29zM197.113 604.192c54.492-54.488 225.307-226.883 254.125-255.191 12.576 7.351 26.208 13.637 39.831 16.26 0 57.102 0 332.211 0 332.211l-293.432 262.515c-0.524 0-0.524-345.834-0.524-355.795z" />
<glyph unicode="&#xe912;" glyph-name="DASH" d="M511.998 960c-282.766 0-511.998-229.231-511.998-511.998 0-282.771 229.231-512.002 512.002-512.002s512.002 229.231 512.002 512.002c-0.005 282.766-229.236 511.998-512.007 511.998zM255.403 486.772h204.396l-23.652-76.871h-204.387l23.643 76.871zM784.921 523.026c-8.132-29.378-34.57-117.506-45.421-148.761-10.837-31.256-30.836-57.5-56.47-72.505-25.63-15.005-35.207-21.277-71.033-21.277h-366.794l25.833 83.725h344.958l51.539 167.564h-342.226l25.837 83.721c0 0 377.934 0 381.903 0 17.497 0 40.621-8.092 51.873-29.978 11.248-21.859 8.123-33.112 0-62.489z" />
<glyph unicode="&#xe913;" glyph-name="DASH-alt" d="M418.505 518.669h-372.47l-43.1-140.101h372.47zM1010.991 698.637c-20.496 39.867-62.647 54.623-94.54 54.623-7.225 0-695.957 0-695.957 0l-47.078-152.577h623.669l-93.935-305.362h-628.641l-47.083-152.577h668.431c65.311 0 82.768 11.429 129.471 38.77s83.147 75.178 102.903 132.131c19.76 56.953 67.958 217.559 82.759 271.094 14.815 53.531 20.505 74.031 0 113.898z" />
<glyph unicode="&#xe914;" glyph-name="DGB" d="M676.473 738.906l20.925 194.232-75.011 8.083-20.279-188.059c-19.678 3.676-39.93 7.419-60.322 11.171l20.22 187.594-75.024 8.074-19.62-182.054c-127.71 23.218-242.168 43.416-242.168 43.416l-101.909-115.157c0 0 411.642-64.864 493.71-82.068 82.077-17.204 140.268-123.064 79.409-226.332-60.868-103.255-169.799-199.763-367.964-186.646l189.283 374.597-178.685 33.085-240.908-455.315c0 0 93.953-28.118 247.018-31.13l-18.522-171.822 75.020-8.092 19.448 180.564c19.949 0.732 40.576 1.892 61.92 3.594l-20.988-194.846 75.015-8.096 22.853 212.118c237.178 43.443 357.876 259.051 365.508 360.527 7.821 104.253-80.741 198.093-248.928 232.564z" />
<glyph unicode="&#xe915;" glyph-name="DGB-alt" d="M511.722 960c-282.613 0-511.722-229.109-511.722-511.722 0-282.617 229.109-511.727 511.727-511.727s511.727 229.105 511.727 511.727c-0.005 282.613-229.109 511.722-511.731 511.722zM787.273 480.513c-4.981-66.147-83.649-206.699-238.271-235.020l-14.892-138.272-48.898 5.274 13.677 127.020c-13.912-1.106-27.359-1.865-40.364-2.344l-12.684-117.709-48.902 5.279 12.083 112.006c-99.787 1.969-161.034 20.292-161.034 20.292l157.047 296.814 116.485-21.566-123.394-244.191c129.173-8.557 200.188 54.352 239.87 121.66 39.677 67.321 1.747 136.33-51.761 147.547-53.504 11.212-321.843 53.495-321.843 53.495l66.431 75.074c0 0 74.613-13.172 157.874-28.303l12.788 118.675 48.902-5.27-13.181-122.287c13.293-2.447 26.488-4.89 39.325-7.283l13.217 122.594 48.902-5.27-13.641-126.622c109.635-22.455 167.361-83.626 162.263-151.593z" />
<glyph unicode="&#xe916;" glyph-name="DMD" d="M511.912 960c-282.721 0-511.912-229.191-511.912-511.912s229.191-511.912 511.912-511.912c282.717 0 511.912 229.191 511.912 511.912s-229.195 511.912-511.912 511.912zM813.865 529.89l-105.056 18.346 41.1 102.785c29.585-34.661 51.72-75.855 63.957-121.131zM688.457 559.936l-64.864 64.869 107.978 42.955-43.114-107.824zM511.916 473.894l-72.297 143.352h144.589l-72.292-143.352zM606.231 609.294l66.892-66.896-134.949-68.057 68.057 134.953zM485.659 474.341l-134.949 68.052 66.896 66.892 68.052-134.944zM486.106 448.084l-143.356-72.297v144.594l143.356-72.297zM485.659 421.826l-68.061-134.953-66.887 66.892 134.949 68.061zM511.916 422.269l72.292-143.347h-144.589l72.297 143.347zM538.174 421.826l134.949-68.052-66.892-66.887-68.057 134.94zM537.731 448.084l143.347 72.297v-144.589l-143.347 72.292zM714.805 686.111l-103.024-40.987-20.387 105.54c46.166-12.097 88.169-34.475 123.412-64.553zM454.679 755.617c18.558 3.436 37.681 5.247 57.238 5.247 18.68 0 36.972-1.648 54.759-4.782l22.329-115.586h-154.433l20.107 115.121zM430.11 750.027l-18.351-105.047-102.781 41.091c34.661 29.585 75.855 51.724 121.131 63.957zM400.060 624.624l-64.869-64.864-42.951 107.973 107.82-43.109zM273.889 650.976l40.987-103.024-105.535-20.383c12.092 46.161 34.475 88.16 64.548 123.407zM199.136 448.084c0 18.68 1.648 36.977 4.786 54.75l115.582 22.333v-154.428l-115.126 20.103c-3.432 18.568-5.242 37.69-5.242 57.242zM209.968 366.282l105.052-18.351-41.091-102.785c-29.585 34.665-51.724 75.864-63.961 121.136zM335.376 336.227l64.864-64.864-107.978-42.955 43.114 107.82zM309.024 210.052l103.020 40.987 20.392-105.535c-46.166 12.097-88.169 34.475-123.412 64.548zM569.154 140.545c-18.563-3.427-37.686-5.238-57.238-5.238-18.685 0-36.972 1.644-54.759 4.782l-22.329 115.586h154.428l-20.103-115.13zM593.718 146.135l18.351 105.056 102.785-41.1c-34.665-29.585-75.864-51.72-121.136-63.957zM623.769 271.543l64.86 64.864 42.964-107.978-107.824 43.114zM749.948 245.195l-40.987 103.024 105.531 20.387c-12.092-46.17-34.475-88.169-64.544-123.412zM819.911 393.329l-115.582-22.333v154.428l115.126-20.103c3.427-18.563 5.238-37.686 5.238-57.238 0-18.68-1.644-36.972-4.782-54.754z" />
<glyph unicode="&#xe917;" glyph-name="DMD-alt" d="M197.023 574.2l-189.193-36.557c-5.148-29.102-7.83-59.058-7.83-89.632 0-31.996 2.962-63.311 8.575-93.691l188.452-32.918-0.005 252.797zM511.984 490.262l118.336 234.654h-236.677zM235.074 566.352v-236.682l234.663 118.341zM775.863 602.394l-109.5 109.504-111.396-220.905zM328.883 736.986l-176.491 70.572 70.306-176.748zM871.531 807.608l-176.748-70.319 106.181-106.181zM788.89 329.67v236.682l-234.65-118.341zM871.581 88.469l-70.319 176.748-106.185-106.185zM675.457 770.554l168.643 67.091c-57.694 49.223-126.442 85.861-202.012 105.657l33.369-172.748zM1023.973 448.011c0 32.001-2.962 63.311-8.575 93.691l-188.448 32.918v-252.788l189.193 36.557c5.148 29.102 7.83 59.049 7.83 89.623zM834.288 611.954l171.953-30.032c-20.031 74.112-56.262 141.546-104.686 198.282l-67.267-168.25zM329.181 158.734l-106.181 106.176-70.563-176.491zM834.527 284.543l67.091-168.643c49.223 57.685 85.857 126.437 105.657 202.008l-172.748-33.365zM844.177 58.441l-168.246 67.267-30.037-171.957c74.103 20.031 141.546 56.262 198.282 104.691zM775.867 293.633l-220.9 111.401 111.396-220.896zM385.38 762.968h252.793l-36.557 189.202c-29.102 5.143-59.053 7.83-89.632 7.83-32.010 0-63.316-2.962-93.691-8.588l-32.913-188.443zM638.588 133.050h-252.788l36.557-189.188c29.102-5.148 59.053-7.83 89.632-7.83 32.001 0 63.307 2.962 93.691 8.575l32.909 188.443zM511.984 405.76l-118.336-234.65h236.673zM179.801 837.573l168.237-67.262 30.041 171.957c-74.112-20.035-141.546-56.262-198.278-104.695zM248.11 602.385l220.891-111.392-111.392 220.887zM189.446 611.48l-67.095 168.643c-49.218-57.689-85.857-126.442-105.657-202.008l172.752 33.365zM248.106 293.624l109.495-109.5 111.401 220.909zM348.507 125.473l-168.634-67.091c57.685-49.223 126.442-85.857 202.012-105.657l-33.378 172.748zM189.685 284.073l-171.953 30.032c20.026-74.103 56.262-141.55 104.686-198.282l67.267 168.25z" />
<glyph unicode="&#xe918;" glyph-name="DOGE" d="M525.318 621.928c-27.404 0-73.313 0-73.313 0v-144.494h115.316v-60.503h-115.316v-144.494c0 0 57.12 0 76.866 0 19.755 0 162.186-2.231 161.969 168.119-0.217 170.341-138.123 181.372-165.523 181.372zM512.996 960c-283.322 0-512.996-229.674-512.996-512.991 0-283.322 229.674-512.996 512.996-512.996 283.313 0 512.987 229.674 512.987 512.996 0 283.317-229.674 512.991-512.987 512.991zM533.153 169.941h-185.788v246.986h-65.488v60.503h65.483v247c0 0 121.727 0 159.45 0s287.562 7.834 287.562-281.877c0-294.502-261.219-272.611-261.219-272.611z" />
<glyph unicode="&#xe919;" glyph-name="DOGE-alt" d="M448.113 960.244c-69.633 0-294.326 0-294.326 0v-455.947h-120.883v-111.676h120.888v-455.947h342.948c0 0 482.214-40.4 482.214 503.247 0 534.783-461.199 520.324-530.841 520.324zM488.852 125.884c-36.458 0-141.912 0-141.912 0v266.732h212.863v111.676h-212.863v266.741c0 0 84.746 0 135.337 0s305.163-20.36 305.551-334.812c0.397-314.447-262.524-310.338-298.977-310.338z" />
<glyph unicode="&#xe91a;" glyph-name="EMC" d="M760.989 888.823h-504.597l-256.392-440.825 256.392-440.821h508.62l259.941 442.333-263.964 439.313zM709.734 103.758h-397.793l-200.21 344.24 200.21 344.235h394.393l206.261-343.273-202.861-345.202zM323.175 558.202h144.874v-69.344h-144.874v-81.721h226.603v151.064h67.483v-212.353h-294.087v-81.725h375.816v375.812h-375.816z" />
<glyph unicode="&#xe91b;" glyph-name="EMC-alt" d="M374.597 683.93l-137.274-236.027 137.274-236.036h272.76l139.089 236.691-141.415 235.372h-270.435zM639.988 321.832h-257.683v56.023h201.651v145.614h-46.274v-103.589h-155.377v56.041h99.335v47.548h-99.335v56.041h257.683v-257.679zM512.102 960c-282.825 0-512.102-229.276-512.102-512.097 0-282.825 229.276-512.102 512.102-512.102s512.097 229.272 512.097 512.102c0 282.821-229.272 512.097-512.097 512.097zM685.251 145.648h-348.737l-175.8 302.255 175.804 302.255h345.978l180.997-301.221-178.243-303.289z" />
<glyph unicode="&#xe91c;" glyph-name="ETH" d="M508.227 251.074v316.185l-308.834-135.283zM508.227 588.997v371.256l-298.882-502.172zM528.136 960.406v-371.409l303.081-132.768zM528.136 567.26v-316.194l309.051 180.821zM508.227-66.84v254.315l-306.757 179.602zM528.136-66.84l306.757 433.917-306.757-179.602z" />
<glyph unicode="&#xe91d;" glyph-name="ETH-alt" d="M511.659 960c-282.581 0-511.659-229.078-511.659-511.659s229.078-511.659 511.659-511.659 511.659 229.078 511.659 511.659-229.078 511.659-511.659 511.659zM505.026 109.353l-202.202 286.027 202.202-118.386v-167.641zM505.026 318.915l-203.57 119.244 203.57 89.171v-208.415zM505.026 541.657l-197.014-86.29 197.014 331.010v-244.719zM518.148 786.476l199.782-332.337-199.782 87.518v244.819zM518.148 109.353v167.641l202.202 118.386-202.202-286.027zM518.148 318.91v208.415l203.719-89.234-203.719-119.181z" />
<glyph unicode="&#xe91e;" glyph-name="FC2" d="M317.919 227.54h41.822l70.576 489.687h-41.827zM654.934 310.462h-77.458c-3.156 0-5.708-2.56-5.708-5.708v-58.601c0-3.143 2.547-5.703 5.708-5.703h77.458c3.147 0 5.703 2.556 5.703 5.703v58.601c-0.005 3.143-2.556 5.708-5.703 5.708zM512.652 958.695c-282.41 0-511.348-228.938-511.348-511.348s228.938-511.348 511.348-511.348 511.348 228.938 511.348 511.348-228.938 511.348-511.348 511.348zM496.144 406.158l-31.315-211.44h-179.733l77.833 543.71h338.365l-18.73-135.351h-157.269l-8.326-56.199h133.793l-19.602-140.719h-135.016zM716.99 166.347c-6.809 0-13.135 2.438-17.813 6.886-3.671 3.472-8.033 9.812-8.033 20.261v82.56c0 3.161-2.027 11.352-11.347 11.352v-167.261h6.994c3.147 0 5.712-2.551 5.712-5.708v-9.97c0-3.152-2.56-5.703-5.712-5.703h-141.171c-3.156 0-5.717 2.547-5.717 5.703v9.97c0 3.152 2.556 5.708 5.717 5.708h6.99v200.599c0 4.502 3.658 8.159 8.168 8.159h110.85c4.515 0 8.173-3.658 8.173-8.159v-16.572c17.597 0 28.118-14.296 28.118-28.118v-82.56c0-3.612 0.944-6.34 2.804-8.096 1.553-1.477 3.779-2.294 6.276-2.294 3.599 0 10.44 2.172 10.44 10.39 0 8.11-1.644 13.113-3.725 19.48-2.673 8.164-5.712 17.43-5.712 34.182v44.726c-3.87 6.742-27.535 31.622-48.189 51.761-3.31 3.233-3.382 8.548-0.144 11.862 3.238 3.296 8.548 3.373 11.853 0.14 53.251-51.932 53.251-58.723 53.251-62.381v-46.107c0-14.084 2.488-21.652 4.872-28.976 2.249-6.836 4.565-13.912 4.565-24.69-0.014-17.624-14.034-27.142-27.219-27.142z" />
<glyph unicode="&#xe91f;" glyph-name="FC2-alt" d="M718.688 653.315h-214.159l13.316 89.961h251.754l29.992 216.656h-541.637l-124.595-870.353h287.706l50.117 338.469h216.132l31.373 225.267zM252.843 142.126h-66.951l112.977 783.868h66.946l-112.972-783.868zM860.956 127.157c-3.829 11.722-7.803 23.842-7.803 46.378v73.819c0 5.852 0 16.734-85.247 99.85-5.292 5.175-13.79 5.062-18.974-0.23-5.175-5.301-5.071-13.808 0.239-18.983 33.053-32.24 70.942-72.076 77.142-82.845v-71.611c0-26.808 4.854-41.646 9.139-54.718 3.323-10.182 5.956-18.206 5.956-31.166 0-13.163-10.941-16.648-16.707-16.648-3.996 0-7.563 1.305-10.042 3.671-2.98 2.813-4.488 7.193-4.488 12.977v132.145c0 22.121-16.838 45.005-45.010 45.005v26.524c0 7.216-5.857 13.068-13.077 13.068h-177.444c-7.216 0-13.072-5.852-13.072-13.068v-321.094h-11.194c-5.044 0-9.13-4.096-9.13-9.139v-15.953c0-5.044 4.086-9.13 9.13-9.13h225.98c5.048 0 9.13 4.086 9.13 9.13v15.953c0 5.044-4.082 9.139-9.13 9.139h-11.194v267.73c14.915 0 18.166-13.108 18.166-18.161v-132.145c0-16.743 6.981-26.894 12.851-32.453 7.496-7.107 17.619-11.027 28.52-11.027 21.114 0 43.552 15.249 43.552 43.479 0.005 17.231-3.698 28.551-7.292 39.501zM734.501 171.937c0-5.039-4.091-9.126-9.13-9.126h-123.994c-5.048 0-9.13 4.086-9.13 9.126v93.804c0 5.035 4.082 9.126 9.13 9.126h123.994c5.039 0 9.13-4.091 9.13-9.126v-93.804z" />
<glyph unicode="&#xe920;" glyph-name="FRK" d="M379.063 176.962v68.477h-69.497v73.579h69.497v404.733h392.469v-108.339h-283.105v-122.644h210.537v-73.584h-210.537v-100.171h68.481v-73.579h-68.481v-68.477h458.101c49.137 78.591 77.557 171.474 77.557 270.99 0 282.807-229.245 512.052-512.038 512.052s-512.047-229.245-512.047-512.047c0-99.52 28.429-192.399 77.557-270.99h301.506zM141.884 94.176c93.226-97.516 224.594-158.262 370.167-158.262 145.556 0 276.923 60.746 370.154 158.262h-740.321z" />
<glyph unicode="&#xe921;" glyph-name="FRK-alt" d="M417.792-64v159.445h123.768v133.007h-123.768v181.042h380.549v133.012h-380.549v221.677h511.7v195.817h-709.373v-731.548h-125.611v-133.007h125.611v-159.445z" />
<glyph unicode="&#xe922;" glyph-name="FTC" d="M513.032 957.955c-282.211 0-510.982-228.775-510.982-510.973 0-282.211 228.771-510.982 510.982-510.982 282.198 0 510.968 228.771 510.968 510.982 0 282.198-228.771 510.973-510.968 510.973zM830.287 699.599c-4.019-56.222-82.43-143.235-111.098-176.893-28.691-33.658-53.169-69.606-61.013-70.378-7.839-0.759-60.254 4.412-69.606-18.545-4.208-10.327 56.416-7.843 56.416-7.843s-98.107-138.444-104.226-139.41c-6.123-0.953-74.442 3.734-117.081-4.872-42.648-8.602-58.665-32.416-58.665-32.416s60.62-5.351 102.885-7.265c42.256-1.906 107.274-2.678 107.274-2.678s-46.654-25.246-120.856-21.223c-74.202 4.019-103.842 9.939-103.842 9.939s10.327-26.957 30.791-39.966c20.464-13.004 55.075-23.322 54.312-25.241-0.768-1.91-44.938 1.147-73.819 15.109-28.881 13.957-34.042 36.137-38.056 32.502-4.014-3.63 7.455-31.36 17.398-40.725 9.948-9.374 35.193-26.781 31.947-27.924-3.256-1.151-60.241 21.028-70.951 34.037-5.071-10.81-58.999-67.51-61.148-61.532s40.16 50.343 43.028 63.252c2.872 12.901-0.713 32.556-10.327 31.978-9.6-0.564-26.388-35.279-26.388-35.279s-6.313 13.628-3.725 28.113c2.578 14.486 12.77 25.106 12.77 25.106s-20.229 21.656-29.689 31.116c-9.473 9.469-31.265 25.968-28.691 31.554 2.587 5.595 34.277-12.332 45.177-20.076 10.905-7.744 34.855-31.13 34.855-31.13s-9.18 29.116-16.061 48.771c-6.886 19.647-18.215 41.736-15.632 43.746s23.232-25.246 32.123-38.869 22.952-39.727 22.952-39.727-2.298 36.575 0.713 60.67c3.012 24.099 13.194 48.338 18.071 46.613 4.877-1.72 5.595-21.367 16.057-46.184 10.476-24.812 17.646-36.146 22.379-33.13 4.737 3.012 9.13 34.805 6.263 81.079s-6.687 81.653-6.687 81.653 28.253 29.743 30.403 28.307c2.149-1.431 0.718-48.338 2.723-68.12 2.009-19.8 7.893-39.307 10.616-39.018 2.723 0.284 15.343 21.078 23.571 70.802 8.218 49.724 12.043 74.771 12.043 74.771s53.738 50.063 55.748 49.485c2.005-0.564 4.159-27.824 7.46-37.578 3.296-9.753 9.324-14.341 9.324-14.341s12.472 13.054 16.061 43.028c3.585 29.974 3.865 41.881 6.877 48.478s82.759 69.845 125.502 102.261c42.739 32.416 134.524 88.634 140.841 86.773 6.313-1.869 34.999-32.561 30.985-88.783zM426.593 315.027c0 0 110.534 110.15 158.723 167.139 48.193 56.985 136.159 184.348 136.159 184.348s-110.913-121.624-165.988-186.262c-55.075-64.63-128.893-165.225-128.893-165.225z" />
<glyph unicode="&#xe923;" glyph-name="FTC-alt" d="M946.84 959.932c-9.577 2.822-148.924-82.529-213.816-131.734-64.878-49.209-185.942-145.226-190.511-155.246-4.574-10.011-5.008-28.086-10.444-73.588-5.446-45.507-24.383-65.32-24.383-65.32s-9.148 6.963-14.16 21.773c-5.012 14.806-8.272 56.181-11.32 57.044-3.043 0.876-84.629-75.124-84.629-75.124s-5.802-38.016-18.283-113.505c-12.49-75.485-31.649-107.052-35.785-107.49s-13.068 29.174-16.111 59.229c-3.043 30.041-0.867 101.245-4.136 103.417-3.269 2.181-46.152-42.964-46.152-42.964s5.798-53.707 10.151-123.963c4.357-70.251-2.316-118.517-9.501-123.091-7.189-4.574-18.066 12.63-33.97 50.302-15.89 37.668-16.978 67.492-24.379 70.107-7.41 2.614-22.862-34.182-27.431-70.771-4.574-36.571-1.093-92.097-1.093-92.097s-21.34 39.623-34.841 60.313c-13.501 20.681-44.852 62.056-48.762 59.008-3.933-3.048 13.271-36.58 23.72-66.413 10.453-29.834 24.388-74.031 24.388-74.031s-36.363 35.491-52.908 47.25c-16.554 11.758-64.661 38.973-68.585 30.479-3.915-8.485 29.174-33.536 43.552-47.895 14.373-14.368 45.073-47.245 45.073-47.245s-15.465-16.116-19.38-38.106c-3.924-21.99 5.658-42.671 5.658-42.671s25.476 52.691 40.066 53.553c14.589 0.871 20.031-28.958 15.678-48.546-4.357-19.602-68.585-86.954-65.325-96.030 3.269-9.072 85.134 77.011 92.829 93.411 16.256-19.742 102.767-53.413 107.707-51.666 4.931 1.734-33.392 28.149-48.487 42.382-15.091 14.219-32.507 56.317-26.411 61.826 6.096 5.522 13.93-28.149 57.766-49.345 43.84-21.196 110.904-25.837 112.060-22.929 1.16 2.908-51.386 18.568-82.448 38.314-31.062 19.742-46.744 60.674-46.744 60.674s45.001-8.99 157.648-15.095c112.642-6.1 183.472 32.222 183.472 32.222s-98.712 1.165-162.859 4.064c-64.169 2.903-156.189 11.027-156.189 11.027s24.311 36.151 89.054 49.205c64.729 13.072 168.458 5.956 177.737 7.405 9.297 1.454 158.221 211.635 158.221 211.635s-92.029-3.766-85.645 11.912c14.197 34.846 93.772 26.998 105.671 28.154 11.898 1.17 49.060 55.743 92.616 106.84 43.542 51.097 162.574 183.187 168.666 268.538 6.091 85.356-37.456 131.946-47.042 134.782zM621.985 495.067c-73.159-86.511-240.953-253.732-240.953-253.732s112.055 152.699 195.672 250.829c83.608 98.13 251.98 282.766 251.98 282.766s-133.54-193.352-206.699-279.863z" />
<glyph unicode="&#xe924;" glyph-name="GEMZ" d="M511.912 960c-282.721 0-511.912-229.191-511.912-511.912 0-282.717 229.191-511.912 511.912-511.912 282.717 0 511.912 229.195 511.912 511.912 0 282.721-229.195 511.912-511.912 511.912zM636.15 635.569c0-0.275-0.036-0.537-0.014-0.817l16.712-185.124-126.577 185.942h109.879zM515.226 619.526l132.641-194.855h-267.36l134.718 194.855zM392.659 635.569h111.595l-128.812-186.307 17.217 185.468c0.027 0.284 0 0.555 0 0.84zM363.196 635.569h11.311l-19.394-208.93-133.856 29.152 141.939 179.778zM226.707 436.018l130.542-28.425 133.626-238.578-264.167 267.003zM378.607 406.514h270.737l-134.723-242.886-136.014 242.886zM538.616 168.925l132.271 238.637 132.637 28.398-264.908-267.035zM673.154 426.613l-18.866 208.957h10.747l144.192-179.828-136.073-29.129z" />
<glyph unicode="&#xe925;" glyph-name="GEMZ-alt" d="M277.041 478.482h465.841l-231.105 339.508zM510.715 23.663l234.722 423.183h-471.706zM492.649 845.94h-194.449c0-0.492 0.059-0.966 0.014-1.463l-30.005-323.153 224.44 324.616zM531.008 845.94l220.544-323.979-29.12 322.552c-0.041 0.483 0.023 0.944 0.023 1.422h-191.446zM782.983 448.671l-230.459-415.792 461.556 465.272zM232.785 481.918l33.803 364.022h-19.71l-247.311-313.237zM9.067 498.259l460.273-465.213-232.826 415.683zM786.93 481.864l237.093 50.763-251.24 313.313h-18.721z" />
<glyph unicode="&#xe926;" glyph-name="GRC" d="M513.89 360.141c0-4.773-3.869-8.643-8.643-8.643s-8.643 3.869-8.643 8.643c0 4.773 3.869 8.643 8.643 8.643s8.643-3.869 8.643-8.643zM512.169 469.857c0-4.773-3.869-8.643-8.643-8.643s-8.643 3.869-8.643 8.643c0 4.773 3.869 8.643 8.643 8.643s8.643-3.869 8.643-8.643zM556.57 267.425l-6.263-1.589 28.511-155.047 7.012 1.549c155.878 34.769 269.030 176.075 269.030 336.035 0 19.696-1.698 39.429-4.981 58.696l-0.998 5.73h-321.775v-13.822h310.098c1.115-7.347 1.901-14.77 2.529-22.211h-312.623v-13.817h313.381c0.217-4.868 0.555-9.717 0.555-14.576 0-2.262-0.248-4.457-0.284-6.724h-227.836c-2.881 8.232-10.629 14.179-19.814 14.179-11.609 0-21.074-9.451-21.074-21.078 0-11.623 9.464-21.074 21.074-21.074 9.18 0 16.933 5.951 19.814 14.183h227.231c-0.528-8.345-1.413-16.563-2.56-24.754h-263.124c-2.881 8.223-10.629 14.169-19.805 14.169-11.614 0-21.065-9.442-21.065-21.078 0-11.609 9.451-21.074 21.065-21.074 9.175 0 16.924 5.942 19.805 14.174h261.043c-23.255-125.832-119.090-230.622-245.717-261.815l-23.602 128.257c52.962 15.271 97.47 51.887 122.825 101.25l5.157 10.060h-167.063v-13.799h144.052c-25.273-42.621-66.472-73.624-114.598-85.825zM593.113 426.102c-4.768 0-8.634 3.879-8.634 8.647 0 4.782 3.865 8.652 8.634 8.652 4.759 0 8.625-3.87 8.625-8.652 0-4.768-3.865-8.647-8.625-8.647zM554.669 387.558c-4.764 0-8.634 3.865-8.634 8.634 0 4.786 3.87 8.647 8.634 8.647 4.755 0 8.629-3.861 8.629-8.647 0-4.768-3.879-8.634-8.629-8.634zM462.572 514.542c-4.777 0-8.629-3.879-8.629-8.647 0-4.782 3.856-8.643 8.629-8.643 4.746 0 8.625 3.861 8.625 8.643 0 4.768-3.879 8.647-8.625 8.647zM574.153 297.737c3.102-2.89 7.216-4.741 11.794-4.741 9.659 0 17.484 7.812 17.484 17.47 0 9.65-7.825 17.484-17.484 17.484-7.943 0-14.359-5.396-16.486-12.643-18.477-8.141-38.535-12.648-58.881-12.648-80.352 0-145.709 65.366-145.709 145.714 0 80.343 65.357 145.705 145.709 145.705 17.832 0 35.071-3.35 51.472-9.55 2.736-6.1 8.792-10.39 15.912-10.39 9.659 0 17.479 7.825 17.479 17.493 0 9.645-7.821 17.475-17.479 17.475-5.373 0-10.011-2.565-13.208-6.385-17.335 6.096-35.496 9.324-54.181 9.324-16.725 0-32.85-2.547-48.053-7.238l-38.634 176.902-7.044-1.978c-147.506-41.628-250.54-177.895-250.54-331.348 0-16.626 1.219-33.378 3.585-49.765l1.133-7.929 153.232 45.972-0.194 5.346c-0.072 2.113-0.099 4.245-0.099 6.376 0 62.137 31.148 120.052 82.15 154.568 2.113-0.885 4.448-1.404 6.891-1.404 9.722 0 17.583 7.884 17.583 17.583 0 9.713-7.861 17.597-17.583 17.597s-17.588-7.884-17.588-17.597c0-2.118 0.528-4.091 1.206-5.978-53.716-37.23-86.475-98.744-86.475-164.773 0-0.515 0-1.030 0-1.54l-127.656-38.296c-1.558 13.181-2.366 26.546-2.366 39.835 0 144.851 95.61 273.731 233.431 315.982l35.875-164.299c-60.006-24.28-102.51-83.071-102.51-151.683 0-12.892 1.662-25.39 4.502-37.438l-173.258-52.641 1.915-6.543c42.554-145.822 178.464-247.659 330.522-247.659 9.997 0.009 20.022 0.443 29.816 1.282l7.351 0.637-27.747 179.268c18.662 1.097 36.986 5.247 54.136 12.454zM531.843 118.587c-7.031-0.443-14.147-0.664-21.263-0.682-143.65 0-272.318 94.716-315.273 231.182l124.572 37.821c20.193-62.72 70.166-111.649 133.206-130.478 2.307-7.026 8.701-12.174 16.49-12.174 9.713 0 17.579 7.875 17.579 17.592s-7.866 17.583-17.579 17.583c-6.556 0-12.056-3.743-15.068-9.072-57.446 18.062-102.848 63.094-121.429 120.567l22.008 6.687c20.961-64.083 80.456-110.755 151.010-112.683l25.747-166.345zM511.722 959.86c-282.617 0-511.722-229.109-511.722-511.727 0-282.613 229.105-511.722 511.722-511.722s511.722 229.105 511.722 511.722c0 282.617-229.105 511.727-511.722 511.727zM511.722 86.071c-199.953 0-362.062 162.096-362.062 362.058 0 199.998 162.109 362.067 362.062 362.067 162.010 0 299.162-106.375 345.387-253.15h-269.906c-21.408 14.851-47.421 23.566-75.48 23.566-73.159 0-132.479-59.31-132.479-132.483 0-73.168 59.319-132.488 132.479-132.488 22.604 0 43.886 5.671 62.512 15.66h-47.123v21.941h-2.045c-2.89-8.236-10.629-14.188-19.818-14.188-11.609 0-21.069 9.455-21.069 21.078s9.455 21.078 21.069 21.078c9.189 0 16.928-5.942 19.818-14.174h2.045v95.908h-3.779c-2.881-8.227-10.629-14.174-19.805-14.174-11.614 0-21.069 9.455-21.069 21.078 0 11.627 9.451 21.083 21.069 21.083 9.171 0 16.924-5.956 19.805-14.174h3.779v22.211h-44.748c-2.876-8.227-10.629-14.169-19.791-14.169-11.636 0-21.069 9.455-21.069 21.083 0 11.618 9.433 21.074 21.069 21.074 9.166 0 16.919-5.956 19.791-14.169h44.748v17.746l337.173 0.321c6.209-26.551 9.505-54.276 9.505-82.732 0-199.949-162.114-362.049-362.067-362.049zM497.688 634.54c4.258 0.307 8.561 0.452 12.892 0.452 53.702 0 104.835-23.16 140.3-63.541l2.050-2.357h180.315l-3.888 9.528c-53.174 130.013-178.297 214.014-318.777 214.014-14.472 0-29.048-0.908-43.33-2.705l-7.405-0.939 31.798-154.862 6.046 0.411zM510.58 778.822c131.391 0 248.783-76.541 301.916-195.921h-153.331c-38.007 41.917-91.953 65.894-148.585 65.894-2.619 0-5.215-0.050-7.807-0.144l-26.375 128.419c11.311 1.17 22.789 1.752 34.182 1.752z" />
<glyph unicode="&#xe927;" glyph-name="GRC-alt" d="M972.312 519.392h-438.116v-31.4h441.697c-0.894 10.516-2 21.019-3.581 31.4zM1010.567 564.433v-0.456h-476.375v-25.070h454.615l1.413-8.105c4.646-27.206 7.035-55.098 7.035-82.917 0-225.994-159.86-425.653-380.097-474.75l-9.902-2.19-40.282 219.058 8.841 2.231c67.998 17.24 126.207 61.049 161.91 121.235h-203.529v-30.994h66.576c-26.316-14.102-56.384-22.108-88.318-22.108-103.363 0-187.179 83.802-187.179 187.183s83.816 187.183 187.179 187.183c39.632 0 76.392-12.314 106.646-33.301h381.334c-65.32 207.377-259.092 357.669-487.98 357.669-282.5-0.014-511.542-229.001-511.542-511.56 0-282.518 229.042-511.542 511.542-511.542s511.546 229.024 511.546 511.542c0 40.219-4.646 79.377-13.433 116.891zM449.617 930.446c20.18 2.542 40.779 3.834 61.225 3.834 198.472 0 375.252-118.689 450.38-302.373l5.486-13.456h-254.739l-2.903 3.319c-50.108 57.066-122.364 89.781-198.224 89.781-6.118 0-12.196-0.203-18.22-0.628l-8.539-0.592-44.924 218.801 10.458 1.314zM552.984-36.722c-13.831-1.179-27.991-1.788-42.125-1.806-214.827 0-406.856 143.871-466.979 349.902l-2.709 9.252 244.801 74.369c-4.023 17.019-6.367 34.674-6.367 52.889 0 96.947 60.055 180.017 144.847 214.308l-50.69 232.13c-194.72-59.694-329.808-241.789-329.808-446.438 0-18.766 1.138-37.645 3.346-56.281l180.361 54.109c0 0.722 0 1.449 0 2.172 0 93.289 46.283 180.203 122.175 232.794-0.953 2.669-1.698 5.45-1.698 8.462 0 13.713 11.113 24.844 24.844 24.844 13.741 0 24.849-11.131 24.849-24.844 0-13.718-11.108-24.853-24.849-24.853-3.45 0-6.746 0.727-9.735 1.987-72.053-48.776-116.070-130.591-116.070-218.39 0-3.012 0.041-6.019 0.154-9.013l0.271-7.545-216.489-64.955-1.598 11.203c-3.35 23.151-5.071 46.816-5.071 70.306 0 216.809 145.565 409.33 353.975 468.144l9.948 2.8 54.587-249.926c21.471 6.611 44.26 10.209 67.89 10.209 26.402 0 52.050-4.552 76.55-13.163 4.515 5.391 11.054 9.013 18.653 9.013 13.646 0 24.7-11.049 24.7-24.69 0-13.646-11.049-24.7-24.7-24.7-10.056 0-18.613 6.055-22.482 14.675-23.187 8.764-47.534 13.492-72.721 13.492-113.523 0-205.855-92.332-205.855-205.855 0-113.518 92.332-205.873 205.855-205.873 28.75 0 57.084 6.371 83.184 17.872 3.012 10.237 12.079 17.859 23.304 17.859 13.641 0 24.695-11.049 24.695-24.695s-11.049-24.695-24.695-24.695c-6.48 0-12.291 2.628-16.671 6.71-24.234-10.2-50.117-16.066-76.478-17.606l39.203-253.281-10.399-0.894zM291.152 376.17l-31.098-9.455c26.257-81.206 90.404-144.829 171.56-170.341 4.267 7.509 12.038 12.806 21.299 12.806 13.713 0 24.839-11.131 24.839-24.844 0-13.718-11.126-24.849-24.839-24.849-11.013 0-20.044 7.279-23.304 17.19-89.076 26.619-159.68 95.746-188.204 184.379l-175.999-53.463c60.683-192.801 242.475-326.616 445.431-326.616 10.060 0.018 20.116 0.343 30.041 0.971l-36.372 235.007c-99.683 2.723-183.747 68.671-213.355 159.215zM573.132 386.375c-6.733 0-12.201-5.459-12.201-12.205s5.468-12.219 12.201-12.219c6.714 0 12.187 5.473 12.187 12.219s-5.473 12.205-12.187 12.205zM510.842 731.053c80.009 0 156.235-33.875 209.928-93.090h216.633c-75.069 168.657-240.922 276.806-426.561 276.806-16.102 0-32.317-0.84-48.302-2.474l37.266-181.444c3.658 0.131 7.338 0.203 11.036 0.203zM762.953 318.757c-35.83-69.746-98.712-121.475-173.542-143.045l33.347-181.219c178.911 44.066 314.302 192.132 347.157 369.915h-368.799c-4.077-11.614-15.018-20.026-27.982-20.026-16.409 0-29.766 13.361-29.766 29.788s13.357 29.775 29.766 29.775c12.964 0 23.905-8.399 27.982-20.026h371.748c1.617 11.573 2.872 23.191 3.621 34.968h-321.048c-4.059-11.627-15.018-20.031-27.991-20.031-16.405 0-29.761 13.357-29.761 29.784 0 16.423 13.357 29.784 29.761 29.784 12.973 0 23.932-8.408 27.991-20.035h321.902c0.063 3.188 0.402 6.295 0.402 9.491 0 6.863-0.474 13.722-0.781 20.599h-442.767v-135.509h236.032l-7.27-14.215zM639.659 428.64c0-6.746-5.469-12.214-12.214-12.214s-12.214 5.469-12.214 12.214c0 6.746 5.469 12.214 12.214 12.214s12.214-5.469 12.214-12.214zM528.863 487.996c-4.077 11.623-15.018 20.026-27.991 20.026-16.4 0-29.761-13.357-29.761-29.788 0-16.414 13.357-29.775 29.761-29.775 12.973 0 23.909 8.399 27.991 20.026h5.333v19.511h-5.333zM500.872 466.028c-6.728 0-12.196 5.464-12.196 12.205 0 6.755 5.464 12.219 12.196 12.219 6.728 0 12.201-5.464 12.201-12.219 0-6.742-5.473-12.205-12.201-12.205zM531.301 332.976c-4.077 11.623-15.009 20.022-27.987 20.022-16.405 0-29.766-13.357-29.766-29.779s13.357-29.779 29.766-29.779c12.977 0 23.909 8.403 27.987 20.026h2.894v19.511h-2.894zM503.315 311.004c-6.728 0-12.196 5.473-12.196 12.214s5.468 12.214 12.196 12.214c6.724 0 12.187-5.473 12.187-12.214s-5.464-12.214-12.187-12.214zM470.979 538.907c-4.059 11.618-15.014 20.022-27.973 20.022-16.427 0-29.757-13.357-29.757-29.779 0-16.427 13.334-29.779 29.757-29.779 12.964 0 23.914 8.394 27.973 20.022h63.216v19.516h-63.216zM443.006 516.935c-6.742 0-12.187 5.464-12.187 12.214 0 6.746 5.446 12.214 12.187 12.214 6.71 0 12.196-5.468 12.196-12.214-0.005-6.746-5.491-12.214-12.196-12.214z" />
<glyph unicode="&#xe928;" glyph-name="IFC" d="M693.618 522.399c-47.412 0-86.791-34.010-126.234-75.724 42.888-45.565 78.898-74.022 126.234-74.022 54.565 0 73.918 39.492 73.918 73.322 0 28.384-15.56 76.424-73.918 76.424zM331.642 522.399c-67.903 0-71.34-61.049-71.34-73.281 0-28.402 15.027-76.465 71.34-76.465 45.299 0 83.793 33.441 122.522 74.46-39.14 42.472-75.968 75.286-122.522 75.286zM512.476 960c-283.033 0-512.476-229.444-512.476-512.476s229.444-512.476 512.476-512.476 512.476 229.444 512.476 512.476-229.444 512.476-512.476 512.476zM693.618 289.077c-79.427 0-136.746 47.281-183.129 95.998-48.031-50.058-103.53-95.998-178.848-95.998-100.618 0-154.925 82.452-154.925 160.041 0 77.95 53.219 156.858 154.925 156.858 76.997 0 132.113-46.92 179.376-97.308 48.591 50.627 105.088 97.308 182.6 97.308 102.302 0 157.499-82.439 157.499-160.005 0-77.964-54.095-156.894-157.499-156.894z" />
<glyph unicode="&#xe929;" glyph-name="IFC-alt" d="M786.849 206.805c-120.91 0-208.162 71.967-278.775 146.133-73.11-76.198-157.598-146.133-272.25-146.133-153.173 0-235.824 125.511-235.824 243.613 0 118.661 81.007 238.781 235.824 238.781 117.217 0 201.105-71.425 273.063-148.134 73.968 77.074 159.964 148.134 277.967 148.134 155.715 0 239.739-125.493 239.739-243.563-0.009-118.689-82.357-238.831-239.743-238.831zM594.676 446.706c65.293-69.366 120.102-112.679 192.173-112.679 83.048 0 112.511 60.119 112.511 111.608 0 43.208-23.693 116.336-112.511 116.336-72.179 0-132.131-51.774-192.173-115.266zM235.819 561.972c-103.359 0-108.597-92.923-108.597-111.554 0-43.235 22.871-116.39 108.597-116.39 68.955 0 127.552 50.903 186.52 113.338-59.586 64.648-115.654 114.607-186.52 114.607z" />
<glyph unicode="&#xe92a;" glyph-name="IOC" d="M512.476 960c-283.033 0-512.476-229.444-512.476-512.476 0-283.028 229.444-512.476 512.476-512.476s512.476 229.444 512.476 512.476c0 283.033-229.444 512.476-512.476 512.476zM403.388 633.93c-63.948-37.501-106.912-106.921-106.912-186.407 0-79.499 42.964-148.901 106.912-186.411v-128.017c-130.18 45.168-223.641 168.878-223.641 314.424 0 145.556 93.461 269.256 223.641 314.415v-128.004zM584.48 122.619c-23.191-5.121-47.281-7.834-71.999-7.834-24.731 0-48.812 2.718-72.003 7.834v427.721c0 0 27.824 16.91 72.003 16.91 44.17 0 71.999-16.91 71.999-16.91v-427.721zM584.48 651.188c-22.519 7.965-46.739 12.336-71.999 12.336s-49.48-4.375-72.003-12.336v121.231c23.191 5.116 47.272 7.834 72.003 7.834 24.722 0 48.812-2.723 71.999-7.834v-121.231zM621.574 133.095v128.017c63.943 37.51 106.912 106.912 106.912 186.411 0 79.485-42.969 148.91-106.912 186.407v128.008c130.18-45.159 223.637-168.86 223.637-314.415 0-145.546-93.456-269.261-223.637-314.429z" />
<glyph unicode="&#xe92b;" glyph-name="IOC-alt" d="M401.166 606.246v-658.086c35.672-7.875 72.735-12.061 110.782-12.061 38.038 0 75.101 4.186 110.778 12.061v658.086c0 0-42.806 26.027-110.778 26.027-67.98 0-110.782-26.027-110.782-26.027zM0 448.043c0-223.939 143.804-414.274 344.1-483.758v196.955c-98.387 57.703-164.498 164.502-164.498 286.803 0 122.31 66.111 229.109 164.498 286.817v196.959c-200.301-69.493-344.1-259.823-344.1-483.776zM679.796 931.819v-196.959c98.387-57.707 164.502-164.507 164.502-286.817 0-122.301-66.115-229.096-164.502-286.803v-196.955c200.292 69.484 344.095 259.819 344.095 483.758 0 223.953-143.804 414.283-344.095 483.776zM401.166 947.939v-186.533c34.656 12.259 71.922 18.992 110.782 18.992s76.117-6.733 110.778-18.992v186.533c-35.677 7.87-72.739 12.061-110.778 12.061-38.047 0-75.11-4.19-110.782-12.061z" />
<glyph unicode="&#xe92c;" glyph-name="KORE" d="M457.207 534.374l161.983 171.303c-32.841 13.623-68.834 21.168-106.596 21.168-39.027 0-76.158-8.060-109.87-22.555h77.444l-22.961-169.916zM383.059 657.582l5.419 40.057c-91.483-45.633-154.347-140.074-154.347-249.248 0-82.375 35.789-156.375 92.643-207.354l5.432 40.192c-40.716 43.89-65.695 102.564-65.695 167.162 0 88.367 46.595 165.807 116.548 209.192zM568.96 536.166l-53.282-57.193 67.659-107.337c20.717 19.064 33.717 46.369 33.717 76.754 0 36.909-19.195 69.231-48.094 87.776zM663.13 448.391c0-46.821-21.426-88.557-54.944-116.164l22.004-34.904c44.983 35.049 74.008 89.623 74.008 151.069 0 62.047-29.581 117.095-75.309 152.107l-28.158-30.213c37.767-27.346 62.399-71.705 62.399-121.895zM688.349 664.328l-22.139-23.769c56.348-45.091 92.467-114.39 92.467-192.168 0-80.867-39.050-152.568-99.263-197.411l17.321-27.49c69.29 50.663 114.313 132.506 114.313 224.901-0.005 87.13-40.034 164.882-102.699 215.938zM320.99 448.391c0-32.055 7.902-62.223 21.814-88.765l29.63 219.221c-31.875-34.205-51.445-80.018-51.445-130.456zM512.093 959.81c-282.717 0-511.903-229.186-511.903-511.907 0-282.717 229.186-511.903 511.903-511.903 282.721 0 511.907 229.186 511.907 511.903 0 282.721-229.186 511.907-511.907 511.907zM512.594 113.069c-185.188 0-335.308 150.134-335.308 335.326 0 185.179 150.121 335.304 335.308 335.304 185.179 0 335.308-150.125 335.308-335.304 0-185.192-150.13-335.326-335.308-335.326zM445.693 431.218l-2.375 0.289-29.084-215.184h-55.526c44.084-29.296 96.987-46.401 153.887-46.401 56.908 0 109.789 17.105 153.887 46.401h-85.306l-135.482 214.895z" />
<glyph unicode="&#xe92d;" glyph-name="KORE-alt" d="M511.939 960.144c-282.807 0-512.065-229.267-512.065-512.052 0-282.812 229.258-512.093 512.065-512.093 282.803 0 512.061 229.276 512.061 512.093 0 282.785-229.258 512.052-512.061 512.052zM804.54 448.093c0-93.849-44.31-177.186-113.008-230.703l-33.608 53.305c51.192 42.156 83.915 105.896 83.915 177.403 0 76.645-37.623 144.381-95.294 186.14l42.992 46.148c69.84-53.481 115.004-137.55 115.004-232.293zM598.017 582.143c44.134-28.33 73.448-77.697 73.448-134.055 0-46.41-19.85-88.101-51.485-117.212l-103.336 163.92 81.373 87.347zM674.73 840.995l-247.374-261.607 35.067 259.498h-118.264c51.476 22.139 108.186 34.444 167.781 34.444 57.671-0.005 112.633-11.528 162.791-32.335zM252.648 312.53c-21.254 40.526-33.31 86.615-33.31 135.563 0 77.015 29.883 146.982 78.551 199.222l-45.24-334.784zM86.692 448.093c0 166.719 95.998 310.943 235.702 380.639l-8.268-61.175c-106.831-66.264-177.994-184.519-177.994-319.468 0-98.649 38.151-188.254 100.333-255.281l-8.295-61.383c-86.823 77.864-141.478 190.864-141.478 316.668zM276.937 93.693h84.8l44.409 328.607 3.635-0.443 206.898-328.169h130.271c-67.339-44.753-148.093-70.874-235.007-70.874-86.9 0-167.686 26.126-235.007 70.879zM762.596 104.643l-26.452 41.976c91.962 68.481 151.597 177.981 151.597 301.474 0 118.77-55.165 224.598-141.212 293.459l33.821 36.3c95.687-77.968 156.822-196.707 156.822-329.759 0.005-141.103-68.761-266.095-174.576-343.45z" />
<glyph unicode="&#xe92e;" glyph-name="LDOGE" d="M365.869 525.054c0 0-4.61-7.762-18.626-7.193-2.465-14.206 5.87-30.877 19.507-30.877 13.641 0 21.218 18.184 21.218 31.251-1.133 0.194-16.477-2.461-22.099 6.818zM350.724 615.214c0-17.437-9.047-31.572-20.207-31.572s-20.207 14.135-20.207 31.572c0 17.437 9.047 31.572 20.207 31.572s20.207-14.135 20.207-31.572zM387.967 548.796c0-7.604-9.894-13.768-22.099-13.768s-22.099 6.164-22.099 13.768c0 7.604 9.894 13.768 22.099 13.768s22.099-6.164 22.099-13.768zM511.993 960c-282.771 0-511.993-229.222-511.993-511.993 0-282.762 229.227-511.993 511.993-511.993s511.993 229.236 511.993 511.993c0 282.771-229.227 511.993-511.993 511.993zM760.352 490.204c-10.232-17.804-37.131-31.066-37.131-34.85 0-3.788 8.719-9.478 11.749-28.791 3.030-19.322-1.896-84.484-0.379-97.362s17.046-9.094 21.214-39.018c4.168-29.928-12.124-122.355-16.287-125.773-4.168-3.405-56.073-1.124-59.482 1.147-3.405 2.276 11.749 28.786 16.671 43.181s6.823 50.004 4.547 55.685c-2.271 5.685-45.457 27.278-45.457 27.278s-3.788-32.204-7.202-46.595c-3.409-14.395-18.179-50.004-26.894-55.305-8.71-5.306-54.172-1.142-58.335 1.513-4.172 2.651 34.471 65.917 33.712 75.006-0.754 9.094-39.023 42.427-45.082 51.137s-6.823 29.549-6.823 29.549-55.305-36.747-57.576-39.402c-2.271-2.651-16.287-137.509-25.002-146.224s-44.324-4.168-46.974 0c-2.651 4.172 5.306 38.639 6.439 63.266 1.138 24.623 1.517 61.749-1.892 68.567-3.409 6.823-31.062 9.094-31.062 9.094s0.375-37.126 0-62.887c-0.384-25.761-4.931-70.084-10.237-73.489-5.301-3.405-43.94-3.405-47.728 0-3.788 3.409 6.818 52.655 0 101.525-6.818 48.866-24.243 78.415-30.682 117.054-6.439 38.643-1.892 110.619-4.543 117.438-2.651 6.823-40.535 41.673-43.561 49.245-3.030 7.577-0.759 23.869-0.759 23.869s-4.922 1.896-5.306 10.607c-0.375 8.715 23.11 34.85 23.11 34.85-0.759 13.388-8.083 109.355 16.919 119.592 25.007 10.237 61.622-53.169 61.622-53.169s17.682 5.802 35.609 4.8c17.926-1.016 30.561-7.577 33.211-7.577s35.23 64.779 63.641 54.93c28.411-9.853 17.425-118.576 17.425-118.576 3.784-6.060 35.23-45.457 18.179-43.561 6.827-27.278-17.425-46.216-17.425-46.216s26.135-13.266 39.406-15.538c13.253-2.271 49.245-1.517 49.245-1.517s-3.418 49.634 45.453 76.528c48.866 26.899 94.712-9.473 94.712-9.473 2.271 16.287 26.515-15.908 26.515-25.002 16.292 0 8.331-40.914 8.331-40.914s8.336-6.814-1.892-24.623zM438.098 615.214c0-17.437-9.045-31.572-20.202-31.572s-20.202 14.135-20.202 31.572c0 17.437 9.045 31.572 20.202 31.572s20.202-14.135 20.202-31.572z" />
<glyph unicode="&#xe92f;" glyph-name="LDOGE-alt" d="M956.3 518.755c17.859 31.089 3.301 42.992 3.301 42.992s13.899 71.43-14.544 71.43c0 15.876-42.328 72.085-46.301 43.651 0 0-80.023 63.492-165.338 16.536-85.324-46.961-79.368-133.594-79.368-133.594s-62.828-1.323-85.979 2.642c-23.146 3.969-68.784 27.12-68.784 27.12s42.332 33.067 30.421 80.687c29.766-3.305-25.128 65.474-31.744 76.058 0 0 19.186 189.82-30.421 207.015-49.602 17.181-106.479-95.908-111.112-95.908-4.628 0-26.682 11.465-57.983 13.226-31.301 1.766-62.169-8.372-62.169-8.372s-63.93 110.692-107.581 92.824c-43.651-17.872-30.859-185.418-29.54-208.794 0 0-41.005-45.633-40.346-60.846 0.664-15.213 9.261-18.518 9.261-18.518s-3.969-28.438 1.319-41.669c5.292-13.226 71.425-74.076 76.058-85.979 4.633-11.907-3.305-137.568 7.938-205.028 11.243-67.456 41.664-119.045 53.571-204.365s-6.615-171.298 0-177.249c6.615-5.947 74.071-5.947 83.337 0 9.257 5.951 17.195 83.337 17.859 128.306 0.659 44.974 0 109.789 0 109.789s48.275-3.969 54.231-15.876c5.951-11.903 5.292-76.717 3.305-119.709-1.982-42.992-15.872-103.173-11.248-110.452 4.628-7.274 66.802-15.213 82.014 0 15.213 15.208 39.686 250.666 43.651 255.29 3.965 4.628 100.532 68.784 100.532 68.784s1.323-36.372 11.903-51.589c10.584-15.213 77.386-73.417 78.709-89.279 1.319-15.876-66.138-126.329-58.863-130.957 7.274-4.624 86.642-11.903 101.86-2.646 15.208 9.261 41 71.43 46.952 96.563 5.947 25.128 12.566 81.35 12.566 81.35s75.399-37.699 79.359-47.62c3.974-9.916 0.664-72.089-7.934-97.218-8.593-25.133-35.053-71.43-29.102-75.394 5.951-3.974 96.563-7.938 103.837-1.987s35.717 167.334 28.443 219.577c-7.274 52.253-34.39 45.633-37.040 68.12-2.637 22.491 5.956 136.249 0.664 169.98s-20.509 43.651-20.509 50.266c-0.005 6.611 46.965 29.761 64.815 60.846zM205.868 681.889c-19.475 0-35.275 24.681-35.275 55.12s15.795 55.116 35.275 55.116 35.27-24.677 35.27-55.116c-0.005-30.439-15.795-55.12-35.27-55.12zM269.13 513.133c-23.81 0-38.359 29.102-34.060 53.901 24.469-0.993 32.52 12.566 32.52 12.566 9.803-16.206 36.598-11.573 38.58-11.907 0.005-22.817-13.226-54.56-37.040-54.56zM267.59 597.017c-21.308 0-38.58 10.76-38.58 24.031s17.272 24.031 38.58 24.031c21.304 0 38.58-10.76 38.58-24.031 0.005-13.275-17.272-24.031-38.58-24.031zM358.423 681.889c-19.475 0-35.275 24.681-35.275 55.12s15.795 55.116 35.275 55.116 35.275-24.677 35.275-55.116c0-30.439-15.8-55.12-35.275-55.12z" />
<glyph unicode="&#xe930;" glyph-name="LTC" d="M512.237 960c-282.902 0-512.237-229.34-512.237-512.246 0-282.911 229.335-512.237 512.237-512.237 282.911 0 512.246 229.326 512.246 512.237 0.005 282.906-229.331 512.246-512.246 512.246zM711.079 197.964h-400.24l33.64 160.596-65.411-44.852 15.89 87.884 68.414 47.096 67.109 320.321h124.947l-46.202-219.948 162.674 111.956-19.064-91.063-162.646-111.5-32.177-153.209h275.298l-22.23-107.283z" />
<glyph unicode="&#xe931;" glyph-name="LTC-alt" d="M427.694 128.503l57.698 274.697 291.599 199.903 34.182 163.261-291.657-200.721 82.836 394.357h-224.011l-120.319-574.315-122.671-84.43-28.483-157.562 117.275 80.402-60.317-287.941h717.582l39.867 192.349z" />
<glyph unicode="&#xe932;" glyph-name="MAID" d="M512.273 959.458c-282.617 0-511.727-229.109-511.727-511.731 0-282.617 229.109-511.727 511.727-511.727s511.727 229.109 511.727 511.727c0 282.622-229.109 511.731-511.727 511.731zM608.132 159.957c-74.153 43.71-326.639 193.008-366.673 223.542-43.827 33.401-40.165 121.818-39.465 133.73l342.546-203.186-0.167 165.762 63.758 37.862v-357.709zM734.474 288.304c0-84.299-99.060-136.967-105.174-140.132v406.693l-136.186-80.221-65.302 37.56 306.662 172.522c0-78.28 0-323.663 0-396.42zM734.474 708.986l-349.451-196.557 138.277-79.901 0.063-81.328-301.84 179.051c55.563 33.161 217.613 129.869 314.348 187.603 118.093 70.509 198.598-8.819 198.598-8.819v-0.050z" />
<glyph unicode="&#xe933;" glyph-name="MAID-alt" d="M598.69 281.771l-0.099 138.949-236.226 136.502 597.001 335.9c0 0-137.532 135.527-339.309 15.064-165.252-98.645-442.117-263.86-537.036-320.516l515.669-305.899zM435.443 556.843l111.577-64.183 232.663 137.057v-694.801c10.444 5.41 179.679 95.393 179.679 239.405 0 124.31 0 543.538 0 677.254l-523.919-294.732zM743.532 566.172l-108.94-64.693 0.284-283.182-585.22 347.125c-1.183-20.351-7.437-171.402 67.438-228.464 68.377-52.167 499.756-307.222 626.437-381.881v611.094z" />
<glyph unicode="&#xe934;" glyph-name="MINT" d="M1020.324 321.353c-4.561 91.104-36.444 199.28-62.638 260.772-26.199 61.505-96.179 158.181-132.099 163.988-25.81 4.172-47.828 2.66-119.19 0-71.376-2.66-76.677-20.879-77.435-29.996-0.772-9.112 24.293-23.53 44.789-46.301 20.505-22.767 78.19-126.017 93.384-179.164 15.194-53.151 28.854-100.216 33.41-185.233 4.556-85.026-2.28-132.863 11.383-148.798 13.659-15.944 188.281-8.358 201.944 0 13.655 8.34 10.995 73.633 6.453 164.733zM678.058 582.125c-26.194 61.505-96.179 158.181-132.099 163.988-25.81 4.172-47.832 2.66-119.194 0-71.38-2.66-76.672-20.879-77.431-29.996-0.768-9.112 24.284-23.53 44.784-46.301 20.5-22.767 78.194-126.017 93.384-179.164 15.185-53.151 28.849-100.216 33.41-185.233 4.552-85.026-2.28-132.863 11.379-148.798 13.668-15.944 188.281-8.358 201.949 0 13.664 8.345 11.009 73.638 6.453 164.733-4.556 91.104-36.449 199.28-62.634 260.772zM404.9 582.125c-26.19 61.505-96.166 158.181-132.090 163.988-25.81 4.172-47.832 2.66-119.199 0-71.362-2.66-76.663-20.879-77.44-29.996-0.763-9.112 24.302-23.53 44.793-46.301 16.626-18.477 57.748-89.934 80.79-144.625h-202.915l77.314-77.192h150.017c6.66-25.616 12.512-52.596 16.653-85.888h-210.953l77.309-77.196h139.473c2.633-72.22-2.027-113.699 10.494-128.297 13.664-15.944 188.267-8.358 201.935 0 13.664 8.345 11.009 73.638 6.453 164.733-4.561 91.108-36.44 199.285-62.634 260.776z" />
<glyph unicode="&#xe935;" glyph-name="MINT-alt" d="M510.77 960c-283.444 0-513.23-229.778-513.23-513.226s229.782-513.23 513.23-513.23 513.23 229.782 513.23 513.23-229.782 513.226-513.23 513.226zM472.117 267.881c-8.394-5.13-115.591-9.785-123.981 0-7.685 8.968-4.822 34.43-6.444 78.767h-85.617l-47.462 47.394h129.512c-2.542 20.437-6.132 37-10.227 52.727h-92.106l-47.462 47.394h124.563c-14.133 33.581-39.379 77.453-49.593 88.801-12.58 13.975-27.969 22.826-27.499 28.425 0.479 5.59 3.734 16.775 47.548 18.414 43.822 1.626 57.337 2.556 73.182 0 22.053-3.563 65.013-62.918 81.097-100.676s35.654-104.162 38.454-160.104c2.795-55.919 4.421-96.012-3.965-101.142zM639.817 267.881c-8.39-5.13-115.591-9.785-123.981 0-8.385 9.785-4.186 39.162-6.99 91.352-2.804 52.203-11.185 81.097-20.505 113.726-9.329 32.633-44.748 96.021-57.333 110.005-12.594 13.975-27.969 22.826-27.495 28.425 0.461 5.59 3.712 16.775 47.543 18.414 43.804 1.626 57.328 2.556 73.173 0 22.058-3.563 65.018-62.918 81.102-100.676 16.080-37.758 35.654-104.162 38.454-160.104 2.8-55.919 4.421-96.012-3.969-101.142zM811.498 267.881c-8.39-5.13-115.591-9.785-123.981 0s-4.208 39.162-6.99 91.352c-2.8 52.203-11.185 81.097-20.514 113.726-9.315 32.633-44.735 96.021-57.324 110.005-12.585 13.975-27.964 22.826-27.508 28.425 0.47 5.59 3.725 16.775 47.548 18.414 43.813 1.626 57.328 2.556 73.177 0 22.049-3.563 65.009-62.918 81.097-100.676 16.075-37.758 35.654-104.162 38.454-160.104 2.786-55.919 4.425-96.012-3.96-101.142z" />
<glyph unicode="&#xe936;" glyph-name="MONA" d="M510.024 283.401l55.088 93.036h-108.010zM897.789 587.706l-73.2 327.939-143-225.664c-53.066 12.995-110.069 20.134-169.474 20.134-59.419 0-116.408-7.139-169.474-20.134l-143.013 225.664-73.2-327.939c-78.655-62.819-126.428-144.978-126.428-234.939 0-197.357 229.272-357.348 512.115-357.348 282.834 0 512.115 159.991 512.115 357.348 0 89.961-47.778 172.12-126.442 234.939zM227.344 437.499h-34.403l83.278 95.953h61.053l-109.929-95.953zM509.32 203.184l-141.708 249.099 34.99 19.904 31.572-55.481h154.772l33.026 55.784 34.643-20.518-147.294-248.788zM796.877 437.499l-109.92 95.953h61.053l83.26-95.953h-34.394z" />
<glyph unicode="&#xe937;" glyph-name="MONA-alt" d="M634.597 495.627l68.779-60.042h21.53l-52.104 60.042zM557.527 424.657h-92.151l-18.798 33.035-20.839-11.849 84.376-148.314 87.704 148.129-20.627 12.214-19.665-33.216zM510.539 345.289l-31.509 55.396h64.3l-32.791-55.396zM298.647 435.585h21.53l68.793 60.042h-38.21zM511.776 960c-282.893 0-512.224-229.331-512.224-512.224 0-282.888 229.331-512.224 512.224-512.224 282.888 0 512.224 229.335 512.224 512.224 0 282.893-229.335 512.224-512.224 512.224zM511.786 173.82c-168.408 0-304.924 95.258-304.924 212.768 0 53.562 28.447 102.483 75.277 139.889l43.588 195.257 85.152-134.362c31.595 7.739 65.528 11.984 100.907 11.984 35.37 0 69.317-4.245 100.911-11.984l85.143 134.362 43.574-195.257c46.843-37.406 75.295-86.326 75.295-139.889 0-117.51-136.525-212.768-304.924-212.768z" />
<glyph unicode="&#xe938;" glyph-name="MRC" d="M512.038 960c-282.794 0-512.038-229.245-512.038-512.034 0-282.771 229.249-512.034 512.038-512.034 282.798 0 512.038 229.258 512.038 512.034 0 282.789-229.24 512.034-512.038 512.034zM709.503 573.008c-41.456 65.325-114.367 108.718-197.465 108.718-129.101 0-233.769-104.655-233.769-233.76 0-90.657 51.657-169.225 127.119-207.982v309.918h61.365v-158.537c0.582-8.548 5.775-47.146 52.266-47.146 41.84 0 46.243 39.641 46.608 51.792l-0.009 153.896h61.365v-154.555c-0.632-45.48-29.897-112.502-107.964-112.502-20.627 0-37.916 4.208-52.266 11.085v-75.3c14.657-2.876 29.788-4.421 45.285-4.421 76.677 0 144.738 36.927 187.36 93.962l140.692-104.063c-74.505-100.071-193.695-164.909-328.052-164.909-225.754 0-408.775 183.016-408.775 408.761 0 225.759 183.020 408.761 408.775 408.761 144.377 0 271.175-74.916 343.897-187.924l-146.431-95.795z" />
<glyph unicode="&#xe939;" glyph-name="MSC" d="M513.027 957.945c-282.202 0-510.973-228.771-510.973-510.973s228.771-510.973 510.973-510.973c282.202 0 510.973 228.771 510.973 510.973s-228.771 510.973-510.973 510.973zM352.453 309.301l-163.039-35.541 224.269 432.837 64.955-144.594c-81.933-16.4-143.659-88.729-143.659-175.479 0-27.662 6.276-53.842 17.475-77.223zM513.957 261.519c-69.032 0-125.006 55.964-125.006 125.006 0 69.046 55.974 125.015 125.006 125.015 69.046 0 125.019-55.969 125.019-125.015s-55.974-125.006-125.019-125.006zM675.303 308.931c11.298 23.471 17.637 49.792 17.637 77.593 0 86.173-60.9 158.108-142.011 175.145l68.143 144.932 217.563-432.837-161.332 35.166z" />
<glyph unicode="&#xe93a;" glyph-name="MSC-alt" d="M457.519 578.273l-102.772 228.789-354.887-684.903 257.995 56.244c-17.728 36.991-27.666 78.424-27.666 122.193 0 137.279 97.687 251.723 227.33 277.678zM1024 122.158l-344.267 684.903-107.82-229.331c128.347-26.953 224.72-140.778 224.72-277.136 0-43.994-10.033-85.64-27.924-122.784l255.29-55.653zM711.224 300.6c0-109.249-88.564-197.813-197.813-197.813s-197.813 88.564-197.813 197.813c0 109.249 88.564 197.813 197.813 197.813s197.813-88.564 197.813-197.813z" />
<glyph unicode="&#xe93b;" glyph-name="MTR" d="M511.889 960c-282.708 0-511.889-229.182-511.889-511.885 0-282.712 229.182-511.894 511.889-511.894s511.889 229.182 511.889 511.894c0 282.703-229.182 511.885-511.889 511.885zM360.613 224.804h-62.95v186.398l62.95 19.38v-205.778zM468.044 224.804h-62.954v219.582l62.954 19.385v-238.967zM575.467 224.804h-62.95v252.585l62.95 19.385v-271.97zM724.558 534.866l-8.462 30.068-33.198-10.218v-329.912h-62.95v310.527l-414.369-127.616-5.644 18.161 498.307 217.356-7.207 28.194 132.804-16.919-99.281-119.641z" />
<glyph unicode="&#xe93c;" glyph-name="MTR-alt" d="M807.173 814.986l11.835-46.324-818.904-357.199 9.266-29.856 680.966 209.716v-510.309h103.449v542.174l54.56 16.807 13.903-49.422 163.157 196.621zM160.705 81.014h103.449v338.18l-103.449-31.861zM337.236 81.014h103.458v392.727l-103.458-31.87zM513.786 81.014h103.453v446.966l-103.453-31.866z" />
<glyph unicode="&#xe93d;" glyph-name="MUE" d="M512.002 960c-282.771 0-512.002-229.231-512.002-512.002s229.231-512.007 512.007-512.007c282.771 0 512.007 229.236 512.007 512.007-0.005 282.771-229.24 512.002-512.011 512.002zM408.422 690.933c20.414 12.657 80.845-81.662 92.278-83.292 11.433-1.635 40.829 27.761 59.613 43.281 18.78 15.511 100.853 66.96 104.519 61.649 3.68-5.306-57.567-40.833-91.456-66.964-33.888-26.135-57.983-66.142-84.931-66.142-26.944 0-75.941 75.945-82.881 84.38s-6.782 21.114 2.858 27.088zM672.725 256.647l-51.165 212.312-109.558-131.747-111.473 131.747-51.169-212.312h-96.906l96.906 407.203 162.642-199.249 158.551 199.249 95.813-407.203h-93.641z" />
<glyph unicode="&#xe93e;" glyph-name="MUE-alt" d="M834.189 805.237l-316.339-397.54-324.516 397.54-193.333-812.46h193.333l102.103 423.617 222.413-262.862 218.584 262.862 102.099-423.617h186.822zM470.853 636.883c53.77 0 101.832 79.833 169.447 131.973 67.614 52.135 189.816 123.005 182.478 133.599-7.333 10.593-171.077-92.056-208.551-123.010-37.469-30.953-96.125-89.614-118.932-86.353-22.812 3.26-143.375 191.437-184.108 166.187-19.236-11.925-19.552-37.207-5.703-54.041s111.608-168.354 165.369-168.354z" />
<glyph unicode="&#xe93f;" glyph-name="NBT" d="M932.666 739.276l-188.267-609.536-51.223 165.414 164.109 530.534c-7.071 6.462-14.309 12.738-21.724 18.798l-156.519-503.662-51.241 165.518 123.051 394.424c-71.38 37.803-152.744 59.234-239.129 59.234-282.617 0-511.722-229.109-511.722-511.722 0-110.389 34.954-212.61 94.391-296.204l181.824 600.668 51.526-166.403-157.223-519.394c6.931-6.204 14.034-12.219 21.304-18.057l149.452 493.728 51.517-166.399-115.844-382.725c70.315-36.376 150.143-56.94 234.776-56.94 282.622 0 511.731 229.105 511.731 511.727 0 108.109-33.563 208.383-90.788 290.998zM527.070 123.897c-24.429 0-42.662 16.463-48.117 34.295-5.446 17.827-187.319 609.419-187.319 609.419s49.029-0.009 68.554-0.009c19.525 0 36.882-11.56 42.043-27.869s189.292-615.835 189.292-615.835-40.029 0-64.454 0zM657.075 124.032c-23.196 0-43.899 17.719-50.587 40.287-6.696 22.573-182.618 603.287-182.618 603.287s44.292 0 66.318 0c22.035 0 39.388-12.738 45.073-31.342 5.671-18.608 185.319-612.254 185.319-612.254s-40.305 0.023-63.505 0.023z" />
<glyph unicode="&#xe940;" glyph-name="NEU" d="M1016.662 495.144c-18.175 68.504-63.857 122.572-108.588 151.462-44.73 28.885-115.573 43.8-115.573 43.8s0.944 33.094-10.711 61.518-39.149 54.524-39.149 54.524-56.863-18.635-87.153-68.508c-30.281-49.864-20.5-110.448-10.255-133.748 10.255-23.3 38.684-51.729 38.684-51.729s0.808-15.723-3.382-19.222c-4.199-3.49-52.077-25.16-123.728-30.055s-141.903-39.497-176.857-67.808c-34.95-28.316-80.041-91.921-80.041-91.921s21.674 56.967 80.041 114.295c58.371 57.319 111.148 75.846 136.312 154.839 25.165 78.989 21.674 155.535-19.574 219.491-41.231 63.961-115.681 127.57-231.015 127.918-115.347 0.348-188.394-73.751-209.368-99.611s-57.667-90.521-56.267-152.387 30.059-120.585 30.059-120.585-3.251 62.905 35.889 100.189c39.14 37.284 117.433 37.284 155.648-5.59 38.21-42.879 35.428-91.339 13.984-130.478-21.444-39.149-97.863-96.003-129.557-204.121-31.689-108.118-1.034-198.987 34.548-242.326 35.586-43.344 102.343-78.293 143.235-83.536 40.896-5.242 41.939-2.8 45.787 1.043s-5.59 16.080-9.785 32.159c-4.195 16.080-5.938 27.96-5.938 27.96s19.57-61.166 73.051-98.915c53.472-37.745 113.943-48.234 152.74-48.234 38.788 0 366.989 0 366.989 0s0 21.548 0 38.101-16.549 33.085-32.164 33.085c-15.605 0-154.708 0.239-162.637 0.239-7.925 0-12.819 4.89-10.259 9.315 2.569 4.425 59.198 69.199 47.078 156.808-12.119 87.613-60.119 136.439-118.368 168.706 0 0 48.929-13.063 93.664-58.728 44.739-45.665 55.45-80.619 60.584-106.714 5.13-26.095 3.725-71.769 7.925-73.164s38.675 71.773 39.61 133.748c0.93 61.984-22.365 148.188-20.5 149.123 1.86 0.935 47.995-26.573 102.984-30.294 55.003-3.721 99.733 8.859 99.733 8.859s20.5 61.984 2.325 130.492zM943.634 494.986c-0.050 16.861-13.736 30.529-30.606 30.529-16.897 0-30.61-13.704-30.61-30.615 0-5.906 1.757-11.37 4.646-16.048-19.48 7.008-33.419 25.571-33.419 47.457 0 27.86 22.591 50.456 50.46 50.456s50.469-22.595 50.469-50.456c-0.005-11.849-4.114-22.708-10.941-31.324z" />
<glyph unicode="&#xe941;" glyph-name="NEU-alt" d="M724.865 517.36c-14.63 0-26.483-11.853-26.483-26.474 0-11.478 7.32-21.223 17.543-24.894-1.517 2.447-2.438 5.319-2.438 8.412 0 8.873 7.198 16.070 16.061 16.070 8.859 0 16.030-7.175 16.066-16.016 3.572 4.52 5.73 10.218 5.73 16.432-0.009 14.621-11.858 26.47-26.479 26.47zM511.722 960c-282.613 0-511.722-229.109-511.722-511.722 0-282.617 229.109-511.727 511.727-511.727s511.727 229.105 511.727 511.727c-0.005 282.613-229.109 511.722-511.731 511.722zM784.343 403.457c0 0-24.284-6.827-54.136-4.804-29.843 2.018-54.89 16.951-55.897 16.445-1.011-0.51 11.632-47.304 11.126-80.948-0.506-33.636-19.222-73.349-21.498-72.59-2.28 0.754-1.522 25.544-4.299 39.713-2.786 14.165-8.602 33.134-32.891 57.92-24.28 24.785-50.839 31.879-50.839 31.879 31.613-17.52 57.676-44.017 64.25-91.569 6.579-47.557-24.158-82.714-25.553-85.121-1.391-2.398 1.269-5.053 5.572-5.053 4.299 0 79.802-0.126 88.277-0.126 8.48 0 17.457-8.981 17.457-17.962s0-20.681 0-20.681-178.143 0-199.199 0c-21.065 0-53.883 5.689-82.908 26.181-29.030 20.491-39.65 53.689-39.65 53.689s0.944-6.448 3.22-15.172 7.401-15.366 5.315-17.457c-2.091-2.086-2.655-3.414-24.853-0.564-22.198 2.845-58.43 21.819-77.747 45.344-19.313 23.521-35.952 72.848-18.748 131.531 17.199 58.687 58.683 89.546 70.319 110.791 11.641 21.25 13.154 47.557-7.59 70.825-20.739 23.277-63.239 23.277-84.48 3.034-21.25-20.238-19.48-54.38-19.48-54.38s-15.56 31.87-16.319 65.451c-0.759 33.581 19.159 68.675 30.542 82.714s51.029 54.258 113.64 54.068c62.602-0.19 103.011-34.719 125.399-69.434 22.388-34.719 24.284-76.266 10.629-119.14-13.664-42.879-42.305-52.935-73.99-84.046-31.685-31.116-43.448-62.042-43.448-62.042s24.474 34.53 43.448 49.905c18.969 15.357 57.098 34.146 95.994 36.796 38.892 2.66 64.882 14.422 67.158 16.31 2.276 1.901 1.842 10.435 1.842 10.435s-15.438 15.429-20.997 28.082c-5.568 12.643-10.878 45.529 5.559 72.595 16.441 27.070 47.313 37.185 47.313 37.185s14.919-14.169 21.241-29.594c6.326-15.429 5.82-33.392 5.82-33.392s38.449-8.096 62.729-23.774c24.28-15.682 49.078-45.028 58.94-82.213 9.857-37.185-1.269-70.829-1.269-70.829z" />
<glyph unicode="&#xe942;" glyph-name="NMC" d="M390.997 567.079l222.169-305.317 19.674 62.209-225.334 310.396zM512.883 960c-283.263 0-512.883-229.629-512.883-512.887s229.62-512.878 512.883-512.878c283.25 0 512.878 229.624 512.878 512.878s-229.629 512.887-512.878 512.887zM713.143 244.617c-7.139-27.129-25.697-50.925-47.363-60.692-18.089-8.141-72.121-6.579-72.121-6.579l-224.711 309.119c0 0-57.73-215.622-65.221-241.847-10.95-38.309-29.039-49.255-47.128-59.252-18.093-10.006-75.692-8.019-75.692-8.019s118.693 433.537 128.844 472.257c10.16 38.715 34.439 56.339 52.528 62.995 18.093 6.669 68.079 3.811 68.079 3.811l224.228-307.069 65.935 242.561c0 0 8.81 30.949 34.512 50.465 25.711 19.52 85.699 14.648 85.699 14.648s-120.445-445.255-127.589-472.397z" />
<glyph unicode="&#xe943;" glyph-name="NMC-alt" d="M891.016 843.741c-39.894-30.299-53.562-78.316-53.562-78.316l-102.334-376.439-347.983 476.551c0 0-77.571 4.43-105.652-5.911-28.077-10.349-65.754-37.69-81.522-97.778-15.759-60.087-199.962-732.912-199.962-732.912s89.388-3.080 117.474 12.445c28.073 15.515 56.141 32.502 73.132 91.975 11.632 40.698 101.223 375.32 101.223 375.32l348.728-479.739c0 0 83.861-2.434 111.924 10.218 33.622 15.149 62.431 52.095 73.512 94.201 11.085 42.116 198.007 733.119 198.007 733.119s-93.081 7.554-132.984-22.735zM670.847 159.948l-344.786 473.842 25.603 104.42 349.717-481.713-30.533-96.549z" />
<glyph unicode="&#xe944;" glyph-name="NOTE" d="M512.476 960c-283.033 0-512.476-229.444-512.476-512.476s229.444-512.476 512.476-512.476 512.476 229.444 512.476 512.476-229.444 512.476-512.476 512.476zM510.106 555.926h-32.267v-150.586c0-15.845-12.837-28.682-28.682-28.682-15.849 0-28.691 12.837-28.691 28.682v207.954h89.641c63.040 0 156.325-54.542 156.325-171.605 0-111.437-99.435-169.722-152.74-169.722h-64.535c-15.849 0-28.691 12.837-28.691 28.682s12.837 28.687 28.691 28.687h64.535c19.412 0 95.371 29.328 95.371 112.358 0.005 85.468-67.948 114.232-98.956 114.232zM533.058 180.895h-81.034c-15.84 0-28.687 12.842-28.687 28.687 0 15.84 12.846 28.682 28.687 28.682h81.034c45.394 0 177.118 51.106 177.118 207.598 0 156.487-134.389 207.598-180.704 207.598h-147.723v-443.873c0-15.845-12.842-28.687-28.682-28.687-15.845 0-28.687 12.842-28.687 28.687v501.233h205.087c80.416 0 238.068-80.014 238.068-264.962 0-187.242-152.722-264.962-234.478-264.962z" />
<glyph unicode="&#xe945;" glyph-name="NOTE-alt" d="M480.123 960h-396.38v-968.776c0-30.619 24.821-55.436 55.441-55.436s55.441 24.817 55.441 55.436v857.904h285.503c89.514 0 349.261-98.784 349.261-401.234 0-302.445-254.59-401.229-342.33-401.229h-156.618c-30.619 0-55.441-24.817-55.441-55.436s24.821-55.436 55.441-55.436h156.614c158.027 0 453.202 150.215 453.202 512.106 0 357.461-304.703 512.102-460.133 512.102zM449.635 222.681h-124.735c-30.624 0-55.436-24.821-55.436-55.441s24.812-55.436 55.436-55.436h124.735c103.020 0 295.207 112.66 295.207 328.038 0 226.26-180.293 331.673-302.138 331.673h-173.24v-401.925c0-30.619 24.812-55.432 55.436-55.432 30.619 0 55.436 24.812 55.436 55.432v291.043h62.367c59.925 0 191.256-55.599 191.256-220.792 0-160.479-146.811-217.161-184.325-217.161z" />
<glyph unicode="&#xe946;" glyph-name="NVC" d="M713.509 957.968c-165.238 0-299.167-46.897-299.167-104.763v-92.955c16.007-33.252 128.997-75.552 299.167-75.552 170.151 0 283.146 42.305 299.139 75.552v92.955c0 57.865-133.942 104.763-299.139 104.763zM99.010 131.718l-4.226 8.751v10.381c-18.039-13.483-28.42-28.47-28.42-44.337v-92.96c16.007-33.247 128.997-75.543 299.167-75.543 170.151 0 283.15 42.296 299.144 75.543v48.248c-60.335-18.721-139.889-29.77-228.116-29.77-170.499 0-309.317 40.987-337.548 99.688zM137.401 177.279v-27.088c15.998-33.256 128.988-75.552 299.162-75.552 170.151 0 283.146 42.296 299.149 75.552v92.951c0 6.642-1.955 13.104-5.337 19.394v-14.517l-4.204-8.764c-28.253-58.692-167.040-99.679-337.552-99.679-100.022 0-188.935 14.183-251.217 37.704zM609.644 402.396v92.951c0 57.87-133.946 104.763-299.149 104.763-165.238 0-299.153-46.893-299.153-104.763v-92.951c15.989-33.252 128.984-75.548 299.153-75.548 170.151 0 283.146 42.296 299.149 75.548zM652.252 400.184v-7.509l-4.213-8.751c-28.244-58.696-167.031-99.679-337.543-99.679-84.732 0-161.635 10.128-221.036 27.522v-54.023c15.998-33.252 128.988-75.552 299.158-75.552 170.151 0 283.146 42.301 299.149 75.552v92.941c0.005 17.931-12.896 34.769-35.514 49.498zM414.342 702.665v-66.3c90.377-11.103 171.921-37.261 211.847-80.027 27.052-2.524 56.222-3.965 87.324-3.965 170.151 0 283.146 42.305 299.139 75.552v74.74c-62.408-39.948-181.259-60.575-299.139-60.575-117.912 0-236.759 20.627-299.171 60.575zM650.45 511.774c1.079-5.31 1.802-10.769 1.802-16.423v-46.645c16.716-8.349 31.193-17.804 43.154-28.38 6.015-0.095 11.925-0.275 18.107-0.275 170.151 0 283.146 42.305 299.139 75.552v74.726c-62.408-39.939-181.259-60.566-299.139-60.566-21.119 0.005-42.238 0.691-63.063 2.009zM730.378 350.685v-27.323c14.233-10.187 25.706-21.606 33.897-34.241 141.564 7.365 234.040 44.355 248.377 74.153v74.74c-60.277-38.575-173.167-59.067-287.011-60.421 2.98-8.534 4.737-17.439 4.737-26.908zM778.314 243.141v-85.55c133.662 8.99 220.458 44.549 234.334 73.363v74.726c-50.993-32.615-139.627-52.343-234.627-58.48 0.099-1.346 0.294-2.682 0.294-4.059zM707.282 77.799v-62.896c2.082-0.036 4.123-0.122 6.227-0.122 165.198 0 299.139 46.902 299.139 104.754v53.833c-53.905-34.498-149.963-54.551-251.104-59.387-12.408-13.37-30.827-25.544-54.262-36.182z" />
<glyph unicode="&#xe947;" glyph-name="NVC-alt" d="M513.226 960c-283.448 0-513.226-229.778-513.226-513.226s229.778-513.23 513.226-513.23 513.23 229.782 513.23 513.23-229.782 513.226-513.23 513.226zM244.453 411.639v45.967c0 28.614 66.228 51.806 147.94 51.806 81.694 0 147.926-23.191 147.926-51.806v-45.967c-7.911-16.445-63.785-37.356-147.926-37.356-84.154-0.005-140.029 20.911-147.94 37.356zM578.966 340.101c-7.92-16.45-63.799-37.356-147.94-37.356-84.15 0-140.020 20.911-147.94 37.356v26.713c29.378-8.597 67.402-13.61 109.31-13.61 84.317 0 152.947 20.27 166.914 49.295l2.082 4.326v3.716c11.189-7.288 17.574-15.619 17.574-24.478v-45.963zM597.945 330.966l2.091 4.33v7.171c1.671-3.107 2.633-6.304 2.633-9.582v-45.972c-7.916-16.445-63.785-37.361-147.926-37.361-84.154 0-140.033 20.92-147.944 37.361v13.402c30.8-11.641 74.767-18.653 124.229-18.653 84.321 0.005 152.947 20.274 166.918 49.304zM567.538 219.349c-7.916-16.441-63.79-37.352-147.926-37.352-84.15 0-140.033 20.916-147.949 37.352v45.972c0 7.852 5.139 15.267 14.057 21.927v-5.13l2.086-4.33c13.971-29.030 82.601-49.295 166.932-49.295 43.619 0 82.971 5.464 112.8 14.72v-23.864zM739.617 271.76c0-28.614-66.233-51.806-147.931-51.806-1.039 0-2.041 0.045-3.075 0.068v31.102c11.578 5.251 20.694 11.275 26.835 17.886 50.013 2.393 97.52 12.314 124.166 29.373v-26.623zM739.617 326.857c-6.868-14.242-49.787-31.838-115.875-36.277v42.305c0 0.677-0.099 1.337-0.149 2.005 46.983 3.034 90.81 12.788 116.024 28.917v-36.95zM739.617 392.295c-7.089-14.734-52.826-33.026-122.82-36.665-4.055 6.24-9.726 11.889-16.761 16.924v13.515c0 4.678-0.871 9.090-2.348 13.303 56.294 0.673 112.128 10.805 141.93 29.879v-36.954zM739.617 457.733c-7.907-16.441-63.79-37.365-147.931-37.365-3.057 0-5.983 0.090-8.945 0.135-5.915 5.224-13.077 9.898-21.349 14.025v23.074c0 2.791-0.352 5.5-0.885 8.114 10.295-0.65 20.739-0.984 31.179-0.984 58.285 0 117.068 10.196 147.931 29.946v-36.945zM739.617 523.162c-7.907-16.436-63.79-37.361-147.931-37.361-15.38 0-29.806 0.718-43.181 1.964-19.746 21.146-60.060 34.078-104.758 39.573v32.791c30.868-19.755 89.641-29.96 147.944-29.96 58.285 0 117.068 10.2 147.931 29.96v-36.968zM739.617 588.6c-7.907-16.445-63.79-37.365-147.931-37.365-84.15 0-140.020 20.92-147.944 37.365v45.972c0 28.614 66.237 51.806 147.944 51.806 81.698 0 147.931-23.191 147.931-51.806v-45.972z" />
<glyph unicode="&#xe948;" glyph-name="NXT" d="M812.37 253.088l-390.108 258.528h-104.108c-36.133 0-65.415 29.292-65.415 65.42 0 36.115 29.283 65.393 65.415 65.393h143.515l390.117-258.514h167.808c0.303 0 0.61-0.050 0.921-0.050 2.596 20.934 3.96 42.251 3.96 63.898 0 21.629-1.364 42.928-3.96 63.853h-194.67c-36.119 0-65.397 29.292-65.397 65.42 0 36.115 29.278 65.393 65.397 65.393h160.298c-76.627 186.348-259.927 317.572-473.905 317.572-231.354 0-426.845-153.39-490.423-364.004l320.046-212.082h100.993c36.115 0 65.393-29.296 65.393-65.42 0-36.106-29.283-65.402-65.393-65.402h-140.399l-302.382 200.387c-0.018-1.91-0.072-3.802-0.072-5.712 0-282.906 229.34-512.242 512.237-512.242 213.978 0 397.278 131.223 473.905 317.567h-173.773z" />
<glyph unicode="&#xe949;" glyph-name="NXT-alt" d="M467.85 276.442h-93.831l-260.727 172.779h-69.579c-24.14 0-43.714 19.574-43.714 43.719 0 24.14 19.574 43.71 43.714 43.71h95.913l260.727-172.775h67.497c24.14 0 43.714-19.579 43.714-43.719 0-24.144-19.574-43.714-43.714-43.714zM853.307 276.442h-138.489l-260.722 172.779h-69.583c-24.144 0-43.719 19.574-43.719 43.719 0 24.14 19.574 43.71 43.719 43.71h95.917l260.727-172.775h112.15c24.149 0 43.719-19.579 43.719-43.719-0.005-24.144-19.574-43.714-43.719-43.714zM980.29 362.832c-24.144 0-43.714 19.57-43.714 43.714v42.676h-212.754c-24.144 0-43.719 19.574-43.719 43.719 0 24.14 19.574 43.71 43.719 43.71h300.183v-130.104c-0.005-24.144-19.574-43.714-43.714-43.714zM128.194 276.442h-84.48c-24.14 0-43.714 19.57-43.714 43.714 0 24.14 19.574 43.719 43.714 43.719h84.48c24.144 0 43.719-19.579 43.719-43.719 0-24.144-19.574-43.714-43.719-43.714z" />
<glyph unicode="&#xe94a;" glyph-name="OPAL" d="M512.652 958.695c-282.41 0-511.348-228.938-511.348-511.348s228.938-511.348 511.348-511.348 511.348 228.938 511.348 511.348-228.938 511.348-511.348 511.348zM379.131 679.071l124.685-71.99-124.685-71.99v143.98zM240.777 598.976l124.69-71.994-124.69-71.99v143.984zM240.777 438.773l124.69-71.99-124.69-71.999v143.989zM369.621 214.68l-124.69 71.99 124.69 71.994v-143.984zM369.621 374.884l-124.69 71.994 124.69 71.99v-143.984zM369.621 535.092l-124.694 71.99 124.69 71.99v-143.98zM379.131 359.612l124.685-71.994-124.685-71.994v143.989zM507.658 135.863l-124.69 71.99 124.69 71.994v-143.984zM507.658 614.853l-124.69 71.994 124.69 71.985v-143.98zM655.684 679.071l124.694-71.99-124.694-71.99v143.98zM655.684 518.868l124.694-71.99-124.694-71.994v143.984zM517.642 758.832l124.69-71.985-124.69-71.994v143.98zM517.642 135.863v143.989l124.69-71.994-124.69-71.994zM646.174 215.624l-124.685 71.994 124.685 71.994v-143.989zM646.174 535.092l-124.685 71.99 124.685 71.99v-143.98zM655.684 214.68v143.989l124.694-71.994-124.694-71.994zM784.528 294.784l-124.694 71.994 124.694 71.99v-143.984zM784.528 454.992l-124.694 71.99 124.694 71.994v-143.984z" />
<glyph unicode="&#xe94b;" glyph-name="OPAL-alt" d="M501.423 960l-204.965-118.332 204.965-118.345zM274.521 592.217v236.677l-204.956-118.341zM274.521 328.885v236.673l-204.956-118.336zM274.521 65.548v236.677l-204.956-118.336zM62.738 433.905v-236.682l204.961 118.336zM62.738 697.232v-236.673l204.961 118.332zM290.145 828.894v-236.677l204.961 118.336zM501.423-64v236.677l-204.961-118.341zM290.145 303.788v-236.677l204.961 118.341zM517.827 960v-236.677l204.97 118.345zM744.729 828.894v-236.677l204.961 118.336zM744.729 565.557v-236.673l204.961 118.336zM744.729 65.548l204.961 118.341-204.961 118.336zM956.512 197.223v236.682l-204.965-118.345zM751.547 578.892l204.965-118.332v236.673zM729.105 592.217v236.677l-204.961-118.341zM517.827-64l204.956 118.336-204.956 118.341zM729.105 67.111v236.677l-204.961-118.336z" />
<glyph unicode="&#xe94c;" glyph-name="POT" d="M588.051 623.671c-42.070 0-153.611 0-153.611 0l-8.227-42.59h135.477l-12.165-64.381h-135.739l-9.984-51.72c35.749 0 120.549 0 163.464 0 55.26 0 106.47 36.503 113.058 94.301 6.597 57.798-50.185 64.39-92.273 64.39zM513.027 957.945c-282.202 0-510.973-228.771-510.973-510.973s228.771-510.973 510.973-510.973c282.202 0 510.973 228.771 510.973 510.973s-228.771 510.973-510.973 510.973zM777.786 551.456c-19.886-163.667-179.584-177.231-248.544-177.231-50.383 0-112.918 0-142.955 0l-37.528-194.431h-95.827l65.564 336.902h-55.933l12.165 64.381h56.303l26.334 135.369c0 0 160.727 0 194.693 0 130.176 0.005 244.295-12.133 225.727-164.99z" />
<glyph unicode="&#xe94d;" glyph-name="POT-alt" d="M579.757 959.932c-64.806 0-371.459 0-371.459 0l-50.261-258.284h-107.409l-23.218-122.852h106.714l-125.091-642.797h182.826l71.606 370.976c57.315 0 176.626 0 272.765 0 131.558 0 436.269 25.874 474.208 338.148 35.428 291.648-182.307 314.808-430.679 314.808zM824.498 660.057c-12.576-110.281-110.281-179.932-215.721-179.932-81.879 0-243.681 0-311.887 0l19.042 98.672h258.993l23.218 122.856h-258.491l15.687 81.26c0 0 212.813 0 293.107 0 80.285-0.005 188.633-12.58 176.053-122.856z" />
<glyph unicode="&#xe94e;" glyph-name="PPC" d="M656.668 643.458c-59.134 37.311-137.396 37.763-137.396 37.763s-1.49-97.583 3.969-139.216c5.464-41.628 24.23-61.762 38.905-74.044 14.671-12.291 58.696-30.579 75.417-20.008 16.716 10.584 18.075 60.959 9.88 89.961-8.187 29.003-25.585 51.183-38.219 64.485-12.616 13.307-49.128 41.289-49.128 41.289s41.971-20.13 63.812-37.867c21.832-17.746 50.839-56.989 55.612-89.406 4.777-32.421-6.019-68.463-6.019-68.463s47.764 33.080 47.764 80.858c0.005 47.773-5.446 77.341-64.598 114.647zM423.946 681.455h10.291v-389.918h-10.291v389.918zM512.047 960c-282.794 0-512.047-229.254-512.047-512.047s229.254-512.047 512.047-512.047 512.047 229.254 512.047 512.047-229.254 512.047-512.047 512.047zM688.060 381.851c-37.307-22.753-171.524-16.378-171.524-16.378h-0.402v-73.936h17.637v-68.928h-17.637v-101.918h-81.897v101.918h-10.291v-101.918h-81.897v101.918h-17.628v68.928h17.628v458.842c0 0 219.487 0 235.91 0 36.404 0 69.606-4.543 114.652-31.847 45.042-27.296 88.259-78.257 88.259-168.336 0-90.088-55.508-145.592-92.811-168.345z" />
<glyph unicode="&#xe94f;" glyph-name="PPC-alt" d="M740.15 908.235c-73.223 44.378-127.191 51.765-186.353 51.765-26.7 0-383.475 0-383.475 0v-745.844h-28.651v-112.042h28.651v-165.672h133.115v165.672h16.739v-165.672h133.111v165.672h28.673v112.042h-28.673v120.179h0.65c0 0 218.173-10.358 278.82 26.623 60.647 36.977 150.87 127.2 150.87 273.636-0.005 146.431-70.265 229.272-143.478 273.641zM320.177 214.156h-16.739v633.797h16.739v-633.797zM709.102 468.399c0 0 17.552 58.588 9.789 111.283-7.771 52.686-54.912 116.485-90.408 145.325-35.5 28.849-103.724 61.564-103.724 61.564s59.351-45.484 79.869-67.109c20.518-21.634 48.807-57.685 62.128-104.835 13.303-47.141 11.090-129.029-16.089-146.228-27.188-17.195-98.73 12.553-122.581 32.525s-54.366 52.686-63.234 120.355c-8.877 67.669-6.466 226.301-6.466 226.301s127.214-0.727 223.352-61.369c96.143-60.665 105.011-108.727 105.011-186.38-0.005-77.643-77.648-131.431-77.648-131.431z" />
<glyph unicode="&#xe950;" glyph-name="QRK" d="M511.948 959.896c-282.744 0-511.948-229.209-511.948-511.948s229.204-511.948 511.948-511.948 511.948 229.209 511.948 511.948-229.209 511.948-511.948 511.948zM779.407 449.393c-14.409-8.317-29.748-13.474-45.249-15.962-0.014-0.163-0.050-0.33-0.068-0.497-37.731-3.238-73.358-24.126-93.79-59.383-20.893-36.029-20.911-78.42-3.838-113.207 5.048-14.011 7.983-29.025 7.983-44.739 0-73.177-59.319-132.528-132.479-132.528-73.191 0-132.515 59.351-132.515 132.528 0 16.558 3.188 32.358 8.742 46.97-0.14 0.081-0.262 0.217-0.393 0.303 16.156 34.326 15.885 75.72-4.452 111.112-20.762 36.106-57.464 57.333-96.143 59.929-14.639 2.633-29.102 7.595-42.725 15.434-63.379 36.593-85.112 117.646-48.519 181.002 36.589 63.383 117.636 85.080 181.011 48.5 14.395-8.308 26.506-19.001 36.408-31.17 0.027 0.014 0.086 0.032 0.117 0.050 21.715-31.062 57.671-51.44 98.464-51.44 40.752 0 76.731 20.378 98.441 51.44 0.018-0.018 0.054-0.018 0.068-0.036 9.907 12.183 22.022 22.875 36.408 31.188 63.415 36.593 144.463 14.878 181.029-48.496 36.589-63.365 14.865-144.404-48.5-180.997zM511.966 546.475c-54.429 0-98.532-44.102-98.532-98.509 0-54.411 44.102-98.541 98.532-98.541 54.389 0 98.527 44.125 98.527 98.541 0 54.407-44.134 98.509-98.527 98.509z" />
<glyph unicode="&#xe951;" glyph-name="QRK-alt" d="M512.084 960.063c-282.843 0-512.084-229.209-512.084-511.962 0-282.762 229.245-512.102 512.084-512.102 282.708 0 511.984 229.34 511.984 512.102 0 282.753-229.276 511.962-511.984 511.962zM512.084 6.996c-243.618 0-441.065 197.555-441.065 441.105 0 243.545 197.452 440.961 441.065 440.961 243.5 0 440.997-197.415 440.997-440.961 0-243.55-197.497-441.105-440.997-441.105zM829.055 631.086c-36.684 63.591-118.007 85.374-181.638 48.658-14.431-8.34-26.591-19.064-36.53-31.288-0.018 0.014-0.050 0.014-0.068 0.032-21.787-31.17-57.888-51.612-98.775-51.612-40.928 0-77.006 20.441-98.794 51.612-0.032-0.018-0.090-0.032-0.117-0.050-9.939 12.21-22.090 22.934-36.53 31.269-63.591 36.702-144.91 14.933-181.616-48.663-36.72-63.568-14.915-144.887 48.677-181.607 13.664-7.861 28.181-12.846 42.87-15.483 38.806-2.605 75.629-23.905 96.464-60.137 20.41-35.505 20.681-77.038 4.466-111.477 0.131-0.095 0.253-0.23 0.397-0.307-5.577-14.662-8.774-30.515-8.774-47.132 0-73.426 59.523-132.966 132.957-132.966 73.408 0 132.926 59.545 132.926 132.966 0 15.772-2.944 30.831-8.006 44.893-17.132 34.9-17.114 77.435 3.852 113.586 20.496 35.374 56.24 56.335 94.097 59.577 0.023 0.172 0.063 0.343 0.077 0.501 15.547 2.497 30.935 7.667 45.398 16.012 63.582 36.729 85.369 118.038 48.668 181.616zM512.052 349.177c-54.61 0-98.861 44.278-98.861 98.87s44.251 98.843 98.861 98.843c54.569 0 98.857-44.251 98.857-98.843s-44.288-98.87-98.857-98.87z" />
<glyph unicode="&#xe952;" glyph-name="RBT" d="M512.476 960c-283.033 0-512.476-229.444-512.476-512.476s229.444-512.476 512.476-512.476 512.476 229.444 512.476 512.476-229.444 512.476-512.476 512.476zM512.476 54.869l-196.625 196.657c-50.388 50.325-81.481 119.845-81.481 196.652 0 9.952 0.555 19.723 1.576 29.396h299.46c12.959 0 43.308 0 43.308-42.332 0-18.852 0-42.305-58.895-42.305h-69.791l132.14-268.394-69.691-69.673zM709.133 251.499l-62.124-62.115-62.345 126.694c51.621 18.066 80.908 59.866 80.908 119.163 0 64.305-40.255 129.196-130.171 129.196h-275.334c44.048 95.475 140.349 161.874 252.405 161.874 153.588 0 278.111-124.509 278.111-278.134 0-76.808-31.111-146.328-81.472-196.652l0.023-0.027z" />
<glyph unicode="&#xe953;" glyph-name="RBT-alt" d="M419.756 451.574h106.434c89.821 0 89.821 35.771 89.821 64.526 0 64.557-46.283 64.557-66.043 64.557h-456.706c-1.558-14.747-2.402-29.657-2.402-44.825 0-117.144 47.417-223.167 124.265-299.912l-0.068-0.036 299.948-299.88 106.276 106.249-201.524 409.321zM939.137 535.828c0 234.284-189.906 424.172-424.136 424.172-170.901 0-317.761-101.268-384.947-246.878h419.91c137.13 0 198.517-98.961 198.517-197.027 0-90.431-44.667-154.185-123.389-181.733l95.086-193.212 94.703 94.766c76.817 76.745 124.256 182.767 124.256 299.912z" />
<glyph unicode="&#xe954;" glyph-name="RBY" d="M289.382 316.345c-50.83-24.849-99.403-38.625-141.049-38.625-12.296 0-23.837 1.156-34.611 3.436l99.516-278.87 76.144 314.059zM367.743 362.299l328.603-126.843-111.31 343.522c-24.614-35.41-53.192-70.405-85.094-103.788-41.953-43.895-87.040-82.082-132.199-112.891zM681.363 823.295c-0.384-28.732-6.48-60.977-18.54-96.026-8.796-25.521-20.437-51.752-34.584-78.171h307.543l-254.418 174.197zM877.979 952.328l-180.961-88.236 294.976-201.981c25.138 97.461 22.261 181.286-7.405 243.762-26.172 25.020-62.115 41.89-106.61 46.455zM551.946 916.471c-71.385 0-167.812-47.688-258.817-125.539-21.304-19.344-42.238-39.686-62.616-61.026-17.208-17.994-33.703-36.358-49.498-54.994-47.566-59.545-83.468-121.529-103.363-179.327-24.158-70.134-21.304-126.338 7.834-154.18 14.702-14.052 35.848-21.177 62.846-21.177 87.92 0 213.865 72.356 320.877 184.33 72.545 75.909 127.024 159.924 153.417 236.56 24.153 70.134 21.295 126.333-7.839 154.166-14.707 14.066-35.853 21.186-62.842 21.186zM573.584 95.183c40.133 28.601 79.711 60.936 117.903 96.594l-355.321 137.152-91.185-376.141c101.95 12.901 216.218 62.729 326.345 140.769 0.727 0.569 1.458 1.151 2.258 1.626zM620.761 606.589l118.996-367.205c0.65 0.673 1.3 1.328 1.955 2.005 35.893 37.55 68.788 76.672 98.365 116.657 0.149 0.199 0.28 0.406 0.433 0.601 59.753 80.912 105.716 165.387 134.601 247.943h-354.35zM77.946 254.971l-77.575-123.339c-0.009-7.012 0-13.564 0-19.57 0-52.474 23.268-97.52 60.697-129.286 34.417-21.164 76.582-32.29 125.873-33.247l-108.994 305.443zM588.449 53.903c-69.533-48.347-140.787-86.037-210.009-111.161 167.049 9.88 406.174 24.614 522.925 31.843l-312.916 79.318zM848.841 299.665c-23.751-29.91-49.264-59.225-76.415-87.64-44.373-46.423-91.289-88.489-139.46-125.57l306.324-77.643-90.449 290.854zM880.427 341.243l95.204-306.152c10.092 119.090 33.821 400.809 47.99 583.039-28.592-91.957-77.675-186.583-143.194-276.887zM666.11 896.305l116.792 56.949c-60.182-0.741-114.543-2.881-165.049-8.647 9.681-4.94 18.473-11.122 26.289-18.595 8.963-8.566 16.233-18.554 21.968-29.707zM60.358 306.845c-1.445 1.233-2.849 2.515-4.231 3.838-16.355 15.623-27.327 35.794-32.922 59.712-12.413-57.003-18.093-110.132-20.685-155.499l57.838 91.948z" />
<glyph unicode="&#xe955;" glyph-name="RBY-alt" d="M511.722 960c-282.613 0-511.722-229.109-511.722-511.722 0-282.617 229.109-511.727 511.722-511.727 282.622 0 511.727 229.105 511.727 511.727 0 282.613-229.105 511.722-511.727 511.722zM725.001 687.872c14.553-30.633 15.962-71.746 3.635-119.542l-144.666 99.055 88.751 43.272c21.819-2.235 39.451-10.512 52.28-22.785zM546.582 541.102h173.768c-14.165-40.49-36.711-81.924-66.011-121.601-0.072-0.095-0.135-0.199-0.208-0.298-14.504-19.602-30.642-38.788-48.243-57.211-0.325-0.325-0.641-0.65-0.962-0.984l-58.344 180.094zM583.635 359.089l-161.156 62.196c22.144 15.109 44.26 33.843 64.837 55.368 15.651 16.373 29.667 33.532 41.732 50.903l54.587-168.467zM550.23 561.941c6.945 12.959 12.657 25.824 16.965 38.345 5.915 17.19 8.909 32.994 9.099 47.087l124.771-85.432h-150.834zM626.094 711.113l-57.288-27.933c-2.809 5.473-6.376 10.372-10.774 14.571-3.829 3.667-8.15 6.701-12.887 9.121 24.772 2.831 51.426 3.879 80.948 4.24zM280.211 486.659c9.753 28.343 27.364 58.746 50.695 87.952 7.744 9.144 15.831 18.148 24.271 26.971 9.997 10.467 20.265 20.441 30.714 29.928 44.631 38.178 91.93 61.564 126.929 61.564 13.244 0 23.616-3.49 30.822-10.39 14.291-13.65 15.691-41.213 3.852-75.611-12.946-37.582-39.664-78.79-75.245-116.015-52.479-54.908-114.25-90.399-157.372-90.399-13.244 0-23.611 3.495-30.822 10.386-14.291 13.655-15.691 41.217-3.843 75.616zM253.515 425.258c2.736-11.736 8.119-21.624 16.138-29.287 0.677-0.646 1.373-1.273 2.077-1.878l-28.362-45.096c1.264 22.252 4.055 48.306 10.146 76.261zM272.078 235.158c-18.355 15.583-29.766 37.672-29.766 63.406 0 2.944 0 6.159 0 9.604l38.047 60.48 53.449-149.791c-24.176 0.461-44.852 5.924-61.731 16.301zM297.898 381.49c5.283-1.111 10.945-1.68 16.974-1.68 20.428 0 44.247 6.755 69.172 18.942l-37.334-154.022-48.812 136.759zM406.995 404.925l174.265-67.262c-18.735-17.488-38.147-33.347-57.825-47.372-0.393-0.23-0.754-0.515-1.115-0.799-54-38.277-110.046-62.711-160.041-69.037l44.716 184.47zM427.726 215.524c33.947 12.323 68.892 30.804 102.997 54.515l153.467-38.901c-57.265-3.545-174.536-10.769-256.464-15.614zM552.551 286.015c23.629 18.175 46.636 38.806 68.396 61.577 13.312 13.939 25.828 28.316 37.474 42.983l44.364-142.643-150.234 38.083zM720.616 260.814l-46.699 150.143c32.132 44.292 56.204 90.702 70.233 135.798-6.958-89.37-18.595-227.529-23.535-285.941z" />
<glyph unicode="&#xe956;" glyph-name="SDC" d="M279.8 587.661v-267.576l231.724-133.784 231.724 133.784v267.576l-231.724 133.793-231.724-133.793zM692.444 413.111l-62.124 35.207v74.144l-118.801 68.59-83.748-48.351 264.673-149.692v-43.588l-180.92-104.46-180.93 104.46v150.486l62.128-35.202v-79.422l118.801-68.59 88.209 50.939-269.139 152.392v38.309l180.93 104.46 180.92-104.46v-145.221zM511.524 960.953c-283.033 0-512.476-229.444-512.476-512.476s229.444-512.476 512.476-512.476 512.476 229.444 512.476 512.476-229.444 512.476-512.476 512.476zM802.427 280.524l-290.903-167.952-290.903 167.952v335.904l290.903 167.957 290.903-167.957v-335.904z" />
<glyph unicode="&#xe957;" glyph-name="SDC-alt" d="M512.792 960l-443.404-256.003v-511.993l443.404-256.003 443.399 256.003v511.993l-443.399 256.003zM865.995 252.312l-353.203-203.922-353.207 203.922v407.84l353.207 203.927 353.203-203.927v-407.84zM237.016 615.444v-58.394l410.233-232.279-134.457-77.639-181.083 104.551v121.059l-94.693 53.648v-229.38l275.777-159.219 275.768 159.219v66.44l-403.419 228.17 127.652 73.701 181.074-104.546v-113.013l94.693-53.666v221.347l-275.768 159.215z" />
</font>
</defs>
</svg>
